<svg width="16" height="16" viewBox="0 0 16 16" fill="none" xmlns="http://www.w3.org/2000/svg">
<g clip-path="url(#clip0_938_119015)">
<path d="M7.98873 -0.000167501C5.85113 0.0348274 3.81317 0.909642 2.3154 2.43517C1.56598 3.18128 0.974692 4.07084 0.576874 5.05067C0.179056 6.03049 -0.0171232 7.08047 6.23667e-05 8.13783C-0.00116728 9.17102 0.201505 10.1943 0.596464 11.149C0.991423 12.1037 1.5709 12.9711 2.3017 13.7015C3.03249 14.4319 3.90023 15.0108 4.85519 15.4052C5.81014 15.7996 6.83354 16.0017 7.86673 15.9998H8.0094C10.1476 15.9778 12.1898 15.1085 13.6879 13.5826C15.1859 12.0567 16.0175 9.99879 16.0001 7.8605C16.0025 6.81478 15.7959 5.77912 15.3922 4.81443C14.9886 3.84974 14.3962 2.97549 13.6497 2.2431C12.9033 1.51071 12.018 0.93497 11.0458 0.549727C10.0736 0.164485 9.03422 -0.0224785 7.98873 -0.000167501ZM7.00006 11.0278C6.99526 10.8971 7.01656 10.7668 7.06273 10.6444C7.1089 10.522 7.17901 10.41 7.26895 10.3151C7.3589 10.2201 7.46687 10.144 7.58657 10.0912C7.70627 10.0385 7.83528 10.0101 7.96606 10.0078H7.98406C8.24714 10.0083 8.4998 10.1107 8.68908 10.2934C8.87837 10.4761 8.98958 10.7249 8.9994 10.9878C9.00429 11.1186 8.98305 11.249 8.93692 11.3714C8.89078 11.4938 8.82068 11.6058 8.73072 11.7008C8.64075 11.7958 8.53274 11.8719 8.413 11.9246C8.29326 11.9773 8.16421 12.0056 8.0334 12.0078H8.0154C7.75242 12.007 7.49995 11.9046 7.31073 11.7219C7.12152 11.5393 7.01021 11.2906 7.00006 11.0278ZM7.3334 8.33317V4.33317C7.3334 4.15635 7.40363 3.98679 7.52866 3.86176C7.65368 3.73674 7.82325 3.6665 8.00006 3.6665C8.17687 3.6665 8.34644 3.73674 8.47147 3.86176C8.59649 3.98679 8.66673 4.15635 8.66673 4.33317V8.33317C8.66673 8.50998 8.59649 8.67955 8.47147 8.80457C8.34644 8.92959 8.17687 8.99983 8.00006 8.99983C7.82325 8.99983 7.65368 8.92959 7.52866 8.80457C7.40363 8.67955 7.3334 8.50998 7.3334 8.33317Z" fill="#40526D"/>
</g>
<defs>
<clipPath id="clip0_938_119015">
<rect width="16" height="16" fill="white"/>
</clipPath>
</defs>
</svg>
