<svg width="33" height="33" viewBox="0 0 33 32" fill="none" xmlns="http://www.w3.org/2000/svg">
    <path d="M0.5 8C0.5 3.58172 4.08172 0 8.5 0H24.5C28.9183 0 32.5 3.58172 32.5 8V24C32.5 28.4183 28.9183 32 24.5 32H8.5C4.08172 32 0.5 28.4183 0.5 24V8Z" fill="white"/>
    <g clip-path="url(#clip0_947_25868)">
        <path d="M24.9006 12.3257H21.095C21.0657 12.3257 21.0367 12.3193 21.0101 12.3068C20.9836 12.2944 20.9601 12.2763 20.9413 12.2538C20.9225 12.2313 20.9089 12.2049 20.9015 12.1765C20.894 12.1482 20.8929 12.1185 20.8982 12.0897L21.6838 7.7777C21.7074 7.64859 21.7053 7.51609 21.6777 7.38778C21.6501 7.25946 21.5974 7.13785 21.5228 7.02987C21.4482 6.92189 21.353 6.82967 21.2428 6.75847C21.1325 6.68727 21.0093 6.63849 20.8802 6.6149C20.7511 6.59132 20.6186 6.59339 20.4903 6.62101C20.3619 6.64863 20.2403 6.70126 20.1324 6.77588C20.0244 6.8505 19.9322 6.94566 19.861 7.05592C19.7898 7.16618 19.741 7.28939 19.7174 7.4185L18.8526 12.1601C18.8442 12.2062 18.8199 12.248 18.784 12.2781C18.748 12.3082 18.7027 12.3247 18.6558 12.3249H15.7494C15.7201 12.3249 15.6911 12.3185 15.6645 12.306C15.638 12.2936 15.6145 12.2755 15.5957 12.253C15.5769 12.2305 15.5633 12.2041 15.5559 12.1757C15.5484 12.1474 15.5473 12.1177 15.5526 12.0889L16.339 7.7769C16.3818 7.51808 16.3212 7.25279 16.1703 7.03822C16.0193 6.82365 15.7901 6.677 15.532 6.62988C15.274 6.58275 15.0077 6.63893 14.7907 6.78631C14.5736 6.93368 14.4232 7.16044 14.3718 7.4177L13.507 12.1601C13.4986 12.2062 13.4743 12.248 13.4384 12.2781C13.4024 12.3082 13.3571 12.3247 13.3102 12.3249H9.63019C9.36497 12.3249 9.11062 12.4303 8.92308 12.6178C8.73554 12.8053 8.63019 13.0597 8.63019 13.3249C8.63019 13.5901 8.73554 13.8445 8.92308 14.032C9.11062 14.2195 9.36497 14.3249 9.63019 14.3249H12.8726C12.9021 14.3254 12.9312 14.3324 12.9578 14.3454C12.9843 14.3584 13.0077 14.3771 13.0262 14.4001C13.0452 14.4225 13.0589 14.4488 13.0664 14.4772C13.0738 14.5056 13.0749 14.5353 13.0694 14.5641L12.5326 17.5065C12.5242 17.5525 12.4998 17.5942 12.4639 17.6241C12.4279 17.6541 12.3826 17.6705 12.3358 17.6705H8.10059C7.83537 17.6705 7.58102 17.7759 7.39348 17.9634C7.20594 18.1509 7.10059 18.4053 7.10059 18.6705C7.10059 18.9357 7.20594 19.1901 7.39348 19.3776C7.58102 19.5651 7.83537 19.6705 8.10059 19.6705H11.8982C11.9275 19.6705 11.9565 19.6769 11.983 19.6893C12.0096 19.7018 12.0331 19.7199 12.0518 19.7425C12.0702 19.7644 12.0836 19.7901 12.091 19.8177C12.0985 19.8454 12.0999 19.8743 12.095 19.9025L11.3094 24.2145C11.2665 24.4733 11.3271 24.7386 11.4781 24.9532C11.629 25.1678 11.8583 25.3144 12.1163 25.3615C12.3744 25.4087 12.6407 25.3525 12.8577 25.2051C13.0748 25.0577 13.2252 24.831 13.2766 24.5737L14.1406 19.8305C14.1501 19.7853 14.1749 19.7448 14.2107 19.7157C14.2465 19.6866 14.2912 19.6706 14.3374 19.6705H17.2438C17.2731 19.6705 17.3021 19.6769 17.3286 19.6894C17.3552 19.7018 17.3787 19.7199 17.3975 19.7424C17.4162 19.7649 17.4298 19.7913 17.4373 19.8197C17.4447 19.848 17.4459 19.8777 17.4406 19.9065L16.6542 24.2185C16.6113 24.4773 16.6719 24.7426 16.8229 24.9572C16.9738 25.1718 17.2031 25.3184 17.4611 25.3655C17.7192 25.4127 17.9855 25.3565 18.2025 25.2091C18.4196 25.0617 18.57 24.835 18.6214 24.5777L19.4862 19.8345C19.4956 19.7893 19.5203 19.7486 19.5561 19.7195C19.592 19.6904 19.6368 19.6745 19.683 19.6745H23.3734C23.6386 19.6745 23.893 19.5691 24.0805 19.3816C24.268 19.1941 24.3734 18.9397 24.3734 18.6745C24.3734 18.4093 24.268 18.1549 24.0805 17.9674C23.893 17.7799 23.6386 17.6745 23.3734 17.6745H20.1206C20.0913 17.6745 20.0623 17.6681 20.0357 17.6556C20.0092 17.6432 19.9857 17.6251 19.9669 17.6026C19.9481 17.5801 19.9345 17.5537 19.9271 17.5253C19.9196 17.497 19.9185 17.4673 19.9238 17.4385L20.4606 14.4937C20.469 14.4477 20.4933 14.406 20.5293 14.3761C20.5652 14.3461 20.6106 14.3297 20.6574 14.3297H24.8974C25.1626 14.3297 25.417 14.2243 25.6045 14.0368C25.792 13.8493 25.8974 13.5949 25.8974 13.3297C25.8974 13.0645 25.792 12.8101 25.6045 12.6226C25.417 12.4351 25.1626 12.3297 24.8974 12.3297L24.9006 12.3257ZM17.8782 17.5065C17.8698 17.5525 17.8455 17.5942 17.8095 17.6241C17.7735 17.6541 17.7282 17.6705 17.6814 17.6705H14.775C14.7457 17.6705 14.7167 17.6641 14.6901 17.6516C14.6636 17.6392 14.6401 17.6211 14.6213 17.5986C14.6025 17.5761 14.5889 17.5497 14.5815 17.5213C14.574 17.493 14.5729 17.4633 14.5782 17.4345L15.115 14.4897C15.1236 14.4437 15.1479 14.4022 15.1838 14.3722C15.2198 14.3423 15.265 14.3258 15.3118 14.3257H18.2182C18.2475 14.3256 18.2764 14.3319 18.303 14.3442C18.3295 14.3566 18.353 14.3746 18.3718 14.3971C18.3906 14.4195 18.4042 14.4459 18.4117 14.4742C18.4192 14.5025 18.4203 14.5321 18.415 14.5609L17.8782 17.5065Z" fill="#D32D27"/>
    </g>
    <path d="M8.5 1H24.5V-1H8.5V1ZM31.5 8V24H33.5V8H31.5ZM24.5 31H8.5V33H24.5V31ZM1.5 24V8H-0.5V24H1.5ZM8.5 31C4.63401 31 1.5 27.866 1.5 24H-0.5C-0.5 28.9706 3.52944 33 8.5 33V31ZM31.5 24C31.5 27.866 28.366 31 24.5 31V33C29.4706 33 33.5 28.9706 33.5 24H31.5ZM24.5 1C28.366 1 31.5 4.13401 31.5 8H33.5C33.5 3.02944 29.4706 -1 24.5 -1V1ZM8.5 -1C3.52944 -1 -0.5 3.02944 -0.5 8H1.5C1.5 4.13401 4.63401 1 8.5 1V-1Z" fill="#D32D27"/>
    <defs>
        <clipPath id="clip0_947_25868">
            <rect width="19.2" height="19.2" fill="white" transform="translate(6.90039 6.3999)"/>
        </clipPath>
    </defs>
</svg>
