<svg width="60" height="40" viewBox="0 0 60 40" fill="none" xmlns="http://www.w3.org/2000/svg">
<circle cx="29.5" cy="19.5" r="11.5" fill="#768498"/>
<rect width="13.8" height="13.8" transform="translate(22.6001 12.5999)" fill="#768498"/>
<path d="M34.5625 15.0934C34.4591 15.0161 34.3418 14.9602 34.2171 14.9289C34.0924 14.8976 33.9629 14.8916 33.836 14.9111C33.709 14.9307 33.5871 14.9754 33.4772 15.0428C33.3673 15.1102 33.2715 15.1989 33.1954 15.3039L28.5597 21.6905L25.6119 19.2963C25.4086 19.1383 25.1525 19.0674 24.8983 19.0988C24.6441 19.1301 24.4122 19.2614 24.2522 19.4643C24.0923 19.6672 24.017 19.9257 24.0425 20.1843C24.068 20.4429 24.1923 20.681 24.3888 20.8477L28.1316 23.8869C28.2351 23.969 28.3536 24.0294 28.4802 24.0645C28.6069 24.0996 28.7392 24.1087 28.8694 24.0913C28.9996 24.074 29.1251 24.0304 29.2385 23.9633C29.3519 23.8961 29.451 23.8067 29.53 23.7002L34.773 16.4819C34.849 16.3768 34.9039 16.2574 34.9345 16.1307C34.9651 16.004 34.9708 15.8724 34.9512 15.7434C34.9317 15.6145 34.8873 15.4907 34.8206 15.3791C34.7539 15.2676 34.6662 15.1705 34.5625 15.0934Z" fill="white"/>
<rect x="6" y="28" width="2.5" height="2.5" stroke="#BAC0CA" stroke-linecap="round" stroke-linejoin="round"/>
<path fill-rule="evenodd" clip-rule="evenodd" d="M10.25 10.5C10.9404 10.5 11.5 9.94036 11.5 9.25C11.5 8.55964 10.9404 8 10.25 8C9.55964 8 9 8.55964 9 9.25C9 9.94036 9.55964 10.5 10.25 10.5Z" stroke="#BAC0CA"/>
<path fill-rule="evenodd" clip-rule="evenodd" d="M51.25 26.5C51.9404 26.5 52.5 25.9404 52.5 25.25C52.5 24.5596 51.9404 24 51.25 24C50.5596 24 50 24.5596 50 25.25C50 25.9404 50.5596 26.5 51.25 26.5Z" stroke="#BAC0CA"/>
<path d="M52.1046 9.10439L54.4795 11.4793" stroke="#BAC0CA" stroke-linecap="round"/>
<path d="M54.3954 9.10415L52.0205 11.479" stroke="#BAC0CA" stroke-linecap="round"/>
</svg>
