<svg width="56" height="56" viewBox="0 0 56 56" fill="none" xmlns="http://www.w3.org/2000/svg">
<path d="M28 55C42.9117 55 55 42.9117 55 28C55 13.0883 42.9117 1 28 1C13.0883 1 1 13.0883 1 28C1 42.9117 13.0883 55 28 55Z" fill="#B7CBEF" stroke="#264887" stroke-width="2"/>
<path d="M14.3455 16.5809C14.4011 16.3397 14.5233 16.119 14.6983 15.944C14.8732 15.7689 15.0938 15.6466 15.335 15.5909L17.3225 15.1327C17.3593 15.1247 17.3922 15.1043 17.4158 15.075C17.4395 15.0457 17.4524 15.0092 17.4524 14.9715C17.4524 14.9339 17.4395 14.8974 17.4158 14.8681C17.3922 14.8387 17.3593 14.8184 17.3225 14.8104L15.335 14.3522C15.0938 14.2966 14.8731 14.1744 14.6981 13.9994C14.523 13.8245 14.4007 13.6039 14.345 13.3627L13.8868 11.3779C13.8788 11.3411 13.8585 11.3082 13.8291 11.2846C13.7998 11.2609 13.7633 11.248 13.7256 11.248C13.688 11.248 13.6515 11.2609 13.6222 11.2846C13.5928 11.3082 13.5725 11.3411 13.5645 11.3779L13.1068 13.3654C13.0506 13.606 12.9282 13.826 12.7533 14.0006C12.5784 14.1751 12.3581 14.2971 12.1174 14.3527L10.1299 14.8104C10.0931 14.8184 10.0601 14.8387 10.0365 14.8681C10.0129 14.8974 10 14.9339 10 14.9715C10 15.0092 10.0129 15.0457 10.0365 15.075C10.0601 15.1043 10.0931 15.1247 10.1299 15.1327L12.1174 15.5909C12.3585 15.6466 12.5791 15.7689 12.7541 15.944C12.929 16.119 13.0513 16.3397 13.1068 16.5809L13.565 18.5684C13.573 18.6052 13.5934 18.6381 13.6227 18.6617C13.652 18.6854 13.6885 18.6983 13.7262 18.6983C13.7638 18.6983 13.8004 18.6854 13.8297 18.6617C13.859 18.6381 13.8793 18.6052 13.8873 18.5684L14.3455 16.5809Z" fill="white" stroke="#264887" stroke-linecap="round" stroke-linejoin="round"/>
<path d="M25.4631 10.2544C25.5079 10.0615 25.6059 9.88519 25.7461 9.74547C25.8863 9.60574 26.063 9.50827 26.256 9.46421L27.8411 9.0984C27.8703 9.09183 27.8963 9.07554 27.915 9.05221C27.9336 9.02888 27.9438 8.99989 27.9438 8.97002C27.9438 8.94015 27.9336 8.91116 27.915 8.88783C27.8963 8.8645 27.8703 8.84821 27.8411 8.84164L26.256 8.47691C26.0635 8.43261 25.8873 8.33509 25.7476 8.19546C25.6079 8.05584 25.5102 7.87974 25.4658 7.68728L25.1 6.10266C25.0934 6.07352 25.0772 6.04748 25.0538 6.02882C25.0305 6.01016 25.0015 6 24.9716 6C24.9418 6 24.9128 6.01016 24.8894 6.02882C24.8661 6.04748 24.8498 6.07352 24.8432 6.10266L24.4774 7.68728C24.4331 7.87977 24.3356 8.05593 24.196 8.19565C24.0564 8.33537 23.8803 8.43302 23.6878 8.47744L22.1027 8.84271C22.0735 8.84928 22.0475 8.86557 22.0288 8.8889C22.0102 8.91224 22 8.94122 22 8.97109C22 9.00097 22.0102 9.02995 22.0288 9.05328C22.0475 9.07661 22.0735 9.0929 22.1027 9.09947L23.6873 9.46528C23.8798 9.50973 24.0559 9.60738 24.1956 9.74708C24.3353 9.88679 24.433 10.0629 24.4774 10.2554L24.8432 11.8411C24.8498 11.8703 24.8661 11.8963 24.8894 11.915C24.9128 11.9336 24.9418 11.9438 24.9716 11.9438C25.0015 11.9438 25.0305 11.9336 25.0538 11.915C25.0772 11.8963 25.0934 11.8703 25.1 11.8411L25.4631 10.2544Z" fill="white" stroke="#264887" stroke-linecap="round" stroke-linejoin="round"/>
</svg>
