<svg width="24" height="24" viewBox="0 0 24 24" fill="none" xmlns="http://www.w3.org/2000/svg">
<rect x="0.5" y="0.5" width="23" height="23" rx="3.5" fill="white" stroke="#1B283C"/>
<path d="M17.8698 6.6609C17.7499 6.57122 17.6138 6.5064 17.4693 6.47014C17.3248 6.43387 17.1746 6.42687 17.0274 6.44953C16.8802 6.4722 16.7389 6.52409 16.6114 6.60223C16.484 6.68037 16.373 6.78324 16.2847 6.90496L10.91 14.3097L7.49223 11.5338C7.25657 11.3506 6.95958 11.2684 6.6649 11.3048C6.37023 11.3412 6.10133 11.4933 5.91585 11.7286C5.73036 11.9638 5.64306 12.2635 5.67265 12.5633C5.70224 12.8631 5.84637 13.1393 6.07414 13.3325L10.4137 16.8562C10.5336 16.9514 10.671 17.0214 10.8179 17.0621C10.9647 17.1028 11.1181 17.1134 11.2691 17.0933C11.42 17.0731 11.5655 17.0226 11.697 16.9448C11.8285 16.8669 11.9434 16.7632 12.035 16.6398L18.1138 8.27078C18.202 8.14883 18.2656 8.01044 18.3011 7.86351C18.3365 7.71659 18.3431 7.56401 18.3205 7.4145C18.2978 7.26499 18.2463 7.12148 18.169 6.99217C18.0917 6.86286 17.99 6.75029 17.8698 6.6609Z" fill="#1B283C"/>
</svg>
