<svg width="10" height="8" viewBox="0 0 10 8" fill="none" xmlns="http://www.w3.org/2000/svg">
    <path d="M9.40208 0.168281C9.3122 0.101026 9.21014 0.0524095 9.10174 0.0252092C8.99334 -0.00199105 8.88073 -0.00724163 8.77033 0.00975747C8.65993 0.0267566 8.55391 0.065672 8.45834 0.12428C8.36276 0.182888 8.2795 0.26004 8.21331 0.351327L4.18224 5.90487L1.61893 3.82298C1.44219 3.68555 1.21944 3.62387 0.998433 3.65117C0.777427 3.67847 0.575752 3.79258 0.43664 3.96903C0.297528 4.14548 0.23205 4.37022 0.254242 4.5951C0.276434 4.81997 0.384531 5.02707 0.555359 5.172L3.81002 7.81476C3.89996 7.88617 4.00301 7.93867 4.11317 7.9692C4.22332 7.99973 4.33836 8.00766 4.45156 7.99255C4.56477 7.97744 4.67388 7.93958 4.77251 7.88118C4.87114 7.82279 4.95732 7.74503 5.02601 7.65244L9.58512 1.37569C9.65126 1.28423 9.69898 1.18044 9.72557 1.07024C9.75217 0.960048 9.7571 0.845613 9.7401 0.73348C9.7231 0.621347 9.6845 0.513714 9.6265 0.416734C9.5685 0.319753 9.49224 0.235327 9.40208 0.168281Z" fill="white"/>
</svg>
