<svg width="24" height="16" viewBox="0 0 24 16" fill="none" xmlns="http://www.w3.org/2000/svg">
<path d="M12 15.5C11.6729 15.5004 11.3495 15.431 11.0514 15.2965C10.7532 15.162 10.4872 14.9655 10.271 14.72L0.460017 3.568C0.149927 3.19846 -0.00327309 2.72225 0.0331766 2.24122C0.0696263 1.76018 0.292832 1.3125 0.655067 0.993895C1.0173 0.675291 1.48981 0.511053 1.97156 0.536302C2.45332 0.56155 2.90607 0.774281 3.23302 1.129L11.812 10.881C11.8355 10.9078 11.8644 10.9292 11.8968 10.9439C11.9292 10.9586 11.9644 10.9662 12 10.9662C12.0356 10.9662 12.0708 10.9586 12.1032 10.9439C12.1356 10.9292 12.1646 10.9078 12.188 10.881L20.767 1.129C20.9253 0.94043 21.1196 0.785388 21.3386 0.672993C21.5576 0.560599 21.7969 0.493118 22.0423 0.474518C22.2878 0.455918 22.5345 0.486575 22.768 0.564685C23.0014 0.642796 23.2169 0.766784 23.4017 0.929363C23.5866 1.09194 23.737 1.28983 23.8443 1.5114C23.9516 1.73297 24.0135 1.97374 24.0264 2.21957C24.0392 2.4654 24.0029 2.71133 23.9193 2.94289C23.8358 3.17446 23.7069 3.38699 23.54 3.568L13.732 14.716C13.5155 14.9621 13.249 15.1593 12.9504 15.2944C12.6518 15.4296 12.3278 15.4997 12 15.5Z" fill="#40526D"/>
</svg>
