<svg width="16" height="11" viewBox="0 0 16 11" fill="none" xmlns="http://www.w3.org/2000/svg">
<path d="M8 11C7.78194 11.0003 7.56634 10.954 7.36757 10.8644C7.1688 10.7747 6.99144 10.6437 6.84733 10.48L0.306668 3.04534C0.0999409 2.79897 -0.00219224 2.4815 0.0221076 2.16081C0.0464074 1.84012 0.195211 1.54167 0.436701 1.32926C0.678191 1.11686 0.993198 1.00737 1.31437 1.0242C1.63553 1.04103 1.93737 1.18285 2.15533 1.41934L7.87467 7.92067C7.89031 7.93852 7.90958 7.95282 7.9312 7.96261C7.95281 7.97241 7.97627 7.97748 8 7.97748C8.02373 7.97748 8.04719 7.97241 8.0688 7.96261C8.09042 7.95282 8.10969 7.93852 8.12533 7.92067L13.8447 1.41934C13.9502 1.29362 14.0797 1.19026 14.2257 1.11533C14.3717 1.0404 14.5312 0.995412 14.6949 0.983012C14.8585 0.970612 15.023 0.99105 15.1786 1.04312C15.3343 1.0952 15.4779 1.17786 15.6011 1.28624C15.7244 1.39463 15.8247 1.52655 15.8962 1.67427C15.9677 1.82198 16.009 1.98249 16.0176 2.14638C16.0262 2.31027 16.0019 2.47422 15.9462 2.6286C15.8905 2.78297 15.8046 2.92466 15.6933 3.04534L9.15467 10.4773C9.01031 10.6414 8.83268 10.7728 8.6336 10.863C8.43451 10.9531 8.21853 10.9998 8 11Z" fill="#40526D"/>
</svg>
