<svg width="24" height="16" viewBox="0 0 24 16" fill="none" xmlns="http://www.w3.org/2000/svg">
<path d="M12 0.499995C12.3271 0.499591 12.6505 0.568955 12.9486 0.70346C13.2468 0.837964 13.5128 1.03452 13.729 1.28L23.54 12.432C23.8501 12.8015 24.0033 13.2777 23.9668 13.7588C23.9304 14.2398 23.7072 14.6875 23.3449 15.0061C22.9827 15.3247 22.5102 15.4889 22.0284 15.4637C21.5467 15.4384 21.0939 15.2257 20.767 14.871L12.188 5.119C12.1645 5.09223 12.1356 5.07078 12.1032 5.05608C12.0708 5.04139 12.0356 5.03379 12 5.03379C11.9644 5.03379 11.9292 5.04139 11.8968 5.05608C11.8644 5.07078 11.8354 5.09223 11.812 5.119L3.23298 14.871C3.07475 15.0596 2.88041 15.2146 2.6614 15.327C2.44239 15.4394 2.20312 15.5069 1.95766 15.5255C1.71219 15.5441 1.46549 15.5134 1.23204 15.4353C0.998594 15.3572 0.783115 15.2332 0.598272 15.0706C0.413429 14.9081 0.262953 14.7102 0.155684 14.4886C0.0484142 14.267 -0.0134811 14.0263 -0.0263653 13.7804C-0.0392494 13.5346 -0.00286102 13.2887 0.0806599 13.0571C0.164181 12.8255 0.293146 12.613 0.459982 12.432L10.268 1.284C10.4845 1.03791 10.751 0.840727 11.0496 0.705552C11.3482 0.570377 11.6722 0.500306 12 0.499995Z" fill="#40526D"/>
</svg>
