<svg width="40" height="40" viewBox="0 0 40 40" fill="none" xmlns="http://www.w3.org/2000/svg">
    <rect width="40" height="40" rx="20" fill="#E8F3FF"/>
    <path d="M28.7742 23.0186V25.2134C28.7742 25.8023 28.2378 26.284 27.5822 26.284H11.192C10.5364 26.284 10 25.8023 10 25.2134V23.0186H28.7742Z" fill="#004590" stroke="#004590" stroke-width="1.91304" stroke-linecap="round" stroke-linejoin="round"/>
    <path d="M22.4739 28.963H16.5312L16.8254 26.6091H22.1797L22.4739 28.963Z" fill="#004590" stroke="#004590" stroke-width="1.41757" stroke-linecap="round" stroke-linejoin="round"/>
    <path d="M14.8984 30.0298H24.4891" stroke="#004590" stroke-width="1.91304" stroke-linecap="round" stroke-linejoin="round"/>
    <path fill-rule="evenodd" clip-rule="evenodd" d="M21.9394 11.25C21.6649 11.5924 21.5007 12.027 21.5007 12.5V13.25H11.2368C11.1156 13.25 11.0508 13.3451 11.0508 13.4099V21.8628H23.115C23.2398 21.8872 23.3688 21.9 23.5007 21.9H29.5007C29.5785 21.9 29.6553 21.8956 29.7308 21.8869V22.8628C29.7308 23.4151 29.2831 23.8628 28.7308 23.8628H10.0508C9.4985 23.8628 9.05078 23.4151 9.05078 22.8628V13.4099C9.05078 12.1987 10.0534 11.25 11.2368 11.25H21.9394Z" fill="#004590"/>
    <path d="M31.6113 11.7805V10.5225C31.6113 9.58824 31.2426 8.69229 30.5862 8.0317C29.9298 7.37111 29.0396 7 28.1113 7C27.1831 7 26.2928 7.37111 25.6365 8.0317C24.9801 8.69229 24.6113 9.58824 24.6113 10.5225V11.7805C24.2135 11.7805 23.832 11.9395 23.5507 12.2226C23.2694 12.5057 23.1113 12.8897 23.1113 13.2901V18.8254C23.1113 19.2258 23.2694 19.6097 23.5507 19.8928C23.832 20.176 24.2135 20.335 24.6113 20.335H31.6113C32.0092 20.335 32.3907 20.176 32.672 19.8928C32.9533 19.6097 33.1113 19.2258 33.1113 18.8254V13.2901C33.1113 12.8897 32.9533 12.5057 32.672 12.2226C32.3907 11.9395 32.0092 11.7805 31.6113 11.7805ZM26.6113 10.5225C26.6113 10.1221 26.7694 9.7381 27.0507 9.45499C27.332 9.17188 27.7135 9.01283 28.1113 9.01283C28.5092 9.01283 28.8907 9.17188 29.172 9.45499C29.4533 9.7381 29.6113 10.1221 29.6113 10.5225V11.7805H26.6113V10.5225ZM29.1113 16.5609C29.1113 16.76 29.0527 16.9546 28.9428 17.1201C28.8329 17.2856 28.6767 17.4146 28.494 17.4908C28.3113 17.5669 28.1102 17.5869 27.9162 17.548C27.7223 17.5092 27.5441 17.4133 27.4042 17.2726C27.2644 17.1318 27.1691 16.9525 27.1305 16.7573C27.092 16.5621 27.1118 16.3597 27.1874 16.1758C27.2631 15.9919 27.3913 15.8347 27.5558 15.7241C27.7202 15.6136 27.9135 15.5545 28.1113 15.5545C28.3765 15.5545 28.6309 15.6606 28.8184 15.8493C29.006 16.038 29.1113 16.294 29.1113 16.5609Z" fill="#004590"/>
</svg>
