<svg width="20" height="20" viewBox="0 0 20 20" fill="none" xmlns="http://www.w3.org/2000/svg">
<path d="M10.8334 1.66602H3.33341C2.41294 1.66602 1.66675 2.41221 1.66675 3.33268V10.8327C1.66675 11.7532 2.41294 12.4993 3.33341 12.4993H10.8334C11.7539 12.4993 12.5001 11.7532 12.5001 10.8327V3.33268C12.5001 2.41221 11.7539 1.66602 10.8334 1.66602Z" fill="#007AFF"/>
<path d="M18.3333 9.5C18.3333 8.39543 17.4379 7.5 16.3333 7.5H14.1667V11.1667C14.1667 12.8235 12.8235 14.1667 11.1667 14.1667H7.5V16.3333C7.5 17.4379 8.39543 18.3333 9.5 18.3333H16.3333C17.4379 18.3333 18.3333 17.4379 18.3333 16.3333V9.5Z" fill="#007AFF"/>
</svg>

