<svg width="114" height="146" viewBox="0 0 114 146" fill="none" xmlns="http://www.w3.org/2000/svg">
<path opacity="0.15" d="M57.6273 145.153C75.0471 145.153 89.1687 143.524 89.1687 141.514C89.1687 139.505 75.0471 137.875 57.6273 137.875C40.2075 137.875 26.0859 139.505 26.0859 141.514C26.0859 143.524 40.2075 145.153 57.6273 145.153Z" fill="#004590"/>
<path d="M58.2566 45.3621C57.6876 45.6828 57.0429 45.8446 56.3899 45.8306C55.7369 45.8165 55.0997 45.6272 54.545 45.2825C53.9903 44.9377 53.5385 44.4501 53.2369 43.8708C52.9353 43.2915 52.795 42.6417 52.8306 41.9896L53.2141 13.3452C53.2199 12.8531 53.3255 12.3672 53.5243 11.917C53.7232 11.4668 54.0112 11.0615 54.371 10.7256C54.7308 10.3898 55.1549 10.1303 55.6178 9.96294C56.0806 9.79555 56.5726 9.72369 57.064 9.75169C57.5554 9.7797 58.036 9.90699 58.4768 10.1259C58.9176 10.3448 59.3095 10.6507 59.6289 11.0253C59.9482 11.3998 60.1883 11.8352 60.3347 12.3051C60.4811 12.775 60.5307 13.2697 60.4806 13.7594L60.0972 42.4037C60.0619 43.0114 59.875 43.6005 59.5535 44.1172C59.232 44.634 58.7861 45.062 58.2566 45.3621Z" fill="#90C6EB" stroke="#004590" stroke-linecap="round" stroke-linejoin="round"/>
<path d="M73.3669 11.5777C73.4359 5.85843 66.1215 1.1323 57.0278 1.0211C47.934 0.909898 40.5045 5.4558 40.4355 11.1828L40.3799 15.7612C40.3778 16.3733 40.6169 16.9616 41.0453 17.3986C41.4738 17.8357 42.0572 18.0864 42.6691 18.0965L70.9492 18.4416C71.2549 18.4454 71.5583 18.3889 71.842 18.2752C72.1258 18.1616 72.3843 17.9931 72.6029 17.7794C72.8214 17.5656 72.9956 17.3109 73.1155 17.0297C73.2355 16.7486 73.2987 16.4465 73.3017 16.1409L73.3669 11.5777Z" fill="#90C6EB"/>
<path d="M73.3304 10.8106C69.6144 8.09888 65.1148 6.67439 60.5152 6.75361C51.4215 6.64241 43.9939 11.1883 43.923 16.9153L43.9096 18.1308L42.6691 18.0963C42.3634 18.0928 42.0614 18.0291 41.7804 17.9089C41.4993 17.7887 41.2447 17.6143 41.031 17.3956C40.8174 17.177 40.6489 16.9184 40.5352 16.6347C40.4215 16.3509 40.3648 16.0475 40.3683 15.7419L40.4239 11.1634C40.4929 5.4441 47.9225 0.8982 57.0162 1.00173C65.7092 1.12061 72.7706 5.44218 73.3304 10.8106Z" fill="#DAECF8"/>
<path d="M73.3669 11.5777C73.4359 5.85843 66.1215 1.1323 57.0278 1.0211C47.934 0.909898 40.5045 5.4558 40.4355 11.1828L40.3799 15.7612C40.3778 16.3733 40.6169 16.9616 41.0453 17.3986C41.4738 17.8357 42.0572 18.0864 42.6691 18.0965L70.9492 18.4416C71.2549 18.4454 71.5582 18.3889 71.842 18.2752C72.1258 18.1616 72.3843 17.9931 72.6029 17.7794C72.8214 17.5656 72.9956 17.3109 73.1155 17.0297C73.2355 16.7486 73.2987 16.4465 73.3017 16.1409L73.3669 11.5777Z" stroke="#004590" stroke-linecap="round" stroke-linejoin="round"/>
<path d="M32.5215 56.3272C33.1751 56.3249 33.8161 56.1468 34.3772 55.8116C34.9383 55.4764 35.3989 54.9963 35.7106 54.4218C36.0224 53.8473 36.1738 53.1996 36.1491 52.5464C36.1243 51.8932 35.9243 51.2588 35.57 50.7095L21.056 26.0109C20.8082 25.5846 20.4764 25.213 20.0808 24.9186C19.6851 24.6243 19.2338 24.4134 18.7542 24.2986C18.2746 24.1839 17.7766 24.1677 17.2906 24.2511C16.8045 24.3345 16.3405 24.5157 15.9265 24.7837C15.5126 25.0517 15.1574 25.401 14.8824 25.8104C14.6075 26.2198 14.4185 26.6807 14.327 27.1653C14.2354 27.6499 14.2432 28.148 14.3499 28.6295C14.4566 29.111 14.6599 29.5658 14.9476 29.9663L29.4615 54.6649C29.7922 55.1754 30.2455 55.595 30.78 55.8854C31.3145 56.1757 31.9132 56.3276 32.5215 56.3272Z" fill="#90C6EB" stroke="#004590" stroke-linecap="round" stroke-linejoin="round"/>
<path d="M7.83971 35.1599C5.6981 31.7414 8.36889 26.21 13.8044 22.8068C19.2399 19.4036 25.381 19.4132 27.5226 22.8317L28.8647 24.9868C29.0269 25.2456 29.1365 25.5338 29.1873 25.835C29.238 26.1362 29.229 26.4444 29.1606 26.7421C29.0922 27.0398 28.9659 27.3211 28.7888 27.57C28.6117 27.8188 28.3873 28.0303 28.1285 28.1925L12.3856 38.0512C12.127 38.2136 11.8389 38.3233 11.5378 38.3742C11.2367 38.4251 10.9286 38.4161 10.631 38.3477C10.3334 38.2793 10.0522 38.1529 9.80354 37.9757C9.55487 37.7985 9.3436 37.5739 9.18182 37.315L7.83971 35.1599Z" fill="#90C6EB"/>
<path d="M7.58242 34.6828C8.82587 31.6865 11.013 29.1776 13.8117 27.5371C19.2472 24.1339 25.3883 24.1435 27.5299 27.562L27.9863 28.2906L28.1415 28.1928C28.4004 28.0306 28.6248 27.8191 28.8019 27.5703C28.9789 27.3214 29.1053 27.0401 29.1736 26.7424C29.242 26.4447 29.2511 26.1365 29.2003 25.8353C29.1495 25.5341 29.04 25.2459 28.8778 24.9871L27.5357 22.832C25.3941 19.4135 19.253 19.402 13.8175 22.8071C8.61393 26.0569 5.94505 31.2451 7.58242 34.6828Z" fill="#DAECF8"/>
<path d="M7.83971 35.1599C5.6981 31.7414 8.36889 26.21 13.8044 22.8068C19.2399 19.4036 25.381 19.4132 27.5226 22.8317L28.8647 24.9868C29.0269 25.2456 29.1365 25.5338 29.1873 25.835C29.238 26.1362 29.229 26.4444 29.1606 26.7421C29.0922 27.0398 28.9659 27.3211 28.7888 27.57C28.6117 27.8188 28.3873 28.0303 28.1285 28.1925L12.3856 38.0512C12.127 38.2136 11.8389 38.3233 11.5378 38.3742C11.2367 38.4251 10.9286 38.4161 10.631 38.3477C10.3334 38.2793 10.0522 38.1529 9.80354 37.9757C9.55487 37.7985 9.3436 37.5739 9.18182 37.315L7.83971 35.1599Z" stroke="#004590" stroke-linecap="round" stroke-linejoin="round"/>
<path d="M81.1097 56.3271C80.4559 56.3252 79.8147 56.1474 79.2533 55.8123C78.6919 55.4772 78.231 54.9972 77.9191 54.4226C77.6071 53.8481 77.4555 53.2002 77.4801 52.5468C77.5048 51.8935 77.7048 51.2589 78.0593 50.7095L92.5732 26.0109C92.8222 25.587 93.1545 25.2179 93.55 24.9258C93.9455 24.6337 94.3961 24.4247 94.8745 24.3114C95.3529 24.1981 95.8493 24.1828 96.3338 24.2665C96.8183 24.3501 97.2809 24.531 97.6936 24.7981C98.1064 25.0653 98.4607 25.4133 98.7354 25.821C99.0101 26.2288 99.1994 26.688 99.2919 27.1709C99.3844 27.6538 99.3782 28.1504 99.2736 28.6308C99.1691 29.1112 98.9684 29.5655 98.6836 29.9663L84.1697 54.6648C83.839 55.1754 83.3857 55.5949 82.8512 55.8853C82.3167 56.1757 81.718 56.3276 81.1097 56.3271Z" fill="#90C6EB" stroke="#004590" stroke-linecap="round" stroke-linejoin="round"/>
<path d="M105.79 35.1603C107.932 31.7417 105.261 26.2103 99.8254 22.8071C94.3898 19.404 88.2468 19.4135 86.1071 22.8321L84.765 24.9871C84.6029 25.2459 84.4933 25.5342 84.4425 25.8354C84.3917 26.1365 84.4008 26.4448 84.4692 26.7425C84.5375 27.0401 84.6639 27.3214 84.8409 27.5703C85.018 27.8191 85.2424 28.0307 85.5013 28.1928L101.242 38.0515C101.501 38.2137 101.789 38.3233 102.09 38.3741C102.392 38.4248 102.7 38.4158 102.998 38.3474C103.295 38.279 103.577 38.1527 103.825 37.9756C104.074 37.7985 104.286 37.5741 104.448 37.3153L105.79 35.1603Z" fill="#90C6EB"/>
<path d="M106.051 34.6828C104.808 31.6866 102.622 29.1777 99.8233 27.5371C94.3878 24.1339 88.2448 24.1435 86.1051 27.562L85.6488 28.2906L85.4934 28.1928C85.2346 28.0307 85.0102 27.8191 84.8331 27.5703C84.6561 27.3214 84.5297 27.0401 84.4614 26.7424C84.393 26.4448 84.3839 26.1365 84.4347 25.8353C84.4855 25.5342 84.5951 25.2459 84.7572 24.9871L86.0993 22.8321C88.239 19.4135 94.382 19.402 99.8175 22.8071C105.013 26.0569 107.684 31.2451 106.051 34.6828Z" fill="#DAECF8"/>
<path d="M105.79 35.1603C107.932 31.7417 105.261 26.2103 99.8254 22.8071C94.3898 19.404 88.2468 19.4135 86.1071 22.8321L84.765 24.9871C84.6029 25.2459 84.4933 25.5342 84.4425 25.8354C84.3917 26.1365 84.4008 26.4448 84.4692 26.7425C84.5375 27.0401 84.6639 27.3214 84.8409 27.5703C85.018 27.8191 85.2424 28.0307 85.5013 28.1928L101.242 38.0515C101.501 38.2137 101.789 38.3233 102.09 38.3741C102.392 38.4248 102.7 38.4158 102.998 38.3474C103.295 38.279 103.577 38.1527 103.825 37.9756C104.074 37.7985 104.286 37.5741 104.448 37.3153L105.79 35.1603Z" stroke="#004590" stroke-linecap="round" stroke-linejoin="round"/>
<path d="M56.8086 140.414C87.6287 140.414 112.613 115.429 112.613 84.609C112.613 53.7889 87.6287 28.8043 56.8086 28.8043C25.9885 28.8043 1.00391 53.7889 1.00391 84.609C1.00391 115.429 25.9885 140.414 56.8086 140.414Z" fill="#90C6EB"/>
<path d="M112.299 90.57C110.887 76.8424 104.438 64.1251 94.1969 54.8748C83.9561 45.6246 70.6505 40.4978 56.8504 40.4849C43.0504 40.4721 29.7352 45.574 19.4772 54.8051C9.21915 64.0362 2.74616 76.7415 1.30868 90.4664C0.512885 82.9317 1.25971 75.3138 3.50365 68.077C5.74758 60.8403 9.44162 54.1362 14.3606 48.3735C19.2797 42.6107 25.3206 37.91 32.1153 34.5577C38.9101 31.2055 46.3163 29.2719 53.8825 28.8749C61.4488 28.4779 69.0167 29.6258 76.1249 32.2486C83.2331 34.8714 89.7329 38.9141 95.2279 44.1304C100.723 49.3467 105.098 55.6274 108.087 62.5896C111.076 69.5518 112.616 77.0497 112.613 84.6264C112.612 86.6117 112.507 88.5956 112.299 90.57Z" fill="#DAECF8"/>
<path d="M56.8086 140.414C87.6287 140.414 112.613 115.429 112.613 84.609C112.613 53.7889 87.6287 28.8043 56.8086 28.8043C25.9885 28.8043 1.00391 53.7889 1.00391 84.609C1.00391 115.429 25.9885 140.414 56.8086 140.414Z" stroke="#004590" stroke-linecap="round" stroke-linejoin="round"/>
<path d="M56.8699 130.317C82.3299 130.317 102.969 109.678 102.969 84.218C102.969 58.758 82.3299 38.1186 56.8699 38.1186C31.4099 38.1186 10.7705 58.758 10.7705 84.218C10.7705 109.678 31.4099 130.317 56.8699 130.317Z" fill="white"/>
<path d="M102.708 89.1454C101.529 77.8148 96.1959 67.3224 87.7375 59.6916C79.2791 52.0609 68.2948 47.8325 56.903 47.8221C45.5113 47.8116 34.5191 52.0197 26.0467 59.6349C17.5743 67.25 12.2218 77.7327 11.0216 89.061C10.3642 82.8364 10.9812 76.543 12.8351 70.5646C14.689 64.5862 17.7408 59.0479 21.8047 54.2873C25.8686 49.5267 30.8594 45.6435 36.4728 42.8744C42.0862 40.1053 48.2048 38.5083 54.4555 38.1808C60.7062 37.8532 66.9581 38.802 72.8302 40.9692C78.7023 43.1365 84.0716 46.4768 88.6107 50.7866C93.1499 55.0964 96.7639 60.2854 99.2325 66.0373C101.701 71.7892 102.972 77.9836 102.969 84.2429C102.967 85.8805 102.88 87.5169 102.708 89.1454Z" fill="#DAECF8"/>
<path d="M56.8699 130.317C82.3299 130.317 102.969 109.678 102.969 84.218C102.969 58.758 82.3299 38.1186 56.8699 38.1186C31.4099 38.1186 10.7705 58.758 10.7705 84.218C10.7705 109.678 31.4099 130.317 56.8699 130.317Z" stroke="#004590" stroke-linecap="round" stroke-linejoin="round"/>
<path d="M90.4879 95.3824L84.4177 91.8738C85.6627 87.11 85.6627 82.1063 84.4177 77.3426L90.4879 73.8339C90.8295 73.637 91.1289 73.3746 91.369 73.0618C91.6091 72.749 91.7852 72.392 91.8872 72.0111C91.9892 71.6302 92.0152 71.233 91.9636 70.8421C91.912 70.4511 91.7839 70.0742 91.5865 69.7329L87.0809 61.9276C86.8837 61.5856 86.621 61.286 86.3079 61.0457C85.9947 60.8055 85.6373 60.6294 85.2559 60.5275C84.8746 60.4256 84.477 60.4 84.0857 60.4521C83.6945 60.5041 83.3174 60.6328 82.9759 60.8309L76.9 64.3338C73.4054 60.8656 69.0713 58.3626 64.3207 57.0691V50.0557C64.3212 49.6608 64.2438 49.2697 64.0931 48.9048C63.9423 48.5398 63.7211 48.2082 63.4421 47.9288C63.163 47.6494 62.8317 47.4277 62.4669 47.2765C62.1021 47.1253 61.7112 47.0475 61.3163 47.0475H52.305C51.5082 47.0475 50.744 47.364 50.1806 47.9274C49.6171 48.4909 49.3006 49.255 49.3006 50.0519V57.0653C44.551 58.3605 40.2183 60.8648 36.7251 64.3338L30.6492 60.8309C30.308 60.6326 29.931 60.5037 29.5398 60.4516C29.1487 60.3994 28.7511 60.425 28.3699 60.5269C27.9886 60.6288 27.6313 60.805 27.3183 61.0453C27.0054 61.2857 26.743 61.5855 26.5462 61.9276L22.0386 69.7329C21.8413 70.0742 21.7131 70.4511 21.6615 70.8421C21.6099 71.233 21.6359 71.6302 21.7379 72.0111C21.84 72.392 22.0161 72.749 22.2562 73.0618C22.4963 73.3746 22.7957 73.637 23.1372 73.8339L29.2074 77.3426C27.9624 82.1063 27.9624 87.11 29.2074 91.8738L23.1372 95.3824C22.7957 95.5794 22.4963 95.8418 22.2562 96.1546C22.0161 96.4673 21.84 96.8244 21.7379 97.2052C21.6359 97.5861 21.6099 97.9834 21.6615 98.3743C21.7131 98.7652 21.8413 99.1421 22.0386 99.4835L26.5462 107.289C26.743 107.631 27.0054 107.931 27.3183 108.171C27.6313 108.411 27.9886 108.588 28.3699 108.689C28.7511 108.791 29.1487 108.817 29.5398 108.765C29.931 108.713 30.308 108.584 30.6492 108.385L36.7251 104.883C40.2192 108.351 44.5535 110.855 49.3045 112.147V119.161C49.3045 119.957 49.621 120.722 50.1844 121.285C50.7478 121.849 51.512 122.165 52.3088 122.165H61.3201C62.1169 122.165 62.8811 121.849 63.4445 121.285C64.008 120.722 64.3245 119.957 64.3245 119.161V112.147C69.0754 110.855 73.4097 108.351 76.9039 104.883L82.9798 108.385C83.3212 108.584 83.6983 108.712 84.0896 108.764C84.4808 108.816 84.8785 108.791 85.2598 108.689C85.6411 108.587 85.9986 108.411 86.3117 108.171C86.6249 107.93 86.8875 107.631 87.0847 107.289L91.5903 99.4835C91.7875 99.1419 91.9154 98.7648 91.9668 98.3737C92.0181 97.9826 91.9918 97.5853 91.8894 97.2044C91.787 96.8235 91.6105 96.4665 91.37 96.1539C91.1295 95.8412 90.8298 95.5791 90.4879 95.3824ZM56.8087 99.4797C53.8672 99.4797 50.9916 98.6074 48.5458 96.9731C46.1 95.3388 44.1938 93.0159 43.0682 90.2982C41.9426 87.5805 41.6482 84.5901 42.2222 81.705C42.7962 78.82 44.2129 76.17 46.293 74.0901C48.3731 72.0103 51.0233 70.594 53.9084 70.0203C56.7935 69.4467 59.7839 69.7415 62.5015 70.8674C65.219 71.9934 67.5417 73.8999 69.1756 76.3459C70.8096 78.7919 71.6815 81.6676 71.6812 84.6091C71.6812 86.5621 71.2965 88.496 70.549 90.3003C69.8016 92.1046 68.7061 93.744 67.325 95.1249C65.944 96.5057 64.3044 97.6011 62.5 98.3483C60.6956 99.0955 58.7617 99.4799 56.8087 99.4797Z" fill="#F0C936"/>
<path d="M76.9 64.3338C73.4054 60.8656 69.0713 58.3626 64.3207 57.0691V50.0557C64.3212 49.6608 64.2438 49.2697 64.0931 48.9048C63.9423 48.5398 63.7211 48.2082 63.4421 47.9288C63.163 47.6494 62.8317 47.4277 62.4669 47.2765C62.1021 47.1253 61.7112 47.0475 61.3163 47.0475H52.305C51.5082 47.0475 50.744 47.364 50.1806 47.9274C49.6171 48.4909 49.3006 49.255 49.3006 50.0519V57.0653C44.551 58.3605 40.2183 60.8648 36.7251 64.3338L30.6492 60.8309C30.308 60.6326 29.931 60.5037 29.5398 60.4516C29.1487 60.3994 28.7511 60.425 28.3699 60.5269C27.9886 60.6288 27.6313 60.805 27.3183 61.0453C27.0054 61.2857 26.743 61.5855 26.5462 61.9276L22.0386 69.7329C21.8413 70.0742 21.7131 70.4511 21.6615 70.8421C21.6099 71.233 21.6359 71.6302 21.7379 72.0111C21.84 72.392 22.0161 72.749 22.2562 73.0618C22.4963 73.3746 22.7957 73.637 23.1372 73.8339L29.2074 77.3426C27.9624 82.1063 27.9624 87.11 29.2074 91.8738L23.1372 95.3824C22.7957 95.5794 22.4963 95.8418 22.2562 96.1546C22.0161 96.4673 21.84 96.8244 21.7379 97.2052C21.6359 97.5861 21.6099 97.9834 21.6615 98.3743C21.7131 98.7652 21.8413 99.1421 22.0386 99.4835L26.5462 107.289C26.743 107.631 27.0054 107.931 27.3183 108.171C27.6313 108.411 27.9886 108.588 28.3699 108.689C28.7511 108.791 29.1487 108.817 29.5398 108.765C29.931 108.713 30.308 108.584 30.6492 108.385L36.3033 105.126L46.3039 95.1274C44.9 93.7516 43.7827 92.1111 43.0168 90.3008C42.2508 88.4906 41.8513 86.5464 41.8413 84.5808C41.8313 82.6151 42.2111 80.667 42.9587 78.8491C43.7062 77.0311 44.8068 75.3794 46.1966 73.9894C47.5865 72.5994 49.2381 71.4987 51.056 70.751C52.8739 70.0032 54.822 69.6233 56.7876 69.6331C58.7533 69.6428 60.6975 70.0422 62.5078 70.808C64.3181 71.5738 65.9587 72.6909 67.3347 74.0947L77.3525 64.0768L76.9 64.3338Z" fill="#F7DD7B"/>
<path d="M90.4879 95.3824L84.4177 91.8738C85.6627 87.11 85.6627 82.1063 84.4177 77.3426L90.4879 73.8339C90.8295 73.637 91.1289 73.3746 91.369 73.0618C91.6091 72.749 91.7852 72.392 91.8872 72.0111C91.9892 71.6302 92.0152 71.233 91.9636 70.8421C91.912 70.4511 91.7839 70.0742 91.5865 69.7329L87.0809 61.9276C86.8837 61.5856 86.621 61.286 86.3079 61.0457C85.9947 60.8055 85.6373 60.6294 85.2559 60.5275C84.8746 60.4256 84.477 60.4 84.0857 60.4521C83.6945 60.5041 83.3174 60.6328 82.9759 60.8309L76.9 64.3338C73.4054 60.8656 69.0713 58.3626 64.3207 57.0691V50.0557C64.3212 49.6608 64.2438 49.2697 64.0931 48.9048C63.9423 48.5398 63.7211 48.2082 63.4421 47.9288C63.163 47.6494 62.8317 47.4277 62.4669 47.2765C62.1021 47.1253 61.7112 47.0475 61.3163 47.0475H52.305C51.5082 47.0475 50.744 47.364 50.1806 47.9274C49.6171 48.4909 49.3006 49.255 49.3006 50.0519V57.0653C44.551 58.3605 40.2183 60.8648 36.7251 64.3338L30.6492 60.8309C30.308 60.6326 29.931 60.5037 29.5398 60.4516C29.1487 60.3994 28.7511 60.425 28.3699 60.5269C27.9886 60.6288 27.6313 60.805 27.3183 61.0453C27.0054 61.2857 26.743 61.5855 26.5462 61.9276L22.0386 69.7329C21.8413 70.0742 21.7131 70.4511 21.6615 70.8421C21.6099 71.233 21.6359 71.6302 21.7379 72.0111C21.84 72.392 22.0161 72.749 22.2562 73.0618C22.4963 73.3746 22.7957 73.637 23.1372 73.8339L29.2074 77.3426C27.9624 82.1063 27.9624 87.11 29.2074 91.8738L23.1372 95.3824C22.7957 95.5794 22.4963 95.8418 22.2562 96.1546C22.0161 96.4673 21.84 96.8244 21.7379 97.2052C21.6359 97.5861 21.6099 97.9834 21.6615 98.3743C21.7131 98.7652 21.8413 99.1421 22.0386 99.4835L26.5462 107.289C26.743 107.631 27.0054 107.931 27.3183 108.171C27.6313 108.411 27.9886 108.588 28.3699 108.689C28.7511 108.791 29.1487 108.817 29.5398 108.765C29.931 108.713 30.308 108.584 30.6492 108.385L36.7251 104.883C40.2192 108.351 44.5535 110.855 49.3045 112.147V119.161C49.3045 119.957 49.621 120.722 50.1844 121.285C50.7478 121.849 51.512 122.165 52.3088 122.165H61.3201C62.1169 122.165 62.8811 121.849 63.4445 121.285C64.008 120.722 64.3245 119.957 64.3245 119.161V112.147C69.0754 110.855 73.4097 108.351 76.9039 104.883L82.9798 108.385C83.3212 108.584 83.6983 108.712 84.0896 108.764C84.4808 108.816 84.8785 108.791 85.2598 108.689C85.6411 108.587 85.9986 108.411 86.3117 108.171C86.6249 107.93 86.8875 107.631 87.0847 107.289L91.5903 99.4835C91.7875 99.1419 91.9154 98.7648 91.9668 98.3737C92.0181 97.9826 91.9918 97.5853 91.8894 97.2044C91.787 96.8235 91.6105 96.4665 91.37 96.1539C91.1296 95.8412 90.8298 95.5791 90.4879 95.3824V95.3824ZM56.8087 99.4797C53.8672 99.4797 50.9916 98.6074 48.5458 96.9731C46.1 95.3388 44.1938 93.0159 43.0682 90.2982C41.9426 87.5805 41.6482 84.5901 42.2222 81.705C42.7962 78.82 44.2129 76.17 46.293 74.0901C48.3731 72.0103 51.0233 70.594 53.9084 70.0203C56.7935 69.4467 59.7839 69.7415 62.5015 70.8674C65.219 71.9934 67.5417 73.8999 69.1756 76.3459C70.8096 78.7919 71.6815 81.6676 71.6812 84.6091C71.6812 86.5621 71.2965 88.496 70.549 90.3003C69.8016 92.1046 68.7061 93.744 67.325 95.1249C65.944 96.5057 64.3044 97.6011 62.5 98.3483C60.6956 99.0955 58.7617 99.4799 56.8087 99.4797V99.4797Z" stroke="#004590" stroke-linecap="round" stroke-linejoin="round"/>
<path d="M56.8369 86.6454C56.3692 86.6449 55.9116 86.5093 55.5191 86.2549C55.1267 86.0005 54.8161 85.6381 54.6247 85.2114C54.4333 84.7846 54.3692 84.3117 54.4403 83.8494C54.5113 83.3871 54.7144 82.9552 55.0251 82.6056L74.4453 60.7772C74.873 60.2965 75.4741 60.0052 76.1165 59.9677C76.7588 59.9301 77.3898 60.1492 77.8706 60.5769C78.3514 61.0045 78.6426 61.6057 78.6801 62.248C78.7177 62.8904 78.4986 63.5213 78.0709 64.0021L58.6507 85.8305C58.4236 86.0873 58.1443 86.2929 57.8316 86.4334C57.5189 86.5739 57.1798 86.6461 56.8369 86.6454Z" fill="#90C6EB" stroke="#004590" stroke-linecap="round" stroke-linejoin="round"/>
<path d="M54.9513 85.7422C54.658 85.3783 54.4761 84.9373 54.4273 84.4724C54.3785 84.0075 54.4651 83.5385 54.6765 83.1216C54.8878 82.7046 55.2151 82.3576 55.619 82.1222C56.0228 81.8868 56.486 81.773 56.953 81.7945L78.9366 83.1673C79.5794 83.1976 80.1838 83.4819 80.6169 83.9578C81.05 84.4337 81.2763 85.0621 81.246 85.7048C81.2158 86.3476 80.9314 86.952 80.4555 87.3851C79.9797 87.8182 79.3512 88.0445 78.7085 88.0142L56.7248 86.6414C56.3824 86.6255 56.0473 86.5371 55.7416 86.3821C55.4359 86.2271 55.1665 86.009 54.9513 85.7422Z" fill="#90C6EB" stroke="#004590" stroke-linecap="round" stroke-linejoin="round"/>
<path d="M56.8708 91.4961C60.8904 91.4961 64.1489 88.2376 64.1489 84.218C64.1489 80.1985 60.8904 76.94 56.8708 76.94C52.8513 76.94 49.5928 80.1985 49.5928 84.218C49.5928 88.2376 52.8513 91.4961 56.8708 91.4961Z" fill="#DAECF8"/>
<path d="M56.8716 81.8675C58.3696 81.8685 59.8309 82.3313 61.0564 83.1928C62.2819 84.0543 63.212 85.2726 63.7202 86.6818C64.1186 85.5815 64.2461 84.4014 64.0919 83.2413C63.9377 82.0813 63.5063 80.9755 62.8343 80.0175C62.1623 79.0594 61.2694 78.2774 60.2312 77.7375C59.1929 77.1975 58.0399 76.9156 56.8697 76.9156C55.6995 76.9156 54.5465 77.1975 53.5082 77.7375C52.47 78.2774 51.5771 79.0594 50.9051 80.0175C50.2331 80.9755 49.8017 82.0813 49.6475 83.2413C49.4933 84.4014 49.6208 85.5815 50.0192 86.6818C50.5276 85.272 51.4583 84.0532 52.6846 83.1917C53.9108 82.3302 55.373 81.8677 56.8716 81.8675Z" fill="white"/>
<path d="M56.8708 91.4961C60.8904 91.4961 64.1489 88.2376 64.1489 84.218C64.1489 80.1985 60.8904 76.94 56.8708 76.94C52.8513 76.94 49.5928 80.1985 49.5928 84.218C49.5928 88.2376 52.8513 91.4961 56.8708 91.4961Z" stroke="#004590" stroke-linecap="round" stroke-linejoin="round"/>
</svg>
