<svg width="152" height="138" viewBox="0 0 152 138" fill="none" xmlns="http://www.w3.org/2000/svg">
<path d="M75.8018 133C111.148 133 139.802 104.346 139.802 69C139.802 33.6538 111.148 5 75.8018 5C40.4555 5 11.8018 33.6538 11.8018 69C11.8018 104.346 40.4555 133 75.8018 133Z" fill="#EBF5FB"/>
<path d="M84.6534 11.1129C78.7713 10.2212 72.7884 10.2212 66.9062 11.1129" stroke="#F9FAFB" stroke-width="2" stroke-linecap="round" stroke-linejoin="round"/>
<path d="M21.4736 47.0592C23.3972 42.3054 25.938 37.8253 29.0304 33.7344" stroke="#F9FAFB" stroke-width="2" stroke-linecap="round" stroke-linejoin="round"/>
<path d="M84.6534 126.888C78.7713 127.78 72.7884 127.78 66.9062 126.888" stroke="#F9FAFB" stroke-width="2" stroke-linecap="round" stroke-linejoin="round"/>
<path d="M21.4736 90.9429C23.3972 95.6967 25.938 100.177 29.0304 104.268" stroke="#F9FAFB" stroke-width="2" stroke-linecap="round" stroke-linejoin="round"/>
<path d="M130.082 47.0592C128.157 42.3056 125.616 37.8256 122.523 33.7344" stroke="#F9FAFB" stroke-width="2" stroke-linecap="round" stroke-linejoin="round"/>
<path d="M130.082 90.9429C128.157 95.6964 125.616 100.176 122.523 104.268" stroke="#F9FAFB" stroke-width="2" stroke-linecap="round" stroke-linejoin="round"/>
<path d="M37.2578 69.0015H48.4194" stroke="#F9FAFB" stroke-width="2" stroke-linecap="round" stroke-linejoin="round"/>
<path d="M53.7266 32.28L60.4674 43.5056" stroke="#F9FAFB" stroke-width="2" stroke-linecap="round" stroke-linejoin="round"/>
<path d="M53.7266 105.723L60.4674 94.4976" stroke="#F9FAFB" stroke-width="2" stroke-linecap="round" stroke-linejoin="round"/>
<path d="M114.302 69.0015H103.141" stroke="#F9FAFB" stroke-width="2" stroke-linecap="round" stroke-linejoin="round"/>
<path d="M97.8316 32.28L91.0908 43.5056" stroke="#F9FAFB" stroke-width="2" stroke-linecap="round" stroke-linejoin="round"/>
<path d="M97.8316 105.723L91.0908 94.4976" stroke="#F9FAFB" stroke-width="2" stroke-linecap="round" stroke-linejoin="round"/>
<path d="M33.0489 79.7952C33.0472 80.3756 32.8159 80.9317 32.4055 81.3422C31.995 81.7526 31.4389 81.9839 30.8585 81.9856H3.48568C2.90554 81.9835 2.3498 81.752 1.93973 81.3416C1.52966 80.9312 1.29856 80.3753 1.29688 79.7952V61.1824H33.0489V79.7952Z" fill="#EDBF0E" stroke="#1B283C" stroke-width="2" stroke-linecap="round" stroke-linejoin="round"/>
<path d="M33.0489 61.1824H1.29688V58.2048C1.29856 57.6247 1.52966 57.0688 1.93973 56.6584C2.3498 56.248 2.90554 56.0165 3.48568 56.0144H30.8585C31.4389 56.0161 31.995 56.2474 32.4055 56.6578C32.8159 57.0682 33.0472 57.6244 33.0489 58.2048V61.1824Z" fill="white" stroke="#1B283C" stroke-width="2" stroke-linecap="round" stroke-linejoin="round"/>
<path d="M61.4161 25.7171C61.4144 26.2975 61.1831 26.8536 60.7726 27.264C60.3622 27.6745 59.8061 27.9058 59.2257 27.9075H31.8529C31.2727 27.9053 30.717 27.6738 30.3069 27.2635C29.8968 26.8531 29.6657 26.2972 29.6641 25.7171V7.10425H61.4161V25.7171Z" fill="#17AF84" stroke="#1B283C" stroke-width="2" stroke-linecap="round" stroke-linejoin="round"/>
<path d="M61.4161 7.10428H29.6641V4.12668C29.6657 3.54654 29.8968 2.99063 30.3069 2.58026C30.717 2.16989 31.2727 1.93839 31.8529 1.93628H59.2257C59.8061 1.93797 60.3622 2.16928 60.7726 2.5797C61.1831 2.99011 61.4144 3.54627 61.4161 4.12668V7.10428Z" fill="white" stroke="#1B283C" stroke-width="2" stroke-linecap="round" stroke-linejoin="round"/>
<path d="M59.6534 133.875C59.6517 134.455 59.4206 135.011 59.0105 135.421C58.6004 135.831 58.0447 136.063 57.4646 136.065H30.0918C29.5114 136.063 28.9552 135.832 28.5448 135.421C28.1344 135.011 27.9031 134.455 27.9014 133.875V115.262H59.6534V133.875Z" fill="#F7DD7B" stroke="#1B283C" stroke-width="2" stroke-linecap="round" stroke-linejoin="round"/>
<path d="M59.6534 115.262H27.9014V112.284C27.9031 111.704 28.1344 111.148 28.5448 110.737C28.9552 110.327 29.5114 110.095 30.0918 110.094H57.4646C58.0447 110.096 58.6004 110.327 59.0105 110.738C59.4206 111.148 59.6517 111.704 59.6534 112.284V115.262Z" fill="white" stroke="#1B283C" stroke-width="2" stroke-linecap="round" stroke-linejoin="round"/>
<path d="M118.953 79.7952C118.955 80.3756 119.186 80.9317 119.597 81.3422C120.007 81.7526 120.563 81.9839 121.144 81.9856H148.516C149.096 81.9835 149.652 81.752 150.062 81.3416C150.472 80.9312 150.703 80.3753 150.705 79.7952V61.1824H118.953V79.7952Z" fill="#7C7FD6" stroke="#1B283C" stroke-width="2" stroke-linecap="round" stroke-linejoin="round"/>
<path d="M118.953 61.1824H150.705V58.2048C150.703 57.6247 150.472 57.0688 150.062 56.6584C149.652 56.248 149.096 56.0165 148.516 56.0144H121.144C120.563 56.0161 120.007 56.2474 119.597 56.6578C119.186 57.0682 118.955 57.6244 118.953 58.2048V61.1824Z" fill="white" stroke="#1B283C" stroke-width="2" stroke-linecap="round" stroke-linejoin="round"/>
<path d="M90.1455 25.7171C90.1468 26.2973 90.3777 26.8535 90.7879 27.2639C91.1981 27.6744 91.754 27.9058 92.3343 27.9075H119.707C120.288 27.9058 120.844 27.6745 121.254 27.264C121.664 26.8536 121.896 26.2975 121.897 25.7171V7.10425H90.1455V25.7171Z" fill="#B0B2E6" stroke="#1B283C" stroke-width="2" stroke-linecap="round" stroke-linejoin="round"/>
<path d="M90.1455 7.10428H121.897V4.12668C121.896 3.54627 121.664 2.99011 121.254 2.5797C120.844 2.16928 120.288 1.93797 119.707 1.93628H92.3343C91.754 1.93797 91.1981 2.16934 90.7879 2.5798C90.3777 2.99025 90.1468 3.54641 90.1455 4.12668V7.10428Z" fill="white" stroke="#1B283C" stroke-width="2" stroke-linecap="round" stroke-linejoin="round"/>
<path d="M91.9092 133.875C91.9109 134.455 92.1422 135.011 92.5526 135.421C92.963 135.832 93.5192 136.063 94.0996 136.065H121.471C122.051 136.063 122.607 135.832 123.018 135.421C123.428 135.011 123.659 134.455 123.661 133.875V115.262H91.9092V133.875Z" fill="#E78C89" stroke="#1B283C" stroke-width="2" stroke-linecap="round" stroke-linejoin="round"/>
<path d="M91.9092 115.262H123.661V112.284C123.659 111.704 123.428 111.148 123.018 110.737C122.607 110.327 122.051 110.095 121.471 110.094H94.0996C93.5192 110.095 92.963 110.327 92.5526 110.737C92.1422 111.148 91.9109 111.704 91.9092 112.284V115.262Z" fill="white" stroke="#1B283C" stroke-width="2" stroke-linecap="round" stroke-linejoin="round"/>
<path d="M100 69.2094C99.9969 73.9105 98.5996 78.505 95.9851 82.412C93.3706 86.319 89.6564 89.3631 85.312 91.1594C80.9676 92.9556 76.1882 93.4234 71.5779 92.5035C66.9677 91.5837 62.7338 89.3175 59.4114 85.9916C56.089 82.6656 53.8274 78.4292 52.9125 73.818C51.9976 69.2068 52.4705 64.4279 54.2715 60.0854C56.0724 55.7429 59.1205 52.032 63.0303 49.4217C66.9401 46.8114 71.5361 45.4191 76.2372 45.4207C82.5419 45.4274 88.5861 47.9367 93.0419 52.3973C97.4976 56.8578 100 62.9047 100 69.2094Z" fill="#6CB4E4"/>
<path d="M100 69.2091C100 70.0933 99.9505 70.9768 99.8516 71.8555C99.2072 66.0423 96.4419 60.6708 92.0849 56.7688C87.7279 52.8668 82.0852 50.7083 76.2364 50.7063C70.3875 50.7043 64.7433 52.859 60.3837 56.758C56.0241 60.6571 53.2552 66.0267 52.6068 71.8395C52.2454 68.625 52.544 65.3706 53.484 62.2755C54.4241 59.1804 55.986 56.3097 58.0741 53.8392C60.1622 51.3688 62.7325 49.3504 65.6277 47.9078C68.523 46.4652 71.6821 45.6286 74.9119 45.4494C78.1417 45.2701 81.374 45.7519 84.4111 46.8653C87.4482 47.9787 90.2261 49.7002 92.5747 51.9244C94.9234 54.1487 96.7933 56.8289 98.0702 59.8009C99.347 62.773 100.004 65.9744 100 69.2091V69.2091Z" fill="#ECF5FB"/>
<path d="M100 69.2094C99.9969 73.9105 98.5996 78.505 95.9851 82.412C93.3706 86.319 89.6564 89.3631 85.312 91.1594C80.9676 92.9556 76.1882 93.4234 71.5779 92.5035C66.9677 91.5837 62.7338 89.3175 59.4114 85.9916C56.089 82.6656 53.8274 78.4292 52.9125 73.818C51.9976 69.2068 52.4705 64.4279 54.2715 60.0854C56.0724 55.7429 59.1205 52.032 63.0303 49.4217C66.9401 46.8114 71.5361 45.4191 76.2372 45.4207C82.5419 45.4274 88.5861 47.9367 93.0419 52.3973C97.4976 56.8578 100 62.9047 100 69.2094Z" stroke="#1B283C" stroke-width="2" stroke-linecap="round" stroke-linejoin="round"/>
<path d="M86.4498 47.741L65.9922 90.6449" stroke="#1B283C" stroke-width="2" stroke-linecap="round" stroke-linejoin="round"/>
<path d="M97.6726 79.4228L54.7686 58.9636" stroke="#1B283C" stroke-width="2" stroke-linecap="round" stroke-linejoin="round"/>
<path d="M99.9161 67.3283L62.7529 49.6067" stroke="#1B283C" stroke-width="2" stroke-linecap="round" stroke-linejoin="round"/>
<path d="M89.6882 88.7798L52.5234 71.0598" stroke="#1B283C" stroke-width="2" stroke-linecap="round" stroke-linejoin="round"/>
<path d="M86.9474 74.3072C92.5969 62.4594 92.3745 50.565 86.4507 47.7402C80.5268 44.9154 71.1446 52.23 65.4951 64.0778C59.8455 75.9255 60.0679 87.82 65.9918 90.6448C71.9156 93.4695 81.2978 86.155 86.9474 74.3072Z" stroke="#1B283C" stroke-width="2" stroke-linecap="round" stroke-linejoin="round"/>
<path d="M130.673 89.7076L125.308 95.0039L131.485 101.262L136.851 95.9659L130.673 89.7076Z" fill="#B5D9F1" stroke="#264887" stroke-width="2" stroke-linecap="round" stroke-linejoin="round"/>
<path d="M149.217 106.704C150.154 107.652 150.675 108.933 150.666 110.266C150.658 111.599 150.12 112.874 149.172 113.81C148.223 114.746 146.942 115.267 145.609 115.259C144.276 115.25 143.002 114.713 142.065 113.764L131.475 103.037C131.359 102.92 131.268 102.781 131.206 102.628C131.144 102.475 131.112 102.311 131.113 102.146C131.114 101.981 131.148 101.818 131.212 101.666C131.276 101.514 131.37 101.376 131.487 101.26L136.852 95.9643C136.969 95.8485 137.108 95.757 137.261 95.6949C137.414 95.6328 137.577 95.6014 137.742 95.6026C137.907 95.6037 138.07 95.6373 138.222 95.7015C138.374 95.7657 138.511 95.8592 138.627 95.9766L149.217 106.704Z" fill="#3B70D4"/>
<path d="M147.565 114.879C147.964 113.96 148.08 112.943 147.896 111.958C147.713 110.973 147.239 110.065 146.536 109.352L135.946 98.6246C135.83 98.5071 135.692 98.4136 135.54 98.3494C135.388 98.2852 135.225 98.2516 135.06 98.2504C134.895 98.2493 134.731 98.2807 134.578 98.3428C134.426 98.4049 134.286 98.4964 134.169 98.6123L136.852 95.9643C136.969 95.8485 137.108 95.757 137.261 95.6949C137.414 95.6328 137.577 95.6014 137.742 95.6026C137.907 95.6037 138.07 95.6373 138.222 95.7015C138.374 95.7657 138.512 95.8592 138.627 95.9766L149.217 106.704C149.796 107.29 150.221 108.01 150.456 108.799C150.691 109.588 150.728 110.423 150.565 111.231C150.402 112.038 150.043 112.793 149.52 113.429C148.997 114.065 148.325 114.563 147.565 114.879V114.879Z" fill="#264887"/>
<path d="M149.217 106.704C150.154 107.652 150.675 108.933 150.666 110.266C150.658 111.599 150.12 112.874 149.172 113.81C148.223 114.746 146.942 115.267 145.609 115.259C144.276 115.25 143.002 114.713 142.065 113.764L131.475 103.037C131.359 102.92 131.268 102.781 131.206 102.628C131.144 102.475 131.112 102.311 131.113 102.146C131.114 101.981 131.148 101.818 131.212 101.666C131.276 101.514 131.37 101.376 131.487 101.26L136.852 95.9643C136.969 95.8485 137.108 95.757 137.261 95.6949C137.414 95.6328 137.577 95.6014 137.742 95.6026C137.907 95.6037 138.07 95.6373 138.222 95.7015C138.374 95.7657 138.511 95.8592 138.627 95.9766L149.217 106.704Z" stroke="#264887" stroke-width="2" stroke-linecap="round" stroke-linejoin="round"/>
<path fill-rule="evenodd" clip-rule="evenodd" d="M136.323 76.7606C136.323 90.4704 125.209 101.584 111.5 101.584C97.7898 101.584 86.6758 90.4704 86.6758 76.7606C86.6758 63.0508 97.7898 51.9368 111.5 51.9368C125.209 51.9368 136.323 63.0508 136.323 76.7606ZM115.712 59.1919C125.208 61.4335 131.089 70.9488 128.848 80.4449C126.606 89.941 117.091 95.8218 107.595 93.5802C98.0986 91.3386 92.2177 81.8233 94.4593 72.3272C96.701 62.8312 106.216 56.9503 115.712 59.1919Z" fill="#ECF5FB"/>
<path d="M135.177 69.3001C132.241 63.8562 127.377 59.7051 121.539 57.6603C115.702 55.6155 109.311 55.8244 103.619 58.246C97.9275 60.6676 93.3454 65.1275 90.7706 70.7515C88.1959 76.3756 87.8142 82.7584 89.7003 88.6492C89.3206 87.9482 88.9701 87.2256 88.6488 86.4814C87.3723 83.4812 86.6993 80.259 86.6681 76.9987C86.637 73.7384 87.2483 70.5039 88.4671 67.4798C89.686 64.4557 91.4886 61.7014 93.7719 59.3739C96.0552 57.0465 98.7746 55.1916 101.775 53.9151C104.775 52.6387 107.997 51.9657 111.258 51.9345C114.518 51.9033 117.752 52.5146 120.776 53.7335C123.801 54.9523 126.555 56.7549 128.882 59.0383C131.21 61.3216 133.065 64.041 134.341 67.0412C134.658 67.7878 134.937 68.5431 135.179 69.3019" fill="white"/>
<path d="M111.5 101.584C125.209 101.584 136.323 90.4704 136.323 76.7606C136.323 63.0508 125.209 51.9368 111.5 51.9368C97.7898 51.9368 86.6758 63.0508 86.6758 76.7606C86.6758 90.4704 97.7898 101.584 111.5 101.584Z" stroke="#264887" stroke-width="2" stroke-linecap="round" stroke-linejoin="round"/>
<g opacity="0.3">
<path d="M128.565 80.4447C130.807 70.9487 124.926 61.4334 115.43 59.1918C105.934 56.9501 96.4186 62.831 94.177 72.3271C91.9354 81.8232 97.8162 91.3384 107.312 93.5801C116.808 95.8217 126.324 89.9408 128.565 80.4447Z" fill="#47A1DE"/>
<path d="M111.296 58.6441C107.801 58.6426 104.383 59.6781 101.477 61.6195C98.5697 63.561 96.3041 66.3212 94.9666 69.5507C93.629 72.7802 93.2796 76.334 93.9625 79.7622C94.6454 83.1904 96.3299 86.339 98.8029 88.8095L123.788 63.8261C122.15 62.1815 120.203 60.877 118.06 59.9877C115.916 59.0983 113.617 58.6417 111.296 58.6441V58.6441Z" fill="#6CB4E4"/>
</g>
<path d="M128.619 80.7504C130.861 71.2543 124.98 61.739 115.484 59.4974C105.988 57.2558 96.4723 63.1367 94.2307 72.6328C91.9891 82.1288 97.87 91.6441 107.366 93.8857C116.862 96.1274 126.377 90.2465 128.619 80.7504Z" stroke="#264887" stroke-width="2" stroke-linecap="round" stroke-linejoin="round"/>
</svg>
