<svg width="66" height="66" viewBox="0 0 66 66" fill="none" xmlns="http://www.w3.org/2000/svg">
<path d="M45.006 38.7741L39.6406 44.0704L45.8185 50.3288L51.1839 45.0325L45.006 38.7741Z" fill="#B5D9F1" stroke="#264887" stroke-width="2" stroke-linecap="round" stroke-linejoin="round"/>
<path d="M63.5508 55.77C64.4871 56.7184 65.0083 57.9999 64.9998 59.3326C64.9912 60.6653 64.4536 61.94 63.5052 62.8763C62.5568 63.8126 61.2753 64.3338 59.9427 64.3253C58.61 64.3167 57.3353 63.7791 56.3989 62.8307L45.8087 52.1038C45.6928 51.9863 45.6012 51.8472 45.5391 51.6943C45.477 51.5414 45.4457 51.3778 45.4468 51.2128C45.4479 51.0477 45.4816 50.8846 45.5458 50.7326C45.61 50.5806 45.7035 50.4427 45.821 50.3268L51.1853 45.0308C51.3027 44.915 51.4417 44.8234 51.5944 44.7613C51.7471 44.6993 51.9106 44.6679 52.0755 44.669C52.2404 44.6702 52.4034 44.7038 52.5553 44.768C52.7071 44.8322 52.8449 44.9256 52.9606 45.0431L63.5508 55.77Z" fill="#3B70D4"/>
<path d="M61.8983 63.9453C62.2977 63.0265 62.4131 62.0092 62.2298 61.0242C62.0465 60.0392 61.5728 59.1316 60.8696 58.418L50.2794 47.6911C50.1636 47.5736 50.0257 47.4801 49.8737 47.4159C49.7217 47.3516 49.5585 47.318 49.3935 47.3169C49.2285 47.3157 49.0648 47.3471 48.912 47.4092C48.7591 47.4713 48.6199 47.5629 48.5024 47.6788L51.1855 45.0308C51.3028 44.915 51.4418 44.8234 51.5945 44.7613C51.7473 44.6993 51.9108 44.6679 52.0756 44.669C52.2405 44.6702 52.4035 44.7038 52.5554 44.768C52.7073 44.8322 52.845 44.9256 52.9607 45.0431L63.5509 55.77C64.129 56.3566 64.5543 57.0761 64.7893 57.8655C65.0242 58.6549 65.0618 59.4898 64.8986 60.2971C64.7354 61.1044 64.3765 61.8592 63.8534 62.4953C63.3302 63.1314 62.6589 63.6293 61.8983 63.9453V63.9453Z" fill="#264887"/>
<path d="M63.5508 55.77C64.4871 56.7184 65.0083 57.9999 64.9998 59.3326C64.9912 60.6653 64.4536 61.94 63.5052 62.8763C62.5568 63.8126 61.2753 64.3338 59.9427 64.3253C58.61 64.3167 57.3353 63.7791 56.3989 62.8307L45.8087 52.1038C45.6928 51.9863 45.6012 51.8472 45.5391 51.6943C45.477 51.5414 45.4457 51.3778 45.4468 51.2128C45.4479 51.0477 45.4816 50.8846 45.5458 50.7326C45.61 50.5806 45.7035 50.4427 45.821 50.3268L51.1853 45.0308C51.3027 44.915 51.4417 44.8234 51.5944 44.7613C51.7471 44.6993 51.9106 44.6679 52.0755 44.669C52.2404 44.6702 52.4034 44.7038 52.5553 44.768C52.7071 44.8322 52.8449 44.9256 52.9606 45.0431L63.5508 55.77Z" stroke="#264887" stroke-width="2" stroke-linecap="round" stroke-linejoin="round"/>
<path fill-rule="evenodd" clip-rule="evenodd" d="M50.6562 25.8273C50.6562 39.5371 39.5422 50.6511 25.8324 50.6511C12.1225 50.6511 1.00854 39.5371 1.00854 25.8273C1.00854 12.1174 12.1225 1.00342 25.8324 1.00342C39.5422 1.00342 50.6562 12.1174 50.6562 25.8273ZM30.0451 8.25857C39.5411 10.5002 45.422 20.0155 43.1804 29.5115C40.9388 39.0076 31.4235 44.8885 21.9274 42.6469C12.4314 40.4052 6.55048 30.89 8.79211 21.3939C11.0337 11.8978 20.549 6.01694 30.0451 8.25857Z" fill="#ECF5FB"/>
<path d="M49.51 18.3668C46.5736 12.9229 41.7099 8.77176 35.8723 6.72694C30.0347 4.68212 23.6438 4.891 17.9522 7.31264C12.2605 9.73428 7.67836 14.1941 5.10361 19.8182C2.52887 25.4422 2.14716 31.8251 4.03329 37.7159C3.65358 37.0149 3.30309 36.2923 2.9818 35.5481C1.70534 32.5479 1.03231 29.3256 1.00113 26.0653C0.969964 22.805 1.58126 19.5705 2.80013 16.5464C4.01899 13.5224 5.82156 10.768 8.1049 8.44058C10.3882 6.11316 13.1076 4.25826 16.1078 2.9818C19.108 1.70533 22.3303 1.03231 25.5906 1.00113C28.8509 0.969964 32.0854 1.58126 35.1095 2.80013C38.1335 4.01899 40.8879 5.82156 43.2153 8.1049C45.5428 10.3882 47.3977 13.1076 48.6741 16.1078C48.9913 16.8544 49.27 17.6097 49.5118 18.3685" fill="white"/>
<path d="M25.8324 50.6511C39.5422 50.6511 50.6562 39.537 50.6562 25.8272C50.6562 12.1174 39.5422 1.00339 25.8324 1.00339C12.1226 1.00339 1.00854 12.1174 1.00854 25.8272C1.00854 39.537 12.1226 50.6511 25.8324 50.6511Z" stroke="#264887" stroke-width="2" stroke-linecap="round" stroke-linejoin="round"/>
<g opacity="0.3">
<path d="M42.8986 29.5115C45.1402 20.0154 39.2593 10.5002 29.7632 8.25854C20.2671 6.01691 10.7519 11.8978 8.51024 21.3939C6.26861 30.8899 12.1495 40.4052 21.6456 42.6468C31.1416 44.8885 40.6569 39.0076 42.8986 29.5115Z" fill="#47A1DE"/>
<path d="M25.6298 7.71079C22.1343 7.7093 18.7168 8.74481 15.81 10.6863C12.9032 12.6278 10.6376 15.3879 9.30008 18.6175C7.96253 21.847 7.61309 25.4007 8.29599 28.8289C8.9789 32.2572 10.6634 35.4057 13.1364 37.8762L38.1215 12.8929C36.4838 11.2483 34.537 9.94376 32.3932 9.05441C30.2493 8.16506 27.9508 7.70843 25.6298 7.71079V7.71079Z" fill="#6CB4E4"/>
</g>
<path d="M42.952 29.8169C45.1936 20.3209 39.3127 10.8056 29.8167 8.56394C20.3206 6.32232 10.8053 12.2032 8.5637 21.6993C6.32208 31.1954 12.203 40.7106 21.699 42.9523C31.1951 45.1939 40.7104 39.313 42.952 29.8169Z" stroke="#264887" stroke-width="2" stroke-linecap="round" stroke-linejoin="round"/>
</svg>
