<svg width="14" height="14" xmlns="http://www.w3.org/2000/svg" fill="none">
    <g>
        <title>Layer 1</title>
        <path d="m0.32386,11.10877c0,0.54682 0.21723,1.07124 0.60388,1.4579c0.38666,0.38666 0.91108,0.60388 1.4579,0.60388l5.49808,0c0.54682,0 1.07124,-0.21722 1.45789,-0.60388c0.38666,-0.38666 0.60389,-0.91108 0.60389,-1.4579l0,-3.45897c0.00015,-0.09065 -0.01761,-0.18042 -0.05229,-0.26417c-0.03467,-0.08374 -0.08558,-0.15981 -0.14977,-0.22379c-0.06388,-0.06432 -0.13985,-0.11535 -0.22353,-0.15018c-0.08368,-0.03484 -0.17344,-0.05277 -0.26408,-0.05277c-0.09065,0 -0.18039,0.01793 -0.26407,0.05277c-0.08368,0.03483 -0.15965,0.08586 -0.22353,0.15018l-3.10642,3.10228c-0.16765,0.16742 -0.36813,0.29835 -0.58881,0.38456c-0.22069,0.08622 -0.45682,0.12586 -0.69356,0.11644c-0.23675,-0.00941 -0.46898,-0.06771 -0.68212,-0.17119c-0.21313,-0.10349 -0.40256,-0.24993 -0.55639,-0.43015c-0.27653,-0.34985 -0.41259,-0.79029 -0.38158,-1.23516c0.03102,-0.44486 0.22688,-0.86215 0.54928,-1.17025l3.02875,-3.02393c0.06441,-0.06389 0.11554,-0.13991 0.15043,-0.22365c0.0349,-0.08376 0.05286,-0.17358 0.05286,-0.26431c0,-0.09073 -0.01797,-0.18055 -0.05286,-0.26431c-0.03489,-0.08374 -0.08602,-0.15976 -0.15043,-0.22365l-0.00482,-0.00481c-0.06399,-0.0642 -0.14005,-0.11509 -0.22379,-0.14977c-0.08374,-0.03468 -0.17352,-0.05245 -0.26415,-0.05229l-3.45898,0c-0.54682,0 -1.07124,0.21722 -1.4579,0.60388c-0.38665,0.38666 -0.60388,0.91108 -0.60388,1.4579l0,5.49532l0,0.00002z" fill="#007AFF" id="svg_2" stroke="null"/>
    </g>

    <g>
        <title>Layer 2</title>
        <g transform="matrix(1.24328 0 0 1.24328 -0.990859 -0.245163)" stroke="null" id="svg_5">
            <svg stroke="null" y="1.30877" x="2.97694" id="svg_3" fill="none" viewBox="0 0 8 7" height="7" width="8" xmlns="http://www.w3.org/2000/svg">
                <path stroke="null" id="svg_4" fill="#007AFF" d="m5.37201,2.95291c0.02733,-0.02725 0.06436,-0.04256 0.10295,-0.04256c0.0386,0 0.07563,0.01531 0.10296,0.04256l1.23842,1.23608c0.02709,0.02717 0.05927,0.04873 0.09471,0.06345c0.03543,0.01471 0.07342,0.02229 0.11179,0.0223c0.03821,-0.00019 0.07604,-0.00772 0.11142,-0.02217c0.05333,-0.02204 0.09893,-0.05942 0.13102,-0.10739c0.03208,-0.04798 0.04922,-0.10439 0.04923,-0.16211l0,-3.5c0,-0.07735 -0.03073,-0.15154 -0.08543,-0.20624c-0.0547,-0.0547 -0.12889,-0.08542 -0.20624,-0.08542l-3.5,0c-0.05764,0.00001 -0.11399,0.0171 -0.16192,0.04911c-0.04794,0.03202 -0.08531,0.07751 -0.10741,0.13075c-0.02209,0.05324 -0.02792,0.11184 -0.01673,0.16838c0.01118,0.05655 0.03886,0.10852 0.07956,0.14934l1.23258,1.23258c0.01365,0.01351 0.02449,0.02959 0.03189,0.04731c0.00739,0.01773 0.0112,0.03674 0.0112,0.05594c0,0.01921 -0.00381,0.03822 -0.0112,0.05594c-0.0074,0.01773 -0.01824,0.03381 -0.03189,0.04731l-3.77416,3.766c-0.10954,0.10938 -0.17113,0.25779 -0.17124,0.41259c-0.00011,0.1548 0.06127,0.30329 0.17065,0.41283c0.10938,0.10953 0.2578,0.17113 0.41259,0.17124c0.1548,0.00011 0.3033,-0.06128 0.41283,-0.17066l3.77242,-3.76716z"/>
            </svg>
        </g>
    </g>
</svg>