<svg width="16" height="16" viewBox="0 0 16 16" fill="none" xmlns="http://www.w3.org/2000/svg">
<path d="M2.5 11.4947C2.5 12.0252 2.71071 12.5339 3.08579 12.9089C3.46086 13.284 3.96957 13.4947 4.5 13.4947H9.83333C10.3638 13.4947 10.8725 13.284 11.2475 12.9089C11.6226 12.5339 11.8333 12.0252 11.8333 11.4947V8.1394C11.8335 8.05147 11.8163 7.96439 11.7826 7.88315C11.749 7.80192 11.6996 7.72814 11.6373 7.66606C11.5754 7.60368 11.5017 7.55417 11.4205 7.52038C11.3393 7.48659 11.2523 7.4692 11.1643 7.4692C11.0764 7.4692 10.9893 7.48659 10.9082 7.52038C10.827 7.55417 10.7533 7.60368 10.6913 7.66606L7.678 10.6754C7.51537 10.8378 7.32091 10.9648 7.10683 11.0484C6.89276 11.1321 6.6637 11.1705 6.43405 11.1614C6.2044 11.1522 5.97913 11.0957 5.77238 10.9953C5.56563 10.8949 5.38188 10.7529 5.23267 10.5781C4.96442 10.2387 4.83244 9.81146 4.86252 9.37992C4.8926 8.94839 5.0826 8.5436 5.39533 8.24473L8.33333 5.3114C8.39582 5.24942 8.44542 5.17569 8.47926 5.09445C8.51311 5.01321 8.53053 4.92607 8.53053 4.83806C8.53053 4.75006 8.51311 4.66292 8.47926 4.58168C8.44542 4.50044 8.39582 4.42671 8.33333 4.36473L8.32867 4.36006C8.26659 4.29779 8.19281 4.24842 8.11158 4.21478C8.03034 4.18114 7.94326 4.16391 7.85533 4.16406H4.5C3.96957 4.16406 3.46086 4.37478 3.08579 4.74985C2.71071 5.12492 2.5 5.63363 2.5 6.16406V11.4947Z" fill="#40526D"/>
<path d="M11.2827 5.65991C11.3139 5.62876 11.3562 5.61127 11.4003 5.61127C11.4444 5.61127 11.4867 5.62876 11.518 5.65991L12.9333 7.07257C12.9643 7.10363 13.0011 7.12827 13.0416 7.14509C13.0821 7.1619 13.1255 7.17056 13.1693 7.17057C13.213 7.17035 13.2562 7.16175 13.2967 7.14524C13.3576 7.12004 13.4097 7.07733 13.4464 7.0225C13.4831 6.96767 13.5026 6.9032 13.5027 6.83724V2.83724C13.5027 2.74883 13.4675 2.66405 13.405 2.60154C13.3425 2.53903 13.2577 2.50391 13.1693 2.50391H9.16932C9.10344 2.50392 9.03905 2.52345 8.98426 2.56004C8.92948 2.59663 8.88677 2.64863 8.86151 2.70947C8.83626 2.77032 8.82961 2.83728 8.84239 2.9019C8.85517 2.96653 8.88681 3.02592 8.93332 3.07257L10.342 4.48124C10.3576 4.49668 10.37 4.51505 10.3784 4.53531C10.3869 4.55556 10.3912 4.57729 10.3912 4.59924C10.3912 4.62119 10.3869 4.64292 10.3784 4.66317C10.37 4.68343 10.3576 4.7018 10.342 4.71724L6.02865 9.02124C5.90347 9.14625 5.83307 9.31586 5.83295 9.49277C5.83282 9.66968 5.90298 9.83939 6.02798 9.96457C6.15299 10.0898 6.3226 10.1602 6.49951 10.1603C6.67642 10.1604 6.84614 10.0902 6.97132 9.96524L11.2827 5.65991Z" fill="#40526D"/>
</svg>
