<svg width="12" height="12" viewBox="0 0 12 12" fill="currentColor" xmlns="http://www.w3.org/2000/svg">
<path d="M11.7774 4.36388C11.724 4.22038 11.6281 4.09659 11.5024 4.00904C11.3768 3.92149 11.2275 3.87433 11.0744 3.87388H8.03088C7.97909 3.87392 7.92857 3.85787 7.88629 3.82795C7.84402 3.79804 7.81207 3.75573 7.79488 3.70688L6.70238 0.61038C6.64887 0.467261 6.55292 0.343901 6.42737 0.256808C6.30183 0.169716 6.15268 0.123047 5.99988 0.123047C5.84708 0.123047 5.69793 0.169716 5.57239 0.256808C5.44684 0.343901 5.35089 0.467261 5.29738 0.61038L5.29488 0.61838L4.20488 3.70688C4.18771 3.75565 4.15585 3.7979 4.11367 3.82781C4.0715 3.85772 4.02108 3.87381 3.96938 3.87388H0.92488C0.770789 3.87376 0.620402 3.92111 0.494172 4.00949C0.367943 4.09786 0.271997 4.22298 0.219386 4.36781C0.166775 4.51264 0.160051 4.67016 0.200129 4.81895C0.240207 4.96774 0.325141 5.10057 0.44338 5.19938L3.03538 7.34938C3.07415 7.38156 3.1023 7.42469 3.11613 7.47314C3.12996 7.52159 3.12882 7.57309 3.11288 7.62088L2.02388 10.8864C1.97355 11.0374 1.97256 11.2004 2.02104 11.352C2.06953 11.5036 2.16497 11.6358 2.29358 11.7296C2.42218 11.8234 2.57728 11.8738 2.73643 11.8735C2.89558 11.8733 3.05053 11.8225 3.17888 11.7284L5.85188 9.76838C5.89474 9.73698 5.9465 9.72005 5.99963 9.72005C6.05277 9.72005 6.10452 9.73698 6.14738 9.76838L8.81938 11.7279C8.94767 11.8223 9.1027 11.8734 9.26199 11.8739C9.42129 11.8743 9.57658 11.824 9.70537 11.7302C9.83415 11.6365 9.92975 11.5042 9.97829 11.3524C10.0268 11.2007 10.0258 11.0375 9.97538 10.8864L8.88638 7.61888C8.87044 7.57109 8.8693 7.51959 8.88313 7.47114C8.89696 7.42269 8.92511 7.37956 8.96388 7.34738L11.5609 5.19438C11.6776 5.09473 11.761 4.96167 11.7997 4.81316C11.8384 4.66465 11.8306 4.50783 11.7774 4.36388Z" />
</svg>
