<svg width="40" height="40" viewBox="0 0 40 40" fill="none" xmlns="http://www.w3.org/2000/svg">
    <g clip-path="url(#clip0_397_109607)">
        <path d="M22.5006 15C22.5026 12.5663 21.6133 10.2161 20.0006 8.39333V4.16667C20.0006 3.0616 19.5616 2.00179 18.7802 1.22039C17.9988 0.438987 16.939 0 15.834 0C14.7289 0 13.6691 0.438987 12.8877 1.22039C12.1063 2.00179 11.6673 3.0616 11.6673 4.16667V5.035C9.39164 5.22965 7.25118 6.19743 5.60188 7.77741C3.95257 9.35739 2.89382 11.4543 2.60169 13.7196C2.30955 15.9848 2.80164 18.2817 3.99612 20.2284C5.1906 22.1752 7.01548 23.6544 9.1673 24.42V25.4883L7.74397 26.91C7.66663 26.9875 7.60534 27.0795 7.56358 27.1808C7.52183 27.282 7.50044 27.3905 7.50064 27.5C7.50115 27.721 7.58855 27.9329 7.74397 28.09L9.1673 29.5133V30.49L7.74397 31.9133C7.58774 32.0696 7.49998 32.2815 7.49998 32.5025C7.49998 32.7235 7.58774 32.9354 7.74397 33.0917L9.1673 34.5133V36.6667C9.16711 36.7762 9.1885 36.8846 9.23025 36.9859C9.272 37.0871 9.3333 37.1791 9.41063 37.2567L11.9106 39.7567C11.988 39.8343 12.08 39.8958 12.1812 39.9379C12.2825 39.9799 12.391 40.0015 12.5006 40.0015C12.6102 40.0015 12.7188 39.9799 12.82 39.9379C12.9213 39.8958 13.0132 39.8343 13.0906 39.7567L15.5906 37.2567C15.668 37.1791 15.7293 37.0871 15.771 36.9859C15.8128 36.8846 15.8342 36.7762 15.834 36.6667V24.42C17.7798 23.7272 19.4643 22.4506 20.6575 20.7646C21.8507 19.0787 22.4944 17.0655 22.5006 15ZM12.5006 10C12.8303 10 13.1525 10.0977 13.4266 10.2809C13.7007 10.464 13.9143 10.7243 14.0404 11.0289C14.1666 11.3334 14.1996 11.6685 14.1353 11.9918C14.071 12.3151 13.9122 12.6121 13.6791 12.8452C13.4461 13.0783 13.1491 13.237 12.8258 13.3013C12.5025 13.3656 12.1674 13.3326 11.8628 13.2065C11.5583 13.0803 11.298 12.8667 11.1149 12.5926C10.9317 12.3185 10.834 11.9963 10.834 11.6667C10.834 11.2246 11.0096 10.8007 11.3221 10.4882C11.6347 10.1756 12.0586 10 12.5006 10ZM15.834 1.66667C16.497 1.66667 17.1329 1.93006 17.6017 2.3989C18.0706 2.86774 18.334 3.50363 18.334 4.16667V6.88333C17.3297 6.15883 16.1993 5.62756 15.0006 5.31667V8.33333H13.334V4.16667C13.334 3.50363 13.5974 2.86774 14.0662 2.3989C14.535 1.93006 15.1709 1.66667 15.834 1.66667Z" fill="#D32D27"/>
        <path d="M37.2575 30.0433L28.5908 21.3767C29.648 19.1993 29.8718 16.7103 29.22 14.3793C28.5681 12.0483 27.0857 10.0365 25.0525 8.72332C24.9011 8.62404 24.7215 8.57677 24.5408 8.58865C24.3601 8.60054 24.1883 8.67093 24.0512 8.78919C23.9141 8.90745 23.8192 9.06714 23.781 9.2441C23.7427 9.42106 23.7631 9.60566 23.8391 9.76999C25.1093 12.5095 25.3406 15.6173 24.4901 18.5147C23.6396 21.4121 21.7652 23.9017 19.2158 25.52C19.0642 25.6171 18.9481 25.7607 18.885 25.9293C18.8218 26.0979 18.815 26.2825 18.8655 26.4553C18.9159 26.6281 19.021 26.7799 19.165 26.888C19.309 26.9962 19.4841 27.0547 19.6641 27.055H19.6741C21.1406 27.041 22.5861 26.706 23.9091 26.0733L24.9925 27.035V29.1667C24.9925 29.3877 25.0803 29.5996 25.2365 29.7559C25.3928 29.9122 25.6048 30 25.8258 30H27.9691L28.3258 30.3733V32.5C28.3258 32.721 28.4136 32.933 28.5699 33.0892C28.7262 33.2455 28.9381 33.3333 29.1591 33.3333H31.0241L32.5525 34.7733C32.7072 34.919 32.9117 35.0001 33.1241 35H36.6675C36.8885 35 37.1004 34.9122 37.2567 34.7559C37.413 34.5996 37.5008 34.3877 37.5008 34.1667V30.6317C37.5008 30.4111 37.4132 30.1995 37.2575 30.0433Z" fill="#D32D27"/>
    </g>
    <defs>
        <clipPath id="clip0_397_109607">
            <rect width="40" height="40" fill="white"/>
        </clipPath>
    </defs>
</svg>
