<svg width="126" height="126" viewBox="0 0 126 126" fill="none" xmlns="http://www.w3.org/2000/svg">
<path d="M5.56067 63C5.56067 78.471 11.7065 93.3083 22.6461 104.248C33.5857 115.188 48.423 121.333 63.894 121.333C79.365 121.333 94.2023 115.188 105.142 104.248C116.082 93.3083 122.227 78.471 122.227 63C122.227 47.529 116.082 32.6917 105.142 21.7521C94.2023 10.8125 79.365 4.66667 63.894 4.66667C48.423 4.66667 33.5857 10.8125 22.6461 21.7521C11.7065 32.6917 5.56067 47.529 5.56067 63Z" fill="#ECF5FB"/>
<path fill-rule="evenodd" clip-rule="evenodd" d="M53.2778 18.5556C54.4285 18.5556 55.3611 17.6229 55.3611 16.4722C55.3611 15.3215 54.4285 14.3889 53.2778 14.3889C52.1271 14.3889 51.1945 15.3215 51.1945 16.4722C51.1945 17.6229 52.1271 18.5556 53.2778 18.5556Z" stroke="#B5D9F1" stroke-width="2"/>
<path d="M58.4759 85.3907L55.5297 82.4444L52.5834 85.3907L55.5297 88.337L58.4759 85.3907Z" stroke="#B5D9F1" stroke-width="2" stroke-linecap="round" stroke-linejoin="round"/>
<path d="M63.8364 24.1111L67.8611 28.2778" stroke="#B5D9F1" stroke-width="2" stroke-linecap="round"/>
<path d="M67.7192 24.1111L63.6945 28.2778" stroke="#B5D9F1" stroke-width="2" stroke-linecap="round"/>
<path d="M36.7531 96.3333L40.7778 100.5" stroke="#B5D9F1" stroke-width="2" stroke-linecap="round"/>
<path d="M40.6359 96.3333L36.6111 100.5" stroke="#B5D9F1" stroke-width="2" stroke-linecap="round"/>
<path d="M36.531 46.6244V41.3732C36.531 39.3835 37.3214 37.4753 38.7284 36.0683C40.1353 34.6614 42.0435 33.871 44.0333 33.871C46.023 33.871 47.9312 34.6614 49.3382 36.0683C50.7451 37.4753 51.5355 39.3835 51.5355 41.3732V46.6244H56.7878V41.3732C56.8327 39.67 56.5361 37.975 55.9153 36.3882C55.2945 34.8015 54.3622 33.3551 53.1734 32.1346C51.9846 30.914 50.5633 29.9438 48.9935 29.2814C47.4237 28.619 45.7371 28.2778 44.0333 28.2778C42.3294 28.2778 40.6428 28.619 39.073 29.2814C37.5032 29.9438 36.0819 30.914 34.8931 32.1346C33.7043 33.3551 32.772 34.8015 32.1512 36.3882C31.5305 37.975 31.2338 39.67 31.2787 41.3732V46.6244H36.531Z" fill="#DAECF8"/>
<path d="M44.0333 28.6186C40.6494 28.6186 37.4041 29.9629 35.0113 32.3556C32.6186 34.7484 31.2743 37.9937 31.2743 41.3776V44.3787C31.2294 42.6755 31.5261 40.9804 32.1468 39.3937C32.7676 37.807 33.6999 36.3606 34.8887 35.14C36.0775 33.9194 37.4988 32.9493 39.0686 32.2869C40.6384 31.6245 42.325 31.2833 44.0289 31.2833C45.7327 31.2833 47.4193 31.6245 48.9891 32.2869C50.5589 32.9493 51.9802 33.9194 53.169 35.14C54.3578 36.3606 55.2901 37.807 55.9109 39.3937C56.5317 40.9804 56.8283 42.6755 56.7834 44.3787V41.3731C56.7822 37.9916 55.4387 34.7488 53.0479 32.3572C50.6572 29.9656 47.4149 28.621 44.0333 28.6186Z" fill="#ECF5FB"/>
<path d="M57.2261 46.6243H30.8406C29.4252 46.6243 28.2777 47.7718 28.2777 49.1872V67.062C28.2777 68.4774 29.4252 69.6249 30.8406 69.6249H57.2261C58.6416 69.6249 59.789 68.4774 59.789 67.062V49.1872C59.789 47.7718 58.6416 46.6243 57.2261 46.6243Z" fill="#B5D9F1"/>
<path d="M57.2261 46.6243H30.8406C30.1609 46.6243 29.509 46.8944 29.0284 47.375C28.5477 47.8556 28.2777 48.5075 28.2777 49.1872V53.6762C28.2777 52.9964 28.5477 52.3446 29.0284 51.8639C29.509 51.3833 30.1609 51.1133 30.8406 51.1133H57.2261C57.9059 51.1133 58.5577 51.3833 59.0384 51.8639C59.519 52.3446 59.789 52.9964 59.789 53.6762V49.1872C59.7887 48.5076 59.5186 47.8559 59.038 47.3753C58.5575 46.8948 57.9058 46.6246 57.2261 46.6243Z" fill="#ECF5FB"/>
<path d="M47.0345 55.6277C47.0369 55.1004 46.9002 54.5817 46.6384 54.1239C46.3766 53.6662 45.9987 53.2855 45.5429 53.0202C45.0871 52.755 44.5695 52.6145 44.0421 52.613C43.5148 52.6114 42.9963 52.7489 42.539 53.0115C42.0817 53.274 41.7016 53.6525 41.4371 54.1087C41.1726 54.5649 41.0329 55.0828 41.0322 55.6102C41.0315 56.1375 41.1698 56.6557 41.4332 57.1127C41.6965 57.5696 42.0756 57.949 42.5322 58.2128V61.63C42.5576 62.01 42.7264 62.3661 43.0045 62.6263C43.2826 62.8864 43.6492 63.0312 44.03 63.0312C44.4108 63.0312 44.7774 62.8864 45.0555 62.6263C45.3336 62.3661 45.5024 62.01 45.5278 61.63V58.2128C45.9835 57.9518 46.3626 57.5756 46.627 57.1218C46.8914 56.6681 47.0319 56.1529 47.0345 55.6277Z" fill="#22618C" stroke="#264887" stroke-width="1.25" stroke-linecap="round" stroke-linejoin="round" stroke-dasharray="100 7 1 5"/>
<path d="M57.2261 46.6243H30.8406C29.4252 46.6243 28.2777 47.7718 28.2777 49.1872V67.062C28.2777 68.4774 29.4252 69.6249 30.8406 69.6249H57.2261C58.6416 69.6249 59.789 68.4774 59.789 67.062V49.1872C59.789 47.7718 58.6416 46.6243 57.2261 46.6243Z" stroke="#264887" stroke-width="1.25" stroke-linecap="round" stroke-linejoin="round" stroke-dasharray="100 7 1 5"/>
<path d="M36.531 46.6244V41.3732C36.531 39.3835 37.3214 37.4753 38.7284 36.0683C40.1353 34.6614 42.0435 33.871 44.0333 33.871C46.023 33.871 47.9312 34.6614 49.3382 36.0683C50.7451 37.4753 51.5355 39.3835 51.5355 41.3732V46.6244H56.7878V41.3732C56.8327 39.67 56.5361 37.975 55.9153 36.3882C55.2945 34.8015 54.3622 33.3551 53.1734 32.1346C51.9846 30.914 50.5633 29.9438 48.9935 29.2814C47.4237 28.619 45.7371 28.2778 44.0333 28.2778C42.3294 28.2778 40.6428 28.619 39.073 29.2814C37.5032 29.9438 36.0819 30.914 34.8931 32.1346C33.7043 33.3551 32.772 34.8015 32.1512 36.3882C31.5305 37.975 31.2338 39.67 31.2787 41.3732V46.6244H36.531Z" stroke="#264887" stroke-width="1.25" stroke-linecap="round" stroke-linejoin="round" stroke-dasharray="100 7 1 5"/>
<path d="M79.9798 55.8923C79.9743 54.454 79.4572 53.0645 78.5209 51.9726C77.5846 50.8807 76.2902 50.1577 74.8696 49.9329C73.4489 49.7082 71.9946 49.9964 70.7669 50.746C69.5393 51.4955 68.6185 52.6575 68.1694 54.024L45.5361 54.1349C45.0762 54.1371 44.636 54.3219 44.3124 54.6487C43.9887 54.9755 43.8081 55.4174 43.8103 55.8773C43.8125 56.3372 43.9973 56.7774 44.3241 57.1011C44.6509 57.4247 45.0928 57.6053 45.5528 57.6031L48.1045 57.5909L48.1223 61.2322C48.1177 61.4635 48.1594 61.6934 48.2449 61.9083C48.3305 62.1233 48.4582 62.3189 48.6206 62.4838C48.7829 62.6486 48.9766 62.7793 49.1902 62.8681C49.4038 62.957 49.633 63.0022 49.8644 63.001C50.0957 62.9999 50.3245 62.9525 50.5373 62.8617C50.75 62.7708 50.9424 62.6382 51.1032 62.4719C51.2639 62.3055 51.3898 62.1086 51.4733 61.8929C51.5568 61.6771 51.5963 61.4468 51.5894 61.2156L51.5706 57.5743L54.8124 57.5587L54.8257 59.0377C54.821 59.269 54.8626 59.4989 54.9481 59.7139C55.0336 59.9289 55.1613 60.1246 55.3236 60.2895C55.4859 60.4544 55.6795 60.5851 55.8931 60.674C56.1067 60.7629 56.3359 60.8082 56.5673 60.8072C56.7986 60.8061 57.0274 60.7588 57.2402 60.668C57.453 60.5772 57.6455 60.4447 57.8063 60.2783C57.9671 60.112 58.093 59.9152 58.1765 59.6994C58.2601 59.4837 58.2997 59.2534 58.2929 59.0221L58.2862 57.5432L68.0806 57.4966C68.4633 58.9171 69.35 60.1498 70.575 60.9644C71.8 61.779 73.2797 62.1199 74.7377 61.9234C76.1956 61.727 77.5323 61.0065 78.4979 59.8967C79.4636 58.7868 79.9923 57.3634 79.9853 55.8923H79.9798ZM73.9365 58.6349C73.3997 58.6373 72.8743 58.4805 72.4266 58.1843C71.979 57.888 71.6293 57.4657 71.4217 56.9707C71.2141 56.4757 71.1579 55.9302 71.2604 55.4033C71.3628 54.8764 71.6192 54.3917 71.9971 54.0105C72.3751 53.6293 72.8575 53.3688 73.3836 53.2618C73.9096 53.1549 74.4555 53.2063 74.9523 53.4096C75.449 53.613 75.8744 53.9591 76.1744 54.4041C76.4745 54.8492 76.6358 55.3733 76.638 55.9101C76.6396 56.2664 76.571 56.6195 76.4361 56.9493C76.3012 57.2791 76.1026 57.5791 75.8518 57.8322C75.6009 58.0852 75.3026 58.2864 74.974 58.4241C74.6453 58.5618 74.2928 58.6335 73.9365 58.6349Z" fill="#3598DB" stroke="#264887" stroke-width="1.25" stroke-linecap="round" stroke-linejoin="round" stroke-dasharray="100 7 1 5"/>
<path d="M93.9081 60.0527C94.566 60.0488 95.2025 59.8187 95.711 59.4012C96.2194 58.9837 96.5688 58.404 96.7006 57.7594C98.0784 51.041 98.0622 44.1113 96.6529 37.3995L96.4044 36.2046C96.3325 35.8313 96.1871 35.4761 95.9767 35.1596C95.7663 34.8431 95.495 34.5716 95.1787 34.3609C94.8624 34.1502 94.5073 34.0045 94.1341 33.9322C93.761 33.86 93.3772 33.8627 93.0051 33.9401C92.633 34.0176 92.28 34.1683 91.9667 34.3834C91.6533 34.5985 91.3859 34.8738 91.1799 35.1932C90.9739 35.5126 90.8335 35.8698 90.7669 36.244C90.7002 36.6182 90.7086 37.0019 90.7916 37.3728L91.0412 38.57C92.2885 44.5181 92.3013 50.659 91.0789 56.6122C91.0039 56.9818 91.0024 57.3626 91.0747 57.7328C91.1469 58.1029 91.2915 58.4552 91.5001 58.7694C91.7087 59.0836 91.9772 59.3536 92.2902 59.5639C92.6033 59.7742 92.9548 59.9207 93.3245 59.995C93.5167 60.0335 93.7121 60.0528 93.9081 60.0527Z" fill="#DAECF8" stroke="#264887" stroke-width="1.25" stroke-linecap="round" stroke-linejoin="round" stroke-dasharray="100 7 1 5"/>
<path d="M95.8275 98.0935L95.7587 83.6703C95.7578 83.4882 95.7211 83.308 95.6506 83.1401C95.5801 82.9721 95.4772 82.8197 95.3478 82.6916C95.2184 82.5634 95.065 82.462 94.8964 82.3931C94.7278 82.3242 94.5473 82.2892 94.3652 82.2901L74.9238 82.3822C74.5561 82.3842 74.2042 82.5321 73.9455 82.7934C73.6867 83.0547 73.5422 83.408 73.5437 83.7757L73.6124 98.1989L95.8275 98.0935Z" fill="#3598DB"/>
<path d="M94.323 82.2867L74.9749 82.3776C74.7866 82.3786 74.6003 82.4168 74.4267 82.4898C74.2531 82.5629 74.0956 82.6694 73.9632 82.8034C73.8308 82.9373 73.7261 83.096 73.655 83.2705C73.584 83.4449 73.5481 83.6316 73.5492 83.82L73.5659 87.4812C73.5648 87.2928 73.6009 87.1061 73.6721 86.9317C73.7432 86.7572 73.848 86.5985 73.9805 86.4646C74.113 86.3306 74.2706 86.2241 74.4443 86.1511C74.6179 86.078 74.8043 86.0399 74.9927 86.0389L94.3408 85.9479C94.5292 85.9466 94.716 85.9825 94.8905 86.0534C95.065 86.1244 95.2237 86.2291 95.3577 86.3616C95.4917 86.494 95.5982 86.6515 95.6712 86.8252C95.7442 86.9989 95.7822 87.1852 95.7831 87.3736L95.7654 83.7123C95.7645 83.524 95.7265 83.3376 95.6535 83.1639C95.5805 82.9903 95.4739 82.8327 95.34 82.7003C95.206 82.5679 95.0472 82.4632 94.8727 82.3922C94.6982 82.3212 94.5114 82.2853 94.323 82.2867Z" fill="#6CB4E4"/>
<path d="M95.8275 98.0935L95.7587 83.6703C95.7578 83.4882 95.7211 83.308 95.6506 83.1401C95.5801 82.9721 95.4772 82.8197 95.3478 82.6916C95.2184 82.5634 95.065 82.462 94.8964 82.3931C94.7278 82.3242 94.5473 82.2892 94.3652 82.2901L74.9238 82.3822C74.5561 82.3842 74.2042 82.5321 73.9455 82.7934C73.6867 83.0547 73.5422 83.408 73.5437 83.7757L73.6124 98.1989" stroke="#264887" stroke-width="1.25" stroke-linecap="round" stroke-linejoin="round" stroke-dasharray="100 7 1 5"/>
<path d="M74.9704 82.3776L74.9571 79.4653C74.9559 79.2831 74.9907 79.1026 75.0594 78.9339C75.1281 78.7653 75.2294 78.6118 75.3575 78.4824C75.4856 78.353 75.638 78.2501 75.8059 78.1796C75.9738 78.1091 76.154 78.0725 76.3361 78.0718L92.9117 77.993C93.0938 77.9921 93.2743 78.0271 93.4429 78.096C93.6115 78.1649 93.7649 78.2663 93.8943 78.3945C94.0237 78.5226 94.1266 78.675 94.1971 78.843C94.2676 79.0109 94.3043 79.191 94.3052 79.3732L94.3185 82.2867L74.9704 82.3776Z" fill="white" stroke="#264887" stroke-width="1.25" stroke-linecap="round" stroke-linejoin="round" stroke-dasharray="100 7 1 5"/>
<path d="M76.3839 78.0718L92.8175 77.9885V77.2585C92.7709 67.4951 104.316 54.0705 88.151 30.1347C87.7341 29.5143 87.0909 29.0818 86.3592 28.9295C85.6275 28.7773 84.8652 28.9174 84.2354 29.3199C83.6056 29.7224 83.1583 30.3554 82.9892 31.0834C82.8201 31.8114 82.9425 32.5767 83.3304 33.2157C82.6891 32.236 82.0234 31.2708 81.3133 30.3399L80.5655 29.3713C80.0998 28.7799 79.4201 28.3953 78.6733 28.3006C77.9265 28.2059 77.1723 28.4086 76.5736 28.865C75.9749 29.3214 75.5797 29.9949 75.4732 30.7401C75.3667 31.4854 75.5576 32.2426 76.0045 32.8484L76.7456 33.8203C80.7592 39.1066 83.5486 45.2183 84.9125 51.7139L84.7105 51.7384C83.9704 49.8721 82.76 48.2291 81.1968 46.9692C79.6337 45.7093 77.7712 44.8754 75.7903 44.5485C73.8095 44.2216 71.7777 44.4128 69.8927 45.1037C68.0076 45.7945 66.3334 46.9614 65.0329 48.4909C64.7891 48.7777 64.6041 49.1096 64.4886 49.4678C64.373 49.826 64.3292 50.2035 64.3595 50.5787C64.4208 51.3363 64.7805 52.0386 65.3596 52.5311C65.9387 53.0235 66.6897 53.2657 67.4474 53.2044C68.2051 53.1432 68.9074 52.7834 69.3998 52.2043C70.2144 51.2491 71.3121 50.5782 72.5337 50.2889C73.7553 49.9996 75.0373 50.107 76.1938 50.5954C77.3503 51.0839 78.3211 51.928 78.9655 53.0054C79.6099 54.0829 79.8943 55.3375 79.7775 56.5875C79.6607 57.8375 79.1487 59.0177 78.3159 59.9571C77.4831 60.8965 76.3727 61.5462 75.1457 61.8119C73.9188 62.0777 72.6391 61.9456 71.4922 61.435C70.3453 60.9244 69.3909 60.0618 68.7674 58.9721C68.5109 58.5226 68.1393 58.1495 67.6908 57.8911C67.2423 57.6327 66.7332 57.4985 66.2156 57.5021C65.7196 57.506 65.2333 57.6398 64.8051 57.8901C64.3768 58.1404 64.0216 58.4984 63.7748 58.9287C63.5279 59.3589 63.398 59.8462 63.398 60.3422C63.398 60.8382 63.5279 61.3256 63.7748 61.7558C65.1211 64.068 67.1933 65.871 69.6694 66.8849C74.8839 69.0462 76.1043 71.5125 76.314 78.0751L76.3839 78.0718Z" fill="#DAECF8"/>
<path d="M84.9268 30.8714C101.091 54.8094 89.5456 68.2307 89.5866 77.9952V78.0085L92.8108 77.993V77.263C92.7653 67.4996 104.31 54.0749 88.151 30.1391C87.9407 29.8268 87.6709 29.5589 87.3571 29.3509C87.0433 29.1428 86.6916 28.9986 86.322 28.9265C85.9525 28.8544 85.5723 28.8557 85.2033 28.9306C84.8343 29.0054 84.4836 29.1521 84.1713 29.3625C83.9776 29.4936 83.8003 29.6474 83.6432 29.8207C84.1645 30.0381 84.6107 30.4033 84.9268 30.8714Z" fill="#DAECF8"/>
<path d="M76.3839 78.0717L92.8175 77.9885V77.2585C92.7709 67.4951 104.316 54.0705 88.151 30.1347C87.7341 29.5143 87.0909 29.0818 86.3592 28.9295C85.6275 28.7773 84.8652 28.9174 84.2354 29.3199C83.6056 29.7224 83.1583 30.3554 82.9892 31.0834C82.8201 31.8114 82.9425 32.5767 83.3304 33.2157C82.6891 32.236 82.0234 31.2708 81.3133 30.3399L80.5655 29.3713C80.0998 28.7799 79.4201 28.3953 78.6733 28.3006C77.9265 28.2059 77.1723 28.4086 76.5736 28.865C75.9749 29.3214 75.5797 29.9949 75.4732 30.7401C75.3668 31.4854 75.5576 32.2426 76.0045 32.8484L76.7456 33.8203C80.7592 39.1066 83.5486 45.2183 84.9125 51.7139L84.7105 51.7384C83.9704 49.8721 82.76 48.2291 81.1968 46.9692C79.6337 45.7093 77.7712 44.8754 75.7903 44.5485C73.8095 44.2216 71.7777 44.4128 69.8927 45.1037C68.0076 45.7945 66.3334 46.9614 65.0329 48.4909C64.7891 48.7777 64.6041 49.1096 64.4886 49.4678C64.373 49.826 64.3292 50.2035 64.3595 50.5787C64.4208 51.3363 64.7805 52.0386 65.3596 52.5311C65.9387 53.0235 66.6897 53.2657 67.4474 53.2044C68.2051 53.1432 68.9074 52.7834 69.3998 52.2043C70.2144 51.2491 71.3121 50.5782 72.5337 50.2889C73.7553 49.9996 75.0373 50.107 76.1938 50.5954C77.3503 51.0839 78.3211 51.928 78.9655 53.0054C79.6099 54.0829 79.8943 55.3375 79.7775 56.5875C79.6607 57.8375 79.1487 59.0177 78.3159 59.9571C77.4831 60.8965 76.3727 61.5462 75.1457 61.8119C73.9188 62.0777 72.6391 61.9456 71.4922 61.435C70.3453 60.9244 69.3909 60.0617 68.7674 58.9721C68.5109 58.5226 68.1393 58.1495 67.6908 57.8911C67.2423 57.6327 66.7332 57.4985 66.2156 57.5021C65.7196 57.506 65.2333 57.6398 64.8051 57.8901C64.3768 58.1404 64.0216 58.4984 63.7748 58.9287C63.5279 59.3589 63.398 59.8462 63.398 60.3422C63.398 60.8382 63.5279 61.3256 63.7748 61.7558C65.1211 64.068 67.1933 65.871 69.6694 66.8849C74.8839 69.0462 76.1043 71.5125 76.314 78.0751L76.3839 78.0717Z" stroke="#264887" stroke-width="1.25" stroke-linecap="round" stroke-linejoin="round" stroke-dasharray="100 7 1 5"/>
<path d="M90.6973 51.3023C89.4401 44.8541 86.9411 38.712 83.3392 33.2178" stroke="#264887" stroke-width="1.25" stroke-linecap="round" stroke-linejoin="round" stroke-dasharray="100 7 1 5"/>
<path fill-rule="evenodd" clip-rule="evenodd" d="M97.794 19.249L96.2553 18.7192L98.8932 9.56433L101.343 10.4078L97.794 19.249ZM94.7186 21.3434C94.8687 20.9074 95.0978 20.6156 95.4058 20.4679C95.7139 20.3202 96.0801 20.3195 96.5046 20.4657C96.9232 20.6098 97.2039 20.8382 97.3468 21.151C97.4897 21.4639 97.4891 21.8294 97.3451 22.2477C97.201 22.666 96.9734 22.9583 96.6623 23.1247C96.3511 23.291 95.9892 23.3032 95.5765 23.1611C95.1579 23.0169 94.8728 22.7869 94.721 22.4711C94.5693 22.1552 94.5685 21.7793 94.7186 21.3434Z" fill="#D32D27"/>
<path fill-rule="evenodd" clip-rule="evenodd" d="M34.292 15.8444L33.23 16.3396L30.0174 10.2787L31.708 9.49043L34.292 15.8444ZM33.7469 18.4671C33.6066 18.1663 33.5793 17.9005 33.665 17.67C33.7507 17.4395 33.94 17.2559 34.2329 17.1193C34.5218 16.9846 34.7815 16.9625 35.0119 17.0531C35.2424 17.1436 35.4249 17.3332 35.5595 17.6219C35.6941 17.9106 35.7225 18.1758 35.6445 18.4176C35.5665 18.6594 35.3852 18.8467 35.1003 18.9795C34.8115 19.1142 34.5488 19.1377 34.3122 19.05C34.0756 18.9623 33.8872 18.768 33.7469 18.4671Z" fill="#D32D27"/>
<path fill-rule="evenodd" clip-rule="evenodd" d="M87.3598 13.2815L86.335 12.7134L89.35 6.55188L90.9814 7.45621L87.3598 13.2815ZM84.9179 14.3823C85.0789 14.0919 85.2778 13.9136 85.5147 13.8474C85.7515 13.7812 86.0113 13.8265 86.294 13.9832C86.5728 14.1377 86.7433 14.3348 86.8055 14.5745C86.8677 14.8142 86.8216 15.0733 86.6672 15.3519C86.5127 15.6305 86.3148 15.8093 86.0734 15.8883C85.8319 15.9674 85.5738 15.9307 85.2989 15.7784C85.0202 15.6239 84.8467 15.4251 84.7786 15.1822C84.7105 14.9393 84.757 14.6726 84.9179 14.3823Z" fill="#D32D27"/>
</svg>
