<svg width="14" height="16" viewBox="0 0 14 16" fill="none" xmlns="http://www.w3.org/2000/svg">
<path d="M1.99992 6.33333L2.49992 6.33333L2.49992 4.5C2.49992 3.30653 2.97402 2.16193 3.81794 1.31802C4.66185 0.474107 5.80644 6.58014e-07 6.99992 5.53678e-07C8.19339 4.49341e-07 9.33799 0.474106 10.1819 1.31802C11.0258 2.16193 11.4999 3.30653 11.4999 4.5L11.4999 6.33333L11.9999 6.33333C12.3535 6.33333 12.6927 6.47381 12.9427 6.72386C13.1928 6.97391 13.3333 7.31305 13.3333 7.66667L13.3333 14.6667C13.3333 15.0203 13.1928 15.3594 12.9427 15.6095C12.6927 15.8595 12.3535 16 11.9999 16L1.99992 16C1.6463 16 1.30716 15.8595 1.05711 15.6095C0.807063 15.3594 0.666586 15.0203 0.666586 14.6667L0.666586 7.66667C0.666586 7.31305 0.807062 6.97391 1.05711 6.72386C1.30716 6.47381 1.6463 6.33333 1.99992 6.33333ZM6.99992 12.3333C7.26363 12.3333 7.52141 12.2551 7.74068 12.1086C7.95995 11.9621 8.13084 11.7539 8.23176 11.5102C8.33268 11.2666 8.35908 10.9985 8.30763 10.7399C8.25619 10.4812 8.1292 10.2437 7.94273 10.0572C7.75626 9.87072 7.51868 9.74373 7.26004 9.69229C7.0014 9.64084 6.73331 9.66724 6.48967 9.76816C6.24604 9.86908 6.0378 10.04 5.89129 10.2592C5.74478 10.4785 5.66659 10.7363 5.66659 11C5.66659 11.3536 5.80706 11.6928 6.05711 11.9428C6.30716 12.1929 6.6463 12.3333 6.99992 12.3333ZM4.16659 6C4.16659 6.08841 4.2017 6.17319 4.26422 6.2357C4.32673 6.29822 4.41151 6.33333 4.49992 6.33333L9.49992 6.33333C9.58832 6.33333 9.67311 6.29822 9.73562 6.2357C9.79813 6.17319 9.83325 6.08841 9.83325 6L9.83325 4.5C9.83325 3.74855 9.53474 3.02788 9.00339 2.49653C8.47204 1.96518 7.75137 1.66667 6.99992 1.66667C6.24847 1.66667 5.5278 1.96518 4.99645 2.49653C4.4651 3.02788 4.16659 3.74855 4.16659 4.5L4.16659 6Z" fill="#3B70D4"/>
</svg>
