<svg width="14" height="10" viewBox="0 0 14 10" fill="none" xmlns="http://www.w3.org/2000/svg">
    <path d="M6.99966 0.624631C7.19046 0.624395 7.37912 0.664858 7.55304 0.743319C7.72696 0.82178 7.88215 0.936435 8.00824 1.07963L13.7313 7.58496C13.9122 7.80053 14.0016 8.07832 13.9803 8.35892C13.9591 8.63953 13.8289 8.90068 13.6175 9.08653C13.4062 9.27238 13.1306 9.36819 12.8496 9.35346C12.5686 9.33873 12.3045 9.21464 12.1137 9.00771L7.10933 3.31905C7.09564 3.30343 7.07877 3.29092 7.05986 3.28235C7.04095 3.27378 7.02042 3.26934 6.99966 3.26934C6.97889 3.26934 6.95837 3.27378 6.93946 3.28235C6.92054 3.29092 6.90368 3.30343 6.88999 3.31905L1.88558 9.00771C1.79327 9.11772 1.67991 9.20816 1.55215 9.27372C1.4244 9.33928 1.28482 9.37865 1.14163 9.3895C0.998447 9.40035 0.854536 9.38247 0.718359 9.3369C0.582181 9.29134 0.456486 9.21901 0.34866 9.12417C0.240836 9.02933 0.153057 8.9139 0.0904837 8.78465C0.0279102 8.6554 -0.00819588 8.51495 -0.0157108 8.37155C-0.0232267 8.22815 -0.00199986 8.08469 0.0467205 7.94961C0.0954399 7.81453 0.170671 7.69055 0.267991 7.58496L5.98933 1.08196C6.11564 0.938415 6.27106 0.823391 6.44526 0.744539C6.61946 0.665688 6.80845 0.624813 6.99966 0.624631Z" fill="#40526D"/>
</svg>
