<svg width="12" height="8" viewBox="0 0 12 8" fill="none" xmlns="http://www.w3.org/2000/svg">
<path d="M5.99973 7.75C5.83619 7.7502 5.67448 7.71552 5.52541 7.64827C5.37633 7.58102 5.24331 7.48274 5.13523 7.36L0.229734 1.784C0.0746886 1.59923 -0.00191121 1.36113 0.0163136 1.12061C0.0345385 0.880091 0.146141 0.65625 0.327259 0.496948C0.508376 0.337645 0.744632 0.255527 0.985508 0.268151C1.22638 0.280775 1.45276 0.38714 1.61623 0.564502L5.90573 5.4405C5.91747 5.45389 5.93192 5.46461 5.94813 5.47196C5.96434 5.47931 5.98194 5.48311 5.99973 5.48311C6.01753 5.48311 6.03513 5.47931 6.05134 5.47196C6.06755 5.46461 6.082 5.45389 6.09373 5.4405L10.3832 0.564502C10.4624 0.470215 10.5595 0.392694 10.669 0.336497C10.7785 0.280299 10.8982 0.246559 11.0209 0.237259C11.1436 0.227959 11.267 0.243287 11.3837 0.282343C11.5004 0.321398 11.6082 0.383392 11.7006 0.464682C11.793 0.545971 11.8682 0.644915 11.9219 0.755699C11.9755 0.866483 12.0065 0.98687 12.0129 1.10979C12.0194 1.2327 12.0012 1.35566 11.9594 1.47145C11.9176 1.58723 11.8532 1.6935 11.7697 1.784L6.86573 7.358C6.75746 7.48105 6.62424 7.57964 6.47493 7.64722C6.32562 7.71481 6.16363 7.74985 5.99973 7.75Z" fill="#007AFF"/>
</svg>
