<svg width="24" height="24" viewBox="0 0 24 24" fill="currentColor" xmlns="http://www.w3.org/2000/svg">
<g clip-path="url(#clip0_244_96288)">
<path d="M5.40669 12.1381C5.34186 12.0209 5.24683 11.9232 5.13147 11.8551C5.01611 11.7871 4.88463 11.7511 4.75069 11.7511H4.31469C4.24318 11.7517 4.17238 11.7369 4.10705 11.7079C4.04173 11.6788 3.9834 11.636 3.93601 11.5825C3.88862 11.5289 3.85327 11.4658 3.83234 11.3974C3.81141 11.3291 3.80539 11.257 3.81469 11.1861C4.0233 9.57622 4.7022 8.06368 5.76639 6.83785C6.83058 5.61202 8.23276 4.72738 9.79735 4.29471C11.3619 3.86203 13.0194 3.90055 14.5622 4.40543C16.105 4.91032 17.4646 5.85914 18.4707 7.13308C18.637 7.33564 18.8762 7.4648 19.1368 7.49276C19.3974 7.52073 19.6586 7.44526 19.8641 7.2826C20.0696 7.11994 20.2031 6.88309 20.2357 6.62303C20.2684 6.36297 20.1976 6.10049 20.0387 5.89208C18.7689 4.2864 17.0474 3.0977 15.0961 2.47914C13.1447 1.86058 11.0528 1.84049 9.08986 2.42145C7.12695 3.00242 5.38296 4.15782 4.08258 5.73882C2.7822 7.31981 1.985 9.25396 1.79369 11.2921C1.78219 11.4166 1.72448 11.5322 1.63192 11.6163C1.53937 11.7003 1.4187 11.7466 1.29369 11.7461H0.74969C0.615887 11.7461 0.484536 11.782 0.369257 11.8499C0.253979 11.9178 0.15897 12.0154 0.0940856 12.1324C0.0292007 12.2494 -0.0031981 12.3816 0.000248989 12.5154C0.00369608 12.6492 0.0428636 12.7796 0.11369 12.8931L2.11369 16.0931C2.18123 16.2009 2.27508 16.2899 2.38641 16.3515C2.49775 16.4132 2.62293 16.4455 2.75019 16.4455C2.87745 16.4455 3.00263 16.4132 3.11396 16.3515C3.2253 16.2899 3.31915 16.2009 3.38669 16.0931L5.38669 12.8931C5.45651 12.7803 5.49515 12.6509 5.49866 12.5183C5.50218 12.3856 5.47044 12.2544 5.40669 12.1381Z" />
<path d="M23.8862 11.3531L21.8862 8.15313C21.814 8.05158 21.7185 7.96878 21.6078 7.91165C21.4971 7.85452 21.3743 7.82471 21.2497 7.82471C21.1251 7.82471 21.0023 7.85452 20.8916 7.91165C20.7808 7.96878 20.6854 8.05158 20.6132 8.15313L18.6132 11.3531C18.5424 11.4666 18.5032 11.597 18.4997 11.7308C18.4963 11.8646 18.5287 11.9968 18.5936 12.1138C18.6585 12.2308 18.7535 12.3284 18.8688 12.3963C18.984 12.4642 19.1154 12.5001 19.2492 12.5001H19.6852C19.7567 12.4995 19.8275 12.5143 19.8928 12.5433C19.9582 12.5724 20.0165 12.6152 20.0639 12.6687C20.1113 12.7223 20.1466 12.7854 20.1675 12.8538C20.1885 12.9222 20.1945 12.9942 20.1852 13.0651C19.9766 14.675 19.2977 16.1875 18.2335 17.4134C17.1693 18.6392 15.7671 19.5238 14.2025 19.9565C12.6379 20.3892 10.9805 20.3507 9.43766 19.8458C7.89486 19.3409 6.53528 18.3921 5.52919 17.1181C5.36285 16.9156 5.12365 16.7864 4.86304 16.7584C4.60244 16.7305 4.34127 16.8059 4.13575 16.9686C3.93023 17.1313 3.79679 17.3681 3.76414 17.6282C3.73149 17.8882 3.80225 18.1507 3.96118 18.3591C5.23126 19.965 6.95316 21.1537 8.90495 21.772C10.8567 22.3904 12.949 22.41 14.9121 21.8285C16.8752 21.2469 18.6191 20.0908 19.9191 18.5091C21.2192 16.9274 22.0157 14.9927 22.2062 12.9541C22.2177 12.8296 22.2754 12.714 22.368 12.63C22.4605 12.5459 22.5812 12.4996 22.7062 12.5001H23.2532C23.387 12.5001 23.5183 12.4642 23.6336 12.3963C23.7489 12.3284 23.8439 12.2308 23.9088 12.1138C23.9737 11.9968 24.0061 11.8646 24.0026 11.7308C23.9992 11.597 23.96 11.4666 23.8892 11.3531H23.8862Z" />
<path d="M14.9712 9.812C14.9236 9.80525 14.8801 9.78153 14.8486 9.74522C14.8172 9.7089 14.7999 9.66244 14.8 9.6144V8.8C14.8 8.05739 14.505 7.3452 13.9799 6.8201C13.4548 6.295 12.7426 6 12 6C11.2574 6 10.5452 6.295 10.0201 6.8201C9.495 7.3452 9.2 8.05739 9.2 8.8V9.6144C9.20009 9.66244 9.18281 9.7089 9.15135 9.74522C9.11989 9.78153 9.07637 9.80525 9.0288 9.812C8.74311 9.85318 8.48183 9.99596 8.29287 10.2142C8.10391 10.4324 7.99993 10.7114 8 11V15.4C8 15.7183 8.12643 16.0235 8.35147 16.2485C8.57652 16.4736 8.88174 16.6 9.2 16.6H14.8C15.1183 16.6 15.4235 16.4736 15.6485 16.2485C15.8736 16.0235 16 15.7183 16 15.4V11C16.0001 10.7114 15.8961 10.4324 15.7071 10.2142C15.5182 9.99596 15.2569 9.85318 14.9712 9.812ZM12.8 13.6C12.8 13.7582 12.7531 13.9129 12.6652 14.0445C12.5773 14.176 12.4523 14.2786 12.3061 14.3391C12.16 14.3997 11.9991 14.4155 11.8439 14.3846C11.6887 14.3538 11.5462 14.2776 11.4343 14.1657C11.3224 14.0538 11.2462 13.9113 11.2154 13.7561C11.1845 13.6009 11.2003 13.44 11.2609 13.2939C11.3214 13.1477 11.424 13.0227 11.5555 12.9348C11.6871 12.8469 11.8418 12.8 12 12.8C12.2122 12.8 12.4157 12.8843 12.5657 13.0343C12.7157 13.1843 12.8 13.3878 12.8 13.6ZM10.8 8.8C10.8 8.48174 10.9264 8.17652 11.1515 7.95147C11.3765 7.72643 11.6817 7.6 12 7.6C12.3183 7.6 12.6235 7.72643 12.8485 7.95147C13.0736 8.17652 13.2 8.48174 13.2 8.8V9.6C13.2 9.65304 13.1789 9.70391 13.1414 9.74142C13.1039 9.77893 13.053 9.8 13 9.8H11C10.947 9.8 10.8961 9.77893 10.8586 9.74142C10.8211 9.70391 10.8 9.65304 10.8 9.6V8.8Z" />
</g>
<defs>
<clipPath id="clip0_244_96288">
<rect width="24" height="24" fill="white"/>
</clipPath>
</defs>
</svg>
