<svg width="24" height="24" viewBox="0 0 24 24" fill="none" xmlns="http://www.w3.org/2000/svg">
    <path d="M12 2C10.0222 2 8.08879 2.58649 6.4443 3.6853C4.79981 4.78412 3.51809 6.3459 2.76121 8.17316C2.00433 10.0004 1.8063 12.0111 2.19215 13.9509C2.578 15.8907 3.53041 17.6725 4.92894 19.0711C6.32746 20.4696 8.10929 21.422 10.0491 21.8078C11.9889 22.1937 13.9996 21.9957 15.8268 21.2388C17.6541 20.4819 19.2159 19.2002 20.3147 17.5557C21.4135 15.9112 22 13.9778 22 12C21.997 9.34876 20.9424 6.80698 19.0677 4.93227C17.193 3.05756 14.6512 2.00302 12 2V2ZM10.9286 7C10.9286 6.71584 11.0415 6.44332 11.2424 6.24238C11.4433 6.04145 11.7158 5.92857 12 5.92857C12.2842 5.92857 12.5567 6.04145 12.7576 6.24238C12.9585 6.44332 13.0714 6.71584 13.0714 7V11.2857C13.0714 11.5699 12.9585 11.8424 12.7576 12.0433C12.5567 12.2443 12.2842 12.3571 12 12.3571C11.7158 12.3571 11.4433 12.2443 11.2424 12.0433C11.0415 11.8424 10.9286 11.5699 10.9286 11.2857V7ZM12 17.7143C11.7175 17.7143 11.4413 17.6305 11.2063 17.4735C10.9714 17.3166 10.7883 17.0934 10.6802 16.8324C10.572 16.5714 10.5438 16.2841 10.5989 16.007C10.654 15.7299 10.7901 15.4753 10.9899 15.2756C11.1896 15.0758 11.4442 14.9397 11.7213 14.8846C11.9984 14.8295 12.2857 14.8578 12.5467 14.9659C12.8077 15.074 13.0308 15.2571 13.1878 15.492C13.3448 15.727 13.4286 16.0032 13.4286 16.2857C13.4286 16.6646 13.2781 17.028 13.0102 17.2959C12.7422 17.5638 12.3789 17.7143 12 17.7143Z" fill="#9B7C09"/>
</svg>
