<svg width="24" height="24" viewBox="0 0 24 24" fill="currentColor" xmlns="http://www.w3.org/2000/svg">
<g clip-path="url(#clip0_608_111761)">
<path d="M9.02502 12.9151C9.06389 12.8766 9.08904 12.8264 9.09663 12.7722C9.10422 12.718 9.09382 12.6628 9.06702 12.6151C8.79353 12.1201 8.65007 11.5637 8.65007 10.9981C8.65007 10.4325 8.79353 9.87619 9.06702 9.38113C9.09398 9.33346 9.10448 9.27824 9.09689 9.22401C9.08929 9.16977 9.06403 9.11956 9.02502 9.08113L7.46702 7.52813C7.44123 7.50239 7.41014 7.48261 7.37591 7.47015C7.34168 7.45769 7.30514 7.45287 7.26884 7.45601C7.23255 7.45915 7.19738 7.47019 7.1658 7.48835C7.13422 7.50651 7.10699 7.53134 7.08602 7.56113C6.37921 8.56862 6 9.76943 6 11.0001C6 12.2308 6.37921 13.4316 7.08602 14.4391C7.10687 14.4691 7.13408 14.4942 7.16571 14.5125C7.19733 14.5308 7.23261 14.542 7.26902 14.5451C7.30558 14.5483 7.34239 14.5435 7.37691 14.5311C7.41144 14.5186 7.44286 14.4989 7.46902 14.4731L9.02502 12.9151Z" />
<path d="M11.9999 12.8499C13.0216 12.8499 13.8499 12.0216 13.8499 10.9999C13.8499 9.97818 13.0216 9.1499 11.9999 9.1499C10.9782 9.1499 10.1499 9.97818 10.1499 10.9999C10.1499 12.0216 10.9782 12.8499 11.9999 12.8499Z" />
<path d="M10.085 8.02502C10.1236 8.06389 10.1738 8.08904 10.2279 8.09663C10.2821 8.10422 10.3373 8.09382 10.385 8.06702C10.8801 7.79353 11.4364 7.65007 12.002 7.65007C12.5676 7.65007 13.124 7.79353 13.619 8.06702C13.6667 8.09382 13.7219 8.10422 13.7761 8.09663C13.8303 8.08904 13.8805 8.06389 13.919 8.02502L15.476 6.46702C15.5018 6.44123 15.5216 6.41014 15.534 6.37591C15.5465 6.34168 15.5513 6.30514 15.5482 6.26884C15.545 6.23255 15.534 6.19738 15.5158 6.1658C15.4977 6.13422 15.4728 6.10699 15.443 6.08602C14.4355 5.37921 13.2347 5 12.004 5C10.7733 5 9.57253 5.37921 8.56503 6.08602C8.53525 6.10699 8.51041 6.13422 8.49225 6.1658C8.4741 6.19738 8.46306 6.23255 8.45992 6.26884C8.45677 6.30514 8.4616 6.34168 8.47406 6.37591C8.48651 6.41014 8.5063 6.44123 8.53203 6.46702L10.085 8.02502Z" />
<path d="M14.9751 9.08595C14.9359 9.12428 14.9106 9.17451 14.903 9.22879C14.8954 9.28306 14.906 9.33833 14.9331 9.38594C15.2085 9.88421 15.352 10.4446 15.3501 11.0139C15.3482 11.5832 15.2008 12.1426 14.9221 12.6389C14.8987 12.6806 14.8896 12.7287 14.8961 12.776C14.9026 12.8233 14.9244 12.8672 14.9581 12.9009L16.5321 14.4759C16.5581 14.502 16.5894 14.5219 16.624 14.5344C16.6586 14.5468 16.6955 14.5514 16.7321 14.5479C16.7684 14.5447 16.8035 14.5336 16.8351 14.5155C16.8667 14.4974 16.894 14.4726 16.9151 14.4429C17.6219 13.4352 18.001 12.2343 18.001 11.0034C18.001 9.77261 17.6219 8.57165 16.9151 7.56394C16.8937 7.53499 16.8662 7.51104 16.8346 7.49377C16.803 7.47651 16.768 7.46633 16.7321 7.46394C16.6955 7.46058 16.6587 7.46529 16.6241 7.47773C16.5895 7.49017 16.5581 7.51004 16.5321 7.53594L14.9751 9.08595Z" />
<path d="M13.9141 13.9749C13.8755 13.9362 13.8253 13.9111 13.7711 13.9035C13.717 13.896 13.6618 13.9063 13.6141 13.9329C13.1194 14.2064 12.5634 14.3499 11.9981 14.3499C11.4328 14.3499 10.8768 14.2064 10.3821 13.9329C10.3344 13.9061 10.2792 13.8957 10.225 13.9033C10.1708 13.9109 10.1206 13.936 10.0821 13.9749L8.52809 15.5329C8.50225 15.559 8.48241 15.5904 8.46997 15.6249C8.45754 15.6595 8.4528 15.6963 8.45609 15.7329C8.45932 15.7693 8.47048 15.8045 8.48879 15.8362C8.5071 15.8678 8.53213 15.895 8.56209 15.9159C9.56944 16.6221 10.7698 17.001 12.0001 17.001C13.2303 17.001 14.4307 16.6221 15.4381 15.9159C15.4669 15.8943 15.4907 15.8668 15.5079 15.8352C15.5252 15.8037 15.5355 15.7688 15.5381 15.7329C15.5418 15.6963 15.5373 15.6593 15.5248 15.6247C15.5124 15.5901 15.4923 15.5587 15.4661 15.5329L13.9141 13.9749Z" />
<path d="M21.5 -0.000120693H2.5C1.84926 -0.011369 1.22062 0.235927 0.751963 0.687529C0.283301 1.13913 0.0128771 1.75817 0 2.40888V19.5909C0.00364352 20.0398 0.133111 20.4786 0.373695 20.8576C0.614278 21.2366 0.956333 21.5406 1.361 21.7349C1.40274 21.7556 1.43786 21.7875 1.46242 21.8271C1.48698 21.8666 1.5 21.9123 1.5 21.9589V22.9999C1.5 23.2651 1.60536 23.5195 1.79289 23.707C1.98043 23.8945 2.23478 23.9999 2.5 23.9999C2.76522 23.9999 3.01957 23.8945 3.20711 23.707C3.39464 23.5195 3.5 23.2651 3.5 22.9999V22.2499C3.5 22.1836 3.52634 22.12 3.57322 22.0731C3.62011 22.0262 3.6837 21.9999 3.75 21.9999H20.25C20.3163 21.9999 20.3799 22.0262 20.4268 22.0731C20.4737 22.12 20.5 22.1836 20.5 22.2499V22.9999C20.5 23.2651 20.6054 23.5195 20.7929 23.707C20.9804 23.8945 21.2348 23.9999 21.5 23.9999C21.7652 23.9999 22.0196 23.8945 22.2071 23.707C22.3946 23.5195 22.5 23.2651 22.5 22.9999V21.9589C22.5 21.9123 22.513 21.8666 22.5376 21.8271C22.5621 21.7875 22.5973 21.7556 22.639 21.7349C23.0437 21.5406 23.3857 21.2366 23.6263 20.8576C23.8669 20.4786 23.9964 20.0398 24 19.5909V2.40888C23.9871 1.75817 23.7167 1.13913 23.248 0.687529C22.7794 0.235927 22.1507 -0.011369 21.5 -0.000120693ZM20 10.9999C20 12.5821 19.5308 14.1288 18.6518 15.4444C17.7727 16.76 16.5233 17.7854 15.0615 18.3909C13.5997 18.9964 11.9911 19.1548 10.4393 18.8462C8.88743 18.5375 7.46197 17.7756 6.34315 16.6567C5.22433 15.5379 4.4624 14.1124 4.15372 12.5606C3.84504 11.0088 4.00346 9.40022 4.60896 7.93841C5.21447 6.4766 6.23984 5.22717 7.55544 4.34812C8.87103 3.46907 10.4177 2.99988 12 2.99988C14.121 3.00226 16.1544 3.84588 17.6542 5.34566C19.154 6.84543 19.9976 8.87888 20 10.9999Z" />
</g>
<defs>
<clipPath id="clip0_608_111761">
<rect width="24" height="24" fill="white"/>
</clipPath>
</defs>
</svg>
