<svg width="24" height="24" viewBox="0 0 24 24" fill="currentColor" xmlns="http://www.w3.org/2000/svg">
<g clip-path="url(#clip0_1912_13905)">
<path d="M24 2C24 1.46956 23.7893 0.960856 23.4142 0.585783C23.0391 0.210711 22.5304 -3.13675e-06 22 -3.13675e-06H2C1.73534 -0.00542838 1.47245 0.0442176 1.228 0.145785C0.983551 0.247352 0.762882 0.398622 0.579997 0.589997C0.392637 0.773316 0.244583 0.99288 0.144865 1.2353C0.0451474 1.47771 -0.0041442 1.7379 -3.27981e-06 2V9.31C0.0186924 12.7404 1.20261 16.0627 3.35756 18.7319C5.51252 21.401 8.51057 23.2586 11.86 24C11.9263 24.0099 11.9937 24.0099 12.06 24C12.1263 24.0094 12.1937 24.0094 12.26 24C15.6047 23.2292 18.5883 21.3447 20.7214 18.6556C22.8545 15.9665 24.0106 12.6324 24 9.2V2ZM16.1 10.51L8.9 18.4C8.85467 18.4481 8.79427 18.4793 8.7288 18.4884C8.66333 18.4975 8.59672 18.4839 8.54 18.45C8.48261 18.4147 8.43989 18.3598 8.41969 18.2955C8.39948 18.2312 8.40314 18.1618 8.43 18.1L10.67 12.33C10.6869 12.294 10.6957 12.2548 10.6957 12.215C10.6957 12.1752 10.6869 12.136 10.67 12.1C10.6462 12.0663 10.6148 12.0388 10.5783 12.0197C10.5418 12.0005 10.5012 11.9904 10.46 11.99H8.32C8.21916 11.9927 8.11948 11.9681 8.03147 11.9188C7.94346 11.8695 7.8704 11.7974 7.82 11.71C7.76809 11.6222 7.74071 11.522 7.74071 11.42C7.74071 11.318 7.76809 11.2178 7.82 11.13L11.74 4.29C11.7894 4.2003 11.8617 4.12529 11.9496 4.0726C12.0374 4.0199 12.1376 3.9914 12.24 3.99H15.13C15.2322 3.99241 15.332 4.02132 15.4196 4.07391C15.5073 4.1265 15.5798 4.20096 15.63 4.29C15.6819 4.37783 15.7093 4.47798 15.7093 4.58C15.7093 4.68202 15.6819 4.78217 15.63 4.87L13.23 9.12C13.2106 9.15882 13.2005 9.20161 13.2005 9.245C13.2005 9.28838 13.2106 9.33117 13.23 9.37C13.2529 9.40759 13.2852 9.43848 13.3239 9.45955C13.3625 9.48062 13.406 9.49113 13.45 9.49H15.71C15.8211 9.49239 15.9292 9.52665 16.0213 9.5887C16.1135 9.65075 16.186 9.73797 16.23 9.84C16.2721 9.94461 16.2822 10.0594 16.2591 10.1697C16.2359 10.2801 16.1806 10.3811 16.1 10.46V10.51Z"/>
</g>
<defs>
<clipPath id="clip0_1912_13905">
<rect width="24" height="24" fill="white"/>
</clipPath>
</defs>
</svg>
