<svg width="48" height="48" viewBox="0 0 48 48" fill="none" xmlns="http://www.w3.org/2000/svg">
<circle cx="24" cy="24" r="24" fill="#FBEBEB"/>
<path d="M34.1777 31.3199L25.622 14.981C25.4669 14.6851 25.2339 14.4372 24.948 14.2643C24.6622 14.0914 24.3345 14 24.0005 14C23.6664 14 23.3387 14.0914 23.0529 14.2643C22.7671 14.4372 22.534 14.6851 22.3789 14.981L13.8223 31.3199C13.6761 31.5989 13.6044 31.9109 13.6142 32.2258C13.6239 32.5406 13.7147 32.8477 13.8778 33.1172C14.0409 33.3867 14.2707 33.6095 14.5452 33.7642C14.8196 33.9188 15.1293 34.0001 15.4443 34H32.5557C32.8707 34.0001 33.1804 33.9188 33.4549 33.7642C33.7293 33.6095 33.9592 33.3867 34.1222 33.1172C34.2853 32.8477 34.3761 32.5406 34.3859 32.2258C34.3956 31.9109 34.3239 31.5989 34.1777 31.3199ZM23.0847 20.7229C23.0847 20.4802 23.1811 20.2473 23.3528 20.0757C23.5244 19.904 23.7572 19.8076 24 19.8076C24.2428 19.8076 24.4756 19.904 24.6473 20.0757C24.8189 20.2473 24.9154 20.4802 24.9154 20.7229V26.215C24.9154 26.4578 24.8189 26.6906 24.6473 26.8622C24.4756 27.0339 24.2428 27.1303 24 27.1303C23.7572 27.1303 23.5244 27.0339 23.3528 26.8622C23.1811 26.6906 23.0847 26.4578 23.0847 26.215V20.7229ZM24.0458 31.2585H24.0201C23.6592 31.2574 23.3126 31.1167 23.053 30.8659C22.7933 30.6152 22.6407 30.2737 22.627 29.913C22.6204 29.7336 22.6496 29.5547 22.7129 29.3867C22.7763 29.2187 22.8725 29.065 22.9959 28.9346C23.1193 28.8043 23.2674 28.6998 23.4316 28.6273C23.5959 28.5548 23.7729 28.5158 23.9524 28.5125H23.978C24.3389 28.5129 24.6857 28.6529 24.9457 28.9032C25.2057 29.1535 25.3588 29.4947 25.373 29.8553C25.3801 30.0351 25.3512 30.2145 25.288 30.383C25.2247 30.5515 25.1285 30.7056 25.0048 30.8363C24.8812 30.9671 24.7326 31.0718 24.5679 31.1443C24.4032 31.2168 24.2257 31.2556 24.0458 31.2585Z" fill="#D32D27"/>
</svg>
