<svg width="16" height="13" viewBox="0 0 16 13" fill="none" xmlns="http://www.w3.org/2000/svg">
<path d="M2.68991 12.1218L14.0036 0.808122L13.1955 0L1.88179 11.3137L2.68991 12.1218Z" fill="#40526D"/>
<path d="M8.00033 1.11834C8.97456 1.11834 9.90722 1.29545 10.7682 1.61921L9.32742 3.05997C8.92069 2.8831 8.47189 2.78501 8.00033 2.78501C6.16033 2.78501 4.66699 4.27834 4.66699 6.11834C4.66699 6.58991 4.76508 7.03871 4.94195 7.44544L3.03433 9.35305C1.99097 8.50329 1.16874 7.39157 0.666992 6.11834C1.82033 3.19168 4.66699 1.11834 8.00033 1.11834Z" fill="#40526D"/>
<path d="M8.00033 4.11834C8.08603 4.11834 8.17045 4.1237 8.25328 4.1341L6.01608 6.3713C6.00568 6.28847 6.00033 6.20405 6.00033 6.11834C6.00033 5.01168 6.89366 4.11834 8.00033 4.11834Z" fill="#40526D"/>
<path d="M9.95008 5.66979L7.55177 8.0681C7.69592 8.10098 7.84605 8.11834 8.00033 8.11834C9.10699 8.11834 10.0003 7.22501 10.0003 6.11834C10.0003 5.96406 9.98296 5.81393 9.95008 5.66979Z" fill="#40526D"/>
<path d="M8.00033 9.45167C7.46727 9.45167 6.96331 9.32634 6.51632 9.10355L5.06684 10.553C5.97334 10.9177 6.96328 11.1183 8.00033 11.1183C11.3337 11.1183 14.1803 9.04501 15.3337 6.11834C14.8116 4.79349 13.9425 3.64351 12.8383 2.78156L10.9855 4.63434C11.2083 5.08132 11.3337 5.58528 11.3337 6.11834C11.3337 7.95834 9.84033 9.45167 8.00033 9.45167Z" fill="#40526D"/>
</svg>
