<svg width="12" height="8" viewBox="0 0 12 8" fill="none" xmlns="http://www.w3.org/2000/svg">
<path d="M6.00027 0.249998C6.16381 0.249795 6.32552 0.284478 6.47459 0.35173C6.62367 0.418982 6.75669 0.517258 6.86477 0.639998L11.7703 6.216C11.9253 6.40077 12.0019 6.63887 11.9837 6.87939C11.9655 7.11991 11.8539 7.34375 11.6727 7.50305C11.4916 7.66235 11.2554 7.74447 11.0145 7.73185C10.7736 7.71922 10.5472 7.61286 10.3838 7.4355L6.09427 2.5595C6.08253 2.54611 6.06808 2.53539 6.05187 2.52804C6.03566 2.52069 6.01806 2.51689 6.00027 2.51689C5.98247 2.51689 5.96487 2.52069 5.94866 2.52804C5.93245 2.53539 5.918 2.54611 5.90627 2.5595L1.61677 7.4355C1.53765 7.52979 1.44048 7.60731 1.33098 7.6635C1.22147 7.7197 1.10184 7.75344 0.979103 7.76274C0.856371 7.77204 0.733018 7.75671 0.616295 7.71766C0.499572 7.6786 0.391832 7.61661 0.299411 7.53532C0.206989 7.45403 0.131751 7.35508 0.0781164 7.2443C0.0244818 7.13352 -0.00646591 7.01313 -0.012908 6.89021C-0.0193501 6.7673 -0.00115585 6.64434 0.0406046 6.52855C0.082365 6.41277 0.146848 6.3065 0.230266 6.216L5.13427 0.641998C5.24254 0.518955 5.37576 0.420363 5.52507 0.352776C5.67438 0.285189 5.83637 0.250153 6.00027 0.249998Z" fill="#007AFF"/>
</svg>
