<svg width="22" height="21" viewBox="0 0 22 21" fill="none" xmlns="http://www.w3.org/2000/svg">
<path d="M21.5124 8.65363C20.3275 7.35333 18.9708 6.22065 17.4798 5.28686L21.2311 1.53558C21.3152 1.45245 21.381 1.35275 21.4245 1.24281C21.468 1.13287 21.4882 1.01509 21.4838 0.896937C21.4794 0.778784 21.4505 0.662836 21.3989 0.556445C21.3473 0.450055 21.2742 0.355543 21.1842 0.278904C21.1076 0.191303 21.0132 0.121095 20.9072 0.0729909C20.8013 0.024887 20.6863 0 20.5699 0C20.4536 0 20.3386 0.024887 20.2326 0.0729909C20.1267 0.121095 20.0322 0.191303 19.9556 0.278904L1.64004 18.557C1.50979 18.6253 1.39742 18.7233 1.31201 18.843C1.22661 18.9627 1.17056 19.1009 1.1484 19.2463C1.12624 19.3917 1.13859 19.5402 1.18444 19.68C1.2303 19.8197 1.30838 19.9467 1.41238 20.0507C1.51637 20.1547 1.64337 20.2328 1.78311 20.2786C1.92286 20.3245 2.07143 20.3369 2.21682 20.3147C2.36222 20.2925 2.50036 20.2365 2.6201 20.1511C2.73983 20.0657 2.8378 19.9533 2.9061 19.8231L6.79805 15.9311C8.15734 16.5376 9.63314 16.8386 11.1214 16.8127C15.1071 16.8127 19.0835 13.9992 21.4374 11.3733C21.7852 11.0102 21.9856 10.5306 21.9995 10.0279C22.0133 9.52526 21.8397 9.0354 21.5124 8.65363ZM15.0602 11.2045C14.8522 11.8652 14.4879 12.466 13.9981 12.9558C13.5083 13.4456 12.9075 13.81 12.2468 14.018C11.2893 14.3228 10.2526 14.2593 9.33954 13.8398C9.30502 13.8244 9.27494 13.8005 9.25207 13.7704C9.2292 13.7404 9.21427 13.705 9.20867 13.6676C9.20306 13.6302 9.20696 13.5921 9.21999 13.5566C9.23303 13.5211 9.25479 13.4895 9.28327 13.4646L14.4882 8.25037C14.514 8.22202 14.5464 8.20044 14.5825 8.18754C14.6187 8.17463 14.6574 8.17079 14.6954 8.17634C14.7333 8.1819 14.7693 8.19668 14.8002 8.2194C14.8312 8.24211 14.856 8.27207 14.8727 8.30663C15.2929 9.21578 15.3597 10.2488 15.0602 11.2045Z" fill="#40526D"/>
<path d="M6.90144 11.3264C6.93201 11.2985 6.9543 11.2628 6.96588 11.2231C6.97746 11.1834 6.97788 11.1412 6.96709 11.1013C6.86121 10.761 6.80436 10.4073 6.79828 10.051C6.79457 9.49395 6.90093 8.9417 7.11124 8.42591C7.32154 7.91011 7.63167 7.44094 8.02379 7.04533C8.41592 6.64972 8.88233 6.33546 9.39624 6.12059C9.91015 5.90573 10.4614 5.79449 11.0185 5.79327C11.3874 5.79573 11.754 5.85261 12.1063 5.96207C12.1456 5.97213 12.1867 5.97225 12.226 5.96242C12.2653 5.9526 12.3015 5.93314 12.3314 5.9058L14.1602 4.07706C14.1871 4.04703 14.2062 4.01079 14.2157 3.97157C14.2252 3.93234 14.2249 3.89138 14.2146 3.85234C14.2044 3.8133 14.1847 3.7774 14.1571 3.74788C14.1296 3.71835 14.0952 3.69612 14.057 3.68317C13.0747 3.36994 12.0495 3.21174 11.0185 3.21426C6.98584 3.21426 2.95322 6.02772 0.52427 8.65361C0.186861 9.02615 0 9.51083 0 10.0135C0 10.5161 0.186861 11.0007 0.52427 11.3733C1.49312 12.4231 2.5715 13.3663 3.74099 14.1867C3.7846 14.2226 3.83929 14.2421 3.89573 14.2421C3.95217 14.2421 4.00685 14.2226 4.05047 14.1867L6.90144 11.3264Z" fill="#40526D"/>
</svg>
