<svg width="40" height="48" viewBox="0 0 28 20" fill="none" xmlns="http://www.w3.org/2000/svg">
    <path d="M11.5 11.0098V14.4998C11.5 14.765 11.3946 15.0194 11.2071 15.2069C11.0196 15.3945 10.7652 15.4998 10.5 15.4998H3.5C3.23478 15.4998 2.98043 15.3945 2.79289 15.2069C2.60536 15.0194 2.5 14.765 2.5 14.4998V3.49983C2.5 3.23462 2.60536 2.98026 2.79289 2.79273C2.98043 2.60519 3.23478 2.49983 3.5 2.49983H8.76C8.82416 2.49909 8.88555 2.47362 8.93138 2.42872C8.97721 2.38382 9.00394 2.32296 9.006 2.25883C9.02055 1.5878 9.24391 0.937999 9.645 0.399834C9.67451 0.363132 9.69286 0.318732 9.69788 0.271907C9.7029 0.225082 9.69437 0.177801 9.67331 0.13568C9.65225 0.0935593 9.61954 0.0583685 9.57907 0.0342881C9.5386 0.0102076 9.49207 -0.00175062 9.445 -0.000165797H3C2.33696 -0.000165797 1.70107 0.263226 1.23223 0.732067C0.763392 1.20091 0.5 1.83679 0.5 2.49983V17.4998C0.5 17.8281 0.564664 18.1532 0.690301 18.4565C0.815938 18.7599 1.00009 19.0355 1.23223 19.2676C1.46438 19.4997 1.73998 19.6839 2.04329 19.8095C2.34661 19.9352 2.6717 19.9998 3 19.9998H11C11.3283 19.9998 11.6534 19.9352 11.9567 19.8095C12.26 19.6839 12.5356 19.4997 12.7678 19.2676C12.9999 19.0355 13.1841 18.7599 13.3097 18.4565C13.4353 18.1532 13.5 17.8281 13.5 17.4998V10.9998C13.5004 10.967 13.4942 10.9344 13.4819 10.9039C13.4695 10.8735 13.4512 10.8458 13.428 10.8225C13.4048 10.7992 13.3772 10.7808 13.3468 10.7683C13.3164 10.7559 13.2839 10.7496 13.251 10.7498C12.868 10.7498 12.138 10.7628 11.751 10.7568C11.7177 10.7563 11.6847 10.7625 11.6538 10.775C11.623 10.7876 11.595 10.8062 11.5716 10.8298C11.5481 10.8535 11.5297 10.8816 11.5174 10.9125C11.5051 10.9435 11.4992 10.9766 11.5 11.0098V11.0098Z" fill="#9B7C09"/>

    <g transform="translate(10, -4)">
       <path d="M9 4.75V3.5C9 2.57174 8.63125 1.6815 7.97487 1.02513C7.3185 0.368749 6.42826 0 5.5 0C4.57174 0 3.6815 0.368749 3.02513 1.02513C2.36875 1.6815 2 2.57174 2 3.5V4.75C1.60218 4.75 1.22064 4.90804 0.93934 5.18934C0.658035 5.47064 0.5 5.85218 0.5 6.25V11.75C0.5 12.1478 0.658035 12.5294 0.93934 12.8107C1.22064 13.092 1.60218 13.25 2 13.25H9C9.39782 13.25 9.77935 13.092 10.0607 12.8107C10.342 12.5294 10.5 12.1478 10.5 11.75V6.25C10.5 5.85218 10.342 5.47064 10.0607 5.18934C9.77935 4.90804 9.39782 4.75 9 4.75V4.75ZM4 3.5C4 3.10218 4.15804 2.72064 4.43934 2.43934C4.72064 2.15804 5.10218 2 5.5 2C5.89782 2 6.27935 2.15804 6.56066 2.43934C6.84196 2.72064 7 3.10218 7 3.5V4.75H4V3.5ZM6.5 9.5C6.5 9.69778 6.44135 9.89112 6.33147 10.0556C6.22159 10.22 6.06541 10.3482 5.88268 10.4239C5.69996 10.4996 5.49889 10.5194 5.30491 10.4808C5.11093 10.4422 4.93274 10.347 4.79289 10.2071C4.65304 10.0673 4.5578 9.88907 4.51921 9.69509C4.48063 9.50111 4.50043 9.30004 4.57612 9.11732C4.65181 8.93459 4.77998 8.77841 4.94443 8.66853C5.10888 8.55865 5.30222 8.5 5.5 8.5C5.76522 8.5 6.01957 8.60536 6.20711 8.79289C6.39464 8.98043 6.5 9.23478 6.5 9.5Z" fill="#9B7C09"/>
    </g>
</svg>
