<svg width="22" height="14" viewBox="0 0 22 14" fill="none" xmlns="http://www.w3.org/2000/svg">
<path d="M21.486 5.4271C19.0664 2.76007 15.0705 -0.0719263 11.0103 0.001394C6.95023 0.0747143 2.95427 2.76007 0.534705 5.4271C0.190784 5.80233 0 6.29285 0 6.80185C0 7.31085 0.190784 7.80137 0.534705 8.17661C2.14775 9.91796 6.18953 13.5656 11.0103 13.5656C15.8312 13.5656 19.8638 9.89963 21.486 8.13078C21.8171 7.75833 22 7.2773 22 6.77894C22 6.28058 21.8171 5.79955 21.486 5.4271ZM6.79443 6.78352C6.79443 5.94969 7.04168 5.13459 7.50493 4.44128C7.96819 3.74798 8.62662 3.20761 9.39698 2.88852C10.1673 2.56943 11.015 2.48594 11.8328 2.64861C12.6506 2.81128 13.4018 3.21281 13.9914 3.80242C14.5811 4.39202 14.9826 5.14323 15.1453 5.96104C15.3079 6.77884 15.2244 7.62652 14.9053 8.39688C14.5862 9.16724 14.0459 9.82568 13.3526 10.2889C12.6593 10.7522 11.8442 10.9994 11.0103 10.9994C9.89221 10.9994 8.81988 10.5553 8.02924 9.76462C7.2386 8.97399 6.79443 7.90165 6.79443 6.78352Z" fill="#40526D"/>
<path d="M11.0106 8.6165C12.0229 8.6165 12.8436 7.79583 12.8436 6.78349C12.8436 5.77115 12.0229 4.95048 11.0106 4.95048C9.99823 4.95048 9.17757 5.77115 9.17757 6.78349C9.17757 7.79583 9.99823 8.6165 11.0106 8.6165Z" fill="#40526D"/>
</svg>
