<svg width="48" height="48" viewBox="0 0 48 48" fill="none" xmlns="http://www.w3.org/2000/svg">
<circle cx="24" cy="24" r="24" fill="#FAF4DE"/>
<g clip-path="url(#clip0_2650_27682)">
<path d="M32.4852 15.5346C30.2335 13.2843 27.1801 12.0205 23.9967 12.0215C20.8132 12.0224 17.7606 13.2879 15.5102 15.5396C13.2598 17.7913 11.9961 20.8447 11.9971 24.0282C11.998 27.2116 13.2635 30.2643 15.5152 32.5146C17.7334 34.6854 20.6989 35.9238 23.802 35.9754C26.9052 36.0269 29.9102 34.8876 32.1992 32.7916C33.2023 31.8534 34.038 30.7509 34.6702 29.5316C35.2744 28.3585 35.6799 27.0934 35.8702 25.7876C35.956 25.2039 35.9994 24.6147 36.0002 24.0246C36.0045 22.4474 35.6961 20.885 35.0928 19.4277C34.4894 17.9704 33.6031 16.6472 32.4852 15.5346ZM17.2922 17.2926C18.8929 15.7251 20.9904 14.7652 23.223 14.5785C25.4556 14.3917 27.6833 14.9898 29.5222 16.2696C29.553 16.2921 29.5786 16.321 29.5971 16.3543C29.6157 16.3876 29.6269 16.4245 29.6298 16.4625C29.6327 16.5005 29.6274 16.5387 29.6142 16.5744C29.601 16.6102 29.5802 16.6427 29.5532 16.6696L16.6672 29.5616C16.6402 29.5884 16.6077 29.6091 16.572 29.6222C16.5362 29.6354 16.4981 29.6406 16.4601 29.6377C16.4222 29.6347 16.3853 29.6237 16.352 29.6052C16.3187 29.5867 16.2898 29.5613 16.2672 29.5306C14.962 27.6994 14.3487 25.4646 14.5364 23.2237C14.7241 20.9828 15.7006 18.8812 17.2922 17.2926ZM30.7492 30.7566C29.159 32.3429 27.059 33.3157 24.8206 33.5029C22.5823 33.6901 20.3499 33.0797 18.5182 31.7796C18.4873 31.7572 18.4617 31.7284 18.443 31.6952C18.4244 31.6619 18.4131 31.625 18.4101 31.587C18.407 31.549 18.4123 31.5108 18.4254 31.475C18.4386 31.4392 18.4593 31.4066 18.4862 31.3796L31.3732 18.4866C31.4002 18.4598 31.4327 18.4391 31.4685 18.426C31.5042 18.4129 31.5423 18.4076 31.5803 18.4106C31.6183 18.4135 31.6551 18.4246 31.6884 18.4431C31.7217 18.4615 31.7506 18.487 31.7732 18.5176C33.0789 20.3487 33.6928 22.5836 33.5054 24.8247C33.3181 27.0658 32.3418 29.1678 30.7502 30.7566H30.7492Z" fill="#9B7C09"/>
</g>
<defs>
<clipPath id="clip0_2650_27682">
<rect width="24" height="24" fill="white" transform="translate(12 12)"/>
</clipPath>
</defs>
</svg>
