<svg width="16" height="16" viewBox="0 0 16 16" fill="none" xmlns="http://www.w3.org/2000/svg">
<path d="M9.53336 8.1192C9.51784 8.10372 9.50552 8.08533 9.49712 8.06508C9.48872 8.04483 9.48439 8.02312 9.48439 8.0012C9.48439 7.97928 9.48872 7.95757 9.49712 7.93732C9.50552 7.91707 9.51784 7.89868 9.53336 7.8832L15.7087 1.70853C15.8962 1.52076 16.0014 1.26619 16.0012 1.00083C16.0011 0.735462 15.8955 0.481041 15.7077 0.293533C15.5199 0.106025 15.2653 0.000789279 15 0.000976813C14.7346 0.00116435 14.4802 0.10676 14.2927 0.294533L8.11802 6.46653C8.10254 6.48205 8.08415 6.49437 8.0639 6.50277C8.04365 6.51117 8.02195 6.5155 8.00002 6.5155C7.9781 6.5155 7.95639 6.51117 7.93615 6.50277C7.9159 6.49437 7.89751 6.48205 7.88202 6.46653L1.70736 0.294533C1.61451 0.201645 1.50428 0.127953 1.38296 0.0776653C1.26163 0.0273778 1.13159 0.00147916 1.00026 0.0014482C0.73502 0.00138569 0.48062 0.106692 0.293024 0.2942C0.105427 0.481708 1.50479e-06 0.736058 -6.10073e-05 1.0013C-0.000123519 1.26654 0.105182 1.52094 0.29269 1.70853L6.46669 7.8832C6.48221 7.89868 6.49453 7.91707 6.50293 7.93732C6.51133 7.95757 6.51566 7.97928 6.51566 8.0012C6.51566 8.02312 6.51133 8.04483 6.50293 8.06508C6.49453 8.08533 6.48221 8.10372 6.46669 8.1192L0.29269 14.2945C0.199846 14.3874 0.126206 14.4977 0.0759757 14.619C0.0257453 14.7404 -9.19602e-05 14.8704 -6.10073e-05 15.0018C1.50479e-06 15.267 0.105427 15.5214 0.293024 15.7089C0.385912 15.8017 0.496178 15.8754 0.617526 15.9256C0.738873 15.9758 0.868926 16.0016 1.00026 16.0016C1.2655 16.0016 1.51985 15.8961 1.70736 15.7085L7.88202 9.5332C7.89751 9.51768 7.9159 9.50536 7.93615 9.49696C7.95639 9.48856 7.9781 9.48424 8.00002 9.48424C8.02195 9.48424 8.04365 9.48856 8.0639 9.49696C8.08415 9.50536 8.10254 9.51768 8.11802 9.5332L14.2927 15.7085C14.4802 15.8961 14.7346 16.0016 14.9998 16.0016C15.265 16.0017 15.5194 15.8964 15.707 15.7089C15.8946 15.5214 16 15.267 16.0001 15.0018C16.0002 14.7365 15.8949 14.4821 15.7074 14.2945L9.53336 8.1192Z" fill="#40526D"/>
</svg>
