<svg width="21" height="24" viewBox="0 0 21 24" fill="none" xmlns="http://www.w3.org/2000/svg">
    <path fill-rule="evenodd" clip-rule="evenodd" d="M3.18429 6.81933L10.5 3.68402L17.8157 6.81933L17.7807 12.2337C17.7961 14.2068 16.9075 15.716 15.6064 16.9557C14.3289 18.173 12.6059 19.1759 10.8677 20.1537L10.5 20.3605L10.1323 20.1537C8.39407 19.1759 6.67106 18.173 5.39358 16.9557C4.09248 15.716 3.20387 14.2068 3.21931 12.2337L3.18429 6.81933ZM6.63578 12.2997C7.26857 12.2997 7.78154 11.7826 7.78154 11.1448C7.78154 10.507 7.26857 9.98996 6.63578 9.98996C6.00298 9.98996 5.49001 10.507 5.49001 11.1448C5.49001 11.7826 6.00298 12.2997 6.63578 12.2997ZM10.4795 12.2997C11.1123 12.2997 11.6253 11.7826 11.6253 11.1448C11.6253 10.507 11.1123 9.98996 10.4795 9.98996C9.84673 9.98996 9.33376 10.507 9.33376 11.1448C9.33376 11.7826 9.84673 12.2997 10.4795 12.2997ZM14.3174 12.2997C14.9502 12.2997 15.4632 11.7826 15.4632 11.1448C15.4632 10.507 14.9502 9.98996 14.3174 9.98996C13.6846 9.98996 13.1716 10.507 13.1716 11.1448C13.1716 11.7826 13.6846 12.2997 14.3174 12.2997Z" fill="#9B7C09"/>
    <path fill-rule="evenodd" clip-rule="evenodd" d="M0 4.5L0.0509248 12.375C0.00311136 17.8528 4.9 20.85 10.5 24C16.1 20.85 20.9969 17.8528 20.9491 12.375L21 4.5L10.5 0L0 4.5ZM4.19228 17.9745C5.79868 19.5051 7.98532 20.8476 10.5 22.277C13.0147 20.8476 15.2013 19.5051 16.8077 17.9745C18.519 16.3439 19.4684 14.5986 19.4491 12.3881L19.449 12.3767L19.4936 5.48635L10.5 1.63195L1.50641 5.48635L1.55097 12.3767L1.55087 12.3881C1.53157 14.5986 2.48102 16.3439 4.19228 17.9745Z" fill="#9B7C09"/>
</svg>