<svg width="17" height="16" viewBox="0 0 17 16" fill="none" xmlns="http://www.w3.org/2000/svg">
<path d="M8.5 0C6.91775 0 5.37104 0.469192 4.05544 1.34824C2.73985 2.22729 1.71447 3.47672 1.10897 4.93853C0.503466 6.40034 0.34504 8.00887 0.653721 9.56072C0.962403 11.1126 1.72433 12.538 2.84315 13.6569C3.96197 14.7757 5.38743 15.5376 6.93928 15.8463C8.49113 16.155 10.0997 15.9965 11.5615 15.391C13.0233 14.7855 14.2727 13.7602 15.1518 12.4446C16.0308 11.129 16.5 9.58225 16.5 8C16.4977 5.87897 15.6541 3.84547 14.1543 2.34568C12.6545 0.845885 10.621 0.00229405 8.5 0ZM8.5 12.6667C8.30222 12.6667 8.10888 12.608 7.94443 12.4981C7.77998 12.3883 7.65181 12.2321 7.57612 12.0493C7.50044 11.8666 7.48063 11.6656 7.51922 11.4716C7.5578 11.2776 7.65304 11.0994 7.7929 10.9596C7.93275 10.8197 8.11093 10.7245 8.30491 10.6859C8.49889 10.6473 8.69996 10.6671 8.88269 10.7428C9.06541 10.8185 9.22159 10.9466 9.33147 11.1111C9.44136 11.2755 9.5 11.4689 9.5 11.6667C9.5 11.9319 9.39465 12.1862 9.20711 12.3738C9.01957 12.5613 8.76522 12.6667 8.5 12.6667ZM9.56667 8.61333C9.44773 8.66524 9.34653 8.75074 9.27548 8.85933C9.20442 8.96792 9.16661 9.09489 9.16667 9.22467C9.16667 9.40148 9.09643 9.57105 8.97141 9.69607C8.84638 9.82109 8.67682 9.89133 8.5 9.89133C8.32319 9.89133 8.15362 9.82109 8.0286 9.69607C7.90358 9.57105 7.83334 9.40148 7.83334 9.22467C7.83328 8.83546 7.94678 8.45469 8.15993 8.12904C8.37309 7.8034 8.67662 7.54702 9.03334 7.39133C9.25368 7.29517 9.44392 7.14121 9.58393 6.94577C9.72393 6.75032 9.80849 6.52066 9.82864 6.28109C9.8488 6.04152 9.8038 5.80096 9.69842 5.58487C9.59304 5.36878 9.43119 5.18521 9.23001 5.05358C9.02883 4.92195 8.79581 4.84716 8.5556 4.83714C8.31539 4.82711 8.07694 4.88222 7.8655 4.99663C7.65405 5.11104 7.47747 5.28049 7.35445 5.48705C7.23143 5.69361 7.16655 5.92958 7.16667 6.17C7.16667 6.34681 7.09643 6.51638 6.97141 6.6414C6.84638 6.76643 6.67682 6.83667 6.5 6.83667C6.32319 6.83667 6.15362 6.76643 6.0286 6.6414C5.90358 6.51638 5.83334 6.34681 5.83334 6.17C5.83333 5.68923 5.9633 5.21739 6.20949 4.80443C6.45568 4.39148 6.80894 4.05276 7.23187 3.82412C7.6548 3.59549 8.13168 3.48545 8.61203 3.50565C9.09238 3.52584 9.55833 3.67553 9.96058 3.93885C10.3628 4.20218 10.6864 4.56936 10.8971 5.00153C11.1077 5.43369 11.1976 5.91477 11.1573 6.39385C11.1169 6.87293 10.9478 7.33218 10.6678 7.72301C10.3878 8.11383 10.0073 8.42102 9.56667 8.61333Z" fill="#40526D"/>
</svg>
