<svg width="120" height="120" viewBox="0 0 120 120" fill="none" xmlns="http://www.w3.org/2000/svg">
    <path d="M60 120C93.1371 120 120 93.1371 120 60C120 26.8629 93.1371 0 60 0C26.8629 0 0 26.8629 0 60C0 93.1371 26.8629 120 60 120Z" fill="#DAECF8"/>
    <rect x="102.505" y="73.5056" width="3.99999" height="3.99999" transform="rotate(-45 102.505 73.5056)" stroke="#B5D9F1" stroke-linecap="round" stroke-linejoin="round"/>
    <path d="M13.5878 68.9755L16.703 72.0907" stroke="#B5D9F1" stroke-linecap="round" stroke-linejoin="round"/>
    <path d="M16.5929 68.9755L13.4777 72.0907" stroke="#B5D9F1" stroke-linecap="round" stroke-linejoin="round"/>
    <rect x="27.4512" y="83.5056" width="4.00001" height="4" stroke="#B5D9F1" stroke-linecap="round" stroke-linejoin="round"/>
    <path fill-rule="evenodd" clip-rule="evenodd" d="M22.5 100.839C22.5 100.563 22.7239 100.339 23 100.339H23.1871C23.4633 100.339 23.6871 100.563 23.6871 100.839C23.6871 101.115 23.4633 101.339 23.1871 101.339H23C22.7239 101.339 22.5 101.115 22.5 100.839ZM24.9395 100.839C24.9395 100.563 25.1634 100.339 25.4395 100.339H87.0373C87.3134 100.339 87.5373 100.563 87.5373 100.839C87.5373 101.115 87.3134 101.339 87.0373 101.339H25.4395C25.1634 101.339 24.9395 101.115 24.9395 100.839ZM88.919 100.839C88.919 100.563 89.1428 100.339 89.419 100.339H106.431C106.707 100.339 106.931 100.563 106.931 100.839C106.931 101.115 106.707 101.339 106.431 101.339H89.419C89.1428 101.339 88.919 101.115 88.919 100.839ZM108.313 100.839C108.313 100.563 108.537 100.339 108.813 100.339H109C109.276 100.339 109.5 100.563 109.5 100.839C109.5 101.115 109.276 101.339 109 101.339H108.813C108.537 101.339 108.313 101.115 108.313 100.839Z" fill="#B5D9F1"/>
    <g filter="url(#filter0_d_3865_43894)">
        <rect width="19" height="19" rx="4.19048" transform="matrix(0.965566 0.26016 -0.257484 0.966283 43.5264 41.392)" fill="#B5D9F1"/>
        <path fill-rule="evenodd" clip-rule="evenodd" d="M49.4765 53.27L47.1194 49.1873C47.0152 49.0068 46.987 48.7924 47.0409 48.5911C47.0948 48.3898 47.2265 48.2182 47.407 48.114C47.5874 48.0098 47.8019 47.9816 48.0032 48.0355C48.2045 48.0894 48.3761 48.2211 48.4803 48.4016L50.8374 52.4842L54.9201 50.1271C55.1005 50.0229 55.315 49.9947 55.5163 50.0486C55.7176 50.1026 55.8892 50.2342 55.9934 50.4147C56.0975 50.5952 56.1258 50.8096 56.0718 51.0109C56.0179 51.2122 55.8862 51.3838 55.7058 51.488L51.6231 53.8451L53.9803 57.9278C54.0844 58.1083 54.1127 58.3228 54.0587 58.524C54.0048 58.7253 53.8731 58.8969 53.6927 59.0011C53.5122 59.1053 53.2977 59.1336 53.0965 59.0796C52.8952 59.0257 52.7236 58.894 52.6194 58.7135L50.2622 54.6308L46.1795 56.988C45.9991 57.0922 45.7846 57.1204 45.5833 57.0665C45.382 57.0126 45.2104 56.8809 45.1062 56.7004C45.002 56.5199 44.9738 56.3055 45.0277 56.1042C45.0817 55.9029 45.2133 55.7313 45.3938 55.6271L49.4765 53.27Z" fill="#3598DB"/>
    </g>
    <path d="M74.155 96.8575L74.1548 96.8574L51.3705 84.2853L51.3705 84.2853C49.9671 83.5108 48.9284 82.2082 48.4812 80.6653C48.034 79.1225 48.2142 77.4642 48.9828 76.0546L48.9828 76.0544L77.1439 24.4278L77.1439 24.4278C77.9128 23.0184 79.2077 21.9724 80.745 21.5216C82.2825 21.0707 83.9349 21.2526 85.3386 22.0267L85.3386 22.0268L108.123 34.5949C108.123 34.5949 108.123 34.5949 108.123 34.5949C108.818 34.9784 109.432 35.4959 109.928 36.1174C110.424 36.7389 110.793 37.4524 111.014 38.2171C111.235 38.9817 111.305 39.7826 111.218 40.574C111.132 41.3653 110.891 42.1318 110.509 42.8298L74.155 96.8575ZM74.155 96.8575C75.5586 97.6316 77.2111 97.8135 78.7485 97.3626C80.2859 96.9118 81.5807 95.8658 82.3496 94.4564L81.6306 94.0641L82.3496 94.4563L110.509 42.8304L74.155 96.8575Z" fill="#B5D9F1" stroke="#B5D9F1" stroke-width="1.66" stroke-linecap="round" stroke-linejoin="round"/>
    <path d="M80.7763 91.5075C80.1124 92.7244 78.9952 93.6263 77.6703 94.0148C76.3453 94.4033 74.9212 94.2467 73.7111 93.5793L50.9268 81.0072C49.7167 80.3394 48.8199 79.2155 48.4336 77.8828C48.0473 76.5501 48.2031 75.1177 48.8668 73.9005L77.0278 22.2739C77.6917 21.057 78.8089 20.1551 80.1338 19.7666C81.4588 19.3781 82.8829 19.5347 84.093 20.2021L106.877 32.7703C107.477 33.101 108.006 33.5473 108.434 34.0837C108.862 34.6201 109.181 35.2361 109.372 35.8965C109.563 36.5569 109.623 37.2487 109.548 37.9324C109.474 38.616 109.265 39.2782 108.936 39.8809L80.7763 91.5075Z" fill="white"/>
    <path fill-rule="evenodd" clip-rule="evenodd" d="M81.7453 20.5602C81.3001 20.5437 80.8511 20.5984 80.4152 20.7262C79.9789 20.8542 79.5704 21.0511 79.203 21.3064C79.1655 21.3324 79.1269 21.3555 79.0874 21.3758C79.0566 21.4078 79.0234 21.4381 78.9876 21.4665L78.9737 21.4776C78.9307 21.512 78.8858 21.5423 78.8394 21.5685C78.8068 21.6107 78.7704 21.6508 78.7302 21.6884C78.4037 21.9936 78.1244 22.3519 77.9057 22.7528L66.413 43.822C66.1485 44.3068 65.5411 44.4855 65.0562 44.221C64.5714 43.9565 64.3927 43.3491 64.6572 42.8643L76.15 21.795L76.15 21.795C76.4717 21.2053 76.883 20.6773 77.3643 20.2274C77.4239 20.1717 77.4884 20.1248 77.5564 20.0864C77.604 20.0246 77.6598 19.9675 77.7234 19.9166L77.744 19.9001C77.7969 19.8581 77.8528 19.8223 77.9107 19.7926C77.9559 19.7457 78.0062 19.7025 78.0617 19.664C78.6039 19.2872 79.2075 18.9962 79.8525 18.807C80.4968 18.6181 81.1609 18.5372 81.8194 18.5616C81.9008 18.5646 81.9795 18.5773 82.0546 18.5985C82.132 18.5888 82.2117 18.5882 82.2926 18.5974L82.3188 18.6005C82.3858 18.6084 82.4505 18.6228 82.5123 18.643C82.5773 18.642 82.6434 18.6474 82.7098 18.6596C83.3575 18.779 83.988 19.0022 84.5759 19.3265L84.576 19.3265L93.8745 24.4557C94.3581 24.7224 94.5338 25.3307 94.2671 25.8143C94.0003 26.2979 93.3921 26.4737 92.9085 26.2069L83.6101 21.0778C83.6101 21.0778 83.61 21.0778 83.61 21.0777C83.2119 20.8582 82.7854 20.7072 82.3474 20.6265C82.3027 20.6183 82.2592 20.6072 82.2172 20.5935C82.1729 20.5941 82.1281 20.5919 82.083 20.5865L82.0653 20.5844C82.0108 20.5782 81.9578 20.5677 81.9067 20.5533C81.854 20.5599 81.8001 20.5623 81.7453 20.5602ZM94.7327 26.0711C94.9995 25.5876 95.6077 25.4118 96.0913 25.6785L96.2145 25.7465C96.6981 26.0132 96.8739 26.6215 96.6071 27.1051C96.3403 27.5887 95.7321 27.7645 95.2485 27.4977L95.1253 27.4298C94.6417 27.163 94.466 26.5547 94.7327 26.0711ZM96.7032 27.1581C96.97 26.6745 97.5783 26.4988 98.0619 26.7655L107.36 31.8946C107.36 31.8946 107.36 31.8947 107.36 31.8947C107.652 32.0556 107.93 32.2395 108.191 32.4443C108.223 32.4691 108.253 32.4954 108.28 32.523C108.313 32.5447 108.345 32.5685 108.375 32.5945L108.386 32.603C108.411 32.6247 108.435 32.6473 108.458 32.6709C108.484 32.6904 108.51 32.7114 108.534 32.7338C108.78 32.9567 109.008 33.1994 109.216 33.4599C109.424 33.7208 109.61 33.9973 109.773 34.2868C109.793 34.3218 109.811 34.3576 109.826 34.3938C109.848 34.4263 109.868 34.4605 109.886 34.4963L109.892 34.508C109.908 34.5378 109.921 34.568 109.933 34.5984C109.95 34.6265 109.966 34.6557 109.98 34.686C110.122 34.9861 110.24 35.2979 110.333 35.6184C110.425 35.9391 110.492 36.266 110.533 36.5959C110.538 36.6358 110.54 36.6755 110.54 36.7148C110.548 36.7533 110.554 36.7926 110.557 36.8327L110.558 36.8459C110.561 36.8792 110.562 36.9123 110.562 36.9451C110.567 36.9775 110.57 37.0105 110.572 37.0439C110.588 37.3758 110.579 37.7093 110.542 38.0411C110.506 38.3729 110.443 38.7005 110.355 39.0207C110.345 39.0595 110.332 39.0972 110.317 39.1335C110.31 39.1721 110.3 39.2106 110.288 39.249L110.284 39.2616C110.274 39.2935 110.262 39.3245 110.249 39.3546C110.241 39.3864 110.232 39.4181 110.221 39.4496C110.11 39.7627 109.974 40.0671 109.814 40.3598M109.814 40.3605L98.3217 61.429C98.0573 61.9139 97.4498 62.0925 96.965 61.828C96.4801 61.5636 96.3015 60.9562 96.5659 60.4713L108.058 39.4021L108.059 39.4014C108.167 39.2023 108.26 38.9951 108.335 38.782C108.343 38.7606 108.351 38.7397 108.36 38.7191C108.365 38.6974 108.371 38.6757 108.378 38.6541L108.381 38.6455C108.389 38.6195 108.398 38.5941 108.409 38.5693C108.414 38.5429 108.42 38.5166 108.427 38.4902C108.487 38.2723 108.53 38.0494 108.554 37.8236C108.579 37.5977 108.586 37.3707 108.574 37.1447C108.573 37.1221 108.573 37.0995 108.573 37.0771C108.57 37.055 108.567 37.0326 108.565 37.01L108.564 37.001C108.562 36.9738 108.561 36.9468 108.561 36.9199C108.555 36.8936 108.551 36.8669 108.548 36.8398C108.52 36.6153 108.475 36.3928 108.412 36.1746C108.348 35.9565 108.268 35.7445 108.172 35.5404C108.162 35.5199 108.153 35.4993 108.145 35.4785C108.133 35.4593 108.122 35.4397 108.112 35.4195L108.108 35.4115C108.096 35.3873 108.084 35.3627 108.074 35.338C108.059 35.3158 108.045 35.2928 108.031 35.2691C107.92 35.0724 107.794 34.8845 107.652 34.7074C107.511 34.5306 107.357 34.3659 107.19 34.2147C107.173 34.1995 107.157 34.1839 107.142 34.1679C107.124 34.1546 107.106 34.1407 107.089 34.126L107.082 34.1202C107.062 34.1027 107.042 34.0845 107.023 34.0656C107.001 34.0509 106.979 34.0352 106.957 34.0184C106.78 33.8796 106.592 33.755 106.394 33.646L106.394 33.6459L97.0959 28.5167C96.6123 28.25 96.4365 27.6417 96.7032 27.1581M63.7306 46.6512C64.2155 46.9157 64.3941 47.5231 64.1296 48.0079L63.9774 48.287C63.7129 48.7718 63.1055 48.9505 62.6207 48.686C62.1358 48.4215 61.9572 47.8141 62.2216 47.3293L62.3739 47.0502C62.6383 46.5654 63.2458 46.3867 63.7306 46.6512ZM60.8384 51.9534C61.3232 52.2178 61.5019 52.8253 61.2374 53.3101L49.7447 74.3792C49.5257 74.7808 49.375 75.2115 49.2945 75.6542C49.2863 75.6993 49.2751 75.7432 49.2613 75.7856C49.2621 75.8303 49.2599 75.8755 49.2546 75.9211L49.2525 75.9389C49.2463 75.9939 49.2358 76.0474 49.2212 76.099C49.2279 76.1522 49.2305 76.2066 49.2284 76.2619C49.212 76.7114 49.2666 77.1646 49.3941 77.6044C49.5215 78.0438 49.7172 78.4548 49.9705 78.8242C49.9964 78.862 50.0193 78.9008 50.0394 78.9406C50.0713 78.9716 50.1014 79.0051 50.1296 79.0411L50.1407 79.0552C50.1749 79.0985 50.205 79.1437 50.2309 79.1904C50.273 79.2233 50.3129 79.26 50.3503 79.3006C50.6544 79.6301 51.0112 79.9116 51.4099 80.1317C51.4099 80.1317 51.41 80.1317 51.41 80.1317L60.7084 85.2624C61.1919 85.5293 61.3676 86.1376 61.1008 86.6211C60.834 87.1047 60.2257 87.2804 59.7421 87.0135L50.4437 81.8828L50.4436 81.8827C49.8548 81.5578 49.3284 81.1424 48.8804 80.6568C48.8251 80.5968 48.7785 80.5319 48.7406 80.4637C48.679 80.4155 48.6222 80.3594 48.5717 80.2954L48.5553 80.2747C48.5136 80.2215 48.4782 80.1653 48.4489 80.1072C48.4022 80.0618 48.3593 80.0111 48.3211 79.9553C47.9482 79.4115 47.6603 78.8068 47.4732 78.1612C47.2858 77.515 47.2056 76.849 47.2298 76.1888C47.2328 76.1073 47.2454 76.0283 47.2666 75.9531C47.2568 75.8755 47.256 75.7956 47.2652 75.7145L47.2682 75.6882C47.2761 75.621 47.2905 75.5561 47.3106 75.4942C47.3095 75.429 47.3147 75.3628 47.3268 75.2962C47.4451 74.6459 47.6667 74.0126 47.9888 73.4218L47.9889 73.4216L59.4816 52.3524C59.7461 51.8675 60.3535 51.6889 60.8384 51.9534ZM95.1828 65.0954C95.6677 65.3598 95.8463 65.9673 95.5819 66.4521L95.4296 66.7312C95.1652 67.216 94.5577 67.3947 94.0729 67.1302C93.588 66.8658 93.4094 66.2583 93.6738 65.7735L93.8261 65.4944C94.0905 65.0096 94.698 64.8309 95.1828 65.0954ZM92.7474 69.5604C93.2322 69.8248 93.4109 70.4323 93.1464 70.9171L81.6542 91.9863L80.7763 91.5075L81.6541 91.9864C81.3324 92.5761 80.9211 93.1041 80.4398 93.554C80.3802 93.6097 80.3157 93.6566 80.2478 93.695C80.2001 93.7568 80.1443 93.8139 80.0807 93.8648L80.0601 93.8813C80.0072 93.9233 79.9513 93.9591 79.8934 93.9888C79.8483 94.0357 79.7979 94.0789 79.7424 94.1174C79.2002 94.4942 78.5966 94.7852 77.9517 94.9744C77.3073 95.1633 76.6432 95.2442 75.9847 95.2198C75.9033 95.2168 75.8246 95.2041 75.7495 95.183C75.6722 95.1926 75.5924 95.1933 75.5115 95.184L75.4853 95.1809C75.4183 95.173 75.3536 95.1586 75.2918 95.1384C75.2268 95.1394 75.1607 95.134 75.0943 95.1218C74.4466 95.0024 73.8161 94.7792 73.2282 94.4549L73.228 94.4548L63.9295 89.3241C63.446 89.0573 63.2703 88.449 63.5371 87.9654C63.8039 87.4819 64.4122 87.3062 64.8958 87.573L74.194 92.7036C74.5922 92.9232 75.0187 93.0742 75.4567 93.1549C75.5014 93.1631 75.5449 93.1742 75.587 93.1879C75.6312 93.1873 75.676 93.1895 75.7211 93.1949L75.7389 93.197C75.7933 93.2032 75.8463 93.2137 75.8974 93.2281C75.9501 93.2215 76.004 93.2191 76.0588 93.2212C76.504 93.2377 76.953 93.183 77.3889 93.0552C77.8252 92.9272 78.2337 92.7303 78.6011 92.475C78.6386 92.449 78.6772 92.4259 78.7167 92.4056C78.7475 92.3736 78.7807 92.3433 78.8165 92.3149L78.8305 92.3038C78.8734 92.2694 78.9183 92.2391 78.9648 92.2129C78.9974 92.1707 79.0337 92.1306 79.0739 92.093C79.4004 91.7878 79.6797 91.4295 79.8984 91.0286L91.3906 69.9594C91.6551 69.4746 92.2625 69.2959 92.7474 69.5604ZM61.1971 86.6742C61.4639 86.1907 62.0722 86.015 62.5557 86.2818L62.6789 86.3497C63.1625 86.6166 63.3382 87.2249 63.0713 87.7084C62.8045 88.192 62.1962 88.3677 61.7127 88.1009L61.5895 88.0329C61.106 87.7661 60.9303 87.1578 61.1971 86.6742Z" fill="#264887"/>
    <path d="M74.5586 26.8263L51.373 69.0967L83.329 86.6247L106.514 44.3543L74.5586 26.8263Z" fill="#D32D27"/>
    <path fill-rule="evenodd" clip-rule="evenodd" d="M74.4193 45.6834L70.2192 53.3105L70.2176 53.3134C69.6599 54.2964 69.3401 55.398 69.2837 56.5305C69.2273 57.6629 69.4358 58.795 69.8927 59.8367L69.894 59.8398C70.7574 61.8781 71.8945 63.7907 73.2736 65.5242L73.9741 65.6246C75.9271 65.7814 77.8898 65.7156 79.8245 65.4284L79.832 65.4272C80.9588 65.2939 82.0344 64.8894 82.9668 64.248C83.8992 63.6067 84.6607 62.7477 85.1864 61.7445L85.1905 61.7366L89.4826 54.194L83.5188 47.0669L74.4193 45.6834ZM85.7079 56.1989C85.7563 56.2049 85.8031 56.2204 85.8457 56.2445C85.8883 56.2685 85.9257 56.3006 85.956 56.339C85.9863 56.3773 86.0087 56.4213 86.0221 56.4682C86.0354 56.5151 86.0394 56.5642 86.0338 56.6125C86.0282 56.6609 86.0131 56.7076 85.9894 56.7499L83.088 61.9596C83.0403 62.0452 82.9604 62.1081 82.866 62.1344C82.7715 62.1607 82.6701 62.1483 82.5842 62.0999C82.4983 62.0515 82.4348 61.9711 82.4077 61.8764C82.3807 61.7816 82.3923 61.6803 82.44 61.5946L85.3414 56.385C85.3649 56.3425 85.3967 56.3051 85.4348 56.275C85.4729 56.2449 85.5167 56.2227 85.5635 56.2097C85.6104 56.1966 85.6594 56.193 85.7079 56.1989ZM77.6862 54.1337C77.9671 54.1146 78.248 54.1794 78.4933 54.32C78.6557 54.4121 78.7982 54.5358 78.9134 54.6829C79.0286 54.8299 79.114 54.9979 79.1645 55.1775C79.2151 55.357 79.2299 55.5444 79.2081 55.7291C79.1863 55.9137 79.1283 56.092 79.0375 56.2537C78.9008 56.4991 78.694 56.6977 78.4434 56.8245C78.1927 56.9512 77.9096 57.0003 77.6298 56.9655C77.3499 56.9307 77.0861 56.8136 76.8717 56.6291C76.6572 56.4445 76.5019 56.2009 76.4254 55.929C76.3489 55.657 76.3546 55.3692 76.4419 55.1019C76.5292 54.8345 76.694 54.5998 76.9156 54.4274C77.1371 54.2551 77.4053 54.1528 77.6862 54.1337ZM81.1847 56.1038C81.4656 56.0847 81.7465 56.1495 81.9918 56.2901C82.1541 56.3822 82.2966 56.506 82.4119 56.653C82.5271 56.8 82.6125 56.9681 82.663 57.1476C82.7136 57.3271 82.7283 57.5145 82.7065 57.6992C82.6847 57.8838 82.6268 58.0621 82.5359 58.2238C82.3992 58.4692 82.1925 58.6679 81.9418 58.7946C81.6912 58.9213 81.408 58.9704 81.1282 58.9356C80.8484 58.9008 80.5845 58.7837 80.3701 58.5992C80.1557 58.4146 80.0004 58.171 79.9239 57.8991C79.8473 57.6272 79.8531 57.3393 79.9403 57.072C80.0276 56.8046 80.1925 56.5699 80.414 56.3975C80.6356 56.2252 80.9038 56.1229 81.1847 56.1038ZM74.1878 52.1636C74.4687 52.1445 74.7496 52.2093 74.9949 52.3499C75.1572 52.442 75.2997 52.5657 75.415 52.7128C75.5302 52.8598 75.6155 53.0278 75.6661 53.2074C75.7167 53.3869 75.7315 53.5743 75.7097 53.759C75.6879 53.9436 75.6299 54.1219 75.539 54.2836C75.4023 54.529 75.1956 54.7276 74.9449 54.8544C74.6943 54.9811 74.4111 55.0302 74.1313 54.9954C73.8515 54.9606 73.5876 54.8435 73.3732 54.659C73.1588 54.4744 73.0035 54.2308 72.927 53.9588C72.8505 53.6869 72.8562 53.3991 72.9435 53.1318C73.0307 52.8644 73.1956 52.6297 73.4171 52.4573C73.6386 52.2849 73.9069 52.1827 74.1878 52.1636Z" fill="white"/>
    <path fill-rule="evenodd" clip-rule="evenodd" d="M84.6987 44.9372L92.0664 53.7466L86.8123 62.9818C86.1583 64.2293 85.2109 65.2976 84.0512 66.0951C82.8914 66.8927 81.5536 67.3959 80.1522 67.5618C74.9977 68.1104 73.0567 67.7957 73.0567 67.7957L72.0818 67.6597C70.3743 65.5325 68.9689 63.1804 67.9061 60.6708C67.3383 59.3768 67.0792 57.9705 67.1492 56.5637C67.2193 55.157 67.6166 53.7886 68.3097 52.5676L73.4507 43.2316L84.6987 44.9372ZM83.7892 46.5816L90.1143 54.1405L85.6458 61.9933C85.0814 63.069 84.2642 63.9902 83.264 64.6782C82.2636 65.3662 81.1099 65.8006 79.9011 65.9443C77.926 66.2373 75.9222 66.304 73.9284 66.1433L73.9122 66.142L72.9984 66.0105L72.9334 65.9295C71.4951 64.1372 70.3111 62.1555 69.4155 60.0414C68.9264 58.9256 68.7032 57.7132 68.7636 56.5004C68.824 55.2876 69.1664 54.1078 69.7635 53.0548L74.1363 45.114L83.7892 46.5816Z" fill="white"/>
    <path opacity="0.3" fill-rule="evenodd" clip-rule="evenodd" d="M99.1404 40.3095L57.4582 58.0025L53.5497 65.1282L104.759 43.3912L99.1404 40.3095ZM106.329 44.6931L52.1425 67.6938L51.373 69.0966L53.3883 70.202L104.157 48.6519L106.329 44.6931Z" fill="white"/>
    <path d="M74.5586 26.8263L51.373 69.0967L83.329 86.6247L106.514 44.3543L74.5586 26.8263Z" stroke="#264887" stroke-width="2" stroke-linecap="round" stroke-linejoin="round"/>
    <path d="M87.0059 27.6606L94.5304 31.7123" stroke="#264887" stroke-width="2" stroke-linecap="round" stroke-linejoin="round"/>
    <path d="M65.0108 83.8055C65.9699 83.8055 66.7473 83.0281 66.7473 82.0691C66.7473 81.1101 65.9699 80.3326 65.0108 80.3326C64.0518 80.3326 63.2744 81.1101 63.2744 82.0691C63.2744 83.0281 64.0518 83.8055 65.0108 83.8055Z" fill="#264887"/>
    <path d="M98.8721 34.6066C99.3516 34.6066 99.7403 34.2178 99.7403 33.7383C99.7403 33.2588 99.3516 32.8701 98.8721 32.8701C98.3926 32.8701 98.0039 33.2588 98.0039 33.7383C98.0039 34.2178 98.3926 34.6066 98.8721 34.6066Z" fill="#264887"/>
    <g filter="url(#filter1_d_3865_43894)">
        <rect width="32" height="32" rx="6.89073" transform="matrix(0.965926 0.258819 0.258819 -0.965926 17 40.9099)" fill="#00A878"/>
        <path d="M43.0522 26.4424C42.9668 26.3338 42.8609 26.2435 42.7407 26.1766C42.6204 26.1097 42.4882 26.0676 42.3515 26.0526C42.2148 26.0377 42.0763 26.0502 41.944 26.0894C41.8117 26.1286 41.6881 26.1938 41.5803 26.2813L35.0172 31.6009L32.6324 28.3084C32.466 28.0887 32.2208 27.9444 31.9493 27.9064C31.6778 27.8685 31.4016 27.9399 31.1799 28.1054C30.9583 28.2709 30.8088 28.5173 30.7636 28.7918C30.7183 29.0663 30.7809 29.347 30.9378 29.5737L33.966 33.7534C34.0502 33.867 34.156 33.9623 34.2773 34.0337C34.3986 34.1051 34.5328 34.1512 34.6723 34.1693C34.8117 34.1874 34.9535 34.1771 35.0894 34.1391C35.2253 34.1011 35.3525 34.0361 35.4637 33.9478L42.8852 27.9365C42.9929 27.8488 43.0828 27.7406 43.1495 27.6181C43.2162 27.4955 43.2586 27.361 43.2741 27.2222C43.2896 27.0835 43.278 26.9432 43.2399 26.8094C43.2019 26.6756 43.1381 26.5509 43.0522 26.4424V26.4424Z" fill="white"/>
        <rect x="1.22474" y="-0.707107" width="30" height="30" rx="5.89073" transform="matrix(0.965926 0.258819 0.258819 -0.965926 17.2247 39.2028)" stroke="#006B4D" stroke-width="2"/>
    </g>
    <defs>
        <filter id="filter0_d_3865_43894" x="38.6338" y="41.392" width="23.2383" height="26.4024" filterUnits="userSpaceOnUse" color-interpolation-filters="sRGB">
            <feFlood flood-opacity="0" result="BackgroundImageFix"/>
            <feColorMatrix in="SourceAlpha" type="matrix" values="0 0 0 0 0 0 0 0 0 0 0 0 0 0 0 0 0 0 127 0" result="hardAlpha"/>
            <feOffset dy="3.1"/>
            <feComposite in2="hardAlpha" operator="out"/>
            <feColorMatrix type="matrix" values="0 0 0 0 0.278431 0 0 0 0 0.631373 0 0 0 0 0.870588 0 0 0 1 0"/>
            <feBlend mode="normal" in2="BackgroundImageFix" result="effect1_dropShadow_3865_43894"/>
            <feBlend mode="normal" in="SourceGraphic" in2="effect1_dropShadow_3865_43894" result="shape"/>
        </filter>
        <filter id="filter1_d_3865_43894" x="17" y="10.0002" width="40.3399" height="42.6373" filterUnits="userSpaceOnUse" color-interpolation-filters="sRGB">
            <feFlood flood-opacity="0" result="BackgroundImageFix"/>
            <feColorMatrix in="SourceAlpha" type="matrix" values="0 0 0 0 0 0 0 0 0 0 0 0 0 0 0 0 0 0 127 0" result="hardAlpha"/>
            <feOffset dx="1.14846" dy="3.44537"/>
            <feComposite in2="hardAlpha" operator="out"/>
            <feColorMatrix type="matrix" values="0 0 0 0 0.635294 0 0 0 0 0.87451 0 0 0 0 0.803922 0 0 0 1 0"/>
            <feBlend mode="normal" in2="BackgroundImageFix" result="effect1_dropShadow_3865_43894"/>
            <feBlend mode="normal" in="SourceGraphic" in2="effect1_dropShadow_3865_43894" result="shape"/>
        </filter>
    </defs>
</svg>
