<svg width="20" height="20" viewBox="0 0 20 20" fill="currentColor" xmlns="http://www.w3.org/2000/svg">
<path d="M3.125 14.3684C3.125 15.0315 3.38839 15.6673 3.85723 16.1362C4.32607 16.605 4.96196 16.8684 5.625 16.8684H12.2917C12.9547 16.8684 13.5906 16.605 14.0594 16.1362C14.5283 15.6673 14.7917 15.0315 14.7917 14.3684V10.1742C14.7919 10.0643 14.7703 9.95548 14.7283 9.85394C14.6862 9.7524 14.6245 9.66017 14.5467 9.58258C14.4692 9.5046 14.3771 9.44271 14.2756 9.40048C14.1742 9.35824 14.0653 9.3365 13.9554 9.3365C13.8455 9.3365 13.7367 9.35824 13.6352 9.40048C13.5337 9.44271 13.4416 9.5046 13.3642 9.58258L9.5975 13.3442C9.39421 13.5472 9.15113 13.706 8.88354 13.8105C8.61595 13.9151 8.32963 13.9632 8.04256 13.9517C7.7555 13.9403 7.47391 13.8696 7.21547 13.7441C6.95704 13.6187 6.72735 13.4411 6.54083 13.2226C6.20553 12.7984 6.04054 12.2643 6.07815 11.7249C6.11575 11.1855 6.35324 10.6795 6.74417 10.3059L10.4167 6.63925C10.4948 6.56178 10.5568 6.46961 10.5991 6.36806C10.6414 6.26651 10.6632 6.15759 10.6632 6.04758C10.6632 5.93757 10.6414 5.82865 10.5991 5.7271C10.5568 5.62555 10.4948 5.53338 10.4167 5.45591L10.4108 5.45008C10.3332 5.37224 10.241 5.31052 10.1395 5.26848C10.0379 5.22643 9.92907 5.20488 9.81917 5.20508H5.625C4.96196 5.20508 4.32607 5.46847 3.85723 5.93731C3.38839 6.40615 3.125 7.04204 3.125 7.70508V14.3684Z"/>
<path d="M14.1034 7.07586C14.1424 7.03693 14.1953 7.01507 14.2505 7.01507C14.3056 7.01507 14.3585 7.03693 14.3976 7.07586L16.1667 8.84169C16.2054 8.88051 16.2514 8.91131 16.302 8.93233C16.3526 8.95335 16.4069 8.96418 16.4617 8.96419C16.5163 8.96392 16.5703 8.95317 16.6209 8.93253C16.6971 8.90103 16.7622 8.84764 16.8081 8.7791C16.8539 8.71057 16.8784 8.62998 16.8784 8.54753V3.54753C16.8784 3.43702 16.8345 3.33104 16.7564 3.2529C16.6782 3.17476 16.5722 3.13086 16.4617 3.13086H11.4617C11.3794 3.13088 11.2989 3.15529 11.2304 3.20103C11.1619 3.24676 11.1085 3.31176 11.077 3.38781C11.0454 3.46387 11.0371 3.54757 11.0531 3.62836C11.069 3.70914 11.1086 3.78337 11.1667 3.84169L12.9276 5.60253C12.9471 5.62182 12.9625 5.64479 12.9731 5.67011C12.9837 5.69543 12.9891 5.72259 12.9891 5.75003C12.9891 5.77746 12.9837 5.80462 12.9731 5.82994C12.9625 5.85526 12.9471 5.87823 12.9276 5.89753L7.53589 11.2775C7.37941 11.4338 7.29142 11.6458 7.29126 11.8669C7.2911 12.0881 7.3788 12.3002 7.53506 12.4567C7.69131 12.6132 7.90333 12.7012 8.12447 12.7013C8.3456 12.7015 8.55775 12.6138 8.71422 12.4575L14.1034 7.07586Z" />
</svg>
