<svg width="16" height="16" viewBox="0 0 16 16" fill="none" xmlns="http://www.w3.org/2000/svg">
<path d="M12.9998 6.33333H12.4998V4.5C12.4998 3.30653 12.0257 2.16193 11.1818 1.31802C10.3379 0.474106 9.19331 0 7.99984 0C6.80636 0 5.66177 0.474106 4.81786 1.31802C3.97394 2.16193 3.49984 3.30653 3.49984 4.5V6.33333H2.99984C2.64622 6.33333 2.30708 6.47381 2.05703 6.72386C1.80698 6.97391 1.6665 7.31304 1.6665 7.66667V14.6667C1.6665 15.0203 1.80698 15.3594 2.05703 15.6095C2.30708 15.8595 2.64622 16 2.99984 16H12.9998C13.3535 16 13.6926 15.8595 13.9426 15.6095C14.1927 15.3594 14.3332 15.0203 14.3332 14.6667V7.66667C14.3332 7.31304 14.1927 6.97391 13.9426 6.72386C13.6926 6.47381 13.3535 6.33333 12.9998 6.33333ZM7.99984 12.3333C7.73613 12.3333 7.47834 12.2551 7.25908 12.1086C7.03981 11.9621 6.86891 11.7539 6.768 11.5102C6.66708 11.2666 6.64068 10.9985 6.69212 10.7399C6.74357 10.4812 6.87056 10.2437 7.05703 10.0572C7.2435 9.87072 7.48108 9.74373 7.73972 9.69229C7.99836 9.64084 8.26645 9.66724 8.51008 9.76816C8.75372 9.86908 8.96195 10.04 9.10846 10.2592C9.25497 10.4785 9.33317 10.7363 9.33317 11C9.33317 11.3536 9.19269 11.6928 8.94265 11.9428C8.6926 12.1929 8.35346 12.3333 7.99984 12.3333ZM10.8332 6C10.8332 6.08841 10.7981 6.17319 10.7355 6.2357C10.673 6.29821 10.5882 6.33333 10.4998 6.33333H5.49984C5.41143 6.33333 5.32665 6.29821 5.26413 6.2357C5.20162 6.17319 5.1665 6.08841 5.1665 6V4.5C5.1665 3.74855 5.46501 3.02788 5.99637 2.49653C6.52772 1.96518 7.24839 1.66667 7.99984 1.66667C8.75128 1.66667 9.47195 1.96518 10.0033 2.49653C10.5347 3.02788 10.8332 3.74855 10.8332 4.5V6Z" fill="#40526D"/>
</svg>
