<svg width="24" height="24" viewBox="0 0 24 24" fill="none" xmlns="http://www.w3.org/2000/svg">
<g clip-path="url(#clip0_803_13791)">
<path d="M13.5 9C13.5012 7.53977 12.9676 6.12965 12 5.036V2.5C12 1.83696 11.7366 1.20107 11.2678 0.732233C10.7989 0.263392 10.163 0 9.5 0C8.83696 0 8.20107 0.263392 7.73223 0.732233C7.26339 1.20107 7 1.83696 7 2.5V3.021C5.6346 3.13779 4.35033 3.71846 3.36074 4.66645C2.37116 5.61443 1.73591 6.87261 1.56063 8.23173C1.38535 9.59086 1.6806 10.969 2.39729 12.1371C3.11398 13.3051 4.20891 14.1926 5.5 14.652V15.293L4.646 16.146C4.5996 16.1925 4.56282 16.2477 4.53777 16.3085C4.51272 16.3692 4.49988 16.4343 4.5 16.5C4.50031 16.6326 4.55275 16.7597 4.646 16.854L5.5 17.708V18.294L4.646 19.148C4.55226 19.2418 4.49961 19.3689 4.49961 19.5015C4.49961 19.6341 4.55226 19.7612 4.646 19.855L5.5 20.708V22C5.49988 22.0657 5.51272 22.1308 5.53777 22.1915C5.56282 22.2523 5.5996 22.3075 5.646 22.354L7.146 23.854C7.19245 23.9006 7.24762 23.9375 7.30837 23.9627C7.36911 23.9879 7.43423 24.0009 7.5 24.0009C7.56577 24.0009 7.63089 23.9879 7.69163 23.9627C7.75238 23.9375 7.80755 23.9006 7.854 23.854L9.354 22.354C9.4004 22.3075 9.43718 22.2523 9.46223 22.1915C9.48728 22.1308 9.50012 22.0657 9.5 22V14.652C10.6675 14.2363 11.6782 13.4704 12.3941 12.4588C13.11 11.4472 13.4962 10.2393 13.5 9ZM7.5 6C7.69778 6 7.89112 6.05865 8.05557 6.16853C8.22002 6.27841 8.34819 6.43459 8.42388 6.61732C8.49957 6.80004 8.51937 7.00111 8.48079 7.19509C8.4422 7.38907 8.34696 7.56725 8.20711 7.70711C8.06725 7.84696 7.88907 7.9422 7.69509 7.98079C7.50111 8.01937 7.30004 7.99957 7.11732 7.92388C6.93459 7.84819 6.77841 7.72002 6.66853 7.55557C6.55865 7.39112 6.5 7.19778 6.5 7C6.5 6.73478 6.60536 6.48043 6.79289 6.29289C6.98043 6.10536 7.23478 6 7.5 6ZM9.5 1C9.89782 1 10.2794 1.15804 10.5607 1.43934C10.842 1.72064 11 2.10218 11 2.5V4.13C10.3974 3.6953 9.71921 3.37654 9 3.19V5H8V2.5C8 2.10218 8.15804 1.72064 8.43934 1.43934C8.72064 1.15804 9.10218 1 9.5 1Z" fill="currentColor"/>
<path d="M22.354 18.026L17.154 12.826C17.7883 11.5196 17.9226 10.0262 17.5315 8.6276C17.1404 7.22899 16.251 6.02188 15.031 5.234C14.9402 5.17443 14.8324 5.14606 14.724 5.15319C14.6156 5.16032 14.5125 5.20256 14.4302 5.27352C14.348 5.34447 14.2911 5.44028 14.2681 5.54646C14.2452 5.65264 14.2574 5.7634 14.303 5.862C15.0651 7.50571 15.2039 9.37036 14.6936 11.1088C14.1833 12.8472 13.0586 14.341 11.529 15.312C11.438 15.3703 11.3684 15.4564 11.3305 15.5576C11.2926 15.6588 11.2885 15.7695 11.3188 15.8732C11.3491 15.9769 11.4121 16.068 11.4985 16.1328C11.5849 16.1977 11.69 16.2328 11.798 16.233H11.804C12.6839 16.2246 13.5512 16.0236 14.345 15.644L14.995 16.221V17.5C14.995 17.6326 15.0477 17.7598 15.1414 17.8535C15.2352 17.9473 15.3624 18 15.495 18H16.781L16.995 18.224V19.5C16.995 19.6326 17.0477 19.7598 17.1414 19.8535C17.2352 19.9473 17.3624 20 17.495 20H18.614L19.531 20.864C19.6238 20.9514 19.7465 21.0001 19.874 21H22C22.1326 21 22.2598 20.9473 22.3536 20.8535C22.4473 20.7598 22.5 20.6326 22.5 20.5V18.379C22.5 18.2466 22.4475 18.1197 22.354 18.026Z" fill="currentColor"/>
</g>
<defs>
<clipPath id="clip0_803_13791">
<rect width="24" height="24" fill="white"/>
</clipPath>
</defs>
</svg>
