<svg width="136" height="30" viewBox="0 0 136 30" fill="none" xmlns="http://www.w3.org/2000/svg">
<g filter="url(#filter0_ddd_1658_141690)">
<rect x="2.25" y="2" width="131.75" height="24" rx="4" fill="white"/>
<g clip-path="url(#clip0_1658_141690)">
<path d="M21.9934 13.9999C21.9929 13.8297 21.9564 13.6615 21.8863 13.5063C21.8161 13.3512 21.7139 13.2127 21.5864 13.0999L15.9969 8.18045C15.8525 8.06225 15.6678 8.00473 15.4819 8.01999C15.2959 8.03526 15.1231 8.12213 15 8.26229C14.8768 8.40245 14.8128 8.58496 14.8216 8.77134C14.8303 8.95773 14.9111 9.13344 15.0469 9.26145L19.3654 13.0614C19.3843 13.0783 19.3977 13.1004 19.4038 13.125C19.4098 13.1496 19.4083 13.1754 19.3993 13.1991C19.3904 13.2228 19.3745 13.2432 19.3537 13.2576C19.3329 13.2721 19.3082 13.2799 19.2829 13.2799H10.7259C10.5349 13.2799 10.3518 13.3558 10.2167 13.4908C10.0817 13.6259 10.0059 13.809 10.0059 13.9999C10.0059 14.1909 10.0817 14.374 10.2167 14.5091C10.3518 14.6441 10.5349 14.7199 10.7259 14.7199H19.2814C19.3067 14.7202 19.3313 14.7281 19.3521 14.7426C19.3728 14.7571 19.3887 14.7775 19.3976 14.8012C19.4065 14.8249 19.4081 14.8507 19.4021 14.8753C19.396 14.8999 19.3827 14.9221 19.3639 14.9389L15.0454 18.7389C14.9698 18.8 14.9074 18.8756 14.8619 18.9613C14.8163 19.0471 14.7886 19.1411 14.7804 19.2379C14.7721 19.3346 14.7835 19.432 14.8139 19.5242C14.8442 19.6164 14.8929 19.7016 14.957 19.7745C15.0212 19.8474 15.0993 19.9066 15.1869 19.9485C15.2745 19.9904 15.3696 20.0142 15.4666 20.0184C15.5636 20.0226 15.6604 20.0071 15.7513 19.9729C15.8422 19.9388 15.9252 19.8865 15.9954 19.8194L21.5859 14.8999C21.7135 14.7873 21.8159 14.6488 21.8861 14.4937C21.9564 14.3385 21.9929 14.1702 21.9934 13.9999Z" fill="#1B283C"/>
</g>
<line x1="7.25" y1="8" x2="7.25" y2="20" stroke="#1B283C" stroke-width="2"/>
<path d="M38.8203 18H44.0586V17.0508H39.875V14.1445H43.8418V13.207H39.875V10.4941H44.0586V9.54492H38.8203V18ZM44.8203 18H45.9512L47.4219 15.6797H47.4453L48.9043 18H50.0352L48.0078 14.9121L50.0645 11.9062H48.9277L47.4805 14.1914H47.457L45.9922 11.9062H44.8555L46.8945 14.9531L44.8203 18ZM50.9199 20.0508H51.9395V16.9805H51.9629C52.3438 17.6836 53.0527 18.1172 53.9141 18.1172C55.4434 18.1172 56.4863 16.8809 56.4863 14.959V14.9531C56.4863 13.0312 55.4551 11.7891 53.8965 11.7891C53.0234 11.7891 52.3438 12.2285 51.9629 12.9375H51.9395V11.9062H50.9199V20.0508ZM53.6973 17.2148C52.6719 17.2148 51.9336 16.3184 51.9336 14.959V14.9531C51.9336 13.5879 52.666 12.6914 53.6973 12.6914C54.7754 12.6914 55.4434 13.5527 55.4434 14.9531V14.959C55.4434 16.3477 54.7754 17.2148 53.6973 17.2148ZM60.043 18.1172C61.7246 18.1172 62.8613 16.8984 62.8613 14.9531V14.9414C62.8613 12.9961 61.7188 11.7891 60.0371 11.7891C58.3555 11.7891 57.2188 13.002 57.2188 14.9414V14.9531C57.2188 16.8926 58.3496 18.1172 60.043 18.1172ZM60.0488 17.2148C58.9707 17.2148 58.2617 16.3887 58.2617 14.9531V14.9414C58.2617 13.5176 58.9766 12.6914 60.0371 12.6914C61.1152 12.6914 61.8184 13.5117 61.8184 14.9414V14.9531C61.8184 16.3828 61.1211 17.2148 60.0488 17.2148ZM63.8926 18H64.9121V14.2383C64.9121 13.3125 65.4277 12.7617 66.2188 12.7617C66.4648 12.7617 66.6816 12.791 66.7637 12.8203V11.8301C66.6816 11.8184 66.5293 11.7891 66.3535 11.7891C65.668 11.7891 65.1406 12.2344 64.9355 12.9375H64.9121V11.9062H63.8926V18ZM69.5762 18.1172C69.7754 18.1172 69.9922 18.0938 70.1211 18.0762V17.25C70.0332 17.2559 69.916 17.2734 69.793 17.2734C69.248 17.2734 68.9609 17.0918 68.9609 16.4414V12.75H70.1211V11.9062H68.9609V10.2598H67.9062V11.9062H67.0156V12.75H67.9062V16.4473C67.9062 17.6133 68.457 18.1172 69.5762 18.1172ZM73.6777 20.0508H74.6973V16.9805H74.7207C75.1016 17.6836 75.8105 18.1172 76.6719 18.1172C78.2012 18.1172 79.2441 16.8809 79.2441 14.959V14.9531C79.2441 13.0312 78.2129 11.7891 76.6543 11.7891C75.7812 11.7891 75.1016 12.2285 74.7207 12.9375H74.6973V11.9062H73.6777V20.0508ZM76.4551 17.2148C75.4297 17.2148 74.6914 16.3184 74.6914 14.959V14.9531C74.6914 13.5879 75.4238 12.6914 76.4551 12.6914C77.5332 12.6914 78.2012 13.5527 78.2012 14.9531V14.959C78.2012 16.3477 77.5332 17.2148 76.4551 17.2148ZM82.0566 18.1172C82.8711 18.1172 83.6035 17.6777 83.9609 17.0098H83.9844V18H85.0039V13.7871C85.0039 12.5684 84.1016 11.7891 82.6602 11.7891C81.2246 11.7891 80.3516 12.5977 80.2637 13.5996L80.2578 13.6641H81.2422L81.2539 13.6113C81.3711 13.0664 81.8633 12.6914 82.6484 12.6914C83.498 12.6914 83.9844 13.1426 83.9844 13.8867V14.3965L82.2383 14.4961C80.8379 14.5781 80.0293 15.2285 80.0293 16.2656V16.2773C80.0293 17.3848 80.8438 18.1172 82.0566 18.1172ZM81.0723 16.2773V16.2656C81.0723 15.6973 81.541 15.334 82.3555 15.2871L83.9844 15.1875V15.6855C83.9844 16.5703 83.2461 17.2324 82.2852 17.2324C81.5527 17.2324 81.0723 16.8633 81.0723 16.2773ZM88.4609 18.1172C89.8203 18.1172 90.8281 17.3672 90.8281 16.3008V16.2949C90.8281 15.4277 90.3828 14.9414 89.1523 14.6426L88.1855 14.4082C87.5117 14.2441 87.2363 13.957 87.2363 13.541V13.5352C87.2363 12.9961 87.6934 12.6387 88.4316 12.6387C89.1875 12.6387 89.6387 13.0312 89.7207 13.623L89.7266 13.6641H90.6992L90.6934 13.5879C90.6172 12.5684 89.7676 11.7891 88.4316 11.7891C87.1133 11.7891 86.1934 12.5332 86.1934 13.582V13.5879C86.1934 14.4668 86.75 15 87.8984 15.2754L88.8652 15.5098C89.5566 15.6797 89.7852 15.9258 89.7852 16.3652V16.3711C89.7852 16.9219 89.293 17.2676 88.4668 17.2676C87.6348 17.2676 87.1836 16.9102 87.0605 16.3008L87.0488 16.2422H86.0293L86.0352 16.2949C86.1582 17.3848 87.0254 18.1172 88.4609 18.1172ZM94.0508 18.1172C95.4102 18.1172 96.418 17.3672 96.418 16.3008V16.2949C96.418 15.4277 95.9727 14.9414 94.7422 14.6426L93.7754 14.4082C93.1016 14.2441 92.8262 13.957 92.8262 13.541V13.5352C92.8262 12.9961 93.2832 12.6387 94.0215 12.6387C94.7773 12.6387 95.2285 13.0312 95.3105 13.623L95.3164 13.6641H96.2891L96.2832 13.5879C96.207 12.5684 95.3574 11.7891 94.0215 11.7891C92.7031 11.7891 91.7832 12.5332 91.7832 13.582V13.5879C91.7832 14.4668 92.3398 15 93.4883 15.2754L94.4551 15.5098C95.1465 15.6797 95.375 15.9258 95.375 16.3652V16.3711C95.375 16.9219 94.8828 17.2676 94.0566 17.2676C93.2246 17.2676 92.7734 16.9102 92.6504 16.3008L92.6387 16.2422H91.6191L91.625 16.2949C91.748 17.3848 92.6152 18.1172 94.0508 18.1172ZM98.6855 18H99.7227L101.094 13.2832H101.117L102.494 18H103.531L105.23 11.9062H104.223L103.004 16.8633H102.98L101.598 11.9062H100.613L99.2363 16.8633H99.2129L97.9941 11.9062H96.9805L98.6855 18ZM108.594 18.1172C110.275 18.1172 111.412 16.8984 111.412 14.9531V14.9414C111.412 12.9961 110.27 11.7891 108.588 11.7891C106.906 11.7891 105.77 13.002 105.77 14.9414V14.9531C105.77 16.8926 106.9 18.1172 108.594 18.1172ZM108.6 17.2148C107.521 17.2148 106.812 16.3887 106.812 14.9531V14.9414C106.812 13.5176 107.527 12.6914 108.588 12.6914C109.666 12.6914 110.369 13.5117 110.369 14.9414V14.9531C110.369 16.3828 109.672 17.2148 108.6 17.2148ZM112.443 18H113.463V14.2383C113.463 13.3125 113.979 12.7617 114.77 12.7617C115.016 12.7617 115.232 12.791 115.314 12.8203V11.8301C115.232 11.8184 115.08 11.7891 114.904 11.7891C114.219 11.7891 113.691 12.2344 113.486 12.9375H113.463V11.9062H112.443V18ZM118.145 18.1172C119.018 18.1172 119.697 17.6777 120.078 16.9688H120.102V18H121.121V9.54492H120.102V12.9258H120.078C119.697 12.2227 118.988 11.7891 118.127 11.7891C116.598 11.7891 115.555 13.0254 115.555 14.9473V14.9531C115.555 16.875 116.586 18.1172 118.145 18.1172ZM118.344 17.2148C117.266 17.2148 116.598 16.3535 116.598 14.9531V14.9473C116.598 13.5586 117.266 12.6914 118.344 12.6914C119.369 12.6914 120.107 13.5879 120.107 14.9473V14.9531C120.107 16.3184 119.375 17.2148 118.344 17.2148ZM124.66 18.1172C126.02 18.1172 127.027 17.3672 127.027 16.3008V16.2949C127.027 15.4277 126.582 14.9414 125.352 14.6426L124.385 14.4082C123.711 14.2441 123.436 13.957 123.436 13.541V13.5352C123.436 12.9961 123.893 12.6387 124.631 12.6387C125.387 12.6387 125.838 13.0312 125.92 13.623L125.926 13.6641H126.898L126.893 13.5879C126.816 12.5684 125.967 11.7891 124.631 11.7891C123.312 11.7891 122.393 12.5332 122.393 13.582V13.5879C122.393 14.4668 122.949 15 124.098 15.2754L125.064 15.5098C125.756 15.6797 125.984 15.9258 125.984 16.3652V16.3711C125.984 16.9219 125.492 17.2676 124.666 17.2676C123.834 17.2676 123.383 16.9102 123.26 16.3008L123.248 16.2422H122.229L122.234 16.2949C122.357 17.3848 123.225 18.1172 124.66 18.1172Z" fill="#1B283C"/>
</g>
<defs>
<filter id="filter0_ddd_1658_141690" x="0.25" y="0" width="135.75" height="30" filterUnits="userSpaceOnUse" color-interpolation-filters="sRGB">
<feFlood flood-opacity="0" result="BackgroundImageFix"/>
<feColorMatrix in="SourceAlpha" type="matrix" values="0 0 0 0 0 0 0 0 0 0 0 0 0 0 0 0 0 0 127 0" result="hardAlpha"/>
<feOffset dy="1"/>
<feGaussianBlur stdDeviation="1"/>
<feColorMatrix type="matrix" values="0 0 0 0 0.113958 0 0 0 0 0.188601 0 0 0 0 0.28457 0 0 0 0.04 0"/>
<feBlend mode="normal" in2="BackgroundImageFix" result="effect1_dropShadow_1658_141690"/>
<feColorMatrix in="SourceAlpha" type="matrix" values="0 0 0 0 0 0 0 0 0 0 0 0 0 0 0 0 0 0 127 0" result="hardAlpha"/>
<feOffset dy="2"/>
<feGaussianBlur stdDeviation="1"/>
<feColorMatrix type="matrix" values="0 0 0 0 0.113958 0 0 0 0 0.188601 0 0 0 0 0.28457 0 0 0 0.04 0"/>
<feBlend mode="normal" in2="effect1_dropShadow_1658_141690" result="effect2_dropShadow_1658_141690"/>
<feColorMatrix in="SourceAlpha" type="matrix" values="0 0 0 0 0 0 0 0 0 0 0 0 0 0 0 0 0 0 127 0" result="hardAlpha"/>
<feOffset/>
<feGaussianBlur stdDeviation="1"/>
<feColorMatrix type="matrix" values="0 0 0 0 0.113958 0 0 0 0 0.188601 0 0 0 0 0.28457 0 0 0 0.16 0"/>
<feBlend mode="normal" in2="effect2_dropShadow_1658_141690" result="effect3_dropShadow_1658_141690"/>
<feBlend mode="normal" in="SourceGraphic" in2="effect3_dropShadow_1658_141690" result="shape"/>
</filter>
<clipPath id="clip0_1658_141690">
<rect width="12" height="12" fill="white" transform="translate(10 8)"/>
</clipPath>
</defs>
</svg>
