<svg width="185" height="180" viewBox="0 0 185 180" fill="none" xmlns="http://www.w3.org/2000/svg">
<path fill-rule="evenodd" clip-rule="evenodd" d="M95 180C144.706 180 185 139.706 185 90C185 40.2944 144.706 0 95 0C45.2944 0 5 40.2944 5 90C5 139.706 45.2944 180 95 180Z" fill="#ECF5FB"/>
<path fill-rule="evenodd" clip-rule="evenodd" d="M53.1969 16.7214C55.3698 16.7214 57.1313 14.9599 57.1313 12.787C57.1313 10.614 55.3698 8.85254 53.1969 8.85254C51.024 8.85254 49.2625 10.614 49.2625 12.787C49.2625 14.9599 51.024 16.7214 53.1969 16.7214Z" stroke="#B5D9F1" stroke-width="2.25"/>
<path fill-rule="evenodd" clip-rule="evenodd" d="M109.447 95.4714C111.62 95.4714 113.381 93.7099 113.381 91.537C113.381 89.364 111.62 87.6025 109.447 87.6025C107.274 87.6025 105.512 89.364 105.512 91.537C105.512 93.7099 107.274 95.4714 109.447 95.4714Z" stroke="#B5D9F1" stroke-width="2.25"/>
<rect x="165.206" y="91.5186" width="6.88525" height="6.88525" stroke="#B5D9F1" stroke-width="2.25" stroke-linecap="round" stroke-linejoin="round"/>
<rect x="33.0697" y="58.7024" width="6.88525" height="6.88525" transform="rotate(-45 33.0697 58.7024)" stroke="#B5D9F1" stroke-width="2.25" stroke-linecap="round" stroke-linejoin="round"/>
<path d="M99.6664 16.6844L105.274 22.2918" stroke="#B5D9F1" stroke-width="2.25" stroke-linecap="round"/>
<path d="M105.076 16.6841L99.469 22.2916" stroke="#B5D9F1" stroke-width="2.25" stroke-linecap="round"/>
<path d="M66.4506 149.875V157.805" stroke="#B5D9F1" stroke-width="2.25" stroke-linecap="round"/>
<path d="M70.2761 153.701L62.3461 153.701" stroke="#B5D9F1" stroke-width="2.25" stroke-linecap="round"/>
<path d="M64.2745 99.0365C64.2745 97.3497 64.107 95.7026 63.7879 94.1111C63.3106 91.7305 62.4941 89.4746 61.3917 87.397C59.5648 83.9544 56.9529 81.0016 53.7981 78.7839M46.5652 75.3215C44.4502 74.7155 42.2182 74.3911 39.9113 74.3911C34.3102 74.3911 29.1506 76.3031 25.0355 79.517M21.974 82.3583C17.9841 86.747 15.548 92.604 15.548 99.0365C15.548 100.934 15.7599 102.781 16.1611 104.555M50.9349 77.2261C50.5528 77.0447 50.1652 76.873 49.7726 76.7114L50.9349 77.2261Z" stroke="#264887" stroke-width="2.32031" stroke-linecap="round" stroke-linejoin="round"/>
<path d="M58.2393 108.703C58.394 107.187 58.4733 105.647 58.4733 104.089C58.4733 100.458 58.0426 96.9291 57.2304 93.5529C55.4144 86.0997 48.3295 80.1909 39.8896 80.1909C32.6045 80.1909 26.329 84.5933 23.488 90.9285M22.3988 94.1045C22.0518 95.5266 21.8676 97.0143 21.8676 98.5458C21.8676 99.851 22.2285 101.285 22.2285 104.228C22.2285 107.05 21.2665 109.514 19.028 110.832M57.1396 114.996C57.4107 113.91 57.6423 112.807 57.8327 111.691L57.1396 114.996Z" stroke="#264887" stroke-width="2.32031" stroke-linecap="round" stroke-linejoin="round"/>
<path d="M48.5271 121.958C50.4152 118.289 51.7175 114.269 52.3104 110.022M52.6736 104.774C52.6736 101.909 52.3532 99.1185 51.7462 96.4369C50.589 91.2564 45.7172 87.1528 39.8871 87.1528C33.1713 87.1528 27.727 92.598 27.727 99.3149C27.727 100.373 27.8621 101.4 28.1161 102.379M28.1161 105.715C28.1161 110.331 26.0905 113.59 22.5096 115.96" stroke="#264887" stroke-width="2.32031" stroke-linecap="round" stroke-linejoin="round"/>
<path d="M40.7653 123.118C44.6063 117.92 46.8723 111.52 46.8723 104.599C46.8723 103.189 46.7783 102.961 46.5961 101.6M46.0926 97.654C46.2625 98.7228 46.2149 98.2881 46.1244 97.869C45.518 95.0604 42.9859 92.9536 39.9543 92.9536C36.4703 92.9536 33.646 95.7361 33.646 99.1685C33.646 99.9014 33.7748 100.605 34.0113 101.257C34.3418 102.195 34.4703 103.45 34.4703 104.735C34.4703 110.795 31.6113 116.198 27.1497 119.706" stroke="#264887" stroke-width="2.32031" stroke-linecap="round" stroke-linejoin="round"/>
<path d="M34.11 121.958C38.4195 117.393 41.071 111.178 41.071 104.328C41.071 102.413 40.8637 100.548 40.471 98.7544" stroke="#264887" stroke-width="2.32031" stroke-linecap="round" stroke-linejoin="round"/>
<path d="M1.62555 85.9922H2.1327M5.43742 85.9922H7.55806M11.3732 85.9922H67.4854M70.7243 85.9922L72.2326 85.9922M75.0997 85.9922H75.8755" stroke="#D22D27" stroke-width="2.32031" stroke-linecap="round" stroke-linejoin="round"/>
<g filter="url(#filter0_d_5947_34510)">
<path d="M109.497 129.99L94.8066 122.977C94.0807 122.631 93.6185 121.898 93.6185 121.094V119.703L123.072 117.537V120.786L109.497 129.99Z" fill="#B5D9F1" stroke="#264887" stroke-width="2.25" stroke-linecap="round" stroke-linejoin="round"/>
<path d="M108.467 125.664L94.4494 119.123C93.708 118.777 93.6349 117.751 94.3196 117.303L105.855 109.761C106.46 109.365 107.226 109.311 107.88 109.616L121.371 115.912C122.113 116.258 122.186 117.284 121.501 117.731L109.479 125.592C109.177 125.79 108.794 125.817 108.467 125.664Z" fill="white" stroke="#264887" stroke-width="2.25" stroke-linecap="round" stroke-linejoin="round"/>
<path d="M108.375 122.901L98.6886 118.45C98.137 118.196 98.0841 117.433 98.5954 117.106L106.322 112.163C106.852 111.823 107.519 111.777 108.091 112.04L117.596 116.408C117.929 116.56 117.961 117.02 117.653 117.217L108.817 122.87C108.685 122.955 108.518 122.966 108.375 122.901Z" fill="#B5D9F1"/>
<path d="M106.404 120.11C104.16 119.058 101.911 118.003 98.85 116.473L99.9662 115.67C102.726 117.042 104.821 118.024 106.921 119.009L106.921 119.009C109.165 120.061 111.415 121.116 114.476 122.647L113.932 123.735C110.885 122.211 108.647 121.162 106.404 120.11L106.404 120.11Z" fill="white"/>
<path fill-rule="evenodd" clip-rule="evenodd" d="M115.938 121.731L101.817 114.898L102.347 113.803L116.468 120.636L115.938 121.731Z" fill="white"/>
<path fill-rule="evenodd" clip-rule="evenodd" d="M118.105 119.909L104.44 113.297L104.97 112.202L118.635 118.814L118.105 119.909Z" fill="white"/>
<path d="M146.215 153.682L106.592 135.316C105.67 134.889 105.08 133.965 105.08 132.949V126.656L170.234 133.731V140.56C170.234 141.448 169.783 142.275 169.036 142.755L152.737 153.233C150.783 154.489 148.323 154.658 146.215 153.682Z" fill="#B5D9F1" stroke="#264887" stroke-width="2.25" stroke-linecap="round" stroke-linejoin="round"/>
<g filter="url(#filter1_i_5947_34510)">
<path d="M168.989 131.493L127.892 112.486C126.732 111.95 125.375 112.059 124.315 112.774L106.275 124.951C104.591 126.088 104.795 128.629 106.639 129.482L147.736 148.489C148.896 149.026 150.253 148.917 151.313 148.202L169.353 136.024C171.038 134.887 170.833 132.346 168.989 131.493Z" fill="white"/>
</g>
<path d="M168.989 131.493L127.892 112.486C126.732 111.95 125.375 112.059 124.315 112.774L106.275 124.951C104.591 126.088 104.795 128.629 106.639 129.482L147.736 148.489C148.896 149.026 150.253 148.917 151.313 148.202L169.353 136.024C171.038 134.887 170.833 132.346 168.989 131.493Z" stroke="#264887" stroke-width="2.25" stroke-linecap="round" stroke-linejoin="round" stroke-dasharray="96.11 10.98 16.48 10.98"/>
<ellipse cx="137.81" cy="129.603" rx="11.2018" ry="7.36962" fill="white"/>
<path fill-rule="evenodd" clip-rule="evenodd" d="M127.625 132.306C127.625 132.304 127.625 132.302 127.625 132.3C127.625 129.442 132.158 127.125 137.75 127.125C143.342 127.125 147.875 129.442 147.875 132.3C147.875 132.302 147.875 132.304 147.875 132.306C146.446 134.527 142.453 136.125 137.75 136.125C133.047 136.125 129.054 134.527 127.625 132.306Z" fill="#DAECF8"/>
<path fill-rule="evenodd" clip-rule="evenodd" d="M127.199 131.909C127.199 131.908 127.199 131.906 127.199 131.905C127.199 128.813 131.95 126.307 137.811 126.307C143.672 126.307 148.423 128.813 148.423 131.905C148.423 131.907 148.423 131.909 148.423 131.912C147.889 132.768 147.014 133.538 145.886 134.175C146.875 133.415 147.298 132.607 147.298 131.905C147.298 130.983 146.57 129.88 144.79 128.941C143.062 128.029 140.596 127.432 137.811 127.432C135.026 127.432 132.56 128.029 130.832 128.941C129.052 129.88 128.324 130.983 128.324 131.905C128.324 132.606 128.746 133.413 129.732 134.172C128.606 133.535 127.732 132.765 127.199 131.909Z" fill="#D32D27"/>
<path d="M147.891 129.602C147.891 131.137 146.945 132.67 145.116 133.873C143.298 135.07 140.719 135.846 137.814 135.846C134.909 135.846 132.33 135.07 130.511 133.873C128.683 132.67 127.737 131.137 127.737 129.602C127.737 128.067 128.683 126.533 130.511 125.331C132.33 124.134 134.909 123.357 137.814 123.357C140.719 123.357 143.298 124.134 145.116 125.331C146.945 126.533 147.891 128.067 147.891 129.602Z" stroke="#D32D27" stroke-width="2.25"/>
</g>
<path d="M145.625 90C145.625 97.1999 144.122 104.049 141.412 110.25M94.9998 39.375C74.6785 39.375 57.1537 51.3483 49.0953 68.625M61.2498 127.734C70.2063 135.751 82.0338 140.625 94.9998 140.625C96.7084 140.625 98.3972 140.54 100.062 140.375" stroke="#264887" stroke-width="2.25" stroke-linecap="round"/>
<rect x="150.027" y="144.487" width="14.625" height="1.47375" transform="rotate(-34.1691 150.027 144.487)" fill="white"/>
<circle cx="133.812" cy="51.9774" r="23.0625" fill="url(#paint0_radial_5947_34510)"/>
<path d="M111.761 40.996V34.3184C111.761 31.5456 113.944 29.2979 116.638 29.2979H122.971" stroke="#264887" stroke-width="2.25" stroke-linecap="round"/>
<path d="M126.871 61.0455C128.622 62.5136 131.016 63.4183 133.657 63.4183C136.336 63.4183 138.761 62.4872 140.519 60.9812" stroke="#264887" stroke-width="2.20598" stroke-linecap="round"/>
<path d="M156.116 40.996V34.3184C156.116 31.5456 153.932 29.2979 151.239 29.2979H144.905" stroke="#264887" stroke-width="2.25" stroke-linecap="round"/>
<path d="M111.761 61.9559V68.6336C111.761 71.4063 113.944 73.6541 116.638 73.6541H122.971" stroke="#264887" stroke-width="2.25" stroke-linecap="round"/>
<path d="M156.116 61.9559V68.6336C156.116 71.4063 153.932 73.6541 151.239 73.6541H144.905" stroke="#264887" stroke-width="2.25" stroke-linecap="round"/>
<mask id="path-36-inside-1_5947_34510" fill="white">
<path fill-rule="evenodd" clip-rule="evenodd" d="M144.418 45.138C144.418 44.465 143.873 43.9194 143.2 43.9194C142.527 43.9194 141.981 44.465 141.981 45.138V49.0374C141.981 49.7104 142.527 50.2559 143.2 50.2559C143.873 50.2559 144.418 49.7104 144.418 49.0374V45.138ZM123.7 43.9205H124.682C125.084 43.9205 125.409 44.2463 125.409 44.6482V49.5293C125.409 49.9312 125.084 50.257 124.682 50.257H123.7C123.298 50.257 122.972 49.9312 122.972 49.5293V44.6482C122.972 44.2463 123.298 43.9205 123.7 43.9205ZM135.644 44.4046V52.81C135.645 52.8446 135.646 52.8792 135.646 52.914C135.646 52.9487 135.645 52.9834 135.644 53.0179V53.36C135.644 53.4296 135.63 53.4958 135.603 53.5556C135.331 55.6122 133.768 57.2398 131.793 57.5229C131.691 57.5522 131.584 57.5679 131.474 57.5679C130.815 57.5679 130.282 57.0124 130.282 56.3272C130.282 55.642 130.815 55.0865 131.474 55.0865C131.479 55.0865 131.484 55.0865 131.49 55.0866L131.488 54.9697L131.56 54.9566C132.454 54.7586 133.142 53.9287 133.215 52.9559L133.262 52.9149V44.4046C133.262 44.1366 133.479 43.9194 133.747 43.9194H135.159C135.427 43.9194 135.644 44.1366 135.644 44.4046Z"/>
</mask>
<path fill-rule="evenodd" clip-rule="evenodd" d="M144.418 45.138C144.418 44.465 143.873 43.9194 143.2 43.9194C142.527 43.9194 141.981 44.465 141.981 45.138V49.0374C141.981 49.7104 142.527 50.2559 143.2 50.2559C143.873 50.2559 144.418 49.7104 144.418 49.0374V45.138ZM123.7 43.9205H124.682C125.084 43.9205 125.409 44.2463 125.409 44.6482V49.5293C125.409 49.9312 125.084 50.257 124.682 50.257H123.7C123.298 50.257 122.972 49.9312 122.972 49.5293V44.6482C122.972 44.2463 123.298 43.9205 123.7 43.9205ZM135.644 44.4046V52.81C135.645 52.8446 135.646 52.8792 135.646 52.914C135.646 52.9487 135.645 52.9834 135.644 53.0179V53.36C135.644 53.4296 135.63 53.4958 135.603 53.5556C135.331 55.6122 133.768 57.2398 131.793 57.5229C131.691 57.5522 131.584 57.5679 131.474 57.5679C130.815 57.5679 130.282 57.0124 130.282 56.3272C130.282 55.642 130.815 55.0865 131.474 55.0865C131.479 55.0865 131.484 55.0865 131.49 55.0866L131.488 54.9697L131.56 54.9566C132.454 54.7586 133.142 53.9287 133.215 52.9559L133.262 52.9149V44.4046C133.262 44.1366 133.479 43.9194 133.747 43.9194H135.159C135.427 43.9194 135.644 44.1366 135.644 44.4046Z" fill="#264887"/>
<path d="M135.644 52.81H134.642V52.8206L134.642 52.8311L135.644 52.81ZM135.644 53.0179L134.642 52.9968L134.642 53.0074V53.0179H135.644ZM135.603 53.5556L134.686 53.1509L134.628 53.282L134.609 53.4239L135.603 53.5556ZM131.793 57.5229L131.65 56.5304L131.581 56.5402L131.514 56.5596L131.793 57.5229ZM131.49 55.0866L131.476 56.0892L132.506 56.1037L132.492 55.0736L131.49 55.0866ZM131.488 54.9697L131.309 53.9831L130.475 54.1346L130.486 54.9827L131.488 54.9697ZM131.56 54.9566L131.739 55.9432L131.758 55.9398L131.777 55.9356L131.56 54.9566ZM133.215 52.9559L132.551 52.2052L132.246 52.4748L132.215 52.8804L133.215 52.9559ZM133.262 52.9149L133.926 53.6657L134.264 53.3664V52.9149H133.262ZM143.2 44.9222C143.319 44.9222 143.416 45.0188 143.416 45.138H145.421C145.421 43.9112 144.427 42.9167 143.2 42.9167V44.9222ZM142.984 45.138C142.984 45.0188 143.081 44.9222 143.2 44.9222V42.9167C141.973 42.9167 140.979 43.9112 140.979 45.138H142.984ZM142.984 49.0374V45.138H140.979V49.0374H142.984ZM143.2 49.2532C143.081 49.2532 142.984 49.1566 142.984 49.0374H140.979C140.979 50.2642 141.973 51.2587 143.2 51.2587V49.2532ZM143.416 49.0374C143.416 49.1566 143.319 49.2532 143.2 49.2532V51.2587C144.427 51.2587 145.421 50.2642 145.421 49.0374H143.416ZM143.416 45.138V49.0374H145.421V45.138H143.416ZM124.682 42.9178H123.7V44.9232H124.682V42.9178ZM126.412 44.6482C126.412 43.6926 125.637 42.9178 124.682 42.9178V44.9232C124.53 44.9232 124.407 44.8001 124.407 44.6482H126.412ZM126.412 49.5293V44.6482H124.407V49.5293H126.412ZM124.682 51.2598C125.637 51.2598 126.412 50.485 126.412 49.5293H124.407C124.407 49.3774 124.53 49.2543 124.682 49.2543V51.2598ZM123.7 51.2598H124.682V49.2543H123.7V51.2598ZM121.97 49.5293C121.97 50.485 122.744 51.2598 123.7 51.2598V49.2543C123.852 49.2543 123.975 49.3774 123.975 49.5293H121.97ZM121.97 44.6482V49.5293H123.975V44.6482H121.97ZM123.7 42.9178C122.744 42.9178 121.97 43.6926 121.97 44.6482H123.975C123.975 44.8001 123.852 44.9232 123.7 44.9232V42.9178ZM136.647 52.81V44.4046H134.642V52.81H136.647ZM136.648 52.914C136.648 52.8722 136.648 52.8305 136.647 52.7889L134.642 52.8311C134.643 52.8586 134.643 52.8863 134.643 52.914H136.648ZM136.647 53.039C136.648 52.9974 136.648 52.9557 136.648 52.914H134.643C134.643 52.9417 134.643 52.9693 134.642 52.9968L136.647 53.039ZM136.647 53.36V53.0179H134.642V53.36H136.647ZM136.521 53.9603C136.602 53.7754 136.647 53.5716 136.647 53.36H134.642C134.642 53.2876 134.657 53.2162 134.686 53.1509L136.521 53.9603ZM131.935 58.5155C134.379 58.1651 136.269 56.1645 136.597 53.6873L134.609 53.4239C134.393 55.06 133.156 56.3144 131.65 56.5304L131.935 58.5155ZM131.474 58.5706C131.679 58.5706 131.88 58.5414 132.071 58.4863L131.514 56.5596C131.502 56.5631 131.489 56.5652 131.474 56.5652V58.5706ZM129.279 56.3272C129.279 57.5276 130.224 58.5706 131.474 58.5706V56.5652C131.407 56.5652 131.285 56.4973 131.285 56.3272H129.279ZM131.474 54.0838C130.224 54.0838 129.279 55.1268 129.279 56.3272H131.285C131.285 56.1571 131.407 56.0892 131.474 56.0892V54.0838ZM131.504 54.084C131.494 54.0838 131.484 54.0838 131.474 54.0838V56.0892C131.474 56.0892 131.475 56.0892 131.476 56.0892L131.504 54.084ZM130.486 54.9827L130.487 55.0996L132.492 55.0736L132.491 54.9566L130.486 54.9827ZM131.381 53.97L131.309 53.9831L131.667 55.9563L131.739 55.9432L131.381 53.97ZM132.215 52.8804C132.172 53.4505 131.769 53.8833 131.343 53.9777L131.777 55.9356C133.138 55.6338 134.111 54.407 134.215 53.0315L132.215 52.8804ZM132.597 52.1642L132.551 52.2052L133.88 53.7067L133.926 53.6657L132.597 52.1642ZM132.259 44.4046V52.9149H134.264V44.4046H132.259ZM133.747 42.9167C132.925 42.9167 132.259 43.5829 132.259 44.4046H134.264C134.264 44.6904 134.033 44.9222 133.747 44.9222V42.9167ZM135.159 42.9167H133.747V44.9222H135.159V42.9167ZM136.647 44.4046C136.647 43.5828 135.981 42.9167 135.159 42.9167V44.9222C134.874 44.9222 134.642 44.6904 134.642 44.4046H136.647Z" fill="#264887" mask="url(#path-36-inside-1_5947_34510)"/>
<defs>
<filter id="filter0_d_5947_34510" x="89.1185" y="108.295" width="82.5095" height="48.2651" filterUnits="userSpaceOnUse" color-interpolation-filters="sRGB">
<feFlood flood-opacity="0" result="BackgroundImageFix"/>
<feColorMatrix in="SourceAlpha" type="matrix" values="0 0 0 0 0 0 0 0 0 0 0 0 0 0 0 0 0 0 127 0" result="hardAlpha"/>
<feOffset dx="-3.375" dy="1.125"/>
<feComposite in2="hardAlpha" operator="out"/>
<feColorMatrix type="matrix" values="0 0 0 0 0 0 0 0 0 0 0 0 0 0 0 0 0 0 0.1 0"/>
<feBlend mode="normal" in2="BackgroundImageFix" result="effect1_dropShadow_5947_34510"/>
<feBlend mode="normal" in="SourceGraphic" in2="effect1_dropShadow_5947_34510" result="shape"/>
</filter>
<filter id="filter1_i_5947_34510" x="104" y="111.024" width="67.6276" height="38.9268" filterUnits="userSpaceOnUse" color-interpolation-filters="sRGB">
<feFlood flood-opacity="0" result="BackgroundImageFix"/>
<feBlend mode="normal" in="SourceGraphic" in2="BackgroundImageFix" result="shape"/>
<feColorMatrix in="SourceAlpha" type="matrix" values="0 0 0 0 0 0 0 0 0 0 0 0 0 0 0 0 0 0 127 0" result="hardAlpha"/>
<feOffset dx="-4.5" dy="-1.125"/>
<feComposite in2="hardAlpha" operator="arithmetic" k2="-1" k3="1"/>
<feColorMatrix type="matrix" values="0 0 0 0 0.854902 0 0 0 0 0.92549 0 0 0 0 0.972549 0 0 0 1 0"/>
<feBlend mode="normal" in2="shape" result="effect1_innerShadow_5947_34510"/>
</filter>
<radialGradient id="paint0_radial_5947_34510" cx="0" cy="0" r="1" gradientUnits="userSpaceOnUse" gradientTransform="translate(133.812 52.4899) rotate(90) scale(22.55)">
<stop stop-color="white"/>
<stop offset="0.465508" stop-color="white" stop-opacity="0.68"/>
<stop offset="1" stop-color="white" stop-opacity="0"/>
</radialGradient>
</defs>
</svg>
