<svg width="24" height="24" viewBox="0 0 24 24" fill="none" xmlns="http://www.w3.org/2000/svg">
<g clip-path="url(#clip0_839_13815)">
<path d="M16.187 3.51101C16.0915 3.42056 15.965 3.37015 15.8335 3.37015C15.702 3.37015 15.5755 3.42056 15.48 3.51101L4.067 14.924C3.97326 15.0178 3.92061 15.1449 3.92061 15.2775C3.92061 15.4101 3.97326 15.5372 4.067 15.631L8.347 19.911C8.44076 20.0047 8.56792 20.0574 8.7005 20.0574C8.83308 20.0574 8.96024 20.0047 9.054 19.911L20.467 8.50001C20.5607 8.40624 20.6134 8.27909 20.6134 8.14651C20.6134 8.01393 20.5607 7.88677 20.467 7.79301L16.187 3.51101Z" fill="#40526D"/>
<path d="M3 16.71C2.93942 16.6498 2.86443 16.6061 2.78217 16.5831C2.69991 16.5601 2.61313 16.5585 2.5301 16.5786C2.44707 16.5986 2.37057 16.6396 2.30788 16.6976C2.24519 16.7557 2.19841 16.8288 2.172 16.91L0.032001 23.33C0.00247214 23.4181 -0.00194202 23.5126 0.0192534 23.6031C0.0404489 23.6935 0.086416 23.7762 0.152001 23.842C0.218168 23.907 0.300862 23.9526 0.391117 23.9739C0.481372 23.9953 0.575744 23.9915 0.664001 23.963L7.084 21.824C7.16542 21.7977 7.23872 21.7509 7.29689 21.6881C7.35505 21.6254 7.39614 21.5487 7.41621 21.4655C7.43628 21.3823 7.43466 21.2954 7.41151 21.213C7.38836 21.1306 7.34446 21.0556 7.284 20.995L3 16.71Z" fill="#40526D"/>
<path d="M22.968 1.017C22.296 0.375851 21.4028 0.0181427 20.474 0.0181427C19.5452 0.0181427 18.652 0.375851 17.98 1.017L17.268 1.73C17.1743 1.82377 17.1216 1.95092 17.1216 2.0835C17.1216 2.21608 17.1743 2.34324 17.268 2.437L21.547 6.717C21.6408 6.81074 21.7679 6.8634 21.9005 6.8634C22.0331 6.8634 22.1602 6.81074 22.254 6.717L22.968 6C23.6272 5.33838 23.9973 4.44247 23.9973 3.5085C23.9973 2.57453 23.6272 1.67863 22.968 1.017Z" fill="#40526D"/>
</g>
<defs>
<clipPath id="clip0_839_13815">
<rect width="24" height="24" fill="white"/>
</clipPath>
</defs>
</svg>
