<svg width="125" height="125" viewBox="0 0 125 125" fill="none" xmlns="http://www.w3.org/2000/svg">
<path d="M62.5 125C97.0178 125 125 97.0178 125 62.5C125 27.9822 97.0178 0 62.5 0C27.9822 0 0 27.9822 0 62.5C0 97.0178 27.9822 125 62.5 125Z" fill="#EBF5FB"/>
<path d="M64 113C88.8528 113 109 92.8528 109 68C109 43.1472 88.8528 23 64 23C39.1472 23 19 43.1472 19 68C19 92.8528 39.1472 113 64 113Z" fill="white" stroke="#004590" stroke-width="2" stroke-linecap="round" stroke-linejoin="round" stroke-dasharray="100 7 1 5"/>
<path d="M63.9998 105.501C84.7107 105.501 101.5 88.7111 101.5 68.0003C101.5 47.2895 84.7107 30.5 63.9998 30.5C43.289 30.5 26.4995 47.2895 26.4995 68.0003C26.4995 88.7111 43.289 105.501 63.9998 105.501Z" fill="white"/>
<path d="M63.9997 41.749C72.9649 41.754 81.6312 44.9729 88.4259 50.8214C95.2207 56.6699 99.6936 64.7605 101.033 73.625C101.885 68.2693 101.566 62.7924 100.097 57.5721C98.6278 52.3517 96.0439 47.5121 92.5235 43.387C89.003 39.2619 84.6297 35.9495 79.7051 33.6781C74.7806 31.4067 69.422 30.2305 63.9988 30.2305C58.5757 30.2305 53.2171 31.4067 48.2926 33.6781C43.368 35.9495 38.9947 39.2619 35.4742 43.387C31.9537 47.5121 29.3698 52.3517 27.9007 57.5721C26.4316 62.7924 26.1123 68.2693 26.9647 73.625C28.3041 64.7602 32.7773 56.6693 39.5725 50.8208C46.3676 44.9722 55.0343 41.7536 63.9997 41.749Z" fill="#EBF5FB"/>
<path d="M63.9998 105.501C84.7107 105.501 101.5 88.7111 101.5 68.0003C101.5 47.2895 84.7107 30.5 63.9998 30.5C43.289 30.5 26.4995 47.2895 26.4995 68.0003C26.4995 88.7111 43.289 105.501 63.9998 105.501Z" stroke="#004590" stroke-width="2" stroke-linecap="round" stroke-linejoin="round"/>
<path d="M63.9998 105.501C84.7107 105.501 101.5 88.7111 101.5 68.0003C101.5 47.2895 84.7107 30.5 63.9998 30.5C43.289 30.5 26.4995 47.2895 26.4995 68.0003C26.4995 88.7111 43.289 105.501 63.9998 105.501Z" stroke="#004590" stroke-width="2" stroke-linecap="round" stroke-linejoin="round"/>
<path d="M96.4992 68.002H91.5" stroke="#004590" stroke-width="2" stroke-linecap="round" stroke-linejoin="round"/>
<path d="M86.9807 90.9837L83.4443 87.4492" stroke="#004590" stroke-width="2" stroke-linecap="round" stroke-linejoin="round"/>
<path d="M64.0005 100.501V95.5" stroke="#004590" stroke-width="2" stroke-linecap="round" stroke-linejoin="round"/>
<path d="M41.0176 90.9837L44.5539 87.4492" stroke="#004590" stroke-width="2" stroke-linecap="round" stroke-linejoin="round"/>
<path d="M31.4985 68.002H36.4977" stroke="#004590" stroke-width="2" stroke-linecap="round" stroke-linejoin="round"/>
<path d="M41.0176 45.0195L44.5539 48.554" stroke="#004590" stroke-width="2" stroke-linecap="round" stroke-linejoin="round"/>
<path d="M86.9807 45.0195L83.4443 48.554" stroke="#004590" stroke-width="2" stroke-linecap="round" stroke-linejoin="round"/>
<path d="M67.4594 67.3084H60.5376V41.6855C60.5376 41.231 60.6271 40.781 60.801 40.3611C60.975 39.9412 61.2299 39.5597 61.5513 39.2383C61.8727 38.9169 62.2542 38.662 62.6741 38.4881C63.094 38.3141 63.544 38.2246 63.9985 38.2246C64.453 38.2246 64.903 38.3141 65.3229 38.4881C65.7428 38.662 66.1244 38.9169 66.4457 39.2383C66.7671 39.5597 67.022 39.9412 67.196 40.3611C67.3699 40.781 67.4594 41.231 67.4594 41.6855V67.3084Z" fill="#D32D27" stroke="#004590" stroke-width="2" stroke-linecap="round" stroke-linejoin="round"/>
<path d="M61.9233 70.7265L65.8486 66.8086L78.233 79.1948C78.739 79.7169 79.0194 80.4169 79.0138 81.1439C79.0081 81.871 78.7168 82.5666 78.2027 83.0807C77.6886 83.5948 76.993 83.8861 76.266 83.8917C75.5389 83.8974 74.8389 83.617 74.3168 83.1109L61.9233 70.7265Z" fill="white" stroke="#004590" stroke-width="2" stroke-linecap="round" stroke-linejoin="round"/>
<path d="M64.0004 72.1541C66.2947 72.1541 68.1546 70.2942 68.1546 67.9999C68.1546 65.7056 66.2947 63.8457 64.0004 63.8457C61.7061 63.8457 59.8462 65.7056 59.8462 67.9999C59.8462 70.2942 61.7061 72.1541 64.0004 72.1541Z" fill="white" stroke="#004590" stroke-width="2" stroke-linecap="round" stroke-linejoin="round"/>
<path d="M116.3 23.668H85.6986C84.2082 23.668 83 24.8762 83 26.3665V51.3445C83 52.8349 84.2082 54.0431 85.6986 54.0431H116.3C117.791 54.0431 118.999 52.8349 118.999 51.3445V26.3665C118.999 24.8762 117.791 23.668 116.3 23.668Z" fill="#F0C936"/>
<path d="M119 26.6431C119.001 26.2528 118.925 25.866 118.776 25.5051C118.628 25.1442 118.409 24.8161 118.133 24.5398C117.858 24.2634 117.53 24.0442 117.169 23.8946C116.809 23.745 116.422 23.668 116.032 23.668H85.9753C85.1874 23.6698 84.4324 23.984 83.8759 24.5418C83.3194 25.0995 83.0068 25.8552 83.0068 26.6431V33.3828C83.0068 32.359 83.4135 31.3771 84.1375 30.6532C84.8614 29.9292 85.8433 29.5225 86.8671 29.5225H115.14C116.164 29.5225 117.146 29.9292 117.87 30.6532C118.594 31.3771 119 32.359 119 33.3828V26.6431Z" fill="#FAE8A7"/>
<path d="M116.3 23.668H85.6986C84.2082 23.668 83 24.8762 83 26.3665V51.3445C83 52.8349 84.2082 54.0431 85.6986 54.0431H116.3C117.791 54.0431 118.999 52.8349 118.999 51.3445V26.3665C118.999 24.8762 117.791 23.668 116.3 23.668Z" stroke="#004590" stroke-width="2" stroke-linecap="round" stroke-linejoin="round"/>
<path d="M101.001 42.6292C103.084 42.6292 104.773 40.9401 104.773 38.8566C104.773 36.773 103.084 35.084 101.001 35.084C98.9171 35.084 97.228 36.773 97.228 38.8566C97.228 40.9401 98.9171 42.6292 101.001 42.6292Z" fill="#004590" stroke="#004590" stroke-width="2" stroke-linecap="round" stroke-linejoin="round"/>
<path d="M108.071 23.6698V17.366C108.084 16.4292 107.911 15.4992 107.561 14.6299C107.212 13.7607 106.693 12.9696 106.035 12.3026C105.377 11.6355 104.593 11.1059 103.729 10.7444C102.864 10.3829 101.937 10.1967 101 10.1967C100.063 10.1967 99.1356 10.3829 98.2713 10.7444C97.407 11.1059 96.6231 11.6355 95.9652 12.3026C95.3074 12.9696 94.7886 13.7607 94.439 14.6299C94.0895 15.4992 93.9162 16.4292 93.9291 17.366V23.6698H87.4971V17.366C87.5326 13.8089 88.9706 10.4095 91.4986 7.90674C94.0265 5.40395 97.4401 4 100.997 4C104.555 4 107.968 5.40395 110.496 7.90674C113.024 10.4095 114.462 13.8089 114.498 17.366V23.6698H108.071Z" fill="#B5D9F1" stroke="#004590" stroke-width="2" stroke-linecap="round" stroke-linejoin="round"/>
<rect x="91" y="115" width="4.16667" height="4.16667" stroke="#C2E0F4" stroke-width="2" stroke-linecap="round" stroke-linejoin="round"/>
<rect x="28.8364" y="16.9414" width="4.16667" height="4.16667" transform="rotate(-45 28.8364 16.9414)" stroke="#C2E0F4" stroke-width="2" stroke-linecap="round" stroke-linejoin="round"/>
<rect x="3" y="31.7188" width="4.16667" height="4.16667" stroke="#C2E0F4" stroke-width="2" stroke-linecap="round" stroke-linejoin="round"/>
<path d="M119.174 62.1736L123.133 66.1326" stroke="#C2E0F4" stroke-width="2" stroke-linecap="round"/>
<path d="M122.993 62.1736L119.034 66.1326" stroke="#C2E0F4" stroke-width="2" stroke-linecap="round"/>
</svg>
