<svg width="83" height="64" viewBox="0 0 83 64" fill="none" xmlns="http://www.w3.org/2000/svg">
<rect width="83" height="64" rx="4" fill="white"/>
<path d="M39.4411 5.83796C38.2585 5.85279 37.0933 6.11856 36.0227 6.61758C34.9522 7.11661 34.001 7.83746 33.2322 8.73219C33.0806 8.92237 32.9301 9.11632 32.7805 9.31406C32.058 10.325 31.5729 11.4854 31.3609 12.7095C31.149 13.9336 31.2156 15.1901 31.556 16.3862C31.8963 17.5823 32.5017 18.6874 33.3272 19.6199C34.1528 20.5523 35.1775 21.2883 36.3257 21.7734L36.5229 35.781C36.5257 35.9291 36.5857 36.0705 36.6902 36.1758L39.4919 38.9029C39.5456 38.9554 39.6093 38.9968 39.6792 39.0247C39.749 39.0526 39.8237 39.0663 39.8989 39.0651C39.9741 39.0639 40.0483 39.0478 40.1171 39.0178C40.186 38.9878 40.2481 38.9444 40.3 38.8901L43.0159 36.104C43.1216 35.9943 43.1813 35.8484 43.1829 35.6961L43.1357 32.346L41.4487 30.713L43.0942 29.0318L41.4041 27.3875L43.0398 25.719L42.9875 21.6991C44.7257 20.9149 46.1394 19.5579 46.9915 17.8556C47.8435 16.1534 48.0821 14.2094 47.6671 12.3499C47.2522 10.4904 46.209 8.82842 44.7125 7.64277C43.216 6.45712 41.3573 5.81993 39.4482 5.83808L39.4411 5.83796ZM39.9166 14.9866C39.4516 15.0554 38.9762 14.9851 38.5506 14.7846C38.1251 14.584 37.7684 14.2623 37.5258 13.8599C37.2832 13.4576 37.1655 12.9928 37.1877 12.5243C37.2098 12.0559 37.3708 11.6047 37.6502 11.228C37.9296 10.8513 38.3149 10.5659 38.7574 10.408C39.1999 10.25 39.6797 10.2266 40.1362 10.3407C40.5926 10.4547 41.0051 10.7012 41.3216 11.0488C41.6381 11.3964 41.8443 11.8296 41.9142 12.2936C42.0059 12.9153 41.8474 13.5475 41.4731 14.0521C41.0989 14.5567 40.5393 14.8926 39.9166 14.9866ZM39.4411 5.83796C38.2585 5.85279 37.0933 6.11856 36.0227 6.61758C34.9522 7.11661 34.001 7.83746 33.2322 8.73219C33.0806 8.92237 32.9301 9.11632 32.7805 9.31406C32.058 10.325 31.5729 11.4854 31.3609 12.7095C31.149 13.9336 31.2156 15.1901 31.556 16.3862C31.8963 17.5823 32.5017 18.6874 33.3272 19.6199C34.1528 20.5523 35.1775 21.2883 36.3257 21.7734L36.5229 35.781C36.5257 35.9291 36.5857 36.0705 36.6902 36.1758L39.4919 38.9029C39.5456 38.9554 39.6093 38.9968 39.6792 39.0247C39.749 39.0526 39.8237 39.0663 39.8989 39.0651C39.9741 39.0639 40.0483 39.0478 40.1171 39.0178C40.186 38.9878 40.2481 38.9444 40.3 38.8901L43.0159 36.104C43.1216 35.9943 43.1813 35.8484 43.1829 35.6961L43.1357 32.346L41.4487 30.713L43.0942 29.0318L41.4041 27.3875L43.0398 25.719L42.9875 21.6991C44.7257 20.9149 46.1394 19.5579 46.9915 17.8556C47.8435 16.1534 48.0821 14.2094 47.6671 12.3499C47.2522 10.4904 46.209 8.82842 44.7125 7.64277C43.216 6.45712 41.3573 5.81993 39.4482 5.83808L39.4411 5.83796ZM39.9166 14.9866C39.4516 15.0554 38.9762 14.9851 38.5506 14.7846C38.1251 14.584 37.7684 14.2623 37.5258 13.8599C37.2832 13.4576 37.1655 12.9928 37.1877 12.5243C37.2098 12.0559 37.3708 11.6047 37.6502 11.228C37.9296 10.8513 38.3149 10.5659 38.7574 10.408C39.1999 10.25 39.6797 10.2266 40.1362 10.3407C40.5926 10.4547 41.0051 10.7012 41.3216 11.0488C41.6381 11.3964 41.8443 11.8296 41.9142 12.2936C42.0059 12.9153 41.8474 13.5475 41.4731 14.0521C41.0989 14.5567 40.5393 14.8926 39.9166 14.9866Z" fill="white"/>
<path d="M47.8686 15.2817C47.2628 13.4689 46.0491 11.9186 44.4323 10.892C42.8154 9.86544 40.8942 9.42545 38.9926 9.64622C37.091 9.86699 35.3252 10.735 33.9929 12.1039C32.6607 13.4729 31.8434 15.259 31.6789 17.1612L31.6804 17.1406C31.2664 15.9011 31.1522 14.5821 31.3475 13.2914C31.5427 12.0008 32.0416 10.7752 32.8035 9.71503C32.9522 9.51339 33.1039 9.32309 33.2556 9.1328C34.3996 7.80059 35.9387 6.86555 37.6514 6.46225C39.3641 6.05895 41.1621 6.20819 42.7866 6.88848C44.4111 7.56876 45.7784 8.74503 46.6916 10.248C47.6049 11.751 48.0171 13.5031 47.8688 15.2523" fill="white"/>
<path d="M39.4596 6.23639C38.2771 6.25123 37.1118 6.517 36.0413 7.01602C34.9708 7.51505 34.0195 8.2359 33.2508 9.13062C33.0992 9.3208 32.9486 9.51476 32.799 9.7125C32.0766 10.7234 31.5914 11.8838 31.3795 13.1079C31.1675 14.332 31.2342 15.5885 31.5745 16.7846C31.9149 17.9807 32.5202 19.0859 33.3458 20.0183C34.1714 20.9508 35.1961 21.6867 36.3442 22.1718L36.5415 36.1795C36.5443 36.3275 36.6042 36.4689 36.7088 36.5743L39.5104 39.3013C39.5642 39.3539 39.6278 39.3953 39.6977 39.4231C39.7676 39.451 39.8423 39.4647 39.9175 39.4635C39.9927 39.4624 40.0669 39.4463 40.1357 39.4162C40.2045 39.3862 40.2667 39.3428 40.3185 39.2886L43.0345 36.5024C43.1401 36.3927 43.1998 36.2469 43.2014 36.0946L43.1543 32.7444L41.4672 31.1114L43.1127 29.4302L41.4226 27.7859L43.0584 26.1174L43.0061 22.0975C44.7443 21.3134 46.158 19.9563 47.01 18.2541C47.8621 16.5518 48.1006 14.6079 47.6857 12.7484C47.2708 10.8888 46.2276 9.22686 44.7311 8.04121C43.2346 6.85556 41.3759 6.21837 39.4667 6.23652L39.4596 6.23639ZM39.9352 15.385C39.4701 15.4539 38.9947 15.3836 38.5692 15.183C38.1436 14.9825 37.787 14.6607 37.5444 14.2584C37.3018 13.856 37.1841 13.3913 37.2062 12.9228C37.2284 12.4543 37.3893 12.0032 37.6687 11.6265C37.9481 11.2498 38.3335 10.9644 38.776 10.8064C39.2185 10.6485 39.6983 10.6251 40.1547 10.7391C40.6111 10.8532 41.0237 11.0996 41.3402 11.4472C41.6566 11.7948 41.8629 12.228 41.9327 12.692C42.0245 13.3138 41.8659 13.9459 41.4917 14.4505C41.1174 14.9551 40.5579 15.2911 39.9352 15.385V15.385Z" stroke="#283952" stroke-width="1.5" stroke-linecap="round" stroke-linejoin="round"/>
<path d="M5.65918 55.2754H7.42285V52.0146H9.59668C11.5996 52.0146 12.9531 50.6885 12.9531 48.7197V48.7061C12.9531 46.7305 11.5996 45.4111 9.59668 45.4111H5.65918V55.2754ZM9.16602 46.8535C10.4307 46.8535 11.1689 47.5303 11.1689 48.7129V48.7266C11.1689 49.9092 10.4307 50.5928 9.16602 50.5928H7.42285V46.8535H9.16602ZM16.4873 55.3984C17.4717 55.3984 18.2646 54.9746 18.6748 54.25H18.791V55.2754H20.4727V50.1689C20.4727 48.5898 19.3926 47.6602 17.4717 47.6602C15.6943 47.6602 14.4912 48.4941 14.3271 49.752L14.3203 49.8135H15.9268L15.9336 49.7861C16.1045 49.2939 16.6104 49.0137 17.3896 49.0137C18.3057 49.0137 18.791 49.4238 18.791 50.1689V50.8115L16.8701 50.9277C15.0518 51.0371 14.0332 51.8164 14.0332 53.1494V53.1631C14.0332 54.5234 15.0654 55.3984 16.4873 55.3984ZM15.7148 53.0811V53.0674C15.7148 52.4521 16.1592 52.1035 17.1094 52.042L18.791 51.9326V52.5342C18.791 53.4229 18.0322 54.0928 17.0068 54.0928C16.2549 54.0928 15.7148 53.7168 15.7148 53.0811ZM25.3398 55.4258C27.1787 55.4258 28.5117 54.4756 28.5117 53.0537V53.04C28.5117 51.9531 27.8213 51.3311 26.3584 51.0029L25.1484 50.7363C24.3418 50.5518 24.0273 50.2852 24.0273 49.8477V49.8408C24.0273 49.2803 24.5742 48.9111 25.333 48.9111C26.1328 48.9111 26.625 49.2939 26.748 49.7656L26.7549 49.7861H28.3545V49.7725C28.2451 48.5625 27.1582 47.6602 25.3398 47.6602C23.5762 47.6602 22.3457 48.5898 22.3457 49.9365V49.9434C22.3457 51.0439 23.0225 51.7139 24.4443 52.0283L25.6543 52.3018C26.4746 52.4863 26.8027 52.7734 26.8027 53.2109V53.2246C26.8027 53.7852 26.2148 54.168 25.3672 54.168C24.5195 54.168 24.0205 53.8057 23.8428 53.2861L23.8359 53.2725H22.1475V53.2861C22.291 54.5508 23.4395 55.4258 25.3398 55.4258ZM32.9141 55.4258C34.7529 55.4258 36.0859 54.4756 36.0859 53.0537V53.04C36.0859 51.9531 35.3955 51.3311 33.9326 51.0029L32.7227 50.7363C31.916 50.5518 31.6016 50.2852 31.6016 49.8477V49.8408C31.6016 49.2803 32.1484 48.9111 32.9072 48.9111C33.707 48.9111 34.1992 49.2939 34.3223 49.7656L34.3291 49.7861H35.9287V49.7725C35.8193 48.5625 34.7324 47.6602 32.9141 47.6602C31.1504 47.6602 29.9199 48.5898 29.9199 49.9365V49.9434C29.9199 51.0439 30.5967 51.7139 32.0186 52.0283L33.2285 52.3018C34.0488 52.4863 34.377 52.7734 34.377 53.2109V53.2246C34.377 53.7852 33.7891 54.168 32.9414 54.168C32.0938 54.168 31.5947 53.8057 31.417 53.2861L31.4102 53.2725H29.7217V53.2861C29.8652 54.5508 31.0137 55.4258 32.9141 55.4258ZM39.0186 55.2754H40.7822L42.2314 49.8613H42.3477L43.8037 55.2754H45.5879L47.6113 47.8037H45.9229L44.6855 53.416H44.5693L43.1201 47.8037H41.5L40.0645 53.416H39.9482L38.7041 47.8037H36.9951L39.0186 55.2754ZM52.0205 55.4258C54.2559 55.4258 55.6162 53.9629 55.6162 51.543V51.5293C55.6162 49.123 54.249 47.6602 52.0205 47.6602C49.7988 47.6602 48.4248 49.1299 48.4248 51.5293V51.543C48.4248 53.9629 49.7783 55.4258 52.0205 55.4258ZM52.0205 54.0449C50.8379 54.0449 50.1611 53.1221 50.1611 51.5498V51.5361C50.1611 49.9639 50.8379 49.0342 52.0205 49.0342C53.1963 49.0342 53.873 49.9639 53.873 51.5361V51.5498C53.873 53.1221 53.2031 54.0449 52.0205 54.0449ZM57.3252 55.2754H59.0273V50.9346C59.0273 49.8682 59.7725 49.1914 60.9072 49.1914C61.2012 49.1914 61.4814 49.2324 61.7549 49.2871V47.7627C61.5908 47.7148 61.3242 47.6807 61.0645 47.6807C60.0801 47.6807 59.3965 48.1523 59.1436 48.9521H59.0273V47.8037H57.3252V55.2754ZM65.6514 55.3984C66.7041 55.3984 67.5107 54.9199 67.9209 54.1064H68.0371V55.2754H69.7461V44.9121H68.0371V48.9932H67.9209C67.5312 48.1865 66.6768 47.6807 65.6514 47.6807C63.7578 47.6807 62.5889 49.1572 62.5889 51.5361V51.5498C62.5889 53.915 63.7783 55.3984 65.6514 55.3984ZM66.1846 53.9629C65.0225 53.9629 64.3184 53.0537 64.3184 51.5498V51.5361C64.3184 50.0322 65.0293 49.1162 66.1846 49.1162C67.3398 49.1162 68.0645 50.0391 68.0645 51.5361V51.5498C68.0645 53.0469 67.3467 53.9629 66.1846 53.9629ZM74.709 55.4258C76.5479 55.4258 77.8809 54.4756 77.8809 53.0537V53.04C77.8809 51.9531 77.1904 51.3311 75.7275 51.0029L74.5176 50.7363C73.7109 50.5518 73.3965 50.2852 73.3965 49.8477V49.8408C73.3965 49.2803 73.9434 48.9111 74.7021 48.9111C75.502 48.9111 75.9941 49.2939 76.1172 49.7656L76.124 49.7861H77.7236V49.7725C77.6143 48.5625 76.5273 47.6602 74.709 47.6602C72.9453 47.6602 71.7148 48.5898 71.7148 49.9365V49.9434C71.7148 51.0439 72.3916 51.7139 73.8135 52.0283L75.0234 52.3018C75.8438 52.4863 76.1719 52.7734 76.1719 53.2109V53.2246C76.1719 53.7852 75.584 54.168 74.7363 54.168C73.8887 54.168 73.3896 53.8057 73.2119 53.2861L73.2051 53.2725H71.5166V53.2861C71.6602 54.5508 72.8086 55.4258 74.709 55.4258Z" fill="#1B283C"/>
</svg>
