<svg width="48" height="48" viewBox="0 0 48 48" fill="none" xmlns="http://www.w3.org/2000/svg">
<path d="M48 24C48 30.3652 45.4714 36.4697 40.9706 40.9706C36.4697 45.4714 30.3652 48 24 48C17.6348 48 11.5303 45.4714 7.02942 40.9705C2.52855 36.4697 0 30.3652 0 24C0 17.6348 2.52855 11.5303 7.02942 7.02946C11.5303 2.52859 17.6348 2.03197e-05 24 0C30.3652 0 36.4697 2.52856 40.9706 7.02943C45.4714 11.5303 48 17.6348 48 24Z" fill="white"/>
<path d="M46.1197 24.0003C46.1197 29.8667 43.7892 35.4928 39.641 39.641C35.4928 43.7892 29.8667 46.1197 24.0002 46.1197C18.1338 46.1196 12.5076 43.7892 8.35946 39.641C4.21128 35.4928 1.88086 29.8667 1.88086 24.0003C1.88086 18.1338 4.21128 12.5077 8.35946 8.35951C12.5076 4.21132 18.1338 1.88088 24.0002 1.88086C29.8667 1.88086 35.4928 4.21129 39.641 8.35949C43.7892 12.5077 46.1197 18.1338 46.1197 24.0003Z" fill="url(#paint0_radial_2612_86421)"/>
<path d="M24.0004 3.03418C23.9581 3.03408 23.9161 3.04235 23.8769 3.05853C23.8377 3.0747 23.8021 3.09846 23.7721 3.12843C23.7422 3.1584 23.7184 3.194 23.7022 3.23318C23.6861 3.27236 23.6778 3.31435 23.6779 3.35673V7.0765C23.6778 7.11889 23.6861 7.16087 23.7022 7.20005C23.7184 7.23923 23.7422 7.27483 23.7721 7.3048C23.8021 7.33477 23.8377 7.35853 23.8769 7.3747C23.9161 7.39088 23.9581 7.39915 24.0004 7.39905C24.0428 7.39913 24.0848 7.39084 24.124 7.37466C24.1631 7.35848 24.1987 7.33472 24.2287 7.30475C24.2586 7.27478 24.2823 7.23919 24.2985 7.20002C24.3147 7.16085 24.3229 7.11887 24.3228 7.0765V3.35666C24.3229 3.31428 24.3147 3.27231 24.2985 3.23314C24.2823 3.19398 24.2586 3.15839 24.2286 3.12843C24.1986 3.09847 24.163 3.07472 24.1239 3.05854C24.0847 3.04237 24.0427 3.03409 24.0004 3.03418H24.0004ZM21.8907 3.16749C21.8689 3.16516 21.8469 3.16526 21.8251 3.1678C21.7829 3.1721 21.742 3.18469 21.7048 3.20484C21.6675 3.22498 21.6346 3.2523 21.6079 3.28521C21.5812 3.31812 21.5612 3.35598 21.5492 3.39661C21.5372 3.43725 21.5333 3.47985 21.5378 3.52199L21.7004 5.07821C21.7047 5.12037 21.7173 5.16126 21.7374 5.19854C21.7575 5.23582 21.7849 5.26875 21.8178 5.29545C21.8507 5.32214 21.8885 5.34208 21.9292 5.3541C21.9698 5.36612 22.0124 5.37001 22.0546 5.36552C22.0967 5.36122 22.1376 5.34863 22.1749 5.32847C22.2122 5.30832 22.2451 5.281 22.2718 5.24808C22.2985 5.21516 22.3185 5.17729 22.3305 5.13665C22.3425 5.09601 22.3464 5.05339 22.3419 5.01125L22.1794 3.45511C22.1719 3.38119 22.139 3.31216 22.0864 3.25973C22.0337 3.20731 21.9645 3.17472 21.8906 3.16749H21.8907ZM26.1249 3.16902C26.051 3.17621 25.9818 3.20876 25.9291 3.26116C25.8764 3.31356 25.8435 3.38257 25.8359 3.45649L25.6723 5.01255C25.6678 5.0547 25.6716 5.09732 25.6836 5.13797C25.6956 5.17862 25.7155 5.21651 25.7422 5.24944C25.7689 5.28238 25.8018 5.30972 25.8391 5.32991C25.8764 5.35009 25.9173 5.36271 25.9594 5.36705C26.0016 5.37157 26.0442 5.36772 26.0848 5.35573C26.1254 5.34374 26.1633 5.32384 26.1962 5.29717C26.2292 5.2705 26.2565 5.2376 26.2767 5.20034C26.2968 5.16307 26.3095 5.1222 26.3138 5.08005L26.4774 3.52383C26.4819 3.48169 26.4781 3.43908 26.4661 3.39844C26.4541 3.35779 26.4342 3.31992 26.4075 3.287C26.3808 3.25407 26.3479 3.22674 26.3106 3.20658C26.2733 3.18641 26.2324 3.1738 26.1903 3.16948C26.1685 3.16726 26.1466 3.16713 26.1248 3.1691L26.1249 3.16902ZM19.7234 3.48177C19.6755 3.48189 19.6283 3.49271 19.5851 3.51344C19.5419 3.53417 19.5038 3.56428 19.4738 3.60158C19.4437 3.63887 19.4223 3.68241 19.4112 3.72902C19.4001 3.77563 19.3996 3.82413 19.4096 3.87098L20.1799 7.51014C20.1886 7.55162 20.2054 7.59097 20.2293 7.62594C20.2533 7.66091 20.2839 7.69081 20.3194 7.71392C20.3549 7.73703 20.3947 7.75289 20.4363 7.7606C20.478 7.76831 20.5208 7.76771 20.5622 7.75884C20.6037 7.75016 20.6431 7.73338 20.678 7.70945C20.713 7.68553 20.7429 7.65494 20.766 7.61943C20.7891 7.58392 20.805 7.5442 20.8127 7.50254C20.8204 7.46089 20.8199 7.41811 20.811 7.37668L20.0406 3.73744C20.0254 3.66473 19.9855 3.59952 19.9277 3.55287C19.8699 3.50623 19.7977 3.48103 19.7234 3.48154V3.48177ZM28.292 3.48483C28.2177 3.4842 28.1455 3.50932 28.0877 3.55591C28.0298 3.60251 27.9899 3.66771 27.9747 3.74042L27.2016 7.37905C27.1927 7.42049 27.1921 7.46327 27.1998 7.50495C27.2075 7.54662 27.2233 7.58637 27.2464 7.62191C27.2695 7.65745 27.2993 7.68807 27.3343 7.71203C27.3693 7.73599 27.4086 7.75281 27.4501 7.76152C27.4915 7.77042 27.5343 7.77104 27.576 7.76337C27.6176 7.75569 27.6574 7.73985 27.6929 7.71678C27.7284 7.6937 27.7591 7.66383 27.783 7.62888C27.807 7.59393 27.8238 7.5546 27.8325 7.51313L28.6056 3.87442C28.6156 3.82759 28.6151 3.77909 28.6041 3.73248C28.593 3.68587 28.5716 3.64232 28.5416 3.60501C28.5115 3.5677 28.4735 3.53756 28.4304 3.51681C28.3872 3.49606 28.3399 3.48522 28.292 3.48506V3.48483ZM17.6551 4.06497C17.6121 4.06107 17.5688 4.06613 17.5278 4.07983C17.4875 4.09283 17.4501 4.11367 17.4179 4.14115C17.3856 4.16863 17.3591 4.20221 17.3398 4.23996C17.3206 4.27771 17.309 4.31889 17.3057 4.36113C17.3024 4.40338 17.3075 4.44585 17.3207 4.48612L17.8041 5.97431C17.8172 6.01464 17.838 6.05202 17.8655 6.08427C17.893 6.11653 17.9266 6.14305 17.9643 6.16229C18.0021 6.18153 18.0433 6.19312 18.0856 6.1964C18.1278 6.19968 18.1703 6.19458 18.2106 6.1814C18.2509 6.16839 18.2883 6.14754 18.3206 6.12005C18.3528 6.09255 18.3793 6.05896 18.3986 6.02119C18.4178 5.98342 18.4294 5.94223 18.4326 5.89997C18.4359 5.85772 18.4308 5.81523 18.4176 5.77495L17.9341 4.28685C17.9146 4.22649 17.8778 4.17322 17.8281 4.13374C17.7785 4.09427 17.7183 4.07034 17.6551 4.06497ZM30.3486 4.06573C30.2854 4.07111 30.2252 4.09505 30.1756 4.13452C30.126 4.174 30.0891 4.22726 30.0696 4.28761L29.5858 5.77564C29.5726 5.81591 29.5675 5.85839 29.5708 5.90064C29.5741 5.94289 29.5857 5.98407 29.6049 6.02183C29.6241 6.05959 29.6506 6.09318 29.6829 6.12067C29.7151 6.14815 29.7525 6.169 29.7928 6.18201C29.8331 6.1952 29.8756 6.2003 29.9178 6.19703C29.9601 6.19376 30.0012 6.18218 30.039 6.16295C30.0768 6.14373 30.1103 6.11723 30.1378 6.08499C30.1653 6.05275 30.1862 6.01539 30.1992 5.97507L30.683 4.48689C30.6962 4.44662 30.7013 4.40415 30.698 4.3619C30.6948 4.31966 30.6832 4.27848 30.664 4.24072C30.6447 4.20296 30.6182 4.16937 30.586 4.14188C30.5538 4.11439 30.5164 4.09354 30.4761 4.08052C30.435 4.06714 30.3917 4.06211 30.3486 4.06573ZM15.6098 4.8135C15.5666 4.81436 15.5241 4.8239 15.4847 4.84154C15.4459 4.85868 15.4109 4.88329 15.3817 4.91398C15.3525 4.94466 15.3297 4.98081 15.3145 5.02035C15.2993 5.0599 15.292 5.10205 15.2931 5.1444C15.2943 5.18675 15.3037 5.22847 15.321 5.26714L16.8319 8.66635C16.849 8.7051 16.8736 8.74009 16.9043 8.76931C16.935 8.79853 16.9711 8.82139 17.0107 8.8366C17.0502 8.8518 17.0924 8.85905 17.1347 8.85792C17.1771 8.85679 17.2188 8.8473 17.2575 8.83C17.2963 8.81288 17.3312 8.78828 17.3605 8.7576C17.3897 8.72692 17.4126 8.69077 17.4278 8.65123C17.443 8.61168 17.4503 8.56952 17.4492 8.52717C17.448 8.48481 17.4386 8.44309 17.4213 8.4044L15.9104 5.00527C15.8847 4.94723 15.8426 4.89805 15.7891 4.86391C15.7356 4.82978 15.6732 4.81221 15.6098 4.81343V4.8135ZM32.417 4.82484C32.3536 4.82362 32.2912 4.84113 32.2377 4.87517C32.1842 4.90922 32.142 4.95828 32.1162 5.01623L30.6007 8.41337C30.5834 8.45203 30.5739 8.49373 30.5727 8.53609C30.5715 8.57844 30.5787 8.62061 30.5939 8.66018C30.609 8.69974 30.6319 8.73593 30.6611 8.76665C30.6902 8.79737 30.7252 8.82202 30.7639 8.8392C30.8026 8.85653 30.8443 8.86606 30.8867 8.86724C30.929 8.86842 30.9712 8.86122 31.0107 8.84605C31.0503 8.83089 31.0865 8.80806 31.1172 8.77888C31.1479 8.7497 31.1726 8.71474 31.1898 8.676L32.7052 5.27902C32.7226 5.24035 32.7321 5.19864 32.7333 5.15628C32.7345 5.11391 32.7273 5.07173 32.7121 5.03216C32.697 4.99259 32.6741 4.9564 32.6449 4.92567C32.6157 4.89494 32.5808 4.87029 32.542 4.85311C32.5026 4.83547 32.4601 4.82586 32.417 4.82484ZM13.7113 5.81793C13.6472 5.81332 13.5831 5.82822 13.5276 5.86069C13.4909 5.8818 13.4587 5.90996 13.4328 5.94355C13.407 5.97715 13.3881 6.01551 13.3771 6.05644C13.3661 6.09738 13.3634 6.14007 13.3689 6.18208C13.3745 6.22409 13.3883 6.26458 13.4096 6.30123L14.1919 7.65633C14.2131 7.69307 14.2412 7.72528 14.2748 7.75111C14.3084 7.77694 14.3468 7.79588 14.3877 7.80684C14.4286 7.8178 14.4713 7.82057 14.5133 7.81499C14.5553 7.80941 14.5958 7.79559 14.6325 7.77431C14.6692 7.7532 14.7014 7.72504 14.7273 7.69145C14.7531 7.65785 14.772 7.61949 14.783 7.57856C14.794 7.53762 14.7967 7.49493 14.7911 7.45292C14.7856 7.41091 14.7717 7.37042 14.7505 7.33377L13.9682 5.97875C13.9419 5.93292 13.9047 5.89427 13.8599 5.86622C13.8151 5.83817 13.7641 5.82159 13.7114 5.81793H13.7113ZM34.2894 5.81793C34.2367 5.82152 34.1857 5.83807 34.1409 5.86611C34.0961 5.89415 34.059 5.93282 34.0327 5.97867L33.2503 7.33377C33.229 7.37043 33.2152 7.41093 33.2096 7.45294C33.204 7.49496 33.2068 7.53766 33.2178 7.57859C33.2288 7.61953 33.2477 7.65789 33.2736 7.69147C33.2994 7.72506 33.3317 7.75321 33.3684 7.77431C33.4051 7.79559 33.4455 7.80941 33.4876 7.81499C33.5296 7.82057 33.5723 7.8178 33.6132 7.80684C33.6541 7.79588 33.6925 7.77694 33.7261 7.75111C33.7597 7.72528 33.7878 7.69307 33.8089 7.65633L34.5913 6.30115C34.6125 6.2645 34.6264 6.22401 34.632 6.182C34.6375 6.14 34.6348 6.0973 34.6238 6.05637C34.6128 6.01543 34.5939 5.97707 34.5681 5.94348C34.5422 5.90988 34.51 5.88172 34.4733 5.86061C34.4176 5.82834 34.3536 5.81348 34.2894 5.81793ZM11.8678 6.96771C11.8036 6.97002 11.7415 6.99144 11.6894 7.02923C11.6551 7.05404 11.626 7.08539 11.6038 7.12149C11.5816 7.15758 11.5667 7.1977 11.56 7.23956C11.5534 7.28141 11.5551 7.32416 11.565 7.36536C11.5749 7.40657 11.5928 7.44541 11.6178 7.47965L13.802 10.4906C13.8269 10.525 13.8582 10.5541 13.8943 10.5763C13.9304 10.5985 13.9706 10.6134 14.0124 10.62C14.0543 10.6267 14.097 10.625 14.1382 10.6151C14.1794 10.6052 14.2183 10.5872 14.2525 10.5623C14.2869 10.5375 14.316 10.5061 14.3382 10.47C14.3604 10.4339 14.3752 10.3938 14.3819 10.352C14.3886 10.3101 14.3869 10.2674 14.377 10.2262C14.3671 10.185 14.3491 10.1462 14.3242 10.1119L12.1399 7.10094C12.109 7.05811 12.068 7.02356 12.0205 7.00034C11.9731 6.97711 11.9207 6.96593 11.8679 6.96778L11.8678 6.96771ZM36.156 6.9841C36.1032 6.98216 36.0508 6.99326 36.0033 7.01642C35.9559 7.03958 35.9149 7.07408 35.8839 7.11688L33.6956 10.125C33.6706 10.1592 33.6526 10.198 33.6426 10.2392C33.6326 10.2804 33.6309 10.3231 33.6375 10.365C33.6441 10.4068 33.6589 10.447 33.6811 10.4831C33.7033 10.5192 33.7323 10.5506 33.7667 10.5755C33.8009 10.6005 33.8397 10.6185 33.8809 10.6284C33.922 10.6384 33.9648 10.6401 34.0066 10.6335C34.0485 10.6269 34.0886 10.6122 34.1248 10.59C34.1609 10.5679 34.1923 10.5388 34.2172 10.5045L36.4054 7.49651C36.4304 7.46229 36.4484 7.42347 36.4583 7.38228C36.4683 7.34109 36.47 7.29835 36.4634 7.25649C36.4568 7.21463 36.442 7.17449 36.4198 7.13837C36.3977 7.10225 36.3686 7.07086 36.3343 7.04601C36.2824 7.00803 36.2203 6.98647 36.156 6.9841ZM10.22 8.34962C10.1777 8.34734 10.1353 8.35347 10.0954 8.36768C10.0555 8.38188 10.0187 8.40387 9.98734 8.43237C9.95579 8.46065 9.93014 8.49489 9.91185 8.53311C9.89357 8.57133 9.88301 8.61279 9.88079 8.6551C9.87857 8.69742 9.88473 8.73975 9.89891 8.77968C9.91309 8.81961 9.93502 8.85634 9.96344 8.88777L11.0104 10.0508C11.0387 10.0823 11.0729 10.108 11.1111 10.1263C11.1494 10.1446 11.1908 10.1551 11.2331 10.1573C11.2755 10.1596 11.3178 10.1534 11.3577 10.1392C11.3976 10.125 11.4344 10.1031 11.4658 10.0746C11.4974 10.0463 11.523 10.0121 11.5413 9.97386C11.5596 9.93563 11.5701 9.89417 11.5724 9.85185C11.5746 9.80953 11.5684 9.76719 11.5542 9.72725C11.5401 9.68732 11.5181 9.65058 11.4897 9.61914L10.4429 8.45619C10.4146 8.42462 10.3804 8.39895 10.3421 8.38066C10.3039 8.36237 10.2624 8.35182 10.2201 8.34962H10.22ZM37.7831 8.35192C37.6976 8.35651 37.6174 8.39487 37.5602 8.45857L36.5133 9.62129C36.4849 9.65271 36.4629 9.68945 36.4487 9.72938C36.4345 9.76932 36.4283 9.81167 36.4305 9.854C36.4327 9.89633 36.4433 9.93781 36.4616 9.97605C36.4799 10.0143 36.5055 10.0485 36.5371 10.0768C36.5685 10.1053 36.6053 10.1272 36.6452 10.1414C36.6851 10.1556 36.7275 10.1617 36.7698 10.1595C36.8121 10.1573 36.8536 10.1467 36.8918 10.1285C36.93 10.1102 36.9643 10.0845 36.9926 10.0529L38.0396 8.89022C38.068 8.85878 38.09 8.82203 38.1041 8.78209C38.1183 8.74215 38.1245 8.6998 38.1223 8.65748C38.12 8.61515 38.1095 8.57368 38.0912 8.53545C38.0729 8.49721 38.0472 8.46296 38.0157 8.43466C37.9843 8.40623 37.9476 8.38428 37.9077 8.37008C37.8678 8.35588 37.8255 8.34971 37.7832 8.35192H37.7831ZM8.64074 9.86661C8.59844 9.86889 8.55699 9.87948 8.51877 9.89778C8.48056 9.91608 8.44632 9.94173 8.41802 9.97326C8.3896 10.0047 8.36766 10.0414 8.35347 10.0814C8.33928 10.1213 8.33312 10.1636 8.33534 10.206C8.33756 10.2483 8.34812 10.2898 8.36641 10.328C8.3847 10.3662 8.41037 10.4005 8.44193 10.4287L11.2066 12.9174C11.238 12.9459 11.2748 12.9678 11.3147 12.982C11.3546 12.9962 11.397 13.0023 11.4393 13.0001C11.4816 12.9979 11.523 12.9873 11.5613 12.969C11.5995 12.9507 11.6337 12.9251 11.662 12.8935C11.6904 12.8621 11.7124 12.8254 11.7266 12.7855C11.7408 12.7455 11.7469 12.7032 11.7447 12.6609C11.7425 12.6186 11.732 12.5771 11.7137 12.5389C11.6954 12.5007 11.6697 12.4664 11.6382 12.4381L8.87343 9.94943C8.842 9.92098 8.80525 9.89902 8.76531 9.88482C8.72536 9.87062 8.683 9.86446 8.64067 9.86669L8.64074 9.86661ZM39.37 9.87757C39.3277 9.87525 39.2853 9.88134 39.2453 9.89551C39.2053 9.90967 39.1686 9.93162 39.1371 9.96008L36.3709 12.4469C36.3393 12.4751 36.3136 12.5093 36.2953 12.5475C36.277 12.5858 36.2664 12.6272 36.2641 12.6695C36.2619 12.7118 36.268 12.7542 36.2821 12.7941C36.2963 12.8341 36.3182 12.8708 36.3465 12.9023C36.3748 12.9339 36.409 12.9595 36.4473 12.9778C36.4855 12.9962 36.527 13.0067 36.5693 13.009C36.6116 13.0112 36.654 13.0051 36.6939 12.991C36.7339 12.9768 36.7706 12.9549 36.8021 12.9265L39.5685 10.4397C39.6001 10.4114 39.6258 10.3772 39.6441 10.339C39.6624 10.3008 39.673 10.2593 39.6753 10.217C39.6775 10.1747 39.6714 10.1324 39.6572 10.0924C39.6431 10.0525 39.6212 10.0157 39.5928 9.98429C39.5645 9.95271 39.5303 9.92702 39.492 9.9087C39.4538 9.89039 39.4124 9.8798 39.37 9.87757ZM7.3274 11.5555C7.27461 11.5535 7.22216 11.5647 7.17471 11.5879C7.12725 11.6111 7.08625 11.6456 7.05533 11.6885C7.03034 11.7227 7.01235 11.7615 7.00241 11.8027C6.99247 11.8439 6.99076 11.8867 6.9974 11.9285C7.00403 11.9704 7.01888 12.0105 7.04107 12.0467C7.06327 12.0828 7.09238 12.1141 7.12674 12.139L8.39259 13.0586C8.4268 13.0836 8.46562 13.1016 8.50681 13.1115C8.548 13.1215 8.59075 13.1232 8.63261 13.1166C8.67446 13.11 8.7146 13.0951 8.75071 13.0729C8.78682 13.0508 8.81818 13.0217 8.84301 12.9873C8.868 12.9531 8.88598 12.9143 8.89592 12.8731C8.90586 12.8319 8.90757 12.7891 8.90095 12.7473C8.89433 12.7054 8.87951 12.6653 8.85734 12.6292C8.83517 12.593 8.80609 12.5617 8.77176 12.5368L7.50584 11.6171C7.45385 11.5792 7.3917 11.5577 7.3274 11.5555ZM40.6821 11.5672C40.6178 11.5695 40.5557 11.5909 40.5037 11.6287L39.2373 12.5475C39.2029 12.5724 39.1738 12.6037 39.1516 12.6398C39.1294 12.6759 39.1145 12.716 39.1078 12.7579C39.1012 12.7998 39.1028 12.8425 39.1127 12.8837C39.1226 12.9249 39.1406 12.9638 39.1655 12.998C39.1904 13.0324 39.2217 13.0615 39.2578 13.0837C39.2939 13.1059 39.334 13.1208 39.3759 13.1274C39.4177 13.1341 39.4605 13.1324 39.5017 13.1225C39.5429 13.1126 39.5817 13.0946 39.616 13.0697L40.8825 12.1508C40.9168 12.1259 40.9459 12.0946 40.9681 12.0585C40.9903 12.0224 41.0052 11.9823 41.0118 11.9404C41.0185 11.8986 41.0168 11.8559 41.0069 11.8147C40.997 11.7735 40.979 11.7346 40.9541 11.7004C40.9232 11.6576 40.8822 11.623 40.8347 11.5998C40.7873 11.5765 40.7349 11.5653 40.6821 11.5672ZM6.10017 13.3568C6.04746 13.3604 5.99645 13.3769 5.95168 13.4049C5.9069 13.433 5.86975 13.4716 5.8435 13.5175C5.82223 13.5541 5.80841 13.5946 5.80282 13.6366C5.79724 13.6787 5.80001 13.7213 5.81098 13.7623C5.82194 13.8032 5.84088 13.8416 5.86671 13.8752C5.89254 13.9088 5.92475 13.9369 5.96149 13.958L9.18295 15.818C9.2196 15.8392 9.26009 15.8531 9.3021 15.8586C9.34411 15.8642 9.3868 15.8615 9.42774 15.8505C9.46867 15.8395 9.50703 15.8206 9.54063 15.7948C9.57422 15.7689 9.60238 15.7367 9.62349 15.7C9.64477 15.6633 9.65859 15.6228 9.66417 15.5808C9.66975 15.5388 9.66699 15.4961 9.65602 15.4552C9.64506 15.4143 9.62612 15.3759 9.60029 15.3423C9.57446 15.3087 9.54225 15.2805 9.50551 15.2594L6.28404 13.3995C6.22839 13.3672 6.16435 13.3523 6.10017 13.3568ZM41.9007 13.3568C41.8365 13.3521 41.7724 13.3671 41.7168 13.3995L38.4955 15.2594C38.4587 15.2805 38.4265 15.3087 38.4007 15.3423C38.3748 15.3759 38.3559 15.4143 38.3449 15.4552C38.334 15.4961 38.3312 15.5388 38.3368 15.5808C38.3424 15.6228 38.3562 15.6633 38.3775 15.7C38.3986 15.7367 38.4267 15.7689 38.4603 15.7948C38.4939 15.8206 38.5323 15.8395 38.5732 15.8505C38.6142 15.8615 38.6569 15.8642 38.6989 15.8586C38.7409 15.8531 38.7814 15.8392 38.818 15.818L42.0396 13.9581C42.0763 13.937 42.1085 13.9088 42.1343 13.8752C42.1602 13.8417 42.1791 13.8033 42.1901 13.7624C42.201 13.7214 42.2038 13.6787 42.1982 13.6367C42.1926 13.5947 42.1788 13.5542 42.1575 13.5176C42.1312 13.4718 42.094 13.4331 42.0492 13.4051C42.0044 13.3771 41.9534 13.3605 41.9007 13.3568V13.3568ZM5.17212 15.2768C5.1087 15.2754 5.04629 15.2929 4.99277 15.3269C4.93925 15.361 4.89702 15.4101 4.8714 15.4681C4.85405 15.5068 4.84451 15.5485 4.84332 15.5909C4.84213 15.6332 4.84932 15.6754 4.86448 15.715C4.87963 15.7545 4.90246 15.7907 4.93164 15.8215C4.96082 15.8522 4.99578 15.8769 5.03452 15.894L6.46363 16.5315C6.50229 16.5488 6.544 16.5584 6.58636 16.5596C6.62872 16.5608 6.6709 16.5536 6.71047 16.5384C6.75005 16.5233 6.78624 16.5004 6.81696 16.4712C6.84769 16.4421 6.87236 16.4071 6.88954 16.3684C6.90689 16.3297 6.91643 16.288 6.91761 16.2456C6.91879 16.2033 6.9116 16.1611 6.89643 16.1215C6.88127 16.0819 6.85844 16.0457 6.82925 16.015C6.80006 15.9843 6.76509 15.9596 6.72635 15.9425L5.29731 15.305C5.25789 15.2873 5.21531 15.2778 5.17212 15.2769V15.2768ZM42.8349 15.2902C42.7917 15.291 42.7491 15.3006 42.7096 15.3183L41.2802 15.9546C41.2415 15.9718 41.2065 15.9964 41.1772 16.0271C41.148 16.0578 41.1252 16.094 41.11 16.1335C41.0948 16.1731 41.0875 16.2153 41.0887 16.2576C41.0898 16.3 41.0993 16.3417 41.1166 16.3804C41.1338 16.4192 41.1585 16.4541 41.1892 16.4834C41.2199 16.5126 41.2561 16.5354 41.2957 16.5506C41.3353 16.5658 41.3774 16.573 41.4198 16.5719C41.4622 16.5707 41.5039 16.5612 41.5426 16.5439L42.972 15.9074C43.0107 15.8903 43.0457 15.8657 43.0749 15.835C43.1041 15.8042 43.1269 15.7681 43.1421 15.7285C43.1573 15.689 43.1645 15.6468 43.1634 15.6044C43.1622 15.5621 43.1527 15.5204 43.1354 15.4817C43.1098 15.4237 43.0676 15.3746 43.0141 15.3405C42.9606 15.3064 42.8983 15.2889 42.8349 15.2902ZM4.34513 17.2837C4.28196 17.289 4.22176 17.3129 4.17212 17.3523C4.12247 17.3917 4.08558 17.4449 4.06609 17.5053C4.05288 17.5455 4.04774 17.588 4.05098 17.6302C4.05422 17.6725 4.06577 17.7137 4.08497 17.7515C4.10417 17.7892 4.13064 17.8228 4.16286 17.8503C4.19508 17.8779 4.23241 17.8987 4.27273 17.9118L7.80954 19.0642C7.84981 19.0775 7.89229 19.0826 7.93455 19.0794C7.97681 19.0761 8.01801 19.0646 8.05579 19.0454C8.09357 19.0262 8.12719 18.9997 8.1547 18.9675C8.18222 18.9352 8.2031 18.8979 8.21614 18.8575C8.22936 18.8173 8.23449 18.7748 8.23124 18.7325C8.228 18.6903 8.21644 18.6491 8.19724 18.6113C8.17803 18.5736 8.15155 18.54 8.11932 18.5124C8.08709 18.4849 8.04975 18.4641 8.00943 18.451L4.47262 17.2985C4.43155 17.285 4.38819 17.28 4.34513 17.2836V17.2837ZM43.6604 17.2975C43.6173 17.2936 43.574 17.2986 43.533 17.3123L39.9954 18.4623C39.955 18.4753 39.9177 18.4961 39.8854 18.5236C39.8532 18.5511 39.8267 18.5847 39.8075 18.6225C39.7882 18.6603 39.7766 18.7015 39.7734 18.7437C39.7701 18.786 39.7752 18.8284 39.7884 18.8687C39.8015 18.909 39.8223 18.9464 39.8498 18.9786C39.8773 19.0109 39.9109 19.0374 39.9487 19.0566C39.9864 19.0758 40.0276 19.0874 40.0699 19.0906C40.1121 19.0939 40.1546 19.0888 40.1949 19.0756L43.7324 17.9257C43.7727 17.9127 43.8101 17.8919 43.8423 17.8644C43.8746 17.8369 43.9011 17.8033 43.9204 17.7655C43.9396 17.7278 43.9512 17.6866 43.9545 17.6443C43.9578 17.6021 43.9527 17.5596 43.9395 17.5193C43.92 17.4589 43.8831 17.4057 43.8334 17.3662C43.7838 17.3267 43.7236 17.3028 43.6604 17.2974V17.2975ZM3.82989 19.3902C3.75558 19.3896 3.68335 19.4147 3.62548 19.4613C3.5676 19.5079 3.52764 19.5731 3.51239 19.6458C3.50349 19.6873 3.50287 19.73 3.51055 19.7717C3.51824 19.8134 3.53408 19.8531 3.55716 19.8887C3.58025 19.9242 3.61013 19.9549 3.64508 19.9788C3.68004 20.0028 3.71938 20.0196 3.76086 20.0283L5.29141 20.3536C5.33284 20.3625 5.37563 20.3631 5.4173 20.3554C5.45898 20.3478 5.49873 20.3319 5.53426 20.3088C5.5698 20.2857 5.60043 20.2559 5.62439 20.2209C5.64834 20.186 5.66516 20.1466 5.67388 20.1051C5.68277 20.0637 5.6834 20.0209 5.67572 19.9793C5.66804 19.9376 5.65221 19.8979 5.62913 19.8623C5.60605 19.8268 5.57618 19.7961 5.54124 19.7722C5.50629 19.7482 5.46695 19.7314 5.42549 19.7227L3.89501 19.3974C3.8736 19.3928 3.85177 19.3905 3.82989 19.3905V19.3902ZM44.1716 19.3932C44.1498 19.3937 44.1281 19.396 44.1066 19.4001L42.576 19.7253C42.5346 19.734 42.4952 19.7508 42.4603 19.7748C42.4254 19.7987 42.3955 19.8293 42.3724 19.8648C42.3493 19.9004 42.3335 19.9401 42.3258 19.9818C42.3181 20.0234 42.3187 20.0662 42.3276 20.1076C42.3363 20.1491 42.3532 20.1884 42.3771 20.2234C42.4011 20.2583 42.4317 20.2882 42.4672 20.3113C42.5028 20.3344 42.5425 20.3503 42.5842 20.358C42.6259 20.3657 42.6687 20.3651 42.7101 20.3562L44.2406 20.0311C44.282 20.0223 44.3214 20.0055 44.3563 19.9816C44.3913 19.9576 44.4212 19.927 44.4443 19.8914C44.4674 19.8559 44.4832 19.8162 44.4909 19.7745C44.4986 19.7328 44.498 19.69 44.4891 19.6486C44.4738 19.5759 44.4338 19.5107 44.376 19.4641C44.3181 19.4175 44.2459 19.3924 44.1716 19.3929V19.3932ZM3.43984 21.5091C3.36592 21.5163 3.29674 21.5487 3.24405 21.6011C3.19136 21.6534 3.1584 21.7223 3.15076 21.7962C3.1462 21.8383 3.15 21.881 3.16196 21.9216C3.17392 21.9623 3.19379 22.0002 3.22044 22.0332C3.24709 22.0661 3.27998 22.0935 3.31724 22.1137C3.35449 22.1339 3.39538 22.1466 3.43754 22.1509L7.1367 22.542C7.17884 22.5465 7.22148 22.5427 7.26215 22.5308C7.30281 22.5188 7.34072 22.4989 7.37368 22.4723C7.40665 22.4456 7.43402 22.4127 7.45422 22.3755C7.47443 22.3382 7.48708 22.2973 7.49143 22.2551C7.49598 22.213 7.49217 22.1704 7.4802 22.1297C7.46822 22.089 7.44834 22.0511 7.42167 22.0182C7.39501 21.9852 7.3621 21.9579 7.32483 21.9377C7.28756 21.9175 7.24667 21.9048 7.2045 21.9005L3.50527 21.5094C3.48352 21.5071 3.4616 21.507 3.43984 21.5091ZM44.5644 21.5369C44.5425 21.5346 44.5206 21.5347 44.4988 21.5372L40.7991 21.9233C40.757 21.9276 40.7161 21.9402 40.6788 21.9603C40.6415 21.9805 40.6086 22.0078 40.5819 22.0407C40.5552 22.0736 40.5353 22.1115 40.5233 22.1521C40.5112 22.1928 40.5073 22.2354 40.5118 22.2775C40.5161 22.3197 40.5287 22.3606 40.5489 22.3979C40.569 22.4351 40.5964 22.4681 40.6293 22.4948C40.6622 22.5215 40.7001 22.5414 40.7407 22.5534C40.7813 22.5654 40.824 22.5693 40.8661 22.5648L44.5657 22.1787C44.6079 22.1744 44.6488 22.1618 44.6861 22.1416C44.7233 22.1215 44.7563 22.0942 44.783 22.0613C44.8097 22.0284 44.8296 21.9905 44.8416 21.9499C44.8536 21.9092 44.8575 21.8666 44.853 21.8245C44.8455 21.7506 44.8127 21.6816 44.76 21.6291C44.7074 21.5767 44.6383 21.5441 44.5644 21.5369V21.5369ZM3.37724 23.6781C3.33485 23.678 3.29287 23.6863 3.25369 23.7025C3.21451 23.7186 3.17891 23.7424 3.14894 23.7724C3.11896 23.8023 3.09521 23.8379 3.07904 23.8771C3.06286 23.9163 3.05459 23.9583 3.05469 24.0007C3.05461 24.043 3.0629 24.085 3.07908 24.1242C3.09526 24.1633 3.11902 24.1989 3.14899 24.2289C3.17896 24.2588 3.21455 24.2826 3.25372 24.2987C3.29289 24.3149 3.33487 24.3232 3.37724 24.3231H4.94196C4.98434 24.3232 5.02632 24.3149 5.06549 24.2987C5.10466 24.2825 5.14025 24.2588 5.17022 24.2288C5.20019 24.1989 5.22395 24.1633 5.24013 24.1241C5.25631 24.0849 5.2646 24.043 5.26452 24.0006C5.26461 23.9582 5.25633 23.9162 5.24015 23.877C5.22397 23.8379 5.20022 23.8023 5.17025 23.7723C5.14028 23.7423 5.10468 23.7186 5.06551 23.7024C5.02633 23.6862 4.98435 23.6779 4.94196 23.678L3.37724 23.6781ZM43.0588 23.6781C43.0165 23.678 42.9745 23.6863 42.9353 23.7025C42.8961 23.7186 42.8605 23.7424 42.8305 23.7724C42.8006 23.8023 42.7768 23.8379 42.7606 23.8771C42.7445 23.9163 42.7362 23.9583 42.7363 24.0007C42.7362 24.043 42.7445 24.085 42.7607 24.1242C42.7769 24.1633 42.8006 24.1989 42.8306 24.2289C42.8606 24.2588 42.8962 24.2826 42.9353 24.2987C42.9745 24.3149 43.0165 24.3232 43.0588 24.3231H44.6236C44.6659 24.3232 44.7079 24.3149 44.7471 24.2987C44.7863 24.2825 44.8218 24.2588 44.8518 24.2288C44.8818 24.1989 44.9055 24.1633 44.9217 24.1241C44.9379 24.0849 44.9461 24.043 44.946 24.0006C44.9461 23.9582 44.9379 23.9162 44.9217 23.877C44.9055 23.8379 44.8818 23.8023 44.8518 23.7723C44.8218 23.7423 44.7862 23.7186 44.7471 23.7024C44.7079 23.6862 44.6659 23.6779 44.6235 23.678L43.0588 23.6781ZM7.20014 25.4361C7.17838 25.4337 7.15644 25.4338 7.13471 25.4364L3.43493 25.8224C3.39277 25.8267 3.35188 25.8393 3.3146 25.8595C3.27732 25.8796 3.24439 25.9069 3.21769 25.9398C3.191 25.9728 3.17107 26.0106 3.15904 26.0512C3.14702 26.0919 3.14314 26.1345 3.14762 26.1766C3.15193 26.2188 3.16451 26.2597 3.18466 26.297C3.20481 26.3342 3.23212 26.3672 3.26503 26.3939C3.29794 26.4206 3.3358 26.4405 3.37644 26.4525C3.41707 26.4645 3.45968 26.4684 3.50182 26.4639L7.20159 26.0778C7.24375 26.0735 7.28464 26.0609 7.32192 26.0408C7.3592 26.0206 7.39214 25.9933 7.41883 25.9604C7.44553 25.9275 7.46546 25.8896 7.47749 25.849C7.48951 25.8083 7.49339 25.7657 7.4889 25.7236C7.48135 25.6497 7.44846 25.5807 7.39581 25.5283C7.34316 25.4759 7.274 25.4433 7.20006 25.4361H7.20014ZM40.7985 25.4589C40.7246 25.466 40.6554 25.4985 40.6027 25.5509C40.55 25.6032 40.5171 25.6722 40.5095 25.746C40.5049 25.7882 40.5087 25.8308 40.5207 25.8714C40.5326 25.9121 40.5525 25.95 40.5791 25.9829C40.6058 26.0159 40.6387 26.0432 40.6759 26.0635C40.7131 26.0837 40.754 26.0963 40.7962 26.1007L44.4954 26.4917C44.5375 26.4963 44.5802 26.4925 44.6208 26.4805C44.6615 26.4686 44.6994 26.4487 44.7323 26.422C44.7653 26.3954 44.7926 26.3625 44.8128 26.3252C44.833 26.2879 44.8457 26.2471 44.8501 26.2049C44.8546 26.1628 44.8508 26.1201 44.8388 26.0795C44.8268 26.0388 44.8069 26.001 44.7803 25.968C44.7536 25.9351 44.7207 25.9077 44.6835 25.8875C44.6462 25.8673 44.6054 25.8547 44.5632 25.8503L40.8641 25.4592C40.8423 25.4569 40.8203 25.4568 40.7985 25.4589ZM5.356 27.6376C5.33411 27.6377 5.3123 27.6401 5.29087 27.6445L3.76032 27.9697C3.71885 27.9784 3.6795 27.9952 3.64455 28.0192C3.60959 28.0431 3.57971 28.0737 3.55663 28.1093C3.53354 28.1448 3.5177 28.1846 3.51002 28.2262C3.50233 28.2679 3.50296 28.3107 3.51185 28.3521C3.52057 28.3936 3.53738 28.4329 3.56134 28.4679C3.5853 28.5029 3.61593 28.5327 3.65147 28.5558C3.687 28.5789 3.72675 28.5947 3.76843 28.6024C3.8101 28.6101 3.85289 28.6095 3.89432 28.6006L5.42495 28.2756C5.46642 28.2669 5.50575 28.25 5.5407 28.2261C5.57565 28.2021 5.60552 28.1715 5.62859 28.136C5.65167 28.1004 5.66751 28.0607 5.67519 28.019C5.68286 27.9773 5.68224 27.9346 5.67334 27.8931C5.65809 27.8204 5.61816 27.7552 5.56032 27.7086C5.50247 27.662 5.43028 27.6368 5.356 27.6374V27.6376ZM42.6444 27.6407C42.5701 27.64 42.4979 27.6651 42.44 27.7117C42.3822 27.7583 42.3422 27.8235 42.327 27.8962C42.3181 27.9376 42.3174 27.9804 42.3251 28.0221C42.3328 28.0637 42.3486 28.1035 42.3716 28.139C42.3947 28.1746 42.4246 28.2052 42.4595 28.2292C42.4944 28.2532 42.5338 28.27 42.5753 28.2787L44.1059 28.604C44.1473 28.6129 44.1901 28.6135 44.2318 28.6059C44.2734 28.5982 44.3132 28.5824 44.3487 28.5593C44.3843 28.5363 44.4149 28.5064 44.4389 28.4715C44.4629 28.4365 44.4797 28.3972 44.4884 28.3557C44.4973 28.3143 44.498 28.2715 44.4903 28.2298C44.4826 28.1881 44.4668 28.1483 44.4437 28.1128C44.4206 28.0772 44.3907 28.0466 44.3558 28.0226C44.3208 27.9986 44.2814 27.9818 44.24 27.973L42.7095 27.6478C42.6881 27.6433 42.6662 27.6409 42.6444 27.6409V27.6407ZM7.93335 28.9109C7.89034 28.907 7.84698 28.912 7.80602 28.9258L4.26836 30.0757C4.22804 30.0887 4.19068 30.1095 4.15844 30.137C4.1262 30.1645 4.09971 30.1981 4.08048 30.2359C4.06125 30.2736 4.04967 30.3148 4.0464 30.3571C4.04313 30.3993 4.04823 30.4418 4.06142 30.482C4.07443 30.5224 4.09528 30.5597 4.12277 30.592C4.15025 30.6242 4.18384 30.6507 4.2216 30.67C4.25936 30.6892 4.30054 30.7008 4.34279 30.7041C4.38504 30.7073 4.42752 30.7022 4.46779 30.6891L8.00529 29.5391C8.04562 29.526 8.08299 29.5052 8.11524 29.4777C8.14749 29.4502 8.174 29.4166 8.19324 29.3789C8.21248 29.3411 8.22408 29.2999 8.22736 29.2577C8.23065 29.2154 8.22556 29.173 8.21239 29.1327C8.1929 29.0723 8.15603 29.0191 8.10638 28.9796C8.05674 28.9401 7.99655 28.9162 7.93335 28.9108V28.9109ZM40.0638 28.9223C40.0006 28.9276 39.9404 28.9515 39.8908 28.9909C39.8411 29.0303 39.8042 29.0835 39.7848 29.1439C39.7715 29.1841 39.7664 29.2266 39.7696 29.2689C39.7729 29.3111 39.7844 29.3523 39.8037 29.3901C39.8229 29.4279 39.8493 29.4615 39.8816 29.489C39.9138 29.5165 39.9511 29.5374 39.9915 29.5504L43.5282 30.7029C43.5685 30.7161 43.6109 30.7212 43.6532 30.718C43.6955 30.7147 43.7367 30.7032 43.7744 30.684C43.8122 30.6648 43.8458 30.6383 43.8734 30.6061C43.9009 30.5738 43.9218 30.5365 43.9348 30.4961C43.948 30.4559 43.9531 30.4134 43.9499 30.3712C43.9467 30.3289 43.9351 30.2877 43.9159 30.2499C43.8967 30.2122 43.8702 30.1786 43.838 30.151C43.8058 30.1235 43.7684 30.1027 43.7281 30.0896L40.1913 28.9372C40.1502 28.9237 40.1068 28.9187 40.0638 28.9223ZM6.58346 31.4296C6.54027 31.4304 6.4977 31.4399 6.45827 31.4575L5.02869 32.094C4.98995 32.1111 4.95499 32.1358 4.92579 32.1665C4.8966 32.1972 4.87376 32.2334 4.85859 32.2729C4.84341 32.3125 4.8362 32.3546 4.83736 32.397C4.83852 32.4393 4.84803 32.481 4.86535 32.5197C4.8825 32.5585 4.90714 32.5934 4.93784 32.6226C4.96855 32.6518 5.00472 32.6747 5.04428 32.6899C5.08384 32.7051 5.126 32.7123 5.16836 32.7111C5.21072 32.71 5.25243 32.7005 5.2911 32.6831L6.72068 32.0468C6.75942 32.0296 6.79438 32.005 6.82358 31.9743C6.85277 31.9435 6.87561 31.9074 6.89078 31.8678C6.90596 31.8283 6.91318 31.7861 6.91201 31.7437C6.91085 31.7014 6.90134 31.6597 6.88402 31.621C6.85836 31.563 6.81614 31.5139 6.76265 31.4798C6.70916 31.4457 6.64679 31.4282 6.58338 31.4295L6.58346 31.4296ZM41.4121 31.4418C41.3486 31.4404 41.2862 31.4578 41.2327 31.4918C41.1792 31.5259 41.1369 31.575 41.1113 31.633C41.0939 31.6717 41.0844 31.7134 41.0832 31.7558C41.082 31.7981 41.0892 31.8403 41.1044 31.8799C41.1195 31.9195 41.1424 31.9557 41.1716 31.9864C41.2008 32.0171 41.2357 32.0418 41.2745 32.0589L42.7034 32.6964C42.742 32.7138 42.7837 32.7233 42.8261 32.7245C42.8685 32.7257 42.9107 32.7185 42.9503 32.7033C42.9898 32.6882 43.026 32.6653 43.0568 32.6361C43.0875 32.6069 43.1122 32.572 43.1293 32.5332C43.1467 32.4945 43.1562 32.4528 43.1574 32.4105C43.1586 32.3681 43.1514 32.326 43.1362 32.2864C43.121 32.2468 43.0982 32.2106 43.069 32.1799C43.0398 32.1492 43.0049 32.1245 42.9661 32.1074L41.5373 31.4699C41.4978 31.4522 41.4553 31.4427 41.4121 31.4418ZM9.36668 32.1406C9.30248 32.136 9.23838 32.1509 9.1828 32.1834L5.96141 34.0433C5.92467 34.0644 5.89246 34.0926 5.86663 34.1262C5.8408 34.1598 5.82186 34.1981 5.8109 34.239C5.79994 34.28 5.79717 34.3227 5.80275 34.3647C5.80833 34.4067 5.82215 34.4472 5.84343 34.4838C5.86454 34.5206 5.8927 34.5528 5.92628 34.5786C5.95987 34.6044 5.99823 34.6233 6.03915 34.6343C6.08008 34.6453 6.12276 34.648 6.16476 34.6425C6.20676 34.6369 6.24724 34.6231 6.28389 34.6018L9.50528 32.7421C9.54201 32.7209 9.57422 32.6928 9.60004 32.6592C9.62587 32.6256 9.64481 32.5872 9.65577 32.5462C9.66673 32.5053 9.6695 32.4626 9.66392 32.4206C9.65835 32.3786 9.64453 32.3381 9.62327 32.3014C9.59698 32.2556 9.55981 32.217 9.51505 32.1889C9.47028 32.1609 9.4193 32.1443 9.3666 32.1406H9.36668ZM38.6341 32.1406C38.5814 32.1442 38.5304 32.1607 38.4856 32.1888C38.4408 32.2168 38.4036 32.2555 38.3773 32.3014C38.356 32.338 38.3422 32.3785 38.3366 32.4205C38.331 32.4626 38.3338 32.5053 38.3448 32.5462C38.3557 32.5872 38.3747 32.6255 38.4005 32.6591C38.4263 32.6928 38.4586 32.7209 38.4953 32.7421L41.7168 34.6018C41.7534 34.6231 41.7939 34.6369 41.8359 34.6425C41.8779 34.6481 41.9206 34.6453 41.9616 34.6343C42.0025 34.6234 42.0409 34.6044 42.0745 34.5786C42.1081 34.5528 42.1363 34.5206 42.1574 34.4838C42.1787 34.4472 42.1925 34.4067 42.1981 34.3647C42.2036 34.3227 42.2009 34.28 42.1899 34.239C42.179 34.1981 42.16 34.1598 42.1342 34.1262C42.1084 34.0926 42.0761 34.0644 42.0394 34.0433L38.8179 32.1834C38.7623 32.1511 38.6983 32.1362 38.6341 32.1406ZM8.56321 34.8701C8.49889 34.8724 8.43672 34.8938 8.38469 34.9317L7.11824 35.8506C7.08388 35.8754 7.05476 35.9067 7.03256 35.9428C7.01035 35.9789 6.9955 36.0191 6.98884 36.0609C6.98218 36.1028 6.98386 36.1455 6.99377 36.1867C7.00368 36.2279 7.02164 36.2668 7.0466 36.301C7.07141 36.3353 7.10276 36.3645 7.13885 36.3867C7.17494 36.4089 7.21505 36.4237 7.25689 36.4304C7.29874 36.437 7.34148 36.4353 7.38268 36.4254C7.42387 36.4155 7.46271 36.3976 7.49695 36.3726L8.76356 35.4537C8.79791 35.4289 8.82702 35.3976 8.84923 35.3615C8.87144 35.3254 8.8863 35.2853 8.89296 35.2434C8.89962 35.2016 8.89796 35.1588 8.88806 35.1176C8.87816 35.0764 8.86022 35.0376 8.83527 35.0034C8.80434 34.9605 8.76333 34.9259 8.71587 34.9027C8.66841 34.8794 8.61595 34.8682 8.56313 34.8701H8.56321ZM39.4298 34.8809C39.377 34.879 39.3246 34.8902 39.2771 34.9134C39.2296 34.9366 39.1886 34.9711 39.1577 35.0139C39.1327 35.0482 39.1148 35.087 39.1048 35.1282C39.0949 35.1694 39.0932 35.2122 39.0998 35.254C39.1065 35.2959 39.1213 35.336 39.1435 35.3721C39.1657 35.4082 39.1948 35.4396 39.2291 35.4644L40.495 36.3842C40.5292 36.4092 40.568 36.4272 40.6092 36.4371C40.6504 36.447 40.6932 36.4487 40.735 36.4421C40.7769 36.4355 40.817 36.4206 40.8531 36.3984C40.8892 36.3763 40.9206 36.3471 40.9454 36.3128C40.9704 36.2786 40.9883 36.2398 40.9983 36.1986C41.0082 36.1574 41.0099 36.1147 41.0033 36.0728C40.9967 36.031 40.9819 35.9909 40.9597 35.9548C40.9375 35.9187 40.9085 35.8873 40.8742 35.8625L39.6083 34.9427C39.5563 34.9047 39.4941 34.8832 39.4298 34.8809V34.8809ZM11.4315 34.9923C11.3891 34.9899 11.3468 34.996 11.3068 35.0102C11.2669 35.0244 11.2301 35.0463 11.1987 35.0748L8.43235 37.5616C8.40078 37.5898 8.3751 37.624 8.35679 37.6623C8.33848 37.7005 8.32789 37.7419 8.32564 37.7842C8.32339 37.8265 8.32952 37.8689 8.34368 37.9088C8.35784 37.9488 8.37974 37.9855 8.40814 38.017C8.4364 38.0485 8.47062 38.0742 8.50883 38.0925C8.54705 38.1108 8.5885 38.1214 8.63081 38.1237C8.67313 38.1259 8.71547 38.1198 8.75541 38.1056C8.79534 38.0915 8.83209 38.0696 8.86354 38.0412L11.6299 35.5544C11.6615 35.5261 11.6872 35.4919 11.7055 35.4537C11.7238 35.4155 11.7344 35.374 11.7366 35.3317C11.7389 35.2894 11.7327 35.2471 11.7186 35.2071C11.7044 35.1672 11.6825 35.1304 11.6541 35.099C11.6259 35.0674 11.5917 35.0417 11.5535 35.0234C11.5152 35.0051 11.4738 34.9945 11.4315 34.9923ZM36.5614 35.0011C36.476 35.0057 36.3959 35.0441 36.3386 35.1077C36.3102 35.1391 36.2883 35.1759 36.2741 35.2158C36.2599 35.2558 36.2537 35.2981 36.256 35.3404C36.2582 35.3827 36.2687 35.4242 36.287 35.4624C36.3053 35.5007 36.331 35.5349 36.3626 35.5632L39.1272 38.0519C39.1587 38.0803 39.1954 38.1022 39.2353 38.1164C39.2753 38.1306 39.3176 38.1367 39.3599 38.1345C39.4023 38.1323 39.4437 38.1217 39.4819 38.1035C39.5202 38.0852 39.5544 38.0595 39.5827 38.028C39.6111 37.9966 39.6331 37.9598 39.6472 37.9199C39.6614 37.88 39.6676 37.8376 39.6654 37.7953C39.6631 37.753 39.6526 37.7116 39.6343 37.6733C39.616 37.6351 39.5904 37.6009 39.5588 37.5726L36.7941 35.0838C36.7627 35.0554 36.7259 35.0334 36.686 35.0193C36.6461 35.0051 36.6038 34.9989 36.5615 35.0011H36.5614ZM14.056 37.3636C14.0032 37.3616 13.9508 37.3727 13.9033 37.3959C13.8558 37.419 13.8148 37.4536 13.7838 37.4964L11.5956 40.5044C11.5706 40.5386 11.5526 40.5774 11.5426 40.6186C11.5326 40.6597 11.5309 40.7025 11.5375 40.7444C11.5441 40.7862 11.5589 40.8264 11.581 40.8625C11.6032 40.8986 11.6322 40.93 11.6665 40.9549C11.7007 40.9799 11.7395 40.9979 11.7807 41.0079C11.8219 41.0178 11.8647 41.0196 11.9065 41.013C11.9484 41.0064 11.9885 40.9916 12.0246 40.9694C12.0608 40.9473 12.0922 40.9182 12.117 40.8839L14.3053 37.8758C14.3303 37.8416 14.3484 37.8028 14.3583 37.7616C14.3683 37.7205 14.37 37.6777 14.3634 37.6358C14.3569 37.594 14.3421 37.5538 14.3199 37.5177C14.2978 37.4816 14.2687 37.4502 14.2344 37.4253C14.1825 37.3874 14.1203 37.3658 14.056 37.3636ZM33.9269 37.3771C33.8626 37.3793 33.8005 37.4007 33.7484 37.4386C33.7141 37.4634 33.685 37.4948 33.6628 37.5308C33.6406 37.5669 33.6257 37.607 33.6191 37.6489C33.6124 37.6907 33.6141 37.7335 33.624 37.7747C33.6339 37.8159 33.6518 37.8547 33.6768 37.8889L35.861 40.8999C35.8858 40.9343 35.9171 40.9634 35.9532 40.9856C35.9893 41.0078 36.0294 41.0227 36.0713 41.0294C36.1131 41.036 36.1559 41.0344 36.1971 41.0245C36.2383 41.0146 36.2771 40.9966 36.3114 40.9716C36.3457 40.9468 36.3749 40.9155 36.3971 40.8794C36.4193 40.8433 36.4342 40.8032 36.4408 40.7613C36.4475 40.7195 36.4458 40.6767 36.4359 40.6355C36.426 40.5943 36.408 40.5555 36.3831 40.5212L34.1988 37.5102C34.1679 37.4674 34.1269 37.4329 34.0795 37.4096C34.0321 37.3864 33.9796 37.3752 33.9269 37.3771H33.9269ZM11.2312 37.8417C11.1457 37.8462 11.0655 37.8846 11.0083 37.9482L9.96137 39.1112C9.93295 39.1426 9.91101 39.1794 9.89682 39.2193C9.88263 39.2592 9.87647 39.3016 9.87868 39.3439C9.8809 39.3862 9.89144 39.4277 9.90972 39.4659C9.928 39.5041 9.95365 39.5384 9.9852 39.5667C10.0166 39.5951 10.0534 39.617 10.0933 39.6312C10.1332 39.6454 10.1756 39.6515 10.2179 39.6493C10.2602 39.6471 10.3017 39.6365 10.3399 39.6182C10.3781 39.5999 10.4123 39.5742 10.4406 39.5427L11.4877 38.38C11.5161 38.3485 11.5381 38.3118 11.5522 38.2718C11.5664 38.2319 11.5726 38.1895 11.5704 38.1472C11.5681 38.1049 11.5576 38.0634 11.5393 38.0252C11.521 37.987 11.4954 37.9527 11.4638 37.9244C11.4324 37.896 11.3957 37.874 11.3558 37.8598C11.3158 37.8457 11.2735 37.8395 11.2312 37.8417V37.8417ZM36.7678 37.8432C36.7255 37.8409 36.6831 37.847 36.6432 37.8612C36.6033 37.8754 36.5666 37.8974 36.5352 37.9259C36.5037 37.9541 36.478 37.9884 36.4597 38.0266C36.4414 38.0648 36.4309 38.1063 36.4287 38.1486C36.4264 38.1909 36.4326 38.2332 36.4468 38.2732C36.4609 38.3131 36.4829 38.3498 36.5113 38.3813L37.5581 39.5443C37.5863 39.5759 37.6206 39.6015 37.6588 39.6198C37.697 39.6381 37.7385 39.6487 37.7808 39.6509C37.8231 39.6531 37.8655 39.6469 37.9054 39.6328C37.9453 39.6186 37.982 39.5966 38.0135 39.5682C38.045 39.5399 38.0707 39.5057 38.089 39.4674C38.1073 39.4292 38.1178 39.3877 38.1201 39.3454C38.1223 39.3031 38.1161 39.2607 38.1019 39.2208C38.0877 39.1808 38.0658 39.1441 38.0374 39.1126L36.9906 37.9498C36.9623 37.9182 36.928 37.8925 36.8898 37.8742C36.8515 37.8559 36.81 37.8453 36.7677 37.8431L36.7678 37.8432ZM17.1118 39.1331C17.0484 39.1317 16.986 39.1491 16.9325 39.1832C16.879 39.2172 16.8368 39.2663 16.8112 39.3243L15.2956 42.7215C15.2783 42.7601 15.2687 42.8018 15.2675 42.8442C15.2664 42.8865 15.2736 42.9287 15.2887 42.9683C15.3039 43.0079 15.3267 43.044 15.3559 43.0747C15.3851 43.1055 15.42 43.1301 15.4588 43.1473C15.4974 43.1646 15.5392 43.1742 15.5815 43.1754C15.6239 43.1766 15.666 43.1694 15.7056 43.1542C15.7452 43.1391 15.7814 43.1162 15.8121 43.0871C15.8428 43.0579 15.8675 43.0229 15.8847 42.9842L17.4002 39.5871C17.4176 39.5485 17.4271 39.5067 17.4283 39.4644C17.4295 39.422 17.4223 39.3798 17.4071 39.3403C17.392 39.3007 17.3691 39.2645 17.3399 39.2338C17.3107 39.203 17.2758 39.1784 17.237 39.1612C17.1976 39.1435 17.155 39.134 17.1118 39.1331ZM30.8687 39.1424C30.8255 39.1433 30.7829 39.1528 30.7434 39.1704C30.7046 39.1875 30.6696 39.2122 30.6404 39.2428C30.6112 39.2735 30.5883 39.3097 30.5731 39.3492C30.5579 39.3888 30.5506 39.431 30.5518 39.4733C30.5529 39.5157 30.5624 39.5574 30.5797 39.5961L32.0905 42.9952C32.1077 43.034 32.1323 43.069 32.163 43.0982C32.1937 43.1274 32.2299 43.1502 32.2694 43.1654C32.309 43.1807 32.3512 43.1879 32.3935 43.1868C32.4359 43.1856 32.4776 43.1762 32.5163 43.1589C32.555 43.1417 32.59 43.1171 32.6192 43.0864C32.6484 43.0558 32.6713 43.0196 32.6865 42.9801C32.7017 42.9405 32.709 42.8984 32.7078 42.856C32.7067 42.8137 32.6972 42.7719 32.6799 42.7333L31.1691 39.3341C31.1434 39.2762 31.1013 39.227 31.0478 39.1929C30.9944 39.1588 30.9321 39.1413 30.8687 39.1424ZM14.4487 40.1834C14.396 40.187 14.345 40.2036 14.3002 40.2316C14.2554 40.2596 14.2183 40.2983 14.192 40.3442L13.4097 41.6993C13.3884 41.7359 13.3746 41.7764 13.369 41.8184C13.3634 41.8604 13.3662 41.9031 13.3772 41.944C13.3881 41.985 13.4071 42.0233 13.4329 42.0569C13.4587 42.0905 13.4909 42.1187 13.5277 42.1398C13.5643 42.1611 13.6048 42.1749 13.6468 42.1805C13.6888 42.1861 13.7315 42.1833 13.7725 42.1723C13.8134 42.1614 13.8518 42.1424 13.8854 42.1166C13.919 42.0908 13.9471 42.0586 13.9682 42.0218L14.7506 40.6666C14.7719 40.63 14.7857 40.5895 14.7913 40.5475C14.7969 40.5055 14.7941 40.4628 14.7831 40.4218C14.7721 40.3809 14.7532 40.3425 14.7274 40.309C14.7015 40.2754 14.6693 40.2472 14.6326 40.2261C14.5769 40.1938 14.5129 40.179 14.4487 40.1834ZM33.5522 40.1834C33.4881 40.1789 33.424 40.1938 33.3685 40.2262C33.3317 40.2473 33.2995 40.2754 33.2737 40.309C33.2479 40.3426 33.2289 40.381 33.218 40.4219C33.207 40.4629 33.2042 40.5056 33.2098 40.5476C33.2154 40.5896 33.2292 40.6301 33.2505 40.6667L34.0328 42.0218C34.0539 42.0586 34.0821 42.0908 34.1157 42.1166C34.1493 42.1424 34.1876 42.1614 34.2286 42.1723C34.2695 42.1833 34.3122 42.1861 34.3542 42.1805C34.3962 42.1749 34.4367 42.1611 34.4734 42.1398C34.5101 42.1187 34.5423 42.0905 34.5681 42.0569C34.594 42.0233 34.6129 41.985 34.6239 41.944C34.6348 41.9031 34.6376 41.8604 34.632 41.8184C34.6264 41.7764 34.6126 41.7359 34.5914 41.6993L33.809 40.3442C33.7827 40.2984 33.7455 40.2598 33.7007 40.2317C33.6559 40.2037 33.6049 40.1871 33.5522 40.1834ZM20.4858 40.232C20.4115 40.2314 20.3393 40.2565 20.2814 40.303C20.2236 40.3496 20.1837 40.4148 20.1684 40.4875L19.3954 44.1262C19.3865 44.1677 19.3859 44.2104 19.3935 44.2521C19.4012 44.2938 19.4171 44.3335 19.4401 44.3691C19.4632 44.4046 19.4931 44.4352 19.5281 44.4592C19.563 44.4832 19.6024 44.5 19.6438 44.5087C19.6853 44.5176 19.7281 44.5182 19.7698 44.5105C19.8114 44.5029 19.8512 44.487 19.8867 44.4639C19.9223 44.4409 19.9529 44.411 19.9769 44.376C20.0009 44.3411 20.0177 44.3017 20.0264 44.2602L20.7994 40.6216C20.8095 40.5747 20.809 40.5262 20.7979 40.4796C20.7868 40.433 20.7655 40.3895 20.7354 40.3521C20.7054 40.3148 20.6673 40.2847 20.6242 40.264C20.581 40.2432 20.5337 40.2324 20.4858 40.2322V40.232ZM27.5038 40.2343C27.4559 40.2344 27.4086 40.2453 27.3655 40.266C27.3223 40.2867 27.2843 40.3168 27.2542 40.3541C27.2242 40.3914 27.2028 40.4349 27.1917 40.4815C27.1806 40.5281 27.1801 40.5765 27.1901 40.6233L27.9604 44.2626C27.9691 44.3041 27.9859 44.3434 28.0098 44.3784C28.0337 44.4134 28.0644 44.4433 28.0999 44.4664C28.1354 44.4895 28.1751 44.5054 28.2168 44.5131C28.2585 44.5208 28.3013 44.5202 28.3427 44.5114C28.3842 44.5027 28.4236 44.4859 28.4585 44.462C28.4935 44.438 28.5234 44.4074 28.5465 44.3719C28.5697 44.3364 28.5855 44.2966 28.5932 44.255C28.601 44.2133 28.6004 44.1705 28.5915 44.1291L27.821 40.49C27.8058 40.4173 27.7659 40.3521 27.708 40.3055C27.6502 40.2588 27.5781 40.2336 27.5038 40.2341V40.2343ZM24.0004 40.6013C23.9581 40.6012 23.9161 40.6095 23.8769 40.6257C23.8377 40.6418 23.8022 40.6656 23.7722 40.6956C23.7422 40.7255 23.7185 40.7611 23.7023 40.8003C23.6861 40.8395 23.6779 40.8815 23.678 40.9238V44.6436C23.6779 44.686 23.6861 44.728 23.7023 44.7672C23.7185 44.8063 23.7422 44.8419 23.7722 44.8719C23.8022 44.9019 23.8378 44.9256 23.877 44.9418C23.9161 44.958 23.9581 44.9663 24.0005 44.9662C24.0429 44.9662 24.0849 44.9579 24.124 44.9418C24.1632 44.9256 24.1988 44.9018 24.2287 44.8719C24.2587 44.8419 24.2824 44.8063 24.2986 44.7671C24.3148 44.728 24.323 44.686 24.3229 44.6436V40.9239C24.323 40.8815 24.3148 40.8396 24.2986 40.8004C24.2824 40.7612 24.2587 40.7256 24.2287 40.6956C24.1987 40.6657 24.1631 40.6419 24.124 40.6257C24.0848 40.6096 24.0428 40.6013 24.0004 40.6014V40.6013ZM18.0807 41.8034C18.0175 41.8088 17.9573 41.8327 17.9077 41.8721C17.858 41.9116 17.8211 41.9648 17.8016 42.0252L17.3179 43.5133C17.3047 43.5536 17.2996 43.5961 17.3029 43.6383C17.3062 43.6806 17.3178 43.7218 17.337 43.7595C17.3562 43.7973 17.3827 43.8309 17.415 43.8584C17.4473 43.8859 17.4846 43.9067 17.525 43.9197C17.5652 43.9329 17.6077 43.938 17.65 43.9347C17.6922 43.9314 17.7334 43.9198 17.7712 43.9006C17.8089 43.8814 17.8425 43.8548 17.87 43.8226C17.8975 43.7903 17.9183 43.753 17.9313 43.7126L18.415 42.2246C18.4282 42.1843 18.4333 42.1419 18.43 42.0996C18.4268 42.0574 18.4152 42.0162 18.3959 41.9784C18.3767 41.9407 18.3502 41.9071 18.318 41.8796C18.2857 41.8521 18.2484 41.8313 18.2081 41.8182C18.167 41.8048 18.1237 41.7998 18.0807 41.8034ZM29.9177 41.8042C29.8747 41.8002 29.8314 41.8052 29.7904 41.8189C29.75 41.8319 29.7127 41.8527 29.6804 41.8802C29.6481 41.9077 29.6216 41.9413 29.6024 41.9791C29.5832 42.0168 29.5716 42.058 29.5683 42.1003C29.565 42.1425 29.5701 42.185 29.5833 42.2253L30.0667 43.7134C30.0797 43.7537 30.1006 43.7911 30.1281 43.8234C30.1556 43.8556 30.1892 43.8821 30.2269 43.9014C30.2647 43.9206 30.3059 43.9322 30.3482 43.9355C30.3904 43.9387 30.4329 43.9336 30.4732 43.9204C30.5135 43.9074 30.5509 43.8866 30.5831 43.8591C30.6154 43.8316 30.6419 43.7981 30.6612 43.7603C30.6804 43.7226 30.692 43.6814 30.6953 43.6391C30.6986 43.5969 30.6935 43.5544 30.6803 43.5141L30.1967 42.026C30.1772 41.9656 30.1403 41.9124 30.0907 41.8729C30.0411 41.8335 29.981 41.8095 29.9178 41.8042H29.9177ZM21.9762 42.6329C21.9022 42.6401 21.8331 42.6726 21.7804 42.725C21.7277 42.7773 21.6947 42.8463 21.6871 42.9202L21.5235 44.4764C21.519 44.5186 21.5229 44.5612 21.5349 44.6018C21.5468 44.6424 21.5667 44.6803 21.5934 44.7132C21.6201 44.7462 21.653 44.7735 21.6902 44.7937C21.7275 44.8138 21.7684 44.8264 21.8105 44.8308C21.8527 44.8353 21.8953 44.8315 21.9359 44.8195C21.9766 44.8075 22.0145 44.7876 22.0474 44.7609C22.0804 44.7343 22.1077 44.7014 22.1279 44.6641C22.1481 44.6268 22.1607 44.5859 22.165 44.5438L22.3286 42.9877C22.3331 42.9456 22.3293 42.903 22.3173 42.8623C22.3053 42.8217 22.2854 42.7838 22.2588 42.7508C22.2321 42.7179 22.1992 42.6905 22.1619 42.6704C22.1247 42.6502 22.0838 42.6375 22.0416 42.6332C22.0199 42.6309 21.9979 42.6308 21.9762 42.6329ZM26.0118 42.6344C25.99 42.6321 25.968 42.6322 25.9463 42.6347C25.9041 42.639 25.8632 42.6516 25.8259 42.6718C25.7886 42.6919 25.7557 42.7192 25.729 42.7522C25.7023 42.7851 25.6824 42.8229 25.6704 42.8636C25.6583 42.9042 25.6545 42.9468 25.6589 42.9889L25.8215 44.5453C25.8258 44.5875 25.8384 44.6283 25.8586 44.6656C25.8787 44.7029 25.906 44.7358 25.9389 44.7625C25.9719 44.7892 26.0097 44.8091 26.0504 44.8211C26.091 44.8331 26.1336 44.837 26.1757 44.8325C26.2179 44.8282 26.2588 44.8156 26.2961 44.7954C26.3334 44.7753 26.3663 44.7479 26.393 44.715C26.4197 44.6821 26.4396 44.6442 26.4516 44.6036C26.4637 44.563 26.4675 44.5203 26.463 44.4782L26.3006 42.922C26.293 42.8481 26.2602 42.7791 26.2075 42.7266C26.1549 42.6742 26.0857 42.6417 26.0118 42.6344H26.0118Z" fill="#F4F2F3"/>
<g opacity="0.409" filter="url(#filter0_f_2612_86421)">
<path d="M39.1148 11.1006L21.4708 21.3518L10.3149 38.9142L26.635 26.8261L39.1148 11.1006Z" fill="black"/>
</g>
<path d="M26.5291 26.6479L21.4717 21.3517L39.4121 9.2832L26.5291 26.6479Z" fill="#FF5150"/>
<path d="M26.5287 26.6478L21.4713 21.3516L8.58838 38.7163L26.5287 26.6478Z" fill="#F1F1F1"/>
<path opacity="0.243" d="M8.58838 38.7164L26.5287 26.6479L39.4118 9.2832L8.58838 38.7164Z" fill="black"/>
<defs>
<filter id="filter0_f_2612_86421" x="4.85593" y="5.64157" width="39.7178" height="38.7315" filterUnits="userSpaceOnUse" color-interpolation-filters="sRGB">
<feFlood flood-opacity="0" result="BackgroundImageFix"/>
<feBlend mode="normal" in="SourceGraphic" in2="BackgroundImageFix" result="shape"/>
<feGaussianBlur stdDeviation="2.72951" result="effect1_foregroundBlur_2612_86421"/>
</filter>
<radialGradient id="paint0_radial_2612_86421" cx="0" cy="0" r="1" gradientUnits="userSpaceOnUse" gradientTransform="translate(24.1 20.7749) scale(24)">
<stop stop-color="#06C2E7"/>
<stop offset="0.25" stop-color="#0DB8EC"/>
<stop offset="0.5" stop-color="#12AEF1"/>
<stop offset="0.75" stop-color="#1F86F9"/>
<stop offset="1" stop-color="#107DDD"/>
</radialGradient>
</defs>
</svg>
