<svg width="20" height="20" viewBox="0 0 20 20" fill="none" xmlns="http://www.w3.org/2000/svg">
    <g clip-path="url(#clip0_5163_59974)">
        <path d="M11.0717 17.8574H8.92885C8.64469 17.8574 8.37217 17.9703 8.17124 18.1712C7.9703 18.3722 7.85742 18.6447 7.85742 18.9289C7.85742 19.213 7.9703 19.4855 8.17124 19.6865C8.37217 19.8874 8.64469 20.0003 8.92885 20.0003H11.0717C11.3559 20.0003 11.6284 19.8874 11.8293 19.6865C12.0303 19.4855 12.1431 19.213 12.1431 18.9289C12.1431 18.6447 12.0303 18.3722 11.8293 18.1712C11.6284 17.9703 11.3559 17.8574 11.0717 17.8574Z" fill="#EDBF0E"/>
        <path d="M5.27143 1.94305C5.48072 1.77663 5.62124 1.53882 5.66606 1.27521C5.71087 1.01159 5.65683 0.740715 5.51429 0.514479C5.34786 0.305185 5.11006 0.164666 4.84644 0.119852C4.58283 0.0750373 4.31195 0.12908 4.08571 0.271622C2.84265 1.15222 1.82483 2.3136 1.11491 3.66144C0.405 5.00928 0.0230204 6.50557 0 8.02876C0 8.31293 0.112882 8.58545 0.313814 8.78638C0.514746 8.98731 0.787268 9.10019 1.07143 9.10019C1.35559 9.10019 1.62811 8.98731 1.82904 8.78638C2.02997 8.58545 2.14286 8.31293 2.14286 8.02876C2.14538 6.83915 2.43031 5.66712 2.97422 4.60912C3.51812 3.55112 4.30545 2.63737 5.27143 1.94305Z" fill="#EDBF0E"/>
        <path d="M15.9866 0.200333C15.7604 0.0577906 15.4895 0.00374819 15.2259 0.0485626C14.9623 0.093377 14.7245 0.233896 14.5581 0.44319C14.3942 0.675284 14.3279 0.962333 14.3733 1.24276C14.4187 1.52318 14.5722 1.77464 14.8009 1.94319C15.7537 2.64517 16.5273 3.56227 17.0585 4.61982C17.5898 5.67736 17.8637 6.84543 17.8581 8.0289C17.8581 8.31306 17.9709 8.58559 18.1719 8.78652C18.3728 8.98745 18.6453 9.10033 18.9295 9.10033C19.2136 9.10033 19.4862 8.98745 19.6871 8.78652C19.888 8.58559 20.0009 8.31306 20.0009 8.0289C19.9973 6.49977 19.6316 4.99322 18.9339 3.63254C18.2362 2.27186 17.2262 1.09571 15.9866 0.200333Z" fill="#EDBF0E"/>
        <path d="M17.1426 14.2864C16.7637 14.2864 16.4003 14.1359 16.1324 13.868C15.8645 13.6001 15.714 13.2367 15.714 12.8578V7.85784C15.714 6.34232 15.112 4.88887 14.0403 3.81723C12.9687 2.74559 11.5152 2.14355 9.99972 2.14355C8.4842 2.14355 7.03075 2.74559 5.95911 3.81723C4.88747 4.88887 4.28543 6.34232 4.28543 7.85784V12.8578C4.28543 13.2367 4.13493 13.6001 3.86702 13.868C3.59911 14.1359 3.23574 14.2864 2.85686 14.2864C2.66742 14.2864 2.48574 14.3617 2.35179 14.4956C2.21783 14.6296 2.14258 14.8113 2.14258 15.0007C2.14258 15.1901 2.21783 15.3718 2.35179 15.5058C2.48574 15.6397 2.66742 15.715 2.85686 15.715H17.1426C17.332 15.715 17.5137 15.6397 17.6477 15.5058C17.7816 15.3718 17.8569 15.1901 17.8569 15.0007C17.8569 14.8113 17.7816 14.6296 17.6477 14.4956C17.5137 14.3617 17.332 14.2864 17.1426 14.2864Z" fill="#EDBF0E"/>
    </g>
    <defs>
        <clipPath id="clip0_5163_59974">
            <rect width="20" height="20" fill="white"/>
        </clipPath>
    </defs>
</svg>
