<svg width="16" height="16" viewBox="0 0 16 16" fill="currentColor" xmlns="http://www.w3.org/2000/svg">
<path d="M15.2108 5.95727C15.1415 5.77004 15.0166 5.60847 14.8529 5.4942C14.6891 5.37993 14.4944 5.31843 14.2948 5.31794H10.3334L8.91477 1.3006C8.8447 1.11322 8.71877 0.951869 8.55402 0.838378C8.38927 0.724886 8.19363 0.664728 7.99358 0.666037C7.79352 0.667346 7.59869 0.730059 7.43544 0.845697C7.27219 0.961334 7.14838 1.12432 7.08077 1.3126L5.66677 5.31794H1.70544C1.50495 5.31812 1.30937 5.37996 1.14521 5.49507C0.981061 5.61018 0.856281 5.77299 0.787794 5.96142C0.719308 6.14985 0.710428 6.35478 0.76236 6.54843C0.814292 6.74207 0.924522 6.91506 1.0781 7.04394L4.4321 9.82327L3.02477 14.0459C2.9587 14.2426 2.95697 14.4552 3.01981 14.6529C3.08266 14.8506 3.20682 15.0231 3.37431 15.1455C3.54179 15.2679 3.74391 15.3338 3.95135 15.3336C4.1588 15.3335 4.36081 15.2673 4.5281 15.1446L8.0001 12.6006L11.4714 15.1459C11.6385 15.2684 11.8402 15.3345 12.0474 15.3348C12.2546 15.335 12.4564 15.2694 12.6239 15.1474C12.7913 15.0254 12.9156 14.8533 12.9788 14.6561C13.042 14.4588 13.0408 14.2465 12.9754 14.0499L11.5674 9.8246L14.9288 7.0386C15.0804 6.90857 15.1886 6.73533 15.239 6.54207C15.2894 6.34882 15.2795 6.14477 15.2108 5.95727V5.95727ZM10.3661 9.0906C10.2626 9.17632 10.1874 9.29132 10.1504 9.42052C10.1134 9.54972 10.1163 9.68709 10.1588 9.8146L11.1914 12.9126C11.2027 12.9462 11.203 12.9824 11.1922 13.0162C11.1815 13.0499 11.1603 13.0794 11.1317 13.1002C11.1031 13.1211 11.0686 13.1323 11.0332 13.1323C10.9978 13.1322 10.9633 13.1209 10.9348 13.0999L8.39344 11.2346C8.27907 11.1507 8.14094 11.1055 7.9991 11.1055C7.85727 11.1055 7.71913 11.1507 7.60477 11.2346L5.06677 13.0966C5.03828 13.1174 5.00391 13.1287 4.96862 13.1287C4.93332 13.1288 4.89893 13.1176 4.87038 13.0968C4.84184 13.0761 4.82062 13.0468 4.80979 13.0132C4.79896 12.9796 4.79907 12.9435 4.8101 12.9099L5.8421 9.81194C5.88462 9.68449 5.88764 9.54716 5.85076 9.41797C5.81388 9.28878 5.73883 9.17374 5.63544 9.08794L3.0501 6.9466C3.02359 6.92478 3.00447 6.89529 2.99535 6.86218C2.98624 6.82907 2.98757 6.79396 2.99917 6.76164C3.01077 6.72931 3.03207 6.70136 3.06016 6.68161C3.08826 6.66185 3.12176 6.65126 3.1561 6.65127H6.13944C6.27743 6.65123 6.41201 6.60838 6.52461 6.52861C6.63721 6.44884 6.72229 6.3361 6.7681 6.20594L7.84277 3.1606C7.85417 3.12797 7.87544 3.09969 7.90363 3.07969C7.93182 3.05968 7.96553 3.04893 8.0001 3.04893C8.03467 3.04893 8.06838 3.05968 8.09657 3.07969C8.12476 3.09969 8.14603 3.12797 8.15744 3.1606L9.23144 6.20594C9.27725 6.3361 9.36233 6.44884 9.47493 6.52861C9.58753 6.60838 9.72211 6.65123 9.8601 6.65127H12.8434C12.8778 6.65126 12.9113 6.66185 12.9394 6.68161C12.9675 6.70136 12.9888 6.72931 13.0004 6.76164C13.012 6.79396 13.0133 6.82907 13.0042 6.86218C12.9951 6.89529 12.9759 6.92478 12.9494 6.9466L10.3661 9.0906Z"/>
</svg>

