<svg width="16" height="16" viewBox="0 0 16 16" fill="none" xmlns="http://www.w3.org/2000/svg">
<path d="M8.00004 1.33398C6.6815 1.33398 5.39257 1.72498 4.29624 2.45752C3.19991 3.19006 2.34543 4.23125 1.84085 5.44943C1.33626 6.6676 1.20424 8.00805 1.46148 9.30125C1.71871 10.5945 2.35365 11.7823 3.286 12.7147C4.21835 13.647 5.40623 14.282 6.69944 14.5392C7.99265 14.7965 9.33309 14.6644 10.5513 14.1598C11.7694 13.6553 12.8106 12.8008 13.5432 11.7045C14.2757 10.6081 14.6667 9.31919 14.6667 8.00065C14.6648 6.23313 13.9618 4.53855 12.712 3.28872C11.4621 2.03889 9.76757 1.3359 8.00004 1.33398ZM8.00004 11.8895C7.83523 11.8895 7.67411 11.8407 7.53707 11.7491C7.40003 11.6575 7.29322 11.5274 7.23014 11.3751C7.16707 11.2228 7.15057 11.0553 7.18272 10.8936C7.21488 10.732 7.29424 10.5835 7.41079 10.467C7.52733 10.3504 7.67582 10.271 7.83747 10.2389C7.99912 10.2067 8.16667 10.2232 8.31895 10.2863C8.47122 10.3494 8.60137 10.4562 8.69293 10.5932C8.7845 10.7303 8.83338 10.8914 8.83338 11.0562C8.83338 11.2772 8.74558 11.4892 8.5893 11.6455C8.43302 11.8017 8.22106 11.8895 8.00004 11.8895ZM8.88893 8.51176C8.78982 8.55502 8.70548 8.62627 8.64627 8.71676C8.58706 8.80725 8.55555 8.91306 8.5556 9.02121C8.5556 9.16855 8.49707 9.30986 8.39288 9.41404C8.28869 9.51823 8.14739 9.57676 8.00004 9.57676C7.8527 9.57676 7.71139 9.51823 7.60721 9.41404C7.50302 9.30986 7.44449 9.16855 7.44449 9.02121C7.44444 8.69687 7.53902 8.37956 7.71665 8.10819C7.89428 7.83681 8.14723 7.62316 8.44449 7.49343C8.62811 7.41329 8.78664 7.28499 8.90331 7.12212C9.01998 6.95925 9.09045 6.76787 9.10724 6.56823C9.12404 6.36859 9.08654 6.16812 8.99872 5.98804C8.91091 5.80797 8.77603 5.65499 8.60838 5.5453C8.44073 5.43561 8.24654 5.37329 8.04637 5.36493C7.8462 5.35658 7.64749 5.4025 7.47129 5.49785C7.29508 5.59319 7.14793 5.7344 7.04541 5.90653C6.9429 6.07866 6.88883 6.2753 6.88893 6.47565C6.88893 6.62299 6.8304 6.7643 6.72621 6.86849C6.62203 6.97267 6.48072 7.03121 6.33338 7.03121C6.18603 7.03121 6.04473 6.97267 5.94054 6.86849C5.83635 6.7643 5.77782 6.62299 5.77782 6.47565C5.77781 6.07501 5.88612 5.68181 6.09128 5.33768C6.29644 4.99355 6.59082 4.71128 6.94326 4.52075C7.29571 4.33023 7.6931 4.23853 8.0934 4.25536C8.49369 4.27219 8.88198 4.39692 9.21719 4.61636C9.55239 4.8358 9.82204 5.14178 9.99759 5.50192C10.1731 5.86206 10.2481 6.26296 10.2144 6.66219C10.1808 7.06142 10.0398 7.44413 9.8065 7.76982C9.57317 8.09551 9.25613 8.3515 8.88893 8.51176Z" fill="#40526D"/>
</svg>
