<svg width="16" height="16" viewBox="0 0 16 16" fill="none" xmlns="http://www.w3.org/2000/svg">
<g clip-path="url(#clip0_955_125048)">
<path d="M4.66668 8.60675C4.54304 8.4905 4.37972 8.42578 4.21001 8.42578C4.04031 8.42578 3.87699 8.4905 3.75335 8.60675C3.63515 8.73074 3.56922 8.89546 3.56922 9.06675C3.56922 9.23805 3.63515 9.40277 3.75335 9.52675L3.98001 9.75342C4.04067 9.8146 4.07471 9.89727 4.07471 9.98342C4.07471 10.0696 4.04067 10.1522 3.98001 10.2134L0.380014 13.7868C0.259048 13.9074 0.163185 14.0508 0.097962 14.2087C0.032739 14.3666 -0.000551289 14.5359 1.38679e-05 14.7068C-0.000778997 14.8766 0.0324335 15.045 0.097695 15.2018C0.162957 15.3587 0.258947 15.5009 0.380014 15.6201C0.499203 15.7412 0.641414 15.8371 0.79827 15.9024C0.955127 15.9677 1.12346 16.0009 1.29335 16.0001C1.46419 16.0007 1.63346 15.9674 1.79137 15.9021C1.94928 15.8369 2.0927 15.7411 2.21335 15.6201L5.78668 12.0468C5.84355 11.99 5.91971 11.9566 6.00001 11.9534C6.08699 11.9529 6.17073 11.9864 6.23335 12.0468L6.46001 12.2734C6.584 12.3916 6.74872 12.4575 6.92001 12.4575C7.09131 12.4575 7.25603 12.3916 7.38001 12.2734C7.49626 12.1498 7.56099 11.9865 7.56099 11.8168C7.56099 11.647 7.49626 11.4837 7.38001 11.3601L4.66668 8.60675Z" fill="#40526D"/>
<path d="M12.9667 4.41282C13.0576 4.43962 13.1519 4.45309 13.2467 4.45282H13.3333C13.4929 4.44128 13.6479 4.39466 13.7873 4.3163C13.9268 4.23794 14.0472 4.12976 14.14 3.99948L15.42 2.29282C15.5253 2.14985 15.5747 1.97325 15.5587 1.79638C15.5428 1.6195 15.4626 1.4546 15.3333 1.33282L14.6667 0.666149C14.5481 0.537128 14.3865 0.455789 14.2122 0.43738C14.0379 0.41897 13.8629 0.464754 13.72 0.566149L12 1.78615C11.8648 1.87722 11.752 1.9977 11.6701 2.13855C11.5881 2.27941 11.5391 2.43699 11.5267 2.59948C11.5142 2.75044 11.5324 2.90236 11.58 3.04615C11.5988 3.10367 11.6013 3.16529 11.5872 3.22415C11.5731 3.28301 11.5429 3.33679 11.5 3.37948L8.71999 6.12615C8.70502 6.14209 8.68695 6.1548 8.66688 6.16349C8.64682 6.17217 8.62518 6.17665 8.60332 6.17665C8.58145 6.17665 8.55982 6.17217 8.53975 6.16349C8.51969 6.1548 8.50161 6.14209 8.48665 6.12615L6.33998 3.99948C6.30003 3.95906 6.27155 3.90873 6.25749 3.85366C6.24343 3.7986 6.24429 3.74078 6.25998 3.68615C6.39638 3.18862 6.39853 2.66384 6.26621 2.16522C6.1339 1.66659 5.87184 1.21192 5.50672 0.847473C5.1416 0.483027 4.68644 0.221819 4.18757 0.0904308C3.6887 -0.0409571 3.16392 -0.0378342 2.66665 0.0994818C2.60701 0.112453 2.55232 0.142211 2.50903 0.185246C2.46575 0.228282 2.43568 0.282799 2.42236 0.342366C2.40905 0.401933 2.41305 0.464066 2.43389 0.521436C2.45473 0.578805 2.49154 0.629017 2.53999 0.666149L3.50665 1.60615C3.55866 1.65824 3.59154 1.72636 3.59999 1.79948L3.71332 2.83282C3.72028 2.88149 3.71543 2.93113 3.69919 2.97754C3.68295 3.02395 3.65578 3.06577 3.61999 3.09948C3.58355 3.13739 3.53833 3.16574 3.48833 3.18202C3.43833 3.1983 3.38509 3.20201 3.33332 3.19282L2.32665 3.07948C2.25409 3.06918 2.18652 3.03656 2.13332 2.98615L1.16665 1.99948C1.12586 1.9601 1.07552 1.93202 1.02058 1.91799C0.965641 1.90396 0.907997 1.90448 0.853318 1.91948C0.797714 1.93295 0.746738 1.96109 0.705701 2.00095C0.664663 2.04082 0.635063 2.09096 0.619985 2.14615C0.48599 2.643 0.485061 3.16636 0.61729 3.66368C0.74952 4.161 1.01025 4.61479 1.37332 4.97948C1.73519 5.34257 2.18665 5.60349 2.6819 5.73579C3.17715 5.8681 3.69859 5.86707 4.19332 5.73282C4.2486 5.71931 4.30642 5.72019 4.36127 5.73536C4.41611 5.75053 4.46617 5.77949 4.50665 5.81948L6.66665 7.95948C6.69617 7.99248 6.71249 8.03521 6.71249 8.07948C6.71249 8.12376 6.69617 8.16648 6.66665 8.19948L6.55332 8.30615C6.46993 8.39713 6.42367 8.51607 6.42367 8.63948C6.42367 8.7629 6.46993 8.88183 6.55332 8.97282L7.01332 9.43282C7.0588 9.47815 7.11291 9.51391 7.17246 9.53795C7.23201 9.562 7.29577 9.57386 7.35998 9.57281C7.42324 9.57411 7.48608 9.56235 7.54458 9.53826C7.60308 9.51418 7.65599 9.47828 7.69999 9.43282L12.6667 4.49948C12.7051 4.46061 12.7528 4.43224 12.8054 4.41707C12.8579 4.4019 12.9134 4.40043 12.9667 4.41282Z" fill="#40526D"/>
<path d="M15.1467 10.5001C14.7859 10.1353 14.3347 9.87272 13.8393 9.73921C13.3439 9.60569 12.8219 9.606 12.3267 9.74012C12.272 9.75581 12.2142 9.75667 12.1591 9.74261C12.1041 9.72855 12.0537 9.70008 12.0133 9.66012L10.56 8.20679C10.4973 8.14916 10.4152 8.11719 10.33 8.11719C10.2448 8.11719 10.1627 8.14916 10.1 8.20679L8.72665 9.58012C8.66599 9.6413 8.63196 9.72397 8.63196 9.81012C8.63196 9.89628 8.66599 9.97894 8.72665 10.0401L10.18 11.4935C10.22 11.5339 10.2489 11.584 10.2641 11.6388C10.2793 11.6937 10.2802 11.7515 10.2667 11.8068C10.1324 12.3015 10.1314 12.823 10.2637 13.3182C10.396 13.8135 10.6569 14.2649 11.02 14.6268C11.5704 15.1711 12.3126 15.4775 13.0867 15.4801C13.3411 15.4801 13.5944 15.4465 13.84 15.3801C13.8952 15.365 13.9453 15.3354 13.9852 15.2944C14.025 15.2534 14.0532 15.2024 14.0667 15.1468C14.0817 15.0921 14.0822 15.0345 14.0681 14.9795C14.0541 14.9246 14.026 14.8742 13.9867 14.8335L13.0133 13.8668C12.9604 13.8153 12.9274 13.7469 12.92 13.6735L12.8067 12.6668C12.8018 12.6192 12.8077 12.5712 12.8238 12.5262C12.84 12.4812 12.866 12.4404 12.9 12.4068C12.9337 12.371 12.9755 12.3438 13.0219 12.3276C13.0683 12.3113 13.118 12.3065 13.1667 12.3135L14.2 12.4268C14.2715 12.434 14.338 12.4672 14.3867 12.5201L15.3333 13.4601C15.3731 13.501 15.4232 13.5305 15.4782 13.5456C15.5333 13.5606 15.5914 13.5607 15.6465 13.5457C15.7016 13.5308 15.7517 13.5013 15.7915 13.4605C15.8314 13.4196 15.8597 13.3689 15.8733 13.3135C16.0076 12.8218 16.0112 12.3037 15.8838 11.8102C15.7563 11.3168 15.5022 10.8652 15.1467 10.5001Z" fill="#40526D"/>
</g>
<defs>
<clipPath id="clip0_955_125048">
<rect width="16" height="16" fill="white"/>
</clipPath>
</defs>
</svg>
