<svg width="16" height="16" viewBox="0 0 16 16" fill="none" xmlns="http://www.w3.org/2000/svg">
<path d="M2.74873 5.53375C2.78047 5.53626 2.81082 5.54782 2.8362 5.56705C2.86158 5.58628 2.88092 5.61238 2.89193 5.64226C2.90294 5.67213 2.90516 5.70454 2.89833 5.73564C2.8915 5.76674 2.87591 5.79523 2.85339 5.81775L0.67206 8.00041C0.61187 8.06053 0.56412 8.13193 0.531542 8.21051C0.498963 8.2891 0.482194 8.37334 0.482194 8.45841C0.482194 8.54348 0.498963 8.62772 0.531542 8.70631C0.56412 8.7849 0.61187 8.85629 0.67206 8.91641L1.86073 10.1057C1.89616 10.1412 1.93911 10.1681 1.9864 10.1846C2.03368 10.2012 2.08409 10.2068 2.13386 10.2012C2.18363 10.1955 2.23149 10.1788 2.27388 10.1521C2.31628 10.1254 2.35211 10.0895 2.37873 10.0471C2.47971 9.88648 2.59846 9.73776 2.73273 9.60375C3.21896 9.11751 3.87843 8.84435 4.56606 8.84435C5.25369 8.84435 5.91316 9.11751 6.39939 9.60375C6.88562 10.09 7.15878 10.7494 7.15878 11.4371C7.15878 12.1247 6.88562 12.7842 6.39939 13.2704C6.2652 13.4045 6.11651 13.5232 5.95606 13.6244C5.91363 13.651 5.87774 13.6869 5.85106 13.7293C5.82438 13.7716 5.8076 13.8195 5.80196 13.8693C5.79633 13.9191 5.80198 13.9695 5.8185 14.0167C5.83502 14.064 5.86199 14.107 5.89739 14.1424L7.08673 15.3317C7.20823 15.4531 7.37297 15.5213 7.54473 15.5213C7.71649 15.5213 7.88122 15.4531 8.00273 15.3317L10.1847 13.1497C10.2072 13.1272 10.2357 13.1116 10.2668 13.1048C10.2979 13.098 10.3303 13.1002 10.3602 13.1112C10.3901 13.1222 10.4162 13.1416 10.4354 13.1669C10.4547 13.1923 10.4662 13.2227 10.4687 13.2544C10.5025 13.6957 10.6492 14.1209 10.8947 14.4892C11.1402 14.8575 11.4764 15.1564 11.8708 15.3572C12.2652 15.5581 12.7046 15.6541 13.1469 15.6361C13.5891 15.6181 14.0193 15.4867 14.3961 15.2544C14.7298 15.0492 15.0128 14.771 15.2237 14.4408C15.4346 14.1107 15.568 13.737 15.6139 13.3479C15.6597 12.9587 15.6169 12.5643 15.4885 12.1941C15.3602 11.8239 15.1496 11.4876 14.8727 11.2104C14.4397 10.7772 13.865 10.5145 13.2541 10.4704C13.2223 10.4679 13.192 10.4563 13.1666 10.4371C13.1412 10.4179 13.1219 10.3918 13.1109 10.3619C13.0998 10.332 13.0976 10.2996 13.1045 10.2685C13.1113 10.2374 13.1269 10.2089 13.1494 10.1864L15.3281 8.00041C15.3882 7.94029 15.436 7.8689 15.4686 7.79031C15.5012 7.71172 15.5179 7.62748 15.5179 7.54241C15.5179 7.45734 15.5012 7.3731 15.4686 7.29451C15.436 7.21593 15.3882 7.14453 15.3281 7.08441L14.1394 5.89508C14.104 5.85967 14.061 5.83271 14.0137 5.81619C13.9664 5.79967 13.916 5.79401 13.8663 5.79965C13.8165 5.80529 13.7686 5.82207 13.7262 5.84875C13.6838 5.87542 13.648 5.91131 13.6214 5.95375C13.5204 6.11554 13.4014 6.26539 13.2667 6.40041C13.026 6.64117 12.7401 6.83215 12.4256 6.96244C12.111 7.09274 11.7739 7.1598 11.4334 7.1598C10.7458 7.1598 10.0863 6.88664 9.60006 6.40041C9.11383 5.91418 8.84067 5.25471 8.84067 4.56708C8.84067 4.2266 8.90773 3.88945 9.03803 3.57489C9.16832 3.26032 9.3593 2.9745 9.60006 2.73375C9.73425 2.59967 9.88295 2.48094 10.0434 2.37975C10.0858 2.35313 10.1217 2.31729 10.1484 2.2749C10.1751 2.23251 10.1919 2.18465 10.1975 2.13488C10.2031 2.0851 10.1975 2.0347 10.181 1.98742C10.1644 1.94013 10.1375 1.89718 10.1021 1.86175L8.91606 0.671746C8.79455 0.550348 8.62982 0.482156 8.45806 0.482156C8.2863 0.482156 8.12157 0.550348 8.00006 0.671746L5.81806 2.85375C5.79558 2.87647 5.76703 2.89225 5.73582 2.8992C5.70462 2.90615 5.67208 2.90398 5.64207 2.89295C5.61207 2.88192 5.58587 2.86249 5.5666 2.83698C5.54733 2.81147 5.5358 2.78096 5.53339 2.74908C5.49964 2.30776 5.35294 1.88254 5.10741 1.51428C4.86187 1.14603 4.52575 0.847109 4.13134 0.646256C3.73693 0.445402 3.29749 0.349364 2.85525 0.367371C2.41301 0.385378 1.98283 0.516825 1.60606 0.749079C1.27235 0.95461 0.989536 1.23307 0.778851 1.56355C0.568167 1.89403 0.435087 2.26795 0.389603 2.65723C0.344119 3.0465 0.387412 3.44103 0.516233 3.81118C0.645054 4.18133 0.856055 4.51748 1.13339 4.79441C1.56571 5.22666 2.13902 5.48906 2.74873 5.53375Z" fill="#40526D"/>
</svg>
