<svg width="16" height="16" viewBox="0 0 16 16" fill="none" xmlns="http://www.w3.org/2000/svg">
<g clip-path="url(#clip0_1779_178941)">
<path d="M12.6667 5.86714C12.6992 5.86725 12.7311 5.85784 12.7583 5.84007C12.7856 5.8223 12.807 5.79695 12.82 5.76714C12.8358 5.73977 12.8442 5.70873 12.8442 5.67714C12.8442 5.64554 12.8358 5.6145 12.82 5.58714C12.408 5.11041 11.9298 4.69509 11.4 4.3538C11.3638 4.32625 11.3399 4.28554 11.3334 4.24047C11.33 4.21667 11.3319 4.19244 11.3388 4.16943C11.3457 4.14641 11.3575 4.12516 11.3734 4.10714C11.8217 3.55617 12.1284 2.90387 12.2667 2.20714C12.4829 2.08561 12.6548 1.89834 12.7573 1.6725C12.8599 1.44667 12.8878 1.19402 12.837 0.951248C12.7863 0.708472 12.6594 0.488197 12.4749 0.322399C12.2905 0.156601 12.058 0.0539086 11.8112 0.0292286C11.5644 0.00454874 11.3161 0.0591659 11.1025 0.185152C10.8888 0.311138 10.7209 0.501935 10.623 0.729849C10.5252 0.957762 10.5025 1.21093 10.5583 1.4526C10.6141 1.69427 10.7455 1.91187 10.9334 2.0738C10.786 2.66629 10.4602 3.19921 10 3.60047C9.9788 3.6199 9.95304 3.63373 9.92511 3.64072C9.89717 3.6477 9.86794 3.64762 9.84004 3.64047C8.64497 3.27612 7.36845 3.27612 6.17338 3.64047C6.14838 3.65233 6.12105 3.65848 6.09338 3.65848C6.06571 3.65848 6.03838 3.65233 6.01338 3.64047C5.56173 3.23278 5.24345 2.69843 5.10004 2.10714C5.23028 1.99554 5.33382 1.85616 5.40305 1.69924C5.47227 1.54233 5.50542 1.37189 5.50004 1.20047C5.5017 0.994798 5.44895 0.792346 5.34715 0.613631C5.24535 0.434915 5.09811 0.286288 4.92036 0.182814C4.7426 0.0793396 4.54065 0.0246956 4.33498 0.0244201C4.1293 0.0241446 3.92721 0.0782474 3.74918 0.181245C3.57115 0.284243 3.42351 0.432475 3.32123 0.610917C3.21895 0.789359 3.16566 0.991669 3.16676 1.19734C3.16787 1.40302 3.22332 1.60474 3.32751 1.78208C3.4317 1.95941 3.58092 2.10605 3.76004 2.20714C3.90253 2.90502 4.21383 3.55737 4.66671 4.10714C4.68252 4.15017 4.68252 4.19743 4.66671 4.24047C4.66307 4.26343 4.65466 4.28537 4.64203 4.30489C4.6294 4.32441 4.61283 4.34107 4.59338 4.3538C4.06972 4.6953 3.59817 5.11071 3.19338 5.58714C3.17758 5.6145 3.16926 5.64554 3.16926 5.67714C3.16926 5.70873 3.17758 5.73977 3.19338 5.76714C3.20541 5.79496 3.22481 5.81898 3.24948 5.8366C3.27415 5.85422 3.30315 5.86478 3.33338 5.86714H12.6667Z" fill="#40526D"/>
<path d="M7.5 7.19973C7.5 7.11133 7.46488 7.02654 7.40237 6.96403C7.33986 6.90152 7.25507 6.8664 7.16667 6.8664H3.33333C3.28703 6.86487 3.24158 6.85351 3.2 6.83306L1.26667 5.99973C1.10572 5.92759 0.922753 5.92216 0.757816 5.98463C0.59288 6.04711 0.459422 6.1724 0.386667 6.33306C0.350114 6.41351 0.329919 6.50042 0.327254 6.58874C0.32459 6.67706 0.33951 6.76503 0.371146 6.84754C0.402783 6.93004 0.450505 7.00543 0.511539 7.06933C0.572572 7.13322 0.645699 7.18435 0.726667 7.21973L1.70667 7.65306C1.78069 7.68422 1.84065 7.74154 1.87508 7.8141C1.90951 7.88666 1.91601 7.96935 1.89333 8.0464C1.82876 8.28558 1.77757 8.52818 1.74 8.77306C1.72737 8.85258 1.68694 8.92503 1.6259 8.97752C1.56486 9.03002 1.48717 9.05915 1.40667 9.05973H0.666667C0.489856 9.05973 0.320286 9.12997 0.195262 9.25499C0.0702379 9.38002 0 9.54959 0 9.7264C0 9.90321 0.0702379 10.0728 0.195262 10.1978C0.320286 10.3228 0.489856 10.3931 0.666667 10.3931H1.40667C1.48621 10.3934 1.56312 10.4216 1.62402 10.4727C1.68492 10.5239 1.72596 10.5948 1.74 10.6731C1.78964 10.9915 1.86318 11.3057 1.96 11.6131C1.98543 11.6894 1.9818 11.7724 1.94982 11.8462C1.91783 11.92 1.85974 11.9794 1.78667 12.0131L0.82 12.4864C0.683975 12.5523 0.57437 12.6624 0.50916 12.7988C0.44395 12.9351 0.427005 13.0896 0.461103 13.2368C0.495201 13.3841 0.578318 13.5153 0.696826 13.6091C0.815333 13.7029 0.962197 13.7537 1.11333 13.7531C1.21266 13.7525 1.3106 13.7297 1.4 13.6864L2.37333 13.2064C2.44555 13.1732 2.5271 13.1664 2.60383 13.1871C2.68056 13.2078 2.74761 13.2547 2.79333 13.3197C3.29273 14.0375 3.93464 14.6447 4.67903 15.1035C5.42343 15.5623 6.25435 15.8629 7.12 15.9864C7.16755 15.9918 7.21571 15.9875 7.26155 15.9738C7.30738 15.96 7.34995 15.9371 7.38667 15.9064C7.42265 15.8748 7.4514 15.8358 7.47095 15.7921C7.49051 15.7484 7.50042 15.701 7.5 15.6531V7.19973Z" fill="#40526D"/>
<path d="M8.50001 15.634C8.4996 15.6819 8.5095 15.7293 8.52906 15.773C8.54862 15.8167 8.57737 15.8557 8.61335 15.8873C8.65006 15.918 8.69263 15.9409 8.73847 15.9547C8.78431 15.9684 8.83246 15.9727 8.88001 15.9673C9.74566 15.8438 10.5766 15.5432 11.321 15.0844C12.0654 14.6256 12.7073 14.0184 13.2067 13.3006C13.2524 13.2356 13.3195 13.1887 13.3962 13.168C13.4729 13.1473 13.5545 13.1541 13.6267 13.1873L14.6 13.6673C14.6894 13.7106 14.7874 13.7334 14.8867 13.734C15.0378 13.7346 15.1847 13.6838 15.3032 13.59C15.4217 13.4962 15.5048 13.365 15.5389 13.2177C15.573 13.0705 15.5561 12.916 15.4909 12.7797C15.4256 12.6433 15.316 12.5332 15.18 12.4673L14.2133 12.0006C14.1403 11.967 14.0822 11.9076 14.0502 11.8338C14.0182 11.76 14.0146 11.6769 14.04 11.6006C14.1365 11.2954 14.21 10.9835 14.26 10.6673C14.2728 10.5884 14.3135 10.5168 14.3747 10.4654C14.4358 10.414 14.5134 10.3863 14.5933 10.3873H15.3333C15.5102 10.3873 15.6797 10.3171 15.8048 10.192C15.9298 10.067 16 9.89744 16 9.72063C16 9.54382 15.9298 9.37425 15.8048 9.24923C15.6797 9.1242 15.5102 9.05397 15.3333 9.05397H14.5933C14.5128 9.05338 14.4352 9.02425 14.3741 8.97176C14.3131 8.91926 14.2726 8.84681 14.26 8.7673C14.2239 8.50896 14.1727 8.25297 14.1067 8.00063C14.084 7.92359 14.0905 7.84089 14.1249 7.76834C14.1594 7.69578 14.2193 7.63845 14.2933 7.6073L15.2733 7.17397C15.3543 7.13858 15.4274 7.08746 15.4885 7.02356C15.5495 6.95967 15.5972 6.88428 15.6289 6.80177C15.6605 6.71927 15.6754 6.6313 15.6728 6.54298C15.6701 6.45466 15.6499 6.36775 15.6133 6.2873C15.5323 6.13489 15.3953 6.01984 15.2312 5.96638C15.0671 5.91291 14.8886 5.92519 14.7333 6.00063L12.7933 6.86063C12.7518 6.88107 12.7063 6.89244 12.66 6.89397H8.83335C8.74494 6.89397 8.66016 6.92908 8.59764 6.9916C8.53513 7.05411 8.50001 7.13889 8.50001 7.2273V15.634Z" fill="#40526D"/>
</g>
<defs>
<clipPath id="clip0_1779_178941">
<rect width="16" height="16" fill="white"/>
</clipPath>
</defs>
</svg>
