<svg width="135" height="120" viewBox="0 0 135 120" fill="none" xmlns="http://www.w3.org/2000/svg">
    <path d="M60 120C93.1371 120 120 93.1371 120 60C120 26.8629 93.1371 0 60 0C26.8629 0 0 26.8629 0 60C0 93.1371 26.8629 120 60 120Z" fill="#DAECF8"/>
    <path d="M36.7057 18.738C37.9815 18.738 39.0158 17.7037 39.0158 16.4278C39.0158 15.152 37.9815 14.1177 36.7057 14.1177C35.4298 14.1177 34.3955 15.152 34.3955 16.4278C34.3955 17.7037 35.4298 18.738 36.7057 18.738Z" stroke="#B5D9F1" stroke-linecap="round" stroke-dasharray="1.11 6.67 182.22 5.56"/>
    <path d="M112.549 25.1335V31.408" stroke="#B5D9F1" stroke-linecap="round" stroke-dasharray="1.11 6.67 182.22 5.56"/>
    <path d="M115.686 28.2709H109.411" stroke="#B5D9F1" stroke-linecap="round" stroke-dasharray="1.11 6.67 182.22 5.56"/>
    <path d="M97.0591 63.7985C97.0591 61.2329 96.8043 58.7274 96.3189 56.3066C95.5928 52.6855 94.3508 49.254 92.6739 46.0938C89.8952 40.8573 85.9222 36.3659 81.1234 32.9925M70.1215 27.7259C66.9044 26.804 63.5092 26.3107 60.0002 26.3107C51.4805 26.3107 43.6323 29.2189 37.3728 34.1076M32.716 38.4295C26.647 45.1052 22.9414 54.0141 22.9414 63.7985C22.9414 66.6845 23.2638 69.4943 23.8741 72.193M76.7682 30.6229C76.187 30.347 75.5975 30.0859 75.0002 29.8401L76.7682 30.6229Z" stroke="#264887" stroke-width="2" stroke-linecap="round" stroke-linejoin="round"/>
    <path d="M87.8793 78.5039C88.1147 76.1971 88.2353 73.8556 88.2353 71.4854C88.2353 65.962 87.5802 60.5944 86.3447 55.4589C83.5824 44.122 72.8056 35.1342 59.9677 35.1342C48.8865 35.1342 39.3409 41.8306 35.0194 51.467M33.3626 56.2979C32.8348 58.4612 32.5547 60.7241 32.5547 63.0536C32.5547 65.0389 33.1036 67.2209 33.1036 71.6962C33.1036 75.9894 31.6403 79.7375 28.2354 81.7414M86.2066 88.0753C86.6191 86.4233 86.9714 84.7468 87.261 83.0483L86.2066 88.0753Z" stroke="#264887" stroke-width="2" stroke-linecap="round" stroke-linejoin="round"/>
    <path d="M73.1044 98.6636C75.9763 93.0828 77.9572 86.9683 78.8592 80.5081M79.4117 72.5261C79.4117 68.1678 78.9242 63.9233 78.001 59.8443C76.2407 51.9643 68.8302 45.7224 59.9621 45.7224C49.7467 45.7224 41.4655 54.005 41.4655 64.2221C41.4655 65.8319 41.6711 67.3937 42.0574 68.8826M42.0574 73.9577C42.0574 80.9787 38.9762 85.9365 33.5293 89.5405" stroke="#264887" stroke-width="2" stroke-linecap="round" stroke-linejoin="round"/>
    <path d="M61.2995 100.428C67.142 92.5223 70.5889 82.7875 70.5889 72.2596C70.5889 70.115 70.4458 69.768 70.1687 67.698M69.4028 61.6958C69.6613 63.3215 69.5889 62.6602 69.4513 62.0227C68.5288 57.7507 64.6772 54.546 60.0659 54.546C54.7665 54.546 50.4705 58.7784 50.4705 63.9994C50.4705 65.1142 50.6663 66.1839 51.026 67.177C51.5288 68.6028 51.7242 70.512 51.7242 72.4661C51.7242 81.6849 47.3755 89.9031 40.5889 95.2382" stroke="#264887" stroke-width="2" stroke-linecap="round" stroke-linejoin="round"/>
    <path d="M51.1768 98.6636C57.7318 91.721 61.765 82.2666 61.765 71.8479C61.765 68.9351 61.4498 66.0977 60.8523 63.3695" stroke="#264887" stroke-width="2" stroke-linecap="round" stroke-linejoin="round"/>
    <path d="M21.1763 112.585H31.3724" stroke="#B5D9F1" stroke-linecap="round" stroke-dasharray="1.11 6.67 182.22 5.56"/>
    <path d="M29.0191 109.447H39.2152" stroke="#B5D9F1" stroke-linecap="round" stroke-dasharray="1.11 6.67 182.22 5.56"/>
    <path d="M33.7252 112.585H36.4703" stroke="#B5D9F1" stroke-linecap="round" stroke-dasharray="1.11 6.67 182.22 5.56"/>
    <path d="M1.76465 43.9574H2.53607M7.56285 43.9574H10.7885M16.5918 43.9574H101.944M106.87 43.9574L109.165 43.9574M113.526 43.9574H114.706" stroke="#D22D27" stroke-width="2" stroke-linecap="round" stroke-linejoin="round"/>
    <g filter="url(#filter0_d_3865_43949)">
        <rect width="32.0273" height="32.0274" rx="6.89073" transform="matrix(-0.965926 -0.258819 -0.258819 0.965926 128.225 81.2893)" fill="#00A878"/>
        <path fill-rule="evenodd" clip-rule="evenodd" d="M104.594 89.7651L104.098 89.6323C103.747 89.5384 103.374 89.5875 103.06 89.769C102.745 89.9505 102.516 90.2494 102.422 90.5999L100.563 97.5393C100.469 97.8899 100.518 98.2634 100.699 98.5777C100.881 98.892 101.18 99.1214 101.53 99.2153L111.444 101.872C111.794 101.966 112.168 101.916 112.482 101.735C112.796 101.553 113.026 101.255 113.12 100.904L114.979 93.9646C115.073 93.614 115.024 93.2405 114.842 92.9262C114.661 92.6119 114.362 92.3825 114.012 92.2886L106.576 90.2964C106.489 90.2729 106.414 90.2156 106.369 90.137C106.323 90.0584 106.311 89.965 106.335 89.8774L106.733 88.3904C106.933 87.6454 107.42 87.0103 108.088 86.6247C108.756 86.2391 109.549 86.1346 110.294 86.3342C111.039 86.5338 111.674 87.0211 112.06 87.689C112.359 88.2069 112.489 88.8004 112.439 89.3881L114.108 89.8353C114.264 88.8045 114.068 87.7454 113.541 86.8338C112.929 85.773 111.92 84.999 110.737 84.6819C109.554 84.3649 108.293 84.5309 107.233 85.1433C106.172 85.7558 105.398 86.7645 105.081 87.9477L104.594 89.7651ZM108.255 96.8825C107.999 96.9695 107.722 96.9786 107.461 96.9085C107.11 96.8146 106.812 96.5852 106.63 96.2709C106.449 95.9566 106.399 95.5831 106.493 95.2326C106.563 94.9711 106.709 94.7363 106.913 94.5579C107.116 94.3794 107.368 94.2653 107.637 94.23C107.905 94.1947 108.178 94.2397 108.42 94.3594C108.663 94.4791 108.865 94.6681 109 94.9025C109.136 95.1369 109.198 95.4062 109.181 95.6762C109.163 95.9463 109.066 96.2051 108.901 96.4198C108.736 96.6345 108.511 96.7955 108.255 96.8825Z" fill="white"/>
    </g>
    <defs>
        <filter id="filter0_d_3865_43949" x="88.999" y="73" width="40.374" height="42.6707" filterUnits="userSpaceOnUse" color-interpolation-filters="sRGB">
            <feFlood flood-opacity="0" result="BackgroundImageFix"/>
            <feColorMatrix in="SourceAlpha" type="matrix" values="0 0 0 0 0 0 0 0 0 0 0 0 0 0 0 0 0 0 127 0" result="hardAlpha"/>
            <feOffset dx="1.14846" dy="3.44537"/>
            <feComposite in2="hardAlpha" operator="out"/>
            <feColorMatrix type="matrix" values="0 0 0 0 0.635294 0 0 0 0 0.87451 0 0 0 0 0.803922 0 0 0 1 0"/>
            <feBlend mode="normal" in2="BackgroundImageFix" result="effect1_dropShadow_3865_43949"/>
            <feBlend mode="normal" in="SourceGraphic" in2="effect1_dropShadow_3865_43949" result="shape"/>
        </filter>
    </defs>
</svg>
