<svg width="140" height="121" viewBox="0 0 140 121" fill="none" xmlns="http://www.w3.org/2000/svg">
    <path fill-rule="evenodd" clip-rule="evenodd" d="M61.0003 116.263C92.3933 116.263 117.842 90.8141 117.842 59.4211C117.842 28.0281 92.3933 2.57898 61.0003 2.57898C29.6073 2.57898 4.1582 28.0281 4.1582 59.4211C4.1582 90.8141 29.6073 116.263 61.0003 116.263Z" fill="#DAECF8"/>
    <rect width="3.67674" height="3.67674" transform="matrix(0.656248 -0.754545 0.656248 0.754545 76.6387 35.9935)" stroke="#B5D9F1" stroke-width="2" stroke-linecap="round" stroke-linejoin="round"/>
    <path d="M32.3958 78.0655L35.0533 81.1211" stroke="#B5D9F1" stroke-width="2" stroke-linecap="round" stroke-linejoin="round"/>
    <path d="M34.9596 78.0655L32.3021 81.1211" stroke="#B5D9F1" stroke-width="2" stroke-linecap="round" stroke-linejoin="round"/>
    <path d="M1 69.6667L7.04 65.8267M94.7405 10.0701L92.9422 11.2133M88.7318 13.8901L90.2578 12.92M84.3512 16.6752L11.6638 62.887M9.95763 63.9717L9.10452 64.5141" stroke="#264887" stroke-width="2" stroke-linecap="round" stroke-linejoin="round"/>
    <path d="M71.5374 1.84332C72.0032 1.54652 72.1401 0.928343 71.8433 0.46259C71.5465 -0.00316358 70.9283 -0.140124 70.4626 0.156679L71.5374 1.84332ZM2.46259 43.49C1.99684 43.7868 1.85988 44.405 2.15668 44.8707C2.45348 45.3365 3.07166 45.4735 3.53741 45.1767L2.46259 43.49ZM5.77917 43.7481C6.24492 43.4513 6.38188 42.8331 6.08508 42.3674C5.78828 41.9016 5.1701 41.7646 4.70435 42.0614L5.77917 43.7481ZM7.23452 40.4491C6.76877 40.7459 6.63181 41.3641 6.92861 41.8298C7.22541 42.2956 7.84359 42.4325 8.30934 42.1357L7.23452 40.4491ZM11.8883 39.855C12.354 39.5582 12.491 38.94 12.1942 38.4743C11.8974 38.0085 11.2792 37.8716 10.8135 38.1684L11.8883 39.855ZM12.9241 36.8233C12.4584 37.1201 12.3214 37.7383 12.6182 38.2041C12.915 38.6698 13.5332 38.8068 13.9989 38.51L12.9241 36.8233ZM56.7433 8.89937C56.2775 9.19617 56.1406 9.81435 56.4374 10.2801C56.7342 10.7459 57.3524 10.8828 57.8181 10.586L56.7433 8.89937ZM53.2758 11.1091C52.81 11.4059 52.6731 12.024 52.9699 12.4898C53.2667 12.9555 53.8848 13.0925 54.3506 12.7957L53.2758 11.1091ZM52.8561 13.7481C53.3218 13.4513 53.4588 12.8331 53.162 12.3674C52.8652 11.9016 52.247 11.7646 51.7813 12.0614L52.8561 13.7481ZM55.2847 12.2005C55.7504 11.9037 55.8874 11.2855 55.5906 10.8197C55.2938 10.354 54.6756 10.217 54.2098 10.5138L55.2847 12.2005ZM4.70435 42.0614L2.46259 43.49L3.53741 45.1767L5.77917 43.7481L4.70435 42.0614ZM10.8135 38.1684L7.23452 40.4491L8.30934 42.1357L11.8883 39.855L10.8135 38.1684ZM70.4626 0.156679L56.7433 8.89937L57.8181 10.586L71.5374 1.84332L70.4626 0.156679ZM51.7813 12.0614L12.9241 36.8233L13.9989 38.51L52.8561 13.7481L51.7813 12.0614ZM54.2098 10.5138L53.2758 11.1091L54.3506 12.7957L55.2847 12.2005L54.2098 10.5138Z" fill="#264887"/>
    <path d="M39.746 30.5446V36.2914C39.746 36.52 39.6288 36.7328 39.4355 36.8549L18.1322 50.3189C17.6883 50.5994 17.1094 50.2805 17.1094 49.7553V44.0337C17.1094 43.8052 17.2264 43.5926 17.4194 43.4704L38.7227 29.9813C39.1666 29.7003 39.746 30.0192 39.746 30.5446Z" fill="#B5D9F1"/>
    <path d="M38.7227 29.9813L39.2577 30.8262L39.2577 30.8262L38.7227 29.9813ZM17.4194 43.4704L16.8844 42.6255L16.8844 42.6255L17.4194 43.4704ZM39.4355 36.8549L38.9013 36.0096L38.9013 36.0096L39.4355 36.8549ZM18.1322 50.3189L18.6665 51.1642H18.6665L18.1322 50.3189ZM40.746 36.2914V30.5446H38.746V36.2914H40.746ZM38.1878 29.1365L16.8844 42.6255L17.9544 44.3153L39.2577 30.8262L38.1878 29.1365ZM38.9013 36.0096L17.598 49.4736L18.6665 51.1642L39.9698 37.7003L38.9013 36.0096ZM16.1094 44.0337V49.7553H18.1094V44.0337H16.1094ZM17.598 49.4736C17.8199 49.3333 18.1094 49.4928 18.1094 49.7553H16.1094C16.1094 51.0682 17.5567 51.8656 18.6665 51.1642L17.598 49.4736ZM16.8844 42.6255C16.4019 42.9311 16.1094 43.4625 16.1094 44.0337H18.1094C18.1094 44.1479 18.0509 44.2542 17.9544 44.3153L16.8844 42.6255ZM40.746 30.5446C40.746 29.2311 39.2975 28.4338 38.1878 29.1365L39.2577 30.8262C39.0358 30.9667 38.746 30.8073 38.746 30.5446H40.746ZM38.746 36.2914C38.746 36.177 38.8046 36.0707 38.9013 36.0096L39.9698 37.7003C40.453 37.3948 40.746 36.8631 40.746 36.2914H38.746Z" fill="#264887"/>
    <path fill-rule="evenodd" clip-rule="evenodd" d="M39.6433 36.6399L33.21 33.4679L38.7197 29.9791C39.1636 29.6981 39.7431 30.017 39.7431 30.5424V36.2892C39.7431 36.4151 39.7075 36.5361 39.6433 36.6399Z" fill="#264887"/>
    <path d="M39.6433 36.6399L39.3485 37.2378C39.6566 37.3897 40.0296 37.2827 40.2103 36.9906L39.6433 36.6399ZM33.21 33.4679L32.8533 32.9046C32.6496 33.0336 32.5314 33.2625 32.5442 33.5033C32.5571 33.7441 32.6989 33.9592 32.9151 34.0658L33.21 33.4679ZM38.7197 29.9791L38.3631 29.4159L38.3631 29.4159L38.7197 29.9791ZM39.9382 36.042L33.5048 32.8699L32.9151 34.0658L39.3485 37.2378L39.9382 36.042ZM38.3631 29.4159L32.8533 32.9046L33.5666 34.0311L39.0764 30.5424L38.3631 29.4159ZM40.4097 30.5424C40.4097 29.4916 39.2509 28.8538 38.3631 29.4159L39.0764 30.5424L39.0764 30.5424H40.4097ZM40.4097 36.2892V30.5424H39.0764V36.2892H40.4097ZM40.2103 36.9906C40.3386 36.7832 40.4097 36.541 40.4097 36.2892H39.0764L39.0764 36.2892L40.2103 36.9906Z" fill="#264887"/>
    <path d="M59.4278 69.8102L39.6166 60.3525C38.2255 59.6884 37.3398 58.2842 37.3398 56.7427V55.4997L78.3113 52.4869V57.006L59.4278 69.8102Z" fill="#B5D9F1"/>
    <path d="M39.6166 60.3525L39.1858 61.2549L39.6166 60.3525ZM59.4278 69.8102L58.997 70.7126C59.3175 70.8656 59.6951 70.8372 59.989 70.6379L59.4278 69.8102ZM78.3113 52.4869H79.3113C79.3113 52.209 79.1956 51.9436 78.9919 51.7544C78.7883 51.5652 78.5151 51.4692 78.2379 51.4896L78.3113 52.4869ZM78.3113 57.006L78.8725 57.8337C79.1469 57.6476 79.3113 57.3376 79.3113 57.006H78.3113ZM37.3398 55.4997L37.2665 54.5024C36.7441 54.5408 36.3398 54.9758 36.3398 55.4997H37.3398ZM39.1858 61.2549L58.997 70.7126L59.8587 68.9078L40.0474 59.4501L39.1858 61.2549ZM77.3113 52.4869V57.006H79.3113V52.4869H77.3113ZM77.75 56.1784L58.8666 68.9825L59.989 70.6379L78.8725 57.8337L77.75 56.1784ZM38.3398 56.7427V55.4997H36.3398V56.7427H38.3398ZM37.4132 56.497L78.3846 53.4842L78.2379 51.4896L37.2665 54.5024L37.4132 56.497ZM40.0474 59.4501C39.0041 58.952 38.3398 57.8988 38.3398 56.7427H36.3398C36.3398 58.6695 37.447 60.4248 39.1858 61.2549L40.0474 59.4501Z" fill="#264887"/>
    <path d="M57.7197 65.5733L39.3893 57.0191C37.9687 56.3562 37.8284 54.3908 39.1406 53.5328L53.8524 43.9136C55.0109 43.1561 56.4786 43.0514 57.7329 43.6367L75.0547 51.7202C76.4753 52.3832 76.6155 54.3486 75.3034 55.2065L59.66 65.4349C59.0807 65.8136 58.3469 65.866 57.7197 65.5733Z" fill="white"/>
    <path d="M39.3893 57.0191L38.9664 57.9253L39.3893 57.0191ZM57.7197 65.5733L58.1426 64.6672L57.7197 65.5733ZM57.7329 43.6367L57.31 44.5429L57.7329 43.6367ZM75.0547 51.7202L75.4776 50.814L75.0547 51.7202ZM39.1406 53.5328L38.5933 52.6959H38.5933L39.1406 53.5328ZM53.8524 43.9136L54.3996 44.7505V44.7505L53.8524 43.9136ZM75.3034 55.2065L75.8507 56.0435L75.3034 55.2065ZM59.66 65.4349L59.1127 64.5979H59.1127L59.66 65.4349ZM38.9664 57.9253L57.2968 66.4795L58.1426 64.6672L39.8122 56.113L38.9664 57.9253ZM57.31 44.5429L74.6318 52.6264L75.4776 50.814L58.1558 42.7305L57.31 44.5429ZM39.6878 54.3698L54.3996 44.7505L53.3051 43.0766L38.5933 52.6959L39.6878 54.3698ZM74.7562 54.3695L59.1127 64.5979L60.2072 66.2719L75.8507 56.0435L74.7562 54.3695ZM74.6318 52.6264C75.3421 52.9579 75.4122 53.9406 74.7562 54.3695L75.8507 56.0435C77.8189 54.7566 77.6085 51.8085 75.4776 50.814L74.6318 52.6264ZM58.1558 42.7305C56.588 41.9989 54.7533 42.1298 53.3051 43.0766L54.3996 44.7505C55.2685 44.1824 56.3693 44.1039 57.31 44.5429L58.1558 42.7305ZM57.2968 66.4795C58.2375 66.9185 59.3384 66.84 60.2072 66.2719L59.1127 64.5979C58.8231 64.7873 58.4562 64.8135 58.1426 64.6672L57.2968 66.4795ZM39.8122 56.113C39.1019 55.7815 39.0318 54.7988 39.6878 54.3698L38.5933 52.6959C36.6251 53.9828 36.8354 56.9309 38.9664 57.9253L39.8122 56.113Z" fill="#264887"/>
    <path d="M59.2346 63.5566L44.9187 56.9786C43.7256 56.4303 43.6112 54.7795 44.7172 54.0719L55.6427 47.0819C56.7897 46.3481 58.2312 46.2481 59.4685 46.8167L73.3933 53.215C74.112 53.5452 74.181 54.5397 73.5147 54.966L60.1911 63.4902C59.9043 63.6737 59.5439 63.6987 59.2346 63.5566Z" fill="#EFB2B0"/>
    <path d="M45.7285 53.056L67.9 63.7841" stroke="white" stroke-width="2" stroke-linejoin="round"/>
    <path d="M49.4863 50.1946L71.6578 60.9227" stroke="white" stroke-width="2" stroke-linejoin="round"/>
    <path d="M75.0617 58.0617L53.6055 47.6797" stroke="white" stroke-width="2" stroke-linejoin="round"/>
    <path d="M105.721 100.699L58.2284 78.6856C56.4616 77.8667 55.3311 76.0965 55.3311 74.1492V67.1747L138.567 76.2129V84.0277C138.567 85.7291 137.702 87.3136 136.271 88.2336L118.217 99.8392C114.474 102.246 109.759 102.57 105.721 100.699Z" fill="#B5D9F1"/>
    <path d="M58.2284 78.6856L58.6489 77.7783H58.6489L58.2284 78.6856ZM105.721 100.699L105.3 101.606L105.721 100.699ZM55.3311 67.1747L55.439 66.1805C55.1567 66.1499 54.8746 66.2407 54.6632 66.4304C54.4518 66.6201 54.3311 66.8907 54.3311 67.1747H55.3311ZM136.271 88.2336L135.73 87.3924L136.271 88.2336ZM118.217 99.8392L117.677 98.998L118.217 99.8392ZM138.567 76.2129H139.567C139.567 75.7024 139.182 75.2739 138.675 75.2187L138.567 76.2129ZM57.8079 79.5929L105.3 101.606L106.141 99.7912L58.6489 77.7783L57.8079 79.5929ZM56.3311 74.1492V67.1747H54.3311V74.1492H56.3311ZM135.73 87.3924L117.677 98.998L118.758 100.68L136.811 89.0748L135.73 87.3924ZM55.2231 68.1688L138.459 77.2071L138.675 75.2187L55.439 66.1805L55.2231 68.1688ZM137.567 76.2129V84.0277H139.567V76.2129H137.567ZM105.3 101.606C109.649 103.621 114.726 103.272 118.758 100.68L117.677 98.998C114.221 101.22 109.869 101.519 106.141 99.7912L105.3 101.606ZM58.6489 77.7783C57.2355 77.1232 56.3311 75.7071 56.3311 74.1492H54.3311C54.3311 76.486 55.6878 78.6102 57.8079 79.5929L58.6489 77.7783ZM136.811 89.0748C138.529 87.9708 139.567 86.0693 139.567 84.0277H137.567C137.567 85.3888 136.875 86.6564 135.73 87.3924L136.811 89.0748Z" fill="#264887"/>
    <path d="M134.287 72.1141L85.6624 49.6252C83.4385 48.5966 80.8386 48.8058 78.8077 50.1767L59.301 63.3436C56.0734 65.5223 56.4651 70.3914 59.9995 72.026L108.624 94.5149C110.848 95.5435 113.448 95.3343 115.479 93.9634L134.985 80.7965C138.213 78.6178 137.821 73.7487 134.287 72.1141Z" fill="white"/>
    <path d="M85.6624 49.6252L86.0822 48.7176V48.7176L85.6624 49.6252ZM134.287 72.1141L134.707 71.2065L134.287 72.1141ZM59.9995 72.026L59.5797 72.9336L59.9995 72.026ZM108.624 94.5149L108.204 95.4225L108.624 94.5149ZM59.301 63.3436L59.8605 64.1725L59.301 63.3436ZM78.8077 50.1767L78.2482 49.3478L78.8077 50.1767ZM134.985 80.7965L134.426 79.9676V79.9676L134.985 80.7965ZM115.479 93.9634L116.038 94.7923L115.479 93.9634ZM85.2426 50.5328L133.867 73.0217L134.707 71.2065L86.0822 48.7176L85.2426 50.5328ZM59.5797 72.9336L108.204 95.4225L109.044 93.6073L60.4193 71.1184L59.5797 72.9336ZM59.8605 64.1725L79.3671 51.0055L78.2482 49.3478L58.7415 62.5148L59.8605 64.1725ZM134.426 79.9676L114.919 93.1346L116.038 94.7923L135.545 81.6253L134.426 79.9676ZM108.204 95.4225C110.746 96.598 113.717 96.359 116.038 94.7923L114.919 93.1346C113.179 94.3096 110.95 94.4889 109.044 93.6073L108.204 95.4225ZM60.4193 71.1184C57.5917 69.8107 57.2784 65.9154 59.8605 64.1725L58.7415 62.5148C54.8684 65.1292 55.3384 70.972 59.5797 72.9336L60.4193 71.1184ZM133.867 73.0217C136.695 74.3294 137.008 78.2247 134.426 79.9676L135.545 81.6253C139.418 79.0109 138.948 73.1681 134.707 71.2065L133.867 73.0217ZM86.0822 48.7176C83.5405 47.5421 80.5692 47.7811 78.2482 49.3478L79.3671 51.0055C81.1079 49.8305 83.3364 49.6512 85.2426 50.5328L86.0822 48.7176Z" fill="#264887"/>
    <ellipse cx="97.1416" cy="70.9396" rx="14.3105" ry="9.41481" fill="white"/>
    <path fill-rule="evenodd" clip-rule="evenodd" d="M83.585 73.9631C83.585 73.9597 83.585 73.9563 83.585 73.9529C83.585 69.1692 89.6548 65.2913 97.1423 65.2913C104.63 65.2913 110.7 69.1692 110.7 73.9529C110.7 73.956 110.7 73.9592 110.7 73.9623C108.786 77.6797 103.439 80.3554 97.1421 80.3554C90.8456 80.3554 85.499 77.6801 83.585 73.9631Z" fill="#EFB2B0"/>
    <path fill-rule="evenodd" clip-rule="evenodd" d="M83.585 73.9631C83.585 73.9597 83.585 73.9563 83.585 73.9529C83.585 69.1692 89.6548 65.2913 97.1423 65.2913C104.63 65.2913 110.7 69.1692 110.7 73.9529C110.7 73.956 110.7 73.9592 110.7 73.9623C109.629 76.042 107.484 77.7957 104.699 78.9372C105.034 78.7655 105.353 78.5834 105.652 78.3922C107.761 77.045 108.7 75.4276 108.7 73.9529C108.7 72.4782 107.761 70.8608 105.652 69.5136C103.566 68.1809 100.563 67.2913 97.1423 67.2913C93.7217 67.2913 90.7185 68.1809 88.6326 69.5136C86.5239 70.8608 85.585 72.4782 85.585 73.9529C85.585 75.4276 86.5239 77.045 88.6326 78.3922C88.9324 78.5837 89.2512 78.7661 89.5874 78.938C86.8018 77.7967 84.656 76.043 83.585 73.9631Z" fill="#D32D27"/>
    <path d="M110.453 70.9391C110.453 73.0943 109.125 75.1736 106.712 76.761C104.307 78.3429 100.927 79.3539 97.1425 79.3539C93.3581 79.3539 89.9776 78.3429 87.5731 76.761C85.1603 75.1736 83.832 73.0943 83.832 70.9391C83.832 68.7839 85.1603 66.7046 87.5731 65.1172C89.9776 63.5353 93.3581 62.5243 97.1425 62.5243C100.927 62.5243 104.307 63.5353 106.712 65.1172C109.125 66.7046 110.453 68.7839 110.453 70.9391Z" stroke="#D32D27" stroke-width="2"/>
</svg>
