<svg width="125" height="127" viewBox="0 0 125 127" fill="none" xmlns="http://www.w3.org/2000/svg">
<circle cx="62.5" cy="64.5" r="62.5" fill="#EBF5FB"/>
<path d="M22.9165 103.389H85.4165" stroke="#004590" stroke-width="2" stroke-linecap="round" stroke-dasharray="1 6 164 5"/>
<g filter="url(#filter0_i_2740_131734)">
<path fill-rule="evenodd" clip-rule="evenodd" d="M22.2222 41.4167C22.2222 39.2075 24.013 37.4167 26.2222 37.4167H80.7222C82.9313 37.4167 84.7222 39.2075 84.7222 41.4167V96.1685C84.7222 98.3776 82.9313 100.168 80.7222 100.168H79.1271C78.5282 101.65 77.0765 102.694 75.3807 102.694C73.685 102.694 72.2332 101.65 71.6343 100.168H36.6192C36.0203 101.65 34.5686 102.694 32.8728 102.694C31.1771 102.694 29.7254 101.65 29.1264 100.168H26.2222C24.013 100.168 22.2222 98.3776 22.2222 96.1685V41.4167Z" fill="white"/>
</g>
<path d="M79.1271 100.168V99.1685H78.4528L78.2 99.7936L79.1271 100.168ZM71.6343 100.168L72.5614 99.7936L72.3086 99.1685H71.6343V100.168ZM36.6192 100.168V99.1685H35.9449L35.6922 99.7936L36.6192 100.168ZM29.1264 100.168L30.0535 99.7936L29.8007 99.1685H29.1264V100.168ZM22.8803 37.6974C22.4696 38.0667 22.436 38.699 22.8052 39.1097C23.1745 39.5204 23.8067 39.554 24.2175 39.1848L22.8803 37.6974ZM24.0921 39.3041C24.481 38.912 24.4785 38.2788 24.0863 37.8899C23.6942 37.501 23.0611 37.5036 22.6721 37.8957L24.0921 39.3041ZM22.6433 37.925C22.2576 38.3202 22.2654 38.9534 22.6607 39.3391C23.056 39.7248 23.6891 39.717 24.0748 39.3217L22.6433 37.925ZM23.9903 39.412C24.3595 39.0012 24.3259 38.369 23.9152 37.9997C23.5045 37.6305 22.8722 37.6641 22.503 38.0748L23.9903 39.412ZM21.2222 66.9293C21.2222 67.4816 21.6699 67.9293 22.2222 67.9293C22.7745 67.9293 23.2222 67.4816 23.2222 66.9293H21.2222ZM23.2222 68.9359C23.2222 68.3836 22.7745 67.9359 22.2222 67.9359C21.6699 67.9359 21.2222 68.3836 21.2222 68.9359H23.2222ZM21.2222 69.2226C21.2222 69.7748 21.6699 70.2226 22.2222 70.2226C22.7745 70.2226 23.2222 69.7748 23.2222 69.2226H21.2222ZM23.2222 70.6559C23.2222 70.1036 22.7745 69.6559 22.2222 69.6559C21.6699 69.6559 21.2222 70.1036 21.2222 70.6559H23.2222ZM22.503 99.5103C22.8722 99.921 23.5045 99.9546 23.9152 99.5854C24.3259 99.2162 24.3595 98.5839 23.9903 98.1732L22.503 99.5103ZM24.1096 98.2985C23.7175 97.9096 23.0843 97.9122 22.6954 98.3043C22.3065 98.6964 22.3091 99.3296 22.7012 99.7185L24.1096 98.2985ZM22.7305 99.7473C23.1257 100.133 23.7589 100.125 24.1446 99.73C24.5303 99.3347 24.5225 98.7016 24.1272 98.3159L22.7305 99.7473ZM24.2175 98.4004C23.8067 98.0311 23.1745 98.0648 22.8052 98.4755C22.436 98.8862 22.4696 99.5185 22.8803 99.8877L24.2175 98.4004ZM27.5755 101.168C28.1278 101.168 28.5755 100.721 28.5755 100.168C28.5755 99.6162 28.1278 99.1685 27.5755 99.1685V101.168ZM27.6819 99.1685C27.1296 99.1685 26.6819 99.6162 26.6819 100.168C26.6819 100.721 27.1296 101.168 27.6819 101.168V99.1685ZM27.6971 101.168C28.2494 101.168 28.6971 100.721 28.6971 100.168C28.6971 99.6162 28.2494 99.1685 27.6971 99.1685V101.168ZM27.7731 99.1685C27.2209 99.1685 26.7731 99.6162 26.7731 100.168C26.7731 100.721 27.2209 101.168 27.7731 101.168V99.1685ZM29.8876 102.715C30.3324 103.043 30.9583 102.948 31.2858 102.503C31.6132 102.058 31.5181 101.432 31.0733 101.105L29.8876 102.715ZM31.1816 101.181C30.723 100.873 30.1017 100.995 29.7939 101.454C29.4861 101.912 29.6083 102.534 30.0668 102.841L31.1816 101.181ZM30.0929 102.859C30.5533 103.164 31.1738 103.038 31.4788 102.577C31.7837 102.117 31.6577 101.496 31.1973 101.191L30.0929 102.859ZM31.2768 101.242C30.8071 100.952 30.1909 101.097 29.9003 101.567C29.6098 102.036 29.755 102.653 30.2247 102.943L31.2768 101.242ZM35.521 102.943C35.9907 102.653 36.1359 102.036 35.8454 101.567C35.5548 101.097 34.9385 100.952 34.4688 101.242L35.521 102.943ZM34.5798 101.17C34.1232 101.481 34.0048 102.103 34.3155 102.56C34.6262 103.016 35.2482 103.135 35.7048 102.824L34.5798 101.17ZM35.7306 102.806C36.1853 102.493 36.2998 101.87 35.9863 101.415C35.6728 100.961 35.0501 100.846 34.5954 101.16L35.7306 102.806ZM34.6724 101.105C34.2276 101.432 34.1325 102.058 34.4599 102.503C34.7873 102.948 35.4133 103.043 35.8581 102.715L34.6724 101.105ZM52.9352 101.168C53.4874 101.168 53.9352 100.721 53.9352 100.168C53.9352 99.6162 53.4874 99.1685 52.9352 99.1685V101.168ZM54.2184 99.1685C53.6662 99.1685 53.2184 99.6162 53.2184 100.168C53.2184 100.721 53.6662 101.168 54.2184 101.168V99.1685ZM54.4018 101.168C54.954 101.168 55.4018 100.721 55.4018 100.168C55.4018 99.6162 54.954 99.1685 54.4018 99.1685V101.168ZM55.3184 99.1685C54.7661 99.1685 54.3184 99.6162 54.3184 100.168C54.3184 100.721 54.7661 101.168 55.3184 101.168V99.1685ZM72.3955 102.715C72.8402 103.043 73.4662 102.948 73.7936 102.503C74.1211 102.058 74.0259 101.432 73.5812 101.105L72.3955 102.715ZM73.6894 101.181C73.2309 100.873 72.6096 100.995 72.3018 101.454C71.994 101.912 72.1161 102.534 72.5747 102.841L73.6894 101.181ZM72.6007 102.859C73.0612 103.164 73.6817 103.038 73.9866 102.577C74.2916 102.117 74.1656 101.496 73.7051 101.191L72.6007 102.859ZM73.7847 101.242C73.315 100.952 72.6987 101.097 72.4082 101.567C72.1177 102.036 72.2629 102.653 72.7326 102.943L73.7847 101.242ZM78.0288 102.943C78.4985 102.653 78.6438 102.036 78.3532 101.567C78.0627 101.097 77.4464 100.952 76.9767 101.242L78.0288 102.943ZM77.0877 101.17C76.631 101.481 76.5127 102.103 76.8234 102.56C77.134 103.016 77.756 103.135 78.2127 102.824L77.0877 101.17ZM78.2385 102.806C78.6932 102.493 78.8076 101.87 78.4942 101.415C78.1807 100.961 77.5579 100.846 77.1032 101.16L78.2385 102.806ZM77.1802 101.105C76.7355 101.432 76.6404 102.058 76.9678 102.503C77.2952 102.948 77.9212 103.043 78.3659 102.715L77.1802 101.105ZM79.8704 101.168C80.4226 101.168 80.8704 100.721 80.8704 100.168C80.8704 99.6162 80.4226 99.1685 79.8704 99.1685V101.168ZM79.9288 99.1685C79.3765 99.1685 78.9288 99.6162 78.9288 100.168C78.9288 100.721 79.3765 101.168 79.9288 101.168V99.1685ZM79.9372 101.168C80.4894 101.168 80.9372 100.721 80.9372 100.168C80.9372 99.6162 80.4894 99.1685 79.9372 99.1685V101.168ZM79.9789 99.1685C79.4266 99.1685 78.9789 99.6162 78.9789 100.168C78.9789 100.721 79.4266 101.168 79.9789 101.168V99.1685ZM84.064 99.8877C84.4747 99.5185 84.5083 98.8862 84.1391 98.4755C83.7699 98.0648 83.1376 98.0311 82.7269 98.4004L84.064 99.8877ZM82.8522 98.281C82.4633 98.6731 82.4659 99.3063 82.858 99.6952C83.2501 100.084 83.8833 100.082 84.2722 99.6895L82.8522 98.281ZM84.301 99.6602C84.6867 99.2649 84.6789 98.6318 84.2837 98.2461C83.8884 97.8604 83.2553 97.8681 82.8696 98.2634L84.301 99.6602ZM82.9541 98.1732C82.5848 98.5839 82.6185 99.2162 83.0292 99.5854C83.4399 99.9546 84.0722 99.921 84.4414 99.5103L82.9541 98.1732ZM85.7222 70.6558C85.7222 70.1036 85.2745 69.6558 84.7222 69.6558C84.1699 69.6558 83.7222 70.1036 83.7222 70.6558H85.7222ZM83.7222 68.6492C83.7222 69.2015 84.1699 69.6492 84.7222 69.6492C85.2745 69.6492 85.7222 69.2015 85.7222 68.6492H83.7222ZM85.7222 68.3626C85.7222 67.8103 85.2745 67.3626 84.7222 67.3626C84.1699 67.3626 83.7222 67.8103 83.7222 68.3626H85.7222ZM83.7222 66.9293C83.7222 67.4816 84.1699 67.9293 84.7222 67.9293C85.2745 67.9293 85.7222 67.4816 85.7222 66.9293H83.7222ZM84.4414 38.0748C84.0722 37.6641 83.4399 37.6305 83.0292 37.9997C82.6185 38.369 82.5848 39.0012 82.9541 39.412L84.4414 38.0748ZM82.8347 39.2866C83.2268 39.6755 83.86 39.673 84.2489 39.2808C84.6379 38.8887 84.6353 38.2556 84.2432 37.8666L82.8347 39.2866ZM84.2139 37.8378C83.8186 37.4521 83.1855 37.4599 82.7998 37.8552C82.4141 38.2505 82.4218 38.8836 82.8171 39.2693L84.2139 37.8378ZM82.7269 39.1848C83.1376 39.554 83.7699 39.5204 84.1391 39.1097C84.5083 38.699 84.4747 38.0667 84.064 37.6974L82.7269 39.1848ZM55.3269 36.4167C54.7746 36.4167 54.3269 36.8644 54.3269 37.4167C54.3269 37.9689 54.7746 38.4167 55.3269 38.4167V36.4167ZM53.3295 38.4167C53.8818 38.4167 54.3295 37.9689 54.3295 37.4167C54.3295 36.8644 53.8818 36.4167 53.3295 36.4167V38.4167ZM53.0442 36.4167C52.4919 36.4167 52.0442 36.8644 52.0442 37.4167C52.0442 37.9689 52.4919 38.4167 53.0442 38.4167V36.4167ZM51.6175 38.4167C52.1697 38.4167 52.6175 37.9689 52.6175 37.4167C52.6175 36.8644 52.1697 36.4167 51.6175 36.4167V38.4167ZM26.2222 36.4167C24.9382 36.4167 23.7652 36.9019 22.8803 37.6974L24.2175 39.1848C24.7495 38.7065 25.4508 38.4167 26.2222 38.4167V36.4167ZM22.6721 37.8957C22.6625 37.9054 22.6529 37.9152 22.6433 37.925L24.0748 39.3217C24.0805 39.3158 24.0863 39.31 24.0921 39.3041L22.6721 37.8957ZM22.503 38.0748C21.7074 38.9597 21.2222 40.1327 21.2222 41.4167H23.2222C23.2222 40.6453 23.512 39.944 23.9903 39.412L22.503 38.0748ZM21.2222 41.4167V66.9293H23.2222V41.4167H21.2222ZM21.2222 68.9359V69.2226H23.2222V68.9359H21.2222ZM21.2222 70.6559V96.1685H23.2222V70.6559H21.2222ZM21.2222 96.1685C21.2222 97.4524 21.7074 98.6254 22.503 99.5103L23.9903 98.1732C23.512 97.6412 23.2222 96.9398 23.2222 96.1685H21.2222ZM22.7012 99.7185C22.7109 99.7281 22.7207 99.7377 22.7305 99.7473L24.1272 98.3159C24.1213 98.3101 24.1155 98.3043 24.1096 98.2985L22.7012 99.7185ZM22.8803 99.8877C23.7652 100.683 24.9382 101.168 26.2222 101.168V99.1685C25.4508 99.1685 24.7495 98.8787 24.2175 98.4004L22.8803 99.8877ZM26.2222 101.168H27.5755V99.1685H26.2222V101.168ZM27.6819 101.168H27.6971V99.1685H27.6819V101.168ZM27.7731 101.168H29.1264V99.1685H27.7731V101.168ZM28.1994 100.543C28.5524 101.416 29.1419 102.166 29.8876 102.715L31.0733 101.105C30.6217 100.772 30.2658 100.319 30.0535 99.7936L28.1994 100.543ZM30.0668 102.841C30.0755 102.847 30.0842 102.853 30.0929 102.859L31.1973 101.191C31.192 101.188 31.1868 101.184 31.1816 101.181L30.0668 102.841ZM30.2247 102.943C30.9949 103.42 31.9033 103.694 32.8728 103.694V101.694C32.2856 101.694 31.74 101.529 31.2768 101.242L30.2247 102.943ZM32.8728 103.694C33.8424 103.694 34.7508 103.42 35.521 102.943L34.4688 101.242C34.0057 101.529 33.4601 101.694 32.8728 101.694V103.694ZM35.7048 102.824C35.7134 102.818 35.722 102.812 35.7306 102.806L34.5954 101.16C34.5902 101.163 34.585 101.167 34.5798 101.17L35.7048 102.824ZM35.8581 102.715C36.6038 102.166 37.1932 101.416 37.5463 100.543L35.6922 99.7936C35.4798 100.319 35.124 100.772 34.6724 101.105L35.8581 102.715ZM36.6192 101.168H52.9352V99.1685H36.6192V101.168ZM54.2184 101.168H54.4018V99.1685H54.2184V101.168ZM55.3184 101.168H71.6343V99.1685H55.3184V101.168ZM70.7073 100.543C71.0603 101.416 71.6498 102.166 72.3955 102.715L73.5812 101.105C73.1296 100.772 72.7737 100.319 72.5614 99.7936L70.7073 100.543ZM72.5747 102.841C72.5833 102.847 72.592 102.853 72.6007 102.859L73.7051 101.191C73.6999 101.188 73.6946 101.184 73.6894 101.181L72.5747 102.841ZM72.7326 102.943C73.5027 103.42 74.4112 103.694 75.3807 103.694V101.694C74.7934 101.694 74.2479 101.529 73.7847 101.242L72.7326 102.943ZM75.3807 103.694C76.3503 103.694 77.2587 103.42 78.0288 102.943L76.9767 101.242C76.5135 101.529 75.968 101.694 75.3807 101.694V103.694ZM78.2127 102.824C78.2213 102.818 78.2299 102.812 78.2385 102.806L77.1032 101.16C77.0981 101.163 77.0929 101.167 77.0877 101.17L78.2127 102.824ZM78.3659 102.715C79.1116 102.166 79.7011 101.416 80.0542 100.543L78.2 99.7936C77.9877 100.319 77.6318 100.772 77.1802 101.105L78.3659 102.715ZM79.1271 101.168H79.8704V99.1685H79.1271V101.168ZM79.9288 101.168H79.9372V99.1685H79.9288V101.168ZM79.9789 101.168H80.7222V99.1685H79.9789V101.168ZM80.7222 101.168C82.0061 101.168 83.1791 100.683 84.064 99.8877L82.7269 98.4004C82.1949 98.8787 81.4935 99.1685 80.7222 99.1685V101.168ZM84.2722 99.6895C84.2818 99.6797 84.2914 99.67 84.301 99.6602L82.8696 98.2634C82.8638 98.2693 82.858 98.2752 82.8522 98.281L84.2722 99.6895ZM84.4414 99.5103C85.2369 98.6254 85.7222 97.4524 85.7222 96.1685H83.7222C83.7222 96.9398 83.4324 97.6412 82.9541 98.1732L84.4414 99.5103ZM85.7222 96.1685V70.6558H83.7222V96.1685H85.7222ZM85.7222 68.6492V68.3626H83.7222V68.6492H85.7222ZM85.7222 66.9293V41.4167H83.7222V66.9293H85.7222ZM85.7222 41.4167C85.7222 40.1327 85.2369 38.9597 84.4414 38.0748L82.9541 39.412C83.4324 39.944 83.7222 40.6453 83.7222 41.4167H85.7222ZM84.2432 37.8666C84.2334 37.857 84.2237 37.8474 84.2139 37.8378L82.8171 39.2693C82.823 39.275 82.8289 39.2808 82.8347 39.2866L84.2432 37.8666ZM84.064 37.6974C83.1791 36.9019 82.0061 36.4167 80.7222 36.4167V38.4167C81.4935 38.4167 82.1949 38.7065 82.7269 39.1848L84.064 37.6974ZM80.7222 36.4167H55.3269V38.4167H80.7222V36.4167ZM53.3295 36.4167H53.0442V38.4167H53.3295V36.4167ZM51.6175 36.4167H26.2222V38.4167H51.6175V36.4167Z" fill="#004590"/>
<g filter="url(#filter1_i_2740_131734)">
<path fill-rule="evenodd" clip-rule="evenodd" d="M29.1667 46.3611C29.1667 45.2565 30.0622 44.3611 31.1667 44.3611H76.8425C77.947 44.3611 78.8425 45.2565 78.8425 46.3611V92.001C78.8425 93.1056 77.947 94.001 76.8425 94.001H31.1667C30.0622 94.001 29.1667 93.1056 29.1667 92.001V46.3611Z" fill="white"/>
</g>
<path fill-rule="evenodd" clip-rule="evenodd" d="M29.1667 46.3611C29.1667 45.2565 30.0622 44.3611 31.1667 44.3611H76.8425C77.947 44.3611 78.8425 45.2565 78.8425 46.3611V92.001C78.8425 93.1056 77.947 94.001 76.8425 94.001H31.1667C30.0622 94.001 29.1667 93.1056 29.1667 92.001V46.3611Z" stroke="#004590" stroke-width="2" stroke-linecap="round" stroke-linejoin="round"/>
<g filter="url(#filter2_i_2740_131734)">
<path fill-rule="evenodd" clip-rule="evenodd" d="M26.3889 52.4242C26.3889 50.9 27.6245 49.6644 29.1487 49.6644C30.6729 49.6644 31.9084 50.9 31.9084 52.4242V58.5486C31.9084 60.0728 30.6729 61.3084 29.1487 61.3084C27.6245 61.3084 26.3889 60.0728 26.3889 58.5486V52.4242Z" fill="white"/>
</g>
<path fill-rule="evenodd" clip-rule="evenodd" d="M26.3889 52.4242C26.3889 50.9 27.6245 49.6644 29.1487 49.6644C30.6729 49.6644 31.9084 50.9 31.9084 52.4242V58.5486C31.9084 60.0728 30.6729 61.3084 29.1487 61.3084C27.6245 61.3084 26.3889 60.0728 26.3889 58.5486V52.4242Z" stroke="#004590" stroke-width="2" stroke-linecap="round" stroke-linejoin="round"/>
<g filter="url(#filter3_i_2740_131734)">
<path fill-rule="evenodd" clip-rule="evenodd" d="M26.3889 81.0803C26.3889 79.5561 27.6245 78.3205 29.1487 78.3205C30.6729 78.3205 31.9084 79.5561 31.9084 81.0803V87.2047C31.9084 88.7288 30.6729 89.9644 29.1487 89.9644C27.6245 89.9644 26.3889 88.7288 26.3889 87.2047V81.0803Z" fill="white"/>
</g>
<path fill-rule="evenodd" clip-rule="evenodd" d="M26.3889 81.0803C26.3889 79.5561 27.6245 78.3205 29.1487 78.3205C30.6729 78.3205 31.9084 79.5561 31.9084 81.0803V87.2047C31.9084 88.7288 30.6729 89.9644 29.1487 89.9644C27.6245 89.9644 26.3889 88.7288 26.3889 87.2047V81.0803Z" stroke="#004590" stroke-width="2" stroke-linecap="round" stroke-linejoin="round"/>
<path d="M53.3984 79.3205C58.9223 79.3205 63.4016 74.8455 63.4016 69.3238C63.4016 63.8021 58.9223 59.3272 53.3984 59.3272C47.8745 59.3272 43.3953 63.8021 43.3953 69.3238C43.3953 74.8455 47.8745 79.3205 53.3984 79.3205Z" stroke="#004590" stroke-width="2"/>
<path fill-rule="evenodd" clip-rule="evenodd" d="M54.8468 58.9196C54.8468 58.2205 54.2872 57.6615 53.5969 57.6615C52.9018 57.6615 52.347 58.2248 52.347 58.9196V65.1309C50.7501 65.6573 49.5972 67.1646 49.5972 68.9421C49.5972 69.284 49.6399 69.6159 49.7202 69.9328L44.2635 73.7643C43.6964 74.1625 43.5581 74.9447 43.9541 75.5117C44.3527 76.0827 45.1305 76.2158 45.6973 75.8177L51.066 72.048C51.7554 72.6136 52.6366 72.953 53.5969 72.953C54.6632 72.953 55.6321 72.5345 56.3491 71.8524L61.9963 75.8177C62.5635 76.216 63.3437 76.0788 63.7396 75.5117C64.1383 74.9407 63.997 74.1623 63.4302 73.7643L57.5384 69.6273C57.5766 69.4046 57.5965 69.1757 57.5965 68.9421C57.5965 67.1646 56.4436 65.6573 54.8468 65.1309V58.9196Z" fill="#D22D27"/>
<path d="M119.097 44.3611H113.889V49.921H119.097V44.3611Z" stroke="#B5D9F1" stroke-width="2" stroke-linecap="round" stroke-linejoin="round"/>
<path d="M8.42178 28.1075L4.86108 31.9086L8.42178 35.7097L11.9825 31.9086L8.42178 28.1075Z" stroke="#B5D9F1" stroke-width="2" stroke-linecap="round" stroke-linejoin="round"/>
<path d="M101.762 82.9204L106.711 88.2031" stroke="#B5D9F1" stroke-width="2" stroke-linecap="round" stroke-linejoin="round"/>
<path d="M106.536 82.9204L101.587 88.2031" stroke="#B5D9F1" stroke-width="2" stroke-linecap="round" stroke-linejoin="round"/>
<path opacity="0.15" d="M84.7222 39.3444C84.7222 38.8331 84.5156 38.3428 84.1478 37.9813C83.7799 37.6198 83.2811 37.4167 82.7609 37.4167H49.0425C48.1829 41.9096 48.6132 46.5491 50.2852 50.8152C51.9572 55.0813 54.8048 58.8055 58.5089 61.5705C62.213 64.3355 66.6273 66.0321 71.2572 66.4701C75.887 66.9081 80.5495 66.0702 84.7222 64.0504V39.3444Z" fill="#004590"/>
<path d="M89.2116 52.4148L85.3967 56.2295L92.0734 62.9065L95.8883 59.0917L89.2116 52.4148Z" fill="white" stroke="#004590" stroke-width="2" stroke-linecap="round" stroke-linejoin="round"/>
<path d="M85.3548 58.6365C94.5854 52.3382 96.9624 39.7496 90.6641 30.519C84.3658 21.2885 71.7772 18.9114 62.5466 25.2097C53.3161 31.508 50.939 44.0966 57.2373 53.3272C63.5356 62.5577 76.1243 64.9348 85.3548 58.6365Z" fill="white" stroke="#004590" stroke-width="2" stroke-linecap="round" stroke-linejoin="round"/>
<path d="M89.9271 44.5146C91.359 35.6907 85.3666 27.3769 76.5427 25.945C67.7189 24.5132 59.405 30.5056 57.9732 39.3294C56.5413 48.1533 62.5337 56.4671 71.3576 57.899C80.1814 59.3308 88.4953 53.3384 89.9271 44.5146Z" fill="#6CB4E4"/>
<path d="M85.4089 30.4918C82.3736 27.4565 78.2568 25.7512 73.9642 25.7512C69.6715 25.7512 65.5547 27.4565 62.5194 30.4918C59.484 33.5271 57.7788 37.6439 57.7788 41.9366C57.7788 46.2292 59.484 50.346 62.5194 53.3813L85.4089 30.4918Z" fill="#B5D9F1"/>
<path d="M85.3961 30.4801C87.6596 32.7438 89.201 35.6279 89.8254 38.7676C90.4498 41.9074 90.1292 45.1617 88.9041 48.1192C87.6789 51.0767 85.6043 53.6045 82.9426 55.383C80.2809 57.1615 77.1516 58.1107 73.9503 58.1107C70.7491 58.1107 67.6198 57.1615 64.9581 55.383C62.2964 53.6045 60.2218 51.0767 58.9966 48.1192C57.7715 45.1617 57.4509 41.9074 58.0753 38.7676C58.6997 35.6279 60.2411 32.7438 62.5046 30.4801C64.0076 28.977 65.792 27.7846 67.7559 26.9711C69.7198 26.1575 71.8246 25.7388 73.9503 25.7388C76.076 25.7388 78.1809 26.1575 80.1448 26.9711C82.1087 27.7846 83.8931 28.977 85.3961 30.4801Z" stroke="#004590" stroke-width="2" stroke-miterlimit="10"/>
<path d="M103.838 76.5802C104.109 76.8515 104.431 77.0666 104.786 77.2134C105.14 77.3602 105.52 77.4358 105.903 77.4358C106.286 77.4358 106.666 77.3602 107.02 77.2134C107.375 77.0666 107.697 76.8515 107.968 76.5802L109.561 74.9846C110.108 74.4372 110.416 73.695 110.416 72.921C110.416 72.147 110.108 71.4047 109.561 70.8574L96.5754 57.8714C96.3929 57.689 96.1455 57.5866 95.8875 57.5866C95.6295 57.5866 95.3821 57.689 95.1996 57.8714L90.8525 62.2176C90.762 62.308 90.6903 62.4153 90.6413 62.5334C90.5923 62.6515 90.5671 62.7781 90.5671 62.906C90.5671 63.0338 90.5923 63.1604 90.6413 63.2785C90.6903 63.3967 90.762 63.504 90.8525 63.5943L103.838 76.5802Z" fill="#90C6EB"/>
<path d="M108.857 75.689L109.561 74.9846C109.832 74.7136 110.047 74.3918 110.194 74.0376C110.341 73.6834 110.416 73.3038 110.416 72.9205C110.416 72.5371 110.341 72.1575 110.194 71.8034C110.047 71.4492 109.832 71.1274 109.561 70.8564L96.5754 57.8714C96.393 57.689 96.1455 57.5866 95.8876 57.5866C95.6296 57.5866 95.3821 57.689 95.1997 57.8714L93.0261 60.045L108.774 75.7717L108.857 75.689Z" fill="#B5D9F1"/>
<path d="M109.561 70.8574C109.832 71.1284 110.047 71.4502 110.194 71.8044C110.341 72.1585 110.416 72.5381 110.416 72.9215C110.416 73.3048 110.341 73.6844 110.194 74.0386C110.047 74.3927 109.832 74.7145 109.561 74.9856L107.967 76.5802C107.419 77.1274 106.677 77.4348 105.903 77.4348C105.129 77.4348 104.387 77.1274 103.839 76.5802L90.8525 63.5943C90.762 63.504 90.6903 63.3967 90.6413 63.2785C90.5923 63.1604 90.5671 63.0338 90.5671 62.906C90.5671 62.7781 90.5923 62.6515 90.6413 62.5334C90.6903 62.4153 90.762 62.308 90.8525 62.2176L95.2016 57.8714C95.384 57.689 95.6314 57.5866 95.8894 57.5866C96.1474 57.5866 96.3949 57.689 96.5773 57.8714L109.561 70.8574Z" stroke="#004590" stroke-width="2" stroke-miterlimit="10"/>
<path d="M82.1703 50.1762L81.4735 49.459L82.1703 50.1762C82.6625 49.698 82.9445 49.0432 82.9445 48.3542V40.151C82.9445 39.462 82.6625 38.8072 82.1703 38.329C81.7752 37.9451 81.2708 37.6997 80.7333 37.6184V36.4401C80.7333 34.7668 80.0489 33.1681 78.8404 31.994C77.6329 30.8208 76.0012 30.1667 74.3056 30.1667C72.6101 30.1667 70.9784 30.8208 69.7709 31.994C68.5624 33.1681 67.878 34.7668 67.878 36.4401V37.6184C67.3405 37.6997 66.836 37.9451 66.4409 38.329C65.9488 38.8072 65.6667 39.462 65.6667 40.151V48.3542C65.6667 49.0432 65.9488 49.698 66.4409 50.1762C66.9321 50.6535 67.5923 50.9167 68.2749 50.9167H80.3363C81.0189 50.9167 81.6791 50.6535 82.1703 50.1762ZM76.723 36.4401V37.5885H71.8882V36.4401C71.8882 35.8342 72.1357 35.247 72.586 34.8095C73.0373 34.371 73.6554 34.1198 74.3056 34.1198C74.9559 34.1198 75.574 34.371 76.0253 34.8095C76.4756 35.247 76.723 35.8342 76.723 36.4401ZM76.0834 44.3611C76.0834 45.3429 75.2875 46.1389 74.3056 46.1389C73.3238 46.1389 72.5279 45.3429 72.5279 44.3611C72.5279 43.3793 73.3238 42.5833 74.3056 42.5833C75.2875 42.5833 76.0834 43.3793 76.0834 44.3611Z" fill="white" stroke="#3598DB" stroke-width="2"/>
<path d="M94.6284 22.6979L99.3055 21.7756" stroke="#B5D9F1" stroke-width="2.20447" stroke-linecap="round" stroke-linejoin="round"/>
<path d="M87.5603 18.1031L87.7158 13.3274" stroke="#B5D9F1" stroke-width="2.20447" stroke-linecap="round" stroke-linejoin="round"/>
<path d="M91.9243 19.1137L94.7844 15.2911" stroke="#B5D9F1" stroke-width="2.20447" stroke-linecap="round" stroke-linejoin="round"/>
<path fill-rule="evenodd" clip-rule="evenodd" d="M44.8334 14.119C45.9617 14.119 46.8763 13.2022 46.8763 12.0712C46.8763 10.9402 45.9617 10.0234 44.8334 10.0234C43.7052 10.0234 42.7905 10.9402 42.7905 12.0712C42.7905 13.2022 43.7052 14.119 44.8334 14.119Z" stroke="#B5D9F1" stroke-width="2.20447" stroke-linecap="round" stroke-linejoin="round"/>
<path fill-rule="evenodd" clip-rule="evenodd" d="M56.3199 114.116C86.0438 114.116 110.14 90.0196 110.14 60.2957C110.14 30.5718 86.0438 6.47576 56.3199 6.47576C26.596 6.47576 2.5 30.5718 2.5 60.2957C2.5 90.0196 26.596 114.116 56.3199 114.116Z" fill="#ECF5FB"/>
<rect x="80.8379" y="1.93085" width="3.58799" height="3.58799" stroke="#B5D9F1" stroke-width="2" stroke-linecap="round" stroke-linejoin="round"/>
<rect x="63.6199" y="11.7678" width="3.58799" height="3.58799" transform="rotate(-45 63.6199 11.7678)" stroke="#B5D9F1" stroke-width="2" stroke-linecap="round" stroke-linejoin="round"/>
<path d="M71.4195 22.4123L74.8286 25.8214" stroke="#B5D9F1" stroke-width="2" stroke-linecap="round" stroke-linejoin="round"/>
<path d="M74.7084 22.4123L71.2993 25.8214" stroke="#B5D9F1" stroke-width="2" stroke-linecap="round" stroke-linejoin="round"/>
<path d="M18.658 15.7092C18.658 49.3091 48.9321 76.5473 86.2772 76.5473C88.23 76.5473 90.1634 76.4728 92.0742 76.3268M102.902 74.6949C100.955 75.1377 98.9742 75.5046 96.9641 75.7917M112.682 71.7343C114.469 71.0516 116.216 70.3018 117.921 69.4883" stroke="#B5D9F1" stroke-width="12" stroke-linecap="round"/>
<path d="M98.7474 73.1722C96.913 73.636 95.0469 74.0201 93.153 74.3208M107.962 70.0719C109.645 69.3571 111.292 68.5719 112.898 67.72M88.546 74.8812C88.1305 74.9164 87.7139 74.9477 87.2962 74.975M19.6394 17.2394C22.5863 49.6894 49.8664 75.112 83.0842 75.112C83.6528 75.112 84.2196 75.1046 84.7846 75.0898" stroke="#264887" stroke-width="2" stroke-linecap="round"/>
<path d="M106.645 54.1839C109.185 52.8241 111.594 51.2512 113.848 49.4891M115.53 48.1136C115.254 48.35 114.974 48.5835 114.692 48.8139M99.4057 57.3486C94.2907 59.1147 88.7995 60.0739 83.0843 60.0739C57.9059 60.0739 37.0754 41.4582 33.6055 17.2395" stroke="#264887" stroke-width="2" stroke-linecap="round"/>
<path d="M25.624 15.8043C25.624 45.1319 51.925 68.9066 84.3688 68.9066C88.1773 68.9066 91.9012 68.579 95.5078 67.9533M112.058 62.6496C115.799 60.8389 119.298 58.6727 122.5 56.2009" stroke="#D32D27" stroke-width="5" stroke-linecap="round"/>
<path d="M19.444 21.1771L6.59458 26.3453L25.7296 3.65053L48.7482 22.3949L34.4478 19.771" stroke="#264887" stroke-width="2" stroke-linecap="round" stroke-linejoin="round"/>
<defs>
<filter id="filter0_i_2740_131734" x="21.2222" y="36.4167" width="64.5" height="67.2778" filterUnits="userSpaceOnUse" color-interpolation-filters="sRGB">
<feFlood flood-opacity="0" result="BackgroundImageFix"/>
<feBlend mode="normal" in="SourceGraphic" in2="BackgroundImageFix" result="shape"/>
<feColorMatrix in="SourceAlpha" type="matrix" values="0 0 0 0 0 0 0 0 0 0 0 0 0 0 0 0 0 0 127 0" result="hardAlpha"/>
<feOffset dy="-4"/>
<feComposite in2="hardAlpha" operator="arithmetic" k2="-1" k3="1"/>
<feColorMatrix type="matrix" values="0 0 0 0 0.760784 0 0 0 0 0.878431 0 0 0 0 0.956863 0 0 0 1 0"/>
<feBlend mode="normal" in2="shape" result="effect1_innerShadow_2740_131734"/>
</filter>
<filter id="filter1_i_2740_131734" x="28.1667" y="43.3611" width="51.6758" height="51.6399" filterUnits="userSpaceOnUse" color-interpolation-filters="sRGB">
<feFlood flood-opacity="0" result="BackgroundImageFix"/>
<feBlend mode="normal" in="SourceGraphic" in2="BackgroundImageFix" result="shape"/>
<feColorMatrix in="SourceAlpha" type="matrix" values="0 0 0 0 0 0 0 0 0 0 0 0 0 0 0 0 0 0 127 0" result="hardAlpha"/>
<feOffset dx="6" dy="-6"/>
<feComposite in2="hardAlpha" operator="arithmetic" k2="-1" k3="1"/>
<feColorMatrix type="matrix" values="0 0 0 0 0.709804 0 0 0 0 0.85098 0 0 0 0 0.945098 0 0 0 1 0"/>
<feBlend mode="normal" in2="shape" result="effect1_innerShadow_2740_131734"/>
</filter>
<filter id="filter2_i_2740_131734" x="25.3889" y="48.6644" width="7.51953" height="13.6439" filterUnits="userSpaceOnUse" color-interpolation-filters="sRGB">
<feFlood flood-opacity="0" result="BackgroundImageFix"/>
<feBlend mode="normal" in="SourceGraphic" in2="BackgroundImageFix" result="shape"/>
<feColorMatrix in="SourceAlpha" type="matrix" values="0 0 0 0 0 0 0 0 0 0 0 0 0 0 0 0 0 0 127 0" result="hardAlpha"/>
<feOffset dx="3" dy="-4"/>
<feComposite in2="hardAlpha" operator="arithmetic" k2="-1" k3="1"/>
<feColorMatrix type="matrix" values="0 0 0 0 0.709804 0 0 0 0 0.85098 0 0 0 0 0.945098 0 0 0 1 0"/>
<feBlend mode="normal" in2="shape" result="effect1_innerShadow_2740_131734"/>
</filter>
<filter id="filter3_i_2740_131734" x="25.3889" y="77.3205" width="7.51953" height="13.6439" filterUnits="userSpaceOnUse" color-interpolation-filters="sRGB">
<feFlood flood-opacity="0" result="BackgroundImageFix"/>
<feBlend mode="normal" in="SourceGraphic" in2="BackgroundImageFix" result="shape"/>
<feColorMatrix in="SourceAlpha" type="matrix" values="0 0 0 0 0 0 0 0 0 0 0 0 0 0 0 0 0 0 127 0" result="hardAlpha"/>
<feOffset dx="3" dy="-4"/>
<feComposite in2="hardAlpha" operator="arithmetic" k2="-1" k3="1"/>
<feColorMatrix type="matrix" values="0 0 0 0 0.709804 0 0 0 0 0.85098 0 0 0 0 0.945098 0 0 0 1 0"/>
<feBlend mode="normal" in2="shape" result="effect1_innerShadow_2740_131734"/>
</filter>
</defs>
</svg>
