<svg width="17" height="16" viewBox="0 0 17 16" fill="none" xmlns="http://www.w3.org/2000/svg">
    <path fill-rule="evenodd" clip-rule="evenodd" d="M10.8814 13.9378L10.8809 13.9361C11.0369 13.8717 11.1907 13.801 11.342 13.7242C12.4819 13.1455 13.4259 12.2427 14.056 11.129C14.6861 10.0153 14.9742 8.74013 14.8842 7.46318C14.7942 6.18622 14.3302 4.96424 13.5502 3.95023C13.5159 3.90551 13.4724 3.86868 13.4227 3.84222C13.373 3.81576 13.3182 3.80029 13.262 3.79685C13.2058 3.79342 13.1495 3.8021 13.097 3.8223C13.0444 3.84251 12.9968 3.87377 12.9573 3.91399L12.7146 4.15711C12.6401 4.23169 12.5471 4.28494 12.4451 4.31134C12.3431 4.33775 12.2359 4.33634 12.1347 4.30727C12.0334 4.2782 11.9418 4.22253 11.8692 4.14602C11.7967 4.06951 11.7459 3.97496 11.7222 3.87216L11.0542 0.972558C11.0378 0.875673 11.0449 0.77628 11.0747 0.682677C11.1046 0.589076 11.1563 0.503982 11.2257 0.434503C11.295 0.365025 11.38 0.313178 11.4734 0.283293C11.5669 0.253408 11.6661 0.246352 11.7628 0.262713L14.6573 0.931852L14.659 0.930179C14.7616 0.953985 14.856 1.00486 14.9324 1.07752C15.0088 1.15019 15.0643 1.24199 15.0934 1.34343C15.1224 1.44486 15.1238 1.55222 15.0974 1.65438C15.0711 1.75653 15.0179 1.84977 14.9434 1.92441L14.639 2.22943C14.5691 2.29884 14.5277 2.39196 14.523 2.49042C14.5182 2.58889 14.5505 2.68557 14.6134 2.76139C15.6421 4.00431 16.2757 5.52736 16.4324 7.13426C16.5892 8.74116 16.262 10.3583 15.493 11.7772C14.724 13.1961 13.5484 14.3518 12.1177 15.0954C11.9079 15.2045 11.6939 15.3039 11.4766 15.3937L11.4773 15.3961C10.7074 15.7205 9.8876 15.925 9.04626 15.9981C8.84042 16.0124 8.63723 15.9451 8.48043 15.8107C8.32363 15.6764 8.22574 15.4857 8.20784 15.2798C8.18994 15.0739 8.25346 14.8692 8.38472 14.7097C8.51598 14.5503 8.70449 14.4488 8.90969 14.4272C9.59212 14.3683 10.2571 14.2021 10.8814 13.9378ZM5.09831 0.749535C5.96102 0.340244 6.89406 0.0853305 7.85522 0.00187176C8.06106 -0.012352 8.26425 0.054947 8.42105 0.189286C8.57785 0.323626 8.67574 0.514266 8.69364 0.720176C8.71154 0.926086 8.64802 1.1308 8.51676 1.29027C8.3855 1.44974 8.19699 1.55121 7.99179 1.57285C7.33292 1.62963 6.69028 1.78652 6.08492 2.03514L6.08495 2.03522C6.07186 2.04056 6.05878 2.04595 6.04572 2.05138C5.92666 2.10119 5.80906 2.15457 5.69308 2.21143L5.69277 2.2107C5.66171 2.22586 5.63075 2.24126 5.5999 2.25693C4.46007 2.83569 3.51601 3.73844 2.88594 4.85215C2.25586 5.96586 1.96778 7.24103 2.05775 8.51798C2.14773 9.79494 2.61177 11.0169 3.39177 12.0309C3.42606 12.0756 3.46953 12.1125 3.51924 12.1389C3.56895 12.1654 3.62375 12.1809 3.67994 12.1843C3.73613 12.1877 3.7924 12.1791 3.84495 12.1589C3.89751 12.1386 3.94513 12.1074 3.98459 12.0672L4.22729 11.8241C4.30187 11.7494 4.39506 11.6961 4.49716 11.6697C4.59925 11.6434 4.70654 11.6448 4.80787 11.6741C4.90813 11.7034 4.99882 11.7589 5.0707 11.8348C5.14258 11.9107 5.19306 12.0044 5.217 12.1062L5.88497 15.0058C5.90741 15.1036 5.90468 15.2055 5.87702 15.302C5.84936 15.3984 5.79768 15.4863 5.72684 15.5572C5.656 15.6282 5.56832 15.68 5.47203 15.7077C5.37574 15.7354 5.274 15.7381 5.17636 15.7157L2.28182 15.0465C2.17921 15.0227 2.08482 14.9718 2.00844 14.8992C1.93207 14.8265 1.87649 14.7347 1.84747 14.6333C1.81845 14.5318 1.81705 14.4245 1.84341 14.3223C1.86977 14.2202 1.92293 14.1269 1.99738 14.0523L2.30019 13.7489C2.37007 13.6795 2.41146 13.5864 2.4162 13.4879C2.42094 13.3895 2.38869 13.2928 2.3258 13.217C1.29778 11.9738 0.664907 10.4508 0.508705 8.84406C0.352504 7.23736 0.680134 5.62061 1.44938 4.2021C2.21863 2.7836 3.39426 1.62832 4.82481 0.885116C4.91523 0.838137 5.00642 0.79294 5.09831 0.749535Z" fill="#40526D"/>
</svg>
