<svg width="36" height="36" viewBox="0 0 36 36" fill="none" xmlns="http://www.w3.org/2000/svg">
<path d="M18 0.5C14.5388 0.5 11.1554 1.52636 8.27753 3.44928C5.39967 5.37221 3.15665 8.10533 1.83212 11.303C0.507583 14.5007 0.161024 18.0194 0.836265 21.4141C1.51151 24.8087 3.17822 27.9269 5.62564 30.3744C8.07306 32.8218 11.1913 34.4885 14.5859 35.1637C17.9806 35.839 21.4993 35.4924 24.697 34.1679C27.8947 32.8433 30.6278 30.6003 32.5507 27.7225C34.4736 24.8446 35.5 21.4612 35.5 18C35.4947 13.3603 33.6493 8.91222 30.3685 5.63148C27.0878 2.35074 22.6397 0.505293 18 0.5V0.5ZM16.125 9.25C16.125 8.75272 16.3225 8.2758 16.6742 7.92417C17.0258 7.57254 17.5027 7.375 18 7.375C18.4973 7.375 18.9742 7.57254 19.3258 7.92417C19.6775 8.2758 19.875 8.75272 19.875 9.25V16.75C19.875 17.2473 19.6775 17.7242 19.3258 18.0758C18.9742 18.4275 18.4973 18.625 18 18.625C17.5027 18.625 17.0258 18.4275 16.6742 18.0758C16.3225 17.7242 16.125 17.2473 16.125 16.75V9.25ZM18 28C17.5056 28 17.0222 27.8534 16.6111 27.5787C16.2 27.304 15.8795 26.9135 15.6903 26.4567C15.5011 25.9999 15.4516 25.4972 15.548 25.0123C15.6445 24.5273 15.8826 24.0819 16.2322 23.7322C16.5819 23.3826 17.0273 23.1445 17.5123 23.048C17.9972 22.9516 18.4999 23.0011 18.9567 23.1903C19.4135 23.3795 19.804 23.6999 20.0787 24.1111C20.3534 24.5222 20.5 25.0055 20.5 25.5C20.5 26.163 20.2366 26.7989 19.7678 27.2678C19.2989 27.7366 18.663 28 18 28Z" fill="#F4B21B"/>
</svg>
