<svg width="125" height="120" viewBox="0 0 125 120" fill="none" xmlns="http://www.w3.org/2000/svg">
<path fill-rule="evenodd" clip-rule="evenodd" d="M60.4961 120C93.6332 120 120.496 93.1371 120.496 60C120.496 26.8629 93.6332 0 60.4961 0C27.359 0 0.496094 26.8629 0.496094 60C0.496094 93.1371 27.359 120 60.4961 120Z" fill="#DAECF8"/>
<rect x="21.8284" y="29" width="4.00001" height="4" transform="rotate(45 21.8284 29)" stroke="#B5D9F1" stroke-linecap="round" stroke-linejoin="round"/>
<path fill-rule="evenodd" clip-rule="evenodd" d="M70.31 77.62C71.5858 77.62 72.62 76.5858 72.62 75.31C72.62 74.0342 71.5858 73 70.31 73C69.0342 73 68 74.0342 68 75.31C68 76.5858 69.0342 77.62 70.31 77.62Z" stroke="#B5D9F1"/>
<rect x="64" y="89" width="3.81679" height="4" stroke="#B5D9F1" stroke-linecap="round" stroke-linejoin="round"/>
<path d="M109.13 49.1366L112.103 52.2518" stroke="#C2E0F4" stroke-linecap="round"/>
<path d="M111.998 49.1366L109.026 52.2518" stroke="#C2E0F4" stroke-linecap="round"/>
<path fill-rule="evenodd" clip-rule="evenodd" d="M8.5 91.4508C7.67157 91.4508 7 92.1224 7 92.9508V99.9999C7 101.657 8.34315 103 10 103H16.5782C17.4067 103 18.0782 102.328 18.0782 101.5C18.0782 100.672 17.4067 99.9999 16.5782 99.9999H13C11.3431 99.9999 10 98.6568 10 96.9999V92.9508C10 92.1224 9.32843 91.4508 8.5 91.4508ZM42.3492 59.1617C41.5208 59.1617 40.8492 58.4901 40.8492 57.6617C40.8492 56.8333 41.5208 56.1617 42.3492 56.1617H48.9265C50.5834 56.1617 51.9265 57.5048 51.9265 59.1617V66.2109C51.9265 67.0393 51.2549 67.7109 50.4265 67.7109C49.5981 67.7109 48.9265 67.0393 48.9265 66.2109V62.1617C48.9265 60.5048 47.5834 59.1617 45.9265 59.1617H42.3492ZM40.8492 101.5C40.8492 100.672 41.5208 99.9999 42.3492 99.9999H45.9265C47.5834 99.9999 48.9265 98.6568 48.9265 96.9999V92.9508C48.9265 92.1224 49.5981 91.4508 50.4265 91.4508C51.2549 91.4508 51.9265 92.1224 51.9265 92.9508V99.9999C51.9265 101.657 50.5834 103 48.9265 103H42.3492C41.5208 103 40.8492 102.328 40.8492 101.5Z" fill="#B5D9F1"/>
<path fill-rule="evenodd" clip-rule="evenodd" d="M20.152 55.5C20.152 54.6716 19.4804 54 18.652 54H12.0737C10.4169 54 9.07373 55.3431 9.07373 57V64.0491C9.07373 64.8775 9.7453 65.5491 10.5737 65.5491C11.4022 65.5491 12.0737 64.8775 12.0737 64.0491V60C12.0737 58.3431 13.4169 57 15.0737 57H18.652C19.4804 57 20.152 56.3284 20.152 55.5ZM44.4229 57C43.5945 57 42.9229 56.3284 42.9229 55.5C42.9229 54.6716 43.5945 54 44.4229 54H51.0002C52.6571 54 54.0002 55.3431 54.0002 57V64.0491C54.0002 64.8775 53.3287 65.5491 52.5002 65.5491C51.6718 65.5491 51.0002 64.8775 51.0002 64.0491V60C51.0002 58.3431 49.6571 57 48.0002 57H44.4229ZM42.9229 99.3382C42.9229 98.5098 43.5945 97.8382 44.4229 97.8382H48.0002C49.6571 97.8382 51.0002 96.4951 51.0002 94.8382V90.7891C51.0002 89.9606 51.6718 89.2891 52.5002 89.2891C53.3287 89.2891 54.0002 89.9606 54.0002 90.7891V97.8382C54.0002 99.4951 52.6571 100.838 51.0002 100.838H44.4229C43.5945 100.838 42.9229 100.167 42.9229 99.3382ZM10.5737 89.289C11.4022 89.289 12.0737 89.9606 12.0737 90.789V94.8382C12.0737 96.4951 13.4169 97.8382 15.0737 97.8382H18.652C19.4804 97.8382 20.152 98.5098 20.152 99.3382C20.152 100.167 19.4804 100.838 18.652 100.838H12.0737C10.4169 100.838 9.07373 99.4951 9.07373 97.8382V90.789C9.07373 89.9606 9.7453 89.289 10.5737 89.289Z" fill="#D32D27"/>
<ellipse cx="24.3918" cy="71.6537" rx="2.48455" ry="3.62638" fill="#264887"/>
<ellipse cx="39.6967" cy="71.6537" rx="2.48455" ry="3.62638" fill="#264887"/>
<path d="M38.5575 82.5328C37.2153 86.8445 34.5336 89.7856 31.4444 89.7856C28.5792 89.7856 26.0646 87.2555 24.644 83.4484" stroke="#264887" stroke-width="4" stroke-linecap="round" stroke-linejoin="round"/>
<path d="M102.148 37.0333C102.148 35.4823 101.992 33.9677 101.696 32.5042C101.253 30.3152 100.495 28.2408 99.4719 26.3304C97.7763 23.1647 95.352 20.4496 92.4238 18.4103M85.7105 15.2265C83.7475 14.6692 81.6758 14.3709 79.5346 14.3709C74.336 14.3709 69.5471 16.1291 65.7276 19.0844M62.886 21.6971C59.1828 25.7327 56.9216 31.1184 56.9216 37.0333C56.9216 38.778 57.1183 40.4765 57.4907 42.108M89.7663 16.9778C89.4117 16.811 89.052 16.6532 88.6875 16.5046L89.7663 16.9778Z" stroke="#264887" stroke-width="2" stroke-linecap="round" stroke-linejoin="round"/>
<path d="M96.5464 45.9231C96.69 44.5286 96.7636 43.1131 96.7636 41.6802C96.7636 38.3412 96.3639 35.0964 95.61 31.9918C93.9244 25.1384 87.3485 19.705 79.515 19.705C72.7533 19.705 66.9286 23.7532 64.2917 29.5786M63.2807 32.499C62.9586 33.8068 62.7877 35.1748 62.7877 36.583C62.7877 37.7832 63.1227 39.1023 63.1227 41.8077C63.1227 44.403 62.2298 46.6689 60.1521 47.8803M95.5257 51.7093C95.7774 50.7106 95.9924 49.6971 96.1691 48.6703L95.5257 51.7093Z" stroke="#264887" stroke-width="2" stroke-linecap="round" stroke-linejoin="round"/>
<path d="M87.531 58.1102C89.2834 54.7364 90.4922 51.0401 91.0425 47.1347M91.3796 42.3094C91.3796 39.6747 91.0822 37.1088 90.5188 34.6429C89.4447 29.8792 84.9229 26.1059 79.5117 26.1059C73.2783 26.1059 68.2252 31.1129 68.2252 37.2894C68.2252 38.2626 68.3506 39.2067 68.5863 40.1068M68.5863 43.1748C68.5863 47.4192 66.7062 50.4163 63.3826 52.595" stroke="#264887" stroke-width="2" stroke-linecap="round" stroke-linejoin="round"/>
<path d="M80.3272 59.177C83.8922 54.3976 85.9955 48.5126 85.9955 42.1482C85.9955 40.8518 85.9082 40.642 85.7391 39.3906M85.2718 35.7621C85.4295 36.7449 85.3853 36.3451 85.3013 35.9598C84.7384 33.3772 82.3882 31.4399 79.5744 31.4399C76.3408 31.4399 73.7194 33.9985 73.7194 37.1547C73.7194 37.8286 73.8389 38.4753 74.0584 39.0756C74.3652 39.9376 74.4844 41.0917 74.4844 42.2731C74.4844 47.8461 71.8309 52.8142 67.6897 56.0394" stroke="#264887" stroke-width="2" stroke-linecap="round" stroke-linejoin="round"/>
<path d="M74.1506 58.1102C78.1505 53.9132 80.6115 48.1978 80.6115 41.8993C80.6115 40.1385 80.4191 38.4232 80.0546 36.774" stroke="#264887" stroke-width="2" stroke-linecap="round" stroke-linejoin="round"/>
<path d="M44 25.0389H44.4707M47.538 25.0389H49.5063M53.0474 25.0389H105.128M108.135 25.0389L109.535 25.0389M112.196 25.0389H112.916" stroke="#D22D27" stroke-width="2" stroke-linecap="round" stroke-linejoin="round"/>
<g filter="url(#filter0_d_2077_40497)">
<rect width="32.0273" height="32.0274" rx="6.89073" transform="matrix(-0.965926 -0.258819 -0.258819 0.965926 122.225 75.2893)" fill="#00A878" shape-rendering="crispEdges"/>
<path fill-rule="evenodd" clip-rule="evenodd" d="M98.5942 83.7651L98.0985 83.6323C97.748 83.5384 97.3745 83.5875 97.0602 83.769C96.7459 83.9505 96.5165 84.2494 96.4226 84.5999L94.5632 91.5393C94.4692 91.8899 94.5184 92.2634 94.6999 92.5777C94.8813 92.892 95.1802 93.1214 95.5308 93.2153L105.444 95.8716C105.795 95.9655 106.168 95.9164 106.483 95.7349C106.797 95.5534 107.026 95.2545 107.12 94.904L108.98 87.9646C109.074 87.614 109.024 87.2405 108.843 86.9262C108.661 86.6119 108.363 86.3825 108.012 86.2886L100.577 84.2964C100.489 84.2729 100.415 84.2156 100.369 84.137C100.324 84.0584 100.312 83.965 100.335 83.8774L100.733 82.3904C100.933 81.6454 101.42 81.0103 102.088 80.6247C102.756 80.2391 103.55 80.1346 104.295 80.3342C105.04 80.5338 105.675 81.0211 106.061 81.689C106.36 82.2069 106.49 82.8004 106.44 83.3881L108.109 83.8353C108.265 82.8045 108.068 81.7454 107.542 80.8338C106.929 79.773 105.921 78.999 104.738 78.6819C103.554 78.3649 102.294 78.5309 101.233 79.1433C100.172 79.7558 99.3982 80.7645 99.0812 81.9477L98.5942 83.7651ZM102.256 90.8825C101.999 90.9695 101.723 90.9786 101.461 90.9085C101.111 90.8146 100.812 90.5852 100.631 90.2709C100.449 89.9566 100.4 89.5831 100.494 89.2326C100.564 88.9711 100.71 88.7363 100.913 88.5579C101.117 88.3794 101.369 88.2653 101.637 88.23C101.905 88.1947 102.178 88.2397 102.421 88.3594C102.664 88.4791 102.865 88.6681 103.001 88.9025C103.136 89.1369 103.199 89.4062 103.181 89.6762C103.163 89.9463 103.066 90.2051 102.901 90.4198C102.737 90.6345 102.512 90.7955 102.256 90.8825Z" fill="white"/>
</g>
<path d="M26.3922 112.922H36.5882" stroke="#B5D9F1" stroke-linecap="round" stroke-dasharray="1.11 6.67 182.22 5.56"/>
<path d="M34.2352 109.784H44.4313" stroke="#B5D9F1" stroke-linecap="round" stroke-dasharray="1.11 6.67 182.22 5.56"/>
<path d="M38.9412 112.922H41.6863" stroke="#B5D9F1" stroke-linecap="round" stroke-dasharray="1.11 6.67 182.22 5.56"/>
<defs>
<filter id="filter0_d_2077_40497" x="83" y="67" width="40.3738" height="42.6707" filterUnits="userSpaceOnUse" color-interpolation-filters="sRGB">
<feFlood flood-opacity="0" result="BackgroundImageFix"/>
<feColorMatrix in="SourceAlpha" type="matrix" values="0 0 0 0 0 0 0 0 0 0 0 0 0 0 0 0 0 0 127 0" result="hardAlpha"/>
<feOffset dx="1.14846" dy="3.44537"/>
<feComposite in2="hardAlpha" operator="out"/>
<feColorMatrix type="matrix" values="0 0 0 0 0.635294 0 0 0 0 0.87451 0 0 0 0 0.803922 0 0 0 1 0"/>
<feBlend mode="normal" in2="BackgroundImageFix" result="effect1_dropShadow_2077_40497"/>
<feBlend mode="normal" in="SourceGraphic" in2="effect1_dropShadow_2077_40497" result="shape"/>
</filter>
</defs>
</svg>
