<svg width="15" height="14" viewBox="0 0 15 14" fill="none" xmlns="http://www.w3.org/2000/svg">
<path d="M7.50065 0.333252C6.18211 0.333252 4.89318 0.724245 3.79685 1.45679C2.70052 2.18933 1.84604 3.23052 1.34146 4.4487C0.836873 5.66687 0.704851 7.00731 0.962085 8.30052C1.21932 9.59373 1.85426 10.7816 2.78661 11.714C3.71896 12.6463 4.90684 13.2812 6.20005 13.5385C7.49326 13.7957 8.8337 13.6637 10.0519 13.1591C11.27 12.6545 12.3112 11.8 13.0438 10.7037C13.7763 9.60739 14.1673 8.31846 14.1673 6.99992C14.1653 5.23243 13.4623 3.53791 12.2125 2.2881C10.9627 1.03829 9.26814 0.335268 7.50065 0.333252V0.333252ZM6.78637 3.66658C6.78637 3.47714 6.86162 3.29546 6.99558 3.16151C7.12953 3.02755 7.31121 2.9523 7.50065 2.9523C7.69009 2.9523 7.87177 3.02755 8.00573 3.16151C8.13968 3.29546 8.21494 3.47714 8.21494 3.66658V6.52373C8.21494 6.71317 8.13968 6.89485 8.00573 7.0288C7.87177 7.16276 7.69009 7.23801 7.50065 7.23801C7.31121 7.23801 7.12953 7.16276 6.99558 7.0288C6.86162 6.89485 6.78637 6.71317 6.78637 6.52373V3.66658ZM7.50065 10.8094C7.31229 10.8094 7.12816 10.7536 6.97154 10.6489C6.81492 10.5443 6.69285 10.3955 6.62077 10.2215C6.54868 10.0475 6.52982 9.856 6.56657 9.67126C6.60332 9.48652 6.69403 9.31682 6.82722 9.18363C6.96041 9.05043 7.13011 8.95973 7.31485 8.92298C7.4996 8.88623 7.69109 8.90509 7.86511 8.97717C8.03914 9.04926 8.18788 9.17133 8.29253 9.32794C8.39718 9.48456 8.45303 9.6687 8.45303 9.85706C8.45303 10.1096 8.35269 10.3519 8.17409 10.5305C7.99548 10.7091 7.75324 10.8094 7.50065 10.8094Z" fill="#9B7C09"/>
</svg>
