<?xml version="1.0" encoding="UTF-8"?>
<svg width="128px" height="129px" viewBox="0 0 128 129" version="1.1" xmlns="http://www.w3.org/2000/svg" xmlns:xlink="http://www.w3.org/1999/xlink">
    <title>ExpressVPN Keys Icon</title>
    <g id="Browser-Icon-&amp;-Menus" stroke="none" stroke-width="1" fill="none" fill-rule="evenodd">
        <g id="PWM-Icon---Unlocked---128x128" transform="translate(0.000000, 1.000000)" fill="#DA3940" fill-rule="nonzero">
            <path d="M98.0429253,0.309577593 L98.5660365,0.419147597 L100.258768,0.827958568 C113.202745,4.27519004 123.312419,14.4138909 126.749781,27.3950338 C130.187142,40.3761766 126.425095,54.2091849 116.836208,63.6970106 C106.259234,73.9419256 91.1782422,76.6811037 78.1931946,71.9720614 L78.1615076,72.0105269 L52.792,97.3793333 L52.4276878,97.8226171 L33.041,117.208333 L25.7932759,124.480969 C22.5330385,127.751917 15.1048316,129.816962 8.64396609,123.33487 C2.18310061,116.852779 4.48603214,110.430125 6.8323971,106.943628 L7.50162073,106.129219 L11.834,101.781333 L12.1614932,101.385313 L13.648,99.8973333 L2.44517805,88.6568386 C-0.748523892,85.4526443 -0.813701482,80.298248 2.24964527,77.0144536 L2.44517805,76.8116867 L21.6385939,57.557951 C24.8322958,54.3537567 29.9698136,54.288365 33.2428549,57.3617759 L33.4449579,57.557951 L44.658,68.8093333 L58.361674,55.105767 C50.5739712,41.2131088 52.3076813,23.3759796 63.6461969,11.2186176 L64.066187,10.7754728 L65.4271942,9.44393146 C74.2190696,1.33846223 86.3531946,-2.05157041 98.0429253,0.309577593 Z M25.4669772,75.335208 L19.168413,81.653567 C18.0985245,82.7269704 18.0985245,84.4673012 19.168413,85.5407047 L23.579,89.9663333 L33.711,79.8343333 L33.763,79.7713333 L29.3413862,75.335208 C28.2714977,74.2618046 26.5368657,74.2618046 25.4669772,75.335208 Z M81.6047508,25.9250916 L81.0854191,26.4331798 C75.6887023,32.0368566 75.7658829,40.9441815 81.2588875,46.452958 C86.751892,51.9617344 95.6337148,52.0391366 101.221348,46.6269244 C104.880266,43.0065699 106.315784,37.7281851 105.004159,32.7748543 C103.692534,27.8215235 99.8348953,23.9528087 94.8957461,22.6374177 L94.2498353,22.4814241 C89.7281688,21.500437 85.0096169,22.7860528 81.6047508,25.9250916 Z" id="Combined-Shape"></path>
        </g>
    </g>
</svg>