<svg width="33" height="32" viewBox="0 0 33 32" fill="none" xmlns="http://www.w3.org/2000/svg">
    <path d="M0.5 8C0.5 3.58172 4.08172 0 8.5 0H24.5C28.9183 0 32.5 3.58172 32.5 8V24C32.5 28.4183 28.9183 32 24.5 32H8.5C4.08172 32 0.5 28.4183 0.5 24V8Z" fill="white"/>
    <g clip-path="url(#clip0_947_25925)">
        <path d="M22.4384 9.52947C22.3822 9.45667 22.3121 9.39566 22.2323 9.34994C22.1525 9.30421 22.0645 9.27467 21.9732 9.26299C21.882 9.25131 21.7893 9.25773 21.7006 9.28188C21.6118 9.30603 21.5287 9.34743 21.456 9.40372C21.3832 9.46002 21.3223 9.5301 21.2766 9.60996C21.231 9.68982 21.2015 9.77789 21.1899 9.86914C21.1783 9.96039 21.1849 10.053 21.2091 10.1418C21.2333 10.2305 21.2748 10.3136 21.3312 10.3863C22.1585 11.4512 22.6054 12.7625 22.6008 14.1111V17.8887C22.5991 19.506 21.9559 21.0565 20.8123 22.2002C19.6687 23.3438 18.1181 23.987 16.5008 23.9887C16.3151 23.9887 16.1371 24.0624 16.0058 24.1937C15.8745 24.325 15.8008 24.503 15.8008 24.6887C15.8008 24.8743 15.8745 25.0524 16.0058 25.1836C16.1371 25.3149 16.3151 25.3887 16.5008 25.3887C18.4893 25.3866 20.3957 24.5957 21.8017 23.1896C23.2078 21.7836 23.9987 19.8771 24.0008 17.8887V14.1111C24.0064 12.4522 23.4564 10.8393 22.4384 9.52947Z" fill="#D32D27"/>
        <path d="M14.128 23.5105C13.0219 23.045 12.0779 22.2631 11.4147 21.263C10.7514 20.2628 10.3984 19.089 10.4 17.8889V16.3777C10.4 16.1921 10.3263 16.014 10.195 15.8828C10.0637 15.7515 9.88566 15.6777 9.70001 15.6777C9.51436 15.6777 9.33631 15.7515 9.20503 15.8828C9.07376 16.014 9.00001 16.1921 9.00001 16.3777V17.8889C8.99791 19.3644 9.43182 20.8075 10.2472 22.0371C11.0627 23.2667 12.2232 24.228 13.5832 24.8001C13.7539 24.8706 13.9455 24.8708 14.1164 24.8007C14.2872 24.7305 14.4234 24.5957 14.4953 24.4256C14.5672 24.2554 14.5689 24.0638 14.5001 23.8924C14.4313 23.721 14.2976 23.5838 14.128 23.5105Z" fill="#D32D27"/>
        <path d="M9.67283 14.4329H9.71203C9.89088 14.4326 10.0628 14.3639 10.1927 14.2409C10.3225 14.1179 10.4004 13.9499 10.4104 13.7713C10.4688 12.731 10.7926 11.7229 11.3509 10.8432C11.9093 9.96347 12.6837 9.24139 13.6002 8.74578C14.5168 8.25017 15.545 7.99753 16.5869 8.01194C17.6287 8.02635 18.6495 8.30733 19.552 8.82811C19.6316 8.87633 19.7201 8.90819 19.8122 8.92183C19.9042 8.93546 19.9981 8.9306 20.0883 8.90752C20.1784 8.88444 20.2631 8.84361 20.3373 8.78741C20.4115 8.73122 20.4738 8.66079 20.5204 8.58025C20.5671 8.4997 20.5972 8.41067 20.609 8.31834C20.6208 8.22602 20.6141 8.13226 20.5893 8.04256C20.5645 7.95285 20.522 7.86901 20.4643 7.79592C20.4067 7.72283 20.3351 7.66198 20.2536 7.61691C19.1439 6.97596 17.8885 6.63001 16.6071 6.61206C15.3258 6.59412 14.0611 6.90477 12.9339 7.51439C11.8067 8.124 10.8545 9.01226 10.168 10.0944C9.48162 11.1766 9.08391 12.4166 9.01283 13.6961C9.00765 13.7879 9.02062 13.8797 9.05101 13.9664C9.08139 14.0532 9.1286 14.133 9.18991 14.2015C9.25122 14.2699 9.32544 14.3256 9.40831 14.3653C9.49118 14.405 9.58107 14.428 9.67283 14.4329Z" fill="#D32D27"/>
        <path d="M21.7341 17.8886V14.111C21.7335 13.2838 21.5369 12.4685 21.1605 11.7319C20.7842 10.9953 20.2387 10.3583 19.5687 9.87312C18.8988 9.38792 18.1235 9.06829 17.3062 8.94041C16.489 8.81253 15.653 8.88004 14.8669 9.13741C14.7768 9.1636 14.6929 9.20763 14.6202 9.26689C14.5474 9.32614 14.4874 9.39942 14.4435 9.48236C14.3996 9.5653 14.3729 9.6562 14.3649 9.74968C14.3568 9.84316 14.3677 9.93729 14.3968 10.0265C14.4258 10.1157 14.4725 10.1981 14.5341 10.2689C14.5957 10.3397 14.6708 10.3974 14.7551 10.4386C14.8395 10.4798 14.9312 10.5036 15.0249 10.5086C15.1185 10.5136 15.2123 10.4997 15.3005 10.4678C15.8764 10.2799 16.4886 10.2309 17.087 10.3248C17.6855 10.4187 18.2532 10.6529 18.7439 11.0082C19.2345 11.3635 19.6342 11.8298 19.9101 12.3691C20.1861 12.9083 20.3305 13.5052 20.3317 14.111V17.8886C20.3317 18.0743 20.4055 18.2523 20.5367 18.3836C20.668 18.5149 20.8461 18.5886 21.0317 18.5886C21.2174 18.5886 21.3954 18.5149 21.5267 18.3836C21.658 18.2523 21.7317 18.0743 21.7317 17.8886H21.7341Z" fill="#D32D27"/>
        <path d="M13.5882 10.567C13.5197 10.5057 13.4399 10.4585 13.3531 10.4281C13.2664 10.3976 13.1745 10.3846 13.0828 10.3898C12.991 10.3949 12.9011 10.4181 12.8183 10.4579C12.7355 10.4978 12.6614 10.5536 12.6002 10.6222C11.7407 11.5809 11.2658 12.8234 11.2666 14.111V17.8886C11.2667 18.9484 11.5885 19.9832 12.1895 20.8561C12.7905 21.7289 13.6423 22.3988 14.6323 22.7771C15.6223 23.1553 16.7038 23.2241 17.7337 22.9743C18.7637 22.7245 19.6935 22.1679 20.4002 21.3782C20.468 21.3111 20.5214 21.2308 20.557 21.1423C20.5927 21.0539 20.6098 20.959 20.6075 20.8636C20.6052 20.7683 20.5834 20.6744 20.5435 20.5878C20.5035 20.5011 20.4463 20.4236 20.3753 20.3598C20.3044 20.2961 20.2211 20.2476 20.1307 20.2172C20.0402 20.1868 19.9445 20.1752 19.8495 20.1832C19.7544 20.1911 19.662 20.2184 19.5778 20.2633C19.4937 20.3083 19.4196 20.37 19.3602 20.4446C18.8426 21.0234 18.1615 21.4313 17.4069 21.6145C16.6523 21.7977 15.86 21.7474 15.1346 21.4703C14.4093 21.1932 13.7851 20.7024 13.3449 20.0628C12.9046 19.4233 12.6689 18.6651 12.669 17.8886V14.111C12.6686 13.1681 13.0162 12.2583 13.645 11.5558C13.7685 11.4171 13.8318 11.235 13.8212 11.0496C13.8105 10.8642 13.7267 10.6907 13.5882 10.567Z" fill="#D32D27"/>
        <path d="M14.9342 17.8885C14.9342 17.7029 14.8604 17.5248 14.7292 17.3936C14.5979 17.2623 14.4198 17.1885 14.2342 17.1885C14.0485 17.1885 13.8705 17.2623 13.7392 17.3936C13.6079 17.5248 13.5342 17.7029 13.5342 17.8885C13.5342 18.6753 13.8467 19.4298 14.403 19.9861C14.9593 20.5424 15.7138 20.8549 16.5006 20.8549C17.2873 20.8549 18.0418 20.5424 18.5981 19.9861C19.1544 19.4298 19.467 18.6753 19.467 17.8885V14.1109C19.467 13.3242 19.1544 12.5697 18.5981 12.0134C18.0418 11.4571 17.2873 11.1445 16.5006 11.1445C15.7138 11.1445 14.9593 11.4571 14.403 12.0134C13.8467 12.5697 13.5342 13.3242 13.5342 14.1109V15.2445C13.5342 15.4302 13.6079 15.6082 13.7392 15.7395C13.8705 15.8708 14.0485 15.9445 14.2342 15.9445C14.4198 15.9445 14.5979 15.8708 14.7292 15.7395C14.8604 15.6082 14.9342 15.4302 14.9342 15.2445V14.1109C14.9342 13.6955 15.0992 13.2971 15.393 13.0033C15.6867 12.7096 16.0851 12.5445 16.5006 12.5445C16.916 12.5445 17.3144 12.7096 17.6082 13.0033C17.9019 13.2971 18.067 13.6955 18.067 14.1109V17.8885C18.067 18.0942 18.0265 18.2979 17.9477 18.488C17.869 18.678 17.7536 18.8507 17.6082 18.9961C17.4627 19.1416 17.2901 19.257 17.1 19.3357C16.91 19.4144 16.7063 19.4549 16.5006 19.4549C16.2949 19.4549 16.0912 19.4144 15.9011 19.3357C15.7111 19.257 15.5384 19.1416 15.393 18.9961C15.2475 18.8507 15.1321 18.678 15.0534 18.488C14.9747 18.2979 14.9342 18.0942 14.9342 17.8885Z" fill="#D32D27"/>
        <path d="M17.2008 17.5113V15.2449C17.2008 15.0593 17.127 14.8812 16.9958 14.7499C16.8645 14.6187 16.6864 14.5449 16.5008 14.5449C16.3151 14.5449 16.1371 14.6187 16.0058 14.7499C15.8745 14.8812 15.8008 15.0593 15.8008 15.2449V17.5113C15.8008 17.697 15.8745 17.875 16.0058 18.0063C16.1371 18.1376 16.3151 18.2113 16.5008 18.2113C16.6864 18.2113 16.8645 18.1376 16.9958 18.0063C17.127 17.875 17.2008 17.697 17.2008 17.5113Z" fill="#D32D27"/>
    </g>
    <path d="M8.5 1H24.5V-1H8.5V1ZM31.5 8V24H33.5V8H31.5ZM24.5 31H8.5V33H24.5V31ZM1.5 24V8H-0.5V24H1.5ZM8.5 31C4.63401 31 1.5 27.866 1.5 24H-0.5C-0.5 28.9706 3.52944 33 8.5 33V31ZM31.5 24C31.5 27.866 28.366 31 24.5 31V33C29.4706 33 33.5 28.9706 33.5 24H31.5ZM24.5 1C28.366 1 31.5 4.13401 31.5 8H33.5C33.5 3.02944 29.4706 -1 24.5 -1V1ZM8.5 -1C3.52944 -1 -0.5 3.02944 -0.5 8H1.5C1.5 4.13401 4.63401 1 8.5 1V-1Z" fill="#D32D27"/>
    <defs>
        <clipPath id="clip0_947_25925">
            <rect width="19.2" height="19.2" fill="white" transform="translate(6.90039 6.3999)"/>
        </clipPath>
    </defs>
</svg>
