<svg width="12" height="12" viewBox="0 0 12 12" fill="none" xmlns="http://www.w3.org/2000/svg">
<path d="M11.2741 5.28045H2.71859C2.69328 5.2802 2.66864 5.27232 2.64789 5.25781C2.62715 5.24331 2.61127 5.22288 2.60235 5.1992C2.59343 5.17551 2.59188 5.14968 2.5979 5.1251C2.60392 5.10052 2.61723 5.07833 2.63609 5.06145L6.95459 1.26145C7.09035 1.13344 7.17112 0.957732 7.17987 0.771344C7.18862 0.584955 7.12467 0.402449 7.00149 0.262289C6.87832 0.122128 6.70554 0.0352606 6.51957 0.0199937C6.3336 0.00472684 6.14897 0.0622529 6.00459 0.180448L0.414087 5.09995C0.286399 5.21256 0.184135 5.35105 0.114087 5.50622C0.0440396 5.6614 0.0078125 5.8297 0.0078125 5.99995C0.0078125 6.1702 0.0440396 6.3385 0.114087 6.49367C0.184135 6.64885 0.286399 6.78734 0.414087 6.89995L6.00359 11.8184C6.14809 11.9352 6.3321 11.9915 6.51718 11.9757C6.70225 11.9599 6.87407 11.8732 6.99672 11.7338C7.11937 11.5943 7.18336 11.4128 7.17532 11.2272C7.16728 11.0416 7.08784 10.8663 6.95359 10.7379L2.63509 6.93795C2.61623 6.92107 2.60292 6.89888 2.5969 6.8743C2.59088 6.84971 2.59243 6.82388 2.60135 6.8002C2.61027 6.77652 2.62615 6.75608 2.64689 6.74158C2.66764 6.72708 2.69228 6.71919 2.71759 6.71895H11.2741C11.4617 6.714 11.64 6.636 11.7709 6.50156C11.9018 6.36712 11.9751 6.18687 11.9751 5.9992C11.9751 5.81153 11.9018 5.63127 11.7709 5.49683C11.64 5.36239 11.4617 5.28439 11.2741 5.27945V5.28045Z" fill="#40526D"/>
</svg>
