<svg width="12" height="10" viewBox="0 0 12 10" fill="none" xmlns="http://www.w3.org/2000/svg">
    <path d="M11.1354 0.529702C11.0306 0.451238 10.9115 0.394518 10.785 0.362785C10.6586 0.331051 10.5272 0.324925 10.3984 0.344758C10.2696 0.36459 10.1459 0.409991 10.0344 0.478367C9.92289 0.546744 9.82575 0.636755 9.74853 0.743256L5.04562 7.22239L2.05509 4.79352C1.84889 4.63318 1.58902 4.56123 1.33118 4.59308C1.07334 4.62493 0.838052 4.75805 0.675755 4.96391C0.513457 5.16976 0.437066 5.43197 0.462957 5.69432C0.488848 5.95667 0.61496 6.19828 0.81426 6.36737L4.61137 9.4506C4.71629 9.53391 4.83652 9.59516 4.96503 9.63077C5.09354 9.66639 5.22776 9.67565 5.35983 9.65802C5.49191 9.64039 5.6192 9.59622 5.73427 9.52809C5.84934 9.45996 5.94988 9.36924 6.03002 9.26122L11.349 1.93835C11.4261 1.83164 11.4818 1.71055 11.5128 1.58199C11.5439 1.45343 11.5496 1.31992 11.5298 1.1891C11.51 1.05828 11.4649 0.932707 11.3973 0.819563C11.3296 0.70642 11.2406 0.607922 11.1354 0.529702Z" fill="#00A878"/>
</svg>
