<svg width="16" height="16" viewBox="0 0 16 16" fill="none" xmlns="http://www.w3.org/2000/svg">
<g clip-path="url(#clip0_955_125307)">
<path d="M13 7.99905C13.0003 8.21711 12.954 8.43272 12.8644 8.63149C12.7747 8.83026 12.6437 9.00761 12.48 9.15172L5.04534 15.6924C4.79897 15.8991 4.4815 16.0012 4.16081 15.9769C3.84012 15.9526 3.54167 15.8038 3.32926 15.5624C3.11686 15.3209 3.00737 15.0059 3.0242 14.6847C3.04103 14.3635 3.18285 14.0617 3.41934 13.8437L9.92067 8.12439C9.93852 8.10874 9.95282 8.08947 9.96261 8.06786C9.97241 8.04624 9.97748 8.02278 9.97748 7.99905C9.97748 7.97532 9.97241 7.95186 9.96261 7.93025C9.95282 7.90864 9.93852 7.88936 9.92067 7.87372L3.41934 2.15439C3.29362 2.0489 3.19026 1.91934 3.11533 1.77333C3.0404 1.62732 2.99541 1.46781 2.98301 1.30417C2.97061 1.14053 2.99105 0.976055 3.04312 0.820424C3.0952 0.664793 3.17786 0.52114 3.28624 0.397912C3.39463 0.274683 3.52655 0.174365 3.67427 0.102853C3.82198 0.0313396 3.98249 -0.00992393 4.14638 -0.0185127C4.31027 -0.0271015 4.47422 -0.00284386 4.6286 0.0528374C4.78297 0.108518 4.92466 0.194495 5.04534 0.305718L12.4773 6.84439C12.6414 6.98875 12.7728 7.16637 12.863 7.36546C12.9531 7.56454 12.9998 7.78052 13 7.99905Z" fill="#40526D"/>
</g>
<defs>
<clipPath id="clip0_955_125307">
<rect width="16" height="16" fill="white" transform="translate(0 16) rotate(-90)"/>
</clipPath>
</defs>
</svg>
