<svg width="16" height="16" viewBox="0 0 16 16" fill="none" xmlns="http://www.w3.org/2000/svg">
<g clip-path="url(#clip0_1022_177649)">
<path d="M13.4333 2.69333C13.3582 2.67799 13.2906 2.63718 13.242 2.57779C13.1934 2.51839 13.1668 2.44406 13.1667 2.36733V1.33333C13.1667 0.979711 13.0262 0.640573 12.7761 0.390524C12.5261 0.140476 12.187 0 11.8333 0L3.5 0C2.96957 0 2.46086 0.210714 2.08579 0.585786C1.71071 0.960859 1.5 1.46957 1.5 2V14C1.5 14.5304 1.71071 15.0391 2.08579 15.4142C2.46086 15.7893 2.96957 16 3.5 16H13.1667C13.5203 16 13.8594 15.8595 14.1095 15.6095C14.3595 15.3594 14.5 15.0203 14.5 14.6667V4C14.5001 3.69263 14.3939 3.39467 14.1995 3.15656C14.0052 2.91845 13.7345 2.75481 13.4333 2.69333ZM2.83333 2C2.83333 1.82319 2.90357 1.65362 3.0286 1.5286C3.15362 1.40357 3.32319 1.33333 3.5 1.33333H11.6667C11.7109 1.33333 11.7533 1.35089 11.7845 1.38215C11.8158 1.41341 11.8333 1.4558 11.8333 1.5V2.5C11.8333 2.5442 11.8158 2.5866 11.7845 2.61785C11.7533 2.64911 11.7109 2.66667 11.6667 2.66667H3.5C3.32319 2.66667 3.15362 2.59643 3.0286 2.4714C2.90357 2.34638 2.83333 2.17681 2.83333 2ZM11.8827 13.3227C11.8514 13.3602 11.8123 13.3904 11.768 13.4112C11.7238 13.4319 11.6755 13.4426 11.6267 13.4427H4.37333C4.32455 13.4427 4.27634 13.4321 4.23211 13.4115C4.18788 13.3909 4.14871 13.3609 4.11736 13.3235C4.08602 13.2861 4.06326 13.2423 4.0507 13.1952C4.03814 13.148 4.03608 13.0987 4.04467 13.0507C4.10452 12.7036 4.21363 12.3669 4.36867 12.0507C4.66667 11.4533 5.41667 11.0867 6.78733 10.5787C6.84495 10.4169 6.84306 10.2399 6.782 10.0793C6.2455 9.40548 5.98036 8.55537 6.03867 7.696C6.02478 7.42983 6.06522 7.16362 6.15752 6.91358C6.24981 6.66354 6.39204 6.4349 6.57553 6.24159C6.75902 6.04827 6.97994 5.89433 7.22483 5.78914C7.46973 5.68394 7.73347 5.62969 8 5.62969C8.26653 5.62969 8.53027 5.68394 8.77517 5.78914C9.02006 5.89433 9.24098 6.04827 9.42447 6.24159C9.60796 6.4349 9.75019 6.66354 9.84248 6.91358C9.93478 7.16362 9.97522 7.42983 9.96133 7.696C10.0192 8.56228 9.74988 9.41873 9.20667 10.096C9.15236 10.2564 9.15852 10.4311 9.224 10.5873C10.5833 11.088 11.3333 11.454 11.6313 12.054C11.7864 12.3702 11.8955 12.7069 11.9553 13.054C11.9633 13.1014 11.9609 13.1499 11.9484 13.1963C11.9358 13.2427 11.9134 13.2858 11.8827 13.3227Z" fill="#40526D"/>
</g>
<defs>
<clipPath id="clip0_1022_177649">
<rect width="16" height="16" fill="white"/>
</clipPath>
</defs>
</svg>
