<svg width="160" height="160" viewBox="0 0 160 160" fill="none" xmlns="http://www.w3.org/2000/svg">
<path d="M88.6537 22.1128C82.7716 21.221 76.7886 21.221 70.9065 22.1128" stroke="#F9FAFB" stroke-width="2" stroke-linecap="round" stroke-linejoin="round"/>
<path d="M25.4741 58.0591C27.3977 53.3053 29.9385 48.8253 33.0309 44.7343" stroke="#F9FAFB" stroke-width="2" stroke-linecap="round" stroke-linejoin="round"/>
<path d="M88.6537 137.888C82.7716 138.78 76.7886 138.78 70.9065 137.888" stroke="#F9FAFB" stroke-width="2" stroke-linecap="round" stroke-linejoin="round"/>
<path d="M25.4741 101.943C27.3977 106.697 29.9385 111.177 33.0309 115.268" stroke="#F9FAFB" stroke-width="2" stroke-linecap="round" stroke-linejoin="round"/>
<path d="M134.082 58.0591C132.157 53.3055 129.616 48.8256 126.523 44.7343" stroke="#F9FAFB" stroke-width="2" stroke-linecap="round" stroke-linejoin="round"/>
<path d="M134.082 101.943C132.157 106.696 129.616 111.176 126.523 115.268" stroke="#F9FAFB" stroke-width="2" stroke-linecap="round" stroke-linejoin="round"/>
<path d="M41.2578 80.0013H52.4194" stroke="#F9FAFB" stroke-width="2" stroke-linecap="round" stroke-linejoin="round"/>
<path d="M57.7268 43.2798L64.4676 54.5055" stroke="#F9FAFB" stroke-width="2" stroke-linecap="round" stroke-linejoin="round"/>
<path d="M57.7268 116.723L64.4676 105.497" stroke="#F9FAFB" stroke-width="2" stroke-linecap="round" stroke-linejoin="round"/>
<path d="M118.302 80.0013H107.141" stroke="#F9FAFB" stroke-width="2" stroke-linecap="round" stroke-linejoin="round"/>
<path d="M101.832 43.2798L95.0913 54.5055" stroke="#F9FAFB" stroke-width="2" stroke-linecap="round" stroke-linejoin="round"/>
<path d="M101.832 116.723L95.0913 105.497" stroke="#F9FAFB" stroke-width="2" stroke-linecap="round" stroke-linejoin="round"/>
<path d="M37.0489 90.7951C37.0472 91.3755 36.8159 91.9316 36.4055 92.3421C35.995 92.7525 35.4389 92.9838 34.8585 92.9855H7.48568C6.90554 92.9834 6.3498 92.7519 5.93973 92.3415C5.52966 91.9311 5.29856 91.3752 5.29688 90.7951V72.1823H37.0489V90.7951Z" fill="#EDBF0E" stroke="#1B283C" stroke-width="2" stroke-linecap="round" stroke-linejoin="round"/>
<path d="M37.0489 72.1823H5.29688V69.2047C5.29856 68.6246 5.52966 68.0687 5.93973 67.6583C6.3498 67.2479 6.90554 67.0164 7.48568 67.0143H34.8585C35.4389 67.016 35.995 67.2473 36.4055 67.6577C36.8159 68.0681 37.0472 68.6243 37.0489 69.2047V72.1823Z" fill="white" stroke="#1B283C" stroke-width="2" stroke-linecap="round" stroke-linejoin="round"/>
<path d="M65.4161 36.717C65.4144 37.2974 65.1831 37.8535 64.7726 38.2639C64.3622 38.6744 63.8061 38.9057 63.2257 38.9074H35.8529C35.2727 38.9053 34.717 38.6738 34.3069 38.2634C33.8968 37.853 33.6657 37.2971 33.6641 36.717V18.1042H65.4161V36.717Z" fill="#17AF84" stroke="#1B283C" stroke-width="2" stroke-linecap="round" stroke-linejoin="round"/>
<path d="M65.4161 18.1042H33.6641V15.1266C33.6657 14.5465 33.8968 13.9905 34.3069 13.5802C34.717 13.1698 35.2727 12.9383 35.8529 12.9362H63.2257C63.8061 12.9379 64.3622 13.1692 64.7726 13.5796C65.1831 13.99 65.4144 14.5462 65.4161 15.1266V18.1042Z" fill="white" stroke="#1B283C" stroke-width="2" stroke-linecap="round" stroke-linejoin="round"/>
<path d="M63.6529 144.874C63.6512 145.455 63.4201 146.011 63.01 146.421C62.5999 146.831 62.0442 147.063 61.4641 147.065H34.0913C33.5109 147.063 32.9547 146.832 32.5443 146.421C32.1339 146.011 31.9026 145.455 31.9009 144.874V126.262H63.6529V144.874Z" fill="#F7DD7B" stroke="#1B283C" stroke-width="2" stroke-linecap="round" stroke-linejoin="round"/>
<path d="M63.6529 126.262H31.9009V123.284C31.9026 122.704 32.1339 122.148 32.5443 121.737C32.9547 121.327 33.5109 121.095 34.0913 121.094H61.4641C62.0442 121.096 62.6 121.327 63.01 121.738C63.4201 122.148 63.6512 122.704 63.6529 123.284V126.262Z" fill="white" stroke="#1B283C" stroke-width="2" stroke-linecap="round" stroke-linejoin="round"/>
<path d="M122.953 90.7951C122.955 91.3755 123.186 91.9316 123.597 92.3421C124.007 92.7525 124.563 92.9838 125.144 92.9855H152.516C153.096 92.9834 153.652 92.7519 154.062 92.3415C154.472 91.9311 154.703 91.3752 154.705 90.7951V72.1823H122.953V90.7951Z" fill="#7C7FD6" stroke="#1B283C" stroke-width="2" stroke-linecap="round" stroke-linejoin="round"/>
<path d="M122.953 72.1823H154.705V69.2047C154.703 68.6246 154.472 68.0687 154.062 67.6583C153.652 67.2479 153.096 67.0164 152.516 67.0143H125.144C124.563 67.016 124.007 67.2473 123.597 67.6577C123.186 68.0681 122.955 68.6243 122.953 69.2047V72.1823Z" fill="white" stroke="#1B283C" stroke-width="2" stroke-linecap="round" stroke-linejoin="round"/>
<path d="M94.1458 36.717C94.147 37.2972 94.378 37.8534 94.7881 38.2639C95.1983 38.6743 95.7543 38.9057 96.3346 38.9074H123.707C124.288 38.9057 124.844 38.6744 125.254 38.2639C125.665 37.8535 125.896 37.2974 125.898 36.717V18.1042H94.1458V36.717Z" fill="#B0B2E6" stroke="#1B283C" stroke-width="2" stroke-linecap="round" stroke-linejoin="round"/>
<path d="M94.1458 18.1042H125.898V15.1266C125.896 14.5462 125.665 13.99 125.254 13.5796C124.844 13.1692 124.288 12.9379 123.707 12.9362H96.3346C95.7543 12.9379 95.1983 13.1692 94.7881 13.5797C94.378 13.9902 94.147 14.5463 94.1458 15.1266V18.1042Z" fill="white" stroke="#1B283C" stroke-width="2" stroke-linecap="round" stroke-linejoin="round"/>
<path d="M95.9089 144.874C95.9106 145.455 96.1419 146.011 96.5523 146.421C96.9628 146.832 97.5189 147.063 98.0993 147.065H125.471C126.051 147.063 126.607 146.832 127.017 146.421C127.428 146.011 127.659 145.455 127.661 144.874V126.262H95.9089V144.874Z" fill="#E78C89" stroke="#1B283C" stroke-width="2" stroke-linecap="round" stroke-linejoin="round"/>
<path d="M95.9089 126.262H127.661V123.284C127.659 122.704 127.428 122.148 127.017 121.737C126.607 121.327 126.051 121.095 125.471 121.094H98.0993C97.5189 121.095 96.9628 121.327 96.5523 121.737C96.1419 122.148 95.9106 122.704 95.9089 123.284V126.262Z" fill="white" stroke="#1B283C" stroke-width="2" stroke-linecap="round" stroke-linejoin="round"/>
<path d="M104.001 80.2094C103.997 84.9105 102.6 89.505 99.9854 93.412C97.3709 97.319 93.6566 100.363 89.3123 102.159C84.9679 103.956 80.1884 104.423 75.5782 103.503C70.968 102.584 66.734 100.317 63.4116 96.9915C60.0893 93.6655 57.8276 89.4291 56.9128 84.8179C55.9979 80.2067 56.4708 75.4278 58.2717 71.0853C60.0726 66.7429 63.1207 63.0319 67.0305 60.4217C70.9404 57.8114 75.5364 56.419 80.2374 56.4206C86.5422 56.4274 92.5864 58.9367 97.0421 63.3972C101.498 67.8577 104.001 73.9046 104.001 80.2094Z" fill="#6CB4E4"/>
<path d="M104.001 80.2091C104 81.0933 103.951 81.9768 103.852 82.8555C103.207 77.0423 100.442 71.6707 96.0852 67.7687C91.7282 63.8667 86.0854 61.7082 80.2366 61.7063C74.3878 61.7043 68.7435 63.859 64.3839 67.758C60.0243 71.6571 57.2554 77.0267 56.607 82.8395C56.2457 79.625 56.5442 76.3706 57.4843 73.2755C58.4244 70.1804 59.9863 67.3097 62.0744 64.8392C64.1624 62.3687 66.7328 60.3504 69.628 58.9078C72.5232 57.4651 75.6824 56.6286 78.9121 56.4493C82.1419 56.2701 85.3743 56.7519 88.4113 57.8653C91.4484 58.9786 94.2263 60.7001 96.575 62.9244C98.9236 65.1486 100.794 67.8288 102.07 70.8009C103.347 73.773 104.004 76.9744 104.001 80.2091V80.2091Z" fill="#ECF5FB"/>
<path d="M104.001 80.2094C103.997 84.9105 102.6 89.505 99.9854 93.412C97.3709 97.319 93.6566 100.363 89.3123 102.159C84.9679 103.956 80.1884 104.423 75.5782 103.503C70.968 102.584 66.734 100.317 63.4116 96.9915C60.0893 93.6655 57.8276 89.4291 56.9128 84.8179C55.9979 80.2067 56.4708 75.4278 58.2717 71.0853C60.0726 66.7429 63.1207 63.0319 67.0305 60.4217C70.9404 57.8114 75.5364 56.419 80.2374 56.4206C86.5422 56.4274 92.5864 58.9367 97.0421 63.3972C101.498 67.8577 104.001 73.9046 104.001 80.2094Z" stroke="#1B283C" stroke-width="2" stroke-linecap="round" stroke-linejoin="round"/>
<path d="M90.4498 58.7409L69.9922 101.645" stroke="#1B283C" stroke-width="2" stroke-linecap="round" stroke-linejoin="round"/>
<path d="M101.672 90.4227L58.7683 69.9636" stroke="#1B283C" stroke-width="2" stroke-linecap="round" stroke-linejoin="round"/>
<path d="M103.916 78.3283L66.7527 60.6068" stroke="#1B283C" stroke-width="2" stroke-linecap="round" stroke-linejoin="round"/>
<path d="M93.6882 99.7798L56.5234 82.0598" stroke="#1B283C" stroke-width="2" stroke-linecap="round" stroke-linejoin="round"/>
<path d="M90.9474 85.3072C96.5969 73.4594 96.3745 61.565 90.4507 58.7402C84.5268 55.9154 75.1446 63.23 69.4951 75.0778C63.8455 86.9255 64.0679 98.82 69.9918 101.645C75.9156 104.47 85.2978 97.155 90.9474 85.3072Z" stroke="#1B283C" stroke-width="2" stroke-linecap="round" stroke-linejoin="round"/>
</svg>
