<svg width="16" height="16" viewBox="0 0 16 16" fill="none" xmlns="http://www.w3.org/2000/svg">
<g clip-path="url(#clip0_2487_134686)">
<path d="M1.76622 10.9332C1.72397 10.8911 1.6712 10.8611 1.6134 10.8463C1.5556 10.8315 1.4949 10.8326 1.43763 10.8492C1.38035 10.8659 1.3286 10.8977 1.28778 10.9412C1.24696 10.9847 1.21856 11.0383 1.20555 11.0966L0.262884 15.3399C0.250676 15.3946 0.252462 15.4515 0.268077 15.5053C0.283692 15.5592 0.312631 15.6082 0.352217 15.6479C0.392147 15.6871 0.441167 15.7159 0.494907 15.7316C0.548647 15.7473 0.605438 15.7495 0.660217 15.7379L4.90288 14.7952C4.96124 14.7823 5.01503 14.7539 5.05865 14.713C5.10226 14.6722 5.13408 14.6203 5.15078 14.5629C5.16748 14.5055 5.16844 14.4447 5.15356 14.3868C5.13868 14.3289 5.10852 14.2761 5.06622 14.2339L1.76622 10.9332Z" fill="#40526D"/>
<path d="M11.901 4.80623L4.59432 12.1129C4.56329 12.1443 4.5459 12.1867 4.5459 12.2309C4.5459 12.2751 4.56329 12.3175 4.59432 12.3489L5.77298 13.5276C5.83608 13.5889 5.92063 13.6233 6.00865 13.6233C6.09667 13.6233 6.18122 13.5889 6.24432 13.5276L13.3156 6.45623C13.3781 6.39372 13.4132 6.30895 13.4132 6.22056C13.4132 6.13217 13.3781 6.04741 13.3156 5.9849L12.137 4.80623C12.1055 4.77521 12.0632 4.75781 12.019 4.75781C11.9748 4.75781 11.9324 4.77521 11.901 4.80623Z" fill="#40526D"/>
<path d="M11.1949 3.86349L10.0162 2.68549C9.95373 2.623 9.86896 2.58789 9.78057 2.58789C9.69218 2.58789 9.60741 2.623 9.54491 2.68549L2.47357 9.75615C2.41108 9.81866 2.37598 9.90343 2.37598 9.99182C2.37598 10.0802 2.41108 10.165 2.47357 10.2275L3.65224 11.4062C3.68368 11.4372 3.72607 11.4546 3.77024 11.4546C3.81441 11.4546 3.8568 11.4372 3.88824 11.4062L11.1949 4.09949C11.2259 4.06805 11.2433 4.02565 11.2433 3.98149C11.2433 3.93732 11.2259 3.89493 11.1949 3.86349Z" fill="#40526D"/>
<path d="M14.9659 1.03396C14.4654 0.534443 13.7871 0.253906 13.0799 0.253906C12.3728 0.253906 11.6945 0.534443 11.1939 1.03396L10.7226 1.50529C10.6601 1.5678 10.625 1.65257 10.625 1.74096C10.625 1.82935 10.6601 1.91412 10.7226 1.97662L14.0226 5.27596C14.0862 5.33641 14.1705 5.37012 14.2583 5.37012C14.346 5.37012 14.4304 5.33641 14.4939 5.27596L14.9659 4.80462C15.4659 4.30455 15.7467 3.6264 15.7467 2.91929C15.7467 2.21219 15.4659 1.53403 14.9659 1.03396Z" fill="#40526D"/>
</g>
<defs>
<clipPath id="clip0_2487_134686">
<rect width="16" height="16" fill="white"/>
</clipPath>
</defs>
</svg>
