<svg width="24" height="24" viewBox="0 0 24 24" fill="none" xmlns="http://www.w3.org/2000/svg">
<g clip-path="url(#clip0_224_7373)">
<path d="M23.888 5.83199C23.8546 5.8178 23.8177 5.81393 23.782 5.82088C23.7464 5.82783 23.7136 5.84528 23.688 5.87099L13.941 15.616C13.4253 16.1314 12.7261 16.4209 11.997 16.4209C11.2679 16.4209 10.5687 16.1314 10.053 15.616L0.310002 5.87099C0.28451 5.84504 0.251754 5.82743 0.216052 5.82047C0.180349 5.8135 0.143375 5.81752 0.110002 5.83199C0.0772087 5.84612 0.0492947 5.86958 0.0297354 5.89945C0.0101762 5.92932 -0.000164108 5.96429 1.96956e-06 5.99999V18C1.96956e-06 18.5304 0.210716 19.0391 0.585788 19.4142C0.960861 19.7893 1.46957 20 2 20H22C22.5304 20 23.0391 19.7893 23.4142 19.4142C23.7893 19.0391 24 18.5304 24 18V5.99999C24.0001 5.96403 23.9896 5.92885 23.9696 5.89892C23.9497 5.869 23.9212 5.8457 23.888 5.83199Z" fill="currentColor"/>
<path d="M11.115 14.556C11.3497 14.79 11.6676 14.9214 11.999 14.9214C12.3304 14.9214 12.6483 14.79 12.883 14.556L22.569 4.87C22.6346 4.80442 22.6806 4.7219 22.702 4.63166C22.7234 4.54142 22.7192 4.44702 22.69 4.359C22.58 4.03 22.274 4 22 4H2.00001C1.72501 4 1.41701 4.03 1.30901 4.359C1.2798 4.44702 1.27566 4.54142 1.29702 4.63166C1.31839 4.7219 1.36444 4.80442 1.43001 4.87L11.115 14.556Z" fill="currentColor"/>
</g>
</svg>
