<svg width="180" height="180" viewBox="0 0 180 180" fill="none" xmlns="http://www.w3.org/2000/svg">
<path fill-rule="evenodd" clip-rule="evenodd" d="M90 180C139.706 180 180 139.706 180 90C180 40.2944 139.706 0 90 0C40.2944 0 0 40.2944 0 90C0 139.706 40.2944 180 90 180Z" fill="#FAF4DE"/>
<path d="M47.4747 131.999C46.2975 131.998 45.1404 131.693 44.1161 131.113C43.0918 130.533 42.2351 129.697 41.6295 128.688C41.0239 127.678 40.6901 126.529 40.6604 125.352C40.6307 124.176 40.9062 123.011 41.4601 121.972L84.6516 41.0145C85.2331 39.9241 86.1 39.0123 87.1596 38.3765C88.2193 37.7407 89.4318 37.4048 90.6675 37.4048C91.9033 37.4048 93.1158 37.7407 94.1755 38.3765C95.2351 39.0123 96.102 39.9241 96.6835 41.0145L139.855 121.97C140.41 123.009 140.686 124.175 140.656 125.353C140.626 126.531 140.292 127.681 139.685 128.691C139.078 129.701 138.22 130.537 137.194 131.116C136.168 131.696 135.01 132 133.832 131.999H47.4747Z" fill="#F0C936"/>
<path d="M102.681 52.2661C101.555 51.4665 100.209 51.0372 98.8281 51.0378C97.5896 51.0403 96.3749 51.3776 95.3125 52.0141C94.2502 52.6506 93.3797 53.5626 92.7933 54.6534L51.5817 131.999H47.4747C46.2975 131.998 45.1404 131.693 44.1161 131.113C43.0918 130.533 42.2351 129.697 41.6295 128.688C41.0239 127.678 40.6901 126.529 40.6604 125.352C40.6307 124.176 40.9062 123.011 41.4601 121.972L84.6516 41.0145C85.2331 39.9241 86.1 39.0123 87.1596 38.3765C88.2193 37.7407 89.4318 37.4048 90.6675 37.4048C91.9033 37.4048 93.1158 37.7407 94.1755 38.3765C95.2351 39.0123 96.102 39.9241 96.6835 41.0145L102.687 52.269" fill="#FAE8A7"/>
<path d="M47.4747 131.999C46.2975 131.998 45.1404 131.693 44.1161 131.113C43.0918 130.533 42.2351 129.697 41.6295 128.688C41.0239 127.678 40.6901 126.529 40.6604 125.352C40.6307 124.176 40.9062 123.011 41.4601 121.972L84.6516 41.0145C85.2331 39.9241 86.1 39.0123 87.1596 38.3765C88.2193 37.7407 89.4318 37.4048 90.6675 37.4048C91.9033 37.4048 93.1158 37.7407 94.1755 38.3765C95.2351 39.0123 96.102 39.9241 96.6835 41.0145L139.855 121.97C140.41 123.009 140.686 124.175 140.656 125.353C140.626 126.531 140.292 127.681 139.685 128.691C139.078 129.701 138.22 130.537 137.194 131.116C136.168 131.696 135.01 132 133.832 131.999H47.4747Z" stroke="#264887" stroke-width="2" stroke-linecap="round" stroke-linejoin="round" stroke-dasharray="182 7 1 4"/>
<path d="M92.2655 99.8418C92.1748 100.201 91.9668 100.52 91.6744 100.748C91.382 100.976 91.0219 101.099 90.6513 101.099C90.2806 101.099 89.9206 100.976 89.6282 100.748C89.3358 100.52 89.1278 100.201 89.0371 99.8418C82.5139 74.1333 82.7885 75.2923 82.7624 75.0351C82.6571 73.9357 82.7827 72.8264 83.1313 71.7783C83.4798 70.7303 84.0435 69.7667 84.7863 68.9494C85.5291 68.132 86.4346 67.4789 87.4446 67.032C88.4546 66.5851 89.5468 66.3542 90.6513 66.3542C91.7558 66.3542 92.848 66.5851 93.858 67.032C94.868 67.4789 95.7735 68.132 96.5163 68.9494C97.259 69.7667 97.8228 70.7303 98.1713 71.7783C98.5199 72.8264 98.6455 73.9357 98.5401 75.0351C98.5228 75.2923 98.7916 74.1275 92.2655 99.8418Z" fill="#264887" stroke="#264887" stroke-width="2" stroke-linecap="round" stroke-linejoin="round"/>
<path d="M90.6517 121.51C89.3844 121.51 88.1454 121.135 87.0914 120.432C86.0373 119.728 85.2156 118.728 84.7301 117.557C84.2446 116.386 84.1171 115.098 84.3638 113.855C84.6104 112.612 85.2202 111.47 86.1159 110.573C87.0116 109.677 88.1531 109.066 89.3959 108.818C90.6388 108.57 91.9272 108.697 93.0983 109.181C94.2693 109.666 95.2704 110.487 95.975 111.54C96.6795 112.593 97.0559 113.832 97.0564 115.099C97.0557 116.798 96.3808 118.427 95.18 119.629C93.9793 120.831 92.3507 121.508 90.6517 121.51Z" fill="#264887" stroke="#264887" stroke-width="2" stroke-linecap="round" stroke-linejoin="round"/>
<path d="M37 147.5H143" stroke="#EDBF0E" stroke-width="2" stroke-linecap="round" stroke-dasharray="1 6 164 5"/>
<rect x="145.645" y="50.8787" width="6.35515" height="6.35516" stroke="#EDBF0E" stroke-width="2" stroke-linecap="round" stroke-linejoin="round"/>
<path fill-rule="evenodd" clip-rule="evenodd" d="M23.1776 30.4394C24.9325 30.4394 26.3551 29.0167 26.3551 27.2618C26.3551 25.5069 24.9325 24.0842 23.1776 24.0842C21.4226 24.0842 20 25.5069 20 27.2618C20 29.0167 21.4226 30.4394 23.1776 30.4394Z" stroke="#EDBF0E" stroke-width="2"/>
<rect width="6.35514" height="6.35514" transform="matrix(0.707106 -0.707107 0.707106 0.707107 37.7947 41.2883)" stroke="#EDBF0E" stroke-width="2" stroke-linecap="round" stroke-linejoin="round"/>
<path d="M55.8537 19.2648L61.892 25.3031" stroke="#EDBF0E" stroke-width="2" stroke-linecap="round"/>
<path d="M61.6781 19.2648L55.6398 25.3031" stroke="#EDBF0E" stroke-width="2" stroke-linecap="round"/>
</svg>
