<svg width="125" height="125" viewBox="0 0 125 125" fill="none" xmlns="http://www.w3.org/2000/svg">
<g clip-path="url(#clip0_931_116103)">
<path fill-rule="evenodd" clip-rule="evenodd" d="M62.5 125C97.0178 125 125 97.0178 125 62.5C125 27.9822 97.0178 0 62.5 0C27.9822 0 0 27.9822 0 62.5C0 97.0178 27.9822 125 62.5 125Z" fill="#EBF5FB"/>
<rect x="100.722" y="98.0566" width="4.16667" height="4.16667" stroke="#C2E0F4" stroke-width="2" stroke-linecap="round" stroke-linejoin="round"/>
<rect x="31.6992" y="20.0898" width="4.16667" height="4.16667" transform="rotate(-45 31.6992 20.0898)" stroke="#C2E0F4" stroke-width="2" stroke-linecap="round" stroke-linejoin="round"/>
<rect x="13.8628" y="42.8633" width="4.16667" height="4.16667" stroke="#C2E0F4" stroke-width="2" stroke-linecap="round" stroke-linejoin="round"/>
<path d="M89.0901 46.7303L93.0491 50.6892" stroke="#C2E0F4" stroke-width="2" stroke-linecap="round"/>
<path d="M92.9094 46.7303L88.9505 50.6892" stroke="#C2E0F4" stroke-width="2" stroke-linecap="round"/>
</g>
<path d="M17.7004 55.2725L16.3336 59.3068C16.2803 59.4671 16.2668 59.6381 16.2942 59.8049C16.3216 59.9717 16.3892 60.1293 16.4911 60.2641L19.0373 63.678C19.1538 63.8337 19.2244 64.0188 19.241 64.2125C19.2577 64.4061 19.2198 64.6006 19.1316 64.7738C19.0434 64.9471 18.9085 65.0921 18.7421 65.1926C18.5757 65.2931 18.3845 65.345 18.1902 65.3425L13.9386 65.2873C13.7698 65.2853 13.603 65.3244 13.4527 65.4012C13.3023 65.4781 13.1729 65.5903 13.0756 65.7282L10.616 69.2051C10.5036 69.3636 10.3491 69.4875 10.17 69.5629C9.99087 69.6383 9.79426 69.6621 9.60233 69.6316C9.41041 69.6011 9.23082 69.5176 9.08383 69.3905C8.93685 69.2634 8.82832 69.0977 8.7705 68.9122L7.51077 64.8449C7.46056 64.6838 7.37199 64.5373 7.25268 64.418C7.13337 64.2987 6.98688 64.2101 6.82579 64.1599L2.75842 62.9001C2.57297 62.8424 2.40736 62.734 2.28033 62.587C2.1533 62.4401 2.06992 62.2606 2.03961 62.0687C2.0093 61.8769 2.03327 61.6804 2.10882 61.5014C2.18437 61.3225 2.30848 61.1683 2.46711 61.0562L5.94398 58.5966C6.08187 58.4988 6.19401 58.3691 6.2708 58.2186C6.34759 58.068 6.38673 57.9011 6.38488 57.7321L6.32977 53.4805C6.32748 53.2862 6.37953 53.0952 6.48003 52.9289C6.58054 52.7627 6.7255 52.6278 6.89857 52.5396C7.07164 52.4513 7.26593 52.4132 7.45952 52.4295C7.65311 52.4457 7.8383 52.5158 7.99419 52.6317L11.4081 55.1795C11.5429 55.2814 11.7005 55.349 11.8673 55.3765C12.0341 55.4039 12.2051 55.3904 12.3655 55.337L16.3982 53.9702C16.5792 53.9141 16.7721 53.9085 16.9561 53.954C17.1401 53.9995 17.3082 54.0944 17.4422 54.2284C17.5762 54.3625 17.6711 54.5305 17.7166 54.7145C17.7621 54.8985 17.7565 55.0914 17.7004 55.2725Z" fill="#F0C936"/>
<path d="M5.55022 62.6641L9.02709 60.206C9.16498 60.1083 9.27712 59.9786 9.35391 59.828C9.4307 59.6774 9.46985 59.5105 9.46799 59.3415L9.41288 55.0773C9.40946 54.88 9.46306 54.6859 9.56724 54.5183C9.67143 54.3507 9.82178 54.2168 10.0002 54.1325L7.96734 52.6161C7.81145 52.5002 7.62626 52.4301 7.43267 52.4138C7.23908 52.3975 7.04479 52.4357 6.87172 52.5239C6.69865 52.6122 6.55368 52.747 6.45318 52.9133C6.35267 53.0796 6.30063 53.2706 6.30291 53.4649L6.35645 57.7165C6.35888 57.8854 6.32016 58.0524 6.24361 58.203C6.16707 58.3536 6.05501 58.4833 5.91712 58.5809L2.44026 61.0406C2.28162 61.1526 2.15752 61.3069 2.08197 61.4858C2.00642 61.6647 1.98244 61.8612 2.01275 62.0531C2.04306 62.2449 2.12645 62.4245 2.25348 62.5714C2.38051 62.7183 2.54611 62.8268 2.73157 62.8845L5.12664 63.6293C5.10322 63.4452 5.13025 63.2581 5.20485 63.0881C5.27945 62.9181 5.39883 62.7715 5.55022 62.6641Z" fill="#FAE8A7"/>
<path d="M17.7004 55.2725L16.3336 59.3068C16.2803 59.4671 16.2668 59.6381 16.2942 59.8049C16.3216 59.9717 16.3892 60.1293 16.4911 60.2641L19.0373 63.678C19.1538 63.8337 19.2244 64.0188 19.241 64.2125C19.2577 64.4061 19.2198 64.6006 19.1316 64.7738C19.0434 64.9471 18.9085 65.0921 18.7421 65.1926C18.5757 65.2931 18.3845 65.345 18.1902 65.3424L13.9386 65.2873C13.7698 65.2853 13.603 65.3244 13.4527 65.4012C13.3023 65.4781 13.1729 65.5903 13.0756 65.7282L10.616 69.2051C10.5036 69.3636 10.3491 69.4875 10.17 69.5629C9.99087 69.6383 9.79426 69.6621 9.60233 69.6316C9.41041 69.6011 9.23082 69.5176 9.08383 69.3905C8.93685 69.2634 8.82832 69.0977 8.7705 68.9122L7.51077 64.8449C7.46056 64.6838 7.37199 64.5373 7.25268 64.418C7.13337 64.2987 6.98688 64.2101 6.82579 64.1599L2.75842 62.9001C2.57297 62.8424 2.40736 62.734 2.28033 62.587C2.1533 62.4401 2.06992 62.2606 2.03961 62.0687C2.0093 61.8769 2.03327 61.6804 2.10882 61.5014C2.18437 61.3225 2.30848 61.1683 2.46711 61.0562L5.94398 58.5966C6.08187 58.4988 6.19401 58.3691 6.2708 58.2186C6.34759 58.068 6.38673 57.9011 6.38488 57.7321L6.32977 53.4805C6.32748 53.2862 6.37953 53.0952 6.48003 52.9289C6.58054 52.7627 6.7255 52.6278 6.89857 52.5396C7.07164 52.4513 7.26593 52.4132 7.45952 52.4295C7.65311 52.4457 7.8383 52.5158 7.99419 52.6317L11.4081 55.1795C11.5429 55.2814 11.7005 55.349 11.8673 55.3765C12.0341 55.4039 12.2051 55.3904 12.3655 55.337L16.3982 53.9702C16.5792 53.9141 16.7721 53.9085 16.9561 53.954C17.1401 53.9995 17.3082 54.0944 17.4422 54.2284C17.5762 54.3625 17.6711 54.5305 17.7166 54.7145C17.7621 54.8985 17.7565 55.0914 17.7004 55.2725V55.2725Z" stroke="#004590" stroke-width="2" stroke-linecap="round" stroke-linejoin="round"/>
<path d="M43.4476 19.8522L42.0792 23.8865C42.0255 24.0468 42.0117 24.2178 42.0392 24.3847C42.0666 24.5516 42.1344 24.7092 42.2367 24.8439L44.7845 28.2562C44.901 28.4118 44.9715 28.5969 44.9882 28.7906C45.0049 28.9843 44.967 29.1787 44.8788 29.352C44.7906 29.5252 44.6557 29.6703 44.4893 29.7708C44.3229 29.8713 44.1317 29.9232 43.9373 29.9206L39.6857 29.8671C39.5171 29.8649 39.3504 29.9037 39.2001 29.9803C39.0497 30.0568 38.9203 30.1687 38.8228 30.3064L36.3632 33.7848C36.2508 33.9433 36.0963 34.0673 35.9172 34.1426C35.738 34.218 35.5414 34.2418 35.3495 34.2113C35.1576 34.1809 34.978 34.0974 34.831 33.9702C34.684 33.8431 34.5755 33.6775 34.5177 33.4919L33.2579 29.4246C33.208 29.2634 33.1195 29.1167 33.0001 28.9974C32.8808 28.878 32.7342 28.7896 32.573 28.7396L28.5056 27.4799C28.3202 27.4219 28.1547 27.3132 28.0277 27.1661C27.9008 27.019 27.8175 26.8394 27.7872 26.6475C27.7569 26.4556 27.7808 26.2591 27.8563 26.08C27.9318 25.901 28.0557 25.7466 28.2143 25.6343L31.6911 23.1763C31.829 23.0787 31.9411 22.949 32.0176 22.7983C32.0942 22.6477 32.1329 22.4807 32.1305 22.3118L32.0769 18.0602C32.0741 17.8657 32.1257 17.6743 32.2261 17.5077C32.3265 17.341 32.4715 17.2059 32.6448 17.1175C32.8181 17.0291 33.0127 16.9911 33.2065 17.0077C33.4003 17.0243 33.5856 17.0949 33.7414 17.2115L37.1552 19.7593C37.29 19.8613 37.4477 19.9289 37.6145 19.9564C37.7813 19.9838 37.9523 19.9702 38.1126 19.9167L42.1454 18.5483C42.3265 18.4927 42.5194 18.4875 42.7033 18.5332C42.8872 18.579 43.0552 18.6741 43.1891 18.8081C43.323 18.9422 43.4178 19.1103 43.4634 19.2942C43.5089 19.4782 43.5035 19.6711 43.4476 19.8522Z" fill="#F0C936"/>
<path d="M31.3057 27.2429L34.7826 24.7833C34.9204 24.6859 35.0326 24.5565 35.1094 24.4062C35.1862 24.2558 35.2253 24.0891 35.2235 23.9204L35.1683 19.6688C35.1649 19.4714 35.2185 19.2773 35.3227 19.1097C35.4269 18.9422 35.5772 18.8082 35.7557 18.724L33.7228 17.2076C33.5671 17.091 33.3818 17.0204 33.188 17.0038C32.9942 16.9872 32.7996 17.0252 32.6263 17.1136C32.453 17.202 32.3079 17.3371 32.2076 17.5038C32.1072 17.6704 32.0555 17.8618 32.0584 18.0563L32.1119 22.3079C32.1144 22.4768 32.0756 22.6438 31.9991 22.7944C31.9225 22.945 31.8105 23.0748 31.6726 23.1724L28.1957 25.6304C28.0372 25.7427 27.9132 25.8971 27.8377 26.0761C27.7623 26.2552 27.7383 26.4517 27.7686 26.6436C27.7989 26.8355 27.8822 27.0151 28.0092 27.1622C28.1361 27.3093 28.3016 27.4179 28.487 27.476L30.8821 28.2208C30.8563 28.0346 30.8821 27.8449 30.9568 27.6725C31.0315 27.5 31.1522 27.3514 31.3057 27.2429Z" fill="#FAE8A7"/>
<path d="M43.4476 19.8522L42.0792 23.8865C42.0255 24.0468 42.0117 24.2178 42.0392 24.3847C42.0666 24.5516 42.1344 24.7092 42.2367 24.8439L44.7845 28.2562C44.901 28.4118 44.9715 28.5969 44.9882 28.7906C45.0049 28.9843 44.967 29.1787 44.8788 29.352C44.7906 29.5252 44.6557 29.6703 44.4893 29.7708C44.3229 29.8713 44.1317 29.9232 43.9373 29.9206L39.6857 29.8671C39.5171 29.8649 39.3504 29.9037 39.2001 29.9803C39.0497 30.0568 38.9203 30.1687 38.8228 30.3064L36.3632 33.7848C36.2508 33.9433 36.0963 34.0673 35.9172 34.1426C35.738 34.218 35.5414 34.2418 35.3495 34.2113C35.1576 34.1809 34.978 34.0974 34.831 33.9702C34.684 33.8431 34.5755 33.6775 34.5177 33.4919L33.2579 29.4246C33.208 29.2634 33.1195 29.1167 33.0001 28.9974C32.8808 28.878 32.7342 28.7896 32.573 28.7396L28.5056 27.4799C28.3202 27.4219 28.1547 27.3132 28.0277 27.1661C27.9008 27.019 27.8175 26.8394 27.7872 26.6475C27.7569 26.4556 27.7808 26.2591 27.8563 26.08C27.9318 25.901 28.0557 25.7466 28.2143 25.6343L31.6911 23.1763C31.829 23.0787 31.9411 22.949 32.0176 22.7983C32.0942 22.6477 32.1329 22.4807 32.1305 22.3118L32.0769 18.0602C32.0741 17.8657 32.1257 17.6743 32.2261 17.5077C32.3265 17.341 32.4715 17.2059 32.6448 17.1175C32.8181 17.0291 33.0127 16.9911 33.2065 17.0077C33.4003 17.0243 33.5856 17.0949 33.7414 17.2115L37.1552 19.7593C37.29 19.8613 37.4477 19.9289 37.6145 19.9564C37.7813 19.9838 37.9523 19.9702 38.1126 19.9167L42.1454 18.5483C42.3265 18.4927 42.5194 18.4875 42.7033 18.5332C42.8872 18.579 43.0552 18.6741 43.1891 18.8081C43.323 18.9422 43.4178 19.1103 43.4634 19.2942C43.5089 19.4782 43.5035 19.6711 43.4476 19.8522V19.8522Z" stroke="#004590" stroke-width="2" stroke-linecap="round" stroke-linejoin="round"/>
<path d="M96.8578 19.8564L95.4894 23.8985C95.4361 24.0589 95.4225 24.2299 95.4499 24.3967C95.4774 24.5635 95.545 24.7211 95.6469 24.8559L98.1931 28.2698C98.3096 28.4254 98.3801 28.6106 98.3968 28.8043C98.4135 28.9979 98.3756 29.1924 98.2874 29.3656C98.1992 29.5389 98.0643 29.6839 97.8979 29.7844C97.7315 29.8849 97.5403 29.9368 97.3459 29.9342L93.0943 29.8791C92.9255 29.8771 92.7588 29.9162 92.6084 29.993C92.4581 30.0698 92.3287 30.1821 92.2314 30.32L89.7718 33.7969C89.6594 33.9554 89.5049 34.0793 89.3258 34.1547C89.1466 34.2301 88.95 34.2539 88.7581 34.2234C88.5662 34.1929 88.3866 34.1094 88.2396 33.9823C88.0926 33.8552 87.9841 33.6895 87.9263 33.504L86.6665 29.4366C86.6163 29.2756 86.5277 29.1291 86.4084 29.0098C86.2891 28.8904 86.1426 28.8019 85.9816 28.7517L81.9142 27.4919C81.7287 27.4342 81.5631 27.3258 81.4361 27.1788C81.3091 27.0319 81.2257 26.8524 81.1954 26.6605C81.1651 26.4687 81.189 26.2722 81.2646 26.0932C81.3401 25.9143 81.4642 25.7601 81.6229 25.648L85.0997 23.1884C85.2376 23.0906 85.3498 22.9609 85.4266 22.8104C85.5034 22.6598 85.5425 22.4929 85.5406 22.3239L85.4855 18.0723C85.4832 17.878 85.5353 17.687 85.6358 17.5207C85.7363 17.3545 85.8813 17.2196 86.0543 17.1314C86.2274 17.0431 86.4217 17.005 86.6153 17.0212C86.8089 17.0375 86.9941 17.1076 87.15 17.2235L90.5638 19.7713C90.6987 19.8732 90.8563 19.9408 91.0231 19.9683C91.1899 19.9957 91.3608 19.9822 91.5212 19.9288L95.5366 18.5447C95.7198 18.483 95.9165 18.4734 96.1047 18.5172C96.2929 18.5609 96.4653 18.6562 96.6024 18.7924C96.7396 18.9285 96.8361 19.1002 96.8812 19.2881C96.9263 19.476 96.9182 19.6728 96.8578 19.8564Z" fill="#F0C936"/>
<path d="M84.7148 27.2472L88.1916 24.7891C88.3295 24.6914 88.4417 24.5617 88.5185 24.4111C88.5952 24.2606 88.6344 24.0936 88.6325 23.9246L88.5774 19.673C88.574 19.4757 88.6276 19.2816 88.7318 19.114C88.836 18.9464 88.9863 18.8125 89.1648 18.7282L87.1319 17.2118C86.976 17.0959 86.7908 17.0258 86.5972 17.0095C86.4036 16.9932 86.2093 17.0314 86.0363 17.1196C85.8632 17.2079 85.7182 17.3428 85.6177 17.509C85.5172 17.6753 85.4652 17.8663 85.4675 18.0606L85.521 22.3122C85.5234 22.4811 85.4847 22.6481 85.4082 22.7987C85.3316 22.9493 85.2196 23.079 85.0817 23.1767L81.6048 25.63C81.4462 25.7421 81.3221 25.8963 81.2465 26.0752C81.171 26.2541 81.147 26.4507 81.1773 26.6425C81.2076 26.8344 81.291 27.0139 81.418 27.1608C81.5451 27.3077 81.7107 27.4162 81.8961 27.4739L84.2912 28.2187C84.2666 28.0336 84.293 27.8452 84.3677 27.674C84.4423 27.5027 84.5623 27.3551 84.7148 27.2472Z" fill="#FAE8A7"/>
<path d="M96.8578 19.8564L95.4894 23.8985C95.4361 24.0589 95.4225 24.2299 95.4499 24.3967C95.4774 24.5635 95.545 24.7211 95.6469 24.8559L98.1931 28.2698C98.3096 28.4254 98.3801 28.6106 98.3968 28.8043C98.4135 28.9979 98.3756 29.1924 98.2874 29.3656C98.1992 29.5389 98.0643 29.6839 97.8979 29.7844C97.7315 29.8849 97.5403 29.9368 97.3459 29.9342L93.0943 29.8791C92.9255 29.8771 92.7588 29.9162 92.6084 29.993C92.4581 30.0698 92.3287 30.1821 92.2314 30.32L89.7718 33.7969C89.6594 33.9554 89.5049 34.0793 89.3258 34.1547C89.1466 34.2301 88.95 34.2539 88.7581 34.2234C88.5662 34.1929 88.3866 34.1094 88.2396 33.9823C88.0926 33.8552 87.9841 33.6895 87.9263 33.504L86.6665 29.4366C86.6163 29.2756 86.5277 29.1291 86.4084 29.0098C86.2891 28.8904 86.1426 28.8019 85.9816 28.7517L81.9142 27.4919C81.7287 27.4342 81.5631 27.3258 81.4361 27.1788C81.3091 27.0319 81.2257 26.8524 81.1954 26.6605C81.1651 26.4687 81.189 26.2722 81.2646 26.0932C81.3401 25.9143 81.4642 25.7601 81.6229 25.648L85.0997 23.1884C85.2376 23.0906 85.3498 22.9609 85.4266 22.8104C85.5034 22.6598 85.5425 22.4929 85.5406 22.3239L85.4855 18.0723C85.4832 17.878 85.5353 17.687 85.6358 17.5207C85.7363 17.3545 85.8813 17.2196 86.0543 17.1314C86.2274 17.0431 86.4217 17.005 86.6153 17.0212C86.8089 17.0375 86.9941 17.1076 87.15 17.2235L90.5638 19.7713C90.6987 19.8732 90.8563 19.9408 91.0231 19.9683C91.1899 19.9957 91.3608 19.9822 91.5212 19.9288L95.5366 18.5447C95.7198 18.483 95.9165 18.4734 96.1047 18.5172C96.2929 18.5609 96.4653 18.6562 96.6024 18.7924C96.7396 18.9285 96.8361 19.1002 96.8812 19.2881C96.9263 19.476 96.9182 19.6728 96.8578 19.8564V19.8564Z" stroke="#004590" stroke-width="2" stroke-linecap="round" stroke-linejoin="round"/>
<path d="M120.816 55.2671L119.447 59.3013C119.394 59.4617 119.38 59.6327 119.408 59.7995C119.435 59.9663 119.503 60.1239 119.605 60.2587L122.153 63.6711C122.269 63.8268 122.34 64.0121 122.356 64.2059C122.373 64.3997 122.335 64.5943 122.246 64.7676C122.158 64.9409 122.023 65.0859 121.856 65.1863C121.69 65.2867 121.498 65.3384 121.304 65.3355L117.052 65.2819C116.883 65.2798 116.716 65.3186 116.566 65.3951C116.415 65.4717 116.286 65.5836 116.188 65.7213L113.73 69.1997C113.617 69.3582 113.463 69.4821 113.284 69.5575C113.105 69.6329 112.908 69.6567 112.716 69.6262C112.524 69.5957 112.344 69.5122 112.197 69.3851C112.05 69.258 111.942 69.0923 111.884 68.9068L110.606 64.8395C110.555 64.6784 110.467 64.5319 110.347 64.4126C110.228 64.2933 110.082 64.2047 109.921 64.1545L105.853 62.8947C105.667 62.8368 105.501 62.7277 105.373 62.58C105.246 62.4322 105.163 62.2517 105.133 62.059C105.103 61.8663 105.128 61.669 105.205 61.4897C105.281 61.3103 105.407 61.1561 105.567 61.0445L109.045 58.5865C109.183 58.4886 109.295 58.3589 109.371 58.2083C109.448 58.0577 109.487 57.8908 109.484 57.722L109.431 53.4704C109.428 53.2759 109.48 53.0844 109.58 52.9178C109.68 52.7512 109.825 52.616 109.999 52.5277C110.172 52.4393 110.367 52.4013 110.56 52.4179C110.754 52.4345 110.939 52.5051 111.095 52.6216L114.508 55.1694C114.642 55.2713 114.8 55.3389 114.967 55.3663C115.134 55.3938 115.305 55.3802 115.465 55.3269L119.499 53.9585C119.682 53.8989 119.877 53.8909 120.064 53.9353C120.251 53.9797 120.422 54.0748 120.558 54.2101C120.694 54.3455 120.79 54.5158 120.835 54.7023C120.881 54.8888 120.874 55.0842 120.816 55.2671Z" fill="#F0C936"/>
<path d="M108.674 62.6597L112.151 60.2001C112.288 60.1028 112.4 59.9734 112.477 59.823C112.554 59.6727 112.592 59.5059 112.59 59.3372L112.536 55.0777C112.532 54.8805 112.586 54.6864 112.689 54.5187C112.793 54.3511 112.944 54.2171 113.122 54.1329L111.089 52.6165C110.933 52.5004 110.748 52.4302 110.555 52.4139C110.361 52.3975 110.167 52.4356 109.994 52.5239C109.821 52.6122 109.676 52.7472 109.576 52.9136C109.475 53.0799 109.424 53.271 109.426 53.4653L109.48 57.7169C109.482 57.8857 109.443 58.0526 109.367 58.2032C109.29 58.3538 109.178 58.4835 109.041 58.5814L105.567 61.0457C105.408 61.1578 105.283 61.3122 105.208 61.4914C105.132 61.6707 105.108 61.8675 105.138 62.0597C105.169 62.2519 105.253 62.4316 105.38 62.5786C105.508 62.7256 105.674 62.8339 105.86 62.8912L108.255 63.636C108.228 63.4505 108.253 63.2612 108.327 63.089C108.401 62.9167 108.521 62.7682 108.674 62.6597Z" fill="#FAE8A7"/>
<path d="M120.816 55.2671L119.447 59.3013C119.394 59.4617 119.38 59.6327 119.408 59.7995C119.435 59.9663 119.503 60.1239 119.605 60.2587L122.153 63.6711C122.269 63.8268 122.34 64.0121 122.356 64.2059C122.373 64.3997 122.335 64.5943 122.246 64.7676C122.158 64.9409 122.023 65.0859 121.856 65.1863C121.69 65.2867 121.498 65.3384 121.304 65.3355L117.052 65.2819C116.883 65.2798 116.716 65.3186 116.566 65.3951C116.415 65.4717 116.286 65.5836 116.188 65.7213L113.73 69.1997C113.617 69.3582 113.463 69.4821 113.284 69.5575C113.105 69.6329 112.908 69.6567 112.716 69.6262C112.524 69.5957 112.344 69.5122 112.197 69.3851C112.05 69.258 111.942 69.0923 111.884 68.9068L110.606 64.8395C110.555 64.6784 110.467 64.5319 110.347 64.4126C110.228 64.2933 110.082 64.2047 109.921 64.1545L105.853 62.8947C105.667 62.8368 105.501 62.7277 105.373 62.58C105.246 62.4322 105.163 62.2517 105.133 62.059C105.103 61.8663 105.128 61.669 105.205 61.4897C105.281 61.3103 105.407 61.1561 105.567 61.0445L109.045 58.5865C109.183 58.4886 109.295 58.3589 109.371 58.2083C109.448 58.0577 109.487 57.8908 109.484 57.722L109.431 53.4704C109.428 53.2759 109.48 53.0844 109.58 52.9178C109.68 52.7512 109.825 52.616 109.999 52.5277C110.172 52.4393 110.367 52.4013 110.56 52.4179C110.754 52.4345 110.939 52.5051 111.095 52.6216L114.508 55.1694C114.642 55.2713 114.8 55.3389 114.967 55.3663C115.134 55.3938 115.305 55.3802 115.465 55.3269L119.499 53.9585C119.682 53.8989 119.877 53.8909 120.064 53.9353C120.251 53.9797 120.422 54.0748 120.558 54.2101C120.694 54.3455 120.79 54.5158 120.835 54.7023C120.881 54.8888 120.874 55.0842 120.816 55.2671V55.2671Z" stroke="#004590" stroke-width="2" stroke-linecap="round" stroke-linejoin="round"/>
<path d="M70.6498 38.3859C71.0698 37.8632 71.642 37.4843 72.2872 37.3017C72.9323 37.1191 73.6183 37.1419 74.2498 37.367C74.8814 37.5921 75.4272 38.0082 75.8115 38.5576C76.1958 39.107 76.3994 39.7625 76.3942 40.4329L76.1879 60.4501C76.1793 61.1218 76.3805 61.7795 76.7636 62.3313C77.1466 62.8832 77.6924 63.3017 78.3247 63.5286L95.7295 69.7564C96.3573 69.9815 96.9 70.3955 97.2829 70.9416C97.6658 71.4876 97.8702 72.1389 97.868 72.8059C97.8658 73.4728 97.657 74.1227 97.2704 74.6661C96.8838 75.2096 96.3384 75.62 95.7091 75.8409L77.0272 82.3868C76.4247 82.5976 75.8982 82.9825 75.5145 83.4926C75.1308 84.0028 74.907 84.6153 74.8715 85.2527L73.7692 104.961C73.7289 105.649 73.4698 106.305 73.0298 106.835C72.5898 107.365 71.9918 107.74 71.3234 107.906C70.655 108.071 69.9511 108.019 69.3145 107.756C68.678 107.493 68.1422 107.034 67.7855 106.445L57.7076 89.6838C57.3239 89.0451 56.7308 88.559 56.0292 88.3081C55.3277 88.0573 54.5609 88.057 53.8591 88.3075L35.4355 94.8692C34.7854 95.1003 34.0783 95.1171 33.4179 94.917C32.7575 94.7169 32.1786 94.3104 31.7662 93.7572C31.3537 93.204 31.1293 92.5332 31.126 91.8432C31.1227 91.1532 31.3405 90.4803 31.7477 89.9231L43.4002 73.9922C43.7782 73.4775 43.9949 72.8622 44.0229 72.2242C44.051 71.5862 43.889 70.9542 43.5577 70.4083L33.2593 53.5027C32.91 52.9325 32.7463 52.268 32.7909 51.6008C32.8355 50.9337 33.0861 50.2968 33.5083 49.7782C33.9304 49.2597 34.5031 48.885 35.1473 48.7059C35.7916 48.5269 36.4755 48.5523 37.1047 48.7787L54.5095 55.0049C55.1412 55.2313 55.8278 55.2549 56.4736 55.0726C57.1194 54.8902 57.6923 54.511 58.1123 53.9877L70.6498 38.3859Z" fill="#F0C936"/>
<path d="M76.3337 46.3564L76.3951 40.4388C76.4004 39.7683 76.1967 39.1129 75.8124 38.5635C75.4282 38.0141 74.8824 37.5979 74.2508 37.3729C73.6192 37.1478 72.9332 37.125 72.2881 37.3075C71.643 37.4901 71.0707 37.8691 70.6508 38.3917L58.1133 53.9967C57.6932 54.52 57.1204 54.8993 56.4746 55.0816C55.8288 55.2639 55.1422 55.2403 54.5104 55.0139L37.1056 48.7782C36.4765 48.5518 35.7925 48.5264 35.1483 48.7055C34.5041 48.8845 33.9313 49.2592 33.5092 49.7778C33.0871 50.2964 32.8364 50.9332 32.7919 51.6004C32.7473 52.2675 32.911 52.9321 33.2603 53.5022L36.3167 58.5254C36.7538 58.1551 37.2757 57.8986 37.8359 57.7788C38.3961 57.6591 38.9772 57.6797 39.5275 57.8389L56.9323 64.0667C57.5643 64.2927 58.251 64.3162 58.897 64.1339C59.543 63.9515 60.1161 63.5725 60.5367 63.0494L73.0742 47.4429C73.4761 46.994 73.9881 46.6576 74.5598 46.4671C75.1314 46.2765 75.7429 46.2384 76.3337 46.3564Z" fill="#FAE8A7"/>
<path d="M70.6498 38.3859C71.0698 37.8632 71.642 37.4843 72.2872 37.3017C72.9323 37.1191 73.6183 37.1419 74.2498 37.367C74.8814 37.5921 75.4272 38.0082 75.8115 38.5576C76.1958 39.107 76.3994 39.7625 76.3942 40.4329L76.1879 60.4501C76.1793 61.1218 76.3805 61.7795 76.7636 62.3313C77.1466 62.8832 77.6924 63.3017 78.3247 63.5286L95.7295 69.7564C96.3573 69.9815 96.9 70.3955 97.2829 70.9416C97.6658 71.4877 97.8702 72.1389 97.868 72.8059C97.8658 73.4728 97.657 74.1227 97.2704 74.6661C96.8838 75.2096 96.3384 75.62 95.7091 75.8409L77.0272 82.3868C76.4247 82.5976 75.8982 82.9825 75.5145 83.4926C75.1308 84.0028 74.907 84.6153 74.8715 85.2527L73.7692 104.961C73.7289 105.649 73.4698 106.305 73.0298 106.835C72.5898 107.365 71.9918 107.74 71.3234 107.906C70.655 108.071 69.9511 108.019 69.3145 107.756C68.678 107.493 68.1422 107.034 67.7855 106.445L57.7076 89.6838C57.3239 89.0451 56.7308 88.559 56.0292 88.3081C55.3277 88.0573 54.5609 88.057 53.8591 88.3075L35.4355 94.8692C34.7854 95.1003 34.0783 95.1171 33.4179 94.917C32.7575 94.7169 32.1786 94.3104 31.7662 93.7572C31.3537 93.204 31.1293 92.5332 31.126 91.8432C31.1227 91.1532 31.3405 90.4803 31.7477 89.9231L43.4002 73.9922C43.7782 73.4775 43.9949 72.8622 44.0229 72.2242C44.051 71.5862 43.889 70.9542 43.5577 70.4083L33.2593 53.5027C32.91 52.9325 32.7463 52.268 32.7909 51.6008C32.8355 50.9337 33.0861 50.2968 33.5083 49.7782C33.9304 49.2597 34.5031 48.885 35.1473 48.7059C35.7916 48.5269 36.4755 48.5523 37.1047 48.7787L54.5095 55.0049C55.1412 55.2313 55.8278 55.2549 56.4736 55.0726C57.1194 54.8902 57.6923 54.511 58.1123 53.9877L70.6498 38.3859Z" stroke="#004590" stroke-width="2" stroke-linecap="round" stroke-linejoin="round" stroke-dasharray="30 7 1 5"/>
<defs>
<clipPath id="clip0_931_116103">
<rect width="125" height="125" fill="white"/>
</clipPath>
</defs>
</svg>
