<svg width="49" height="48" viewBox="0 0 49 48" fill="none" xmlns="http://www.w3.org/2000/svg">
<circle cx="24.5" cy="24" r="24" fill="#E4E5F6"/>
<g clip-path="url(#clip0_5_4140)">
<path d="M36.5 32.5C36.5 32.3674 36.4473 32.2402 36.3536 32.1464C36.2598 32.0527 36.1326 32 36 32H34.25C34.1837 32 34.1201 31.9737 34.0732 31.9268C34.0263 31.8799 34 31.8163 34 31.75V27.5C34 27.2348 33.8946 26.9804 33.7071 26.7929C33.5196 26.6054 33.2652 26.5 33 26.5C32.7348 26.5 32.4804 26.6054 32.2929 26.7929C32.1054 26.9804 32 27.2348 32 27.5V31.75C32 31.8163 31.9737 31.8799 31.9268 31.9268C31.8799 31.9737 31.8163 32 31.75 32H17.25C17.1837 32 17.1201 31.9737 17.0732 31.9268C17.0263 31.8799 17 31.8163 17 31.75V21.17C17 20.9923 17.0706 20.8219 17.1962 20.6962C17.3219 20.5706 17.4923 20.5 17.67 20.5H20C20.2652 20.5 20.5196 20.3946 20.7071 20.2071C20.8946 20.0196 21 19.7652 21 19.5C21 19.2348 20.8946 18.9804 20.7071 18.7929C20.5196 18.6054 20.2652 18.5 20 18.5H17.67C16.9627 18.5026 16.2851 18.7848 15.7849 19.2849C15.2848 19.7851 15.0026 20.4627 15 21.17V31.75C15 31.8163 14.9737 31.8799 14.9268 31.9268C14.8799 31.9737 14.8163 32 14.75 32H13C12.8674 32 12.7402 32.0527 12.6464 32.1464C12.5527 32.2402 12.5 32.3674 12.5 32.5C12.5 33.4283 12.8687 34.3185 13.5251 34.9749C14.1815 35.6313 15.0717 36 16 36H33C33.9283 36 34.8185 35.6313 35.4749 34.9749C36.1313 34.3185 36.5 33.4283 36.5 32.5Z" fill="#474A86"/>
<path d="M23 26C23.0728 25.9988 23.1445 25.9818 23.21 25.95L26.6 24.34C26.636 24.3231 26.6752 24.3143 26.715 24.3143C26.7548 24.3143 26.794 24.3231 26.83 24.34C27.7105 24.8194 28.6891 25.091 29.6908 25.1339C30.6924 25.1767 31.6906 24.9898 32.6089 24.5874C33.5272 24.1849 34.3411 23.5777 34.9885 22.8121C35.6359 22.0466 36.0995 21.143 36.3437 20.1706C36.588 19.1983 36.6065 18.1829 36.3978 17.2023C36.1891 16.2216 35.7587 15.3018 35.1397 14.5131C34.5206 13.7245 33.7293 13.088 32.8263 12.6524C31.9233 12.2168 30.9326 11.9936 29.93 12C29.0741 12.0012 28.227 12.1729 27.4382 12.5053C26.6494 12.8376 25.9348 13.3238 25.3361 13.9355C24.7375 14.5472 24.2667 15.2722 23.9515 16.0679C23.6362 16.8637 23.4827 17.7143 23.5 18.57C23.4677 19.6414 23.6941 20.7047 24.16 21.67C24.1769 21.706 24.1857 21.7453 24.1857 21.785C24.1857 21.8248 24.1769 21.864 24.16 21.9L22.55 25.29C22.5063 25.3822 22.4925 25.4856 22.5104 25.586C22.5283 25.6864 22.5771 25.7787 22.65 25.85C22.6946 25.898 22.7488 25.9362 22.8091 25.962C22.8694 25.9879 22.9344 26.0008 23 26ZM32.25 17.25C32.25 17.8467 32.0129 18.419 31.591 18.841C31.169 19.263 30.5967 19.5 30 19.5C29.8011 19.5 29.6103 19.421 29.4697 19.2803C29.329 19.1397 29.25 18.9489 29.25 18.75C29.25 18.5511 29.329 18.3603 29.4697 18.2197C29.6103 18.079 29.8011 18 30 18C30.1483 18 30.2933 17.956 30.4167 17.8736C30.54 17.7912 30.6361 17.6741 30.6929 17.537C30.7497 17.4 30.7645 17.2492 30.7356 17.1037C30.7066 16.9582 30.6352 16.8246 30.5303 16.7197C30.4254 16.6148 30.2918 16.5434 30.1463 16.5144C30.0008 16.4855 29.85 16.5003 29.713 16.5571C29.5759 16.6139 29.4588 16.71 29.3764 16.8333C29.294 16.9567 29.25 17.1017 29.25 17.25C29.25 17.4489 29.171 17.6397 29.0303 17.7803C28.8897 17.921 28.6989 18 28.5 18C28.3011 18 28.1103 17.921 27.9697 17.7803C27.829 17.6397 27.75 17.4489 27.75 17.25C27.75 16.6533 27.987 16.081 28.409 15.659C28.831 15.2371 29.4033 15 30 15C30.5967 15 31.169 15.2371 31.591 15.659C32.0129 16.081 32.25 16.6533 32.25 17.25ZM30 22C29.8517 22 29.7067 21.956 29.5833 21.8736C29.46 21.7912 29.3638 21.6741 29.3071 21.537C29.2503 21.4 29.2355 21.2492 29.2644 21.1037C29.2933 20.9582 29.3648 20.8246 29.4697 20.7197C29.5746 20.6148 29.7082 20.5434 29.8537 20.5144C29.9992 20.4855 30.15 20.5003 30.287 20.5571C30.424 20.6139 30.5412 20.71 30.6236 20.8333C30.706 20.9567 30.75 21.1017 30.75 21.25C30.7474 21.4481 30.6676 21.6374 30.5275 21.7775C30.3874 21.9176 30.1981 21.9974 30 22Z" fill="#D32D27"/>
</g>
<defs>
<clipPath id="clip0_5_4140">
<rect width="24" height="24" fill="white" transform="translate(12.5 12)"/>
</clipPath>
</defs>
</svg>
