<svg width="48" height="48" viewBox="0 0 48 48" fill="none" xmlns="http://www.w3.org/2000/svg">
    <circle cx="24" cy="24" r="24" fill="#FAF4DE"/>
    <path d="M24 14C22.0222 14 20.0888 14.5865 18.4443 15.6853C16.7998 16.7841 15.5181 18.3459 14.7612 20.1732C14.0043 22.0004 13.8063 24.0111 14.1922 25.9509C14.578 27.8907 15.5304 29.6725 16.9289 31.0711C18.3275 32.4696 20.1093 33.422 22.0491 33.8078C23.9889 34.1937 25.9996 33.9957 27.8268 33.2388C29.6541 32.4819 31.2159 31.2002 32.3147 29.5557C33.4135 27.9112 34 25.9778 34 24C33.997 21.3488 32.9424 18.807 31.0677 16.9323C29.193 15.0576 26.6512 14.003 24 14V14ZM22.9286 19C22.9286 18.7158 23.0415 18.4433 23.2424 18.2424C23.4433 18.0415 23.7158 17.9286 24 17.9286C24.2842 17.9286 24.5567 18.0415 24.7576 18.2424C24.9585 18.4433 25.0714 18.7158 25.0714 19V23.2857C25.0714 23.5699 24.9585 23.8424 24.7576 24.0433C24.5567 24.2443 24.2842 24.3571 24 24.3571C23.7158 24.3571 23.4433 24.2443 23.2424 24.0433C23.0415 23.8424 22.9286 23.5699 22.9286 23.2857V19ZM24 29.7143C23.7175 29.7143 23.4413 29.6305 23.2063 29.4735C22.9714 29.3166 22.7883 29.0934 22.6802 28.8324C22.572 28.5714 22.5438 28.2841 22.5989 28.007C22.654 27.7299 22.7901 27.4753 22.9899 27.2756C23.1896 27.0758 23.4442 26.9397 23.7213 26.8846C23.9984 26.8295 24.2857 26.8578 24.5467 26.9659C24.8077 27.074 25.0308 27.2571 25.1878 27.492C25.3448 27.727 25.4286 28.0032 25.4286 28.2857C25.4286 28.6646 25.2781 29.028 25.0102 29.2959C24.7422 29.5638 24.3789 29.7143 24 29.7143Z" fill="#9B7C09"/>
</svg>
