<svg width="24" height="24" viewBox="0 0 24 24" fill="none" xmlns="http://www.w3.org/2000/svg">
<rect y="0.00012207" width="24" height="24" rx="2" fill="#D32D27"/>
<path fill-rule="evenodd" clip-rule="evenodd" d="M20.2625 7.67232C20.2625 7.34638 20.5267 7.08215 20.8526 7.08215C21.1786 7.08215 21.4428 7.34638 21.4428 7.67232V16.3281C21.4428 16.654 21.1786 16.9182 20.8526 16.9182C20.5267 16.9182 20.2625 16.654 20.2625 16.3281V7.67232Z" fill="white"/>
<path fill-rule="evenodd" clip-rule="evenodd" d="M4.32787 13.7706C5.30568 13.7706 6.09836 12.9779 6.09836 12.0001C6.09836 11.0223 5.30568 10.2296 4.32787 10.2296C3.35005 10.2296 2.55737 11.0223 2.55737 12.0001C2.55737 12.9779 3.35005 13.7706 4.32787 13.7706Z" fill="white"/>
<path fill-rule="evenodd" clip-rule="evenodd" d="M10.2295 13.7706C11.2073 13.7706 12 12.9779 12 12.0001C12 11.0223 11.2073 10.2296 10.2295 10.2296C9.25166 10.2296 8.45898 11.0223 8.45898 12.0001C8.45898 12.9779 9.25166 13.7706 10.2295 13.7706Z" fill="white"/>
<path fill-rule="evenodd" clip-rule="evenodd" d="M16.1311 13.7706C17.1089 13.7706 17.9016 12.9779 17.9016 12.0001C17.9016 11.0223 17.1089 10.2296 16.1311 10.2296C15.1533 10.2296 14.3606 11.0223 14.3606 12.0001C14.3606 12.9779 15.1533 13.7706 16.1311 13.7706Z" fill="white"/>
</svg>
