<svg width="48" height="48" viewBox="0 0 48 48" fill="none" xmlns="http://www.w3.org/2000/svg">
<circle cx="24" cy="24" r="24" fill="#E7F7F2"/>
<path d="M24 14C22.0222 14 20.0888 14.5865 18.4443 15.6853C16.7998 16.7841 15.5181 18.3459 14.7612 20.1732C14.0043 22.0004 13.8063 24.0111 14.1922 25.9509C14.578 27.8907 15.5304 29.6725 16.9289 31.0711C18.3275 32.4696 20.1093 33.422 22.0491 33.8078C23.9889 34.1937 25.9996 33.9957 27.8268 33.2388C29.6541 32.4819 31.2159 31.2002 32.3147 29.5557C33.4135 27.9112 34 25.9778 34 24C33.9969 21.3488 32.9424 18.807 31.0677 16.9323C29.193 15.0576 26.6512 14.0031 24 14V14ZM29.7725 20.8333L24.0683 28.5742C24.001 28.6635 23.9165 28.7386 23.8199 28.7949C23.7232 28.8513 23.6163 28.8878 23.5054 28.9024C23.3944 28.917 23.2817 28.9093 23.1738 28.8799C23.0658 28.8504 22.9648 28.7997 22.8767 28.7308L18.8033 25.4742C18.7179 25.4058 18.6467 25.3212 18.5939 25.2253C18.5411 25.1294 18.5077 25.0241 18.4957 24.9153C18.4713 24.6955 18.5352 24.4751 18.6733 24.3025C18.8115 24.1299 19.0125 24.0192 19.2322 23.9948C19.452 23.9705 19.6724 24.0344 19.845 24.1725L23.2417 26.89L28.4308 19.8475C28.4933 19.7538 28.5741 19.6737 28.6684 19.612C28.7627 19.5504 28.8686 19.5085 28.9795 19.489C29.0904 19.4694 29.2042 19.4725 29.3139 19.4981C29.4236 19.5238 29.527 19.5714 29.6177 19.6381C29.7085 19.7048 29.7848 19.7892 29.8421 19.8862C29.8993 19.9833 29.9363 20.0909 29.9507 20.2026C29.9652 20.3143 29.9569 20.4278 29.9262 20.5362C29.8956 20.6446 29.8433 20.7457 29.7725 20.8333Z" fill="#008A63"/>
</svg>
