<svg width="14" height="10" viewBox="0 0 14 10" fill="none" xmlns="http://www.w3.org/2000/svg">
    <path d="M7.00034 9.37537C6.80954 9.3756 6.62088 9.33514 6.44696 9.25668C6.27304 9.17822 6.11785 9.06357 5.99176 8.92037L0.268674 2.41504C0.0877878 2.19947 -0.0015787 1.92168 0.0196836 1.64108C0.0409459 1.36047 0.171149 1.09932 0.382453 0.913472C0.593756 0.727619 0.869388 0.631814 1.15041 0.646542C1.43143 0.661271 1.69554 0.785363 1.88626 0.992286L6.89067 6.68095C6.90436 6.69657 6.92123 6.70908 6.94014 6.71765C6.95905 6.72622 6.97958 6.73066 7.00034 6.73066C7.02111 6.73066 7.04163 6.72622 7.06054 6.71765C7.07946 6.70908 7.09632 6.69657 7.11001 6.68095L12.1144 0.992286C12.2067 0.882284 12.3201 0.791843 12.4478 0.726279C12.5756 0.660715 12.7152 0.621352 12.8584 0.610502C13.0016 0.599652 13.1455 0.617535 13.2816 0.663099C13.4178 0.708664 13.5435 0.78099 13.6513 0.875828C13.7592 0.970666 13.8469 1.0861 13.9095 1.21535C13.9721 1.3446 14.0082 1.48505 14.0157 1.62845C14.0232 1.77185 14.002 1.91531 13.9533 2.05039C13.9046 2.18547 13.8293 2.30945 13.732 2.41504L8.01067 8.91804C7.88436 9.06159 7.72894 9.17661 7.55474 9.25546C7.38054 9.33431 7.19155 9.37519 7.00034 9.37537Z" fill="#40526D"/>
</svg>
