<svg width="14" height="14" viewBox="0 0 14 14" fill="none" xmlns="http://www.w3.org/2000/svg">
    <path d="M7.00016 13.6663C8.3187 13.6663 9.60763 13.2753 10.704 12.5428C11.8003 11.8103 12.6548 10.7691 13.1594 9.5509C13.6639 8.33272 13.796 6.99228 13.5387 5.69907C13.2815 4.40587 12.6466 3.21798 11.7142 2.28563C10.7819 1.35328 9.59397 0.718344 8.30076 0.461109C7.00756 0.203874 5.66711 0.335896 4.44894 0.84048C3.23077 1.34506 2.18957 2.19955 1.45703 3.29587C0.724489 4.3922 0.333496 5.68113 0.333496 6.99968C0.335408 8.7672 1.0384 10.4618 2.28823 11.7116C3.53806 12.9614 5.23264 13.6644 7.00016 13.6663ZM4.36905 9.52245V5.07801C4.36905 4.857 4.45685 4.64503 4.61313 4.48875C4.76941 4.33247 4.98137 4.24468 5.20238 4.24468H5.46461C5.68562 4.24468 5.89758 4.33247 6.05386 4.48875C6.21014 4.64503 6.29794 4.857 6.29794 5.07801V9.52245C6.29794 9.74347 6.21014 9.95543 6.05386 10.1117C5.89758 10.268 5.68562 10.3558 5.46461 10.3558H5.20238C4.98137 10.3558 4.76941 10.268 4.61313 10.1117C4.45685 9.95543 4.36905 9.74347 4.36905 9.52245ZM7.67127 5.07801C7.67127 4.857 7.75907 4.64503 7.91535 4.48875C8.07163 4.33247 8.28359 4.24468 8.50461 4.24468H8.79794C9.01895 4.24468 9.23091 4.33247 9.38719 4.48875C9.54347 4.64503 9.63127 4.857 9.63127 5.07801V9.52245C9.63127 9.74347 9.54347 9.95543 9.38719 10.1117C9.23091 10.268 9.01895 10.3558 8.79794 10.3558H8.50461C8.28359 10.3558 8.07163 10.268 7.91535 10.1117C7.75907 9.95543 7.67127 9.74347 7.67127 9.52245V5.07801Z" fill="#40526D"/>
</svg>
