<svg width="14" height="14" viewBox="0 0 14 14" fill="none" xmlns="http://www.w3.org/2000/svg">
<path d="M7.00016 0.333984C5.68162 0.333984 4.39269 0.724978 3.29636 1.45752C2.20004 2.19006 1.34555 3.23125 0.840969 4.44943C0.336385 5.6676 0.204362 7.00805 0.461597 8.30125C0.718832 9.59446 1.35377 10.7823 2.28612 11.7147C3.21847 12.647 4.40636 13.282 5.69956 13.5392C6.99277 13.7965 8.33321 13.6644 9.55139 13.1598C10.7696 12.6553 11.8108 11.8008 12.5433 10.7045C13.2758 9.60812 13.6668 8.31919 13.6668 7.00065C13.6649 5.23313 12.9619 3.53855 11.7121 2.28872C10.4623 1.03889 8.76769 0.335896 7.00016 0.333984V0.333984ZM7.13905 3.11176C7.30387 3.11176 7.46499 3.16064 7.60203 3.2522C7.73907 3.34377 7.84588 3.47392 7.90895 3.62619C7.97203 3.77846 7.98853 3.94602 7.95637 4.10767C7.92422 4.26932 7.84485 4.41781 7.72831 4.53435C7.61176 4.65089 7.46328 4.73026 7.30163 4.76242C7.13998 4.79457 6.97242 4.77807 6.82015 4.71499C6.66788 4.65192 6.53773 4.54511 6.44616 4.40807C6.35459 4.27103 6.30572 4.10991 6.30572 3.9451C6.30572 3.72408 6.39352 3.51212 6.5498 3.35584C6.70608 3.19956 6.91804 3.11176 7.13905 3.11176ZM8.38905 10.6118H6.16683C6.01949 10.6118 5.87818 10.5532 5.77399 10.449C5.66981 10.3449 5.61128 10.2035 5.61128 10.0562C5.61128 9.90886 5.66981 9.76756 5.77399 9.66337C5.87818 9.55918 6.01949 9.50065 6.16683 9.50065H6.5835C6.62033 9.50065 6.65566 9.48602 6.68171 9.45997C6.70775 9.43392 6.72239 9.3986 6.72239 9.36176V6.86176C6.72239 6.82493 6.70775 6.7896 6.68171 6.76355C6.65566 6.73751 6.62033 6.72287 6.5835 6.72287H6.16683C6.01949 6.72287 5.87818 6.66434 5.77399 6.56015C5.66981 6.45597 5.61128 6.31466 5.61128 6.16732C5.61128 6.01997 5.66981 5.87867 5.77399 5.77448C5.87818 5.67029 6.01949 5.61176 6.16683 5.61176H6.72239C7.01707 5.61176 7.29969 5.72883 7.50806 5.9372C7.71643 6.14557 7.8335 6.42819 7.8335 6.72287V9.36176C7.8335 9.3986 7.84813 9.43392 7.87418 9.45997C7.90022 9.48602 7.93555 9.50065 7.97239 9.50065H8.38905C8.5364 9.50065 8.6777 9.55918 8.78189 9.66337C8.88608 9.76756 8.94461 9.90886 8.94461 10.0562C8.94461 10.2035 8.88608 10.3449 8.78189 10.449C8.6777 10.5532 8.5364 10.6118 8.38905 10.6118Z" fill="#007AFF"/>
</svg>
