<svg width="16" height="24" viewBox="0 0 16 24" fill="none" xmlns="http://www.w3.org/2000/svg">
<path d="M2.5 15.494C2.5 16.0244 2.71071 16.5331 3.08579 16.9082C3.46086 17.2833 3.96957 17.494 4.5 17.494H9.83333C10.3638 17.494 10.8725 17.2833 11.2475 16.9082C11.6226 16.5331 11.8333 16.0244 11.8333 15.494V12.1387C11.8335 12.0507 11.8163 11.9637 11.7826 11.8824C11.749 11.8012 11.6996 11.7274 11.6373 11.6653V11.6653C11.5754 11.6029 11.5017 11.5534 11.4205 11.5196C11.3393 11.4859 11.2523 11.4685 11.1643 11.4685C11.0764 11.4685 10.9893 11.4859 10.9082 11.5196C10.827 11.5534 10.7533 11.6029 10.6913 11.6653L7.678 14.6747C7.51537 14.8371 7.32091 14.9641 7.10683 15.0477C6.89276 15.1313 6.6637 15.1698 6.43405 15.1607C6.2044 15.1515 5.97913 15.095 5.77238 14.9946C5.56563 14.8942 5.38188 14.7521 5.23267 14.5773C4.96442 14.238 4.83244 13.8107 4.86252 13.3792C4.8926 12.9477 5.0826 12.5429 5.39533 12.244L8.33333 9.31066C8.39582 9.24869 8.44542 9.17496 8.47926 9.09372C8.51311 9.01248 8.53053 8.92534 8.53053 8.83733C8.53053 8.74932 8.51311 8.66219 8.47926 8.58095C8.44542 8.49971 8.39582 8.42597 8.33333 8.364L8.32867 8.35933C8.26659 8.29706 8.19281 8.24769 8.11158 8.21405C8.03034 8.18041 7.94326 8.16317 7.85533 8.16333H4.5C3.96957 8.16333 3.46086 8.37404 3.08579 8.74912C2.71071 9.12419 2.5 9.6329 2.5 10.1633V15.494Z" fill="white"/>
<path d="M11.2817 9.66064C11.313 9.6295 11.3553 9.61201 11.3994 9.61201C11.4435 9.61201 11.4858 9.6295 11.5171 9.66064L12.9324 11.0733C12.9634 11.1044 13.0001 11.129 13.0406 11.1458C13.0811 11.1626 13.1246 11.1713 13.1684 11.1713C13.2121 11.1711 13.2553 11.1625 13.2957 11.146C13.3567 11.1208 13.4088 11.0781 13.4455 11.0232C13.4821 10.9684 13.5017 10.9039 13.5017 10.838V6.83797C13.5017 6.74957 13.4666 6.66478 13.4041 6.60227C13.3416 6.53976 13.2568 6.50464 13.1684 6.50464H9.1684C9.10253 6.50465 9.03813 6.52419 8.98335 6.56077C8.92856 6.59736 8.88585 6.64936 8.8606 6.7102C8.83535 6.77105 8.82869 6.83801 8.84147 6.90264C8.85425 6.96726 8.88589 7.02665 8.9324 7.07331L10.3411 8.48197C10.3567 8.49741 10.3691 8.51579 10.3775 8.53604C10.386 8.5563 10.3903 8.57802 10.3903 8.59997C10.3903 8.62192 10.386 8.64365 10.3775 8.6639C10.3691 8.68416 10.3567 8.70254 10.3411 8.71797L6.02774 13.022C5.90255 13.147 5.83216 13.3166 5.83203 13.4935C5.83191 13.6704 5.90206 13.8401 6.02707 13.9653C6.15207 14.0905 6.32169 14.1609 6.4986 14.161C6.67551 14.1611 6.84522 14.091 6.9704 13.966L11.2817 9.66064Z" fill="white"/>
</svg>
