<svg width="24" height="24" viewBox="0 0 24 24" fill="currentColor" stroke="currentColor" xmlns="http://www.w3.org/2000/svg">
<path d="M12 11.75C15.0376 11.75 17.5 9.28757 17.5 6.25C17.5 3.21243 15.0376 0.75 12 0.75C8.96243 0.75 6.5 3.21243 6.5 6.25C6.5 9.28757 8.96243 11.75 12 11.75Z" />
<path d="M12 13.25C9.48134 13.2529 7.06667 14.2547 5.2857 16.0357C3.50474 17.8167 2.50291 20.2313 2.5 22.75C2.5 22.8826 2.55268 23.0098 2.64645 23.1036C2.74021 23.1973 2.86739 23.25 3 23.25H21C21.1326 23.25 21.2598 23.1973 21.3536 23.1036C21.4473 23.0098 21.5 22.8826 21.5 22.75C21.4971 20.2313 20.4953 17.8167 18.7143 16.0357C16.9333 14.2547 14.5187 13.2529 12 13.25Z"/>
</svg>
