<svg width="48" height="48" viewBox="0 0 48 48" fill="none" xmlns="http://www.w3.org/2000/svg">
<circle cx="24" cy="24" r="24" fill="#FAF4DE"/>
<path d="M24 34C25.9778 34 27.9112 33.4135 29.5557 32.3147C31.2002 31.2159 32.4819 29.6541 33.2388 27.8268C33.9957 25.9996 34.1937 23.9889 33.8078 22.0491C33.422 20.1093 32.4696 18.3275 31.0711 16.9289C29.6725 15.5304 27.8907 14.578 25.9509 14.1922C24.0111 13.8063 22.0004 14.0043 20.1732 14.7612C18.3459 15.5181 16.7841 16.7998 15.6853 18.4443C14.5865 20.0888 14 22.0222 14 24C14.0029 26.6513 15.0574 29.1932 16.9321 31.0679C18.8068 32.9426 21.3487 33.9971 24 34ZM20.0533 27.7842V21.1175C20.0533 20.786 20.185 20.468 20.4194 20.2336C20.6539 19.9992 20.9718 19.8675 21.3033 19.8675H21.6967C22.0282 19.8675 22.3461 19.9992 22.5805 20.2336C22.815 20.468 22.9467 20.786 22.9467 21.1175V27.7842C22.9467 28.1157 22.815 28.4336 22.5805 28.6681C22.3461 28.9025 22.0282 29.0342 21.6967 29.0342H21.3033C20.9718 29.0342 20.6539 28.9025 20.4194 28.6681C20.185 28.4336 20.0533 28.1157 20.0533 27.7842ZM25.0067 21.1175C25.0067 20.786 25.1384 20.468 25.3728 20.2336C25.6072 19.9992 25.9251 19.8675 26.2567 19.8675H26.6967C27.0282 19.8675 27.3461 19.9992 27.5805 20.2336C27.815 20.468 27.9467 20.786 27.9467 21.1175V27.7842C27.9467 28.1157 27.815 28.4336 27.5805 28.6681C27.3461 28.9025 27.0282 29.0342 26.6967 29.0342H26.2567C25.9251 29.0342 25.6072 28.9025 25.3728 28.6681C25.1384 28.4336 25.0067 28.1157 25.0067 27.7842V21.1175Z" fill="#9B7C09"/>
</svg>
