<svg width="16" height="16" viewBox="0 0 16 16" fill="none" xmlns="http://www.w3.org/2000/svg">
    <path d="M15.6049 10.4565L15.0269 10.2172C14.5249 8.78139 14.5249 7.21771 15.0269 5.78188L15.6049 5.54255C15.6826 5.51037 15.7531 5.46322 15.8125 5.40378C15.872 5.34434 15.9191 5.27377 15.9513 5.19611C15.9834 5.11845 16 5.03521 16 4.95116C16 4.8671 15.9834 4.78387 15.9512 4.70621C15.9191 4.62856 15.8719 4.558 15.8125 4.49857C15.753 4.43914 15.6825 4.392 15.6048 4.35984C15.5271 4.32768 15.4439 4.31113 15.3598 4.31114C15.2758 4.31114 15.1926 4.32771 15.1149 4.35988L14.5376 4.59921C13.1677 3.93955 12.062 2.835 11.4009 1.46588L11.6402 0.887881C11.7056 0.73105 11.7059 0.554689 11.6412 0.397596C11.5765 0.240503 11.4521 0.115546 11.2952 0.0502143C11.1384 -0.0151173 10.962 -0.0154722 10.8049 0.0492279C10.6479 0.113928 10.5229 0.238383 10.4576 0.395214L10.2182 0.973214C8.7824 1.47523 7.21873 1.47523 5.7829 0.973214L5.5429 0.395214C5.51229 0.315393 5.466 0.242514 5.40676 0.180879C5.34752 0.119243 5.27653 0.0701012 5.19798 0.0363534C5.11943 0.00260558 5.03492 -0.0150639 4.94944 -0.0156119C4.86395 -0.0161598 4.77922 0.00042472 4.70025 0.0331628C4.62127 0.0659008 4.54966 0.114129 4.48963 0.175C4.42961 0.235871 4.38239 0.30815 4.35075 0.387572C4.31912 0.466994 4.30372 0.551949 4.30547 0.63742C4.30721 0.722892 4.32606 0.807148 4.3609 0.885214L4.60023 1.46321C3.93996 2.83179 2.83547 3.93627 1.4669 4.59655L0.885566 4.35988C0.807912 4.32771 0.72468 4.31114 0.640624 4.31114C0.556567 4.31113 0.473333 4.32768 0.395672 4.35984C0.318011 4.392 0.247445 4.43914 0.188003 4.49857C0.128561 4.558 0.081407 4.62856 0.0492332 4.70621C0.0170593 4.78387 0.000495771 4.8671 0.000488284 4.95116C0.000480797 5.03521 0.0170295 5.11845 0.0491895 5.19611C0.0813496 5.27377 0.128491 5.34434 0.187923 5.40378C0.247354 5.46322 0.317912 5.51037 0.395567 5.54255L0.974233 5.78188C1.47556 7.21783 1.47556 8.78127 0.974233 10.2172L0.395567 10.4565C0.238735 10.5215 0.11414 10.6461 0.0491895 10.803C-0.0157606 10.9598 -0.0157449 11.1361 0.0492332 11.2929C0.114211 11.4497 0.238829 11.5743 0.395672 11.6393C0.552515 11.7042 0.728735 11.7042 0.885566 11.6392L1.46357 11.3999C2.83317 12.0599 3.93881 13.1643 4.60023 14.5332L4.3609 15.1112C4.32865 15.1889 4.31203 15.2721 4.31196 15.3562C4.3119 15.4403 4.32841 15.5235 4.36054 15.6012C4.39267 15.6789 4.4398 15.7495 4.49923 15.809C4.55866 15.8685 4.62923 15.9157 4.7069 15.9479C4.7843 15.9809 4.86741 15.9986 4.95157 15.9999C5.0782 16 5.20201 15.9624 5.30729 15.892C5.41257 15.8217 5.49457 15.7216 5.5429 15.6045L5.78223 15.0265C7.21829 14.5245 8.78218 14.5245 10.2182 15.0265L10.4576 15.6045C10.506 15.7215 10.588 15.8216 10.6933 15.8919C10.7985 15.9623 10.9223 15.9999 11.0489 15.9999C11.1331 15.9997 11.2164 15.9831 11.2942 15.9512C11.451 15.886 11.5755 15.7613 11.6403 15.6045C11.7052 15.4476 11.7052 15.2714 11.6402 15.1145L11.4009 14.5365C12.0619 13.1674 13.1677 12.0628 14.5376 11.4032L15.1149 11.6425C15.1926 11.6747 15.2758 11.6913 15.3598 11.6913C15.4439 11.6913 15.5271 11.6748 15.6048 11.6426C15.6825 11.6104 15.753 11.5633 15.8125 11.5039C15.8719 11.4444 15.9191 11.3739 15.9512 11.2962C15.9834 11.2186 16 11.1353 16 11.0513C16 10.9672 15.9834 10.884 15.9513 10.8063C15.9191 10.7287 15.872 10.6581 15.8125 10.5987C15.7531 10.5392 15.6826 10.4921 15.6049 10.4599V10.4565ZM13.8889 9.74588L12.7869 9.28922C12.5251 8.44937 12.5251 7.54973 12.7869 6.70988L13.8889 6.25321C13.6202 7.40193 13.6202 8.59717 13.8889 9.74588ZM10.0222 4.79255C10.3517 5.2487 10.7521 5.64911 11.2082 5.97855L9.18357 6.81721L10.0222 4.79255ZM8.00023 6.32721L7.16157 4.30255C7.71706 4.39255 8.28341 4.39255 8.8389 4.30255L8.00023 6.32721ZM6.81757 6.81721L4.7929 5.97855C5.24918 5.64927 5.64962 5.24883 5.9789 4.79255L6.81757 6.81721ZM6.32757 7.99988L4.3029 8.83788C4.3929 8.28239 4.3929 7.71604 4.3029 7.16055L6.32757 7.99988ZM6.81823 9.18188L5.9789 11.2072C5.64922 10.7509 5.24859 10.3502 4.79223 10.0205L6.81823 9.18188ZM8.00023 9.67255L8.8389 11.6972C8.28361 11.6048 7.71686 11.6048 7.16157 11.6972L8.00023 9.67255ZM9.1829 9.18188L11.2082 10.0212C10.7517 10.3505 10.3511 10.7509 10.0216 11.2072L9.1829 9.18188ZM9.6729 7.99988L11.6982 7.16055C11.6086 7.71629 11.6086 8.28281 11.6982 8.83855L9.6729 7.99988ZM13.4002 5.07055L12.2976 5.52722C11.5181 5.11906 10.8817 4.48271 10.4736 3.70321L10.9296 2.59988C11.552 3.60263 12.3975 4.44814 13.4002 5.07055ZM9.7469 2.11121L9.29023 3.21321C8.4504 3.47657 7.55007 3.47657 6.71023 3.21321L6.25423 2.11121C7.40295 2.37994 8.59818 2.37994 9.7469 2.11121ZM5.07157 2.59988L5.52823 3.70188C5.12009 4.48172 4.48377 5.1185 3.70423 5.52722L2.60023 5.07055C3.60322 4.44822 4.44897 3.6027 5.07157 2.59988ZM2.11157 6.25321L3.21423 6.70988C3.47605 7.54973 3.47605 8.44937 3.21423 9.28922L2.11157 9.74588C2.38029 8.59717 2.38029 7.40193 2.11157 6.25321ZM2.60023 10.9285L3.70223 10.4719C4.48164 10.8807 5.11809 11.5171 5.5269 12.2965L5.07157 13.3999C4.44905 12.3968 3.6033 11.5511 2.60023 10.9285ZM6.25223 13.8885L6.7089 12.7865C7.54874 12.5232 8.44906 12.5232 9.2889 12.7865L9.74557 13.8885C8.59704 13.6201 7.40209 13.6201 6.25357 13.8885H6.25223ZM10.9282 13.3985L10.4716 12.2965C10.8798 11.5169 11.5164 10.8805 12.2962 10.4725L13.3976 10.9285C12.3956 11.5513 11.551 12.3971 10.9296 13.3999L10.9282 13.3985Z" fill="#40526D"/>
</svg>
