<svg width="16" height="16" viewBox="0 0 16 16" fill="none" xmlns="http://www.w3.org/2000/svg">
<g clip-path="url(#clip0_1035_177833)">
<path d="M8.99977 6C9.00055 5.02651 8.64482 4.08643 7.99977 3.35733V1.66667C7.99977 1.22464 7.82417 0.800716 7.51161 0.488155C7.19905 0.175595 6.77513 0 6.3331 0C5.89107 0 5.46715 0.175595 5.15459 0.488155C4.84203 0.800716 4.66643 1.22464 4.66643 1.66667V2.014C3.75617 2.09186 2.89998 2.47897 2.24026 3.11096C1.58054 3.74296 1.15704 4.58174 1.04019 5.48782C0.923332 6.39391 1.12017 7.31269 1.59796 8.09138C2.07575 8.87007 2.80571 9.46174 3.66643 9.768V10.1953L3.0971 10.764C3.06616 10.795 3.04165 10.8318 3.02494 10.8723C3.00824 10.9128 2.99969 10.9562 2.99977 11C2.99997 11.0884 3.03493 11.1732 3.0971 11.236L3.66643 11.8053V12.196L3.0971 12.7653C3.03461 12.8278 2.9995 12.9126 2.9995 13.001C2.9995 13.0894 3.03461 13.1742 3.0971 13.2367L3.66643 13.8053V14.6667C3.66635 14.7105 3.67491 14.7539 3.69161 14.7944C3.70831 14.8348 3.73283 14.8717 3.76377 14.9027L4.76377 15.9027C4.79473 15.9337 4.83151 15.9583 4.87201 15.9751C4.91251 15.9919 4.95592 16.0006 4.99977 16.0006C5.04361 16.0006 5.08702 15.9919 5.12752 15.9751C5.16802 15.9583 5.2048 15.9337 5.23577 15.9027L6.23577 14.9027C6.2667 14.8717 6.29122 14.8348 6.30792 14.7944C6.32462 14.7539 6.33318 14.7105 6.3331 14.6667V9.768C7.11142 9.49087 7.78523 8.98024 8.26251 8.30585C8.73978 7.63146 8.99726 6.82619 8.99977 6ZM4.99977 4C5.13162 4 5.26051 4.0391 5.37015 4.11235C5.47978 4.18561 5.56523 4.28973 5.61569 4.41154C5.66614 4.53336 5.67935 4.66741 5.65362 4.79673C5.6279 4.92605 5.5644 5.04484 5.47117 5.13807C5.37793 5.23131 5.25915 5.2948 5.12983 5.32052C5.00051 5.34625 4.86646 5.33305 4.74464 5.28259C4.62283 5.23213 4.51871 5.14668 4.44545 5.03705C4.3722 4.92741 4.3331 4.79852 4.3331 4.66667C4.3331 4.48986 4.40334 4.32029 4.52836 4.19526C4.65339 4.07024 4.82295 4 4.99977 4ZM6.3331 0.666667C6.59832 0.666667 6.85267 0.772024 7.04021 0.95956C7.22774 1.1471 7.3331 1.40145 7.3331 1.66667V2.75333C6.93138 2.46353 6.47924 2.25102 5.99977 2.12667V3.33333H5.3331V1.66667C5.3331 1.40145 5.43846 1.1471 5.62599 0.95956C5.81353 0.772024 6.06788 0.666667 6.3331 0.666667Z" fill="#40526D"/>
<path d="M14.9029 12.0181L11.4362 8.55147C11.8591 7.68053 11.9486 6.68494 11.6879 5.75254C11.4272 4.82013 10.8342 4.01539 10.0209 3.49013C9.96033 3.45042 9.88848 3.43151 9.81622 3.43627C9.74396 3.44102 9.67521 3.46918 9.62037 3.51648C9.56554 3.56378 9.5276 3.62766 9.51229 3.69844C9.49699 3.76923 9.50516 3.84307 9.53556 3.9088C10.0436 5.00461 10.1362 6.24771 9.79595 7.40667C9.45574 8.56563 8.70597 9.56147 7.68622 10.2088C7.62558 10.2477 7.57916 10.3051 7.5539 10.3725C7.52863 10.44 7.52589 10.5138 7.54608 10.5829C7.56627 10.6521 7.60831 10.7128 7.6659 10.756C7.72349 10.7993 7.79354 10.8227 7.86556 10.8228H7.86956C8.45613 10.8172 9.03435 10.6832 9.56356 10.4301L9.99689 10.8148V11.6675C9.99689 11.7559 10.032 11.8407 10.0945 11.9032C10.157 11.9657 10.2418 12.0008 10.3302 12.0008H11.1876L11.3302 12.1501V13.0008C11.3302 13.0892 11.3653 13.174 11.4279 13.2365C11.4904 13.299 11.5752 13.3341 11.6636 13.3341H12.4096L13.0209 13.9101C13.0828 13.9684 13.1646 14.0008 13.2496 14.0008H14.6669C14.7553 14.0008 14.8401 13.9657 14.9026 13.9032C14.9651 13.8407 15.0002 13.7559 15.0002 13.6675V12.2535C15.0002 12.1652 14.9652 12.0806 14.9029 12.0181Z" fill="#40526D"/>
</g>
<defs>
<clipPath id="clip0_1035_177833">
<rect width="16" height="16" fill="white"/>
</clipPath>
</defs>
</svg>
