<svg width="40" height="40" viewBox="0 0 40 40" fill="none" xmlns="http://www.w3.org/2000/svg">
    <rect width="40" height="40" rx="20" fill="#E8F3FF"/>
    <path fill-rule="evenodd" clip-rule="evenodd" d="M11.8709 13.2582L11.9091 21.2982L11.9091 21.3013C11.9009 22.345 12.1364 23.3762 12.5967 24.313C13.0571 25.2497 13.7296 26.0661 14.5609 26.6973L14.5633 26.6992C16.1653 27.9481 17.9306 28.9717 19.81 29.7417L20.4163 29.505C22.0518 28.7463 23.5957 27.804 25.0182 26.6963L25.0238 26.6919C25.8674 26.0741 26.549 25.2612 27.0101 24.3227C27.4712 23.3842 27.6982 22.3479 27.6717 21.3026L27.6714 21.2943L27.7447 13.2806L19.7825 10.2482L11.8709 13.2582ZM25.614 16.6042C25.6555 16.5871 25.7 16.5783 25.7448 16.5784C25.7896 16.5784 25.834 16.5872 25.8754 16.6044C25.9168 16.6216 25.9544 16.6468 25.9861 16.6785C26.0177 16.7102 26.0428 16.7479 26.0599 16.7893C26.077 16.8307 26.0857 16.8751 26.0856 16.9199V22.4265C26.0856 22.5169 26.0497 22.6037 25.9857 22.6677C25.9217 22.7317 25.8349 22.7676 25.7444 22.7676C25.654 22.7676 25.5672 22.7317 25.5032 22.6677C25.4392 22.6037 25.4033 22.5169 25.4033 22.4265V16.9199C25.4032 16.8751 25.4119 16.8306 25.4291 16.7891C25.4462 16.7476 25.4714 16.71 25.5031 16.6782C25.5348 16.6465 25.5725 16.6213 25.614 16.6042ZM18.262 18.5772C18.4787 18.4345 18.7328 18.3594 18.9922 18.3614C19.1634 18.3619 19.3329 18.3969 19.4909 18.463C19.6489 18.5291 19.7923 18.6256 19.913 18.7472C20.0337 18.8687 20.1292 19.0128 20.1942 19.1713C20.2591 19.3297 20.2922 19.4995 20.2916 19.6707C20.2916 19.9301 20.2145 20.1836 20.0702 20.3992C19.9259 20.6147 19.7208 20.7825 19.481 20.8813C19.2411 20.9801 18.9774 21.0054 18.7231 20.9541C18.4688 20.9028 18.2356 20.7771 18.0528 20.593C17.8701 20.4089 17.7462 20.1747 17.6968 19.92C17.6474 19.6654 17.6748 19.4018 17.7754 19.1627C17.876 18.9236 18.0454 18.7198 18.262 18.5772ZM21.9458 18.5772C22.1624 18.4345 22.4166 18.3594 22.6759 18.3614C22.8472 18.3619 23.0167 18.3969 23.1747 18.463C23.3327 18.5291 23.4761 18.6256 23.5968 18.7472C23.7175 18.8687 23.813 19.0128 23.8779 19.1713C23.9429 19.3297 23.976 19.4995 23.9754 19.6707C23.9754 19.9301 23.8983 20.1836 23.754 20.3992C23.6097 20.6147 23.4046 20.7825 23.1648 20.8813C22.9249 20.9801 22.6612 21.0054 22.4069 20.9541C22.1526 20.9028 21.9193 20.7771 21.7366 20.593C21.5539 20.4089 21.43 20.1747 21.3806 19.92C21.3312 19.6654 21.3586 19.4018 21.4592 19.1627C21.5598 18.9236 21.7292 18.7198 21.9458 18.5772ZM14.5782 18.5772C14.7949 18.4345 15.049 18.3594 15.3084 18.3614C15.4796 18.3619 15.6491 18.3969 15.8071 18.463C15.9651 18.5291 16.1085 18.6256 16.2292 18.7472C16.3499 18.8687 16.4454 19.0128 16.5104 19.1713C16.5753 19.3297 16.6084 19.4995 16.6078 19.6707C16.6078 19.9301 16.5307 20.1836 16.3864 20.3992C16.2421 20.6147 16.037 20.7825 15.7972 20.8813C15.5574 20.9801 15.2936 21.0054 15.0393 20.9541C14.7851 20.9028 14.5518 20.7771 14.3691 20.593C14.1864 20.4089 14.0624 20.1747 14.013 19.92C13.9637 19.6654 13.991 19.4018 14.0916 19.1627C14.1922 18.9236 14.3616 18.7198 14.5782 18.5772Z" fill="#004590"/>
    <path fill-rule="evenodd" clip-rule="evenodd" d="M19.7775 8L29.6161 11.7498L29.5273 21.5614C29.56 22.8616 29.2775 24.1503 28.7039 25.3176C28.1303 26.4848 27.2826 27.4959 26.2334 28.2643C22.3465 31.0414 20.6501 31.6677 20.6501 31.6677L19.808 32C17.4897 31.0621 15.3131 29.8063 13.3408 28.2686C12.308 27.4847 11.4725 26.4706 10.9006 25.3069C10.3288 24.1433 10.0364 22.8622 10.0468 21.5657L10 11.7243L19.7775 8ZM19.7826 9.73521L28.2271 12.9513L28.151 21.2946C28.1788 22.4159 27.935 23.5274 27.4404 24.5341C26.9457 25.5411 26.2148 26.4134 25.31 27.0767C23.8576 28.2074 22.2812 29.169 20.6112 29.9431L20.5977 29.9494L19.8065 30.2577L19.7182 30.2219C17.7652 29.4316 15.9315 28.3735 14.2698 27.0782C13.3796 26.4021 12.6594 25.5277 12.1664 24.5244C11.6734 23.5212 11.4212 22.4168 11.4297 21.299L11.3899 12.9282L19.7826 9.73521Z" fill="#004590"/>
</svg>
