<svg width="40" height="40" viewBox="0 0 40 40" fill="none" xmlns="http://www.w3.org/2000/svg">
    <rect width="40" height="40" rx="20" fill="#E8F3FF"/>
    <path d="M26.2507 16.9167H25.6257V14.625C25.6257 13.1332 25.033 11.7024 23.9781 10.6475C22.9232 9.59263 21.4925 9 20.0007 9C18.5088 9 17.0781 9.59263 16.0232 10.6475C14.9683 11.7024 14.3757 13.1332 14.3757 14.625V16.9167H13.7507C13.3086 16.9167 12.8847 17.0923 12.5721 17.4048C12.2596 17.7174 12.084 18.1413 12.084 18.5833V27.3333C12.084 27.7754 12.2596 28.1993 12.5721 28.5118C12.8847 28.8244 13.3086 29 13.7507 29H26.2507C26.6927 29 27.1166 28.8244 27.4292 28.5118C27.7417 28.1993 27.9173 27.7754 27.9173 27.3333V18.5833C27.9173 18.1413 27.7417 17.7174 27.4292 17.4048C27.1166 17.0923 26.6927 16.9167 26.2507 16.9167ZM20.0007 24.4167C19.671 24.4167 19.3488 24.3189 19.0747 24.1358C18.8006 23.9526 18.587 23.6923 18.4609 23.3878C18.3347 23.0833 18.3017 22.7482 18.366 22.4248C18.4303 22.1015 18.5891 21.8046 18.8221 21.5715C19.0552 21.3384 19.3522 21.1797 19.6755 21.1154C19.9988 21.051 20.3339 21.0841 20.6385 21.2102C20.943 21.3363 21.2033 21.55 21.3864 21.824C21.5696 22.0981 21.6673 22.4204 21.6673 22.75C21.6673 23.192 21.4917 23.6159 21.1792 23.9285C20.8666 24.2411 20.4427 24.4167 20.0007 24.4167ZM23.5423 16.5C23.5423 16.6105 23.4984 16.7165 23.4203 16.7946C23.3421 16.8728 23.2362 16.9167 23.1257 16.9167H16.8757C16.7651 16.9167 16.6592 16.8728 16.581 16.7946C16.5029 16.7165 16.459 16.6105 16.459 16.5V14.625C16.459 13.6857 16.8321 12.7849 17.4963 12.1207C18.1605 11.4565 19.0613 11.0833 20.0007 11.0833C20.94 11.0833 21.8408 11.4565 22.505 12.1207C23.1692 12.7849 23.5423 13.6857 23.5423 14.625V16.5Z" fill="#004590"/>
</svg>
