<svg width="381" height="91" viewBox="0 0 381 91" fill="none" xmlns="http://www.w3.org/2000/svg">
<g filter="url(#filter0_ddd_2604_157543)">
<rect x="2" y="3" width="367" height="84" rx="4" fill="white"/>
</g>
<g filter="url(#filter1_ddd_2604_157543)">
<rect x="341" y="3" width="26" height="26" rx="3" stroke="#D32D27" stroke-width="2"/>
</g>
<g filter="url(#filter2_ddd_2604_157543)">
<path d="M361.039 32.7625V31.5482C361.039 31.2262 360.913 30.9173 360.688 30.6896C360.463 30.4619 360.158 30.3339 359.839 30.3339C359.521 30.3339 359.216 30.4619 358.991 30.6896C358.766 30.9173 358.639 31.2262 358.639 31.5482V30.9435C358.639 30.6215 358.513 30.3126 358.288 30.0849C358.063 29.8571 357.758 29.7292 357.439 29.7292C357.121 29.7292 356.816 29.8571 356.591 30.0849C356.366 30.3126 356.239 30.6215 356.239 30.9435V26.0864C356.239 25.7643 356.113 25.4554 355.888 25.2277C355.663 25 355.358 24.8721 355.039 24.8721C354.721 24.8721 354.416 25 354.191 25.2277C353.966 25.4554 353.839 25.7643 353.839 26.0864V33.3721C353.203 33.3721 352.592 33.6279 352.142 34.0834C351.692 34.5388 351.439 35.1565 351.439 35.8006C351.439 36.9853 351.805 38.1404 352.486 39.1043L353.366 40.3469C353.699 40.8183 354.138 41.2025 354.647 41.4678C355.156 41.733 355.72 41.8716 356.292 41.8721H359.343C359.881 41.8721 360.414 41.7648 360.911 41.5563C361.408 41.3478 361.86 41.0422 362.24 40.657C362.621 40.2718 362.923 39.8145 363.128 39.3113C363.334 38.808 363.44 38.2687 363.439 37.7241V32.7625C363.439 32.4405 363.313 32.1316 363.088 31.9039C362.863 31.6761 362.558 31.5482 362.239 31.5482C361.921 31.5482 361.616 31.6761 361.391 31.9039C361.166 32.1316 361.039 32.4405 361.039 32.7625Z" fill="white" stroke="#1B283C" stroke-width="1.25" stroke-linecap="round" stroke-linejoin="round"/>
<path d="M353.84 33.3691V35.1906V33.3691Z" fill="white"/>
<path d="M353.84 33.3691V35.1906" stroke="#1B283C" stroke-width="1.25" stroke-linecap="round" stroke-linejoin="round"/>
<path d="M356.239 32.7621V31.5479V32.7621Z" fill="white"/>
<path d="M356.239 32.7621V31.5479" stroke="#1B283C" stroke-width="1.25" stroke-linecap="round" stroke-linejoin="round"/>
<path d="M358.64 32.7621V31.5479V32.7621Z" fill="white"/>
<path d="M358.64 32.7621V31.5479" stroke="#1B283C" stroke-width="1.25" stroke-linecap="round" stroke-linejoin="round"/>
</g>
<rect x="29.8027" y="62" width="12.9394" height="12.7635" rx="2" fill="#BAC0CA"/>
<rect x="47.3633" y="62" width="50.8333" height="12.7635" rx="2" fill="#BAC0CA"/>
<rect x="131.47" y="62" width="87.803" height="12.7635" rx="2" fill="#BAC0CA"/>
<path d="M237.984 67.5376V67.3472C237.984 67.0552 238.079 66.814 238.27 66.6235C238.46 66.4289 238.716 66.3315 239.038 66.3315C239.368 66.3315 239.628 66.4289 239.818 66.6235C240.009 66.8182 240.104 67.0594 240.104 67.3472V67.5376C240.104 67.8254 240.009 68.0645 239.818 68.2549C239.628 68.4453 239.37 68.5405 239.044 68.5405C238.718 68.5405 238.46 68.4453 238.27 68.2549C238.079 68.0645 237.984 67.8254 237.984 67.5376ZM242.281 67.5376V67.3472C242.281 67.0552 242.376 66.814 242.567 66.6235C242.757 66.4289 243.013 66.3315 243.335 66.3315C243.665 66.3315 243.925 66.4289 244.115 66.6235C244.306 66.8182 244.401 67.0594 244.401 67.3472V67.5376C244.401 67.8254 244.306 68.0645 244.115 68.2549C243.925 68.4453 243.667 68.5405 243.341 68.5405C243.015 68.5405 242.757 68.4453 242.567 68.2549C242.376 68.0645 242.281 67.8254 242.281 67.5376ZM246.578 67.5376V67.3472C246.578 67.0552 246.673 66.814 246.864 66.6235C247.054 66.4289 247.31 66.3315 247.632 66.3315C247.962 66.3315 248.222 66.4289 248.413 66.6235C248.603 66.8182 248.698 67.0594 248.698 67.3472V67.5376C248.698 67.8254 248.603 68.0645 248.413 68.2549C248.222 68.4453 247.964 68.5405 247.638 68.5405C247.312 68.5405 247.054 68.4453 246.864 68.2549C246.673 68.0645 246.578 67.8254 246.578 67.5376ZM250.875 67.5376V67.3472C250.875 67.0552 250.97 66.814 251.161 66.6235C251.351 66.4289 251.607 66.3315 251.929 66.3315C252.259 66.3315 252.519 66.4289 252.71 66.6235C252.9 66.8182 252.995 67.0594 252.995 67.3472V67.5376C252.995 67.8254 252.9 68.0645 252.71 68.2549C252.519 68.4453 252.261 68.5405 251.935 68.5405C251.609 68.5405 251.351 68.4453 251.161 68.2549C250.97 68.0645 250.875 67.8254 250.875 67.5376ZM255.172 67.5376V67.3472C255.172 67.0552 255.268 66.814 255.458 66.6235C255.648 66.4289 255.904 66.3315 256.226 66.3315C256.556 66.3315 256.816 66.4289 257.007 66.6235C257.197 66.8182 257.292 67.0594 257.292 67.3472V67.5376C257.292 67.8254 257.197 68.0645 257.007 68.2549C256.816 68.4453 256.558 68.5405 256.232 68.5405C255.907 68.5405 255.648 68.4453 255.458 68.2549C255.268 68.0645 255.172 67.8254 255.172 67.5376ZM259.469 67.5376V67.3472C259.469 67.0552 259.565 66.814 259.755 66.6235C259.946 66.4289 260.202 66.3315 260.523 66.3315C260.853 66.3315 261.113 66.4289 261.304 66.6235C261.494 66.8182 261.59 67.0594 261.59 67.3472V67.5376C261.59 67.8254 261.494 68.0645 261.304 68.2549C261.113 68.4453 260.855 68.5405 260.529 68.5405C260.204 68.5405 259.946 68.4453 259.755 68.2549C259.565 68.0645 259.469 67.8254 259.469 67.5376ZM263.767 67.5376V67.3472C263.767 67.0552 263.862 66.814 264.052 66.6235C264.243 66.4289 264.499 66.3315 264.82 66.3315C265.15 66.3315 265.411 66.4289 265.601 66.6235C265.791 66.8182 265.887 67.0594 265.887 67.3472V67.5376C265.887 67.8254 265.791 68.0645 265.601 68.2549C265.411 68.4453 265.152 68.5405 264.827 68.5405C264.501 68.5405 264.243 68.4453 264.052 68.2549C263.862 68.0645 263.767 67.8254 263.767 67.5376ZM268.064 67.5376V67.3472C268.064 67.0552 268.159 66.814 268.349 66.6235C268.54 66.4289 268.796 66.3315 269.117 66.3315C269.447 66.3315 269.708 66.4289 269.898 66.6235C270.089 66.8182 270.184 67.0594 270.184 67.3472V67.5376C270.184 67.8254 270.089 68.0645 269.898 68.2549C269.708 68.4453 269.45 68.5405 269.124 68.5405C268.798 68.5405 268.54 68.4453 268.349 68.2549C268.159 68.0645 268.064 67.8254 268.064 67.5376ZM272.361 67.5376V67.3472C272.361 67.0552 272.456 66.814 272.646 66.6235C272.837 66.4289 273.093 66.3315 273.414 66.3315C273.745 66.3315 274.005 66.4289 274.195 66.6235C274.386 66.8182 274.481 67.0594 274.481 67.3472V67.5376C274.481 67.8254 274.386 68.0645 274.195 68.2549C274.005 68.4453 273.747 68.5405 273.421 68.5405C273.095 68.5405 272.837 68.4453 272.646 68.2549C272.456 68.0645 272.361 67.8254 272.361 67.5376ZM276.658 67.5376V67.3472C276.658 67.0552 276.753 66.814 276.944 66.6235C277.134 66.4289 277.39 66.3315 277.712 66.3315C278.042 66.3315 278.302 66.4289 278.492 66.6235C278.683 66.8182 278.778 67.0594 278.778 67.3472V67.5376C278.778 67.8254 278.683 68.0645 278.492 68.2549C278.302 68.4453 278.044 68.5405 277.718 68.5405C277.392 68.5405 277.134 68.4453 276.944 68.2549C276.753 68.0645 276.658 67.8254 276.658 67.5376Z" fill="#202124"/>
<path d="M325.5 64.0625C323.208 64.0625 321.251 65.4879 320.458 67.5C321.251 69.5121 323.208 70.9375 325.5 70.9375C327.791 70.9375 329.748 69.5121 330.541 67.5C329.748 65.4879 327.791 64.0625 325.5 64.0625ZM325.5 69.7917C324.235 69.7917 323.208 68.765 323.208 67.5C323.208 66.235 324.235 65.2083 325.5 65.2083C326.765 65.2083 327.791 66.235 327.791 67.5C327.791 68.765 326.765 69.7917 325.5 69.7917ZM325.5 66.125C324.739 66.125 324.125 66.7392 324.125 67.5C324.125 68.2608 324.739 68.875 325.5 68.875C326.261 68.875 326.875 68.2608 326.875 67.5C326.875 66.7392 326.261 66.125 325.5 66.125Z" fill="#606367"/>
<path d="M354 13.1667C354.599 13.1667 355.084 12.6816 355.084 12.0833C355.084 11.485 354.599 11 354 11C353.402 11 352.917 11.485 352.917 12.0833C352.917 12.6816 353.402 13.1667 354 13.1667Z" fill="#606367"/>
<path d="M354 16.0837C354.599 16.0837 355.084 15.5986 355.084 15.0003C355.084 14.402 354.599 13.917 354 13.917C353.402 13.917 352.917 14.402 352.917 15.0003C352.917 15.5986 353.402 16.0837 354 16.0837Z" fill="#606367"/>
<path d="M354 18.9997C354.599 18.9997 355.084 18.5146 355.084 17.9163C355.084 17.318 354.599 16.833 354 16.833C353.402 16.833 352.917 17.318 352.917 17.9163C352.917 18.5146 353.402 18.9997 354 18.9997Z" fill="#606367"/>
<path d="M354 66.1667C354.599 66.1667 355.084 65.6816 355.084 65.0833C355.084 64.485 354.599 64 354 64C353.402 64 352.917 64.485 352.917 65.0833C352.917 65.6816 353.402 66.1667 354 66.1667Z" fill="#606367"/>
<path d="M354 69.0837C354.599 69.0837 355.084 68.5986 355.084 68.0003C355.084 67.402 354.599 66.917 354 66.917C353.402 66.917 352.917 67.402 352.917 68.0003C352.917 68.5986 353.402 69.0837 354 69.0837Z" fill="#606367"/>
<path d="M354 71.9997C354.599 71.9997 355.084 71.5146 355.084 70.9163C355.084 70.318 354.599 69.833 354 69.833C353.402 69.833 352.917 70.318 352.917 70.9163C352.917 71.5146 353.402 71.9997 354 71.9997Z" fill="#606367"/>
<path d="M10.0796 16.708C10.0796 16.6123 10.0648 16.5269 10.0352 16.4517C10.0078 16.3742 9.95654 16.3047 9.88135 16.2432C9.80843 16.1794 9.70475 16.1178 9.57031 16.0586C9.43815 15.9971 9.26725 15.9333 9.05762 15.8672C8.8252 15.7943 8.60872 15.7122 8.4082 15.6211C8.20768 15.5299 8.03109 15.424 7.87842 15.3032C7.72803 15.1825 7.61068 15.0435 7.52637 14.8862C7.44206 14.7267 7.3999 14.5422 7.3999 14.3325C7.3999 14.1274 7.4432 13.9406 7.52979 13.772C7.61865 13.6034 7.74398 13.4587 7.90576 13.3379C8.06755 13.2148 8.25781 13.1203 8.47656 13.0542C8.69759 12.9881 8.94141 12.9551 9.20801 12.9551C9.57715 12.9551 9.89616 13.0223 10.165 13.1567C10.4362 13.2912 10.6458 13.4735 10.7939 13.7036C10.9421 13.9338 11.0161 14.1924 11.0161 14.4795H10.0796C10.0796 14.3245 10.0465 14.1878 9.98047 14.0693C9.91667 13.9508 9.81868 13.8574 9.68652 13.7891C9.55664 13.7207 9.39258 13.6865 9.19434 13.6865C9.00293 13.6865 8.84342 13.715 8.71582 13.772C8.59049 13.8289 8.49593 13.9064 8.43213 14.0044C8.37061 14.1024 8.33984 14.2118 8.33984 14.3325C8.33984 14.4237 8.36149 14.5057 8.40479 14.5786C8.44808 14.6493 8.51302 14.7165 8.59961 14.7803C8.6862 14.8418 8.79329 14.8999 8.9209 14.9546C9.05078 15.007 9.20117 15.0594 9.37207 15.1118C9.64551 15.1938 9.88477 15.285 10.0898 15.3853C10.2972 15.4855 10.4692 15.5994 10.606 15.7271C10.745 15.8547 10.8486 15.9982 10.917 16.1577C10.9876 16.3172 11.0229 16.4984 11.0229 16.7012C11.0229 16.9154 10.9808 17.1068 10.8965 17.2754C10.8122 17.444 10.6914 17.5876 10.5342 17.7061C10.377 17.8245 10.1878 17.9146 9.9668 17.9761C9.74805 18.0376 9.50309 18.0684 9.23193 18.0684C8.9904 18.0684 8.75114 18.0365 8.51416 17.9727C8.27946 17.9066 8.06641 17.8086 7.875 17.6787C7.68359 17.5465 7.53092 17.3802 7.41699 17.1797C7.30306 16.9769 7.24609 16.7399 7.24609 16.4688H8.18945C8.18945 16.626 8.21452 16.7604 8.26465 16.8721C8.31706 16.9814 8.38997 17.0715 8.4834 17.1421C8.5791 17.2104 8.69076 17.2606 8.81836 17.2925C8.94596 17.3244 9.08382 17.3403 9.23193 17.3403C9.42334 17.3403 9.58057 17.3141 9.70361 17.2617C9.82894 17.207 9.92236 17.1318 9.98389 17.0361C10.0477 16.9404 10.0796 16.8311 10.0796 16.708ZM13.8163 17.2139V15.5083C13.8163 15.383 13.7947 15.2747 13.7514 15.1836C13.7081 15.0924 13.642 15.0218 13.5531 14.9717C13.4643 14.9215 13.3515 14.8965 13.2147 14.8965C13.094 14.8965 12.988 14.917 12.8969 14.958C12.808 14.999 12.7396 15.0571 12.6918 15.1323C12.6439 15.2052 12.62 15.2896 12.62 15.3853H11.7143C11.7143 15.2326 11.7507 15.0879 11.8236 14.9512C11.8965 14.8122 12.0002 14.6891 12.1347 14.582C12.2714 14.4727 12.4343 14.3872 12.6234 14.3257C12.8148 14.2642 13.029 14.2334 13.266 14.2334C13.5463 14.2334 13.7958 14.2812 14.0146 14.377C14.2356 14.4704 14.4088 14.6117 14.5341 14.8008C14.6617 14.9899 14.7255 15.228 14.7255 15.5151V17.1284C14.7255 17.313 14.7369 17.4714 14.7597 17.6035C14.7847 17.7334 14.8212 17.8462 14.869 17.9419V18H13.9496C13.9063 17.9066 13.8733 17.7881 13.8505 17.6445C13.8277 17.4987 13.8163 17.3551 13.8163 17.2139ZM13.9428 15.7476L13.9496 16.2842H13.3788C13.2375 16.2842 13.1133 16.299 13.0062 16.3286C12.8992 16.356 12.8114 16.397 12.7431 16.4517C12.6747 16.5041 12.6234 16.5679 12.5893 16.6431C12.5551 16.716 12.538 16.7992 12.538 16.8926C12.538 16.9837 12.5585 17.0658 12.5995 17.1387C12.6428 17.2116 12.7043 17.2697 12.7841 17.313C12.8661 17.354 12.9618 17.3745 13.0712 17.3745C13.2307 17.3745 13.3697 17.3426 13.4882 17.2788C13.6067 17.2127 13.699 17.133 13.765 17.0396C13.8311 16.9461 13.8664 16.8573 13.871 16.7729L14.1308 17.1626C14.0989 17.256 14.051 17.3551 13.9872 17.46C13.9234 17.5648 13.8414 17.6628 13.7411 17.7539C13.6409 17.8451 13.5201 17.9202 13.3788 17.9795C13.2375 18.0387 13.0735 18.0684 12.8866 18.0684C12.6474 18.0684 12.4332 18.0205 12.244 17.9248C12.0549 17.8291 11.9057 17.6981 11.7963 17.5317C11.6869 17.3654 11.6322 17.1763 11.6322 16.9644C11.6322 16.7684 11.6687 16.5952 11.7416 16.4448C11.8145 16.2944 11.9228 16.168 12.0663 16.0654C12.2099 15.9606 12.3876 15.882 12.5995 15.8296C12.8137 15.7749 13.0587 15.7476 13.3344 15.7476H13.9428ZM16.8113 17.3164L17.6727 14.3018H18.616L17.3479 18H16.7737L16.8113 17.3164ZM16.1824 14.3018L17.054 17.3232L17.0848 18H16.5071L15.2356 14.3018H16.1824ZM20.8044 18.0684C20.5241 18.0684 20.2723 18.0228 20.049 17.9316C19.8257 17.8405 19.6354 17.714 19.4782 17.5522C19.3233 17.3882 19.2036 17.1979 19.1193 16.9814C19.0373 16.7627 18.9963 16.528 18.9963 16.2773V16.1406C18.9963 15.8558 19.0373 15.5972 19.1193 15.3647C19.2014 15.13 19.3176 14.9284 19.468 14.7598C19.6184 14.5911 19.7984 14.4613 20.008 14.3701C20.2176 14.279 20.4489 14.2334 20.7019 14.2334C20.9639 14.2334 21.1952 14.2778 21.3957 14.3667C21.5962 14.4533 21.7637 14.5763 21.8981 14.7358C22.0326 14.8953 22.134 15.0868 22.2023 15.3101C22.2707 15.5311 22.3049 15.776 22.3049 16.0449V16.4243H19.4064V15.8022H21.4162V15.7339C21.4117 15.5903 21.3843 15.4593 21.3342 15.3408C21.284 15.2201 21.2066 15.1243 21.1018 15.0537C20.9969 14.9808 20.8614 14.9443 20.695 14.9443C20.5606 14.9443 20.4432 14.974 20.343 15.0332C20.245 15.0902 20.163 15.1722 20.0969 15.2793C20.0331 15.3841 19.9852 15.5094 19.9533 15.6553C19.9214 15.8011 19.9055 15.9629 19.9055 16.1406V16.2773C19.9055 16.4323 19.926 16.5758 19.967 16.708C20.0103 16.8402 20.0729 16.9552 20.155 17.0532C20.2393 17.1489 20.3396 17.2241 20.4558 17.2788C20.5743 17.3312 20.7087 17.3574 20.8591 17.3574C21.0482 17.3574 21.2191 17.321 21.3718 17.248C21.5267 17.1729 21.6612 17.0623 21.7751 16.9165L22.2297 17.3882C22.1522 17.5021 22.0474 17.6115 21.9152 17.7163C21.7854 17.8211 21.6281 17.9066 21.4436 17.9727C21.259 18.0365 21.0459 18.0684 20.8044 18.0684ZM25.2281 17.2139V12.75H26.1373V18H25.317L25.2281 17.2139ZM22.8526 16.1953V16.1235C22.8526 15.841 22.8845 15.5846 22.9483 15.3545C23.0144 15.1221 23.1101 14.9227 23.2354 14.7563C23.3608 14.59 23.5123 14.4613 23.69 14.3701C23.8701 14.279 24.074 14.2334 24.3019 14.2334C24.5229 14.2334 24.7154 14.2778 24.8795 14.3667C25.0458 14.4556 25.1871 14.582 25.3033 14.7461C25.4218 14.9102 25.5164 15.105 25.587 15.3306C25.6576 15.5539 25.7089 15.8 25.7408 16.0688V16.2637C25.7089 16.5257 25.6576 16.7661 25.587 16.9849C25.5164 17.2036 25.4218 17.395 25.3033 17.5591C25.1871 17.7209 25.0458 17.8462 24.8795 17.9351C24.7132 18.0239 24.5183 18.0684 24.295 18.0684C24.0694 18.0684 23.8666 18.0216 23.6866 17.9282C23.5089 17.8348 23.3574 17.7038 23.232 17.5352C23.109 17.3665 23.0144 17.1683 22.9483 16.9404C22.8845 16.7126 22.8526 16.4642 22.8526 16.1953ZM23.7584 16.1235V16.1953C23.7584 16.3548 23.7721 16.5041 23.7994 16.6431C23.8268 16.7821 23.8712 16.9051 23.9327 17.0122C23.9942 17.117 24.0729 17.1991 24.1686 17.2583C24.2665 17.3175 24.385 17.3472 24.524 17.3472C24.7018 17.3472 24.8476 17.3084 24.9615 17.231C25.0777 17.1512 25.1677 17.043 25.2315 16.9062C25.2953 16.7673 25.3364 16.6112 25.3546 16.438V15.9014C25.3455 15.7646 25.3215 15.6382 25.2828 15.522C25.2464 15.4058 25.1939 15.3055 25.1256 15.2212C25.0595 15.1369 24.9775 15.0708 24.8795 15.0229C24.7815 14.9751 24.6653 14.9512 24.5309 14.9512C24.3919 14.9512 24.2734 14.9819 24.1754 15.0435C24.0774 15.1027 23.9977 15.1859 23.9361 15.293C23.8746 15.4001 23.829 15.5243 23.7994 15.6655C23.7721 15.8068 23.7584 15.9595 23.7584 16.1235ZM30.8798 16.1851H29.598V15.4468H30.8798C31.0894 15.4468 31.2592 15.4126 31.3891 15.3442C31.5212 15.2736 31.6181 15.1779 31.6796 15.0571C31.7411 14.9341 31.7719 14.7939 31.7719 14.6367C31.7719 14.484 31.7411 14.3416 31.6796 14.2095C31.6181 14.0773 31.5212 13.9702 31.3891 13.8882C31.2592 13.8062 31.0894 13.7651 30.8798 13.7651H29.9057V18H28.9657V13.0234H30.8798C31.2672 13.0234 31.5976 13.0929 31.871 13.2319C32.1467 13.3687 32.3563 13.5589 32.4999 13.8027C32.6457 14.0443 32.7187 14.32 32.7187 14.6299C32.7187 14.9512 32.6457 15.228 32.4999 15.4604C32.3563 15.6929 32.1467 15.8717 31.871 15.9971C31.5976 16.1224 31.2672 16.1851 30.8798 16.1851ZM35.4847 17.2139V15.5083C35.4847 15.383 35.463 15.2747 35.4197 15.1836C35.3764 15.0924 35.3104 15.0218 35.2215 14.9717C35.1326 14.9215 35.0198 14.8965 34.8831 14.8965C34.7623 14.8965 34.6564 14.917 34.5652 14.958C34.4764 14.999 34.408 15.0571 34.3602 15.1323C34.3123 15.2052 34.2884 15.2896 34.2884 15.3853H33.3826C33.3826 15.2326 33.4191 15.0879 33.492 14.9512C33.5649 14.8122 33.6686 14.6891 33.803 14.582C33.9397 14.4727 34.1027 14.3872 34.2918 14.3257C34.4832 14.2642 34.6974 14.2334 34.9344 14.2334C35.2146 14.2334 35.4642 14.2812 35.6829 14.377C35.9039 14.4704 36.0771 14.6117 36.2024 14.8008C36.33 14.9899 36.3938 15.228 36.3938 15.5151V17.1284C36.3938 17.313 36.4052 17.4714 36.428 17.6035C36.4531 17.7334 36.4896 17.8462 36.5374 17.9419V18H35.618C35.5747 17.9066 35.5416 17.7881 35.5188 17.6445C35.4961 17.4987 35.4847 17.3551 35.4847 17.2139ZM35.6111 15.7476L35.618 16.2842H35.0472C34.9059 16.2842 34.7817 16.299 34.6746 16.3286C34.5675 16.356 34.4798 16.397 34.4114 16.4517C34.3431 16.5041 34.2918 16.5679 34.2576 16.6431C34.2234 16.716 34.2063 16.7992 34.2063 16.8926C34.2063 16.9837 34.2269 17.0658 34.2679 17.1387C34.3112 17.2116 34.3727 17.2697 34.4524 17.313C34.5345 17.354 34.6302 17.3745 34.7396 17.3745C34.8991 17.3745 35.0381 17.3426 35.1565 17.2788C35.275 17.2127 35.3673 17.133 35.4334 17.0396C35.4995 16.9461 35.5348 16.8573 35.5394 16.7729L35.7991 17.1626C35.7672 17.256 35.7194 17.3551 35.6556 17.46C35.5918 17.5648 35.5097 17.6628 35.4095 17.7539C35.3092 17.8451 35.1884 17.9202 35.0472 17.9795C34.9059 18.0387 34.7418 18.0684 34.555 18.0684C34.3157 18.0684 34.1015 18.0205 33.9124 17.9248C33.7233 17.8291 33.574 17.6981 33.4646 17.5317C33.3553 17.3654 33.3006 17.1763 33.3006 16.9644C33.3006 16.7684 33.337 16.5952 33.41 16.4448C33.4829 16.2944 33.5911 16.168 33.7347 16.0654C33.8782 15.9606 34.056 15.882 34.2679 15.8296C34.4821 15.7749 34.727 15.7476 35.0027 15.7476H35.6111ZM39.341 16.9883C39.341 16.9108 39.3205 16.8413 39.2795 16.7798C39.2385 16.7183 39.161 16.6624 39.0471 16.6123C38.9354 16.5599 38.7714 16.5109 38.5549 16.4653C38.3635 16.4243 38.1869 16.373 38.0251 16.3115C37.8633 16.25 37.7243 16.1759 37.6081 16.0894C37.4919 16.0005 37.4007 15.8968 37.3347 15.7783C37.2709 15.6576 37.239 15.5186 37.239 15.3613C37.239 15.2087 37.272 15.0651 37.3381 14.9307C37.4042 14.7939 37.4999 14.6743 37.6252 14.5718C37.7505 14.467 37.9032 14.3849 38.0832 14.3257C38.2632 14.2642 38.466 14.2334 38.6916 14.2334C39.0061 14.2334 39.2761 14.2847 39.5017 14.3872C39.7295 14.4897 39.9038 14.631 40.0246 14.811C40.1454 14.9888 40.2058 15.1893 40.2058 15.4126H39.3034C39.3034 15.3146 39.2806 15.2257 39.2351 15.146C39.1918 15.0662 39.1245 15.0024 39.0334 14.9546C38.9423 14.9045 38.8272 14.8794 38.6882 14.8794C38.5629 14.8794 38.4569 14.8999 38.3703 14.9409C38.286 14.9819 38.2222 15.0355 38.1789 15.1016C38.1356 15.1676 38.114 15.2406 38.114 15.3203C38.114 15.3796 38.1254 15.4331 38.1481 15.481C38.1732 15.5265 38.2131 15.5687 38.2678 15.6074C38.3225 15.6462 38.3965 15.6815 38.4899 15.7134C38.5856 15.7453 38.703 15.776 38.842 15.8057C39.1177 15.8604 39.3581 15.9333 39.5632 16.0244C39.7705 16.1133 39.9323 16.2318 40.0485 16.3799C40.1647 16.528 40.2229 16.7171 40.2229 16.9473C40.2229 17.1113 40.1875 17.2617 40.1169 17.3984C40.0463 17.5329 39.9437 17.6502 39.8093 17.7505C39.6748 17.8507 39.5142 17.9294 39.3273 17.9863C39.1405 18.041 38.9297 18.0684 38.695 18.0684C38.3555 18.0684 38.0684 18.008 37.8337 17.8872C37.599 17.7642 37.4213 17.6092 37.3005 17.4224C37.1797 17.2332 37.1193 17.0373 37.1193 16.8345H37.9841C37.9909 16.978 38.0297 17.0931 38.1003 17.1797C38.1709 17.2663 38.2598 17.3289 38.3669 17.3677C38.4763 17.4041 38.5913 17.4224 38.7121 17.4224C38.8488 17.4224 38.9639 17.4041 39.0573 17.3677C39.1507 17.3289 39.2214 17.2777 39.2692 17.2139C39.3171 17.1478 39.341 17.0726 39.341 16.9883ZM43.0436 16.9883C43.0436 16.9108 43.023 16.8413 42.982 16.7798C42.941 16.7183 42.8635 16.6624 42.7496 16.6123C42.638 16.5599 42.4739 16.5109 42.2574 16.4653C42.066 16.4243 41.8894 16.373 41.7276 16.3115C41.5659 16.25 41.4269 16.1759 41.3106 16.0894C41.1944 16.0005 41.1033 15.8968 41.0372 15.7783C40.9734 15.6576 40.9415 15.5186 40.9415 15.3613C40.9415 15.2087 40.9745 15.0651 41.0406 14.9307C41.1067 14.7939 41.2024 14.6743 41.3277 14.5718C41.4531 14.467 41.6057 14.3849 41.7857 14.3257C41.9658 14.2642 42.1686 14.2334 42.3941 14.2334C42.7086 14.2334 42.9786 14.2847 43.2042 14.3872C43.4321 14.4897 43.6064 14.631 43.7271 14.811C43.8479 14.9888 43.9083 15.1893 43.9083 15.4126H43.006C43.006 15.3146 42.9832 15.2257 42.9376 15.146C42.8943 15.0662 42.8271 15.0024 42.7359 14.9546C42.6448 14.9045 42.5297 14.8794 42.3907 14.8794C42.2654 14.8794 42.1594 14.8999 42.0729 14.9409C41.9885 14.9819 41.9247 15.0355 41.8814 15.1016C41.8382 15.1676 41.8165 15.2406 41.8165 15.3203C41.8165 15.3796 41.8279 15.4331 41.8507 15.481C41.8758 15.5265 41.9156 15.5687 41.9703 15.6074C42.025 15.6462 42.0991 15.6815 42.1925 15.7134C42.2882 15.7453 42.4055 15.776 42.5445 15.8057C42.8202 15.8604 43.0606 15.9333 43.2657 16.0244C43.4731 16.1133 43.6349 16.2318 43.7511 16.3799C43.8673 16.528 43.9254 16.7171 43.9254 16.9473C43.9254 17.1113 43.8901 17.2617 43.8194 17.3984C43.7488 17.5329 43.6463 17.6502 43.5118 17.7505C43.3774 17.8507 43.2167 17.9294 43.0299 17.9863C42.843 18.041 42.6323 18.0684 42.3976 18.0684C42.058 18.0684 41.7709 18.008 41.5362 17.8872C41.3015 17.7642 41.1238 17.6092 41.003 17.4224C40.8823 17.2332 40.8219 17.0373 40.8219 16.8345H41.6866C41.6935 16.978 41.7322 17.0931 41.8028 17.1797C41.8735 17.2663 41.9623 17.3289 42.0694 17.3677C42.1788 17.4041 42.2939 17.4224 42.4146 17.4224C42.5514 17.4224 42.6664 17.4041 42.7599 17.3677C42.8533 17.3289 42.9239 17.2777 42.9718 17.2139C43.0196 17.1478 43.0436 17.0726 43.0436 16.9883ZM45.7412 17.1113L46.5513 14.3018H47.1255L46.9546 15.2725L46.1377 18H45.6421L45.7412 17.1113ZM45.2935 14.3018L45.9019 17.1182L45.9565 18H45.3857L44.415 14.3018H45.2935ZM47.8774 17.0771L48.4722 14.3018H49.3472L48.3833 18H47.8125L47.8774 17.0771ZM47.2144 14.3018L48.0176 17.084L48.1235 18H47.6279L46.8042 15.2725L46.6367 14.3018H47.2144ZM49.8197 16.1885V16.1167C49.8197 15.8455 49.8585 15.596 49.9359 15.3682C50.0134 15.138 50.1262 14.9386 50.2743 14.77C50.4224 14.6014 50.6036 14.4704 50.8178 14.377C51.032 14.2812 51.2758 14.2334 51.5492 14.2334C51.8272 14.2334 52.0733 14.2812 52.2875 14.377C52.504 14.4704 52.6863 14.6014 52.8344 14.77C52.9825 14.9386 53.0953 15.138 53.1728 15.3682C53.2502 15.596 53.289 15.8455 53.289 16.1167V16.1885C53.289 16.4574 53.2502 16.7069 53.1728 16.937C53.0953 17.1649 52.9825 17.3643 52.8344 17.5352C52.6863 17.7038 52.5051 17.8348 52.2909 17.9282C52.0767 18.0216 51.8318 18.0684 51.5561 18.0684C51.2826 18.0684 51.0377 18.0216 50.8212 17.9282C50.6047 17.8348 50.4224 17.7038 50.2743 17.5352C50.1262 17.3643 50.0134 17.1649 49.9359 16.937C49.8585 16.7069 49.8197 16.4574 49.8197 16.1885ZM50.7221 16.1167V16.1885C50.7221 16.3503 50.738 16.5018 50.7699 16.6431C50.8018 16.7843 50.8508 16.9085 50.9169 17.0156C50.983 17.1227 51.0684 17.207 51.1732 17.2686C51.2803 17.3278 51.4079 17.3574 51.5561 17.3574C51.7019 17.3574 51.8272 17.3278 51.932 17.2686C52.0368 17.207 52.1223 17.1227 52.1884 17.0156C52.2567 16.9085 52.3069 16.7843 52.3388 16.6431C52.3707 16.5018 52.3866 16.3503 52.3866 16.1885V16.1167C52.3866 15.9572 52.3707 15.8079 52.3388 15.6689C52.3069 15.5277 52.2567 15.4035 52.1884 15.2964C52.1223 15.187 52.0357 15.1016 51.9286 15.04C51.8238 14.9762 51.6973 14.9443 51.5492 14.9443C51.4034 14.9443 51.2781 14.9762 51.1732 15.04C51.0684 15.1016 50.983 15.187 50.9169 15.2964C50.8508 15.4035 50.8018 15.5277 50.7699 15.6689C50.738 15.8079 50.7221 15.9572 50.7221 16.1167ZM54.9476 15.0571V18H54.0452V14.3018H54.8997L54.9476 15.0571ZM56.0721 14.2778L56.0584 15.1187C56.0083 15.1095 55.9513 15.1027 55.8875 15.0981C55.826 15.0936 55.7679 15.0913 55.7132 15.0913C55.5742 15.0913 55.4523 15.1107 55.3475 15.1494C55.2426 15.1859 55.1549 15.2394 55.0843 15.3101C55.0159 15.3807 54.9635 15.4673 54.9271 15.5698C54.8906 15.6701 54.8701 15.784 54.8655 15.9116L54.6707 15.8877C54.6707 15.653 54.6946 15.4354 54.7425 15.2349C54.7903 15.0343 54.8598 14.8589 54.951 14.7085C55.0421 14.5581 55.1561 14.4419 55.2928 14.3599C55.4318 14.2756 55.5913 14.2334 55.7713 14.2334C55.8214 14.2334 55.875 14.238 55.9319 14.2471C55.9912 14.2539 56.0379 14.2642 56.0721 14.2778ZM58.8176 17.2139V12.75H59.7268V18H58.9064L58.8176 17.2139ZM56.4421 16.1953V16.1235C56.4421 15.841 56.474 15.5846 56.5378 15.3545C56.6039 15.1221 56.6996 14.9227 56.8249 14.7563C56.9502 14.59 57.1018 14.4613 57.2795 14.3701C57.4595 14.279 57.6634 14.2334 57.8913 14.2334C58.1123 14.2334 58.3049 14.2778 58.4689 14.3667C58.6353 14.4556 58.7766 14.582 58.8928 14.7461C59.0113 14.9102 59.1058 15.105 59.1765 15.3306C59.2471 15.5539 59.2984 15.8 59.3303 16.0688V16.2637C59.2984 16.5257 59.2471 16.7661 59.1765 16.9849C59.1058 17.2036 59.0113 17.395 58.8928 17.5591C58.7766 17.7209 58.6353 17.8462 58.4689 17.9351C58.3026 18.0239 58.1078 18.0684 57.8845 18.0684C57.6589 18.0684 57.4561 18.0216 57.2761 17.9282C57.0983 17.8348 56.9468 17.7038 56.8215 17.5352C56.6984 17.3665 56.6039 17.1683 56.5378 16.9404C56.474 16.7126 56.4421 16.4642 56.4421 16.1953ZM57.3479 16.1235V16.1953C57.3479 16.3548 57.3615 16.5041 57.3889 16.6431C57.4162 16.7821 57.4606 16.9051 57.5222 17.0122C57.5837 17.117 57.6623 17.1991 57.758 17.2583C57.856 17.3175 57.9745 17.3472 58.1135 17.3472C58.2912 17.3472 58.437 17.3084 58.551 17.231C58.6672 17.1512 58.7572 17.043 58.821 16.9062C58.8848 16.7673 58.9258 16.6112 58.944 16.438V15.9014C58.9349 15.7646 58.911 15.6382 58.8723 15.522C58.8358 15.4058 58.7834 15.3055 58.715 15.2212C58.649 15.1369 58.5669 15.0708 58.4689 15.0229C58.371 14.9751 58.2548 14.9512 58.1203 14.9512C57.9813 14.9512 57.8628 14.9819 57.7648 15.0435C57.6669 15.1027 57.5871 15.1859 57.5256 15.293C57.4641 15.4001 57.4185 15.5243 57.3889 15.6655C57.3615 15.8068 57.3479 15.9595 57.3479 16.1235ZM62.6773 16.9883C62.6773 16.9108 62.6568 16.8413 62.6158 16.7798C62.5748 16.7183 62.4973 16.6624 62.3834 16.6123C62.2717 16.5599 62.1077 16.5109 61.8912 16.4653C61.6998 16.4243 61.5232 16.373 61.3614 16.3115C61.1996 16.25 61.0606 16.1759 60.9444 16.0894C60.8282 16.0005 60.7371 15.8968 60.671 15.7783C60.6072 15.6576 60.5753 15.5186 60.5753 15.3613C60.5753 15.2087 60.6083 15.0651 60.6744 14.9307C60.7405 14.7939 60.8362 14.6743 60.9615 14.5718C61.0869 14.467 61.2395 14.3849 61.4195 14.3257C61.5995 14.2642 61.8023 14.2334 62.0279 14.2334C62.3424 14.2334 62.6124 14.2847 62.838 14.3872C63.0659 14.4897 63.2402 14.631 63.3609 14.811C63.4817 14.9888 63.5421 15.1893 63.5421 15.4126H62.6397C62.6397 15.3146 62.617 15.2257 62.5714 15.146C62.5281 15.0662 62.4609 15.0024 62.3697 14.9546C62.2786 14.9045 62.1635 14.8794 62.0245 14.8794C61.8992 14.8794 61.7932 14.8999 61.7066 14.9409C61.6223 14.9819 61.5585 15.0355 61.5152 15.1016C61.4719 15.1676 61.4503 15.2406 61.4503 15.3203C61.4503 15.3796 61.4617 15.4331 61.4845 15.481C61.5095 15.5265 61.5494 15.5687 61.6041 15.6074C61.6588 15.6462 61.7328 15.6815 61.8263 15.7134C61.922 15.7453 62.0393 15.776 62.1783 15.8057C62.454 15.8604 62.6944 15.9333 62.8995 16.0244C63.1069 16.1133 63.2687 16.2318 63.3849 16.3799C63.5011 16.528 63.5592 16.7171 63.5592 16.9473C63.5592 17.1113 63.5239 17.2617 63.4532 17.3984C63.3826 17.5329 63.28 17.6502 63.1456 17.7505C63.0112 17.8507 62.8505 17.9294 62.6637 17.9863C62.4768 18.041 62.266 18.0684 62.0313 18.0684C61.6918 18.0684 61.4047 18.008 61.17 17.8872C60.9353 17.7642 60.7576 17.6092 60.6368 17.4224C60.516 17.2332 60.4557 17.0373 60.4557 16.8345H61.3204C61.3272 16.978 61.366 17.0931 61.4366 17.1797C61.5073 17.2663 61.5961 17.3289 61.7032 17.3677C61.8126 17.4041 61.9277 17.4224 62.0484 17.4224C62.1852 17.4224 62.3002 17.4041 62.3937 17.3677C62.4871 17.3289 62.5577 17.2777 62.6056 17.2139C62.6534 17.1478 62.6773 17.0726 62.6773 16.9883Z" fill="#606367"/>
<path d="M33.124 42.7183C33.124 42.6157 33.1081 42.5246 33.0762 42.4448C33.0465 42.3651 32.993 42.2922 32.9155 42.2261C32.8381 42.16 32.7287 42.0962 32.5874 42.0347C32.4484 41.9709 32.2707 41.9059 32.0542 41.8398C31.8172 41.7669 31.5985 41.686 31.3979 41.5972C31.1997 41.506 31.0265 41.4012 30.8784 41.2827C30.7303 41.1619 30.6152 41.0241 30.5332 40.8691C30.4512 40.7119 30.4102 40.5308 30.4102 40.3257C30.4102 40.1229 30.4523 39.9383 30.5366 39.772C30.6232 39.6056 30.7451 39.4621 30.9023 39.3413C31.0618 39.2183 31.2498 39.1237 31.4663 39.0576C31.6828 38.9893 31.922 38.9551 32.1841 38.9551C32.5532 38.9551 32.8711 39.0234 33.1377 39.1602C33.4066 39.2969 33.6128 39.4803 33.7563 39.7104C33.9022 39.9406 33.9751 40.1947 33.9751 40.4727H33.124C33.124 40.3086 33.0887 40.1639 33.0181 40.0386C32.9497 39.911 32.8449 39.8107 32.7036 39.7378C32.5646 39.6649 32.388 39.6284 32.1738 39.6284C31.971 39.6284 31.8024 39.6592 31.668 39.7207C31.5335 39.7822 31.4333 39.8654 31.3672 39.9702C31.3011 40.075 31.2681 40.1935 31.2681 40.3257C31.2681 40.4191 31.2897 40.5046 31.333 40.582C31.3763 40.6572 31.4424 40.7279 31.5312 40.7939C31.6201 40.8577 31.7318 40.9181 31.8662 40.9751C32.0007 41.0321 32.159 41.0868 32.3413 41.1392C32.617 41.2212 32.8574 41.3123 33.0625 41.4126C33.2676 41.5106 33.4385 41.6222 33.5752 41.7476C33.7119 41.8729 33.8145 42.0153 33.8828 42.1748C33.9512 42.332 33.9854 42.5109 33.9854 42.7114C33.9854 42.9211 33.9432 43.1102 33.8589 43.2788C33.7746 43.4451 33.6538 43.5876 33.4966 43.7061C33.3416 43.8223 33.1548 43.9123 32.936 43.9761C32.7196 44.0376 32.478 44.0684 32.2114 44.0684C31.9722 44.0684 31.7363 44.0365 31.5039 43.9727C31.2738 43.9089 31.0641 43.812 30.875 43.6821C30.6859 43.55 30.5355 43.3859 30.4238 43.1899C30.3122 42.9917 30.2563 42.7604 30.2563 42.4961H31.1143C31.1143 42.6579 31.1416 42.7957 31.1963 42.9097C31.2533 43.0236 31.3319 43.117 31.4321 43.1899C31.5324 43.2606 31.6486 43.313 31.7808 43.3472C31.9152 43.3813 32.0588 43.3984 32.2114 43.3984C32.4119 43.3984 32.5794 43.37 32.7139 43.313C32.8506 43.256 32.9531 43.1763 33.0215 43.0737C33.0898 42.9712 33.124 42.8527 33.124 42.7183ZM35.6439 40.3018V44H34.8168V40.3018H35.6439ZM34.7621 39.3311C34.7621 39.2057 34.8031 39.1021 34.8852 39.02C34.9695 38.9357 35.0857 38.8936 35.2338 38.8936C35.3796 38.8936 35.4947 38.9357 35.579 39.02C35.6633 39.1021 35.7055 39.2057 35.7055 39.3311C35.7055 39.4541 35.6633 39.5566 35.579 39.6387C35.4947 39.7207 35.3796 39.7617 35.2338 39.7617C35.0857 39.7617 34.9695 39.7207 34.8852 39.6387C34.8031 39.5566 34.7621 39.4541 34.7621 39.3311ZM38.3416 40.3018V40.9033H36.2566V40.3018H38.3416ZM36.8582 39.396H37.6819V42.978C37.6819 43.092 37.6979 43.1797 37.7298 43.2412C37.764 43.3005 37.8107 43.3403 37.8699 43.3608C37.9292 43.3813 37.9987 43.3916 38.0784 43.3916C38.1354 43.3916 38.1901 43.3882 38.2425 43.3813C38.2949 43.3745 38.337 43.3677 38.3689 43.3608L38.3724 43.9897C38.304 44.0103 38.2243 44.0285 38.1331 44.0444C38.0442 44.0604 37.9417 44.0684 37.8255 44.0684C37.6364 44.0684 37.4689 44.0353 37.323 43.9692C37.1772 43.9009 37.0633 43.7904 36.9812 43.6377C36.8992 43.485 36.8582 43.2822 36.8582 43.0293V39.396ZM40.7077 44.0684C40.4343 44.0684 40.187 44.0239 39.966 43.9351C39.7473 43.8439 39.5604 43.7174 39.4055 43.5557C39.2528 43.3939 39.1354 43.2036 39.0534 42.9849C38.9714 42.7661 38.9304 42.5303 38.9304 42.2773V42.1406C38.9304 41.8512 38.9725 41.5892 39.0568 41.3545C39.1411 41.1198 39.2585 40.9193 39.4089 40.7529C39.5593 40.5843 39.737 40.4556 39.9421 40.3667C40.1472 40.2778 40.3693 40.2334 40.6086 40.2334C40.8729 40.2334 41.1042 40.2778 41.3024 40.3667C41.5007 40.4556 41.6647 40.5809 41.7946 40.7427C41.9268 40.9022 42.0248 41.0924 42.0886 41.3135C42.1547 41.5345 42.1877 41.7783 42.1877 42.0449V42.397H39.3303V41.8057H41.3742V41.7407C41.3697 41.5926 41.34 41.4536 41.2854 41.3237C41.2329 41.1938 41.1521 41.089 41.0427 41.0093C40.9333 40.9295 40.7875 40.8896 40.6052 40.8896C40.4685 40.8896 40.3465 40.9193 40.2395 40.9785C40.1346 41.0355 40.0469 41.1187 39.9763 41.228C39.9056 41.3374 39.8509 41.4696 39.8122 41.6245C39.7757 41.7772 39.7575 41.9492 39.7575 42.1406V42.2773C39.7575 42.4391 39.7792 42.5895 39.8225 42.7285C39.868 42.8652 39.9341 42.9849 40.0207 43.0874C40.1073 43.1899 40.2121 43.2708 40.3352 43.3301C40.4582 43.387 40.5983 43.4155 40.7556 43.4155C40.9538 43.4155 41.1304 43.3757 41.2854 43.2959C41.4403 43.2161 41.5747 43.1034 41.6887 42.9575L42.1228 43.3779C42.043 43.4941 41.9393 43.6058 41.8117 43.7129C41.6841 43.8177 41.528 43.9032 41.3435 43.9692C41.1612 44.0353 40.9493 44.0684 40.7077 44.0684Z" fill="#606367"/>
<path d="M136.298 39.0234H137.153V42.3491C137.153 42.7274 137.071 43.0441 136.907 43.2993C136.743 43.5545 136.519 43.7471 136.237 43.877C135.957 44.0046 135.643 44.0684 135.297 44.0684C134.939 44.0684 134.62 44.0046 134.34 43.877C134.06 43.7471 133.839 43.5545 133.677 43.2993C133.517 43.0441 133.438 42.7274 133.438 42.3491V39.0234H134.292V42.3491C134.292 42.5884 134.333 42.7855 134.415 42.9404C134.497 43.0931 134.613 43.2059 134.764 43.2788C134.914 43.3517 135.092 43.3882 135.297 43.3882C135.502 43.3882 135.679 43.3517 135.827 43.2788C135.977 43.2059 136.093 43.0931 136.175 42.9404C136.257 42.7855 136.298 42.5884 136.298 42.3491V39.0234ZM140.179 42.9985C140.179 42.9165 140.158 42.8424 140.117 42.7764C140.076 42.708 139.997 42.6465 139.881 42.5918C139.767 42.5371 139.599 42.487 139.375 42.4414C139.179 42.3981 138.999 42.3468 138.835 42.2876C138.674 42.2261 138.535 42.152 138.418 42.0654C138.302 41.9788 138.212 41.8763 138.148 41.7578C138.085 41.6393 138.053 41.5026 138.053 41.3477C138.053 41.1973 138.086 41.0549 138.152 40.9204C138.218 40.786 138.312 40.6675 138.435 40.5649C138.558 40.4624 138.708 40.3815 138.883 40.3223C139.061 40.263 139.259 40.2334 139.478 40.2334C139.788 40.2334 140.053 40.2858 140.274 40.3906C140.498 40.4932 140.669 40.6333 140.787 40.811C140.906 40.9865 140.965 41.1847 140.965 41.4058H140.141C140.141 41.3078 140.116 41.2166 140.066 41.1323C140.018 41.0457 139.945 40.9762 139.847 40.9238C139.749 40.8691 139.626 40.8418 139.478 40.8418C139.337 40.8418 139.219 40.8646 139.126 40.9102C139.035 40.9535 138.966 41.0104 138.921 41.0811C138.878 41.1517 138.856 41.2292 138.856 41.3135C138.856 41.375 138.867 41.4308 138.89 41.481C138.915 41.5288 138.956 41.5732 139.013 41.6143C139.07 41.653 139.148 41.6895 139.246 41.7236C139.346 41.7578 139.471 41.7909 139.621 41.8228C139.904 41.882 140.147 41.9583 140.35 42.0518C140.555 42.1429 140.712 42.2614 140.821 42.4072C140.931 42.5508 140.985 42.7331 140.985 42.9541C140.985 43.1182 140.95 43.2686 140.879 43.4053C140.811 43.5397 140.711 43.6571 140.579 43.7573C140.446 43.8553 140.288 43.9316 140.103 43.9863C139.921 44.041 139.716 44.0684 139.488 44.0684C139.153 44.0684 138.87 44.0091 138.637 43.8906C138.405 43.7699 138.228 43.616 138.107 43.4292C137.989 43.2401 137.93 43.0441 137.93 42.8413H138.726C138.735 42.994 138.777 43.1159 138.852 43.207C138.93 43.2959 139.026 43.3608 139.14 43.4019C139.256 43.4406 139.375 43.46 139.498 43.46C139.647 43.46 139.771 43.4406 139.871 43.4019C139.971 43.3608 140.048 43.3062 140.1 43.2378C140.152 43.1672 140.179 43.0874 140.179 42.9985ZM143.437 44.0684C143.163 44.0684 142.916 44.0239 142.695 43.9351C142.476 43.8439 142.29 43.7174 142.135 43.5557C141.982 43.3939 141.865 43.2036 141.783 42.9849C141.7 42.7661 141.659 42.5303 141.659 42.2773V42.1406C141.659 41.8512 141.702 41.5892 141.786 41.3545C141.87 41.1198 141.988 40.9193 142.138 40.7529C142.288 40.5843 142.466 40.4556 142.671 40.3667C142.876 40.2778 143.098 40.2334 143.338 40.2334C143.602 40.2334 143.833 40.2778 144.032 40.3667C144.23 40.4556 144.394 40.5809 144.524 40.7427C144.656 40.9022 144.754 41.0924 144.818 41.3135C144.884 41.5345 144.917 41.7783 144.917 42.0449V42.397H142.059V41.8057H144.103V41.7407C144.099 41.5926 144.069 41.4536 144.014 41.3237C143.962 41.1938 143.881 41.089 143.772 41.0093C143.662 40.9295 143.517 40.8896 143.334 40.8896C143.198 40.8896 143.076 40.9193 142.969 40.9785C142.864 41.0355 142.776 41.1187 142.705 41.228C142.635 41.3374 142.58 41.4696 142.541 41.6245C142.505 41.7772 142.487 41.9492 142.487 42.1406V42.2773C142.487 42.4391 142.508 42.5895 142.552 42.7285C142.597 42.8652 142.663 42.9849 142.75 43.0874C142.836 43.1899 142.941 43.2708 143.064 43.3301C143.187 43.387 143.327 43.4155 143.485 43.4155C143.683 43.4155 143.86 43.3757 144.014 43.2959C144.169 43.2161 144.304 43.1034 144.418 42.9575L144.852 43.3779C144.772 43.4941 144.668 43.6058 144.541 43.7129C144.413 43.8177 144.257 43.9032 144.073 43.9692C143.89 44.0353 143.678 44.0684 143.437 44.0684ZM146.487 41.0059V44H145.663V40.3018H146.449L146.487 41.0059ZM147.618 40.2778L147.611 41.0435C147.561 41.0343 147.506 41.0275 147.447 41.0229C147.39 41.0184 147.333 41.0161 147.276 41.0161C147.135 41.0161 147.011 41.0366 146.904 41.0776C146.796 41.1164 146.706 41.1733 146.633 41.2485C146.563 41.3215 146.508 41.4103 146.469 41.5151C146.431 41.62 146.408 41.7373 146.401 41.8672L146.213 41.8809C146.213 41.6484 146.236 41.4331 146.281 41.2349C146.327 41.0366 146.395 40.8623 146.487 40.7119C146.58 40.5615 146.696 40.4442 146.835 40.3599C146.976 40.2756 147.139 40.2334 147.324 40.2334C147.374 40.2334 147.428 40.238 147.485 40.2471C147.544 40.2562 147.588 40.2664 147.618 40.2778ZM149.051 41.0913V44H148.227V40.3018H149.003L149.051 41.0913ZM148.904 42.0142L148.637 42.0107C148.64 41.7487 148.676 41.5083 148.747 41.2896C148.82 41.0708 148.92 40.8828 149.047 40.7256C149.177 40.5684 149.332 40.4476 149.512 40.3633C149.692 40.2767 149.893 40.2334 150.114 40.2334C150.292 40.2334 150.452 40.2585 150.596 40.3086C150.742 40.3564 150.866 40.4351 150.968 40.5444C151.073 40.6538 151.153 40.7962 151.208 40.9717C151.262 41.1449 151.29 41.3579 151.29 41.6108V44H150.462V41.6074C150.462 41.4297 150.436 41.2896 150.384 41.187C150.334 41.0822 150.26 41.0081 150.162 40.9648C150.066 40.9193 149.946 40.8965 149.803 40.8965C149.662 40.8965 149.535 40.9261 149.423 40.9854C149.312 41.0446 149.217 41.1255 149.14 41.228C149.065 41.3306 149.006 41.4491 148.965 41.5835C148.924 41.7179 148.904 41.8615 148.904 42.0142ZM154.315 43.2583V41.4946C154.315 41.3625 154.292 41.2485 154.244 41.1528C154.196 41.0571 154.123 40.9831 154.025 40.9307C153.929 40.8783 153.808 40.8521 153.663 40.8521C153.528 40.8521 153.412 40.8748 153.314 40.9204C153.216 40.966 153.14 41.0275 153.085 41.105C153.03 41.1825 153.003 41.2702 153.003 41.3682H152.183C152.183 41.2223 152.218 41.0811 152.289 40.9443C152.359 40.8076 152.462 40.6857 152.596 40.5786C152.731 40.4715 152.891 40.3872 153.078 40.3257C153.265 40.2642 153.475 40.2334 153.707 40.2334C153.985 40.2334 154.231 40.2801 154.445 40.3735C154.662 40.467 154.832 40.6082 154.955 40.7974C155.08 40.9842 155.143 41.2189 155.143 41.5015V43.1455C155.143 43.3141 155.154 43.4657 155.177 43.6001C155.202 43.7323 155.237 43.8473 155.283 43.9453V44H154.438C154.4 43.9111 154.369 43.7983 154.346 43.6616C154.326 43.5226 154.315 43.3882 154.315 43.2583ZM154.435 41.751L154.442 42.2603H153.851C153.698 42.2603 153.563 42.2751 153.447 42.3047C153.331 42.332 153.234 42.373 153.157 42.4277C153.079 42.4824 153.021 42.5485 152.982 42.626C152.944 42.7035 152.924 42.7912 152.924 42.8892C152.924 42.9871 152.947 43.0771 152.993 43.1592C153.038 43.2389 153.104 43.3016 153.191 43.3472C153.28 43.3927 153.387 43.4155 153.512 43.4155C153.681 43.4155 153.828 43.3813 153.953 43.313C154.081 43.2424 154.181 43.1569 154.254 43.0566C154.327 42.9541 154.366 42.8573 154.37 42.7661L154.637 43.1318C154.609 43.2253 154.563 43.3255 154.497 43.4326C154.431 43.5397 154.344 43.6423 154.237 43.7402C154.132 43.8359 154.006 43.9146 153.857 43.9761C153.712 44.0376 153.543 44.0684 153.352 44.0684C153.11 44.0684 152.895 44.0205 152.706 43.9248C152.516 43.8268 152.368 43.6958 152.261 43.5317C152.154 43.3654 152.101 43.1774 152.101 42.9678C152.101 42.7718 152.137 42.5986 152.21 42.4482C152.285 42.2956 152.395 42.168 152.538 42.0654C152.684 41.9629 152.862 41.8854 153.071 41.833C153.281 41.7783 153.52 41.751 153.789 41.751H154.435ZM156.928 41.0537V44H156.104V40.3018H156.88L156.928 41.0537ZM156.794 42.0142L156.514 42.0107C156.514 41.7555 156.546 41.5197 156.61 41.3032C156.674 41.0868 156.767 40.8988 156.89 40.7393C157.013 40.5775 157.166 40.4533 157.348 40.3667C157.533 40.2778 157.746 40.2334 157.987 40.2334C158.156 40.2334 158.31 40.2585 158.449 40.3086C158.59 40.3564 158.712 40.4328 158.814 40.5376C158.919 40.6424 158.999 40.7769 159.054 40.9409C159.111 41.105 159.139 41.3032 159.139 41.5356V44H158.315V41.6074C158.315 41.4274 158.288 41.2861 158.233 41.1836C158.181 41.0811 158.105 41.0081 158.004 40.9648C157.906 40.9193 157.789 40.8965 157.652 40.8965C157.497 40.8965 157.365 40.9261 157.256 40.9854C157.149 41.0446 157.061 41.1255 156.993 41.228C156.924 41.3306 156.874 41.4491 156.842 41.5835C156.81 41.7179 156.794 41.8615 156.794 42.0142ZM159.088 41.7954L158.702 41.8809C158.702 41.6576 158.732 41.4468 158.794 41.2485C158.858 41.048 158.95 40.8726 159.071 40.7222C159.194 40.5695 159.345 40.4499 159.525 40.3633C159.705 40.2767 159.912 40.2334 160.144 40.2334C160.333 40.2334 160.502 40.2596 160.65 40.312C160.8 40.3621 160.928 40.4419 161.033 40.5513C161.137 40.6606 161.217 40.8031 161.272 40.9785C161.327 41.1517 161.354 41.3613 161.354 41.6074V44H160.527V41.604C160.527 41.4172 160.499 41.2725 160.445 41.1699C160.392 41.0674 160.317 40.9967 160.219 40.958C160.121 40.917 160.004 40.8965 159.867 40.8965C159.739 40.8965 159.627 40.9204 159.529 40.9683C159.433 41.0138 159.352 41.0788 159.286 41.1631C159.22 41.2451 159.17 41.3397 159.136 41.4468C159.104 41.5539 159.088 41.6701 159.088 41.7954ZM163.932 44.0684C163.658 44.0684 163.411 44.0239 163.19 43.9351C162.971 43.8439 162.785 43.7174 162.63 43.5557C162.477 43.3939 162.36 43.2036 162.278 42.9849C162.196 42.7661 162.155 42.5303 162.155 42.2773V42.1406C162.155 41.8512 162.197 41.5892 162.281 41.3545C162.365 41.1198 162.483 40.9193 162.633 40.7529C162.783 40.5843 162.961 40.4556 163.166 40.3667C163.371 40.2778 163.594 40.2334 163.833 40.2334C164.097 40.2334 164.328 40.2778 164.527 40.3667C164.725 40.4556 164.889 40.5809 165.019 40.7427C165.151 40.9022 165.249 41.0924 165.313 41.3135C165.379 41.5345 165.412 41.7783 165.412 42.0449V42.397H162.554V41.8057H164.598V41.7407C164.594 41.5926 164.564 41.4536 164.51 41.3237C164.457 41.1938 164.376 41.089 164.267 41.0093C164.158 40.9295 164.012 40.8896 163.829 40.8896C163.693 40.8896 163.571 40.9193 163.464 40.9785C163.359 41.0355 163.271 41.1187 163.2 41.228C163.13 41.3374 163.075 41.4696 163.036 41.6245C163 41.7772 162.982 41.9492 162.982 42.1406V42.2773C162.982 42.4391 163.003 42.5895 163.047 42.7285C163.092 42.8652 163.158 42.9849 163.245 43.0874C163.332 43.1899 163.436 43.2708 163.559 43.3301C163.682 43.387 163.823 43.4155 163.98 43.4155C164.178 43.4155 164.355 43.3757 164.51 43.2959C164.665 43.2161 164.799 43.1034 164.913 42.9575L165.347 43.3779C165.267 43.4941 165.164 43.6058 165.036 43.7129C164.908 43.8177 164.752 43.9032 164.568 43.9692C164.385 44.0353 164.173 44.0684 163.932 44.0684Z" fill="#606367"/>
<path d="M239.396 42.144H238.101V41.4639H239.396C239.622 41.4639 239.804 41.4274 239.943 41.3545C240.082 41.2816 240.183 41.1813 240.247 41.0537C240.313 40.9238 240.346 40.7757 240.346 40.6094C240.346 40.4521 240.313 40.3052 240.247 40.1685C240.183 40.0295 240.082 39.9178 239.943 39.8335C239.804 39.7492 239.622 39.707 239.396 39.707H238.364V44H237.506V39.0234H239.396C239.781 39.0234 240.108 39.0918 240.377 39.2285C240.648 39.363 240.854 39.5498 240.996 39.7891C241.137 40.026 241.208 40.2972 241.208 40.6025C241.208 40.9238 241.137 41.1995 240.996 41.4297C240.854 41.6598 240.648 41.8364 240.377 41.9595C240.108 42.0825 239.781 42.144 239.396 42.144ZM244.038 43.2583V41.4946C244.038 41.3625 244.015 41.2485 243.967 41.1528C243.919 41.0571 243.846 40.9831 243.748 40.9307C243.652 40.8783 243.531 40.8521 243.386 40.8521C243.251 40.8521 243.135 40.8748 243.037 40.9204C242.939 40.966 242.863 41.0275 242.808 41.105C242.753 41.1825 242.726 41.2702 242.726 41.3682H241.906C241.906 41.2223 241.941 41.0811 242.012 40.9443C242.082 40.8076 242.185 40.6857 242.319 40.5786C242.454 40.4715 242.614 40.3872 242.801 40.3257C242.988 40.2642 243.198 40.2334 243.43 40.2334C243.708 40.2334 243.954 40.2801 244.168 40.3735C244.385 40.467 244.555 40.6082 244.678 40.7974C244.803 40.9842 244.866 41.2189 244.866 41.5015V43.1455C244.866 43.3141 244.877 43.4657 244.9 43.6001C244.925 43.7323 244.96 43.8473 245.006 43.9453V44H244.162C244.123 43.9111 244.092 43.7983 244.069 43.6616C244.049 43.5226 244.038 43.3882 244.038 43.2583ZM244.158 41.751L244.165 42.2603H243.574C243.421 42.2603 243.287 42.2751 243.17 42.3047C243.054 42.332 242.957 42.373 242.88 42.4277C242.802 42.4824 242.744 42.5485 242.705 42.626C242.667 42.7035 242.647 42.7912 242.647 42.8892C242.647 42.9871 242.67 43.0771 242.716 43.1592C242.761 43.2389 242.827 43.3016 242.914 43.3472C243.003 43.3927 243.11 43.4155 243.235 43.4155C243.404 43.4155 243.551 43.3813 243.676 43.313C243.804 43.2424 243.904 43.1569 243.977 43.0566C244.05 42.9541 244.089 42.8573 244.093 42.7661L244.36 43.1318C244.332 43.2253 244.286 43.3255 244.22 43.4326C244.154 43.5397 244.067 43.6423 243.96 43.7402C243.855 43.8359 243.729 43.9146 243.58 43.9761C243.435 44.0376 243.266 44.0684 243.075 44.0684C242.833 44.0684 242.618 44.0205 242.429 43.9248C242.239 43.8268 242.091 43.6958 241.984 43.5317C241.877 43.3654 241.824 43.1774 241.824 42.9678C241.824 42.7718 241.86 42.5986 241.933 42.4482C242.008 42.2956 242.118 42.168 242.261 42.0654C242.407 41.9629 242.585 41.8854 242.794 41.833C243.004 41.7783 243.243 41.751 243.512 41.751H244.158ZM247.902 42.9985C247.902 42.9165 247.881 42.8424 247.84 42.7764C247.799 42.708 247.721 42.6465 247.604 42.5918C247.49 42.5371 247.322 42.487 247.098 42.4414C246.902 42.3981 246.722 42.3468 246.558 42.2876C246.397 42.2261 246.258 42.152 246.141 42.0654C246.025 41.9788 245.935 41.8763 245.871 41.7578C245.808 41.6393 245.776 41.5026 245.776 41.3477C245.776 41.1973 245.809 41.0549 245.875 40.9204C245.941 40.786 246.035 40.6675 246.158 40.5649C246.282 40.4624 246.431 40.3815 246.606 40.3223C246.784 40.263 246.982 40.2334 247.201 40.2334C247.511 40.2334 247.776 40.2858 247.997 40.3906C248.221 40.4932 248.392 40.6333 248.51 40.811C248.629 40.9865 248.688 41.1847 248.688 41.4058H247.864C247.864 41.3078 247.839 41.2166 247.789 41.1323C247.741 41.0457 247.668 40.9762 247.57 40.9238C247.472 40.8691 247.349 40.8418 247.201 40.8418C247.06 40.8418 246.942 40.8646 246.849 40.9102C246.758 40.9535 246.689 41.0104 246.644 41.0811C246.601 41.1517 246.579 41.2292 246.579 41.3135C246.579 41.375 246.59 41.4308 246.613 41.481C246.638 41.5288 246.679 41.5732 246.736 41.6143C246.793 41.653 246.871 41.6895 246.969 41.7236C247.069 41.7578 247.194 41.7909 247.345 41.8228C247.627 41.882 247.87 41.9583 248.073 42.0518C248.278 42.1429 248.435 42.2614 248.544 42.4072C248.654 42.5508 248.708 42.7331 248.708 42.9541C248.708 43.1182 248.673 43.2686 248.602 43.4053C248.534 43.5397 248.434 43.6571 248.302 43.7573C248.169 43.8553 248.011 43.9316 247.826 43.9863C247.644 44.041 247.439 44.0684 247.211 44.0684C246.876 44.0684 246.593 44.0091 246.36 43.8906C246.128 43.7699 245.951 43.616 245.83 43.4292C245.712 43.2401 245.653 43.0441 245.653 42.8413H246.449C246.458 42.994 246.5 43.1159 246.575 43.207C246.653 43.2959 246.749 43.3608 246.863 43.4019C246.979 43.4406 247.098 43.46 247.221 43.46C247.37 43.46 247.494 43.4406 247.594 43.4019C247.694 43.3608 247.771 43.3062 247.823 43.2378C247.875 43.1672 247.902 43.0874 247.902 42.9985ZM251.604 42.9985C251.604 42.9165 251.584 42.8424 251.543 42.7764C251.502 42.708 251.423 42.6465 251.307 42.5918C251.193 42.5371 251.024 42.487 250.801 42.4414C250.605 42.3981 250.425 42.3468 250.261 42.2876C250.099 42.2261 249.96 42.152 249.844 42.0654C249.728 41.9788 249.638 41.8763 249.574 41.7578C249.51 41.6393 249.478 41.5026 249.478 41.3477C249.478 41.1973 249.511 41.0549 249.577 40.9204C249.643 40.786 249.738 40.6675 249.861 40.5649C249.984 40.4624 250.133 40.3815 250.309 40.3223C250.487 40.263 250.685 40.2334 250.904 40.2334C251.213 40.2334 251.479 40.2858 251.7 40.3906C251.923 40.4932 252.094 40.6333 252.213 40.811C252.331 40.9865 252.39 41.1847 252.39 41.4058H251.567C251.567 41.3078 251.542 41.2166 251.491 41.1323C251.444 41.0457 251.371 40.9762 251.273 40.9238C251.175 40.8691 251.052 40.8418 250.904 40.8418C250.762 40.8418 250.645 40.8646 250.551 40.9102C250.46 40.9535 250.392 41.0104 250.346 41.0811C250.303 41.1517 250.281 41.2292 250.281 41.3135C250.281 41.375 250.293 41.4308 250.316 41.481C250.341 41.5288 250.382 41.5732 250.439 41.6143C250.496 41.653 250.573 41.6895 250.671 41.7236C250.771 41.7578 250.897 41.7909 251.047 41.8228C251.33 41.882 251.572 41.9583 251.775 42.0518C251.98 42.1429 252.137 42.2614 252.247 42.4072C252.356 42.5508 252.411 42.7331 252.411 42.9541C252.411 43.1182 252.376 43.2686 252.305 43.4053C252.237 43.5397 252.136 43.6571 252.004 43.7573C251.872 43.8553 251.714 43.9316 251.529 43.9863C251.347 44.041 251.142 44.0684 250.914 44.0684C250.579 44.0684 250.295 44.0091 250.063 43.8906C249.83 43.7699 249.654 43.616 249.533 43.4292C249.414 43.2401 249.355 43.0441 249.355 42.8413H250.152C250.161 42.994 250.203 43.1159 250.278 43.207C250.356 43.2959 250.451 43.3608 250.565 43.4019C250.681 43.4406 250.801 43.46 250.924 43.46C251.072 43.46 251.196 43.4406 251.297 43.4019C251.397 43.3608 251.473 43.3062 251.526 43.2378C251.578 43.1672 251.604 43.0874 251.604 42.9985ZM254.237 43.1797L255.091 40.3018H255.618L255.474 41.1631L254.613 44H254.141L254.237 43.1797ZM253.734 40.3018L254.401 43.1934L254.456 44H253.929L252.928 40.3018H253.734ZM256.418 43.1592L257.064 40.3018H257.867L256.869 44H256.342L256.418 43.1592ZM255.707 40.3018L256.551 43.1455L256.657 44H256.185L255.314 41.1597L255.17 40.3018H255.707ZM258.37 42.1919V42.1133C258.37 41.8467 258.409 41.5994 258.486 41.3716C258.564 41.1414 258.675 40.9421 258.821 40.7734C258.969 40.6025 259.149 40.4704 259.361 40.377C259.576 40.2812 259.817 40.2334 260.086 40.2334C260.357 40.2334 260.599 40.2812 260.811 40.377C261.025 40.4704 261.206 40.6025 261.354 40.7734C261.502 40.9421 261.615 41.1414 261.692 41.3716C261.77 41.5994 261.809 41.8467 261.809 42.1133V42.1919C261.809 42.4585 261.77 42.7057 261.692 42.9336C261.615 43.1615 261.502 43.3608 261.354 43.5317C261.206 43.7004 261.026 43.8325 260.814 43.9282C260.602 44.0216 260.362 44.0684 260.093 44.0684C259.822 44.0684 259.579 44.0216 259.365 43.9282C259.153 43.8325 258.973 43.7004 258.825 43.5317C258.677 43.3608 258.564 43.1615 258.486 42.9336C258.409 42.7057 258.37 42.4585 258.37 42.1919ZM259.194 42.1133V42.1919C259.194 42.3582 259.211 42.5155 259.245 42.6636C259.279 42.8117 259.333 42.9416 259.406 43.0532C259.479 43.1649 259.572 43.2526 259.686 43.3164C259.8 43.3802 259.936 43.4121 260.093 43.4121C260.245 43.4121 260.378 43.3802 260.489 43.3164C260.603 43.2526 260.697 43.1649 260.77 43.0532C260.842 42.9416 260.896 42.8117 260.93 42.6636C260.967 42.5155 260.985 42.3582 260.985 42.1919V42.1133C260.985 41.9492 260.967 41.7943 260.93 41.6484C260.896 41.5003 260.841 41.3693 260.766 41.2554C260.693 41.1414 260.6 41.0526 260.486 40.9888C260.374 40.9227 260.241 40.8896 260.086 40.8896C259.931 40.8896 259.797 40.9227 259.683 40.9888C259.571 41.0526 259.479 41.1414 259.406 41.2554C259.333 41.3693 259.279 41.5003 259.245 41.6484C259.211 41.7943 259.194 41.9492 259.194 42.1133ZM263.426 41.0059V44H262.602V40.3018H263.389L263.426 41.0059ZM264.558 40.2778L264.551 41.0435C264.501 41.0343 264.446 41.0275 264.387 41.0229C264.33 41.0184 264.273 41.0161 264.216 41.0161C264.074 41.0161 263.95 41.0366 263.843 41.0776C263.736 41.1164 263.646 41.1733 263.573 41.2485C263.503 41.3215 263.448 41.4103 263.409 41.5151C263.37 41.62 263.348 41.7373 263.341 41.8672L263.153 41.8809C263.153 41.6484 263.176 41.4331 263.221 41.2349C263.267 41.0366 263.335 40.8623 263.426 40.7119C263.52 40.5615 263.636 40.4442 263.775 40.3599C263.916 40.2756 264.079 40.2334 264.264 40.2334C264.314 40.2334 264.367 40.238 264.424 40.2471C264.483 40.2562 264.528 40.2664 264.558 40.2778ZM267.361 43.2344V38.75H268.188V44H267.44L267.361 43.2344ZM264.955 42.1919V42.1201C264.955 41.8398 264.988 41.5846 265.054 41.3545C265.12 41.1221 265.216 40.9227 265.341 40.7563C265.466 40.5877 265.619 40.459 265.799 40.3701C265.979 40.279 266.182 40.2334 266.408 40.2334C266.631 40.2334 266.827 40.2767 266.995 40.3633C267.164 40.4499 267.308 40.5741 267.426 40.7358C267.545 40.8953 267.639 41.0868 267.71 41.3101C267.78 41.5311 267.831 41.7772 267.86 42.0483V42.2773C267.831 42.5417 267.78 42.7832 267.71 43.002C267.639 43.2207 267.545 43.4098 267.426 43.5693C267.308 43.7288 267.163 43.8519 266.992 43.9385C266.823 44.0251 266.626 44.0684 266.401 44.0684C266.177 44.0684 265.976 44.0216 265.796 43.9282C265.618 43.8348 265.466 43.7038 265.341 43.5352C265.216 43.3665 265.12 43.1683 265.054 42.9404C264.988 42.7103 264.955 42.4608 264.955 42.1919ZM265.779 42.1201V42.1919C265.779 42.3605 265.793 42.5177 265.823 42.6636C265.855 42.8094 265.904 42.9382 265.97 43.0498C266.036 43.1592 266.122 43.2458 266.226 43.3096C266.333 43.3711 266.461 43.4019 266.609 43.4019C266.796 43.4019 266.95 43.3608 267.071 43.2788C267.191 43.1968 267.286 43.0863 267.354 42.9473C267.425 42.806 267.473 42.6488 267.498 42.4756V41.8569C267.484 41.7225 267.456 41.5972 267.412 41.481C267.371 41.3647 267.316 41.2633 267.245 41.1768C267.174 41.0879 267.087 41.0195 266.982 40.9717C266.879 40.9215 266.757 40.8965 266.616 40.8965C266.466 40.8965 266.338 40.9284 266.233 40.9922C266.128 41.056 266.042 41.1437 265.973 41.2554C265.907 41.367 265.858 41.4969 265.826 41.645C265.795 41.7931 265.779 41.9515 265.779 42.1201Z" fill="#606367"/>
<defs>
<filter id="filter0_ddd_2604_157543" x="0" y="1" width="371" height="90" filterUnits="userSpaceOnUse" color-interpolation-filters="sRGB">
<feFlood flood-opacity="0" result="BackgroundImageFix"/>
<feColorMatrix in="SourceAlpha" type="matrix" values="0 0 0 0 0 0 0 0 0 0 0 0 0 0 0 0 0 0 127 0" result="hardAlpha"/>
<feOffset dy="1"/>
<feGaussianBlur stdDeviation="1"/>
<feColorMatrix type="matrix" values="0 0 0 0 0.113958 0 0 0 0 0.188601 0 0 0 0 0.28457 0 0 0 0.04 0"/>
<feBlend mode="normal" in2="BackgroundImageFix" result="effect1_dropShadow_2604_157543"/>
<feColorMatrix in="SourceAlpha" type="matrix" values="0 0 0 0 0 0 0 0 0 0 0 0 0 0 0 0 0 0 127 0" result="hardAlpha"/>
<feOffset dy="2"/>
<feGaussianBlur stdDeviation="1"/>
<feColorMatrix type="matrix" values="0 0 0 0 0.113958 0 0 0 0 0.188601 0 0 0 0 0.28457 0 0 0 0.04 0"/>
<feBlend mode="normal" in2="effect1_dropShadow_2604_157543" result="effect2_dropShadow_2604_157543"/>
<feColorMatrix in="SourceAlpha" type="matrix" values="0 0 0 0 0 0 0 0 0 0 0 0 0 0 0 0 0 0 127 0" result="hardAlpha"/>
<feOffset/>
<feGaussianBlur stdDeviation="1"/>
<feColorMatrix type="matrix" values="0 0 0 0 0.113958 0 0 0 0 0.188601 0 0 0 0 0.28457 0 0 0 0.16 0"/>
<feBlend mode="normal" in2="effect2_dropShadow_2604_157543" result="effect3_dropShadow_2604_157543"/>
<feBlend mode="normal" in="SourceGraphic" in2="effect3_dropShadow_2604_157543" result="shape"/>
</filter>
<filter id="filter1_ddd_2604_157543" x="338" y="0" width="32" height="34" filterUnits="userSpaceOnUse" color-interpolation-filters="sRGB">
<feFlood flood-opacity="0" result="BackgroundImageFix"/>
<feColorMatrix in="SourceAlpha" type="matrix" values="0 0 0 0 0 0 0 0 0 0 0 0 0 0 0 0 0 0 127 0" result="hardAlpha"/>
<feOffset dy="1"/>
<feGaussianBlur stdDeviation="1"/>
<feColorMatrix type="matrix" values="0 0 0 0 0.113958 0 0 0 0 0.188601 0 0 0 0 0.28457 0 0 0 0.04 0"/>
<feBlend mode="normal" in2="BackgroundImageFix" result="effect1_dropShadow_2604_157543"/>
<feColorMatrix in="SourceAlpha" type="matrix" values="0 0 0 0 0 0 0 0 0 0 0 0 0 0 0 0 0 0 127 0" result="hardAlpha"/>
<feOffset dy="2"/>
<feGaussianBlur stdDeviation="1"/>
<feColorMatrix type="matrix" values="0 0 0 0 0.113958 0 0 0 0 0.188601 0 0 0 0 0.28457 0 0 0 0.04 0"/>
<feBlend mode="normal" in2="effect1_dropShadow_2604_157543" result="effect2_dropShadow_2604_157543"/>
<feColorMatrix in="SourceAlpha" type="matrix" values="0 0 0 0 0 0 0 0 0 0 0 0 0 0 0 0 0 0 127 0" result="hardAlpha"/>
<feOffset/>
<feGaussianBlur stdDeviation="1"/>
<feColorMatrix type="matrix" values="0 0 0 0 0.113958 0 0 0 0 0.188601 0 0 0 0 0.28457 0 0 0 0.16 0"/>
<feBlend mode="normal" in2="effect2_dropShadow_2604_157543" result="effect3_dropShadow_2604_157543"/>
<feBlend mode="normal" in="SourceGraphic" in2="effect3_dropShadow_2604_157543" result="shape"/>
</filter>
<filter id="filter2_ddd_2604_157543" x="334.814" y="16.2471" width="45.25" height="50.25" filterUnits="userSpaceOnUse" color-interpolation-filters="sRGB">
<feFlood flood-opacity="0" result="BackgroundImageFix"/>
<feColorMatrix in="SourceAlpha" type="matrix" values="0 0 0 0 0 0 0 0 0 0 0 0 0 0 0 0 0 0 127 0" result="hardAlpha"/>
<feOffset dy="8"/>
<feGaussianBlur stdDeviation="8"/>
<feColorMatrix type="matrix" values="0 0 0 0 0.113958 0 0 0 0 0.188601 0 0 0 0 0.28457 0 0 0 0.08 0"/>
<feBlend mode="normal" in2="BackgroundImageFix" result="effect1_dropShadow_2604_157543"/>
<feColorMatrix in="SourceAlpha" type="matrix" values="0 0 0 0 0 0 0 0 0 0 0 0 0 0 0 0 0 0 127 0" result="hardAlpha"/>
<feOffset dy="2"/>
<feGaussianBlur stdDeviation="2"/>
<feColorMatrix type="matrix" values="0 0 0 0 0.113958 0 0 0 0 0.188601 0 0 0 0 0.28457 0 0 0 0.08 0"/>
<feBlend mode="normal" in2="effect1_dropShadow_2604_157543" result="effect2_dropShadow_2604_157543"/>
<feColorMatrix in="SourceAlpha" type="matrix" values="0 0 0 0 0 0 0 0 0 0 0 0 0 0 0 0 0 0 127 0" result="hardAlpha"/>
<feOffset dy="4"/>
<feGaussianBlur stdDeviation="4"/>
<feColorMatrix type="matrix" values="0 0 0 0 0.113958 0 0 0 0 0.188601 0 0 0 0 0.28457 0 0 0 0.16 0"/>
<feBlend mode="normal" in2="effect2_dropShadow_2604_157543" result="effect3_dropShadow_2604_157543"/>
<feBlend mode="normal" in="SourceGraphic" in2="effect3_dropShadow_2604_157543" result="shape"/>
</filter>
</defs>
</svg>
