<svg width="226" height="32" viewBox="0 0 226 32" fill="none" xmlns="http://www.w3.org/2000/svg">
<rect x="0.5" y="0.5" width="224.087" height="31" rx="3.5" fill="white"/>
<path d="M29.3705 15.5328C29.3665 15.1329 29.204 14.7509 28.9185 14.4708C28.633 14.1908 28.2479 14.0356 27.848 14.0394L18.2222 14.1335C17.853 13.0218 17.099 12.0783 16.0959 11.4733C15.0928 10.8682 13.9065 10.6412 12.7509 10.8333C11.5953 11.0253 10.5463 11.6237 9.79277 12.5207C9.03927 13.4177 8.63086 14.5542 8.64111 15.7257C8.65137 16.8971 9.07962 18.0263 9.84871 18.91C10.6178 19.7936 11.6772 20.3736 12.836 20.5453C13.9948 20.7171 15.1768 20.4694 16.1692 19.8468C17.1615 19.2243 17.8989 18.2678 18.2486 17.1498L21.5847 17.1175L21.5951 18.2238C21.6035 18.6205 21.7678 18.9979 22.0526 19.2742C22.3373 19.5505 22.7195 19.7036 23.1162 19.7001C23.513 19.6966 23.8924 19.5369 24.1723 19.2556C24.4521 18.9744 24.6099 18.5941 24.6113 18.1974L24.601 17.0917L26.3699 17.075L26.3911 19.2768C26.3904 19.4765 26.4293 19.6743 26.5056 19.8588C26.5819 20.0432 26.6941 20.2107 26.8356 20.3516C26.9772 20.4924 27.1452 20.6037 27.3301 20.679C27.515 20.7544 27.713 20.7923 27.9126 20.7906C28.1123 20.7888 28.3096 20.7474 28.4931 20.6689C28.6766 20.5903 28.8427 20.476 28.9818 20.3328C29.1208 20.1895 29.23 20.0201 29.3031 19.8343C29.3762 19.6485 29.4116 19.45 29.4074 19.2504L29.3705 15.5328ZM13.5761 17.5825C13.2005 17.5861 12.8323 17.4782 12.518 17.2725C12.2037 17.0668 11.9574 16.7725 11.8104 16.4269C11.6633 16.0812 11.6221 15.6997 11.6918 15.3306C11.7616 14.9615 11.9392 14.6214 12.2023 14.3533C12.4653 14.0851 12.802 13.901 13.1697 13.8242C13.5374 13.7474 13.9196 13.7814 14.268 13.9218C14.6164 14.0622 14.9153 14.3027 15.127 14.613C15.3387 14.9233 15.4536 15.2895 15.4572 15.6651C15.4614 16.1686 15.2657 16.6532 14.913 17.0126C14.5604 17.3721 14.0796 17.577 13.5761 17.5825Z" fill="white" stroke="#1B283C" stroke-linecap="round" stroke-linejoin="round"/>
<path d="M46.9072 20H47.9619V16.9824H49.9189C51.5068 16.9824 52.6318 15.8633 52.6318 14.2578V14.2461C52.6318 12.6406 51.5068 11.5449 49.9189 11.5449H46.9072V20ZM49.6494 12.4824C50.8564 12.4824 51.5537 13.1445 51.5537 14.2578V14.2695C51.5537 15.3828 50.8564 16.0449 49.6494 16.0449H47.9619V12.4824H49.6494ZM54.9404 20.1172C55.7549 20.1172 56.4873 19.6777 56.8447 19.0098H56.8682V20H57.8877V15.7871C57.8877 14.5684 56.9854 13.7891 55.5439 13.7891C54.1084 13.7891 53.2354 14.5977 53.1475 15.5996L53.1416 15.6641H54.126L54.1377 15.6113C54.2549 15.0664 54.7471 14.6914 55.5322 14.6914C56.3818 14.6914 56.8682 15.1426 56.8682 15.8867V16.3965L55.1221 16.4961C53.7217 16.5781 52.9131 17.2285 52.9131 18.2656V18.2773C52.9131 19.3848 53.7275 20.1172 54.9404 20.1172ZM53.9561 18.2773V18.2656C53.9561 17.6973 54.4248 17.334 55.2393 17.2871L56.8682 17.1875V17.6855C56.8682 18.5703 56.1299 19.2324 55.1689 19.2324C54.4365 19.2324 53.9561 18.8633 53.9561 18.2773ZM61.3447 20.1172C62.7041 20.1172 63.7119 19.3672 63.7119 18.3008V18.2949C63.7119 17.4277 63.2666 16.9414 62.0361 16.6426L61.0693 16.4082C60.3955 16.2441 60.1201 15.957 60.1201 15.541V15.5352C60.1201 14.9961 60.5771 14.6387 61.3154 14.6387C62.0713 14.6387 62.5225 15.0312 62.6045 15.623L62.6104 15.6641H63.583L63.5771 15.5879C63.501 14.5684 62.6514 13.7891 61.3154 13.7891C59.9971 13.7891 59.0771 14.5332 59.0771 15.582V15.5879C59.0771 16.4668 59.6338 17 60.7822 17.2754L61.749 17.5098C62.4404 17.6797 62.6689 17.9258 62.6689 18.3652V18.3711C62.6689 18.9219 62.1768 19.2676 61.3506 19.2676C60.5186 19.2676 60.0674 18.9102 59.9443 18.3008L59.9326 18.2422H58.9131L58.9189 18.2949C59.042 19.3848 59.9092 20.1172 61.3447 20.1172ZM66.9346 20.1172C68.2939 20.1172 69.3018 19.3672 69.3018 18.3008V18.2949C69.3018 17.4277 68.8564 16.9414 67.626 16.6426L66.6592 16.4082C65.9854 16.2441 65.71 15.957 65.71 15.541V15.5352C65.71 14.9961 66.167 14.6387 66.9053 14.6387C67.6611 14.6387 68.1123 15.0312 68.1943 15.623L68.2002 15.6641H69.1729L69.167 15.5879C69.0908 14.5684 68.2412 13.7891 66.9053 13.7891C65.5869 13.7891 64.667 14.5332 64.667 15.582V15.5879C64.667 16.4668 65.2236 17 66.3721 17.2754L67.3389 17.5098C68.0303 17.6797 68.2588 17.9258 68.2588 18.3652V18.3711C68.2588 18.9219 67.7666 19.2676 66.9404 19.2676C66.1084 19.2676 65.6572 18.9102 65.5342 18.3008L65.5225 18.2422H64.5029L64.5088 18.2949C64.6318 19.3848 65.499 20.1172 66.9346 20.1172ZM71.5693 20H72.6064L73.9775 15.2832H74.001L75.3779 20H76.415L78.1143 13.9062H77.1064L75.8877 18.8633H75.8643L74.4814 13.9062H73.4971L72.1201 18.8633H72.0967L70.8779 13.9062H69.8643L71.5693 20ZM81.4775 20.1172C83.1592 20.1172 84.2959 18.8984 84.2959 16.9531V16.9414C84.2959 14.9961 83.1533 13.7891 81.4717 13.7891C79.79 13.7891 78.6533 15.002 78.6533 16.9414V16.9531C78.6533 18.8926 79.7842 20.1172 81.4775 20.1172ZM81.4834 19.2148C80.4053 19.2148 79.6963 18.3887 79.6963 16.9531V16.9414C79.6963 15.5176 80.4111 14.6914 81.4717 14.6914C82.5498 14.6914 83.2529 15.5117 83.2529 16.9414V16.9531C83.2529 18.3828 82.5557 19.2148 81.4834 19.2148ZM85.3271 20H86.3467V16.2383C86.3467 15.3125 86.8623 14.7617 87.6533 14.7617C87.8994 14.7617 88.1162 14.791 88.1982 14.8203V13.8301C88.1162 13.8184 87.9639 13.7891 87.7881 13.7891C87.1025 13.7891 86.5752 14.2344 86.3701 14.9375H86.3467V13.9062H85.3271V20ZM91.0283 20.1172C91.9014 20.1172 92.5811 19.6777 92.9619 18.9688H92.9854V20H94.0049V11.5449H92.9854V14.9258H92.9619C92.5811 14.2227 91.8721 13.7891 91.0107 13.7891C89.4814 13.7891 88.4385 15.0254 88.4385 16.9473V16.9531C88.4385 18.875 89.4697 20.1172 91.0283 20.1172ZM91.2275 19.2148C90.1494 19.2148 89.4814 18.3535 89.4814 16.9531V16.9473C89.4814 15.5586 90.1494 14.6914 91.2275 14.6914C92.2529 14.6914 92.9912 15.5879 92.9912 16.9473V16.9531C92.9912 18.3184 92.2588 19.2148 91.2275 19.2148ZM97.5439 20.1172C98.9033 20.1172 99.9111 19.3672 99.9111 18.3008V18.2949C99.9111 17.4277 99.4658 16.9414 98.2354 16.6426L97.2686 16.4082C96.5947 16.2441 96.3193 15.957 96.3193 15.541V15.5352C96.3193 14.9961 96.7764 14.6387 97.5146 14.6387C98.2705 14.6387 98.7217 15.0312 98.8037 15.623L98.8096 15.6641H99.7822L99.7764 15.5879C99.7002 14.5684 98.8506 13.7891 97.5146 13.7891C96.1963 13.7891 95.2764 14.5332 95.2764 15.582V15.5879C95.2764 16.4668 95.833 17 96.9814 17.2754L97.9482 17.5098C98.6396 17.6797 98.8682 17.9258 98.8682 18.3652V18.3711C98.8682 18.9219 98.376 19.2676 97.5498 19.2676C96.7178 19.2676 96.2666 18.9102 96.1436 18.3008L96.1318 18.2422H95.1123L95.1182 18.2949C95.2412 19.3848 96.1084 20.1172 97.5439 20.1172Z" fill="#1B283C"/>
<g clip-path="url(#clip0_1658_141668)">
<g clip-path="url(#clip1_1658_141668)">
<path d="M214.837 16.0003C214.837 16.1638 214.802 16.3255 214.735 16.4746C214.668 16.6237 214.569 16.7567 214.447 16.8648L208.871 21.7703C208.686 21.9253 208.448 22.0019 208.207 21.9837C207.967 21.9655 207.743 21.8539 207.584 21.6727C207.424 21.4916 207.342 21.2554 207.355 21.0145C207.367 20.7736 207.474 20.5472 207.651 20.3838L212.527 16.0943C212.541 16.0825 212.551 16.0681 212.559 16.0519C212.566 16.0357 212.57 16.0181 212.57 16.0003C212.57 15.9825 212.566 15.9649 212.559 15.9487C212.551 15.9325 212.541 15.918 212.527 15.9063L207.651 11.6168C207.557 11.5376 207.479 11.4405 207.423 11.331C207.367 11.2215 207.333 11.1018 207.324 10.9791C207.315 10.8564 207.33 10.733 207.369 10.6163C207.408 10.4996 207.47 10.3918 207.551 10.2994C207.633 10.207 207.732 10.1318 207.842 10.0781C207.953 10.0245 208.074 9.99353 208.196 9.98709C208.319 9.98065 208.442 9.99884 208.558 10.0406C208.674 10.0824 208.78 10.1468 208.871 10.2303L214.445 15.1343C214.568 15.2425 214.666 15.3758 214.734 15.5251C214.801 15.6744 214.837 15.8364 214.837 16.0003Z" fill="#1B283C"/>
</g>
</g>
<rect x="0.5" y="0.5" width="224.087" height="31" rx="3.5" stroke="#EBEEEF"/>
<defs>
<clipPath id="clip0_1658_141668">
<rect width="12" height="12" fill="white" transform="translate(205.087 10)"/>
</clipPath>
<clipPath id="clip1_1658_141668">
<rect width="12" height="12" fill="white" transform="translate(205.087 22) rotate(-90)"/>
</clipPath>
</defs>
</svg>
