<svg width="160" height="160" viewBox="0 0 160 160" fill="none" xmlns="http://www.w3.org/2000/svg">
<path fill-rule="evenodd" clip-rule="evenodd" d="M80 160C124.183 160 160 124.183 160 80C160 35.8172 124.183 0 80 0C35.8172 0 0 35.8172 0 80C0 124.183 35.8172 160 80 160Z" fill="#EBF5FB"/>
<g filter="url(#filter0_i_606_4234)">
<path fill-rule="evenodd" clip-rule="evenodd" d="M89.1263 68.1403V57.7331C89.1263 47.3871 80.7744 39 70.4718 39C60.1691 39 51.8172 47.3871 51.8172 57.7331V72.9971C51.8172 73.2293 51.8214 73.4606 51.8298 73.6909H58.7459C58.7326 73.4613 58.7259 73.23 58.7259 72.9971V57.7331C58.7259 51.2189 63.9845 45.9382 70.4714 45.9382C76.9582 45.9382 82.2168 51.2189 82.2168 57.7331V60.1872C82.2168 60.1872 84.2895 62.1968 84.2895 62.5898C84.2895 62.9828 82.2168 65.1361 82.2168 65.1361V67.8985V68.1403H89.1263Z" fill="white"/>
</g>
<path d="M89.1263 68.1403V69.1403H90.1263V68.1403H89.1263ZM51.8298 73.6909L50.8304 73.7271L50.8654 74.6909H51.8298V73.6909ZM58.7459 73.6909V74.6909H59.8053L59.7442 73.6332L58.7459 73.6909ZM82.2168 60.1872H81.2168V60.6105L81.5207 60.9051L82.2168 60.1872ZM82.2168 65.1361L81.4964 64.4426L81.2168 64.733V65.1361H82.2168ZM82.2168 68.1403H81.2168V69.1403H82.2168V68.1403ZM90.1263 68.1403V57.7331H88.1263V68.1403H90.1263ZM90.1263 57.7331C90.1263 46.8387 81.3306 38 70.4718 38V40C80.2181 40 88.1263 47.9354 88.1263 57.7331H90.1263ZM70.4718 38C59.6129 38 50.8172 46.8387 50.8172 57.7331H52.8172C52.8172 47.9354 60.7254 40 70.4718 40V38ZM50.8172 57.7331V72.9971H52.8172V57.7331H50.8172ZM50.8172 72.9971C50.8172 73.2414 50.8216 73.4848 50.8304 73.7271L52.8291 73.6546C52.8212 73.4365 52.8172 73.2173 52.8172 72.9971H50.8172ZM51.8298 74.6909H58.7459V72.6909H51.8298V74.6909ZM59.7442 73.6332C59.7321 73.4228 59.7259 73.2107 59.7259 72.9971H57.7259C57.7259 73.2492 57.7332 73.4998 57.7475 73.7485L59.7442 73.6332ZM59.7259 72.9971V57.7331H57.7259V72.9971H59.7259ZM59.7259 57.7331C59.7259 51.7672 64.5408 46.9382 70.4714 46.9382V44.9382C63.4283 44.9382 57.7259 50.6706 57.7259 57.7331H59.7259ZM70.4714 46.9382C76.4019 46.9382 81.2168 51.7672 81.2168 57.7331H83.2168C83.2168 50.6706 77.5144 44.9382 70.4714 44.9382V46.9382ZM81.2168 57.7331V60.1872H83.2168V57.7331H81.2168ZM82.2168 60.1872C81.5207 60.9051 81.5207 60.9051 81.5207 60.9051C81.5207 60.9051 81.5207 60.9051 81.5207 60.9051C81.5207 60.9051 81.5207 60.9052 81.5208 60.9052C81.521 60.9054 81.5213 60.9057 81.5217 60.9061C81.5225 60.9068 81.5238 60.9081 81.5255 60.9098C81.5291 60.9133 81.5345 60.9185 81.5417 60.9255C81.556 60.9396 81.5774 60.9605 81.6048 60.9874C81.6597 61.0413 81.7384 61.1192 81.8332 61.214C82.0232 61.4043 82.2746 61.66 82.5244 61.9259C82.7773 62.1951 83.0148 62.4601 83.1838 62.6721C83.2699 62.7801 83.3221 62.8541 83.3477 62.8959C83.3606 62.9171 83.3551 62.9112 83.3437 62.8838C83.3389 62.8724 83.2895 62.7597 83.2895 62.5898H85.2895C85.2895 62.3708 85.224 62.1964 85.1889 62.1123C85.147 62.0123 85.097 61.9229 85.0533 61.8515C84.9655 61.7082 84.8557 61.5608 84.7475 61.4251C84.528 61.1498 84.2472 60.8387 83.982 60.5564C83.7136 60.2707 83.4468 59.9995 83.2482 59.8006C83.1486 59.7009 83.0654 59.6187 83.0069 59.5612C82.9777 59.5324 82.9545 59.5098 82.9385 59.4942C82.9305 59.4864 82.9243 59.4803 82.92 59.4761C82.9178 59.474 82.9162 59.4724 82.915 59.4712C82.9144 59.4707 82.9139 59.4702 82.9136 59.4699C82.9134 59.4697 82.9133 59.4696 82.9131 59.4695C82.9131 59.4694 82.913 59.4694 82.913 59.4693C82.913 59.4693 82.9129 59.4692 82.2168 60.1872ZM83.2895 62.5898C83.2895 62.4228 83.3374 62.3127 83.3398 62.3067C83.3493 62.2833 83.3526 62.2811 83.3382 62.3056C83.3099 62.3539 83.2551 62.4351 83.1679 62.5505C82.9964 62.7775 82.7568 63.0613 82.5032 63.3488C82.2526 63.633 82.0004 63.907 81.8099 64.1108C81.715 64.2125 81.636 64.296 81.581 64.3539C81.5535 64.3829 81.532 64.4054 81.5175 64.4205C81.5103 64.428 81.5049 64.4337 81.5013 64.4374C81.4995 64.4393 81.4982 64.4407 81.4974 64.4415C81.4969 64.442 81.4967 64.4423 81.4965 64.4424C81.4964 64.4425 81.4964 64.4426 81.4963 64.4426C81.4963 64.4426 81.4963 64.4426 81.4963 64.4426C81.4963 64.4426 81.4964 64.4426 82.2168 65.1361C82.9373 65.8296 82.9373 65.8295 82.9374 65.8295C82.9374 65.8295 82.9374 65.8294 82.9375 65.8293C82.9376 65.8292 82.9377 65.8291 82.9379 65.8289C82.9382 65.8286 82.9387 65.8281 82.9393 65.8275C82.9404 65.8263 82.9421 65.8245 82.9442 65.8223C82.9485 65.8179 82.9547 65.8114 82.9626 65.8031C82.9786 65.7865 83.0016 65.7623 83.0308 65.7316C83.0891 65.6702 83.1721 65.5825 83.2714 65.4761C83.4696 65.264 83.7356 64.9751 84.0031 64.6718C84.2677 64.3718 84.5464 64.0437 84.7635 63.7564C84.8706 63.6146 84.9778 63.4632 85.0627 63.3185C85.105 63.2466 85.1528 63.1577 85.1927 63.0596C85.2255 62.9789 85.2895 62.8059 85.2895 62.5898H83.2895ZM81.2168 65.1361V67.8985H83.2168V65.1361H81.2168ZM81.2168 67.8985V68.1403H83.2168V67.8985H81.2168ZM82.2168 69.1403H89.1263V67.1403H82.2168V69.1403Z" fill="#264887"/>
<g filter="url(#filter1_i_606_4234)">
<path fill-rule="evenodd" clip-rule="evenodd" d="M43.9633 75.7273C43.9633 73.5181 45.7541 71.7273 47.9633 71.7273H92.3269C94.5361 71.7273 96.3269 73.5181 96.3269 75.7273V107C96.3269 109.209 94.5361 111 92.3269 111H47.9633C45.7541 111 43.9633 109.209 43.9633 107V75.7273Z" fill="white"/>
</g>
<path fill-rule="evenodd" clip-rule="evenodd" d="M43.9633 75.7273C43.9633 73.5181 45.7541 71.7273 47.9633 71.7273H92.3269C94.5361 71.7273 96.3269 73.5181 96.3269 75.7273V107C96.3269 109.209 94.5361 111 92.3269 111H47.9633C45.7541 111 43.9633 109.209 43.9633 107V75.7273Z" stroke="#264887" stroke-width="2" stroke-linecap="round" stroke-dasharray="92 7 1 4"/>
<rect x="42.4899" y="78.1091" width="55.3091" height="0.981821" rx="0.49091" fill="#264887" stroke="#264887" stroke-width="0.981821"/>
<rect x="42.4899" y="104.291" width="55.3091" height="0.981818" rx="0.490909" fill="#264887" stroke="#264887" stroke-width="0.981818"/>
<path d="M53.7806 94.4087H90.7806" stroke="#86C1E9" stroke-width="2" stroke-linecap="round"/>
<path d="M53.7806 99.1897H90.7806" stroke="#86C1E9" stroke-width="2" stroke-linecap="round"/>
<path d="M53.7806 89.6277H90.7806" stroke="#86C1E9" stroke-width="2" stroke-linecap="round"/>
<path d="M53.7809 84.8466H90.7809" stroke="#86C1E9" stroke-width="2" stroke-linecap="round"/>
<g filter="url(#filter2_i_606_4234)">
<path fill-rule="evenodd" clip-rule="evenodd" d="M77.3452 92.0173C77.3452 95.6333 74.4149 98.5637 70.8007 98.5637C67.1847 98.5637 64.2543 95.6333 64.2543 92.0173C64.2543 88.4031 67.1847 85.4727 70.8007 85.4727C74.4149 85.4727 77.3452 88.4031 77.3452 92.0173Z" fill="white"/>
</g>
<path fill-rule="evenodd" clip-rule="evenodd" d="M77.3452 92.0173C77.3452 95.6333 74.4149 98.5637 70.8007 98.5637C67.1847 98.5637 64.2543 95.6333 64.2543 92.0173C64.2543 88.4031 67.1847 85.4727 70.8007 85.4727C74.4149 85.4727 77.3452 88.4031 77.3452 92.0173Z" stroke="#26417E" stroke-width="2" stroke-linecap="round" stroke-linejoin="round"/>
<rect x="71.1438" y="88.9177" width="6.20095" height="0.688993" rx="0.344496" transform="rotate(90 71.1438 88.9177)" fill="#E3E3E3" stroke="#D22D27" stroke-width="2"/>
<path fill-rule="evenodd" clip-rule="evenodd" d="M128 94.2222C129.473 94.2222 130.667 93.0283 130.667 91.5556C130.667 90.0828 129.473 88.8889 128 88.8889C126.527 88.8889 125.333 90.0828 125.333 91.5556C125.333 93.0283 126.527 94.2222 128 94.2222Z" stroke="#C2E0F4" stroke-width="2"/>
<path fill-rule="evenodd" clip-rule="evenodd" d="M133.667 23.3333C135.139 23.3333 136.333 22.1394 136.333 20.6667C136.333 19.1939 135.139 18 133.667 18C132.194 18 131 19.1939 131 20.6667C131 22.1394 132.194 23.3333 133.667 23.3333Z" stroke="#C2E0F4" stroke-width="2"/>
<rect x="23.4443" y="47.2222" width="5.33334" height="5.33333" stroke="#C2E0F4" stroke-width="2" stroke-linecap="round" stroke-linejoin="round"/>
<path d="M17.1821 90.1821L21.3358 94.3358" stroke="#C2E0F4" stroke-width="1.6" stroke-linecap="round"/>
<path d="M21.1894 90.1821L17.0358 94.3358" stroke="#C2E0F4" stroke-width="1.6" stroke-linecap="round"/>
<path d="M5 111H155" stroke="#264887" stroke-width="2" stroke-linecap="round" stroke-dasharray="1 6 164 5"/>
<rect x="60" y="82" width="1" height="5" fill="white"/>
<path d="M152.436 114C139.656 141.182 112.025 160 80 160C47.9746 160 20.3443 141.182 7.5636 114H152.436Z" fill="#DAECF8"/>
<path d="M41.9997 121L98.9997 121" stroke="#B5D9F1" stroke-width="2" stroke-linecap="round" stroke-dasharray="1 8 164 9"/>
<path d="M59.9997 127L91.9997 127" stroke="#B5D9F1" stroke-width="2" stroke-linecap="round" stroke-dasharray="161 16 10 16"/>
<g filter="url(#filter3_di_606_4234)">
<path d="M117.385 42.4981C117.433 41.731 117.235 40.9687 116.822 40.3221C116.408 39.6755 115.8 39.1783 115.085 38.9029L108.109 36.144C107.816 36.0285 107.564 35.8289 107.384 35.5701C107.204 35.3113 107.105 35.0048 107.098 34.6892L106.925 26.8291C106.941 26.1056 106.741 25.394 106.351 24.7854C105.961 24.1768 105.399 23.6991 104.737 23.4133C104.077 23.1394 103.349 23.0721 102.651 23.2201C101.952 23.3682 101.313 23.7248 100.82 24.2433L96.6246 28.4729C96.413 28.6855 96.1461 28.834 95.8545 28.9014C95.5628 28.9688 95.2582 28.9525 94.9753 28.8542L88.0115 26.4318H87.9828C87.3304 26.2186 86.632 26.1915 85.9652 26.3533C85.2984 26.5152 84.6894 26.8598 84.206 27.3487C83.7225 27.8376 83.3837 28.4516 83.2271 29.1225C83.0704 29.7934 83.1022 30.4947 83.3189 31.1485L85.7274 38.1499C85.8252 38.434 85.8415 38.74 85.7744 39.0329C85.7072 39.3259 85.5594 39.5939 85.3478 39.8065L81.1305 44.0298C80.6138 44.5254 80.2586 45.1667 80.1117 45.869C79.9648 46.5714 80.033 47.302 80.3075 47.9646C80.6002 48.6143 81.0723 49.166 81.6676 49.5545C82.263 49.9429 82.9567 50.1518 83.6666 50.1564L91.5365 50.3326C91.8508 50.3389 92.1563 50.4384 92.4146 50.6185C92.6728 50.7987 92.8723 51.0515 92.9879 51.3451L95.7282 58.3401C95.9909 59.0262 96.4556 59.6154 97.0604 60.0294C97.6651 60.4433 98.3811 60.6622 99.1128 60.6568C99.1766 60.6568 99.2436 60.6568 99.3106 60.6568C100.09 60.6246 100.839 60.343 101.448 59.853C102.057 59.363 102.494 58.6903 102.695 57.9332L105.069 49.4001C105.142 49.1349 105.283 48.8932 105.477 48.6984C105.671 48.5036 105.912 48.3624 106.176 48.2883L114.674 45.9011C115.428 45.6986 116.098 45.2592 116.586 44.6469C117.074 44.0346 117.354 43.2817 117.385 42.4981Z" fill="#90C6EB"/>
<path d="M116.387 42.4364L116.387 42.4472L116.386 42.4581C116.363 43.0295 116.159 43.5781 115.804 44.0237C115.449 44.4693 114.962 44.7884 114.415 44.9352L114.415 44.9352L114.403 44.9383L105.905 47.3255C105.905 47.3255 105.905 47.3255 105.905 47.3255C105.475 47.4463 105.083 47.6763 104.768 47.9929C104.453 48.3095 104.225 48.7019 104.105 49.1321L104.105 49.1322L101.732 57.6652L101.732 57.6652L101.729 57.6762C101.582 58.2281 101.264 58.7177 100.821 59.0739C100.383 59.426 99.8469 59.6297 99.2883 59.6568H99.2883H99.2879H99.2875H99.2871H99.2867H99.2863H99.2859H99.2855H99.2851H99.2847H99.2843H99.2839H99.2836H99.2832H99.2828H99.2824H99.282H99.2816H99.2812H99.2808H99.2804H99.28H99.2796H99.2792H99.2788H99.2785H99.2781H99.2777H99.2773H99.2769H99.2765H99.2761H99.2757H99.2753H99.2749H99.2745H99.2741H99.2737H99.2734H99.273H99.2726H99.2722H99.2718H99.2714H99.271H99.2706H99.2702H99.2698H99.2694H99.269H99.2687H99.2683H99.2679H99.2675H99.2671H99.2667H99.2663H99.2659H99.2655H99.2651H99.2647H99.2643H99.264H99.2636H99.2632H99.2628H99.2624H99.262H99.2616H99.2612H99.2608H99.2604H99.26H99.2597H99.2593H99.2589H99.2585H99.2581H99.2577H99.2573H99.2569H99.2565H99.2561H99.2557H99.2553H99.255H99.2546H99.2542H99.2538H99.2534H99.253H99.2526H99.2522H99.2518H99.2514H99.251H99.2507H99.2503H99.2499H99.2495H99.2491H99.2487H99.2483H99.2479H99.2475H99.2471H99.2467H99.2464H99.246H99.2456H99.2452H99.2448H99.2444H99.244H99.2436H99.2432H99.2428H99.2425H99.2421H99.2417H99.2413H99.2409H99.2405H99.2401H99.2397H99.2393H99.2389H99.2386H99.2382H99.2378H99.2374H99.237H99.2366H99.2362H99.2358H99.2354H99.235H99.2346H99.2343H99.2339H99.2335H99.2331H99.2327H99.2323H99.2319H99.2315H99.2311H99.2308H99.2304H99.23H99.2296H99.2292H99.2288H99.2284H99.228H99.2276H99.2272H99.2269H99.2265H99.2261H99.2257H99.2253H99.2249H99.2245H99.2241H99.2237H99.2234H99.223H99.2226H99.2222H99.2218H99.2214H99.221H99.2206H99.2202H99.2199H99.2195H99.2191H99.2187H99.2183H99.2179H99.2175H99.2171H99.2167H99.2164H99.216H99.2156H99.2152H99.2148H99.2144H99.214H99.2136H99.2133H99.2129H99.2125H99.2121H99.2117H99.2113H99.2109H99.2105H99.2102H99.2098H99.2094H99.209H99.2086H99.2082H99.2078H99.2074H99.2071H99.2067H99.2063H99.2059H99.2055H99.2051H99.2047H99.2043H99.204H99.2036H99.2032H99.2028H99.2024H99.202H99.2016H99.2012H99.2009H99.2005H99.2001H99.1997H99.1993H99.1989H99.1985H99.1981H99.1978H99.1974H99.197H99.1966H99.1962H99.1958H99.1954H99.1951H99.1947H99.1943H99.1939H99.1935H99.1931H99.1927H99.1924H99.192H99.1916H99.1912H99.1908H99.1904H99.19H99.1897H99.1893H99.1889H99.1885H99.1881H99.1877H99.1873H99.187H99.1866H99.1862H99.1858H99.1854H99.185H99.1846H99.1843H99.1839H99.1835H99.1831H99.1827H99.1823H99.1819H99.1816H99.1812H99.1808H99.1804H99.18H99.1796H99.1793H99.1789H99.1785H99.1781H99.1777H99.1773H99.177H99.1766H99.1762H99.1758H99.1754H99.175H99.1746H99.1743H99.1739H99.1735H99.1731H99.1727H99.1723H99.172H99.1716H99.1712H99.1708H99.1704H99.17H99.1697H99.1693H99.1689H99.1685H99.1681H99.1677H99.1674H99.167H99.1666H99.1662H99.1658H99.1654H99.1651H99.1647H99.1643H99.1639H99.1635H99.1632H99.1628H99.1624H99.162H99.1616H99.1612H99.1609H99.1605H99.1601H99.1597H99.1593H99.159H99.1586H99.1582H99.1578H99.1574H99.157H99.1567H99.1563H99.1559H99.1555H99.1551H99.1548H99.1544H99.154H99.1536H99.1532H99.1529H99.1525H99.1521H99.1517H99.1513H99.1509H99.1506H99.1502H99.1498H99.1494H99.149H99.1487H99.1483H99.1479H99.1475H99.1471H99.1468H99.1464H99.146H99.1456H99.1452H99.1449H99.1445H99.1441H99.1437H99.1434H99.143H99.1426H99.1422H99.1418H99.1415H99.1411H99.1407H99.1403H99.1399H99.1396H99.1392H99.1388H99.1384H99.138H99.1377H99.1373H99.1369H99.1365H99.1362H99.1358H99.1354H99.135H99.1346H99.1343H99.1339H99.1335H99.1331H99.1328H99.1324H99.132H99.1316H99.1312H99.1309H99.1305H99.1301H99.1297H99.1294H99.129H99.1286H99.1282H99.1279H99.1275H99.1271H99.1267H99.1263H99.126H99.1256H99.1252H99.1248H99.1245H99.1241H99.1237H99.1233H99.123H99.1226H99.1222H99.1218H99.1215H99.1211H99.1207H99.1203H99.12H99.1196H99.1192H99.1188H99.1185H99.1181H99.1177H99.1173H99.117H99.1166H99.1162H99.1158H99.1155H99.1151H99.1147H99.1143H99.114H99.1136H99.1132L99.1128 59.6568L99.1055 59.6568C98.5782 59.6607 98.0618 59.503 97.6252 59.2042C97.1886 58.9053 96.8523 58.4793 96.6621 57.9825L96.6621 57.9825L96.6593 57.9754L93.9191 50.9804L93.9184 50.9788C93.7308 50.5023 93.4069 50.0915 92.9867 49.7984C92.567 49.5056 92.0702 49.3435 91.5585 49.3328C91.5578 49.3328 91.5571 49.3328 91.5565 49.3328L83.689 49.1566L83.681 49.1564L83.673 49.1564C83.1553 49.1531 82.6489 49.0007 82.214 48.717C81.7834 48.436 81.4405 48.0376 81.2256 47.5678C81.033 47.0949 80.9858 46.5744 81.0905 46.0738C81.1963 45.5682 81.4518 45.1073 81.8228 44.7514L81.8305 44.744L81.8381 44.7364L86.0554 40.5131L86.0564 40.5121C86.4004 40.1666 86.6402 39.7313 86.7491 39.2563C86.8579 38.7814 86.8316 38.2853 86.673 37.8246C86.673 37.8245 86.6729 37.8244 86.6729 37.8243L84.2665 30.829C84.1093 30.3516 84.0865 29.8396 84.2009 29.3498C84.3156 28.8584 84.5637 28.4091 84.917 28.0518C85.2703 27.6945 85.7149 27.4431 86.2011 27.3251C86.6872 27.2071 87.1964 27.2269 87.6721 27.3823L87.8235 27.4318H87.8425L94.6468 29.7987L94.6472 29.7988C95.108 29.9589 95.6045 29.9856 96.0797 29.8757C96.555 29.7658 96.9893 29.524 97.3333 29.1784L97.3346 29.1771L101.53 24.9474L101.537 24.9403L101.544 24.933C101.899 24.5603 102.357 24.3046 102.858 24.1984C103.356 24.0928 103.875 24.1401 104.347 24.3343C104.823 24.5411 105.227 24.8857 105.509 25.3248C105.791 25.7661 105.937 26.2825 105.926 26.8079L105.925 26.8295L105.926 26.851L106.098 34.7112L106.098 34.7119C106.109 35.2234 106.271 35.7206 106.563 36.1408C106.855 36.561 107.265 36.8858 107.741 37.0739C107.741 37.074 107.741 37.0741 107.742 37.0742L114.718 39.8328L114.718 39.8328L114.726 39.8359C115.241 40.0345 115.68 40.3933 115.979 40.861C116.279 41.3287 116.422 41.8806 116.387 42.4364Z" stroke="#264887" stroke-width="2"/>
</g>
<path d="M77.3139 22.4126C76.7864 22.417 76.278 22.2135 75.8978 21.8454L71.1175 17.0437C70.7514 16.6614 70.5487 16.1498 70.5535 15.6185C70.5584 15.0862 70.7712 14.5774 71.1456 14.2017C71.52 13.826 72.026 13.6133 72.5544 13.609C73.0819 13.6046 73.5903 13.8081 73.9705 14.1762L78.7508 18.9778C79.1169 19.3602 79.3196 19.8718 79.3148 20.4031C79.3099 20.9354 79.0971 21.4442 78.7227 21.8199C78.3483 22.1956 77.8423 22.4083 77.3139 22.4126Z" fill="#B5D9F1" stroke="#EBF5FB" stroke-width="0.75"/>
<path d="M96.2961 20.2466C95.9176 20.6267 95.4046 20.84 94.87 20.84C94.3355 20.84 93.8225 20.6267 93.444 20.2466C93.0655 19.8663 92.8525 19.3503 92.8525 18.8118V12.4032C92.8525 11.8648 93.0655 11.3487 93.444 10.9685C93.8225 10.5883 94.3355 10.375 94.87 10.375C95.4046 10.375 95.9176 10.5883 96.2961 10.9685C96.6746 11.3487 96.8876 11.8648 96.8876 12.4032V18.8118C96.8876 19.3503 96.6746 19.8663 96.2961 20.2466Z" fill="#B5D9F1" stroke="#EBF5FB" stroke-width="0.75"/>
<path d="M65.422 32.0779C65.0004 32.4098 64.7267 32.8964 64.6618 33.4309C64.5968 33.9654 64.746 34.5034 65.0759 34.9265C65.4058 35.3496 65.8893 35.6232 66.42 35.6876L72.7535 36.4571C73.2842 36.5215 73.8191 36.3717 74.2407 36.0399C74.6623 35.7081 74.936 35.2215 75.0009 34.687C75.0659 34.1525 74.9167 33.6145 74.5868 33.1914C74.2569 32.7683 73.7734 32.4947 73.2427 32.4302L66.9092 31.6608C66.3786 31.5963 65.8436 31.7462 65.422 32.0779Z" fill="#B5D9F1" stroke="#EBF5FB" stroke-width="0.75"/>
<g filter="url(#filter4_d_606_4234)">
<path d="M134.299 70.701L111.711 51.3111C111.468 51.1025 111.152 50.9914 110.827 51.0005C110.502 51.0097 110.193 51.1384 109.963 51.3603L107.372 53.8615C107.143 54.0832 107.01 54.381 107.001 54.6941C106.991 55.0071 107.106 55.3119 107.321 55.5462L127.412 77.3512C127.849 77.8447 128.388 78.2457 128.993 78.5288C129.599 78.8119 130.258 78.9711 130.93 78.9964C131.603 79.0217 132.273 78.9126 132.9 78.6758C133.526 78.439 134.095 78.0797 134.571 77.6206C135.047 77.1614 135.419 76.6122 135.664 76.0075C135.909 75.4028 136.023 74.7557 135.996 74.1068C135.97 73.4579 135.805 72.8212 135.512 72.2368C135.218 71.6524 134.803 71.1329 134.292 70.7108L134.299 70.701Z" fill="#264887"/>
<path d="M111.06 52.0697L111.06 52.0699L132.925 70.8395L132.906 70.864L133.655 71.482C134.061 71.8169 134.388 72.227 134.618 72.6854C134.848 73.1437 134.977 73.6413 134.997 74.1471C135.018 74.653 134.929 75.1582 134.737 75.6316C134.545 76.105 134.253 76.5376 133.876 76.901C133.5 77.2646 133.047 77.551 132.546 77.7404L132.9 78.6758L132.546 77.7404C132.045 77.9297 131.508 78.0174 130.968 77.9971C130.429 77.9768 129.9 77.849 129.417 77.6229C128.933 77.3968 128.506 77.0779 128.161 76.688L128.154 76.6807L128.148 76.6736L108.057 54.8694C108.057 54.8693 108.057 54.8692 108.057 54.8692C108.015 54.8237 107.999 54.7716 108 54.7243C108.002 54.6769 108.022 54.6246 108.067 54.5804C108.067 54.5803 108.067 54.5802 108.067 54.5802L110.658 52.0798L110.658 52.0797C110.705 52.0344 110.775 52.0024 110.855 52.0001C110.936 51.9979 111.009 52.0259 111.06 52.0697Z" stroke="#264887" stroke-width="2"/>
</g>
<defs>
<filter id="filter0_i_606_4234" x="50.8172" y="38" width="39.3091" height="36.6909" filterUnits="userSpaceOnUse" color-interpolation-filters="sRGB">
<feFlood flood-opacity="0" result="BackgroundImageFix"/>
<feBlend mode="normal" in="SourceGraphic" in2="BackgroundImageFix" result="shape"/>
<feColorMatrix in="SourceAlpha" type="matrix" values="0 0 0 0 0 0 0 0 0 0 0 0 0 0 0 0 0 0 127 0" result="hardAlpha"/>
<feOffset dx="-4" dy="-2"/>
<feComposite in2="hardAlpha" operator="arithmetic" k2="-1" k3="1"/>
<feColorMatrix type="matrix" values="0 0 0 0 0.760784 0 0 0 0 0.878431 0 0 0 0 0.956863 0 0 0 1 0"/>
<feBlend mode="normal" in2="shape" result="effect1_innerShadow_606_4234"/>
</filter>
<filter id="filter1_i_606_4234" x="42.9633" y="70.7273" width="54.3637" height="41.2727" filterUnits="userSpaceOnUse" color-interpolation-filters="sRGB">
<feFlood flood-opacity="0" result="BackgroundImageFix"/>
<feBlend mode="normal" in="SourceGraphic" in2="BackgroundImageFix" result="shape"/>
<feColorMatrix in="SourceAlpha" type="matrix" values="0 0 0 0 0 0 0 0 0 0 0 0 0 0 0 0 0 0 127 0" result="hardAlpha"/>
<feOffset dx="7" dy="-7"/>
<feComposite in2="hardAlpha" operator="arithmetic" k2="-1" k3="1"/>
<feColorMatrix type="matrix" values="0 0 0 0 0.760784 0 0 0 0 0.878431 0 0 0 0 0.956863 0 0 0 1 0"/>
<feBlend mode="normal" in2="shape" result="effect1_innerShadow_606_4234"/>
</filter>
<filter id="filter2_i_606_4234" x="63.2543" y="84.4727" width="15.0909" height="15.0909" filterUnits="userSpaceOnUse" color-interpolation-filters="sRGB">
<feFlood flood-opacity="0" result="BackgroundImageFix"/>
<feBlend mode="normal" in="SourceGraphic" in2="BackgroundImageFix" result="shape"/>
<feColorMatrix in="SourceAlpha" type="matrix" values="0 0 0 0 0 0 0 0 0 0 0 0 0 0 0 0 0 0 127 0" result="hardAlpha"/>
<feOffset dx="4" dy="-2"/>
<feComposite in2="hardAlpha" operator="arithmetic" k2="-1" k3="1"/>
<feColorMatrix type="matrix" values="0 0 0 0 0.760784 0 0 0 0 0.878431 0 0 0 0 0.956863 0 0 0 1 0"/>
<feBlend mode="normal" in2="shape" result="effect1_innerShadow_606_4234"/>
</filter>
<filter id="filter3_di_606_4234" x="77.0361" y="22.1434" width="40.3563" height="38.5135" filterUnits="userSpaceOnUse" color-interpolation-filters="sRGB">
<feFlood flood-opacity="0" result="BackgroundImageFix"/>
<feColorMatrix in="SourceAlpha" type="matrix" values="0 0 0 0 0 0 0 0 0 0 0 0 0 0 0 0 0 0 127 0" result="hardAlpha"/>
<feOffset dx="-3" dy="-1"/>
<feColorMatrix type="matrix" values="0 0 0 0 0 0 0 0 0 0 0 0 0 0 0 0 0 0 0.1 0"/>
<feBlend mode="normal" in2="BackgroundImageFix" result="effect1_dropShadow_606_4234"/>
<feBlend mode="normal" in="SourceGraphic" in2="effect1_dropShadow_606_4234" result="shape"/>
<feColorMatrix in="SourceAlpha" type="matrix" values="0 0 0 0 0 0 0 0 0 0 0 0 0 0 0 0 0 0 127 0" result="hardAlpha"/>
<feOffset dx="-4" dy="-1"/>
<feComposite in2="hardAlpha" operator="arithmetic" k2="-1" k3="1"/>
<feColorMatrix type="matrix" values="0 0 0 0 0.709804 0 0 0 0 0.85098 0 0 0 0 0.945098 0 0 0 1 0"/>
<feBlend mode="normal" in2="shape" result="effect2_innerShadow_606_4234"/>
</filter>
<filter id="filter4_d_606_4234" x="104" y="51" width="32" height="28" filterUnits="userSpaceOnUse" color-interpolation-filters="sRGB">
<feFlood flood-opacity="0" result="BackgroundImageFix"/>
<feColorMatrix in="SourceAlpha" type="matrix" values="0 0 0 0 0 0 0 0 0 0 0 0 0 0 0 0 0 0 127 0" result="hardAlpha"/>
<feOffset dx="-3"/>
<feColorMatrix type="matrix" values="0 0 0 0 0 0 0 0 0 0 0 0 0 0 0 0 0 0 0.1 0"/>
<feBlend mode="normal" in2="BackgroundImageFix" result="effect1_dropShadow_606_4234"/>
<feBlend mode="normal" in="SourceGraphic" in2="effect1_dropShadow_606_4234" result="shape"/>
</filter>
</defs>
</svg>
