<svg width="16" height="16" viewBox="0 0 16 16" fill="none" xmlns="http://www.w3.org/2000/svg">
<path d="M0.333496 11.9993C0.333496 12.353 0.473972 12.6921 0.72402 12.9422C0.974069 13.1922 1.31321 13.3327 1.66683 13.3327H14.3335C14.6871 13.3327 15.0263 13.1922 15.2763 12.9422C15.5264 12.6921 15.6668 12.353 15.6668 11.9993V6.33268C15.6668 6.28848 15.6493 6.24609 15.618 6.21483C15.5868 6.18357 15.5444 6.16602 15.5002 6.16602H0.500163C0.45596 6.16602 0.413568 6.18357 0.382312 6.21483C0.351056 6.24609 0.333496 6.28848 0.333496 6.33268V11.9993ZM11.3335 10.4993H13.3335C13.4661 10.4993 13.5933 10.552 13.687 10.6458C13.7808 10.7396 13.8335 10.8667 13.8335 10.9993C13.8335 11.132 13.7808 11.2591 13.687 11.3529C13.5933 11.4467 13.4661 11.4993 13.3335 11.4993H11.3335C11.2009 11.4993 11.0737 11.4467 10.9799 11.3529C10.8862 11.2591 10.8335 11.132 10.8335 10.9993C10.8335 10.8667 10.8862 10.7396 10.9799 10.6458C11.0737 10.552 11.2009 10.4993 11.3335 10.4993ZM3.00016 7.83268H8.3335C8.4661 7.83268 8.59328 7.88536 8.68705 7.97913C8.78082 8.0729 8.8335 8.20007 8.8335 8.33268C8.8335 8.46529 8.78082 8.59247 8.68705 8.68624C8.59328 8.78 8.4661 8.83268 8.3335 8.83268H3.00016C2.86755 8.83268 2.74038 8.78 2.64661 8.68624C2.55284 8.59247 2.50016 8.46529 2.50016 8.33268C2.50016 8.20007 2.55284 8.0729 2.64661 7.97913C2.74038 7.88536 2.86755 7.83268 3.00016 7.83268ZM3.00016 10.4993H5.00016C5.13277 10.4993 5.25995 10.552 5.35372 10.6458C5.44748 10.7396 5.50016 10.8667 5.50016 10.9993C5.50016 11.132 5.44748 11.2591 5.35372 11.3529C5.25995 11.4467 5.13277 11.4993 5.00016 11.4993H3.00016C2.86755 11.4993 2.74038 11.4467 2.64661 11.3529C2.55284 11.2591 2.50016 11.132 2.50016 10.9993C2.50016 10.8667 2.55284 10.7396 2.64661 10.6458C2.74038 10.552 2.86755 10.4993 3.00016 10.4993Z" fill="#40526D"/>
<path d="M15.6668 3.99935C15.6668 3.64573 15.5264 3.30659 15.2763 3.05654C15.0263 2.80649 14.6871 2.66602 14.3335 2.66602H1.66683C1.31321 2.66602 0.974069 2.80649 0.72402 3.05654C0.473972 3.30659 0.333496 3.64573 0.333496 3.99935V4.99935C0.333496 5.04355 0.351056 5.08594 0.382312 5.1172C0.413568 5.14846 0.45596 5.16602 0.500163 5.16602H15.5002C15.5444 5.16602 15.5868 5.14846 15.618 5.1172C15.6493 5.08594 15.6668 5.04355 15.6668 4.99935V3.99935Z" fill="#40526D"/>
</svg>
