<svg width="16" height="16" viewBox="0 0 16 16" fill="none" xmlns="http://www.w3.org/2000/svg">
<g clip-path="url(#clip0_1979_180771)">
<path d="M1.76597 10.8239C1.72373 10.7817 1.67095 10.7517 1.61316 10.7369C1.55536 10.7222 1.49466 10.7232 1.43738 10.7399C1.38011 10.7566 1.32836 10.7883 1.28754 10.8318C1.24672 10.8753 1.21832 10.929 1.20531 10.9872L0.26264 15.2305C0.250432 15.2852 0.252218 15.3421 0.267833 15.396C0.283447 15.4498 0.312386 15.4988 0.351973 15.5385C0.391903 15.5778 0.440922 15.6065 0.494663 15.6222C0.548403 15.6379 0.605194 15.6401 0.659973 15.6285L4.90264 14.6859C4.96099 14.6729 5.01479 14.6445 5.0584 14.6037C5.10201 14.5628 5.13384 14.5109 5.15053 14.4536C5.16723 14.3962 5.16819 14.3353 5.15332 14.2775C5.13844 14.2196 5.10827 14.1667 5.06597 14.1245L1.76597 10.8239Z" fill="#40526D"/>
<path d="M11.9012 4.69685L4.59456 12.0035C4.56354 12.035 4.54614 12.0774 4.54614 12.1215C4.54614 12.1657 4.56354 12.2081 4.59456 12.2395L5.77323 13.4182C5.83632 13.4796 5.92087 13.5139 6.00889 13.5139C6.09691 13.5139 6.18146 13.4796 6.24456 13.4182L13.3159 6.34685C13.3784 6.28435 13.4135 6.19958 13.4135 6.11119C13.4135 6.0228 13.3784 5.93803 13.3159 5.87552L12.1372 4.69685C12.1058 4.66583 12.0634 4.64844 12.0192 4.64844C11.9751 4.64844 11.9327 4.66583 11.9012 4.69685V4.69685Z" fill="#40526D"/>
<path d="M11.1947 3.75411L10.016 2.57611C9.95349 2.51362 9.86872 2.47852 9.78033 2.47852C9.69194 2.47852 9.60717 2.51362 9.54466 2.57611L2.47333 9.64678C2.41084 9.70929 2.37573 9.79406 2.37573 9.88244C2.37573 9.97083 2.41084 10.0556 2.47333 10.1181L3.65199 11.2968C3.68343 11.3278 3.72583 11.3452 3.76999 11.3452C3.81416 11.3452 3.85656 11.3278 3.88799 11.2968L11.1947 3.99011C11.2257 3.95867 11.2431 3.91628 11.2431 3.87211C11.2431 3.82794 11.2257 3.78555 11.1947 3.75411V3.75411Z" fill="#40526D"/>
<path d="M14.9659 0.924583C14.4654 0.425068 13.7871 0.144531 13.0799 0.144531C12.3728 0.144531 11.6945 0.425068 11.1939 0.924583L10.7226 1.39592C10.6601 1.45843 10.625 1.54319 10.625 1.63158C10.625 1.71997 10.6601 1.80474 10.7226 1.86725L14.0226 5.16658C14.0862 5.22703 14.1705 5.26074 14.2583 5.26074C14.346 5.26074 14.4304 5.22703 14.4939 5.16658L14.9659 4.69525C15.4659 4.19518 15.7467 3.51702 15.7467 2.80992C15.7467 2.10281 15.4659 1.42466 14.9659 0.924583V0.924583Z" fill="#40526D"/>
</g>
<defs>
<clipPath id="clip0_1979_180771">
<rect width="16" height="16" fill="white" transform="translate(0 -0.109375)"/>
</clipPath>
</defs>
</svg>
