<svg width="125" height="125" viewBox="0 0 125 125" fill="none" xmlns="http://www.w3.org/2000/svg">
<path fill-rule="evenodd" clip-rule="evenodd" d="M62.5 125C97.0178 125 125 97.0178 125 62.5C125 27.9822 97.0178 0 62.5 0C27.9822 0 0 27.9822 0 62.5C0 97.0178 27.9822 125 62.5 125Z" fill="#EBF5FB"/>
<rect x="108.722" y="50.0566" width="4.16667" height="4.16667" stroke="#C2E0F4" stroke-width="2" stroke-linecap="round" stroke-linejoin="round"/>
<rect x="31.6992" y="20.0898" width="4.16667" height="4.16667" transform="rotate(-45 31.6992 20.0898)" stroke="#C2E0F4" stroke-width="2" stroke-linecap="round" stroke-linejoin="round"/>
<rect x="13.8628" y="42.8633" width="4.16667" height="4.16667" stroke="#C2E0F4" stroke-width="2" stroke-linecap="round" stroke-linejoin="round"/>
<path d="M97.0901 22.7303L101.049 26.6892" stroke="#C2E0F4" stroke-width="2" stroke-linecap="round"/>
<path d="M100.909 22.7303L96.9505 26.6892" stroke="#C2E0F4" stroke-width="2" stroke-linecap="round"/>
<g filter="url(#filter0_i_938_121487)">
<path fill-rule="evenodd" clip-rule="evenodd" d="M30 41.3164C30 39.1073 31.7909 37.3164 34 37.3164H90C92.2091 37.3164 94 39.1073 94 41.3164V96.8332C94 99.0423 92.2091 100.833 90 100.833H88.2592C87.6387 102.334 86.1592 103.39 84.4345 103.39C82.7097 103.39 81.2302 102.334 80.6097 100.833H44.7311C44.1107 102.334 42.6311 103.39 40.9064 103.39C39.1817 103.39 37.7021 102.334 37.0816 100.833H34C31.7909 100.833 30 99.0423 30 96.8332V41.3164Z" fill="white"/>
</g>
<path d="M88.2592 100.833V99.8332H87.5905L87.3351 100.451L88.2592 100.833ZM80.6097 100.833L81.5339 100.451L81.2784 99.8332H80.6097V100.833ZM44.7311 100.833V99.8332H44.0625L43.807 100.451L44.7311 100.833ZM37.0816 100.833L38.0058 100.451L37.7503 99.8332H37.0816V100.833ZM30.6582 37.5972C30.2475 37.9664 30.2138 38.5987 30.5831 39.0094C30.9523 39.4201 31.5846 39.4537 31.9953 39.0845L30.6582 37.5972ZM31.87 39.2038C32.2589 38.8117 32.2563 38.1786 31.8642 37.7896C31.4721 37.4007 30.8389 37.4033 30.45 37.7954L31.87 39.2038ZM30.4212 37.8247C30.0355 38.22 30.0432 38.8531 30.4385 39.2388C30.8338 39.6245 31.4669 39.6168 31.8526 39.2215L30.4212 37.8247ZM31.7681 39.3117C32.1373 38.901 32.1037 38.2687 31.693 37.8995C31.2823 37.5302 30.65 37.5639 30.2808 37.9746L31.7681 39.3117ZM29 67.1855C29 67.7378 29.4477 68.1855 30 68.1855C30.5523 68.1855 31 67.7378 31 67.1855H29ZM31 69.2201C31 68.6678 30.5523 68.2201 30 68.2201C29.4477 68.2201 29 68.6678 29 69.2201H31ZM29 69.5108C29 70.0631 29.4477 70.5108 30 70.5108C30.5523 70.5108 31 70.0631 31 69.5108H29ZM31 70.9641C31 70.4118 30.5523 69.9641 30 69.9641C29.4477 69.9641 29 70.4118 29 70.9641H31ZM30.2808 100.175C30.65 100.586 31.2823 100.619 31.693 100.25C32.1037 99.8809 32.1373 99.2486 31.7681 98.8379L30.2808 100.175ZM31.8874 98.9632C31.4953 98.5743 30.8622 98.5769 30.4732 98.969C30.0843 99.3611 30.0869 99.9943 30.479 100.383L31.8874 98.9632ZM30.5083 100.412C30.9036 100.798 31.5367 100.79 31.9224 100.395C32.3081 99.9994 32.3003 99.3662 31.9051 98.9805L30.5083 100.412ZM31.9953 99.065C31.5846 98.6958 30.9523 98.7294 30.5831 99.1402C30.2138 99.5509 30.2475 100.183 30.6582 100.552L31.9953 99.065ZM35.436 101.833C35.9882 101.833 36.436 101.385 36.436 100.833C36.436 100.281 35.9882 99.8332 35.436 99.8332V101.833ZM35.5489 99.8332C34.9966 99.8332 34.5489 100.281 34.5489 100.833C34.5489 101.385 34.9966 101.833 35.5489 101.833V99.8332ZM35.565 101.833C36.1173 101.833 36.565 101.385 36.565 100.833C36.565 100.281 36.1173 99.8332 35.565 99.8332V101.833ZM35.6457 99.8332C35.0934 99.8332 34.6457 100.281 34.6457 100.833C34.6457 101.385 35.0934 101.833 35.6457 101.833V99.8332ZM37.8807 103.405C38.3268 103.731 38.9524 103.633 39.2779 103.187C39.6035 102.741 39.5057 102.115 39.0596 101.789L37.8807 103.405ZM39.1709 101.867C38.7111 101.561 38.0904 101.686 37.7843 102.145C37.4783 102.605 37.6029 103.226 38.0626 103.532L39.1709 101.867ZM38.0891 103.549C38.5507 103.853 39.1707 103.724 39.4739 103.262C39.7771 102.801 39.6487 102.181 39.187 101.878L38.0891 103.549ZM39.2688 101.93C38.7981 101.641 38.1823 101.788 37.8935 102.259C37.6047 102.73 37.7522 103.345 38.2229 103.634L39.2688 101.93ZM43.5899 103.634C44.0606 103.345 44.2081 102.73 43.9193 102.259C43.6305 101.788 43.0147 101.641 42.544 101.93L43.5899 103.634ZM42.658 101.856C42.2002 102.165 42.0794 102.787 42.3882 103.244C42.6971 103.702 43.3186 103.823 43.7765 103.514L42.658 101.856ZM43.8027 103.496C44.2586 103.185 44.3756 102.562 44.0639 102.107C43.7522 101.651 43.13 101.534 42.674 101.845L43.8027 103.496ZM42.7532 101.789C42.3071 102.115 42.2093 102.741 42.5349 103.187C42.8604 103.633 43.486 103.731 43.9321 103.405L42.7532 101.789ZM61.4494 101.833C62.0017 101.833 62.4494 101.385 62.4494 100.833C62.4494 100.281 62.0017 99.8332 61.4494 99.8332V101.833ZM62.7644 99.8332C62.2121 99.8332 61.7644 100.281 61.7644 100.833C61.7644 101.385 62.2121 101.833 62.7644 101.833V99.8332ZM62.9522 101.833C63.5045 101.833 63.9522 101.385 63.9522 100.833C63.9522 100.281 63.5045 99.8332 62.9522 99.8332V101.833ZM63.8914 99.8332C63.3391 99.8332 62.8914 100.281 62.8914 100.833C62.8914 101.385 63.3391 101.833 63.8914 101.833V99.8332ZM81.4087 103.405C81.8549 103.731 82.4804 103.633 82.806 103.187C83.1315 102.741 83.0338 102.115 82.5877 101.789L81.4087 103.405ZM82.699 101.867C82.2392 101.561 81.6184 101.686 81.3124 102.145C81.0064 102.605 81.131 103.226 81.5907 103.532L82.699 101.867ZM81.6172 103.549C82.0788 103.853 82.6988 103.724 83.002 103.262C83.3052 102.801 83.1767 102.181 82.7151 101.878L81.6172 103.549ZM82.7969 101.93C82.3262 101.641 81.7104 101.788 81.4216 102.259C81.1328 102.73 81.2802 103.345 81.751 103.634L82.7969 101.93ZM87.118 103.634C87.5887 103.345 87.7362 102.73 87.4474 102.259C87.1585 101.788 86.5428 101.641 86.072 101.93L87.118 103.634ZM86.1861 101.856C85.7282 102.165 85.6075 102.787 85.9163 103.244C86.2252 103.702 86.8467 103.823 87.3046 103.514L86.1861 101.856ZM87.3308 103.496C87.7867 103.185 87.9037 102.562 87.592 102.107C87.2803 101.651 86.6581 101.534 86.2021 101.845L87.3308 103.496ZM86.2813 101.789C85.8352 102.115 85.7374 102.741 86.063 103.187C86.3885 103.633 87.0141 103.731 87.4602 103.405L86.2813 101.789ZM89.0704 101.833C89.6227 101.833 90.0704 101.385 90.0704 100.833C90.0704 100.281 89.6227 99.8332 89.0704 99.8332V101.833ZM89.1342 99.8332C88.5819 99.8332 88.1342 100.281 88.1342 100.833C88.1342 101.385 88.5819 101.833 89.1342 101.833V99.8332ZM89.1433 101.833C89.6956 101.833 90.1433 101.385 90.1433 100.833C90.1433 100.281 89.6956 99.8332 89.1433 99.8332V101.833ZM89.1889 99.8332C88.6366 99.8332 88.1889 100.281 88.1889 100.833C88.1889 101.385 88.6366 101.833 89.1889 101.833V99.8332ZM93.3418 100.552C93.7525 100.183 93.7862 99.5509 93.4169 99.1402C93.0477 98.7294 92.4154 98.6958 92.0047 99.065L93.3418 100.552ZM92.13 98.9457C91.7411 99.3378 91.7437 99.971 92.1358 100.36C92.5279 100.749 93.1611 100.746 93.55 100.354L92.13 98.9457ZM93.5788 100.325C93.9645 99.9296 93.9568 99.2965 93.5615 98.9108C93.1662 98.525 92.5331 98.5328 92.1474 98.9281L93.5788 100.325ZM92.2319 98.8379C91.8627 99.2486 91.8963 99.8809 92.307 100.25C92.7177 100.619 93.35 100.586 93.7192 100.175L92.2319 98.8379ZM95 70.9641C95 70.4118 94.5523 69.9641 94 69.9641C93.4477 69.9641 93 70.4118 93 70.9641H95ZM93 68.9294C93 69.4817 93.4477 69.9294 94 69.9294C94.5523 69.9294 95 69.4817 95 68.9294H93ZM95 68.6388C95 68.0865 94.5523 67.6388 94 67.6388C93.4477 67.6388 93 68.0865 93 68.6388H95ZM93 67.1855C93 67.7378 93.4477 68.1855 94 68.1855C94.5523 68.1855 95 67.7378 95 67.1855H93ZM93.7192 37.9746C93.35 37.5639 92.7177 37.5302 92.307 37.8995C91.8963 38.2687 91.8627 38.901 92.2319 39.3117L93.7192 37.9746ZM92.1126 39.1864C92.5047 39.5753 93.1378 39.5727 93.5268 39.1806C93.9157 38.7885 93.9131 38.1553 93.521 37.7664L92.1126 39.1864ZM93.4917 37.7376C93.0964 37.3519 92.4633 37.3596 92.0776 37.7549C91.6919 38.1502 91.6997 38.7833 92.0949 39.169L93.4917 37.7376ZM92.0047 39.0845C92.4154 39.4537 93.0477 39.4201 93.4169 39.0094C93.7862 38.5987 93.7525 37.9664 93.3418 37.5972L92.0047 39.0845ZM63.9058 36.3164C63.3535 36.3164 62.9058 36.7641 62.9058 37.3164C62.9058 37.8687 63.3535 38.3164 63.9058 38.3164V36.3164ZM61.8534 38.3164C62.4057 38.3164 62.8534 37.8687 62.8534 37.3164C62.8534 36.7641 62.4057 36.3164 61.8534 36.3164V38.3164ZM61.5602 36.3164C61.0079 36.3164 60.5602 36.7641 60.5602 37.3164C60.5602 37.8687 61.0079 38.3164 61.5602 38.3164V36.3164ZM60.0942 38.3164C60.6465 38.3164 61.0942 37.8687 61.0942 37.3164C61.0942 36.7641 60.6465 36.3164 60.0942 36.3164V38.3164ZM34 36.3164C32.716 36.3164 31.5431 36.8017 30.6582 37.5972L31.9953 39.0845C32.5273 38.6062 33.2286 38.3164 34 38.3164V36.3164ZM30.45 37.7954C30.4403 37.8051 30.4307 37.8149 30.4212 37.8247L31.8526 39.2215C31.8584 39.2156 31.8642 39.2097 31.87 39.2038L30.45 37.7954ZM30.2808 37.9746C29.4853 38.8595 29 40.0325 29 41.3164H31C31 40.545 31.2898 39.8437 31.7681 39.3117L30.2808 37.9746ZM29 41.3164V67.1855H31V41.3164H29ZM29 69.2201V69.5108H31V69.2201H29ZM29 70.9641V96.8332H31V70.9641H29ZM29 96.8332C29 98.1171 29.4853 99.2901 30.2808 100.175L31.7681 98.8379C31.2898 98.3058 31 97.6045 31 96.8332H29ZM30.479 100.383C30.4887 100.393 30.4985 100.402 30.5083 100.412L31.9051 98.9805C31.8992 98.9748 31.8933 98.969 31.8874 98.9632L30.479 100.383ZM30.6582 100.552C31.5431 101.348 32.716 101.833 34 101.833V99.8332C33.2286 99.8332 32.5273 99.5433 31.9953 99.065L30.6582 100.552ZM34 101.833H35.436V99.8332H34V101.833ZM35.5489 101.833H35.565V99.8332H35.5489V101.833ZM35.6457 101.833H37.0816V99.8332H35.6457V101.833ZM36.1575 101.215C36.5217 102.096 37.1229 102.852 37.8807 103.405L39.0596 101.789C38.5949 101.45 38.2275 100.987 38.0058 100.451L36.1575 101.215ZM38.0626 103.532C38.0714 103.538 38.0802 103.544 38.0891 103.549L39.187 101.878C39.1816 101.874 39.1763 101.871 39.1709 101.867L38.0626 103.532ZM38.2229 103.634C39.0046 104.114 39.9249 104.39 40.9064 104.39V102.39C40.3047 102.39 39.745 102.222 39.2688 101.93L38.2229 103.634ZM40.9064 104.39C41.8879 104.39 42.8081 104.114 43.5899 103.634L42.544 101.93C42.0678 102.222 41.5081 102.39 40.9064 102.39V104.39ZM43.7765 103.514C43.7852 103.508 43.794 103.502 43.8027 103.496L42.674 101.845C42.6687 101.849 42.6634 101.853 42.658 101.856L43.7765 103.514ZM43.9321 103.405C44.6899 102.852 45.2911 102.096 45.6553 101.215L43.807 100.451C43.5853 100.987 43.2179 101.45 42.7532 101.789L43.9321 103.405ZM44.7311 101.833H61.4494V99.8332H44.7311V101.833ZM62.7644 101.833H62.9522V99.8332H62.7644V101.833ZM63.8914 101.833H80.6097V99.8332H63.8914V101.833ZM79.6856 101.215C80.0497 102.096 80.651 102.852 81.4087 103.405L82.5877 101.789C82.123 101.45 81.7555 100.987 81.5339 100.451L79.6856 101.215ZM81.5907 103.532C81.5995 103.538 81.6083 103.544 81.6172 103.549L82.7151 101.878C82.7097 101.874 82.7043 101.871 82.699 101.867L81.5907 103.532ZM81.751 103.634C82.5327 104.114 83.453 104.39 84.4345 104.39V102.39C83.8327 102.39 83.2731 102.222 82.7969 101.93L81.751 103.634ZM84.4345 104.39C85.416 104.39 86.3362 104.114 87.118 103.634L86.072 101.93C85.5959 102.222 85.0362 102.39 84.4345 102.39V104.39ZM87.3046 103.514C87.3133 103.508 87.3221 103.502 87.3308 103.496L86.2021 101.845C86.1968 101.849 86.1914 101.853 86.1861 101.856L87.3046 103.514ZM87.4602 103.405C88.218 102.852 88.8192 102.096 89.1834 101.215L87.3351 100.451C87.1134 100.987 86.746 101.45 86.2813 101.789L87.4602 103.405ZM88.2592 101.833H89.0704V99.8332H88.2592V101.833ZM89.1342 101.833H89.1433V99.8332H89.1342V101.833ZM89.1889 101.833H90V99.8332H89.1889V101.833ZM90 101.833C91.284 101.833 92.4569 101.348 93.3418 100.552L92.0047 99.065C91.4727 99.5433 90.7714 99.8332 90 99.8332V101.833ZM93.55 100.354C93.5597 100.344 93.5693 100.335 93.5788 100.325L92.1474 98.9281C92.1416 98.934 92.1358 98.9399 92.13 98.9457L93.55 100.354ZM93.7192 100.175C94.5147 99.2901 95 98.1171 95 96.8332H93C93 97.6045 92.7102 98.3058 92.2319 98.8379L93.7192 100.175ZM95 96.8332V70.9641H93V96.8332H95ZM95 68.9294V68.6388H93V68.9294H95ZM95 67.1855V41.3164H93V67.1855H95ZM95 41.3164C95 40.0325 94.5147 38.8595 93.7192 37.9746L92.2319 39.3117C92.7102 39.8437 93 40.545 93 41.3164H95ZM93.521 37.7664C93.5113 37.7567 93.5015 37.7471 93.4917 37.7376L92.0949 39.169C92.1008 39.1748 92.1067 39.1806 92.1126 39.1864L93.521 37.7664ZM93.3418 37.5972C92.4569 36.8017 91.284 36.3164 90 36.3164V38.3164C90.7714 38.3164 91.4727 38.6062 92.0047 39.0845L93.3418 37.5972ZM90 36.3164H63.9058V38.3164H90V36.3164ZM61.8534 36.3164H61.5602V38.3164H61.8534V36.3164ZM60.0942 36.3164H34V38.3164H60.0942V36.3164Z" fill="#264887"/>
<path fill-rule="evenodd" clip-rule="evenodd" d="M36.8115 45.4062C36.8115 44.3017 37.707 43.4062 38.8115 43.4062H85.548C86.6525 43.4062 87.548 44.3017 87.548 45.4062V91.8132C87.548 92.9178 86.6525 93.8132 85.548 93.8132H38.8115C37.707 93.8132 36.8115 92.9178 36.8115 91.8132V45.4062Z" fill="#264887" stroke="#264887" stroke-width="2" stroke-linecap="round" stroke-linejoin="round"/>
<g filter="url(#filter1_i_938_121487)">
<path fill-rule="evenodd" clip-rule="evenodd" d="M41.5796 42.7012C41.5796 41.5966 42.475 40.7012 43.5796 40.7012H49.1156C50.2201 40.7012 51.1156 41.5966 51.1156 42.7012V95.5455C51.1156 96.6501 50.2201 97.5455 49.1156 97.5455H43.5796C42.475 97.5455 41.5796 96.6501 41.5796 95.5455V42.7012Z" fill="white"/>
</g>
<path fill-rule="evenodd" clip-rule="evenodd" d="M41.5796 42.7012C41.5796 41.5966 42.475 40.7012 43.5796 40.7012H49.1156C50.2201 40.7012 51.1156 41.5966 51.1156 42.7012V95.5455C51.1156 96.6501 50.2201 97.5455 49.1156 97.5455H43.5796C42.475 97.5455 41.5796 96.6501 41.5796 95.5455V42.7012Z" stroke="#3C4862" stroke-width="2" stroke-linecap="round" stroke-linejoin="round"/>
<g filter="url(#filter2_i_938_121487)">
<path fill-rule="evenodd" clip-rule="evenodd" d="M47.7095 39.3859C47.7095 37.6774 45.7056 36.7555 44.4082 37.8671L37.5099 43.7775C37.0665 44.1574 36.8112 44.7123 36.8112 45.2963V92.2726C36.8112 92.8324 37.0458 93.3666 37.458 93.7453L44.3562 100.084C45.6385 101.262 47.7095 100.353 47.7095 98.6113V39.3859Z" fill="white"/>
</g>
<path fill-rule="evenodd" clip-rule="evenodd" d="M47.7095 39.3859C47.7095 37.6774 45.7056 36.7555 44.4082 37.8671L37.5099 43.7775C37.0665 44.1574 36.8112 44.7123 36.8112 45.2963V92.2726C36.8112 92.8324 37.0458 93.3666 37.458 93.7453L44.3562 100.084C45.6385 101.262 47.7095 100.353 47.7095 98.6113V39.3859Z" stroke="#264887" stroke-width="2" stroke-linecap="round" stroke-linejoin="round"/>
<g filter="url(#filter3_i_938_121487)">
<path fill-rule="evenodd" clip-rule="evenodd" d="M33.4292 50.7984C33.4292 49.4298 34.5387 48.3203 35.9073 48.3203C37.2759 48.3203 38.3854 49.4298 38.3854 50.7984V57.6661C38.3854 59.0347 37.2759 60.1442 35.9073 60.1442C34.5387 60.1442 33.4292 59.0347 33.4292 57.6661V50.7984Z" fill="white"/>
</g>
<path fill-rule="evenodd" clip-rule="evenodd" d="M33.4292 50.7984C33.4292 49.4298 34.5387 48.3203 35.9073 48.3203C37.2759 48.3203 38.3854 49.4298 38.3854 50.7984V57.6661C38.3854 59.0347 37.2759 60.1442 35.9073 60.1442C34.5387 60.1442 33.4292 59.0347 33.4292 57.6661V50.7984Z" stroke="#264887" stroke-width="2" stroke-linecap="round" stroke-linejoin="round"/>
<g filter="url(#filter4_i_938_121487)">
<path fill-rule="evenodd" clip-rule="evenodd" d="M33.4292 80.5719C33.4292 79.2032 34.5387 78.0938 35.9073 78.0938C37.2759 78.0938 38.3854 79.2032 38.3854 80.5719V87.4395C38.3854 88.8081 37.2759 89.9176 35.9073 89.9176C34.5387 89.9176 33.4292 88.8081 33.4292 87.4395V80.5719Z" fill="white"/>
</g>
<path fill-rule="evenodd" clip-rule="evenodd" d="M33.4292 80.5719C33.4292 79.2032 34.5387 78.0938 35.9073 78.0938C37.2759 78.0938 38.3854 79.2032 38.3854 80.5719V87.4395C38.3854 88.8081 37.2759 89.9176 35.9073 89.9176C34.5387 89.9176 33.4292 88.8081 33.4292 87.4395V80.5719Z" stroke="#264887" stroke-width="2" stroke-linecap="round" stroke-linejoin="round"/>
<g filter="url(#filter5_i_938_121487)">
<path fill-rule="evenodd" clip-rule="evenodd" d="M42.5197 75.8898C43.4154 75.8898 44.1415 72.8601 44.1415 69.1226C44.1415 65.3852 43.4154 62.3555 42.5197 62.3555C41.624 62.3555 40.8979 65.3852 40.8979 69.1226C40.8979 72.8601 41.624 75.8898 42.5197 75.8898Z" fill="white"/>
</g>
<path d="M42.5197 76.8898C43.3363 76.8898 43.8058 76.2308 44.021 75.851C44.2813 75.3917 44.4825 74.7935 44.6389 74.1408C44.9555 72.8197 45.1415 71.046 45.1415 69.1226C45.1415 67.1993 44.9555 65.4256 44.6389 64.1045C44.4825 63.4518 44.2813 62.8536 44.021 62.3943C43.8058 62.0145 43.3363 61.3555 42.5197 61.3555C41.7031 61.3555 41.2336 62.0145 41.0184 62.3943C40.7582 62.8536 40.5569 63.4518 40.4005 64.1045C40.0839 65.4256 39.8979 67.1993 39.8979 69.1226C39.8979 71.046 40.0839 72.8197 40.4005 74.1408C40.5569 74.7935 40.7582 75.3917 41.0184 75.851C41.2336 76.2308 41.7031 76.8898 42.5197 76.8898Z" stroke="#264887" stroke-width="2"/>
<g filter="url(#filter6_d_938_121487)">
<path d="M40.4361 71.754C41.0995 71.754 41.4244 71.2254 41.5084 71.0774C41.6372 70.8507 41.72 70.589 41.7768 70.3523C41.8943 69.8631 41.9571 69.2388 41.9571 68.585C41.9571 67.9313 41.8943 67.3069 41.7768 66.8177C41.72 66.581 41.6372 66.3193 41.5084 66.0926C41.4244 65.9447 41.0995 65.416 40.4361 65.416C39.7726 65.416 39.4477 65.9447 39.3637 66.0926C39.2349 66.3193 39.1522 66.581 39.0953 66.8177C38.9778 67.3069 38.915 67.9313 38.915 68.585C38.915 69.2388 38.9778 69.8631 39.0953 70.3523C39.1522 70.589 39.2349 70.8507 39.3637 71.0774C39.4477 71.2254 39.7726 71.754 40.4361 71.754Z" fill="#D32D27" stroke="#D32D27" stroke-width="2"/>
<path d="M40.0567 71.754C40.7201 71.754 41.045 71.2254 41.129 71.0774C41.2578 70.8507 41.3406 70.589 41.3974 70.3523C41.515 69.8631 41.5777 69.2388 41.5777 68.585C41.5777 67.9313 41.515 67.3069 41.3974 66.8177C41.3406 66.581 41.2578 66.3193 41.129 66.0926C41.045 65.9447 40.7201 65.416 40.0567 65.416C39.3932 65.416 39.0683 65.9447 38.9843 66.0926C38.8556 66.3193 38.7728 66.581 38.7159 66.8177C38.5984 67.3069 38.5356 67.9313 38.5356 68.585C38.5356 69.2388 38.5984 69.8631 38.7159 70.3523C38.7728 70.589 38.8556 70.8507 38.9843 71.0774C39.0683 71.2254 39.3932 71.754 40.0567 71.754Z" fill="#D32D27" stroke="#D32D27" stroke-width="2"/>
<path d="M40.8979 71.8301L42.8827 76.1681" stroke="#D32D27" stroke-width="3" stroke-linecap="round"/>
<path d="M39.8763 70.8149L38.8546 76.168" stroke="#D32D27" stroke-width="3" stroke-linecap="round"/>
<path d="M40.1581 61.002L40.2168 65.34" stroke="#D32D27" stroke-width="3" stroke-linecap="round"/>
</g>
<path d="M30.9165 105.39H93.4165" stroke="#004590" stroke-width="2" stroke-linecap="round" stroke-dasharray="1 6 164 5"/>
<path fill-rule="evenodd" clip-rule="evenodd" d="M13.8334 23.119C14.9617 23.119 15.8763 22.2022 15.8763 21.0712C15.8763 19.9403 14.9617 19.0234 13.8334 19.0234C12.7052 19.0234 11.7905 19.9403 11.7905 21.0712C11.7905 22.2022 12.7052 23.119 13.8334 23.119Z" stroke="#B5D9F1" stroke-width="2.20447" stroke-linecap="round" stroke-linejoin="round"/>
<defs>
<filter id="filter0_i_938_121487" x="29" y="36.3164" width="66" height="68.0742" filterUnits="userSpaceOnUse" color-interpolation-filters="sRGB">
<feFlood flood-opacity="0" result="BackgroundImageFix"/>
<feBlend mode="normal" in="SourceGraphic" in2="BackgroundImageFix" result="shape"/>
<feColorMatrix in="SourceAlpha" type="matrix" values="0 0 0 0 0 0 0 0 0 0 0 0 0 0 0 0 0 0 127 0" result="hardAlpha"/>
<feOffset dy="-4"/>
<feComposite in2="hardAlpha" operator="arithmetic" k2="-1" k3="1"/>
<feColorMatrix type="matrix" values="0 0 0 0 0.760784 0 0 0 0 0.878431 0 0 0 0 0.956863 0 0 0 1 0"/>
<feBlend mode="normal" in2="shape" result="effect1_innerShadow_938_121487"/>
</filter>
<filter id="filter1_i_938_121487" x="40.5796" y="39.7012" width="11.5361" height="58.8438" filterUnits="userSpaceOnUse" color-interpolation-filters="sRGB">
<feFlood flood-opacity="0" result="BackgroundImageFix"/>
<feBlend mode="normal" in="SourceGraphic" in2="BackgroundImageFix" result="shape"/>
<feColorMatrix in="SourceAlpha" type="matrix" values="0 0 0 0 0 0 0 0 0 0 0 0 0 0 0 0 0 0 127 0" result="hardAlpha"/>
<feOffset dx="-5" dy="-6"/>
<feComposite in2="hardAlpha" operator="arithmetic" k2="-1" k3="1"/>
<feColorMatrix type="matrix" values="0 0 0 0 0.85098 0 0 0 0 0.92549 0 0 0 0 0.972549 0 0 0 1 0"/>
<feBlend mode="normal" in2="shape" result="effect1_innerShadow_938_121487"/>
</filter>
<filter id="filter2_i_938_121487" x="35.811" y="36.3809" width="12.8984" height="65.2363" filterUnits="userSpaceOnUse" color-interpolation-filters="sRGB">
<feFlood flood-opacity="0" result="BackgroundImageFix"/>
<feBlend mode="normal" in="SourceGraphic" in2="BackgroundImageFix" result="shape"/>
<feColorMatrix in="SourceAlpha" type="matrix" values="0 0 0 0 0 0 0 0 0 0 0 0 0 0 0 0 0 0 127 0" result="hardAlpha"/>
<feOffset dx="-5" dy="-6"/>
<feComposite in2="hardAlpha" operator="arithmetic" k2="-1" k3="1"/>
<feColorMatrix type="matrix" values="0 0 0 0 0.760784 0 0 0 0 0.878431 0 0 0 0 0.956863 0 0 0 1 0"/>
<feBlend mode="normal" in2="shape" result="effect1_innerShadow_938_121487"/>
</filter>
<filter id="filter3_i_938_121487" x="32.4292" y="47.3203" width="6.95605" height="13.8242" filterUnits="userSpaceOnUse" color-interpolation-filters="sRGB">
<feFlood flood-opacity="0" result="BackgroundImageFix"/>
<feBlend mode="normal" in="SourceGraphic" in2="BackgroundImageFix" result="shape"/>
<feColorMatrix in="SourceAlpha" type="matrix" values="0 0 0 0 0 0 0 0 0 0 0 0 0 0 0 0 0 0 127 0" result="hardAlpha"/>
<feOffset dx="3" dy="-4"/>
<feComposite in2="hardAlpha" operator="arithmetic" k2="-1" k3="1"/>
<feColorMatrix type="matrix" values="0 0 0 0 0.760784 0 0 0 0 0.878431 0 0 0 0 0.956863 0 0 0 1 0"/>
<feBlend mode="normal" in2="shape" result="effect1_innerShadow_938_121487"/>
</filter>
<filter id="filter4_i_938_121487" x="32.4292" y="77.0938" width="6.95605" height="13.8242" filterUnits="userSpaceOnUse" color-interpolation-filters="sRGB">
<feFlood flood-opacity="0" result="BackgroundImageFix"/>
<feBlend mode="normal" in="SourceGraphic" in2="BackgroundImageFix" result="shape"/>
<feColorMatrix in="SourceAlpha" type="matrix" values="0 0 0 0 0 0 0 0 0 0 0 0 0 0 0 0 0 0 127 0" result="hardAlpha"/>
<feOffset dx="3" dy="-4"/>
<feComposite in2="hardAlpha" operator="arithmetic" k2="-1" k3="1"/>
<feColorMatrix type="matrix" values="0 0 0 0 0.760784 0 0 0 0 0.878431 0 0 0 0 0.956863 0 0 0 1 0"/>
<feBlend mode="normal" in2="shape" result="effect1_innerShadow_938_121487"/>
</filter>
<filter id="filter5_i_938_121487" x="38.8979" y="60.3555" width="7.24365" height="17.5352" filterUnits="userSpaceOnUse" color-interpolation-filters="sRGB">
<feFlood flood-opacity="0" result="BackgroundImageFix"/>
<feBlend mode="normal" in="SourceGraphic" in2="BackgroundImageFix" result="shape"/>
<feColorMatrix in="SourceAlpha" type="matrix" values="0 0 0 0 0 0 0 0 0 0 0 0 0 0 0 0 0 0 127 0" result="hardAlpha"/>
<feOffset dx="3" dy="-2"/>
<feComposite in2="hardAlpha" operator="arithmetic" k2="-1" k3="1"/>
<feColorMatrix type="matrix" values="0 0 0 0 0.760784 0 0 0 0 0.878431 0 0 0 0 0.956863 0 0 0 1 0"/>
<feBlend mode="normal" in2="shape" result="effect1_innerShadow_938_121487"/>
</filter>
<filter id="filter6_d_938_121487" x="37.3545" y="59.502" width="9.02832" height="18.166" filterUnits="userSpaceOnUse" color-interpolation-filters="sRGB">
<feFlood flood-opacity="0" result="BackgroundImageFix"/>
<feColorMatrix in="SourceAlpha" type="matrix" values="0 0 0 0 0 0 0 0 0 0 0 0 0 0 0 0 0 0 127 0" result="hardAlpha"/>
<feOffset dx="2"/>
<feColorMatrix type="matrix" values="0 0 0 0 0 0 0 0 0 0 0 0 0 0 0 0 0 0 0.1 0"/>
<feBlend mode="normal" in2="BackgroundImageFix" result="effect1_dropShadow_938_121487"/>
<feBlend mode="normal" in="SourceGraphic" in2="effect1_dropShadow_938_121487" result="shape"/>
</filter>
</defs>
</svg>
