<svg width="24" height="24" viewBox="0 0 24 24" fill="none" xmlns="http://www.w3.org/2000/svg">
<path d="M19 14C18.3301 14.0005 17.6671 14.1363 17.0509 14.3992C16.4347 14.6621 15.8779 15.0467 15.414 15.53L9.921 12.783C9.96808 12.5245 9.99449 12.2627 10 12C9.99455 11.7373 9.96813 11.4755 9.921 11.217L15.414 8.46999C16.2216 9.29997 17.2928 9.82327 18.4439 9.95022C19.5949 10.0772 20.7544 9.79988 21.7235 9.16586C22.6926 8.53183 23.411 7.58053 23.7557 6.47495C24.1005 5.36937 24.05 4.17833 23.613 3.10587C23.176 2.03342 22.3796 1.14631 21.3603 0.596548C20.3411 0.0467807 19.1623 -0.131429 18.0261 0.0924516C16.8899 0.316332 15.8669 0.928367 15.1324 1.8237C14.3978 2.71903 13.9975 3.84192 14 4.99999C14.0054 5.26301 14.0319 5.52518 14.079 5.78399L8.586 8.52899C7.89421 7.81151 7.00378 7.31715 6.02901 7.10936C5.05424 6.90158 4.03961 6.98985 3.11537 7.36285C2.19113 7.73585 1.39945 8.37656 0.841957 9.20272C0.284466 10.0289 -0.0133972 11.0028 -0.0133972 11.9995C-0.0133972 12.9962 0.284466 13.9701 0.841957 14.7963C1.39945 15.6224 2.19113 16.2631 3.11537 16.6361C4.03961 17.0091 5.05424 17.0974 6.02901 16.8896C7.00378 16.6818 7.89421 16.1875 8.586 15.47L14.079 18.216C14.0318 18.4748 14.0054 18.737 14 19C14 19.9889 14.2932 20.9556 14.8426 21.7778C15.3921 22.6001 16.1729 23.241 17.0866 23.6194C18.0002 23.9978 19.0055 24.0968 19.9754 23.9039C20.9454 23.711 21.8363 23.2348 22.5355 22.5355C23.2348 21.8363 23.711 20.9454 23.9039 19.9754C24.0968 19.0055 23.9978 18.0002 23.6194 17.0866C23.241 16.1729 22.6001 15.3921 21.7778 14.8426C20.9556 14.2932 19.9889 14 19 14Z" fill="#9B7C09"/>
</svg>
