<svg width="24" height="24" viewBox="0 0 24 24" fill="none" xmlns="http://www.w3.org/2000/svg">
<g clip-path="url(#clip0_839_13924)">
<path d="M19 14C18.3301 14.0005 17.6671 14.1363 17.0509 14.3992C16.4347 14.6621 15.878 15.0467 15.414 15.53L9.92103 12.783C9.96811 12.5245 9.99452 12.2627 10 12C9.99458 11.7373 9.96816 11.4755 9.92103 11.217L15.414 8.46999C16.2217 9.29997 17.2928 9.82327 18.4439 9.95022C19.595 10.0772 20.7544 9.79988 21.7235 9.16586C22.6926 8.53183 23.4111 7.58053 23.7558 6.47495C24.1005 5.36937 24.05 4.17833 23.613 3.10587C23.176 2.03342 22.3796 1.14631 21.3604 0.596548C20.3411 0.0467807 19.1624 -0.131429 18.0261 0.0924516C16.8899 0.316332 15.8669 0.928367 15.1324 1.8237C14.3979 2.71903 13.9975 3.84192 14 4.99999C14.0055 5.26301 14.0319 5.52518 14.079 5.78399L8.58603 8.52899C7.89424 7.81151 7.00381 7.31715 6.02904 7.10936C5.05427 6.90157 4.03964 6.98985 3.1154 7.36285C2.19116 7.73585 1.39948 8.37656 0.841988 9.20272C0.284497 10.0289 -0.0133667 11.0028 -0.0133667 11.9995C-0.0133667 12.9962 0.284497 13.9701 0.841988 14.7963C1.39948 15.6224 2.19116 16.2631 3.1154 16.6361C4.03964 17.0091 5.05427 17.0974 6.02904 16.8896C7.00381 16.6818 7.89424 16.1875 8.58603 15.47L14.079 18.216C14.0318 18.4748 14.0054 18.737 14 19C14 19.9889 14.2933 20.9556 14.8427 21.7778C15.3921 22.6001 16.173 23.241 17.0866 23.6194C18.0002 23.9978 19.0056 24.0968 19.9755 23.9039C20.9454 23.711 21.8363 23.2348 22.5356 22.5355C23.2348 21.8363 23.711 20.9454 23.904 19.9754C24.0969 19.0055 23.9979 18.0002 23.6194 17.0866C23.241 16.1729 22.6001 15.3921 21.7779 14.8426C20.9556 14.2932 19.9889 14 19 14V14Z" />
</g>
<defs>
<clipPath id="clip0_839_13924">
<rect width="24" height="24" fill="white"/>
</clipPath>
</defs>
</svg>
