<svg width="16" height="16" viewBox="0 0 16 16" fill="none" xmlns="http://www.w3.org/2000/svg">
<g clip-path="url(#clip0_1980_186631)">
<rect width="16" height="16" rx="2" fill="#40526D"/>
<path fill-rule="evenodd" clip-rule="evenodd" d="M13.5082 5.11415C13.5082 4.89685 13.6843 4.7207 13.9016 4.7207C14.1189 4.7207 14.2951 4.89685 14.2951 5.11415V10.8846C14.2951 11.1019 14.1189 11.2781 13.9016 11.2781C13.6843 11.2781 13.5082 11.1019 13.5082 10.8846V5.11415Z" fill="white"/>
<path fill-rule="evenodd" clip-rule="evenodd" d="M2.88528 9.18097C3.53716 9.18097 4.06561 8.65252 4.06561 8.00064C4.06561 7.34876 3.53716 6.82031 2.88528 6.82031C2.23341 6.82031 1.70496 7.34876 1.70496 8.00064C1.70496 8.65252 2.23341 9.18097 2.88528 9.18097Z" fill="white"/>
<path fill-rule="evenodd" clip-rule="evenodd" d="M6.81973 9.18097C7.47161 9.18097 8.00006 8.65252 8.00006 8.00064C8.00006 7.34876 7.47161 6.82031 6.81973 6.82031C6.16786 6.82031 5.6394 7.34876 5.6394 8.00064C5.6394 8.65252 6.16786 9.18097 6.81973 9.18097Z" fill="white"/>
<path fill-rule="evenodd" clip-rule="evenodd" d="M10.7541 9.18097C11.4059 9.18097 11.9344 8.65252 11.9344 8.00064C11.9344 7.34876 11.4059 6.82031 10.7541 6.82031C10.1022 6.82031 9.57373 7.34876 9.57373 8.00064C9.57373 8.65252 10.1022 9.18097 10.7541 9.18097Z" fill="white"/>
</g>
<defs>
<clipPath id="clip0_1980_186631">
<rect width="16" height="16" fill="white"/>
</clipPath>
</defs>
</svg>
