<svg width="16" height="16" viewBox="0 0 16 16" fill="none" xmlns="http://www.w3.org/2000/svg">
<path fill-rule="evenodd" clip-rule="evenodd" d="M9.91364 13.1169L9.91323 13.1155C10.0454 13.061 10.1757 13.0013 10.3038 12.9363C11.2691 12.4471 12.0686 11.6839 12.6022 10.7424C13.1357 9.80083 13.3797 8.72282 13.3035 7.64329C13.2273 6.56377 12.8343 5.53071 12.1738 4.67348C12.1447 4.63567 12.1079 4.60453 12.0658 4.58216C12.0237 4.5598 11.9773 4.54672 11.9297 4.54381C11.8822 4.54091 11.8345 4.54825 11.79 4.56533C11.7455 4.58241 11.7052 4.60884 11.6717 4.64284L11.4662 4.84837C11.4031 4.91142 11.3243 4.95644 11.2379 4.97876C11.1516 5.00108 11.0608 4.99989 10.975 4.97532C10.8893 4.95074 10.8117 4.90368 10.7503 4.839C10.6888 4.77432 10.6458 4.69438 10.6257 4.60748L10.06 2.15618C10.0462 2.07427 10.0521 1.99025 10.0774 1.91111C10.1027 1.83198 10.1465 1.76005 10.2052 1.70131C10.264 1.64257 10.3359 1.59874 10.415 1.57348C10.4942 1.54821 10.5782 1.54225 10.6601 1.55608L13.1114 2.12176L13.1128 2.12035C13.1997 2.14048 13.2797 2.18348 13.3443 2.24491C13.409 2.30634 13.4561 2.38396 13.4807 2.46971C13.5052 2.55545 13.5064 2.64622 13.4841 2.73258C13.4618 2.81894 13.4168 2.89776 13.3537 2.96086L13.0958 3.21872C13.0367 3.2774 13.0016 3.35612 12.9976 3.43937C12.9936 3.52261 13.0209 3.60434 13.0742 3.66844C13.9454 4.71919 14.4819 6.00677 14.6147 7.36523C14.7475 8.72369 14.4704 10.0908 13.8191 11.2903C13.1678 12.4899 12.1723 13.4669 10.9607 14.0955C10.783 14.1877 10.6018 14.2718 10.4177 14.3477L10.4183 14.3498C9.76632 14.624 9.07206 14.7969 8.35956 14.8587C8.18524 14.8707 8.01316 14.8138 7.88037 14.7002C7.74758 14.5867 7.66468 14.4255 7.64952 14.2514C7.63437 14.0774 7.68816 13.9043 7.79932 13.7695C7.91048 13.6347 8.07013 13.5489 8.2439 13.5306C8.82183 13.4809 9.38501 13.3404 9.91364 13.1169ZM5.01615 1.96764C5.74676 1.62162 6.53692 1.40612 7.3509 1.33557C7.52522 1.32354 7.69729 1.38044 7.83008 1.49401C7.96288 1.60757 8.04577 1.76874 8.06093 1.94282C8.07609 2.11689 8.0223 2.28996 7.91114 2.42477C7.79998 2.55959 7.64033 2.64537 7.46656 2.66366C6.90858 2.71166 6.36435 2.8443 5.85168 3.05447L5.85171 3.05454C5.84062 3.05906 5.82955 3.06361 5.81849 3.06821C5.71766 3.11032 5.61807 3.15544 5.51985 3.20351L5.51959 3.2029C5.49328 3.21571 5.46707 3.22873 5.44094 3.24197C4.47565 3.73125 3.67615 4.49444 3.14256 5.43596C2.60897 6.37748 2.365 7.45549 2.4412 8.53502C2.5174 9.61454 2.91038 10.6476 3.57094 11.5048C3.59998 11.5426 3.63679 11.5738 3.67889 11.5961C3.72099 11.6185 3.7674 11.6316 3.81498 11.6345C3.86256 11.6374 3.91022 11.6301 3.95473 11.613C3.99923 11.5959 4.03956 11.5695 4.07298 11.5355L4.27851 11.3299C4.34168 11.2668 4.42059 11.2218 4.50706 11.1995C4.59352 11.1772 4.68438 11.1784 4.77019 11.2031C4.8551 11.2279 4.9319 11.2748 4.99277 11.339C5.05364 11.4032 5.0964 11.4824 5.11667 11.5685L5.68236 14.0198C5.70136 14.1025 5.69904 14.1886 5.67562 14.2702C5.65219 14.3517 5.60843 14.426 5.54844 14.486C5.48844 14.5459 5.41419 14.5897 5.33265 14.6131C5.2511 14.6366 5.16494 14.6389 5.08226 14.6199L2.63096 14.0542C2.54405 14.0341 2.46412 13.9911 2.39944 13.9296C2.33476 13.8682 2.28769 13.7906 2.26312 13.7048C2.23854 13.6191 2.23735 13.5283 2.25968 13.442C2.282 13.3556 2.32702 13.2768 2.39007 13.2137L2.64651 12.9572C2.70569 12.8986 2.74074 12.8198 2.74476 12.7366C2.74877 12.6533 2.72146 12.5716 2.6682 12.5075C1.7976 11.4565 1.26164 10.169 1.12936 8.81068C0.997075 7.45239 1.27453 6.0856 1.92599 4.88641C2.57744 3.68721 3.57305 2.71055 4.78453 2.08225C4.86111 2.04254 4.93834 2.00433 5.01615 1.96764Z" fill="#40526D"/>
</svg>
