<svg width="16" height="16" viewBox="0 0 16 16" fill="none" xmlns="http://www.w3.org/2000/svg">
<path d="M14.8333 15.8997C15.2015 15.8997 15.5 15.6013 15.5 15.2331C15.5 14.8649 15.2015 14.5664 14.8333 14.5664C14.4651 14.5664 14.1666 14.8649 14.1666 15.2331C14.1666 15.6013 14.4651 15.8997 14.8333 15.8997Z" fill="#40526D"/>
<path d="M12.1667 13.8997C12.5349 13.8997 12.8333 13.6013 12.8333 13.2331C12.8333 12.8649 12.5349 12.5664 12.1667 12.5664C11.7985 12.5664 11.5 12.8649 11.5 13.2331C11.5 13.6013 11.7985 13.8997 12.1667 13.8997Z" fill="#40526D"/>
<path d="M8.83329 15.8997C9.20148 15.8997 9.49996 15.6013 9.49996 15.2331C9.49996 14.8649 9.20148 14.5664 8.83329 14.5664C8.4651 14.5664 8.16663 14.8649 8.16663 15.2331C8.16663 15.6013 8.4651 15.8997 8.83329 15.8997Z" fill="#40526D"/>
<path d="M5.83329 13.8997C6.20148 13.8997 6.49996 13.6013 6.49996 13.2331C6.49996 12.8649 6.20148 12.5664 5.83329 12.5664C5.4651 12.5664 5.16663 12.8649 5.16663 13.2331C5.16663 13.6013 5.4651 13.8997 5.83329 13.8997Z" fill="#40526D"/>
<path d="M3.16667 15.8997C3.53486 15.8997 3.83333 15.6013 3.83333 15.2331C3.83333 14.8649 3.53486 14.5664 3.16667 14.5664C2.79848 14.5664 2.5 14.8649 2.5 15.2331C2.5 15.6013 2.79848 15.8997 3.16667 15.8997Z" fill="#40526D"/>
<path d="M1.16667 13.8997C1.53486 13.8997 1.83333 13.6013 1.83333 13.2331C1.83333 12.8649 1.53486 12.5664 1.16667 12.5664C0.798477 12.5664 0.5 12.8649 0.5 13.2331C0.5 13.6013 0.798477 13.8997 1.16667 13.8997Z" fill="#40526D"/>
<path d="M11.7733 6.41973C11.2299 5.87446 10.5216 5.52395 9.75846 5.42268C8.99533 5.32141 8.22012 5.47506 7.55331 5.85973C7.48997 5.8958 7.41656 5.91011 7.34432 5.90047C7.27208 5.89084 7.20498 5.8578 7.15331 5.8064L1.63997 0.293066C1.57761 0.226459 1.50224 0.173361 1.41853 0.137061C1.33482 0.100761 1.24455 0.0820313 1.15331 0.0820312C1.06206 0.0820313 0.971792 0.100761 0.88808 0.137061C0.804369 0.173361 0.729 0.226459 0.66664 0.293066C0.542473 0.417975 0.472778 0.586943 0.472778 0.763066C0.472778 0.93919 0.542473 1.10816 0.66664 1.23307L6.18664 6.75307C6.23804 6.80474 6.27108 6.87184 6.28071 6.94408C6.29035 7.01632 6.27603 7.08973 6.23997 7.15307C5.85721 7.8188 5.70403 8.59194 5.80402 9.35332C5.90401 10.1147 6.25163 10.8221 6.79331 11.3664L8.56664 13.1397C8.62926 13.2001 8.713 13.2336 8.79997 13.2331C8.88669 13.2322 8.96994 13.1989 9.03331 13.1397L9.27331 12.8997C9.33438 12.8374 9.36859 12.7537 9.36859 12.6664C9.36859 12.5791 9.33438 12.4954 9.27331 12.4331L7.99997 11.1331C7.91165 11.0383 7.86357 10.9129 7.86586 10.7834C7.86814 10.6539 7.92062 10.5303 8.01223 10.4387C8.10383 10.347 8.22742 10.2946 8.35696 10.2923C8.48649 10.29 8.61186 10.3381 8.70664 10.4264L9.99997 11.7264C10.0631 11.7859 10.1465 11.8191 10.2333 11.8191C10.3201 11.8191 10.4035 11.7859 10.4666 11.7264L10.7066 11.4864C10.7681 11.423 10.8025 11.3381 10.8025 11.2497C10.8025 11.1614 10.7681 11.0765 10.7066 11.0131L9.37331 9.71973C9.28499 9.62495 9.2369 9.49959 9.23919 9.37005C9.24148 9.24052 9.29395 9.11693 9.38556 9.02532C9.47717 8.93371 9.60076 8.88124 9.73029 8.87895C9.85983 8.87666 9.98519 8.92475 10.08 9.01307L11.38 10.3064C11.4099 10.3383 11.446 10.3637 11.4862 10.3811C11.5263 10.3984 11.5696 10.4074 11.6133 10.4074C11.657 10.4074 11.7003 10.3984 11.7404 10.3811C11.7806 10.3637 11.8167 10.3383 11.8466 10.3064L12.0866 10.0731C12.1481 10.0096 12.1825 9.92475 12.1825 9.8364C12.1825 9.74805 12.1481 9.66317 12.0866 9.59973L10.7533 8.3064C10.6597 8.21265 10.6071 8.08557 10.6071 7.95307C10.6071 7.82057 10.6597 7.69348 10.7533 7.59973C10.7993 7.55256 10.8542 7.51507 10.9149 7.48947C10.9756 7.46387 11.0408 7.45069 11.1066 7.45069C11.1725 7.45069 11.2377 7.46387 11.2984 7.48947C11.3591 7.51507 11.414 7.55256 11.46 7.59973L12.76 8.89307C12.7897 8.92509 12.8259 8.95053 12.8661 8.96776C12.9062 8.98498 12.9496 8.9936 12.9933 8.99307C13.038 8.99372 13.0824 8.98517 13.1237 8.96797C13.165 8.95077 13.2023 8.92528 13.2333 8.89307L13.4666 8.65973C13.5281 8.5963 13.5625 8.51142 13.5625 8.42307C13.5625 8.33471 13.5281 8.24983 13.4666 8.1864L11.7733 6.41973Z" fill="#40526D"/>
</svg>
