<svg width="16" height="16" viewBox="0 0 16 16" fill="none" xmlns="http://www.w3.org/2000/svg">
<g clip-path="url(#clip0_938_119018)">
<path d="M12.968 5H3.03134C2.98492 4.99981 2.93898 5.00932 2.89645 5.02792C2.85392 5.04651 2.81574 5.07379 2.78436 5.10799C2.75298 5.14219 2.72909 5.18257 2.71422 5.22654C2.69935 5.27052 2.69383 5.31711 2.69801 5.36334L3.55601 14.7873C3.58612 15.1187 3.73906 15.4269 3.98479 15.6513C4.23051 15.8756 4.55125 16 4.88401 16H11.1153C11.4481 16 11.7688 15.8756 12.0146 15.6513C12.2603 15.4269 12.4132 15.1187 12.4433 14.7873L13.3 5.36334C13.3041 5.31724 13.2986 5.2708 13.2838 5.22695C13.269 5.1831 13.2452 5.14282 13.214 5.10867C13.1828 5.07446 13.1448 5.04714 13.1025 5.02843C13.0601 5.00972 13.0143 5.00004 12.968 5ZM6.83467 13.6667C6.83467 13.7993 6.782 13.9265 6.68823 14.0202C6.59446 14.114 6.46728 14.1667 6.33467 14.1667C6.20207 14.1667 6.07489 14.114 5.98112 14.0202C5.88735 13.9265 5.83467 13.7993 5.83467 13.6667V7.66667C5.83467 7.53406 5.88735 7.40688 5.98112 7.31312C6.07489 7.21935 6.20207 7.16667 6.33467 7.16667C6.46728 7.16667 6.59446 7.21935 6.68823 7.31312C6.782 7.40688 6.83467 7.53406 6.83467 7.66667V13.6667ZM10.168 13.6667C10.168 13.7993 10.1153 13.9265 10.0216 14.0202C9.92779 14.114 9.80062 14.1667 9.66801 14.1667C9.5354 14.1667 9.40822 14.114 9.31446 14.0202C9.22069 13.9265 9.16801 13.7993 9.16801 13.6667V7.66667C9.16801 7.53406 9.22069 7.40688 9.31446 7.31312C9.40822 7.21935 9.5354 7.16667 9.66801 7.16667C9.80062 7.16667 9.92779 7.21935 10.0216 7.31312C10.1153 7.40688 10.168 7.53406 10.168 7.66667V13.6667Z" fill="#40526D"/>
<path d="M14.6666 2.66667H11.5C11.4558 2.66667 11.4134 2.64911 11.3821 2.61785C11.3509 2.5866 11.3333 2.5442 11.3333 2.5V1.66667C11.3333 1.22464 11.1577 0.800716 10.8451 0.488155C10.5326 0.175595 10.1087 0 9.66663 0L6.33329 0C5.89126 0 5.46734 0.175595 5.15478 0.488155C4.84222 0.800716 4.66663 1.22464 4.66663 1.66667V2.5C4.66663 2.5442 4.64907 2.5866 4.61781 2.61785C4.58655 2.64911 4.54416 2.66667 4.49996 2.66667H1.33329C1.15648 2.66667 0.986912 2.7369 0.861888 2.86193C0.736864 2.98695 0.666626 3.15652 0.666626 3.33333C0.666626 3.51014 0.736864 3.67971 0.861888 3.80474C0.986912 3.92976 1.15648 4 1.33329 4H14.6666C14.8434 4 15.013 3.92976 15.138 3.80474C15.2631 3.67971 15.3333 3.51014 15.3333 3.33333C15.3333 3.15652 15.2631 2.98695 15.138 2.86193C15.013 2.7369 14.8434 2.66667 14.6666 2.66667ZM5.99996 2.5V1.66667C5.99996 1.57826 6.03508 1.49348 6.09759 1.43096C6.1601 1.36845 6.24489 1.33333 6.33329 1.33333H9.66663C9.75503 1.33333 9.83982 1.36845 9.90233 1.43096C9.96484 1.49348 9.99996 1.57826 9.99996 1.66667V2.5C9.99996 2.5442 9.9824 2.5866 9.95114 2.61785C9.91989 2.64911 9.87749 2.66667 9.83329 2.66667H6.16663C6.12242 2.66667 6.08003 2.64911 6.04877 2.61785C6.01752 2.5866 5.99996 2.5442 5.99996 2.5Z" fill="#40526D"/>
</g>
<defs>
<clipPath id="clip0_938_119018">
<rect width="16" height="16" fill="white"/>
</clipPath>
</defs>
</svg>
