<svg width="16" height="16" viewBox="0 0 16 16" fill="none" xmlns="http://www.w3.org/2000/svg">
<g clip-path="url(#clip0_938_119023)">
<path d="M0.888646 4.70702C1.10294 4.70702 1.30846 4.6219 1.45999 4.47037C1.61152 4.31884 1.69665 4.11332 1.69665 3.89902V2.66236C1.697 2.38476 1.80748 2.11864 2.00383 1.92241C2.20019 1.72618 2.46638 1.61587 2.74398 1.61569L13.256 1.61569C13.5336 1.61587 13.7998 1.72618 13.9961 1.92241C14.1925 2.11864 14.303 2.38476 14.3033 2.66236V3.89902C14.3033 4.11332 14.3884 4.31884 14.54 4.47037C14.6915 4.6219 14.897 4.70702 15.1113 4.70702C15.3256 4.70702 15.5311 4.6219 15.6827 4.47037C15.8342 4.31884 15.9193 4.11332 15.9193 3.89902V2.66236C15.9193 1.95569 15.6388 1.27792 15.1394 0.777916C14.6401 0.277915 13.9626 -0.00342655 13.256 -0.00430965L2.74398 -0.00430965C2.03673 -0.00430965 1.35846 0.276641 0.858361 0.776738C0.358264 1.27684 0.0773125 1.95511 0.0773125 2.66236V3.89902C0.0773115 4.00541 0.0983219 4.11076 0.139135 4.209C0.17995 4.30725 0.239764 4.39647 0.315147 4.47155C0.390531 4.54662 0.479999 4.60607 0.578415 4.64648C0.67683 4.68689 0.782258 4.70746 0.888646 4.70702Z" fill="#40526D"/>
<path d="M8.00002 16C8.34285 16 8.67165 15.8638 8.91407 15.6214C9.15649 15.379 9.29268 15.0502 9.29268 14.7073V8.66333C9.29268 8.61913 9.31024 8.57674 9.3415 8.54548C9.37275 8.51423 9.41515 8.49667 9.45935 8.49667H11.232C11.356 8.49662 11.4774 8.46091 11.5817 8.39381C11.686 8.32671 11.7687 8.23104 11.8202 8.1182C11.8716 8.00536 11.8895 7.88012 11.8718 7.75739C11.854 7.63466 11.8013 7.51963 11.72 7.426L8.48802 3.70867C8.42737 3.63875 8.35242 3.58269 8.26822 3.54426C8.18403 3.50584 8.09256 3.48595 8.00002 3.48595C7.90747 3.48595 7.816 3.50584 7.73181 3.54426C7.64761 3.58269 7.57266 3.63875 7.51201 3.70867L4.28002 7.426C4.19871 7.51963 4.14604 7.63466 4.12828 7.75739C4.11052 7.88012 4.12842 8.00536 4.17985 8.1182C4.23128 8.23104 4.31407 8.32671 4.41835 8.39381C4.52263 8.46091 4.64401 8.49662 4.76802 8.49667H6.54068C6.58489 8.49667 6.62728 8.51423 6.65853 8.54548C6.68979 8.57674 6.70735 8.61913 6.70735 8.66333L6.70735 14.7073C6.70735 15.0502 6.84354 15.379 7.08596 15.6214C7.32838 15.8638 7.65718 16 8.00002 16Z" fill="#40526D"/>
</g>
<defs>
<clipPath id="clip0_938_119023">
<rect width="16" height="16" fill="white" transform="translate(16 16) rotate(-180)"/>
</clipPath>
</defs>
</svg>
