<svg width="16" height="16" viewBox="0 0 16 16" fill="none" xmlns="http://www.w3.org/2000/svg">
<g clip-path="url(#clip0_955_125080)">
<path d="M4.66667 9.66732C4.3703 9.66755 4.07759 9.60192 3.8097 9.47517C3.54181 9.34842 3.30544 9.16372 3.11767 8.93443C2.92991 8.70513 2.79545 8.43697 2.72403 8.14935C2.6526 7.86172 2.64599 7.56181 2.70467 7.27132C2.807 6.81017 3.06559 6.39858 3.43664 6.10626C3.80769 5.81394 4.26838 5.65887 4.74067 5.66732H9.33333C9.42174 5.66732 9.50652 5.6322 9.56904 5.56969C9.63155 5.50717 9.66667 5.42239 9.66667 5.33398V1.00065C9.66667 0.82384 9.59643 0.654271 9.47141 0.529247C9.34638 0.404222 9.17681 0.333984 9 0.333984H0.666667C0.489856 0.333984 0.320286 0.404222 0.195262 0.529247C0.0702379 0.654271 0 0.82384 0 1.00065L0 15.0007C0 15.1775 0.0702379 15.347 0.195262 15.4721C0.320286 15.5971 0.489856 15.6673 0.666667 15.6673H9C9.17681 15.6673 9.34638 15.5971 9.47141 15.4721C9.59643 15.347 9.66667 15.1775 9.66667 15.0007V10.0007C9.66667 9.91225 9.63155 9.82746 9.56904 9.76495C9.50652 9.70244 9.42174 9.66732 9.33333 9.66732H4.66667Z" fill="#40526D"/>
<path d="M15.75 7.1465L14.9773 6.52917L14.082 5.8125L12.4153 4.47917C12.3172 4.40102 12.199 4.35214 12.0743 4.33815C11.9497 4.32415 11.8236 4.34561 11.7106 4.40006C11.5976 4.45451 11.5022 4.53974 11.4355 4.64596C11.3687 4.75217 11.3333 4.87506 11.3333 5.0005V6.66717H4.66663C4.40141 6.66717 4.14706 6.77253 3.95952 6.96006C3.77198 7.1476 3.66663 7.40195 3.66663 7.66717C3.66663 7.93239 3.77198 8.18674 3.95952 8.37428C4.14706 8.56181 4.40141 8.66717 4.66663 8.66717H11.3333V10.3338C11.3332 10.4595 11.3687 10.5825 11.4355 10.6889C11.5024 10.7952 11.5979 10.8805 11.7112 10.935C11.8244 10.9894 11.9507 11.0107 12.0755 10.9965C12.2003 10.9822 12.3186 10.933 12.4166 10.8545L14.0833 9.52117L14.9786 8.80517L15.7513 8.18717C15.8294 8.12471 15.8924 8.04549 15.9358 7.95536C15.9791 7.86523 16.0016 7.76651 16.0016 7.6665C16.0016 7.5665 15.9791 7.46778 15.9358 7.37765C15.8924 7.28752 15.8294 7.20829 15.7513 7.14584L15.75 7.1465Z" fill="#40526D"/>
</g>
<defs>
<clipPath id="clip0_955_125080">
<rect width="16" height="16" fill="white"/>
</clipPath>
</defs>
</svg>
