<svg width="16" height="16" viewBox="0 0 16 16" fill="none" xmlns="http://www.w3.org/2000/svg">
<path d="M8.00004 7.83333C10.0251 7.83333 11.6667 6.19171 11.6667 4.16667C11.6667 2.14162 10.0251 0.5 8.00004 0.5C5.975 0.5 4.33337 2.14162 4.33337 4.16667C4.33337 6.19171 5.975 7.83333 8.00004 7.83333Z" fill="#40526D"/>
<path d="M7.99996 8.83398C6.32085 8.83593 4.71107 9.50381 3.52376 10.6911C2.33645 11.8784 1.66857 13.4882 1.66663 15.1673C1.66663 15.2557 1.70174 15.3405 1.76426 15.403C1.82677 15.4655 1.91155 15.5007 1.99996 15.5007H14C14.0884 15.5007 14.1732 15.4655 14.2357 15.403C14.2982 15.3405 14.3333 15.2557 14.3333 15.1673C14.3314 13.4882 13.6635 11.8784 12.4762 10.6911C11.2888 9.50381 9.67907 8.83593 7.99996 8.83398Z" fill="#40526D"/>
</svg>
