<svg width="125" height="125" viewBox="0 0 125 125" fill="none" xmlns="http://www.w3.org/2000/svg">
<circle cx="62.5" cy="62.5" r="62.5" fill="#EBF5FB"/>
<path d="M22.9165 101.39H85.4165" stroke="#004590" stroke-width="2" stroke-linecap="round" stroke-dasharray="1 6 164 5"/>
<g filter="url(#filter0_i_938_121374)">
<path fill-rule="evenodd" clip-rule="evenodd" d="M22.2222 39.418C22.2222 37.2088 24.013 35.418 26.2222 35.418H80.7222C82.9313 35.418 84.7222 37.2088 84.7222 39.418V94.1698C84.7222 96.3789 82.9313 98.1698 80.7222 98.1698H79.1271C78.5282 99.6508 77.0765 100.696 75.3807 100.696C73.685 100.696 72.2332 99.6508 71.6343 98.1698H36.6192C36.0203 99.6508 34.5686 100.696 32.8728 100.696C31.1771 100.696 29.7254 99.6508 29.1264 98.1698H26.2222C24.013 98.1698 22.2222 96.3789 22.2222 94.1698V39.418Z" fill="white"/>
</g>
<path d="M79.1271 98.1698V97.1698H78.4528L78.2 97.7949L79.1271 98.1698ZM71.6343 98.1698L72.5614 97.7949L72.3086 97.1698H71.6343V98.1698ZM36.6192 98.1698V97.1698H35.9449L35.6922 97.7949L36.6192 98.1698ZM29.1264 98.1698L30.0535 97.7949L29.8007 97.1698H29.1264V98.1698ZM22.8803 35.6988C22.4696 36.068 22.436 36.7003 22.8052 37.111C23.1745 37.5217 23.8067 37.5553 24.2175 37.1861L22.8803 35.6988ZM24.0921 37.3054C24.481 36.9133 24.4785 36.2801 24.0863 35.8912C23.6942 35.5023 23.0611 35.5049 22.6721 35.897L24.0921 37.3054ZM22.6433 35.9263C22.2576 36.3215 22.2654 36.9547 22.6607 37.3404C23.056 37.7261 23.6891 37.7183 24.0748 37.323L22.6433 35.9263ZM23.9903 37.4133C24.3595 37.0025 24.3259 36.3703 23.9152 36.001C23.5045 35.6318 22.8722 35.6654 22.503 36.0761L23.9903 37.4133ZM21.2222 64.9306C21.2222 65.4829 21.6699 65.9306 22.2222 65.9306C22.7745 65.9306 23.2222 65.4829 23.2222 64.9306H21.2222ZM23.2222 66.9372C23.2222 66.3849 22.7745 65.9372 22.2222 65.9372C21.6699 65.9372 21.2222 66.3849 21.2222 66.9372H23.2222ZM21.2222 67.2239C21.2222 67.7761 21.6699 68.2239 22.2222 68.2239C22.7745 68.2239 23.2222 67.7761 23.2222 67.2239H21.2222ZM23.2222 68.6572C23.2222 68.1049 22.7745 67.6572 22.2222 67.6572C21.6699 67.6572 21.2222 68.1049 21.2222 68.6572H23.2222ZM22.503 97.5116C22.8722 97.9223 23.5045 97.9559 23.9152 97.5867C24.3259 97.2175 24.3595 96.5852 23.9903 96.1745L22.503 97.5116ZM24.1096 96.2998C23.7175 95.9109 23.0843 95.9135 22.6954 96.3056C22.3065 96.6977 22.3091 97.3309 22.7012 97.7198L24.1096 96.2998ZM22.7305 97.7486C23.1257 98.1343 23.7589 98.1266 24.1446 97.7313C24.5303 97.336 24.5225 96.7029 24.1272 96.3172L22.7305 97.7486ZM24.2175 96.4017C23.8067 96.0324 23.1745 96.0661 22.8052 96.4768C22.436 96.8875 22.4696 97.5198 22.8803 97.889L24.2175 96.4017ZM27.5755 99.1698C28.1278 99.1698 28.5755 98.7221 28.5755 98.1698C28.5755 97.6175 28.1278 97.1698 27.5755 97.1698V99.1698ZM27.6819 97.1698C27.1296 97.1698 26.6819 97.6175 26.6819 98.1698C26.6819 98.7221 27.1296 99.1698 27.6819 99.1698V97.1698ZM27.6971 99.1698C28.2494 99.1698 28.6971 98.7221 28.6971 98.1698C28.6971 97.6175 28.2494 97.1698 27.6971 97.1698V99.1698ZM27.7731 97.1698C27.2209 97.1698 26.7731 97.6175 26.7731 98.1698C26.7731 98.7221 27.2209 99.1698 27.7731 99.1698V97.1698ZM29.8876 100.717C30.3324 101.044 30.9583 100.949 31.2858 100.504C31.6132 100.06 31.5181 99.4336 31.0733 99.1061L29.8876 100.717ZM31.1816 99.1822C30.723 98.8744 30.1017 98.9966 29.7939 99.4551C29.4861 99.9137 29.6083 100.535 30.0668 100.843L31.1816 99.1822ZM30.0929 100.86C30.5533 101.165 31.1738 101.039 31.4788 100.579C31.7837 100.118 31.6577 99.4977 31.1973 99.1927L30.0929 100.86ZM31.2768 99.2437C30.8071 98.9531 30.1909 99.0984 29.9003 99.568C29.6098 100.038 29.755 100.654 30.2247 100.945L31.2768 99.2437ZM35.521 100.945C35.9907 100.654 36.1359 100.038 35.8454 99.568C35.5548 99.0984 34.9385 98.9531 34.4688 99.2437L35.521 100.945ZM34.5798 99.1717C34.1232 99.4823 34.0048 100.104 34.3155 100.561C34.6262 101.018 35.2482 101.136 35.7048 100.825L34.5798 99.1717ZM35.7306 100.808C36.1853 100.494 36.2998 99.8713 35.9863 99.4167C35.6728 98.962 35.0501 98.8475 34.5954 99.161L35.7306 100.808ZM34.6724 99.1061C34.2276 99.4336 34.1325 100.06 34.4599 100.504C34.7873 100.949 35.4133 101.044 35.8581 100.717L34.6724 99.1061ZM52.9352 99.1698C53.4874 99.1698 53.9352 98.7221 53.9352 98.1698C53.9352 97.6175 53.4874 97.1698 52.9352 97.1698V99.1698ZM54.2184 97.1698C53.6662 97.1698 53.2184 97.6175 53.2184 98.1698C53.2184 98.7221 53.6662 99.1698 54.2184 99.1698V97.1698ZM54.4018 99.1698C54.954 99.1698 55.4018 98.7221 55.4018 98.1698C55.4018 97.6175 54.954 97.1698 54.4018 97.1698V99.1698ZM55.3184 97.1698C54.7661 97.1698 54.3184 97.6175 54.3184 98.1698C54.3184 98.7221 54.7661 99.1698 55.3184 99.1698V97.1698ZM72.3955 100.717C72.8402 101.044 73.4662 100.949 73.7936 100.504C74.1211 100.06 74.0259 99.4336 73.5812 99.1061L72.3955 100.717ZM73.6894 99.1822C73.2309 98.8744 72.6096 98.9966 72.3018 99.4551C71.994 99.9137 72.1161 100.535 72.5747 100.843L73.6894 99.1822ZM72.6007 100.86C73.0612 101.165 73.6817 101.039 73.9866 100.579C74.2916 100.118 74.1656 99.4977 73.7051 99.1927L72.6007 100.86ZM73.7847 99.2437C73.315 98.9531 72.6987 99.0984 72.4082 99.568C72.1177 100.038 72.2629 100.654 72.7326 100.945L73.7847 99.2437ZM78.0288 100.945C78.4985 100.654 78.6438 100.038 78.3532 99.568C78.0627 99.0984 77.4464 98.9531 76.9767 99.2437L78.0288 100.945ZM77.0877 99.1717C76.631 99.4823 76.5127 100.104 76.8234 100.561C77.134 101.018 77.756 101.136 78.2127 100.825L77.0877 99.1717ZM78.2385 100.808C78.6932 100.494 78.8076 99.8713 78.4942 99.4167C78.1807 98.962 77.5579 98.8475 77.1032 99.161L78.2385 100.808ZM77.1802 99.1061C76.7355 99.4336 76.6404 100.06 76.9678 100.504C77.2952 100.949 77.9212 101.044 78.3659 100.717L77.1802 99.1061ZM79.8704 99.1698C80.4226 99.1698 80.8704 98.7221 80.8704 98.1698C80.8704 97.6175 80.4226 97.1698 79.8704 97.1698V99.1698ZM79.9288 97.1698C79.3765 97.1698 78.9288 97.6175 78.9288 98.1698C78.9288 98.7221 79.3765 99.1698 79.9288 99.1698V97.1698ZM79.9372 99.1698C80.4894 99.1698 80.9372 98.7221 80.9372 98.1698C80.9372 97.6175 80.4894 97.1698 79.9372 97.1698V99.1698ZM79.9789 97.1698C79.4266 97.1698 78.9789 97.6175 78.9789 98.1698C78.9789 98.7221 79.4266 99.1698 79.9789 99.1698V97.1698ZM84.064 97.889C84.4747 97.5198 84.5083 96.8875 84.1391 96.4768C83.7699 96.0661 83.1376 96.0324 82.7269 96.4017L84.064 97.889ZM82.8522 96.2823C82.4633 96.6745 82.4659 97.3076 82.858 97.6965C83.2501 98.0855 83.8833 98.0829 84.2722 97.6908L82.8522 96.2823ZM84.301 97.6615C84.6867 97.2662 84.6789 96.6331 84.2837 96.2474C83.8884 95.8617 83.2553 95.8694 82.8696 96.2647L84.301 97.6615ZM82.9541 96.1745C82.5848 96.5852 82.6185 97.2175 83.0292 97.5867C83.4399 97.9559 84.0722 97.9223 84.4414 97.5116L82.9541 96.1745ZM85.7222 68.6572C85.7222 68.1049 85.2745 67.6572 84.7222 67.6572C84.1699 67.6572 83.7222 68.1049 83.7222 68.6572H85.7222ZM83.7222 66.6505C83.7222 67.2028 84.1699 67.6505 84.7222 67.6505C85.2745 67.6505 85.7222 67.2028 85.7222 66.6505H83.7222ZM85.7222 66.3639C85.7222 65.8116 85.2745 65.3639 84.7222 65.3639C84.1699 65.3639 83.7222 65.8116 83.7222 66.3639H85.7222ZM83.7222 64.9306C83.7222 65.4829 84.1699 65.9306 84.7222 65.9306C85.2745 65.9306 85.7222 65.4829 85.7222 64.9306H83.7222ZM84.4414 36.0761C84.0722 35.6654 83.4399 35.6318 83.0292 36.001C82.6185 36.3703 82.5848 37.0025 82.9541 37.4133L84.4414 36.0761ZM82.8347 37.2879C83.2268 37.6769 83.86 37.6743 84.2489 37.2821C84.6379 36.89 84.6353 36.2569 84.2432 35.8679L82.8347 37.2879ZM84.2139 35.8391C83.8186 35.4534 83.1855 35.4612 82.7998 35.8565C82.4141 36.2518 82.4218 36.8849 82.8171 37.2706L84.2139 35.8391ZM82.7269 37.1861C83.1376 37.5553 83.7699 37.5217 84.1391 37.111C84.5083 36.7003 84.4747 36.068 84.064 35.6988L82.7269 37.1861ZM55.3269 34.418C54.7746 34.418 54.3269 34.8657 54.3269 35.418C54.3269 35.9703 54.7746 36.418 55.3269 36.418V34.418ZM53.3295 36.418C53.8818 36.418 54.3295 35.9703 54.3295 35.418C54.3295 34.8657 53.8818 34.418 53.3295 34.418V36.418ZM53.0442 34.418C52.4919 34.418 52.0442 34.8657 52.0442 35.418C52.0442 35.9703 52.4919 36.418 53.0442 36.418V34.418ZM51.6175 36.418C52.1697 36.418 52.6175 35.9703 52.6175 35.418C52.6175 34.8657 52.1697 34.418 51.6175 34.418V36.418ZM26.2222 34.418C24.9382 34.418 23.7652 34.9032 22.8803 35.6988L24.2175 37.1861C24.7495 36.7078 25.4508 36.418 26.2222 36.418V34.418ZM22.6721 35.897C22.6625 35.9067 22.6529 35.9165 22.6433 35.9263L24.0748 37.323C24.0805 37.3171 24.0863 37.3113 24.0921 37.3054L22.6721 35.897ZM22.503 36.0761C21.7074 36.961 21.2222 38.134 21.2222 39.418H23.2222C23.2222 38.6466 23.512 37.9453 23.9903 37.4133L22.503 36.0761ZM21.2222 39.418V64.9306H23.2222V39.418H21.2222ZM21.2222 66.9372V67.2239H23.2222V66.9372H21.2222ZM21.2222 68.6572V94.1698H23.2222V68.6572H21.2222ZM21.2222 94.1698C21.2222 95.4537 21.7074 96.6267 22.503 97.5116L23.9903 96.1745C23.512 95.6425 23.2222 94.9412 23.2222 94.1698H21.2222ZM22.7012 97.7198C22.7109 97.7294 22.7207 97.739 22.7305 97.7486L24.1272 96.3172C24.1213 96.3114 24.1155 96.3056 24.1096 96.2998L22.7012 97.7198ZM22.8803 97.889C23.7652 98.6845 24.9382 99.1698 26.2222 99.1698V97.1698C25.4508 97.1698 24.7495 96.88 24.2175 96.4017L22.8803 97.889ZM26.2222 99.1698H27.5755V97.1698H26.2222V99.1698ZM27.6819 99.1698H27.6971V97.1698H27.6819V99.1698ZM27.7731 99.1698H29.1264V97.1698H27.7731V99.1698ZM28.1994 98.5447C28.5524 99.4177 29.1419 100.168 29.8876 100.717L31.0733 99.1061C30.6217 98.7737 30.2658 98.3199 30.0535 97.7949L28.1994 98.5447ZM30.0668 100.843C30.0755 100.849 30.0842 100.854 30.0929 100.86L31.1973 99.1927C31.192 99.1893 31.1868 99.1858 31.1816 99.1822L30.0668 100.843ZM30.2247 100.945C30.9949 101.421 31.9033 101.696 32.8728 101.696V99.6958C32.2856 99.6958 31.74 99.5302 31.2768 99.2437L30.2247 100.945ZM32.8728 101.696C33.8424 101.696 34.7508 101.421 35.521 100.945L34.4688 99.2437C34.0057 99.5302 33.4601 99.6958 32.8728 99.6958V101.696ZM35.7048 100.825C35.7134 100.819 35.722 100.813 35.7306 100.808L34.5954 99.161C34.5902 99.1646 34.585 99.1681 34.5798 99.1717L35.7048 100.825ZM35.8581 100.717C36.6038 100.168 37.1932 99.4177 37.5463 98.5447L35.6922 97.7949C35.4798 98.3199 35.124 98.7737 34.6724 99.1061L35.8581 100.717ZM36.6192 99.1698H52.9352V97.1698H36.6192V99.1698ZM54.2184 99.1698H54.4018V97.1698H54.2184V99.1698ZM55.3184 99.1698H71.6343V97.1698H55.3184V99.1698ZM70.7073 98.5447C71.0603 99.4177 71.6498 100.168 72.3955 100.717L73.5812 99.1061C73.1296 98.7737 72.7737 98.3199 72.5614 97.7949L70.7073 98.5447ZM72.5747 100.843C72.5833 100.849 72.592 100.854 72.6007 100.86L73.7051 99.1927C73.6999 99.1893 73.6946 99.1858 73.6894 99.1822L72.5747 100.843ZM72.7326 100.945C73.5027 101.421 74.4112 101.696 75.3807 101.696V99.6958C74.7934 99.6958 74.2479 99.5302 73.7847 99.2437L72.7326 100.945ZM75.3807 101.696C76.3503 101.696 77.2587 101.421 78.0288 100.945L76.9767 99.2437C76.5135 99.5302 75.968 99.6958 75.3807 99.6958V101.696ZM78.2127 100.825C78.2213 100.819 78.2299 100.813 78.2385 100.808L77.1032 99.161C77.0981 99.1646 77.0929 99.1681 77.0877 99.1717L78.2127 100.825ZM78.3659 100.717C79.1116 100.168 79.7011 99.4177 80.0542 98.5447L78.2 97.7949C77.9877 98.3199 77.6318 98.7737 77.1802 99.1061L78.3659 100.717ZM79.1271 99.1698H79.8704V97.1698H79.1271V99.1698ZM79.9288 99.1698H79.9372V97.1698H79.9288V99.1698ZM79.9789 99.1698H80.7222V97.1698H79.9789V99.1698ZM80.7222 99.1698C82.0061 99.1698 83.1791 98.6845 84.064 97.889L82.7269 96.4017C82.1949 96.88 81.4935 97.1698 80.7222 97.1698V99.1698ZM84.2722 97.6908C84.2818 97.681 84.2914 97.6713 84.301 97.6615L82.8696 96.2647C82.8638 96.2706 82.858 96.2765 82.8522 96.2823L84.2722 97.6908ZM84.4414 97.5116C85.2369 96.6267 85.7222 95.4537 85.7222 94.1698H83.7222C83.7222 94.9412 83.4324 95.6425 82.9541 96.1745L84.4414 97.5116ZM85.7222 94.1698V68.6572H83.7222V94.1698H85.7222ZM85.7222 66.6505V66.3639H83.7222V66.6505H85.7222ZM85.7222 64.9306V39.418H83.7222V64.9306H85.7222ZM85.7222 39.418C85.7222 38.134 85.2369 36.961 84.4414 36.0761L82.9541 37.4133C83.4324 37.9453 83.7222 38.6466 83.7222 39.418H85.7222ZM84.2432 35.8679C84.2334 35.8583 84.2237 35.8487 84.2139 35.8391L82.8171 37.2706C82.823 37.2763 82.8289 37.2821 82.8347 37.2879L84.2432 35.8679ZM84.064 35.6988C83.1791 34.9032 82.0061 34.418 80.7222 34.418V36.418C81.4935 36.418 82.1949 36.7078 82.7269 37.1861L84.064 35.6988ZM80.7222 34.418H55.3269V36.418H80.7222V34.418ZM53.3295 34.418H53.0442V36.418H53.3295V34.418ZM51.6175 34.418H26.2222V36.418H51.6175V34.418Z" fill="#004590"/>
<g filter="url(#filter1_i_938_121374)">
<path fill-rule="evenodd" clip-rule="evenodd" d="M29.1665 44.3633C29.1665 43.2587 30.0619 42.3633 31.1665 42.3633H76.8422C77.9468 42.3633 78.8422 43.2587 78.8422 44.3633V90.0032C78.8422 91.1078 77.9468 92.0032 76.8422 92.0032H31.1665C30.0619 92.0032 29.1665 91.1078 29.1665 90.0032V44.3633Z" fill="white"/>
</g>
<path fill-rule="evenodd" clip-rule="evenodd" d="M29.1665 44.3633C29.1665 43.2587 30.0619 42.3633 31.1665 42.3633H76.8422C77.9468 42.3633 78.8422 43.2587 78.8422 44.3633V90.0032C78.8422 91.1078 77.9468 92.0032 76.8422 92.0032H31.1665C30.0619 92.0032 29.1665 91.1078 29.1665 90.0032V44.3633Z" stroke="#004590" stroke-width="2" stroke-linecap="round" stroke-linejoin="round"/>
<g filter="url(#filter2_i_938_121374)">
<path fill-rule="evenodd" clip-rule="evenodd" d="M26.3887 50.4258C26.3887 48.9016 27.6243 47.666 29.1484 47.666C30.6726 47.666 31.9082 48.9016 31.9082 50.4258V56.5502C31.9082 58.0744 30.6726 59.3099 29.1484 59.3099C27.6243 59.3099 26.3887 58.0744 26.3887 56.5502V50.4258Z" fill="white"/>
</g>
<path fill-rule="evenodd" clip-rule="evenodd" d="M26.3887 50.4258C26.3887 48.9016 27.6243 47.666 29.1484 47.666C30.6726 47.666 31.9082 48.9016 31.9082 50.4258V56.5502C31.9082 58.0744 30.6726 59.3099 29.1484 59.3099C27.6243 59.3099 26.3887 58.0744 26.3887 56.5502V50.4258Z" stroke="#004590" stroke-width="2" stroke-linecap="round" stroke-linejoin="round"/>
<g filter="url(#filter3_i_938_121374)">
<path fill-rule="evenodd" clip-rule="evenodd" d="M26.3887 79.082C26.3887 77.5579 27.6243 76.3223 29.1484 76.3223C30.6726 76.3223 31.9082 77.5579 31.9082 79.082V85.2064C31.9082 86.7306 30.6726 87.9662 29.1484 87.9662C27.6243 87.9662 26.3887 86.7306 26.3887 85.2064V79.082Z" fill="white"/>
</g>
<path fill-rule="evenodd" clip-rule="evenodd" d="M26.3887 79.082C26.3887 77.5579 27.6243 76.3223 29.1484 76.3223C30.6726 76.3223 31.9082 77.5579 31.9082 79.082V85.2064C31.9082 86.7306 30.6726 87.9662 29.1484 87.9662C27.6243 87.9662 26.3887 86.7306 26.3887 85.2064V79.082Z" stroke="#004590" stroke-width="2" stroke-linecap="round" stroke-linejoin="round"/>
<path d="M53.3982 77.3234C58.9221 77.3234 63.4013 72.8484 63.4013 67.3267C63.4013 61.8051 58.9221 57.3301 53.3982 57.3301C47.8743 57.3301 43.395 61.8051 43.395 67.3267C43.395 72.8484 47.8743 77.3234 53.3982 77.3234Z" stroke="#004590" stroke-width="2"/>
<path fill-rule="evenodd" clip-rule="evenodd" d="M54.8465 56.9222C54.8465 56.223 54.2869 55.6641 53.5966 55.6641C52.9015 55.6641 52.3467 56.2274 52.3467 56.9222V63.1335C50.7499 63.6598 49.597 65.1672 49.597 66.9447C49.597 67.2866 49.6396 67.6185 49.7199 67.9354L44.2633 71.7669C43.6961 72.1651 43.5579 72.9473 43.9538 73.5143C44.3525 74.0853 45.1302 74.2184 45.6971 73.8203L51.0658 70.0506C51.7552 70.6162 52.6364 70.9555 53.5966 70.9555C54.6629 70.9555 55.6318 70.5371 56.3488 69.855L61.9961 73.8203C62.5633 74.2186 63.3435 74.0813 63.7394 73.5143C64.1381 72.9433 63.9968 72.1649 63.4299 71.7669L57.5381 67.6298C57.5764 67.4072 57.5963 67.1783 57.5963 66.9447C57.5963 65.1672 56.4433 63.6598 54.8465 63.1335V56.9222Z" fill="#D22D27"/>
<path d="M119.097 42.3613H113.889V47.9213H119.097V42.3613Z" stroke="#B5D9F1" stroke-width="2" stroke-linecap="round" stroke-linejoin="round"/>
<path d="M8.42203 26.1071L4.86133 29.9082L8.42203 33.7093L11.9827 29.9082L8.42203 26.1071Z" stroke="#B5D9F1" stroke-width="2" stroke-linecap="round" stroke-linejoin="round"/>
<path d="M101.762 80.9199L106.71 86.2026" stroke="#B5D9F1" stroke-width="2" stroke-linecap="round" stroke-linejoin="round"/>
<path d="M106.536 80.9199L101.587 86.2026" stroke="#B5D9F1" stroke-width="2" stroke-linecap="round" stroke-linejoin="round"/>
<path opacity="0.15" d="M84.7224 37.3438C84.7224 36.8325 84.5158 36.3422 84.148 35.9806C83.7802 35.6191 83.2813 35.416 82.7612 35.416H49.0427C48.1832 39.909 48.6135 44.5484 50.2855 48.8146C51.9575 53.0807 54.805 56.8049 58.5092 59.5699C62.2133 62.3349 66.6276 64.0314 71.2574 64.4694C75.8873 64.9074 80.5498 64.0696 84.7224 62.0497V37.3438Z" fill="#004590"/>
<path d="M89.2119 50.4138L85.397 54.2285L92.0737 60.9054L95.8886 57.0907L89.2119 50.4138Z" fill="white" stroke="#004590" stroke-width="2" stroke-linecap="round" stroke-linejoin="round"/>
<path d="M85.3551 56.636C94.5856 50.3377 96.9627 37.749 90.6644 28.5185C84.3661 19.2879 71.7774 16.9109 62.5469 23.2092C53.3163 29.5075 50.9393 42.0961 57.2376 51.3267C63.5359 60.5572 76.1245 62.9343 85.3551 56.636Z" fill="white" stroke="#004590" stroke-width="2" stroke-linecap="round" stroke-linejoin="round"/>
<path d="M89.9274 42.5129C91.3592 33.689 85.3668 25.3752 76.543 23.9433C67.7191 22.5115 59.4053 28.5039 57.9734 37.3277C56.5416 46.1516 62.534 54.4654 71.3578 55.8973C80.1817 57.3291 88.4955 51.3367 89.9274 42.5129Z" fill="#6CB4E4"/>
<path d="M85.4089 28.4906C82.3736 25.4552 78.2568 23.75 73.9642 23.75C69.6715 23.75 65.5547 25.4552 62.5194 28.4906C59.484 31.5259 57.7788 35.6427 57.7788 39.9354C57.7788 44.228 59.484 48.3448 62.5194 51.3801L85.4089 28.4906Z" fill="#B5D9F1"/>
<path d="M85.3963 28.4796C87.6598 30.7433 89.2012 33.6274 89.8256 36.7671C90.45 39.9068 90.1294 43.1612 88.9043 46.1187C87.6792 49.0762 85.6046 51.604 82.9429 53.3825C80.2811 55.1609 77.1518 56.1102 73.9506 56.1102C70.7494 56.1102 67.6201 55.1609 64.9583 53.3825C62.2966 51.604 60.222 49.0762 58.9969 46.1187C57.7718 43.1612 57.4511 39.9068 58.0755 36.7671C58.7 33.6274 60.2414 30.7433 62.5049 28.4796C64.0079 26.9764 65.7923 25.784 67.7561 24.9705C69.72 24.157 71.8249 23.7383 73.9506 23.7383C76.0763 23.7383 78.1812 24.157 80.145 24.9705C82.1089 25.784 83.8933 26.9764 85.3963 28.4796Z" stroke="#004590" stroke-width="2" stroke-miterlimit="10"/>
<path d="M103.839 74.5796C104.11 74.8508 104.432 75.066 104.786 75.2128C105.14 75.3596 105.52 75.4352 105.903 75.4352C106.287 75.4352 106.666 75.3596 107.021 75.2128C107.375 75.066 107.697 74.8508 107.968 74.5796L109.562 72.984C110.109 72.4366 110.416 71.6943 110.416 70.9203C110.416 70.1464 110.109 69.4041 109.562 68.8567L96.5756 55.8708C96.3932 55.6884 96.1457 55.5859 95.8877 55.5859C95.6297 55.5859 95.3823 55.6884 95.1999 55.8708L90.8527 60.217C90.7623 60.3073 90.6905 60.4146 90.6415 60.5327C90.5926 60.6508 90.5674 60.7775 90.5674 60.9053C90.5674 61.0332 90.5926 61.1598 90.6415 61.2779C90.6905 61.396 90.7623 61.5033 90.8527 61.5937L103.839 74.5796Z" fill="#90C6EB"/>
<path d="M108.857 73.6884L109.562 72.984C109.833 72.7129 110.048 72.3911 110.194 72.037C110.341 71.6828 110.417 71.3032 110.417 70.9199C110.417 70.5365 110.341 70.1569 110.194 69.8027C110.048 69.4486 109.833 69.1268 109.562 68.8557L96.5757 55.8708C96.3932 55.6884 96.1458 55.5859 95.8878 55.5859C95.6298 55.5859 95.3824 55.6884 95.1999 55.8708L93.0264 58.0444L108.774 73.7711L108.857 73.6884Z" fill="#B5D9F1"/>
<path d="M109.562 68.8567C109.833 69.1278 110.048 69.4496 110.194 69.8037C110.341 70.1579 110.417 70.5375 110.417 70.9208C110.417 71.3042 110.341 71.6838 110.194 72.0379C110.048 72.3921 109.833 72.7139 109.562 72.9849L107.967 74.5796C107.42 75.1268 106.677 75.4342 105.903 75.4342C105.129 75.4342 104.387 75.1268 103.84 74.5796L90.8527 61.5937C90.7623 61.5033 90.6905 61.396 90.6415 61.2779C90.5926 61.1598 90.5674 61.0332 90.5674 60.9053C90.5674 60.7775 90.5926 60.6509 90.6415 60.5327C90.6905 60.4146 90.7623 60.3073 90.8527 60.217L95.2018 55.8708C95.3843 55.6884 95.6317 55.5859 95.8897 55.5859C96.1477 55.5859 96.3951 55.6884 96.5776 55.8708L109.562 68.8567Z" stroke="#004590" stroke-width="2" stroke-miterlimit="10"/>
<path d="M82.1701 48.1756L81.4733 47.4584L82.1701 48.1756C82.6623 47.6974 82.9443 47.0426 82.9443 46.3535V38.1504C82.9443 37.4613 82.6623 36.8065 82.1701 36.3283C81.775 35.9444 81.2705 35.6991 80.733 35.6177V34.4395C80.733 32.7662 80.0486 31.1675 78.8402 29.9933C77.6327 28.8202 76.001 28.166 74.3054 28.166C72.6098 28.166 70.9781 28.8202 69.7706 29.9933C68.5622 31.1675 67.8778 32.7662 67.8778 34.4395V35.6177C67.3403 35.6991 66.8358 35.9444 66.4407 36.3283C65.9485 36.8065 65.6665 37.4613 65.6665 38.1504V46.3535C65.6665 47.0426 65.9485 47.6974 66.4407 48.1756C66.9319 48.6528 67.5921 48.916 68.2747 48.916H80.3361C81.0187 48.916 81.6789 48.6528 82.1701 48.1756ZM76.7228 34.4395V35.5879H71.888V34.4395C71.888 33.8335 72.1355 33.2464 72.5858 32.8089C73.0371 32.3704 73.6551 32.1191 74.3054 32.1191C74.9557 32.1191 75.5737 32.3704 76.025 32.8089C76.4753 33.2464 76.7228 33.8335 76.7228 34.4395ZM76.0832 42.3605C76.0832 43.3423 75.2872 44.1382 74.3054 44.1382C73.3236 44.1382 72.5276 43.3423 72.5276 42.3605C72.5276 41.3786 73.3236 40.5827 74.3054 40.5827C75.2872 40.5827 76.0832 41.3786 76.0832 42.3605Z" fill="white" stroke="#3598DB" stroke-width="2"/>
<path d="M94.6284 20.6978L99.3055 19.7754" stroke="#B5D9F1" stroke-width="2.20447" stroke-linecap="round" stroke-linejoin="round"/>
<path d="M87.5601 16.1038L87.7156 11.3281" stroke="#B5D9F1" stroke-width="2.20447" stroke-linecap="round" stroke-linejoin="round"/>
<path d="M91.9238 17.1136L94.7839 13.291" stroke="#B5D9F1" stroke-width="2.20447" stroke-linecap="round" stroke-linejoin="round"/>
<path fill-rule="evenodd" clip-rule="evenodd" d="M44.8334 12.119C45.9617 12.119 46.8763 11.2022 46.8763 10.0712C46.8763 8.94027 45.9617 8.02344 44.8334 8.02344C43.7052 8.02344 42.7905 8.94027 42.7905 10.0712C42.7905 11.2022 43.7052 12.119 44.8334 12.119Z" stroke="#B5D9F1" stroke-width="2.20447" stroke-linecap="round" stroke-linejoin="round"/>
<defs>
<filter id="filter0_i_938_121374" x="21.2222" y="34.418" width="64.5" height="67.2773" filterUnits="userSpaceOnUse" color-interpolation-filters="sRGB">
<feFlood flood-opacity="0" result="BackgroundImageFix"/>
<feBlend mode="normal" in="SourceGraphic" in2="BackgroundImageFix" result="shape"/>
<feColorMatrix in="SourceAlpha" type="matrix" values="0 0 0 0 0 0 0 0 0 0 0 0 0 0 0 0 0 0 127 0" result="hardAlpha"/>
<feOffset dy="-4"/>
<feComposite in2="hardAlpha" operator="arithmetic" k2="-1" k3="1"/>
<feColorMatrix type="matrix" values="0 0 0 0 0.760784 0 0 0 0 0.878431 0 0 0 0 0.956863 0 0 0 1 0"/>
<feBlend mode="normal" in2="shape" result="effect1_innerShadow_938_121374"/>
</filter>
<filter id="filter1_i_938_121374" x="28.1665" y="41.3633" width="51.6758" height="51.6406" filterUnits="userSpaceOnUse" color-interpolation-filters="sRGB">
<feFlood flood-opacity="0" result="BackgroundImageFix"/>
<feBlend mode="normal" in="SourceGraphic" in2="BackgroundImageFix" result="shape"/>
<feColorMatrix in="SourceAlpha" type="matrix" values="0 0 0 0 0 0 0 0 0 0 0 0 0 0 0 0 0 0 127 0" result="hardAlpha"/>
<feOffset dx="6" dy="-6"/>
<feComposite in2="hardAlpha" operator="arithmetic" k2="-1" k3="1"/>
<feColorMatrix type="matrix" values="0 0 0 0 0.709804 0 0 0 0 0.85098 0 0 0 0 0.945098 0 0 0 1 0"/>
<feBlend mode="normal" in2="shape" result="effect1_innerShadow_938_121374"/>
</filter>
<filter id="filter2_i_938_121374" x="25.3887" y="46.666" width="7.51953" height="13.6445" filterUnits="userSpaceOnUse" color-interpolation-filters="sRGB">
<feFlood flood-opacity="0" result="BackgroundImageFix"/>
<feBlend mode="normal" in="SourceGraphic" in2="BackgroundImageFix" result="shape"/>
<feColorMatrix in="SourceAlpha" type="matrix" values="0 0 0 0 0 0 0 0 0 0 0 0 0 0 0 0 0 0 127 0" result="hardAlpha"/>
<feOffset dx="3" dy="-4"/>
<feComposite in2="hardAlpha" operator="arithmetic" k2="-1" k3="1"/>
<feColorMatrix type="matrix" values="0 0 0 0 0.709804 0 0 0 0 0.85098 0 0 0 0 0.945098 0 0 0 1 0"/>
<feBlend mode="normal" in2="shape" result="effect1_innerShadow_938_121374"/>
</filter>
<filter id="filter3_i_938_121374" x="25.3887" y="75.3223" width="7.51953" height="13.6445" filterUnits="userSpaceOnUse" color-interpolation-filters="sRGB">
<feFlood flood-opacity="0" result="BackgroundImageFix"/>
<feBlend mode="normal" in="SourceGraphic" in2="BackgroundImageFix" result="shape"/>
<feColorMatrix in="SourceAlpha" type="matrix" values="0 0 0 0 0 0 0 0 0 0 0 0 0 0 0 0 0 0 127 0" result="hardAlpha"/>
<feOffset dx="3" dy="-4"/>
<feComposite in2="hardAlpha" operator="arithmetic" k2="-1" k3="1"/>
<feColorMatrix type="matrix" values="0 0 0 0 0.709804 0 0 0 0 0.85098 0 0 0 0 0.945098 0 0 0 1 0"/>
<feBlend mode="normal" in2="shape" result="effect1_innerShadow_938_121374"/>
</filter>
</defs>
</svg>
