<svg width="120" height="80" viewBox="0 0 120 80" fill="none" xmlns="http://www.w3.org/2000/svg">
<path d="M4.65527 31.8926C4.65527 30.3397 6.46026 29.0811 8.68696 29.0811H104.407C106.633 29.0811 108.439 30.3397 108.439 31.8926V47.0263C108.439 48.5792 106.633 49.8378 104.407 49.8378H8.68696C6.46026 49.8378 4.65527 48.5792 4.65527 47.0263V31.8926Z" fill="white" stroke="#264887" stroke-width="1.25"/>
<path d="M20.4355 36.5152H19.1788V39.7432C19.1788 40.5794 18.7328 41.0861 17.917 41.0861C17.167 41.0861 16.8173 40.6706 16.8173 39.8091V36.5152H15.5605V40.1131C15.5605 41.4104 16.27 42.1655 17.4812 42.1655C18.3274 42.1655 18.8697 41.8057 19.1382 41.1723H19.2244V42.054H20.4355V36.5152Z" fill="#264887"/>
<path d="M26.1264 34.7364C23.6078 34.7364 21.8798 36.4594 21.8798 38.9628C21.8798 41.527 23.5825 43.1892 26.2126 43.1892C26.7852 43.1892 27.3376 43.1131 27.7582 42.9814V42.2314C27.4643 42.353 26.8612 42.4341 26.2632 42.4341C24.1045 42.4341 22.7312 41.0962 22.7312 38.9932C22.7312 36.9307 24.1146 35.4814 26.0808 35.4814C28.042 35.4814 29.3545 36.7027 29.3545 38.5321C29.3545 39.652 28.9997 40.3716 28.4372 40.3716C28.1078 40.3716 27.9203 40.1587 27.9203 39.804V36.9966H26.993V37.6047H26.9018C26.7041 37.1587 26.2582 36.8902 25.721 36.8902C24.6974 36.8902 23.993 37.7364 23.993 38.9679C23.993 40.255 24.6974 41.1165 25.7514 41.1165C26.3393 41.1165 26.77 40.8378 26.9828 40.326H27.0741C27.1653 40.8175 27.6264 41.1419 28.2447 41.1419C29.4507 41.1419 30.2058 40.1182 30.2058 38.4915C30.2058 36.2669 28.5437 34.7364 26.1264 34.7364ZM25.9541 37.7314C26.5521 37.7314 26.9271 38.2179 26.9271 38.9983C26.9271 39.7736 26.547 40.2601 25.9491 40.2601C25.3714 40.2601 25.0166 39.7837 25.0166 38.9983C25.0166 38.2027 25.3663 37.7314 25.9541 37.7314Z" fill="#264887"/>
<path d="M31.6146 42.054H32.8714V34.3716H31.6146V42.054Z" fill="#264887"/>
<path d="M35.9879 42.1452C36.7126 42.1452 37.3207 41.831 37.6298 41.2939H37.716V42.054H38.9271V38.2685C38.9271 37.0979 38.1264 36.4087 36.7024 36.4087C35.3849 36.4087 34.4676 37.027 34.3663 37.9949H35.5521C35.6687 37.6148 36.0639 37.4071 36.6416 37.4071C37.3207 37.4071 37.6855 37.7162 37.6855 38.2685V38.7449L36.2565 38.831C34.9085 38.9071 34.1535 39.4898 34.1535 40.4831C34.1535 41.4966 34.9187 42.1452 35.9879 42.1452ZM36.3578 41.1773C35.8004 41.1773 35.4001 40.8986 35.4001 40.4223C35.4001 39.9611 35.7295 39.7027 36.4339 39.6571L37.6855 39.5709V40.0219C37.6855 40.6807 37.118 41.1773 36.3578 41.1773Z" fill="#264887"/>
<path d="M40.3156 38.0962C40.3156 38.9273 40.8173 39.4138 41.8815 39.6571L42.8646 39.8851C43.3916 40.0067 43.6298 40.2094 43.6298 40.5236C43.6298 40.9442 43.1889 41.2331 42.5555 41.2331C41.9271 41.2331 41.5369 40.9797 41.4153 40.5692H40.1737C40.27 41.5675 41.1416 42.1655 42.5251 42.1655C43.9085 42.1655 44.8866 41.4611 44.8866 40.402C44.8866 39.5861 44.395 39.1351 43.3359 38.8919L42.3578 38.6739C41.8004 38.5422 41.5369 38.3446 41.5369 38.0304C41.5369 37.6199 41.9676 37.3412 42.5403 37.3412C43.1281 37.3412 43.498 37.5946 43.5893 37.9848H44.77C44.6788 36.9864 43.8528 36.4087 42.5352 36.4087C41.2278 36.4087 40.3156 37.103 40.3156 38.0962Z" fill="#264887"/>
<path d="M46.5183 35.1571V36.5506H45.6416V37.5287H46.5183V40.5844C46.5183 41.6537 47.0251 42.0794 48.297 42.0794C48.5403 42.0794 48.7734 42.0591 48.9558 42.0236V41.0608C48.8038 41.076 48.7075 41.0861 48.5301 41.0861C48.0031 41.0861 47.77 40.8378 47.77 40.2854V37.5287H48.9558V36.5506H47.77V35.1571H46.5183Z" fill="#264887"/>
<path d="M53.2328 36.4239C52.4727 36.4239 51.8291 36.804 51.5099 37.4324H51.4237V36.5152H50.2126V43.8935H51.4693V41.2128H51.5555C51.8393 41.8006 52.4524 42.1452 53.248 42.1452C54.6467 42.1452 55.5183 41.0456 55.5183 39.2871C55.5183 37.5135 54.6366 36.4239 53.2328 36.4239ZM52.8376 41.1013C51.9812 41.1013 51.4491 40.4071 51.444 39.2871C51.4491 38.1672 51.9862 37.4729 52.8426 37.4729C53.7041 37.4729 54.2261 38.152 54.2261 39.2871C54.2261 40.4223 53.7092 41.1013 52.8376 41.1013Z" fill="#264887"/>
<path d="M58.3055 42.1452C59.0301 42.1452 59.6382 41.831 59.9474 41.2939H60.0335V42.054H61.2447V38.2685C61.2447 37.0979 60.444 36.4087 59.02 36.4087C57.7024 36.4087 56.7852 37.027 56.6839 37.9949H57.8697C57.9862 37.6148 58.3815 37.4071 58.9592 37.4071C59.6382 37.4071 60.0031 37.7162 60.0031 38.2685V38.7449L58.5741 38.831C57.2261 38.9071 56.471 39.4898 56.471 40.4831C56.471 41.4966 57.2362 42.1452 58.3055 42.1452ZM58.6754 41.1773C58.118 41.1773 57.7176 40.8986 57.7176 40.4223C57.7176 39.9611 58.047 39.7027 58.7514 39.6571L60.0031 39.5709V40.0219C60.0031 40.6807 59.4355 41.1773 58.6754 41.1773Z" fill="#264887"/>
<path d="M62.6332 38.0962C62.6332 38.9273 63.1349 39.4138 64.1991 39.6571L65.1822 39.8851C65.7092 40.0067 65.9474 40.2094 65.9474 40.5236C65.9474 40.9442 65.5065 41.2331 64.873 41.2331C64.2447 41.2331 63.8545 40.9797 63.7328 40.5692H62.4913C62.5876 41.5675 63.4592 42.1655 64.8426 42.1655C66.2261 42.1655 67.2041 41.4611 67.2041 40.402C67.2041 39.5861 66.7126 39.1351 65.6534 38.8919L64.6754 38.6739C64.118 38.5422 63.8545 38.3446 63.8545 38.0304C63.8545 37.6199 64.2852 37.3412 64.8578 37.3412C65.4457 37.3412 65.8156 37.5946 65.9068 37.9848H67.0876C66.9963 36.9864 66.1703 36.4087 64.8528 36.4087C63.5453 36.4087 62.6332 37.103 62.6332 38.0962Z" fill="#264887"/>
<path d="M68.248 38.0962C68.248 38.9273 68.7497 39.4138 69.8139 39.6571L70.797 39.8851C71.3241 40.0067 71.5622 40.2094 71.5622 40.5236C71.5622 40.9442 71.1213 41.2331 70.4879 41.2331C69.8595 41.2331 69.4693 40.9797 69.3477 40.5692H68.1061C68.2024 41.5675 69.0741 42.1655 70.4575 42.1655C71.8409 42.1655 72.819 41.4611 72.819 40.402C72.819 39.5861 72.3274 39.1351 71.2683 38.8919L70.2903 38.6739C69.7328 38.5422 69.4693 38.3446 69.4693 38.0304C69.4693 37.6199 69.9001 37.3412 70.4727 37.3412C71.0605 37.3412 71.4305 37.5946 71.5217 37.9848H72.7024C72.6112 36.9864 71.7852 36.4087 70.4676 36.4087C69.1602 36.4087 68.248 37.103 68.248 38.0962Z" fill="#264887"/>
<path d="M75.0284 42.1554C75.5099 42.1554 75.8393 41.8158 75.8393 41.3648C75.8393 40.9189 75.5099 40.5794 75.0284 40.5794C74.5521 40.5794 74.2176 40.9189 74.2176 41.3648C74.2176 41.8158 74.5521 42.1554 75.0284 42.1554Z" fill="#264887"/>
<path d="M82.0926 38.3648C81.9609 37.2196 81.0994 36.4087 79.6754 36.4087C78.0082 36.4087 77.0301 37.478 77.0301 39.2719C77.0301 41.0861 78.0132 42.1655 79.6805 42.1655C81.0842 42.1655 81.9558 41.3851 82.0926 40.2398H80.8967C80.7649 40.8226 80.3291 41.1317 79.6754 41.1317C78.819 41.1317 78.3021 40.4476 78.3021 39.2719C78.3021 38.1165 78.8139 37.4375 79.6754 37.4375C80.3646 37.4375 80.7801 37.8277 80.8967 38.3648H82.0926Z" fill="#264887"/>
<path d="M85.6855 42.1655C87.3426 42.1655 88.3511 41.081 88.3511 39.2821C88.3511 37.4932 87.3376 36.4087 85.6855 36.4087C84.0386 36.4087 83.02 37.4983 83.02 39.2821C83.02 41.081 84.0234 42.1655 85.6855 42.1655ZM85.6855 41.1368C84.8088 41.1368 84.3072 40.4577 84.3072 39.2871C84.3072 38.1165 84.8088 37.4375 85.6855 37.4375C86.5572 37.4375 87.0588 38.1165 87.0588 39.2871C87.0588 40.4577 86.5622 41.1368 85.6855 41.1368Z" fill="#264887"/>
<path d="M89.618 42.054H90.8747V38.6841C90.8747 37.9949 91.3359 37.4729 91.9592 37.4729C92.5774 37.4729 92.9626 37.8479 92.9626 38.4611V42.054H94.1838V38.5929C94.1838 37.9594 94.6146 37.4729 95.2683 37.4729C95.9423 37.4729 96.2818 37.8327 96.2818 38.5523V42.054H97.5335V38.2432C97.5335 37.0929 96.8646 36.4087 95.7548 36.4087C94.9845 36.4087 94.346 36.804 94.0724 37.4071H93.9862C93.7531 36.7939 93.221 36.4087 92.4558 36.4087C91.721 36.4087 91.1534 36.7837 90.9153 37.4071H90.8291V36.5152H89.618V42.054Z" fill="#264887"/>
<path d="M97.0228 20C96.6099 20 96.214 20.164 95.922 20.456C95.6301 20.7479 95.4661 21.1439 95.4661 21.5568V30.8973C95.4661 35.8924 102.974 41.451 105.526 43.1022C105.775 43.2647 106.066 43.3512 106.363 43.3512C106.661 43.3512 106.952 43.2647 107.201 43.1022C109.753 41.451 117.261 35.8924 117.261 30.8973V21.5568C117.261 21.3523 117.22 21.1499 117.142 20.961C117.064 20.7721 116.949 20.6005 116.805 20.456C116.66 20.3114 116.488 20.1967 116.3 20.1185C116.111 20.0403 115.908 20 115.704 20H97.0228Z" fill="white" stroke="#264887" stroke-width="1.2973" stroke-linecap="round" stroke-linejoin="round"/>
<path d="M102.212 30.8851L104.331 33.8957C104.411 34.0155 104.519 34.1145 104.646 34.1843C104.772 34.2542 104.913 34.2929 105.058 34.2972C105.202 34.3015 105.345 34.2713 105.476 34.2091C105.606 34.147 105.72 34.0546 105.807 33.9398L112.59 25.3542" stroke="#D7403A" stroke-width="1.2973" stroke-linecap="round" stroke-linejoin="round"/>
<path fill-rule="evenodd" clip-rule="evenodd" d="M97.2196 20.456C97.5116 20.164 97.9075 20 98.3204 20H117.001C117.002 20 117.003 20 117.004 20H100.915C100.502 20 100.106 20.164 99.8139 20.456C99.522 20.7479 99.358 21.1439 99.358 21.5568V30.8973C99.358 35.62 106.069 40.8465 108.958 42.798C108.791 42.9105 108.638 43.0122 108.498 43.1022C108.249 43.2647 107.958 43.3512 107.661 43.3512C107.364 43.3512 107.073 43.2647 106.823 43.1022C104.271 41.451 96.7637 35.8924 96.7637 30.8973V21.5568C96.7637 21.1439 96.9277 20.7479 97.2196 20.456Z" fill="#B5D9F1"/>
<path d="M97.0228 20C96.6099 20 96.214 20.164 95.922 20.456C95.6301 20.7479 95.4661 21.1439 95.4661 21.5568V30.8973C95.4661 35.8924 102.974 41.451 105.526 43.1022C105.775 43.2647 106.066 43.3512 106.363 43.3512C106.661 43.3512 106.952 43.2647 107.201 43.1022C109.753 41.451 117.261 35.8924 117.261 30.8973V21.5568C117.261 21.3523 117.22 21.1499 117.142 20.961C117.064 20.7721 116.949 20.6005 116.805 20.456C116.66 20.3114 116.488 20.1967 116.3 20.1185C116.111 20.0403 115.908 20 115.704 20H97.0228Z" stroke="#264887" stroke-width="1.25" stroke-linecap="round" stroke-linejoin="round"/>
<path fill-rule="evenodd" clip-rule="evenodd" d="M20.4998 71C21.8805 71 22.9998 69.8807 22.9998 68.5C22.9998 67.1193 21.8805 66 20.4998 66C19.119 66 17.9998 67.1193 17.9998 68.5C17.9998 69.8807 19.119 71 20.4998 71Z" stroke="#F0C936"/>
<rect x="99.9998" y="62" width="5" height="5.00002" stroke="#F0C936" stroke-linecap="round" stroke-linejoin="round"/>
<rect x="29.9998" y="58" width="5" height="5.00001" stroke="#F0C936" stroke-linecap="round" stroke-linejoin="round"/>
<rect width="4" height="4" transform="matrix(0.707106 -0.707107 0.707106 0.707107 8.54688 43.3558)" stroke="#F0C936" stroke-width="0.7" stroke-linecap="round" stroke-linejoin="round"/>
<path d="M32.2083 10.2083L36.9587 14.9587" stroke="#F0C936" stroke-linecap="round"/>
<path d="M36.7912 10.2083L32.0408 14.9587" stroke="#F0C936" stroke-linecap="round"/>
<path d="M94.3313 14.6192L94.6856 14.972L94.3313 14.6192C94.0738 14.8779 93.7249 15.0228 93.3617 15.0228H92.1135C91.8146 15.0228 91.5285 15.1421 91.3178 15.3536C91.1073 15.5651 90.9894 15.8515 90.9894 16.1497V17.4035C90.9894 17.7704 90.8442 18.1218 90.5866 18.3806C90.3291 18.6393 89.9803 18.7842 89.617 18.7842C89.2538 18.7842 88.905 18.6393 88.6474 18.3806C88.3898 18.1218 88.2447 17.7704 88.2447 17.4035V16.1497C88.2447 15.8515 88.1268 15.5651 87.9162 15.3536C87.7056 15.1421 87.4194 15.0228 87.1206 15.0228H85.8723C85.5091 15.0228 85.1603 14.8779 84.9027 14.6192C84.6451 14.3604 84.5 14.009 84.5 13.6421C84.5 13.2752 84.6451 12.9238 84.9027 12.665C85.1603 12.4063 85.5091 12.2614 85.8723 12.2614H87.1206C87.4194 12.2614 87.7056 12.1421 87.9162 11.9305C88.1268 11.719 88.2447 11.4327 88.2447 11.1345V9.8807C88.2447 9.5138 88.3898 9.16237 88.6474 8.90361L88.2931 8.55084L88.6474 8.90361C88.905 8.64492 89.2538 8.5 89.617 8.5C89.9803 8.5 90.3291 8.64492 90.5866 8.90361C90.8442 9.16237 90.9894 9.5138 90.9894 9.8807V11.1345C90.9894 11.4327 91.1073 11.719 91.3178 11.9305C91.5285 12.1421 91.8146 12.2614 92.1135 12.2614H93.3617C93.7249 12.2614 94.0738 12.4063 94.3313 12.665C94.5889 12.9238 94.734 13.2752 94.734 13.6421C94.734 14.009 94.5889 14.3604 94.3313 14.6192Z" fill="#F0C936" stroke="#F0C936"/>
</svg>
