<svg width="20" height="20" viewBox="0 0 20 20" fill="none" xmlns="http://www.w3.org/2000/svg">
<path d="M20.0002 1.667C20.0002 1.22497 19.8246 0.80105 19.512 0.48849C19.1995 0.175929 18.7756 0.000334351 18.3335 0.000334351H1.66687C1.44632 -0.00418669 1.22724 0.037185 1.02354 0.121824C0.819829 0.206463 0.635938 0.332522 0.483534 0.492001C0.327401 0.644767 0.204022 0.827737 0.120924 1.02975C0.0378262 1.23177 -0.00325005 1.44859 0.000200717 1.667V7.75867C0.0157805 10.6174 1.00238 13.3859 2.79817 15.6102C4.59397 17.8345 7.09235 19.3825 9.88353 20.0003C9.93878 20.0085 9.99495 20.0085 10.0502 20.0003C10.1055 20.0082 10.1616 20.0082 10.2169 20.0003C13.0042 19.358 15.4905 17.7876 17.268 15.5467C19.0456 13.3058 20.009 10.5273 20.0002 7.667V1.667ZM13.4169 8.75867L7.41687 15.3337C7.3791 15.3738 7.32876 15.3998 7.2742 15.4073C7.21965 15.4149 7.16413 15.4036 7.11687 15.3753C7.06905 15.3459 7.03345 15.3002 7.01661 15.2466C6.99977 15.193 7.00282 15.1352 7.0252 15.0837L8.89187 10.2753C8.90598 10.2454 8.9133 10.2126 8.9133 10.1795C8.9133 10.1464 8.90598 10.1136 8.89187 10.0837C8.87205 10.0556 8.84585 10.0327 8.81542 10.0167C8.785 10.0008 8.75121 9.99231 8.71687 9.992H6.93353C6.84951 9.99424 6.76643 9.97374 6.69309 9.93267C6.61975 9.8916 6.55887 9.83148 6.51687 9.75867C6.47361 9.68548 6.45079 9.60202 6.45079 9.517C6.45079 9.43198 6.47361 9.34853 6.51687 9.27533L9.78353 3.57533C9.82473 3.50059 9.88498 3.43808 9.95817 3.39417C10.0314 3.35026 10.1149 3.32651 10.2002 3.32533H12.6085C12.6937 3.32734 12.7769 3.35144 12.8499 3.39526C12.923 3.43909 12.9834 3.50114 13.0252 3.57533C13.0685 3.64853 13.0913 3.73198 13.0913 3.817C13.0913 3.90202 13.0685 3.98548 13.0252 4.05867L11.0252 7.60033C11.0091 7.63269 11.0007 7.66835 11.0007 7.7045C11.0007 7.74066 11.0091 7.77632 11.0252 7.80867C11.0443 7.84 11.0712 7.86574 11.1034 7.8833C11.1356 7.90086 11.1719 7.90961 11.2085 7.90867H13.0919C13.1844 7.91066 13.2745 7.93921 13.3513 7.99092C13.4281 8.04263 13.4885 8.11532 13.5252 8.20033C13.5603 8.28751 13.5687 8.38313 13.5494 8.4751C13.5301 8.56707 13.484 8.65125 13.4169 8.717V8.75867Z" fill="#88959E"/>
</svg>
