<svg width="24" height="18" viewBox="0 0 24 18" xmlns="http://www.w3.org/2000/svg" xmlns:xlink="http://www.w3.org/1999/xlink"><defs><path d="M1 0h22a1 1 0 0 1 1 1v16a1 1 0 0 1-1 1H1a1 1 0 0 1-1-1V1a1 1 0 0 1 1-1z" id="a"/><path d="M1 1v16h22V1H1zm0-1h22a1 1 0 0 1 1 1v16a1 1 0 0 1-1 1H1a1 1 0 0 1-1-1V1a1 1 0 0 1 1-1z" id="c"/></defs><g fill="none" fill-rule="evenodd"><mask id="b" fill="#fff"><use xlink:href="#a"/></mask><use fill="#D32011" fill-rule="nonzero" xlink:href="#a"/><path d="M1 0h22a1 1 0 0 1 1 1v16a1 1 0 0 1-1 1H1a1 1 0 0 1-1-1V1a1 1 0 0 1 1-1z" fill="#D32011" fill-rule="nonzero" mask="url(#b)"/><path d="M12 7.498c.828 0 1.499.078 1.499-.75a1.499 1.499 0 0 0-2.998 0c0 .828.671.75 1.499.75z" fill="#FFF" mask="url(#b)"/><path d="M12 5.836c.369 0 .668.369.668 0 0-.246-.223-.691-.668-1.336-.445.645-.668 1.09-.668 1.336 0 .369.3 0 .668 0z" fill="#FFF" mask="url(#b)"/><path fill="#000" fill-rule="nonzero" mask="url(#b)" d="M0 0h8v18H0z"/><path fill="#007A36" fill-rule="nonzero" mask="url(#b)" d="M16 0h8v18h-8z"/><path fill="#FFF" mask="url(#b)" d="M9.75 10.5h4.5l.75.75H9zm0-3h4.5l.75-.75H9zm1.5 1.5H12v1.5h-.75zm.75.75h.75v.75H12z"/><path d="M9.75 6.75h4.5v3.75h-4.5V6.75zM12 7.5A1.5 1.5 0 0 0 10.5 9v1.5h3V9A1.5 1.5 0 0 0 12 7.5zm1.5-2.25l.75.75v.75h-.75zM9.75 6l.75-.75v1.5h-.75z" fill="#FFF" mask="url(#b)"/><path d="M9.033 3.034A5.973 5.973 0 0 1 12 2.25c1.08 0 2.092.285 2.967.784l-.624.623A4.479 4.479 0 0 0 12 3c-.858 0-1.66.24-2.343.657l-.624-.623zM7.5 8.25a4.5 4.5 0 0 0 3.307 4.34 1.498 1.498 0 0 1 2.386 0 4.502 4.502 0 0 0 1.591-7.876l.641-.64a6 6 0 1 1-6.85 0l.641.64A4.492 4.492 0 0 0 7.5 8.25zM12 13.5c.414 0 .75.025.75-.25 0-.276-.336-.5-.75-.5s-.75.224-.75.5c0 .275.336.25.75.25z" fill="#FFF" mask="url(#b)"/><path fill="#FFF" mask="url(#b)" d="M17.25 15h-3v-1.5h1.25zm-10.5 0h3v-1.5H8.5zm2.996-5.993L8.983 7.5 8.25 9.75zm4.504 0l.764-1.507.732 2.25z"/><use fill="#000" fill-rule="nonzero" opacity=".2" xlink:href="#c"/></g></svg>