<svg width="24" height="18" viewBox="0 0 24 18" xmlns="http://www.w3.org/2000/svg"><g fill="none" fill-rule="evenodd"><path d="M1 0h22a1 1 0 0 1 1 1v16a1 1 0 0 1-1 1H1a1 1 0 0 1-1-1V1a1 1 0 0 1 1-1z" fill="#E41E20"/><path fill="#262626" d="M8.426 9.838L7.5 6.75h2.25l1.35.9L9 4.5l3 .75v1.125V5.25l3-.75-2.1 3.15 1.35-.9h2.25l-.926 3.088-2.824 1.412 1.781.89L12 14.25l-2.531-2.11 1.781-.89z"/><path d="M1 1v16h22V1H1zm0-1h22a1 1 0 0 1 1 1v16a1 1 0 0 1-1 1H1a1 1 0 0 1-1-1V1a1 1 0 0 1 1-1z" fill="#000" fill-rule="nonzero" opacity=".2"/></g></svg>