<svg width="24" height="18" viewBox="0 0 24 18" xmlns="http://www.w3.org/2000/svg"><g fill="none" fill-rule="evenodd"><path d="M1 0h22a1 1 0 0 1 1 1v16a1 1 0 0 1-1 1H1a1 1 0 0 1-1-1V1a1 1 0 0 1 1-1z" fill="#F7F7F7"/><path d="M0 13h24v4a1 1 0 0 1-1 1H1a1 1 0 0 1-1-1v-4z" fill="#75ADE0"/><path d="M12 12a3 3 0 1 1 0-6 3 3 0 0 1 0 6z" fill="#A85904" fill-rule="nonzero"/><path d="M12 10a1 1 0 1 0 0-2 1 1 0 0 0 0 2z" fill="#F6B506"/><path d="M1 0h22a1 1 0 0 1 1 1v4H0V1a1 1 0 0 1 1-1z" fill="#75ADE0"/><path d="M1 1v16h22V1H1zm0-1h22a1 1 0 0 1 1 1v16a1 1 0 0 1-1 1H1a1 1 0 0 1-1-1V1a1 1 0 0 1 1-1z" fill="#000" fill-rule="nonzero" opacity=".2"/></g></svg>