<svg width="24" height="18" viewBox="0 0 24 18" xmlns="http://www.w3.org/2000/svg"><g fill="none" fill-rule="evenodd"><path d="M1 0h22a1 1 0 0 1 1 1v16a1 1 0 0 1-1 1H1a1 1 0 0 1-1-1V1a1 1 0 0 1 1-1z" fill="#273C83"/><path d="M.875.008l5.313 3.45L11.511 0H12v1.919L7.909 4.575 12 7.232V9h-.72L6.187 5.693 1.096 9H0V7.476l4.466-2.9L0 1.675V1A1 1 0 0 1 .875.008z" fill="#F7F7F7"/><path d="M12 .232v.894l-5.311 3.45L12 8.024v.894L6 5.023 0 8.919v-.894l5.311-3.45L0 1.126V1A.99.99 0 0 1 .22.375L6 4.128l6-3.896z" fill="#DC1E35"/><path fill="#F7F7F7" d="M8 3h4v4H8v2H4V7H0V3h4V0h4z"/><path fill="#DC1E35" d="M7 4V0H5v4H0v2h5v3h2V6h5V4z"/><path d="M21 8a1 1 0 1 1 0-2 1 1 0 0 1 0 2zm-3-3a1 1 0 1 1 0-2 1 1 0 0 1 0 2zM5.5 15a1.5 1.5 0 1 1 0-3 1.5 1.5 0 0 1 0 3zM18 14a1 1 0 1 1 0-2 1 1 0 0 1 0 2zm-2.5-5a1.5 1.5 0 1 1 0-3 1.5 1.5 0 0 1 0 3z" fill="#F7F7F7"/><path d="M1 1v16h22V1H1zm0-1h22a1 1 0 0 1 1 1v16a1 1 0 0 1-1 1H1a1 1 0 0 1-1-1V1a1 1 0 0 1 1-1z" fill="#000" fill-rule="nonzero" opacity=".2"/></g></svg>