<svg xmlns="http://www.w3.org/2000/svg" width="24" height="18" viewBox="0 0 24 18"><g fill="none" fill-rule="evenodd"><path fill="#F02532" d="M1 0h22a1 1 0 0 1 1 1v16a1 1 0 0 1-1 1H1a1 1 0 0 1-1-1V1a1 1 0 0 1 1-1z"/><path fill="#3B9D2E" d="M0 12h24v5a1 1 0 0 1-1 1H1a1 1 0 0 1-1-1v-5z"/><path fill="#00B8E6" d="M0 6h24V1a1 1 0 0 0-1-1H1a1 1 0 0 0-1 1v5z"/><path fill="#000" fill-rule="nonzero" d="M1 1v16h22V1H1zm0-1h22a1 1 0 0 1 1 1v16a1 1 0 0 1-1 1H1a1 1 0 0 1-1-1V1a1 1 0 0 1 1-1z" opacity=".2"/><circle cx="14" cy="9" r="1" fill="#FFF"/><path fill="#FFF" d="M12.8 6.698a3.031 3.031 0 1 0 0 4.609 2.425 2.425 0 1 1 0-4.609z"/></g></svg>