<svg xmlns="http://www.w3.org/2000/svg" width="24" height="18" viewBox="0 0 24 18"><g fill="none" fill-rule="evenodd"><path fill="#002397" d="M1 0h22a1 1 0 0 1 1 1v16a1 1 0 0 1-1 1H1a1 1 0 0 1-1-1V1a1 1 0 0 1 1-1z"/><path fill="#FFF" d="M16 18a1 1 0 0 1 2 0h-2zM4 0h2a1 1 0 1 1-2 0zm3 4a1 1 0 1 1 0-2 1 1 0 0 1 0 2zm2 3a1 1 0 1 1 0-2 1 1 0 0 1 0 2zm2 3a1 1 0 1 1 0-2 1 1 0 0 1 0 2zm2 3a1 1 0 1 1 0-2 1 1 0 0 1 0 2zm2 3a1 1 0 1 1 0-2 1 1 0 0 1 0 2z"/><path fill="#FFCA00" d="M8 0h12v18z"/><path fill="#000" fill-rule="nonzero" d="M1 1v16h22V1H1zm0-1h22a1 1 0 0 1 1 1v16a1 1 0 0 1-1 1H1a1 1 0 0 1-1-1V1a1 1 0 0 1 1-1z" opacity=".2"/></g></svg>