<svg xmlns="http://www.w3.org/2000/svg" width="24" height="18" viewBox="0 0 24 18"><g fill="none" fill-rule="evenodd"><path fill="#F7F7F7" d="M1 0h22a1 1 0 0 1 1 1v16a1 1 0 0 1-1 1H1a1 1 0 0 1-1-1V1a1 1 0 0 1 1-1z"/><path fill="#CE1126" d="M6 0h17a1 1 0 0 1 1 1v16a1 1 0 0 1-1 1H6V0z"/><path fill="#F7F7F7" d="M10 2L6 4V0z"/><path fill="#F7F7F7" d="M10 5.411L6 7.259V3.563z"/><path fill="#F7F7F7" d="M10 8.973l-4 1.848V7.125z"/><path fill="#F7F7F7" d="M10 12.536l-4 1.848v-3.696z"/><path fill="#F7F7F7" d="M10 16l-4 2v-4z"/><path fill="#000" fill-rule="nonzero" d="M1 1v16h22V1H1zm0-1h22a1 1 0 0 1 1 1v16a1 1 0 0 1-1 1H1a1 1 0 0 1-1-1V1a1 1 0 0 1 1-1z" opacity=".2"/></g></svg>