<svg xmlns="http://www.w3.org/2000/svg" width="24" height="18" viewBox="0 0 24 18"><g fill="none"><path fill="#F7E017" d="M1 0h22a1 1 0 0 1 1 1v16a1 1 0 0 1-1 1H1a1 1 0 0 1-1-1V1a1 1 0 0 1 1-1z"/><path fill="#FFF" d="M24 9.119v3.151L0 5.604V2.452L24 9.12z"/><path fill="#000" d="M24 12.119v3.151L0 8.604V5.452l24 6.667z"/><path fill="#000" d="M1 1v16h22V1H1zm0-1h22a1 1 0 0 1 1 1v16a1 1 0 0 1-1 1H1a1 1 0 0 1-1-1V1a1 1 0 0 1 1-1z" opacity=".2"/><path fill="#CF1126" d="M11.81 4.137v.01l.625.322-.398.129.291.39-.517-.253.001.553h-.152V4.13c-.041-.013-.067-.035-.067-.06 0-.038.064-.071.152-.071.087 0 .152.033.152.072 0 .028-.035.053-.088.065zm-.19 2.4v-.533l.11.082.121-.096v.547a.11.11 0 0 0 .015-.026c.025-.06.118-.143.217-.193.215-.11.586-.112.884-.008.126.044.265.122.398.225.133.102.406.24.567.285a1.522 1.522 0 0 0 .723 0c.055 0-.038.18-.146.286-.199.194-.457.193-.82-.003-.226-.122-.497-.188-.497-.122 0 .014.014.023.035.023.079 0 .23.053.443.154.229.109.358.155.434.155.056 0 .057.034.005.11-.054.08-.147.12-.279.12-.125 0-.195-.027-.307-.12-.187-.157-.655-.33-.636-.238.003.019.026.03.074.038.162.024.353.115.548.262.06.045.123.09.14.1.026.015.026.02.005.059-.035.065-.123.116-.219.126a.44.44 0 0 1-.343-.117c-.236-.198-.458-.34-.53-.34-.057 0-.031.032.071.086.135.071.273.168.375.261a.968.968 0 0 0 .12.099c.043.023.042.056-.005.117-.048.063-.127.09-.23.08-.205-.022-.365-.12-.616-.381a1.675 1.675 0 0 0-.194-.185c-.034 0-.014.045.05.118.08.09.096.14.066.212-.027.065-.072.08-.163.055-.094-.025-.108-.002-.047.074.092.114.078.254-.034.35a.27.27 0 0 1-.081.054c-.01 0-.035-.026-.055-.057-.073-.11-.136-.108-.206.002a1.27 1.27 0 0 1-.046.07l-.073-.053c-.08-.058-.106-.114-.106-.224a.2.2 0 0 1 .048-.138c.055-.076.045-.1-.033-.078-.124.036-.184.003-.188-.103-.002-.052.009-.074.079-.158.056-.067.076-.103.065-.114-.011-.01-.077.047-.213.185a2.94 2.94 0 0 1-.27.25c-.234.158-.457.182-.558.061-.053-.062-.05-.097.01-.134a.65.65 0 0 0 .104-.088 2.04 2.04 0 0 1 .382-.275c.084-.042.104-.071.05-.071-.071 0-.298.147-.47.305a.762.762 0 0 1-.161.116.603.603 0 0 1-.33.027c-.052-.017-.149-.108-.149-.141 0-.008.022-.027.05-.042a.713.713 0 0 0 .106-.077 1.52 1.52 0 0 1 .605-.288c.065-.014.041-.047-.032-.044-.142.007-.424.139-.592.278-.198.162-.495.147-.59-.031-.018-.03-.027-.06-.023-.064a2.199 2.199 0 0 0 .484-.185c.216-.108.28-.13.429-.155.067-.01.07-.043.005-.05-.084-.01-.212.031-.438.143-.292.143-.373.168-.526.159a.46.46 0 0 1-.333-.152c-.074-.07-.18-.25-.159-.27.005-.005.04 0 .076.01.041.013.158.02.299.021.197 0 .25-.005.354-.035a2 2 0 0 0 .569-.289c.306-.228.555-.32.872-.321.294-.002.48.066.645.234a.845.845 0 0 0 .066.06zm-.502 7.435c-.459-.061-.88-.207-1.172-.407a.657.657 0 0 0-.118-.071c-.009 0-.016.043-.016.096 0 .151-.06.227-.213.267-.146.038-.369-.039-.55-.188a1.62 1.62 0 0 0-.585-.322.946.946 0 0 0-.665.086.206.206 0 0 1-.065.03c-.026 0-.022-.162.004-.214a.418.418 0 0 1 .224-.172c.051-.019.093-.043.093-.054 0-.01-.017-.05-.038-.086-.069-.12-.04-.237.08-.329.122-.094.33-.11.514-.04a.76.76 0 0 0 .095.032c.025 0 .01-.034-.057-.13a.383.383 0 0 1-.082-.302.349.349 0 0 1 .32-.32c.137-.01.223.036.427.23.608.58 1.269.9 2.04.986.195.022.586.01.816-.025.694-.104 1.393-.453 1.939-.967.151-.143.224-.18.348-.18a.32.32 0 0 1 .26.119c.07.078.095.152.087.271a.34.34 0 0 1-.062.187c-.067.11-.056.12.077.068.178-.07.398-.038.517.075.105.1.115.199.033.334a.59.59 0 0 0-.053.102c0 .014.022.02.13.038.143.023.224.128.224.29 0 .048-.006.087-.013.087a.966.966 0 0 1-.12-.044.978.978 0 0 0-.453-.084.802.802 0 0 0-.3.04 1.38 1.38 0 0 0-.463.273c-.15.135-.246.178-.393.176-.136-.001-.23-.04-.279-.119-.026-.041-.03-.067-.024-.161a.343.343 0 0 0-.001-.112c-.005 0-.059.034-.119.075a1.91 1.91 0 0 1-.437.233c-.55.218-1.343.312-1.95.232zm.251-1.057c-.914-.087-1.79-.564-2.321-1.319-.578-.788-.76-1.828-.584-2.78.094-.432.283-.866.606-1.174a2.715 2.715 0 0 0-.207 1.761c.213 1.18 1.21 2.178 2.402 2.35.472.137.96-.007 1.41-.153.995-.35 1.752-1.294 1.844-2.349a2.9 2.9 0 0 0-.265-1.681c.146.078.331.381.44.586.38.735.397 1.615.174 2.4-.303.998-1.066 1.872-2.075 2.19a3.92 3.92 0 0 1-1.424.17zm-4.606-1.31c.042.006.077.03.115.047.11.046.224.083.342.098.161.013.325-.004.481-.048.072-.019.14-.052.213-.068.052-.01.104.042.076.093-.03.08-.12.102-.192.127a1.176 1.176 0 0 1-.402.07h-.043a1.286 1.286 0 0 1-.509-.085c-.067-.03-.141-.06-.185-.122-.022-.062.044-.121.104-.112zm.066-.246c.04.006.072.033.107.05a.995.995 0 0 0 .296.095 1.05 1.05 0 0 0 .488-.076c.043-.013.082-.042.128-.04.05.003.066.061.045.101-.028.072-.108.097-.174.123a.891.891 0 0 1-.34.067h-.037a1.005 1.005 0 0 1-.402-.068.437.437 0 0 1-.198-.135c-.025-.056.027-.126.087-.117zm.082-.236c.04.008.068.04.103.057.095.05.2.096.31.092a.806.806 0 0 0 .367-.089c.034-.013.07-.045.108-.024.035.018.03.063.02.094-.02.067-.09.097-.149.123a.663.663 0 0 1-.283.067h-.038a.71.71 0 0 1-.442-.127c-.03-.025-.067-.052-.075-.094-.008-.046.027-.105.08-.099zm-.87-3.481H6.04l.022.005c.152.112.186.333.152.51.13.146.23.324.258.52.038.139.212.171.317.25.109.05.194.136.253.236.093-.053-.016-.22-.023-.311-.033-.166-.164-.283-.216-.441-.088-.182.155-.145.217-.04.103.134.216.263.337.382.146.123.342.222.406.415.008.628.014 1.256.023 1.885-.023.111-.231.128-.344.155-.189.032-.367-.052-.532-.134.006-.364.01-.729-.001-1.093-.014-.134.01-.28-.056-.403-.184-.254-.487-.407-.63-.694-.116-.293-.165-.61-.205-.921.004-.102-.055-.244.022-.321zm.234.035c.043.002.07.043.088.077.062.133.065.285.061.43.082.053.132.141.18.224.042.086.089.176.096.273a.487.487 0 0 1 .24.153c.048.046.056.113.072.173.016.047 0 .022-.022 0-.103-.093-.233-.146-.349-.22-.049-.035-.125-.06-.125-.131a1.044 1.044 0 0 0-.251-.513.644.644 0 0 0-.025-.318c-.033-.047-.035-.137.035-.148zm.196.058c.029.001.051.022.07.04a.46.46 0 0 1 .11.316.347.347 0 0 0 .093.283c.016.074.05.142.088.207.033.062.084.115.106.183a.568.568 0 0 0-.193-.12.798.798 0 0 0-.075-.21.795.795 0 0 0-.197-.275 1.292 1.292 0 0 0-.026-.313c-.015-.037-.024-.097.024-.111zm.224.032c.009-.002.017.003.023.007.033.027.05.067.066.105.04.107.057.221.067.335.008.02-.012.014-.026.016a.092.092 0 0 0-.08.067.31.31 0 0 1-.05-.167.516.516 0 0 0-.033-.247c-.004-.023-.03-.045-.024-.066.014-.02.03-.046.057-.05zm9.928 3.838c.06-.01.126.05.104.112-.043.062-.118.093-.185.122-.161.065-.336.09-.509.086h-.043c-.137 0-.273-.024-.401-.07-.072-.026-.163-.049-.192-.128-.029-.051.023-.103.075-.093.073.016.141.05.213.068.156.044.32.061.482.048.118-.015.232-.052.341-.098.038-.017.074-.041.115-.047zm-.066-.246c.06-.009.113.06.087.117a.437.437 0 0 1-.198.135 1.02 1.02 0 0 1-.402.068h-.037a.891.891 0 0 1-.34-.067c-.066-.026-.146-.05-.173-.123-.022-.04-.005-.098.045-.1.045-.003.085.026.127.04.154.063.323.09.489.075a.989.989 0 0 0 .295-.095c.036-.017.067-.044.107-.05zm-.082-.236c.052-.006.088.053.079.1-.008.04-.045.068-.075.093a.71.71 0 0 1-.442.127H16a.663.663 0 0 1-.284-.067c-.06-.026-.128-.056-.148-.123-.01-.031-.016-.076.02-.094.037-.02.074.011.107.024.114.058.24.09.368.09a.637.637 0 0 0 .31-.093c.034-.018.063-.049.102-.057zm.871-3.481c.077.077.019.22.023.32-.04.313-.09.629-.206.922-.143.287-.446.44-.63.694-.065.122-.042.27-.056.403-.01.364-.007.729 0 1.093-.165.082-.344.166-.533.134-.112-.027-.32-.044-.344-.155.01-.629.015-1.257.024-1.885.063-.193.26-.292.406-.415.12-.12.233-.248.336-.382.062-.105.305-.142.217.04-.051.158-.183.275-.216.44-.007.092-.115.259-.023.312a.582.582 0 0 1 .253-.236c.105-.079.28-.111.317-.25a1.01 1.01 0 0 1 .258-.52c-.033-.177 0-.398.152-.51l.022-.005zm-.235.035c.07.011.068.1.036.148a.644.644 0 0 0-.026.318 1.044 1.044 0 0 0-.25.513c-.001.072-.077.096-.126.131-.116.074-.245.127-.348.22-.022.022-.038.047-.023 0 .016-.06.024-.127.072-.173a.487.487 0 0 1 .24-.153c.008-.097.054-.187.097-.273.048-.083.097-.17.179-.224-.003-.145-.001-.297.061-.43.018-.034.045-.075.088-.077zm-.196.058c.049.014.04.074.024.111a1.292 1.292 0 0 0-.025.313.795.795 0 0 0-.198.275.798.798 0 0 0-.074.21.568.568 0 0 0-.194.12c.023-.068.073-.121.107-.183a.734.734 0 0 0 .087-.207.347.347 0 0 0 .094-.283.46.46 0 0 1 .109-.315c.019-.02.042-.04.07-.041zm-.224.032c.027.004.043.03.057.05.006.021-.02.043-.024.066a.516.516 0 0 0-.033.247.31.31 0 0 1-.05.167.092.092 0 0 0-.08-.067c-.013-.002-.033.004-.025-.016.01-.114.026-.228.066-.335a.242.242 0 0 1 .066-.105c.007-.004.015-.009.023-.007zm-5.1 3.982a.844.844 0 0 1-.708-.569c.006-.052.071.03.102.035a.45.45 0 0 0 .188.063c.084.037.136.12.217.163.037.03.17.086.145-.006-.031-.049-.052-.11-.026-.165a1.16 1.16 0 0 1 .184-.266c.05-.017.085.083.121.117.05.078.112.173.082.27-.029.035-.048.143.03.106.095-.042.173-.112.252-.178.069-.048.158-.052.23-.094.034-.008.104-.076.118-.038a1.06 1.06 0 0 1-.177.29.763.763 0 0 1-.445.258 1.224 1.224 0 0 1-.313.014zm.375-.373a.315.315 0 0 0-.04-.188c-.05-.103-.121-.194-.19-.284-.066-.038-.102.087-.146.123-.067.101-.152.205-.157.332-.038.06-.109-.048-.14-.083a.448.448 0 0 1-.095-.284 1.203 1.203 0 0 1 .086-.488c.046-.133.12-.261.113-.406.005-.109-.017-.229-.105-.302-.084-.066.054-.08.098-.046.075.005.116.13.184.099.028-.065.033-.142.09-.193.055-.076.113.032.132.083.039.044-.003.154.06.157.077-.053.131-.143.228-.162.04-.023.107-.003.055.042a.433.433 0 0 0-.147.252.608.608 0 0 0 .065.367c.105.222.187.474.133.721a.464.464 0 0 1-.19.27c-.011.006-.03.006-.034-.01zm-.113-1.674a.499.499 0 0 0-.135-.165c-.056 0-.091.07-.13.108-.026.05-.059.134-.125.068-.106-.061-.124-.196-.123-.307-.007-.18.065-.348.13-.512a.54.54 0 0 0 .006-.323c-.032-.12-.129-.204-.203-.298.005-.037.1-.017.136-.01.08.02.127.09.187.14.042-.012.025-.098.044-.138.002-.056.077-.13.108-.05.046.051-.002.153.058.185.057-.02.086-.083.14-.112a.189.189 0 0 1 .184-.011c.02.052-.063.096-.087.141a.484.484 0 0 0-.088.43c.032.115.09.223.11.342a.951.951 0 0 1-.012.407c-.02.08-.09.133-.161.167-.018-.017-.027-.041-.04-.062zm-.755-4.394c.295.24.979.202 1.267-.012-.018.337.128.54.236.779l-.298-.214-.175.195-.202-.237-.194.195-.203-.187-.198.221-.183-.217-.263.244c.11-.24.189-.456.213-.767zm.523-.159v.167h.23V5.15c.1.002.207.004.304.022a.48.48 0 0 1 .194.078c-.259.282-1.222.198-1.23-.004a.477.477 0 0 1 .184-.074c.1-.02.212-.02.318-.023z"/></g></svg>