<svg width="24" height="18" viewBox="0 0 24 18" xmlns="http://www.w3.org/2000/svg"><g fill="none" fill-rule="evenodd"><path d="M1 0h22a1 1 0 0 1 1 1v16a1 1 0 0 1-1 1H1a1 1 0 0 1-1-1V1a1 1 0 0 1 1-1z" fill="#009B3A"/><path fill="#FEDF00" d="M2.25 9L12 2.25 21.75 9 12 15.75z"/><circle fill="#002776" cx="12" cy="9" r="3.75"/><path d="M8.898 6.892a3.77 3.77 0 0 1 1.128-1.08l5.722 3.303a3.731 3.731 0 0 1-.371 1.518l-6.479-3.74z" fill="#F7F7F7"/><path d="M1 1v16h22V1H1zm0-1h22a1 1 0 0 1 1 1v16a1 1 0 0 1-1 1H1a1 1 0 0 1-1-1V1a1 1 0 0 1 1-1z" fill="#000" fill-rule="nonzero" opacity=".2"/></g></svg>