<svg xmlns="http://www.w3.org/2000/svg" width="24" height="18" viewBox="0 0 24 18"><g fill="none"><path fill="#FFD521" d="M1 0h22a1 1 0 0 1 1 1v16a1 1 0 0 1-1 1H1a1 1 0 0 1-1-1V1a1 1 0 0 1 1-1z"/><path fill="#FF4E11" d="M24 1v16a1 1 0 0 1-1 1H1C.448 18 24 .448 24 1z"/><path fill="#FFF" d="M16.526 4.539c.15-.027.322.048.435.15.157-.08.266-.084.306 0a.44.44 0 0 1 .218-.052c.174-.253-.06-.368.27-.66.298-.265.057-.44.34-.646.09-.066.29-.199.306-.331.12.298-.373.34-.34.82.02.287-.161.28-.249.707.075-.054.14-.087.183-.153.174-.265.542.045.853-.19-.054.335-.472.215-.654.43a.8.8 0 0 1-.267.226c.134-.012.252.008.366-.06.505-.307.708.061 1.159-.084-.12.29-.786.042-1.076.257-.168.125-.58.246-.795.25.048.059-.035.104-.131.063.173.075.089.163-.029.125.12.06.092.123.02.13.224.303-.1.537-.09.8a.615.615 0 0 0 .205-.019c.32-.092.175-.331.033-.372a.27.27 0 0 1 .377.314c.302-.116.17-.401.017-.38.165-.129.396.066.387.28.47.042.705.278.52.497.034-.438-.646-.347-.998-.248a1.48 1.48 0 0 1-.84-.014c-.004.177.005.39-.166.515.091-.215.038-.43.009-.563a1.284 1.284 0 0 1-.005-.021 1.804 1.804 0 0 0-.23-.11.833.833 0 0 0-.173.115.37.37 0 0 1 .23.2.205.205 0 0 1-.026.255c.143.107.11.423-.065.463.057-.125-.076-.178-.124-.277-.064.095-.215.176-.12.306-.153-.053-.183-.194-.139-.322-.11.106-.246.173-.416.082.15-.007.19-.206.315-.265a.31.31 0 0 1-.091-.083c-.155-.22-.375-.37-.62-.4-.116.067-.264.08-.473.02a.51.51 0 0 0-.528.194c.033.02.068.035.106.046.302.082.282.418.571.496-.31.083-.347-.256-.728-.397a.584.584 0 0 1-.097-.046c-.077.01-.167-.016-.265-.036.094.14.165.271.287.355.04.028.087.05.141.066.257.075.53.166.67.315.105.11.47.194.726.212l.007-.001.001.002a.777.777 0 0 0 .202-.006c.182-.042.57-.199.728-.091.05-.108.132-.257.232-.365a.54.54 0 0 0 .011.21.576.576 0 0 1 .56-.7c.299 0 .545.23.57.522.296.02.234.348.344.37.132.157.12.393-.091.418-.07.223-.257.372-.455.343-.128.14-.29.182-.422.15-.091.012-.253-.03-.298-.08a.47.47 0 0 1-.368-.231.212.212 0 0 0-.075 0 .496.496 0 0 0-.174.074v-.002c-.084.05-.187.123-.322.217-.131.091-.321.114-.508.1.002.18.243.415.081.596.005-.116-.115-.302-.252-.36.074.136-.157.235-.054.447-.215-.054-.306-.327-.17-.63-.09.154-.256.22-.368.15.18-.055.21-.24.176-.375a.384.384 0 0 0-.278-.045.335.335 0 0 1-.005.006v-.005a.655.655 0 0 0-.265.122c.008.085.01.171.007.258h.001l-.001.013a2.178 2.178 0 0 1-.041.35v-.002a1.752 1.752 0 0 1-.31.716c-.141.187-.099.24-.28.43a.406.406 0 0 0-.128.291l.003.016a.222.222 0 0 1-.004.001.944.944 0 0 0 .004.123c.116-.042.281.066.314.157.083-.041.2-.025.24.025.141-.066.257-.033.381.1a.349.349 0 0 1 .331.115c.058-.116.174-.157.257-.132-.009-.15.14-.257.273-.199a.245.245 0 0 1 .314-.29c.15-.116.447-.124.596.05-.265-.074-.256.207-.48.182.058.166-.091.26-.24.315.095-.046.199-.1.232-.042.083-.072.248-.045.29-.008.11-.035.215-.008.264.124.15.091.249.323.141.497-.033-.183-.157-.174-.207-.249-.116.042-.232.042-.265-.033a.271.271 0 0 1-.102.056h.032a.708.708 0 1 1-.7.81.5.5 0 0 1-.033.185c.216.033.034.224.406.348-.182.058-.538 0-.588-.224-.182-.008-.306-.19-.297-.38-.141-.133-.162-.323.033-.456-.09.028-.159-.039-.24-.087a.06.06 0 0 1-.009-.004l-.002-.003a.248.248 0 0 0-.246-.013.366.366 0 0 1-.207.002.069.069 0 0 1-.029-.002l-.005-.006c-.102-.03-.191-.083-.19-.143-.049.083-.35.05-.392-.091-.1.054-.331-.037-.327-.174-.129.058-.302-.045-.294-.178a.156.156 0 0 1-.058-.019c-.033.122-.103.277-.24.28.104-.182-.045-.319.012-.335-.194-.07-.318.36-.558.132.225.019.163-.358.5-.38-.337-.034-.252-.168-.426-.174.048-.073.172-.062.265.01.092.071.173-.113.343-.004v-.002c-.07-.08-.044-.188.01-.292a.544.544 0 0 1-.24-.062c-.042.028-.106.04-.191.023a.317.317 0 0 1-.137-.062.324.324 0 0 1-.112.012c-.249-.01-.386-.066-.456-.137a.308.308 0 0 1-.131.017.661.661 0 0 1-.363-.112.568.568 0 0 1-.389-.127.366.366 0 0 1-.3-.088c-.259.058-.386-.005-.444-.097-.031.045-.085.075-.172.077a.313.313 0 0 1-.196-.054.192.192 0 0 1-.122.124.247.247 0 0 1-.22-.009.263.263 0 0 1-.087.174.142.142 0 0 1-.122.042.179.179 0 0 1-.022.095.18.18 0 0 1-.101.095c.022.035.029.09.02.164a.136.136 0 0 1-.054.099c.028.036.023.105-.01.217-.023.078-.067.166-.045.264l.02.042c.04.081.072.157.097.227a.837.837 0 0 1 .151.046c.025-.035.085-.097.15-.095-.042-.078-.005-.302.107-.368.025-.143.105-.275.294-.286.182-.012.36.038.467.178-.066-.016-.215.05-.314.033a.298.298 0 0 1-.158.195c.033.05.021.186-.062.232.075-.054.236-.137.294-.112.033-.05.22-.075.29-.037.174-.091.434.053.414.327a.175.175 0 0 0-.113-.059.555.555 0 0 1-.414 1.03.43.43 0 0 0 .121.034c-.091.054-.401.062-.492-.033-.091-.095-.302-.091-.369-.265a.447.447 0 0 1-.31-.057v.005l-.047.208.002.006h-.003a1.662 1.662 0 0 0-.029.177l.003.005a.23.23 0 0 1-.004 0c-.01.11-.007.23.024.372.157.033.24.166.232.306.093.004.16.091.126.257a.288.288 0 0 1 .246.074c.058-.107.249-.132.348-.008.215-.017.323.157.314.372a.577.577 0 0 1-.05.621c.013-.087 0-.211-.003-.285-.008-.137-.199-.166-.178-.278-.1.009-.195-.045-.228-.12a.218.218 0 0 1-.21.042c.11.05.198.248.165.38.058.1.045.282-.025.36a.237.237 0 0 1-.073.137v.04a.644.644 0 0 1-1.287 0c-.016-.133-.184-.264-.163-.375-.1-.307.041-.592.447-.65-.028-.066.016-.133.047-.203-.086-.055-.06-.142.01-.165-.111.028-.165-.083-.075-.136l-.002-.001c-.154.042-.196-.144-.12-.177a3.36 3.36 0 0 0-.004-.005c-.217.002-.138.31-.286.294.05-.112-.075-.197-.058-.29-.087.114-.33.182-.414.079.207-.017.174-.257.273-.26.215-.01.087-.17-.012-.179-.1-.008-.129-.02-.046-.07.067-.04.219-.029.314.009a.762.762 0 0 0 .049-.22v-.003a.966.966 0 0 0 0-.136c-.085.044-.202.026-.24-.012a.248.248 0 0 1-.182.008c-.25.202-.607.291-.719.553-.122.284-.38.223-.695.645-.207.278-.48.091-.828.372.068-.304.324-.14.6-.53a.6.6 0 0 1-.136.026c-.38.025-.517.484-.844.356.306-.058.306-.406.546-.514-.174-.062-.265.332-.488.332-.224 0-.331.355-.604.33-.274-.024-.302.434-.849.44-.418.003-.935.492-1.121.28.406-.057.57-.282.811-.53.389-.396.828-.218.977-.57-.178.12-.385.178-.588.174-.255-.006-.534.405-.82.223.166-.02.274-.091.448-.273.178-.186.439-.066.645-.257.323-.297.6-.05.91-.422-.087-.041-.273-.012-.447.079-.173.091-.397-.062-.595.046.024-.245.488-.105.778-.274.326-.19.597-.134.856-.111-.36-.002-.5-.344-.997-.244-.217.043-.39-.298-.604-.125.006-.128.231-.231.463-.107.232.124.325-.109.786.182.19.12.518-.075.724.054-.026-.079-.144-.129-.283-.118.07-.144.448-.157.72-.063a.398.398 0 0 1-.068-.22c.13.049.305-.034.46-.02a.279.279 0 0 1-.125-.204c.139.046.21-.076.314-.14-.142-.025-.276-.085-.31-.166.191.06.267-.167.486-.198-.019-.103.085-.283.22-.35-.042-.04-.065-.112-.052-.205.022-.16.053-.252.125-.3a.564.564 0 0 1-.042-.007c-.137-.024-.503.216-.654-.024.347.098.565-.34.868-.41a.492.492 0 0 1-.032-.286c.027-.135.159-.24.272-.226-.077-.093-.051-.237.005-.262-.009-.068.014-.114.056-.144-.054-.03-.094-.058-.139-.042-.107.037-.223-.085-.356.017.006-.174.22-.075.439-.249.101-.08.27-.096.437.04a.22.22 0 0 1 .051-.21c.08-.087.261-.115.358-.013l.007-.004c-.049-.127.03-.284.14-.326.086-.032.222-.031.305.039-.014-.085.01-.173-.057-.217-.107-.07-.2-.149-.165-.273.056.143.227.142.372.17a.366.366 0 0 1 .258.247.173.173 0 0 1 .16-.073c.088.006.154.046.179.107a.174.174 0 0 1 .184-.07c.08.016.137.06.158.116a.174.174 0 0 1 .182-.053.234.234 0 0 1 .125.075c.011-.08.022-.156-.013-.188-.074-.066-.107-.161-.054-.265.004.075.108.15.215.19.108.042.046.257.216.34a.17.17 0 0 1 .088.175c.047-.047.129-.077.226-.034.147.064.177.182.132.244h.001c.026-.041.134-.09.298-.05.184.046.24.16.24.256l.003.001c.017-.047.095-.064.15-.046.05.017.124.062.13.114l.012.002c.014-.046-.006-.109-.105-.14-.168-.054-.228-.162-.186-.261.051.124.273.157.389.128a.37.37 0 0 1 .166.005.408.408 0 0 1-.088-.195.312.312 0 0 1 .02-.117.448.448 0 0 1-.376-.04c-.063-.043-.2-.166-.335-.108.1-.215.393-.008.488-.17a.601.601 0 0 1 .049-.07.24.24 0 0 1-.144-.083c-.088-.118-.101-.269-.038-.361-.089.024-.187-.017-.251-.102a.308.308 0 0 1-.043-.291.626.626 0 0 1-.247.059c-.116.008-.26.128-.298.347-.178-.343.145-.417.174-.645a.531.531 0 0 1 .057-.179.92.92 0 0 0-.496.27c.17-.353.364-.497.554-.558a.412.412 0 0 1-.008-.07c-.002-.094.023-.156.07-.184-.03-.047-.032-.12-.006-.203.03-.094.076-.145.132-.153-.015-.05-.005-.117.032-.19a.47.47 0 0 1 .005-.01.514.514 0 0 0-.05.01c-.249.067-.861-.202-1.225.125.048-.255.37-.323.844-.304.173-.187.433-.26.691-.269-.08-.053-.116-.141-.072-.286.106.32.554.133.822.275a.965.965 0 0 1 .086-.027c-.662-.327-1.334-.442-1.47-.275-.14.174.129.265.208.232-.075.195-.505.025-.39-.281.106-.278.605-.373 1.3-.091a.542.542 0 0 1 .042-.29c-.163-.035-.298-.031-.373 0 .079-.1.24-.11.424-.075a.306.306 0 0 1 .13-.083c-.209-.085-.482-.222-.775-.08.062-.176.319-.2.552-.136.144-.205.59-.13 1.001.171a.64.64 0 0 1 .053-.191.59.59 0 0 0-.375-.16c.104-.061.261-.026.434.069a.3.3 0 0 1 .044-.041 1.082 1.082 0 0 0-.694-.202c.286-.195.977.066 1.25.347.167.173.523.097.739.4.24-.14.516-.09.718.096a.17.17 0 0 1 .099-.078c.192-.053.348.108.403.32a.274.274 0 0 1 .006.007zm.417 1.191a.464.464 0 0 1-.059-.02c-.097.07-.235.07-.32.07.09-.05.11-.14.078-.213a1.185 1.185 0 0 0-.173-.075.776.776 0 0 1-.22.227c.031-.072.008-.193-.024-.267-.179.005-.33.099-.431.312a8.418 8.418 0 0 1-.005.012c.216.027.606.17.855.28a.767.767 0 0 1 .044-.019c.217-.084.173-.221.255-.307zm.758-.848a.86.86 0 0 1-.008.1.942.942 0 0 1 .1-.1.518.518 0 0 1-.092 0zm-3.85.908l-.03.046c.059.031.11.082.16.141.113-.012.217-.027.29-.097a1.157 1.157 0 0 1-.42-.09zm.26.36c.059.082.119.165.187.234.245-.022.182-.256.346-.289-.26.066-.41.068-.532.056zm-.01.275c-.078-.098-.136-.207-.209-.299a.855.855 0 0 0-.146.004.87.87 0 0 0 .001.123c.098.075.17.158.23.24.061-.023.085-.048.125-.068zm-.302-.4a1.728 1.728 0 0 0-.032-.021 3.48 3.48 0 0 0-.006.032l.038-.01zm1.033-1.816c-.1-.058-.195-.122-.288-.166-.139-.068-.267-.187-.413-.302a.23.23 0 0 0-.037.031c.177.122.36.293.511.475a1.06 1.06 0 0 0 .227-.038zm-.457.03c-.06-.058-.082-.16-.211-.242a1.065 1.065 0 0 1-.133-.101.68.68 0 0 0 .03.318c.1-.004.202.014.314.026zm-.674.116a.833.833 0 0 0-.377-.264.477.477 0 0 0-.157.07 4.2 4.2 0 0 1 .511.212.933.933 0 0 1 .023-.018zm-.167.126a1.683 1.683 0 0 0-.423-.24c-.018.102.122.221.263.318a.25.25 0 0 1 .16-.078zm3.364 1.578a.37.37 0 0 1-.1.07.924.924 0 0 1 .084.042.3.3 0 0 1 .016-.112zm.16.197c.07.025.142.044.212.055a.691.691 0 0 1-.007-.464.988.988 0 0 1-.161.29.246.246 0 0 0-.043.119zm-.692.029a.604.604 0 0 1 .137-.145 8.243 8.243 0 0 0-.619-.18c.06.065.114.131.179.135.11.007.181.136.303.19zm-3.47-2.47c.053.018.104.04.15.066.218.122.404.085.661.283-.327-.329-.607-.445-.811-.348zm2.67 8.167a.716.716 0 0 1 .2-.573.281.281 0 0 1-.13.032c.042.116-.074.315-.165.414.058.03.085.077.095.127zm.31-.664a.705.705 0 0 1 .216-.097.207.207 0 0 1-.14-.053.39.39 0 0 1-.076.15zm1.638-3.62a.471.471 0 0 1-.121-.035.35.35 0 0 1 .073.1.28.28 0 0 1 .048-.065zm-.293-.13a.576.576 0 0 1-.134-.156.448.448 0 0 1 .019.127.427.427 0 0 1 .115.028zm.907-.274a.574.574 0 0 1-.192.278c.02.038.031.096.004.17.033-.161.171-.207.279-.207-.084-.057-.082-.15-.09-.24z"/><path fill="#000" d="M1 1v16h22V1H1zm0-1h22a1 1 0 0 1 1 1v16a1 1 0 0 1-1 1H1a1 1 0 0 1-1-1V1a1 1 0 0 1 1-1z" opacity=".2"/></g></svg>