<svg width="24" height="18" viewBox="0 0 24 18" xmlns="http://www.w3.org/2000/svg" xmlns:xlink="http://www.w3.org/1999/xlink"><defs><path d="M1 1v16h22V1H1zm0-1h22a1 1 0 0 1 1 1v16a1 1 0 0 1-1 1H1a1 1 0 0 1-1-1V1a1 1 0 0 1 1-1z" id="a"/></defs><g fill="none" fill-rule="evenodd"><path d="M1 0h22a1 1 0 0 1 1 1v16a1 1 0 0 1-1 1H1a1 1 0 0 1-1-1V1a1 1 0 0 1 1-1z" fill="#F7F7F7"/><path d="M17.25 0H23a1 1 0 0 1 1 1v16a1 1 0 0 1-1 1h-5.75V0zM13 11.667L15 11l1-3h-2l-2-3-2 3H8l1 3 2 .667V13h2zM1 0h5.75v18H1a1 1 0 0 1-1-1V1a1 1 0 0 1 1-1z" fill="#ED2939"/><use fill="#000" fill-rule="nonzero" opacity=".2" xlink:href="#a"/></g></svg>