<svg width="24" height="18" viewBox="0 0 24 18" xmlns="http://www.w3.org/2000/svg"><g fill="none" fill-rule="evenodd"><path d="M1 0h22a1 1 0 0 1 1 1v16a1 1 0 0 1-1 1H1a1 1 0 0 1-1-1V1a1 1 0 0 1 1-1z" fill="#F7F7F7"/><path d="M0 9h24v8a1 1 0 0 1-1 1H1a1 1 0 0 1-1-1V9z" fill="#D52B1E"/><path d="M1 0h8v9H0V1a1 1 0 0 1 1-1z" fill="#0039A6"/><circle fill="#F7F7F7" cx="4.5" cy="4.5" r="1.5"/><path d="M1 1v16h22V1H1zm0-1h22a1 1 0 0 1 1 1v16a1 1 0 0 1-1 1H1a1 1 0 0 1-1-1V1a1 1 0 0 1 1-1z" fill="#000" fill-rule="nonzero" opacity=".2"/></g></svg>