<svg width="24" height="18" viewBox="0 0 24 18" xmlns="http://www.w3.org/2000/svg" xmlns:xlink="http://www.w3.org/1999/xlink"><defs><rect id="a" width="24" height="18" rx="1"/><path d="M1 1v16h22V1H1zm0-1h22a1 1 0 0 1 1 1v16a1 1 0 0 1-1 1H1a1 1 0 0 1-1-1V1a1 1 0 0 1 1-1z" id="c"/></defs><g fill="none" fill-rule="evenodd"><mask id="b" fill="#fff"><use xlink:href="#a"/></mask><use fill="#D8D8D8" xlink:href="#a"/><rect stroke="#979797" x=".5" y=".5" width="23" height="17" rx="1"/><g mask="url(#b)" fill-rule="nonzero"><path fill="#007A5E" d="M0 0h8v18H0z"/><path fill="#CE1126" d="M8 0h8v18H8z"/><path fill="#FCD116" d="M16 0h8v18h-8z"/></g><path fill="#FFF" mask="url(#b)" d="M15 8.174h-2.28L12 6.014l-.72 2.16H9l1.86 1.38-.72 2.16 1.86-1.32 1.86 1.32-.72-2.16z"/><use fill="#000" fill-rule="nonzero" opacity=".2" xlink:href="#c"/></g></svg>