<svg width="24" height="18" viewBox="0 0 24 18" xmlns="http://www.w3.org/2000/svg" xmlns:xlink="http://www.w3.org/1999/xlink"><defs><path d="M1 0h22a1 1 0 0 1 1 1v16a1 1 0 0 1-1 1H1a1 1 0 0 1-1-1V1a1 1 0 0 1 1-1z" id="a"/></defs><g fill="none" fill-rule="evenodd"><mask id="b" fill="#fff"><use xlink:href="#a"/></mask><use fill="#012B7F" xlink:href="#a"/><path fill="#F7F7F7" mask="url(#b)" d="M0 3h24v12H0z"/><path fill="#CE1127" mask="url(#b)" d="M0 5.25h24v7.5H0z"/><circle fill="#F7F7F7" mask="url(#b)" cx="7" cy="9" r="2"/><path d="M1 1v16h22V1H1zm0-1h22a1 1 0 0 1 1 1v16a1 1 0 0 1-1 1H1a1 1 0 0 1-1-1V1a1 1 0 0 1 1-1z" fill="#000" fill-rule="nonzero" opacity=".2" mask="url(#b)"/></g></svg>