<svg xmlns="http://www.w3.org/2000/svg" width="24" height="18" viewBox="0 0 24 18"><g fill="none" fill-rule="evenodd"><path fill="#F7F7F7" d="M1 0h22a1 1 0 0 1 1 1v16a1 1 0 0 1-1 1H1a1 1 0 0 1-1-1V1a1 1 0 0 1 1-1z"/><path fill="#002A91" d="M1 0h22a1 1 0 0 1 1 1v3H0V1a1 1 0 0 1 1-1zM0 7h24v4H0zm0 7h24v3a1 1 0 0 1-1 1H1a1 1 0 0 1-1-1v-3z"/><path fill="#D00222" d="M.332 17.744A.997.997 0 0 1 0 17V1C0 .705.128.44.332.256L11.647 9 .332 17.744z"/><path fill="#000" fill-rule="nonzero" d="M1 1v16h22V1H1zm0-1h22a1 1 0 0 1 1 1v16a1 1 0 0 1-1 1H1a1 1 0 0 1-1-1V1a1 1 0 0 1 1-1z" opacity=".2"/><path fill="#F7F7F7" d="M4.775 10.146L3.151 11l.31-1.809L2.147 7.91l1.816-.264L4.775 6l.813 1.646 1.816.264L6.09 9.191 6.4 11z"/></g></svg>