<svg width="24" height="18" viewBox="0 0 24 18" xmlns="http://www.w3.org/2000/svg"><g fill="none" fill-rule="evenodd"><path d="M1 0h22a1 1 0 0 1 1 1v16a1 1 0 0 1-1 1H1a1 1 0 0 1-1-1V1a1 1 0 0 1 1-1z" fill="#F7F7F7"/><path d="M14.428 14.034a.563.563 0 0 1-.356-1.068 6.976 6.976 0 0 0 1.486-.744c.556-.37.97-.784 1.189-1.224a.562.562 0 1 1 1.006.504c-.32.64-.867 1.186-1.571 1.656a8.083 8.083 0 0 1-1.754.876zm-4.856 0a8.083 8.083 0 0 1-1.754-.876c-.705-.47-1.25-1.016-1.571-1.656a.562.562 0 1 1 1.006-.504c.22.44.633.854 1.189 1.224a6.976 6.976 0 0 0 1.486.744.563.563 0 0 1-.356 1.068zM12 14.25a.75.75 0 1 1 0-1.5.75.75 0 0 1 0 1.5z" fill="#445128" fill-rule="nonzero"/><path d="M18.092 3c.363 0 .524.265.358.593l-.257.509c-.166.327-.568.725-.9.888l-.515.255c-.331.164-.816.51-1.068.76l.08-.08c-.259.256-.2.596.131.76l.515.254c.331.164.332.429 0 .593l-.515.254a3.35 3.35 0 0 1-1.258.297h.46c-.364 0-.875.213-1.127.463l.08-.08a4.911 4.911 0 0 1-1.068.76l-.516.254a3.35 3.35 0 0 1-1.257.297h.46c-.365 0-.876.214-1.128.463l.08-.08c-.259.256-.744.373-1.104.254l-1.3-.428c-.351-.116-.77-.474-.936-.802l-.257-.509a3.34 3.34 0 0 1-.3-1.26v.488c0-.369.268-.8.6-.964l.515-.254a3.35 3.35 0 0 1 1.258-.297h-.46c.364 0 .792-.264.958-.592l.258-.51c.165-.327.595-.592.975-.592h3.792a3.41 3.41 0 0 0 1.275-.296l.515-.255a4.93 4.93 0 0 0 1.068-.76l-.08.08c.259-.256.759-.463 1.127-.463h-.46z" fill="#E7832C"/><path d="M1 1v16h22V1H1zm0-1h22a1 1 0 0 1 1 1v16a1 1 0 0 1-1 1H1a1 1 0 0 1-1-1V1a1 1 0 0 1 1-1z" fill="#000" fill-rule="nonzero" opacity=".2"/></g></svg>