<svg xmlns="http://www.w3.org/2000/svg" width="24" height="18" viewBox="0 0 24 18"><g fill="none" fill-rule="evenodd"><path fill="#FFF" d="M1 0h22a1 1 0 0 1 1 1v16a1 1 0 0 1-1 1H1a1 1 0 0 1-1-1V1a1 1 0 0 1 1-1z"/><circle cx="12" cy="9" r="2" fill="#148432"/><circle cx="12" cy="9" r="1" fill="#FFF"/><path fill="#002D63" d="M1 0h9v7H0V1a1 1 0 0 1 1-1z"/><path fill="#CF001B" d="M1 18h9v-7H0v6a1 1 0 0 0 1 1zM23 0h-9v7h10V1a1 1 0 0 0-1-1z"/><path fill="#002D63" d="M23 18h-9v-7h10v6a1 1 0 0 1-1 1z"/><path fill="#000" fill-rule="nonzero" d="M1 1v16h22V1H1zm0-1h22a1 1 0 0 1 1 1v16a1 1 0 0 1-1 1H1a1 1 0 0 1-1-1V1a1 1 0 0 1 1-1z" opacity=".2"/></g></svg>