<svg xmlns="http://www.w3.org/2000/svg" width="24" height="18" viewBox="0 0 24 18"><g fill="none" fill-rule="evenodd"><path fill="#FCD30F" d="M1 0h22a1 1 0 0 1 1 1v16a1 1 0 0 1-1 1H1a1 1 0 0 1-1-1V1a1 1 0 0 1 1-1z"/><path fill="#CF0820" d="M0 14h24v3a1 1 0 0 1-1 1H1a1 1 0 0 1-1-1v-3z"/><path fill="#003594" d="M0 10h24v4H0z"/><path fill="#000" fill-rule="nonzero" d="M1 1v16h22V1H1zm0-1h22a1 1 0 0 1 1 1v16a1 1 0 0 1-1 1H1a1 1 0 0 1-1-1V1a1 1 0 0 1 1-1z" opacity=".2"/><path fill="#FCD30F" d="M9 9h6v1a2 2 0 0 1-2 2h-2a2 2 0 0 1-2-2V9z"/><rect width="4" height="7" x="10" y="7" fill="#12A9D3" rx="2"/><path fill="#019E4A" d="M10 11h4v1a2 2 0 1 1-4 0v-1z"/><path fill="#533820" d="M12 9L9 6h6z"/></g></svg>