<svg width="24" height="18" viewBox="0 0 24 18" xmlns="http://www.w3.org/2000/svg"><g fill="none" fill-rule="evenodd"><path d="M1 0h22a1 1 0 0 1 1 1v16a1 1 0 0 1-1 1H1a1 1 0 0 1-1-1V1a1 1 0 0 1 1-1z" fill="#F7F7F7"/><path d="M1 0h22a1 1 0 0 1 1 1v4H0V1a1 1 0 0 1 1-1z" fill="#CE1126"/><path d="M0 13h24v4a1 1 0 0 1-1 1H1a1 1 0 0 1-1-1v-4z" fill="#000"/><path fill="#C09300" d="M9.75 6h4.5v4.5L12 12l-2.25-1.5z"/><path d="M1 1v16h22V1H1zm0-1h22a1 1 0 0 1 1 1v16a1 1 0 0 1-1 1H1a1 1 0 0 1-1-1V1a1 1 0 0 1 1-1z" fill="#000" fill-rule="nonzero" opacity=".2"/></g></svg>