<svg width="24" height="18" viewBox="0 0 24 18" xmlns="http://www.w3.org/2000/svg"><g fill="none" fill-rule="evenodd"><path d="M1 0h22a1 1 0 0 1 1 1v16a1 1 0 0 1-1 1H1a1 1 0 0 1-1-1V1a1 1 0 0 1 1-1z" fill="#FFC400"/><path d="M0 13h24v4a1 1 0 0 1-1 1H1a1 1 0 0 1-1-1v-4zM1 0h22a1 1 0 0 1 1 1v4H0V1a1 1 0 0 1 1-1z" fill="#C60B1E"/><path d="M6 7h3a1 1 0 0 1 1 1v2a1 1 0 0 1-1 1H6a1 1 0 0 1-1-1V8a1 1 0 0 1 1-1z" fill="#91443A"/><path d="M1 1v16h22V1H1zm0-1h22a1 1 0 0 1 1 1v16a1 1 0 0 1-1 1H1a1 1 0 0 1-1-1V1a1 1 0 0 1 1-1z" fill="#000" fill-rule="nonzero" opacity=".2"/></g></svg>