<svg width="24" height="18" viewBox="0 0 24 18" xmlns="http://www.w3.org/2000/svg"><g fill="none" fill-rule="evenodd"><path d="M1 0h22a1 1 0 0 1 1 1v16a1 1 0 0 1-1 1H1a1 1 0 0 1-1-1V1a1 1 0 0 1 1-1z" fill="#273C83"/><path d="M2.656 0H1a.996.996 0 0 0-.638.23L.043.708A1 1 0 0 0 0 1v1.951l8.861 6.013L0 14.977V17a1 1 0 0 0 1 1h1.55l9.814-6.66L22.177 18H23a1 1 0 0 0 1-1v-2.516l-8.134-5.52L24 3.444V1a1 1 0 0 0-1-1h-.928l-9.708 6.588L2.656 0z" fill="#F7F7F7"/><path d="M23.648.239A.998.998 0 0 1 24 1v.679L13.237 8.982 24 16.286V17a.997.997 0 0 1-.329.741L12 9.821.329 17.741A.997.997 0 0 1 0 17v-.714l10.763-7.304L0 1.68V1C0 .695.136.422.352.239L12 8.143 23.648.239z" fill="#DC1E35"/><path fill="#F7F7F7" d="M14 7h10v4H14v7h-4v-7H0V7h10V0h4z"/><path fill="#DC1E35" d="M13 8V0h-2v8H0v2h11v8h2v-8h11V8z"/><path d="M1 1v16h22V1H1zm0-1h22a1 1 0 0 1 1 1v16a1 1 0 0 1-1 1H1a1 1 0 0 1-1-1V1a1 1 0 0 1 1-1z" fill="#000" fill-rule="nonzero" opacity=".2"/></g></svg>