<svg width="24" height="18" viewBox="0 0 24 18" xmlns="http://www.w3.org/2000/svg"><g fill="none" fill-rule="evenodd"><path d="M1 0h22a1 1 0 0 1 1 1v16a1 1 0 0 1-1 1H1a1 1 0 0 1-1-1V1a1 1 0 0 1 1-1z" fill="#F7F7F7"/><path fill="red" d="M13 8V0h-2v8H0v2h11v8h2v-8h11V8z"/><path d="M5.5 6a1.5 1.5 0 1 1 0-3 1.5 1.5 0 0 1 0 3zm13 0a1.5 1.5 0 1 1 0-3 1.5 1.5 0 0 1 0 3zm-13 9a1.5 1.5 0 1 1 0-3 1.5 1.5 0 0 1 0 3zm13 0a1.5 1.5 0 1 1 0-3 1.5 1.5 0 0 1 0 3z" fill="red"/><path d="M1 1v16h22V1H1zm0-1h22a1 1 0 0 1 1 1v16a1 1 0 0 1-1 1H1a1 1 0 0 1-1-1V1a1 1 0 0 1 1-1z" fill="#000" fill-rule="nonzero" opacity=".2"/></g></svg>