<svg xmlns="http://www.w3.org/2000/svg" width="24" height="18" viewBox="0 0 24 18"><g fill="none" fill-rule="evenodd"><path fill="#F7F7F7" d="M1 0h22a1 1 0 0 1 1 1v16a1 1 0 0 1-1 1H1a1 1 0 0 1-1-1V1a1 1 0 0 1 1-1z"/><path fill="#4698D2" d="M17.25 0H23a1 1 0 0 1 1 1v16a1 1 0 0 1-1 1h-5.75V0zM1 0h5.75v18H1a1 1 0 0 1-1-1V1a1 1 0 0 1 1-1z"/><path fill="#00732F" fill-rule="nonzero" d="M13.67 12.818c-.202.083-.421-.052-.489-.3-.067-.248.042-.516.245-.599a4.613 4.613 0 0 0 1.023-.627c.382-.312.666-.66.818-1.03.095-.234.328-.329.519-.212.191.117.269.402.173.636-.22.539-.596.999-1.081 1.394a5.347 5.347 0 0 1-1.207.738zm-3.34 0a5.347 5.347 0 0 1-1.207-.737c-.486-.396-.862-.856-1.082-1.395-.096-.234-.018-.519.173-.636.191-.117.424-.022.52.212.15.37.435.718.818 1.03a4.613 4.613 0 0 0 1.022.627c.203.083.312.351.245.6-.068.247-.287.382-.49.299zM12 13c-.368 0-.667-.336-.667-.75s.299-.75.667-.75c.368 0 .667.336.667.75S12.368 13 12 13z"/><circle cx="12" cy="8" r="2" fill="#DBBF5C"/><path fill="#000" fill-rule="nonzero" d="M1 1v16h22V1H1zm0-1h22a1 1 0 0 1 1 1v16a1 1 0 0 1-1 1H1a1 1 0 0 1-1-1V1a1 1 0 0 1 1-1z" opacity=".2"/></g></svg>