<svg xmlns="http://www.w3.org/2000/svg" width="24" height="18" viewBox="0 0 24 18"><g fill="none" fill-rule="evenodd"><path fill="#019E4A" d="M1 0h22a1 1 0 0 1 1 1v16a1 1 0 0 1-1 1H1a1 1 0 0 1-1-1V1a1 1 0 0 1 1-1z"/><path fill="#FFF" d="M.432 17.823A.999.999 0 0 1 0 17V1C0 .659.171.357.432.177L22 9 .432 17.823z"/><path fill="#FDD000" d="M19.067 9L0 16.5v-15z"/><path fill="#000" d="M11 9L0 16.5v-15z"/><path fill="#CF001B" d="M9 9l-9 6V3z"/><path fill="#000" fill-rule="nonzero" d="M1 1v16h22V1H1zm0-1h22a1 1 0 0 1 1 1v16a1 1 0 0 1-1 1H1a1 1 0 0 1-1-1V1a1 1 0 0 1 1-1z" opacity=".2"/></g></svg>