<svg width="24" height="18" viewBox="0 0 24 18" xmlns="http://www.w3.org/2000/svg" xmlns:xlink="http://www.w3.org/1999/xlink"><defs><path d="M1 0h22a1 1 0 0 1 1 1v16a1 1 0 0 1-1 1H1a1 1 0 0 1-1-1V1a1 1 0 0 1 1-1z" id="a"/></defs><g fill="none" fill-rule="evenodd"><mask id="b" fill="#fff"><use xlink:href="#a"/></mask><use fill="#DE2910" xlink:href="#a"/><path d="M13.843 8.53c-1.106-.693-1.386.566-1.386 0 0-1.148 1.24-2.079 2.771-2.079S18 7.381 18 8.53c-1.315 0-1.446.693-2.079.693-.776 0-.973 0-2.078-.693zm-.778 2.455c.318-1.265-.966-1.143-.428-1.318 1.092-.354 2.36.538 2.833 1.994.473 1.456-.028 2.924-1.12 3.278-.406-1.25-1.106-1.161-1.301-1.763-.24-.737-.3-.925.016-2.19zm-2.575.02c1.302-.09.788-1.273 1.12-.815.676.93.219 2.411-1.02 3.311-1.238.9-2.789.876-3.464-.052 1.064-.773.763-1.411 1.275-1.783.627-.456.787-.572 2.089-.661zm-.815-2.444c.487 1.21 1.454.357 1.121.815-.675.929-2.225.952-3.464.053-1.238-.9-1.695-2.382-1.02-3.311 1.064.773 1.577.29 2.089.661.627.456.787.572 1.274 1.782zm2.072-1.53c-1 .838.11 1.493-.428 1.319-1.092-.355-1.593-1.823-1.12-3.279.473-1.455 1.741-2.348 2.833-1.993-.406 1.25.212 1.59.017 2.19-.24.739-.3.926-1.302 1.764z" fill="#FFF" mask="url(#b)"/><path d="M1 1v16h22V1H1zm0-1h22a1 1 0 0 1 1 1v16a1 1 0 0 1-1 1H1a1 1 0 0 1-1-1V1a1 1 0 0 1 1-1z" fill="#000" fill-rule="nonzero" opacity=".2" mask="url(#b)"/></g></svg>