<svg xmlns="http://www.w3.org/2000/svg" width="24" height="18" viewBox="0 0 24 18"><g fill="none" fill-rule="evenodd"><path fill="#F7F7F7" d="M1 0h22a1 1 0 0 1 1 1v16a1 1 0 0 1-1 1H1a1 1 0 0 1-1-1V1a1 1 0 0 1 1-1z"/><path fill="#0074D2" d="M0 13h24v4a1 1 0 0 1-1 1H1a1 1 0 0 1-1-1v-4zM1 0h22a1 1 0 0 1 1 1v4H0V1a1 1 0 0 1 1-1z"/><path fill="#000" fill-rule="nonzero" d="M1 1v16h22V1H1zm0-1h22a1 1 0 0 1 1 1v16a1 1 0 0 1-1 1H1a1 1 0 0 1-1-1V1a1 1 0 0 1 1-1z" opacity=".2"/><circle cx="8" cy="7" r="1" fill="#0074D2"/><circle cx="8" cy="11" r="1" fill="#0074D2"/><circle cx="12" cy="9" r="1" fill="#0074D2"/><circle cx="16" cy="7" r="1" fill="#0074D2"/><circle cx="16" cy="11" r="1" fill="#0074D2"/></g></svg>