<svg width="24" height="18" viewBox="0 0 24 18" xmlns="http://www.w3.org/2000/svg"><g fill="none" fill-rule="evenodd"><path d="M1 0h22a1 1 0 0 1 1 1v16a1 1 0 0 1-1 1H1a1 1 0 0 1-1-1V1a1 1 0 0 1 1-1z" fill="#F7F7F7"/><path d="M0 12h24v5a1 1 0 0 1-1 1H1a1 1 0 0 1-1-1v-5z" fill="#171796"/><path d="M1 0h22a1 1 0 0 1 1 1v5H0V1a1 1 0 0 1 1-1z" fill="red"/><path fill="#FFF" fill-rule="nonzero" d="M8 5h8v6.923L12 15l-4-3.077z"/><path d="M9 6h2v2H9V6zm2 2h2v2h-2V8zm2-2h2v2h-2V6zm0 4h2v2h-2v-2zm-4 0h2v2H9v-2z" fill="#EE1C25"/><path fill="#171796" d="M8 5h8l-1.5-3-1 2L12 1l-1.5 3-1-2z"/><path d="M1 1v16h22V1H1zm0-1h22a1 1 0 0 1 1 1v16a1 1 0 0 1-1 1H1a1 1 0 0 1-1-1V1a1 1 0 0 1 1-1z" fill="#000" fill-rule="nonzero" opacity=".2"/></g></svg>