<svg xmlns="http://www.w3.org/2000/svg" width="24" height="18" viewBox="0 0 24 18"><g fill="none" fill-rule="evenodd"><path fill="#D3002D" d="M1 0h22a1 1 0 0 1 1 1v16a1 1 0 0 1-1 1H1a1 1 0 0 1-1-1V1a1 1 0 0 1 1-1z"/><path fill="#002A91" d="M1 0h22a1 1 0 0 1 1 1v8H0V1a1 1 0 0 1 1-1z"/><path fill="#000" fill-rule="nonzero" d="M1 1v16h22V1H1zm0-1h22a1 1 0 0 1 1 1v16a1 1 0 0 1-1 1H1a1 1 0 0 1-1-1V1a1 1 0 0 1 1-1z" opacity=".2"/><path fill="#FFF" d="M8 6h8v6H8z"/><path fill="#3C8F4C" d="M12 8l4 4H8zm0 0l2-2h-4z"/><path fill="#F2B500" d="M12 8l2 2h-4z"/><circle cx="14" cy="9" r="1" fill="#002A91"/><circle cx="10" cy="9" r="1" fill="#002A91"/></g></svg>