<svg width="24" height="18" viewBox="0 0 24 18" xmlns="http://www.w3.org/2000/svg"><g fill="none" fill-rule="evenodd"><path d="M1 0h22a1 1 0 0 1 1 1v16a1 1 0 0 1-1 1H1a1 1 0 0 1-1-1V1a1 1 0 0 1 1-1z" fill="#F7F7F7"/><path fill="#0D5EAF" d="M0 2h24v3H0zm0 11h24v3H0z"/><path d="M16 7l-1.333 2L16 11h-2.667L12 13l-1.333-2H8l1.333-2L8 7h2.667L12 5l1.333 2H16zm-4 3.5a1.5 1.5 0 1 0 0-3 1.5 1.5 0 0 0 0 3z" fill="#0D5EAF" fill-rule="nonzero"/><path d="M1 1v16h22V1H1zm0-1h22a1 1 0 0 1 1 1v16a1 1 0 0 1-1 1H1a1 1 0 0 1-1-1V1a1 1 0 0 1 1-1z" fill="#000" fill-rule="nonzero" opacity=".2"/></g></svg>