<svg width="24" height="18" viewBox="0 0 24 18" xmlns="http://www.w3.org/2000/svg"><g fill="none" fill-rule="evenodd"><path d="M1 0h22a1 1 0 0 1 1 1v16a1 1 0 0 1-1 1H1a1 1 0 0 1-1-1V1a1 1 0 0 1 1-1z" fill="#F7F7F7"/><path d="M0 12.75h24V17a1 1 0 0 1-1 1H1a1 1 0 0 1-1-1v-4.25z" fill="#128807"/><path d="M12 12a3 3 0 1 1 0-6 3 3 0 0 1 0 6zm0-1.5a1.5 1.5 0 1 0 0-3 1.5 1.5 0 0 0 0 3z" fill="#0C0C8E"/><path d="M1 0h22a1 1 0 0 1 1 1v4.25H0V1a1 1 0 0 1 1-1z" fill="#F93"/><path d="M1 1v16h22V1H1zm0-1h22a1 1 0 0 1 1 1v16a1 1 0 0 1-1 1H1a1 1 0 0 1-1-1V1a1 1 0 0 1 1-1z" fill="#000" fill-rule="nonzero" opacity=".2"/></g></svg>