<svg xmlns="http://www.w3.org/2000/svg" width="24" height="18" viewBox="0 0 24 18"><g fill="none" fill-rule="evenodd"><path fill="#F7F7F7" d="M1 0h22a1 1 0 0 1 1 1v16a1 1 0 0 1-1 1H1a1 1 0 0 1-1-1V1a1 1 0 0 1 1-1z"/><path fill="#CF0820" d="M1 0h22a1 1 0 0 1 1 1v4H0V1a1 1 0 0 1 1-1z"/><path fill="#000" d="M0 13h24v4a1 1 0 0 1-1 1H1a1 1 0 0 1-1-1v-4z"/><path fill="#000" fill-rule="nonzero" d="M1 1v16h22V1H1zm0-1h22a1 1 0 0 1 1 1v16a1 1 0 0 1-1 1H1a1 1 0 0 1-1-1V1a1 1 0 0 1 1-1z" opacity=".2"/><path d="M10.381 7.217c-.013.096.17.333.252.376-.056.025-.126.013-.177.041-.287.288-1.336 1.31-1.527 1.554.567.012 1.196-.007 1.728-.032 0-.385.365-.405.61-.545.125.198.441.183.48.481l.001 1.283H6.903c-.086.377-.425.664-.899.546.147-.153.393-.206.482-.417.074-.463-.15-.749-.294-1.012.24-.086.275-.108.518-.271-.17.517.443.46.899.449.015-.176.006-.384-.129-.41.175-.063.203-.084.482-.32v.698c1.082 0 2.25-.009 3.355-.009 0-.218.058-.569-.115-.569-.165 0-.008.45-.136.45H8.475l-.002-.445c.11-.11.096-.1.847-.85.074-.075.6-.55 1.061-.998zm6.477-.018c.181.097.325.232.546.289-.026.092-.107.128-.129.224V9.67c.248.055.3-.085.418-.16.032.313.231.62.224.866h-1.059V7.2zm-1.411 1.048s.385-.325.385-.338v1.708h.277c0-.65-.008-1.31-.008-1.916.112-.112.333-.275.388-.39v3.06h-2.432c-.036-.634-.042-1.292.698-1.15v-.26c-.023-.044-.063.011-.073-.046.118-.118.158-.148.476-.426 0 .335.006 1.127.006 1.127h.28l.003-1.369zM14.534 9.6c.052.078.23.077.22-.055-.03-.108-.262-.067-.22.055zm-2.458-2.398c.181.097.324.232.546.289-.026.092-.107.128-.129.224v1.958c.248.054.3-.086.417-.16.033.312.232.62.225.865h-1.059V7.202z" fill="#007A3D" fill-rule="nonzero"/></g></svg>