<svg xmlns="http://www.w3.org/2000/svg" width="24" height="18" viewBox="0 0 24 18"><g fill="none" fill-rule="evenodd"><path fill="#F7F7F7" d="M1 0h22a1 1 0 0 1 1 1v16a1 1 0 0 1-1 1H1a1 1 0 0 1-1-1V1a1 1 0 0 1 1-1z"/><path fill="#169B62" d="M1 0h22a1 1 0 0 1 1 1v4H0V1a1 1 0 0 1 1-1z"/><path fill="#CE1126" d="M0 13h24v4a1 1 0 0 1-1 1H1a1 1 0 0 1-1-1v-4z"/><path fill="#000" fill-rule="nonzero" d="M1 1v16h22V1H1zm0-1h22a1 1 0 0 1 1 1v16a1 1 0 0 1-1 1H1a1 1 0 0 1-1-1V1a1 1 0 0 1 1-1z" opacity=".2"/><path fill="#CE1126" fill-rule="nonzero" d="M11.683 12.317a3.638 3.638 0 0 1-1.876-.101 3.995 3.995 0 0 0 1.565-.238 3.648 3.648 0 0 1-.686-5.996 4 4 0 0 0 .963 5.474l-.121-2.987V6.118c.188-.09.35-.227.472-.396.121.17.284.306.472.396v2.35l-.121 2.988a4 4 0 0 0 .963-5.475 3.648 3.648 0 0 1-.687 5.997c.492.18 1.023.264 1.565.238a3.638 3.638 0 0 1-1.876.1l-.005.126-.311.428-.312-.428-.005-.125zm2.79-.801a4 4 0 0 0-.787-5.61 3.055 3.055 0 0 1 .787 5.61zM11.92 5.47l.08-.299A.546.546 0 0 0 13.008 5 .577.577 0 0 1 12 5.546l-.08-.075zm-2.393 6.045a3.055 3.055 0 0 1 .786-5.61 4 4 0 0 0-.786 5.61zM12.08 5.47l-.08.075A.577.577 0 0 1 10.99 5a.546.546 0 0 0 1.01.172l.08.299z"/></g></svg>