<svg xmlns="http://www.w3.org/2000/svg" width="24" height="18" viewBox="0 0 24 18"><g fill="none" fill-rule="evenodd"><path fill="#009C36" d="M1 0h22a1 1 0 0 1 1 1v16a1 1 0 0 1-1 1H1a1 1 0 0 1-1-1V1a1 1 0 0 1 1-1z"/><path fill="#2E2E2E" d="M12 9L0 17V1l12 8zm0 0l12-8v16L12 9z"/><path fill="#FFD000" d="M0 1.688V1a1 1 0 0 1 1-1h1.25L12 7.313 21.75 0H23a1 1 0 0 1 1 1v.688L14.25 9 24 16.313V17a1 1 0 0 1-1 1h-1.25L12 10.687 2.25 18H1a1 1 0 0 1-1-1v-.688L9.75 9 0 1.687z"/><path fill="#000" fill-rule="nonzero" d="M1 1v16h22V1H1zm0-1h22a1 1 0 0 1 1 1v16a1 1 0 0 1-1 1H1a1 1 0 0 1-1-1V1a1 1 0 0 1 1-1z" opacity=".2"/></g></svg>