<svg xmlns="http://www.w3.org/2000/svg" width="24" height="18" viewBox="0 0 24 18"><g fill="none" fill-rule="evenodd"><path fill="#E8112D" d="M1 0h22a1 1 0 0 1 1 1v16a1 1 0 0 1-1 1H1a1 1 0 0 1-1-1V1a1 1 0 0 1 1-1z"/><path fill="#000" fill-rule="nonzero" d="M1 1v16h22V1H1zm0-1h22a1 1 0 0 1 1 1v16a1 1 0 0 1-1 1H1a1 1 0 0 1-1-1V1a1 1 0 0 1 1-1z" opacity=".2"/><circle cx="12" cy="9" r="3" fill="#FFEF00"/><path fill="#FFEF00" fill-rule="nonzero" d="M12 14.25a5.25 5.25 0 1 1 0-10.5 5.25 5.25 0 0 1 0 10.5zm0-1.167a4.083 4.083 0 1 0 0-8.166 4.083 4.083 0 0 0 0 8.166z"/></g></svg>