<svg xmlns="http://www.w3.org/2000/svg" width="24" height="18" viewBox="0 0 24 18"><g fill="none" fill-rule="evenodd"><path fill="#F02532" d="M1 0h22a1 1 0 0 1 1 1v16a1 1 0 0 1-1 1H1a1 1 0 0 1-1-1V1a1 1 0 0 1 1-1z"/><path fill="#002AA2" d="M0 13h24v4a1 1 0 0 1-1 1H1a1 1 0 0 1-1-1v-4zm0-8h24V1a1 1 0 0 0-1-1H1a1 1 0 0 0-1 1v4z"/><path fill="#000" fill-rule="nonzero" d="M1 1v16h22V1H1zm0-1h22a1 1 0 0 1 1 1v16a1 1 0 0 1-1 1H1a1 1 0 0 1-1-1V1a1 1 0 0 1 1-1z" opacity=".2"/><path fill="#EAECF0" fill-rule="nonzero" d="M12.012 5.532V12H7v-.526h.252v-.525l.252-.003v-.447l.25.003v-.34l.15-.003v-.26h.217a.39.39 0 0 0 .153-.212l-.031-2.08c.03-.024.062-.021.098-.002v.66-.444h.166l-.166-.002v-.132h.166V7.31c.048 0 .055.178.165.178.057 0 .051-.074.02-.134-.03-.053-.065-.127-.017-.264.033.105.122.138.105.073-.028-.113-.109-.132-.048-.307.021.146.108.14.087.055-.024-.096-.073-.135-.012-.27.034.153.08.144.08.049 0-.14-.005-.293.163-.349 0 0 .01-.129.071-.129.06 0 .07.13.07.13.17.055.164.207.164.348 0 .095.046.104.08-.05.061.136.012.175-.012.27-.021.086.066.092.087-.054.06.175-.02.194-.048.307-.017.065.072.032.105-.073.048.137.012.21-.016.264-.032.06-.039.134.019.134.11 0 .117-.178.165-.178v.664h.193V7.93c.02-.016.055-.014.08-.001v.045h.954v-.6c.086.036.108.12.108.12v.48l.003-.371h.114s.058-.002.058-.105c0-.104-.035-.174-.107-.17v-.21s.175.024.189.236v-.175c.072 0 .072.083.072.286h.054v-.233c-.003-.116-.107-.125-.11-.21 0 0-.014-.127.017-.185.042.17.12.139.12.07 0-.062-.044-.119-.133-.267-.029-.047-.011-.196.029-.249.015.13.033.191.084.191.032 0 .057-.022.057-.087 0-.082-.051-.123-.077-.198-.03-.088-.01-.177.04-.226.021.127.015.178.067.178.106-.036 0-.201-.022-.243-.026-.049.035-.145.035-.145.033.113.044.122.08.111.046-.013.04-.086-.016-.145-.035-.038-.031-.093.007-.138.038.08.086.075.091.028l-.03-.185h.32zm.053-.36h-.125s-.009-.153.125-.172v.173zm-.053.367h-.277l-.016-.14h.293v.14zm0-.11h-.236l-.013-.14h.25v.14zm.128-.112h-.28l-.009-.14h.298l-.009.14zm-.152.215h.32l-.03.185c.005.047.053.052.091-.028.038.045.042.1.007.138-.056.059-.062.132-.016.145.036.01.047.002.08-.111 0 0 .061.096.035.145-.022.042-.128.207-.022.243.052 0 .046-.051.067-.178.05.05.07.138.04.226-.026.075-.077.116-.077.198 0 .065.025.087.057.087.051 0 .069-.062.084-.19.04.052.058.2.03.248-.09.148-.133.205-.133.266 0 .07.077.101.119-.069.03.058.017.185.017.185-.003.085-.107.094-.11.21v.233h.054c0-.203 0-.286.072-.286v.175c.014-.212.189-.237.189-.237v.21c-.072-.003-.107.067-.107.17 0 .104.058.106.058.106h.114l.003.37v-.479s.022-.084.108-.12v.6h.955v-.045c.024-.013.058-.015.079.001v.044h.193V7.31c.048 0 .055.178.165.178.058 0 .051-.074.02-.134-.03-.053-.065-.127-.017-.264.033.105.122.138.105.073-.028-.113-.109-.132-.048-.307.021.146.108.14.087.055-.024-.096-.073-.135-.012-.27.034.153.08.144.08.049 0-.14-.005-.293.163-.349 0 0 .01-.129.071-.129.06 0 .07.13.07.13.17.055.164.207.164.348 0 .095.046.104.08-.05.061.136.012.175-.012.27-.021.086.066.092.087-.054.06.175-.02.194-.048.307-.017.065.072.032.105-.073.048.137.012.21-.016.264-.032.06-.038.134.019.134.11 0 .117-.178.165-.178v.377h.166v.132l-.166.002h.166v-.216c.036-.02.069-.022.098.002l-.031 2.08c.023.09.09.17.153.212h.218v.26l.15.002v.34l.25-.002v.447l.251.003v.525H17V12h-5.012V5.532zm0-.36V5c.133.02.125.173.125.173h-.125zm0 .367V5.4h.293l-.016.14h-.277zm0-.11v-.14h.25l-.014.14h-.236z"/></g></svg>