<svg xmlns="http://www.w3.org/2000/svg" width="24" height="18" viewBox="0 0 24 18"><g fill="none" fill-rule="evenodd"><path fill="#EC232E" d="M1 0h22a1 1 0 0 1 1 1v16a1 1 0 0 1-1 1H1a1 1 0 0 1-1-1V1a1 1 0 0 1 1-1z"/><path fill="#064EA1" d="M0 13h24v4.167c0 .46-.448.833-1 .833H1c-.552 0-1-.373-1-.833V13zM1 0h22c.552 0 1 .373 1 .833V5H0V.833C0 .373.448 0 1 0z"/><path fill="#F8F9FA" d="M0 4h24v1H0zm0 9h24v1H0z"/><path fill="#000" fill-rule="nonzero" d="M1 1v16h22V1H1zm0-1h22a1 1 0 0 1 1 1v16a1 1 0 0 1-1 1H1a1 1 0 0 1-1-1V1a1 1 0 0 1 1-1z" opacity=".2"/><circle cx="7" cy="9" r="3" fill="#FFF"/><path fill="#EC232E" d="M7 10.2l-1.763 1.227.622-2.056-1.712-1.298 2.148-.044L7 6l.705 2.029 2.148.044-1.712 1.298.622 2.056z"/></g></svg>