<svg width="24" height="18" viewBox="0 0 24 18" xmlns="http://www.w3.org/2000/svg"><g fill="none" fill-rule="evenodd"><path d="M1 0h22a1 1 0 0 1 1 1v16a1 1 0 0 1-1 1H1a1 1 0 0 1-1-1V1a1 1 0 0 1 1-1z" fill="#F7F7F7"/><path d="M8.25 9a3.75 3.75 0 0 0 7.5 0h-7.5z" fill="#0066B3"/><path d="M8.25 9a3.75 3.75 0 0 1 7.5 0h-7.5z" fill="#ED1C24"/><path d="M15.7 4.888l1.064-1.063 2.757 2.758-1.063 1.063-2.757-2.758zm-7.429 0L5.514 7.646 4.45 6.583l2.757-2.758L8.27 4.888zm7.43 8.695l2.757-2.758 1.063 1.063-2.757 2.758-1.063-1.063zm-7.43 0l-1.063 1.063-2.757-2.758 1.063-1.063 2.757 2.758zm8.93-10.25l1.063-1.063 2.757 2.757-1.063 1.063-2.757-2.757zm-10.43 0L4.014 6.09 2.95 5.027 5.708 2.27l1.063 1.063zm10.43 11.805l2.757-2.757 1.063 1.063-2.757 2.757-1.063-1.063zm-10.43 0l-1.063 1.063-2.757-2.757 1.063-1.063 2.757 2.757z" fill="#333"/><path d="M1 1v16h22V1H1zm0-1h22a1 1 0 0 1 1 1v16a1 1 0 0 1-1 1H1a1 1 0 0 1-1-1V1a1 1 0 0 1 1-1z" fill="#000" fill-rule="nonzero" opacity=".2"/></g></svg>