<svg xmlns="http://www.w3.org/2000/svg" width="24" height="18" viewBox="0 0 24 18"><g fill="none" fill-rule="evenodd"><path fill="#00B1CB" d="M1 0h22a1 1 0 0 1 1 1v16a1 1 0 0 1-1 1H1a1 1 0 0 1-1-1V1a1 1 0 0 1 1-1z"/><path fill="#000" fill-rule="nonzero" d="M1 1v16h22V1H1zm0-1h22a1 1 0 0 1 1 1v16a1 1 0 0 1-1 1H1a1 1 0 0 1-1-1V1a1 1 0 0 1 1-1z" opacity=".2"/><circle cx="13" cy="8" r="3" fill="#FEC50C"/><path fill="#FEC50C" d="M3 3h1v12H3z"/><path fill="#FEC50C" fill-rule="nonzero" d="M8 8h1.25a3.75 3.75 0 0 0 7.5 0H18A5 5 0 0 1 8 8z"/></g></svg>