<svg xmlns="http://www.w3.org/2000/svg" width="24" height="18" viewBox="0 0 24 18"><g fill="none" fill-rule="evenodd"><path fill="#F7F7F7" d="M1 0h22a1 1 0 0 1 1 1v16a1 1 0 0 1-1 1H1a1 1 0 0 1-1-1V1a1 1 0 0 1 1-1z"/><path fill="#EE161E" d="M1 0h22a1 1 0 0 1 1 1v5H0V1a1 1 0 0 1 1-1zM0 12h24v5a1 1 0 0 1-1 1H1a1 1 0 0 1-1-1v-5z"/><path fill="#000" fill-rule="nonzero" d="M1 1v16h22V1H1zm0-1h22a1 1 0 0 1 1 1v16a1 1 0 0 1-1 1H1a1 1 0 0 1-1-1V1a1 1 0 0 1 1-1z" opacity=".2"/><path fill="#00A651" fill-rule="nonzero" d="M11.835 6c-.129.271-.371.461-.603.64-.039.034-.134.099-.065.148.06-.066.221.021.127.092-.084.079-.2.108-.294.173a.913.913 0 0 0-.233.161c-.004.108.134.048.19.093.073.078-.03.21-.127.18-.122.003-.207.11-.253.214-.096.148-.277.192-.422.276a2.79 2.79 0 0 0-.24.158c-.099.068-.012.202.093.169.114-.011.217-.101.335-.075.107.037.137.177.1.275-.027.078-.092.133-.145.194a.638.638 0 0 1-.314.17.623.623 0 0 0-.29.2c-.086.088-.172.176-.271.249-.032.08.057.148.13.146.156-.01.264-.137.396-.203.11-.05.24.07.213.184-.009.111-.113.168-.206.202a2.715 2.715 0 0 0-.72.555c-.043.089-.162.062-.226.124-.042.078.063.12.126.112.27-.033.52-.147.76-.272.088-.043.171-.098.263-.132.087-.022.208.016.223.115 0 .104-.103.161-.185.202-.251.132-.527.205-.796.293-.101-.029-.177.15-.067.183.117.04.241.008.361.003.37-.057.693-.257 1.038-.386a.328.328 0 0 1 .384.153.382.382 0 0 1-.01.394c-.12.254-.3.487-.542.633-.152.075-.33.104-.46.22-.12.04.06.202.087.073.072-.099.2-.129.316-.133.174-.019.359-.05.494-.171.121-.094.24-.224.406-.226.09.01.18.084.273.039.081-.037.208-.015.229.084.039.116.158.17.254.232.034.048.148.173.175.063-.022-.079.009-.199.112-.172.09.004.175.037.265.042.12.025.219.107.286.205.047.065.15.175.225.09.047-.088-.043-.162-.116-.194-.107-.066-.198-.154-.291-.237-.138-.129-.256-.292-.278-.484a2.047 2.047 0 0 1 .01-.577c.032-.123.19-.19.299-.125.155.07.308.172.485.16.256.006.52-.043.77.031.243.077.417.283.654.372.053.032.121.001.14-.056a.115.115 0 0 0-.041-.145c-.275-.277-.651-.412-.969-.629-.1-.025-.118-.186-.026-.233.122-.088.294-.047.402.044a.606.606 0 0 0 .3.094c.11-.035.057-.193-.04-.205-.179-.1-.306-.265-.46-.396-.089-.075-.186-.15-.305-.166a.804.804 0 0 0-.198-.01c-.061-.067.021-.17.101-.161.082.005.164.011.246 0 .092-.007.183-.016.275-.017.074.05.223-.037.156-.124-.073-.064-.18-.059-.267-.091a4.11 4.11 0 0 0-.468-.124c-.111-.006-.097-.152 0-.168.064-.024.12.025.18.033.105.022.213.022.317.045.089-.044.02-.173-.06-.18-.189-.069-.352-.19-.512-.31-.176-.132-.336-.285-.514-.414-.065-.04-.171-.052-.188-.141-.006-.082.09-.12.158-.1.097.029.187.078.286.103.077.013.157.036.232.026.095-.06-.04-.097-.09-.118-.126-.068-.238-.159-.352-.245-.096-.082.081-.119.143-.087.102.043.113-.106.037-.144-.09-.038-.167-.101-.249-.157a1.108 1.108 0 0 0-.495-.21.675.675 0 0 1-.5-.311A1.942 1.942 0 0 1 11.835 6zm-.667 1.14c.105.002.089.19-.014.178-.1-.006-.094-.2.014-.179zm.988.1c.101-.017.123.168.021.177-.106.02-.145-.188-.021-.176zm-.29.025c.104.02.085.2-.019.202-.076.017-.158.069-.235.03-.063-.067.028-.165.098-.186.053-.011.103-.035.156-.046zm.666 0c.1.037.064.213-.04.21-.1.014-.146-.152-.054-.191a.25.25 0 0 1 .094-.018zm-1.123.2c.074.07.03.204-.06.236-.065.036-.154.122-.224.051-.039-.086.058-.15.114-.198a.435.435 0 0 1 .17-.089zm.836.388c.105.05.051.239-.063.227-.095-.024-.083-.186.013-.199a.254.254 0 0 0 .05-.028zm-.332.02c.098.045.023.208-.076.185-.102-.012-.1-.192.012-.176a.154.154 0 0 0 .064-.01zm.716.093c.107-.033.237.077.202.19-.048.086-.166.097-.251.065-.097-.005-.163-.151-.076-.213a.238.238 0 0 1 .125-.042zm-1.586.028c.089-.048.183.097.108.16-.05.074-.179.104-.235.023-.048-.08.029-.214.127-.183zm-.41.069c.101.013.167.105.204.192.01.106-.148.164-.216.087-.077-.048-.144-.147-.104-.24a.108.108 0 0 1 .116-.04zm2.451.383c.11-.028.189.146.095.21-.086.077-.253-.026-.208-.137a.144.144 0 0 1 .113-.073zm-1.391.2c.092.011.062.17-.023.165-.09-.017-.07-.174.023-.165zm-.465.084c.075-.053.171.076.109.136-.075.053-.171-.074-.109-.136zm.74.016c.086.052.137.15.148.25-.042.092-.202.07-.22-.029a.184.184 0 0 1 .071-.221zm.257.153c.112-.028.072.205-.022.124-.03-.037-.014-.097.022-.124zm-1.62.162c.074-.021.182.001.202.086.009.08-.079.121-.143.141-.103.032-.204.084-.315.077-.083-.047-.112-.144-.142-.23.08-.074.198-.052.297-.071l.101-.003zm2.513.366c.094-.046.196.103.117.173a.305.305 0 0 1-.407.04c-.014-.101.086-.174.175-.189.038-.01.075-.026.115-.024zm.53.115c.107-.019.192.134.115.213-.072.11-.245.138-.344.049-.038-.09.04-.185.123-.214.036-.015.07-.035.106-.048zm-2.665.162c.099-.01.19.089.177.187.072.07-.055.202-.127.129-.063-.076-.063-.18-.087-.272-.001-.02.014-.046.037-.044zm.762.057c.102-.044.235.079.18.183-.04.084-.196.056-.191-.042 0-.047-.004-.095.01-.14zm-.371.067c.103-.024.197.11.14.198-.102.01-.156-.112-.14-.198z"/></g></svg>