<svg xmlns="http://www.w3.org/2000/svg" width="24" height="18" viewBox="0 0 24 18"><g fill="none" fill-rule="evenodd"><path fill="#FDB624" d="M0 0h24v18H0z"/><path fill="#000" fill-rule="nonzero" d="M1 1v16h22V1H1zm0-1h22a1 1 0 0 1 1 1v16a1 1 0 0 1-1 1H1a1 1 0 0 1-1-1V1a1 1 0 0 1 1-1z" opacity=".2"/><path fill="#00534E" d="M3 3h4v12H3z"/><path fill="#EB7400" d="M7 3h4v12H7z"/><path fill="#8D153A" d="M13 3h8v12h-8z"/><circle cx="14.5" cy="4.5" r="1" fill="#FFBE29"/><g fill="#FFBE29" fill-rule="nonzero"><path d="M15.53 11.654c-.067.043-.1.048-.1.013 0-.063.059-.2.105-.242.047-.043.063-.046.211-.044.136.001.169-.004.22-.038.157-.105.173-.264.061-.635-.123-.411-.144-.587-.096-.807.013-.059.016-.1.007-.09-.06.066-.062.452-.003.655.014.048-.206-.077-.344-.196-.288-.247-.432-.592-.386-.925.051-.37.23-.66.538-.872.153-.106.206-.177.182-.246-.023-.067-.062-.08-.115-.037a.15.15 0 0 0-.053.077c-.01.064-.055.026-.1-.082-.045-.112-.07-.124-.077-.04-.008.082-.042.085-.084.008-.034-.063-.038-.065-.081-.04a.468.468 0 0 1-.1.037l-.054.013.033-.07a.231.231 0 0 0 .027-.074c-.003-.003-.028.002-.056.01a.811.811 0 0 1-.136.027l-.087.01.024-.086.043-.157c.024-.087.042-.096.123-.06.082.037.297.085.384.085.075 0 .081.008.043.063-.036.051-.031.06.027.05a.54.54 0 0 1 .155.016c.072.016.107.017.12.003.032-.034-.03-.183-.131-.317a1.402 1.402 0 0 1-.127-.196l-.032-.07-.019.052a.318.318 0 0 0-.018.08c0 .025-.006.024-.047-.004a.316.316 0 0 1-.07-.067c-.034-.052-.048-.04-.04.033l.008.067-.055-.035a.235.235 0 0 1-.073-.07c-.01-.02-.07-.096-.135-.168a.649.649 0 0 1-.126-.185 1.393 1.393 0 0 0-.026-.11c-.047-.16.008-.283.129-.283.092 0 .152.072.14.168-.008.064-.005.072.019.062a.661.661 0 0 1 .122-.022.48.48 0 0 0 .14-.036.345.345 0 0 1 .134-.025c.104 0 .171-.034.223-.112.032-.049.035-.067.02-.11l-.017-.05.1-.013c.128-.016.184-.002.252.065.09.088.139.063.139-.068 0-.087.005-.09.108-.06.04.012.094.052.14.103l.074.084.035-.075a.373.373 0 0 0 .035-.104c0-.023.01-.027.039-.017.078.026.16.08.205.135.038.046.06.057.117.057.057 0 .08-.012.13-.065l.06-.065-.01.076a.47.47 0 0 1-.117.248l-.053.065.034.05c.066.096.077.17.067.483a4.08 4.08 0 0 1-.014.303.519.519 0 0 1-.102-.089c-.088-.088-.098-.106-.118-.214a.333.333 0 0 0-.071-.175c-.049-.055-.05-.055-.04-.01a.77.77 0 0 1 .02.248c-.008.025-.022.02-.087-.038-.043-.038-.082-.064-.087-.058-.006.006.021.034.06.063a.277.277 0 0 1 .084.097l.016.046.02-.055a.518.518 0 0 0 .015-.161c-.004-.087-.002-.1.015-.076a.363.363 0 0 1 .032.116c.016.115.043.166.125.237.057.05.07.072.07.123a.4.4 0 0 0 .02.114c.038.108.047.154.026.14-.138-.087-.3-.238-.322-.3-.017-.045-.017-.045-.054.031l-.037.077-.053-.05a.438.438 0 0 1-.074-.085c-.017-.032-.018-.03-.01.022a.189.189 0 0 1-.012.105l-.023.048-.056-.065c-.031-.035-.064-.064-.074-.064-.01 0 .005.022.032.05.027.028.06.07.075.094l.026.044.033-.076a.24.24 0 0 1 .044-.075c.005 0 .027.02.05.046a.18.18 0 0 0 .05.045c.006 0 .02-.028.033-.064l.021-.064.042.054c.024.03.08.084.125.12.076.059.083.072.09.154a.364.364 0 0 0 .047.148l.038.057h-.062a.359.359 0 0 1-.244-.115c-.03-.032-.055-.05-.055-.039 0 .055.18.17.282.18.038.004.07.02.08.037a.395.395 0 0 0 .084.084l.068.053-.076.012a.4.4 0 0 1-.125.001l-.048-.011-.003.102a.434.434 0 0 1-.01.112c-.014.014-.183-.043-.233-.078-.036-.026-.044-.026-.05-.005a.423.423 0 0 1-.078.096c-.062.062-.071.066-.082.037a77.82 77.82 0 0 0-.064-.178.59.59 0 0 1-.044-.16c.005-.008.002-.02-.007-.026-.025-.016-.063.059-.087.17a.323.323 0 0 1-.035.106c-.016.01-.101-.117-.101-.152 0-.05-.03-.02-.049.048a.454.454 0 0 1-.057.121l-.037.051-.024-.08a1.978 1.978 0 0 1-.027-.103c-.009-.042-.028-.048-.028-.009 0 .08-.053.184-.108.213l-.055.028-.02-.086a.771.771 0 0 1-.022-.126v-.039l-.08.044a.273.273 0 0 1-.086.037c-.003-.004.006-.03.02-.06a.257.257 0 0 0 .026-.081c0-.016.013-.048.028-.072.022-.033.023-.041.005-.035-.014.005-.038.054-.054.108a.362.362 0 0 1-.065.131c-.052.047-.018.053.084.016.062-.023.092-.027.096-.012l.026.09a.25.25 0 0 1 .008.105c-.013.043.012.049.043.01.012-.016.031-.028.043-.028.028 0 .11-.105.11-.14 0-.014.008-.026.018-.026.009 0 .017.037.017.083 0 .046.007.083.016.083.023 0 .12-.132.131-.18.006-.022.014-.041.02-.041.014 0 .055.06.08.119l.022.054.036-.064a.471.471 0 0 0 .047-.127.436.436 0 0 1 .024-.092c.012-.023.016-.022.026.009.006.02.03.086.052.147.023.06.043.133.045.161.002.028.006.05.01.05a.65.65 0 0 0 .174-.147c.017-.034.022-.035.067-.01a.604.604 0 0 0 .124.046c.042.01.09.024.108.031.025.01.029.007.019-.02a.325.325 0 0 1-.001-.114l.011-.08h.082a.413.413 0 0 0 .13-.02c.046-.019.047-.022.016-.041a.71.71 0 0 1-.076-.063l-.045-.042.401.011c.348.01.42.007.538-.02.11-.027.205-.032.472-.03.312.004.344.001.481-.042.18-.056.235-.085.29-.156.13-.165.088-.382-.087-.466-.095-.045-.312-.048-.496-.005-.376.086-.73.08-.944-.018-.204-.093-.233-.101-.278-.083-.05.02-.078.071-.083.148-.002.03-.008.055-.014.055a.259.259 0 0 1-.056-.07.292.292 0 0 1-.01-.294l.034-.06-.05-.07c-.177-.237-.174-.498.007-.695a.938.938 0 0 1 .45-.247c.147-.03.456-.012.6.037.226.075.538.282.794.525.169.16.263.23.312.23.036 0 .04-.006.03-.052-.007-.037 0-.065.026-.101.056-.077.153-.065.196.026.075.154-.022.318-.187.318-.13 0-.218-.047-.36-.19-.148-.153-.279-.267-.29-.255-.019.02.044.229.077.258.05.044.01.041-.085-.006a.434.434 0 0 1-.201-.191l-.027-.055-.023.072a.402.402 0 0 1-.053.108.302.302 0 0 1-.167.086c-.023 0-.022-.007.007-.052a.514.514 0 0 0 .055-.137c.017-.076.015-.094-.017-.167a.32.32 0 0 0-.176-.171c-.054-.026-.058-.014-.022.06a.376.376 0 0 1-.01.294.322.322 0 0 1-.199.145l-.055.013.042-.08a.36.36 0 0 0 .009-.323c-.042-.075-.178-.17-.242-.17-.046 0-.048.002-.039.078.013.114-.06.24-.082.144-.016-.063-.089-.087-.172-.056-.155.059-.194.25-.079.378a.41.41 0 0 0 .066.063c.006 0 .023-.025.038-.054.056-.105.208-.148.298-.085l.043.03-.073.041c-.095.052-.128.12-.102.213a.415.415 0 0 0 .047.103c.023.03.03.032.037.01.015-.047.121-.152.144-.143.012.004.024.023.027.043.013.094.025.113.092.154.065.04.093.044.261.043.106 0 .26-.015.35-.034a2.27 2.27 0 0 1 .35-.034c.173-.001.197.003.296.052.32.158.375.57.109.821l-.088.082.068.104c.038.057.089.16.114.23.042.112.046.148.046.355 0 .256-.014.326-.135.709-.119.376-.134.603-.055.805.039.099.1.16.16.16.099 0 .059.135-.07.24-.106.087-.134.138-.133.244.001.077.027.144.11.284.019.033.03.073.024.09-.015.043-.157.02-.212-.035-.03-.03-.044-.035-.05-.018-.028.085-.128.102-.204.034l-.048-.044-.048.044c-.063.058-.139.058-.174 0l-.028-.046-.06.045c-.084.06-.115.06-.1-.006.028-.122.131-.21.296-.25.193-.05.202-.065.185-.356-.016-.286-.03-.307-.373-.551a1.634 1.634 0 0 1-.34-.301c-.172-.206-.276-.26-.52-.272-.291-.014-.446.032-.895.263-.165.085-.32.16-.348.167l-.048.013.05-.108c.127-.269.21-.643.163-.732-.011-.022-.016.012-.017.112 0 .225-.125.577-.333.939-.127.222-.094.341.102.366.049.007.09.018.09.025a.567.567 0 0 1-.141.187 1.33 1.33 0 0 1-.133.061c-.094.037-.094.038-.09.11.001.041.008.108.014.15.009.063.003.09-.035.154-.045.077-.047.078-.124.067a.24.24 0 0 1-.109-.041c-.028-.028-.034-.027-.076.009-.06.051-.155.05-.206 0l-.038-.04-.046.04c-.06.05-.15.051-.184 0l-.024-.037-.058.038zm1.2-3.225c0 .04.03.028.041-.017a.742.742 0 0 0 .01-.13v-.09l.062.05c.033.027.063.047.065.043.018-.023.042-.134.033-.15-.006-.01-.02.01-.03.047l-.018.066-.092-.066a.4.4 0 0 1-.109-.109c-.024-.056-.04-.054-.055.008l-.013.05-.016-.045c-.016-.046-.13-.184-.152-.184-.006 0-.016.023-.022.05-.02.098-.038.11-.09.06a.577.577 0 0 1-.077-.101c-.023-.04-.032-.046-.032-.022 0 .03.132.196.156.197.005 0 .024-.03.042-.065.018-.035.037-.064.044-.064.024 0 .117.132.117.166 0 .047.028.046.051-.001.019-.037.02-.037.07.014.042.043.05.065.05.144a.357.357 0 0 1-.01.104c-.004.005-.034-.016-.065-.048-.049-.049-.18-.146-.182-.134l-.01.086a.502.502 0 0 1-.016.09c-.003.003-.02-.026-.039-.065a.446.446 0 0 0-.071-.108c-.038-.036-.039-.036-.058-.001a.77.77 0 0 1-.063.09l-.045.056-.011-.095c-.007-.052-.02-.1-.028-.105-.01-.006-.017 0-.017.013a.336.336 0 0 1-.04.096l-.04.071-.038-.117c-.02-.065-.032-.09-.026-.054l.02.134c.005.038.015.069.022.069.018 0 .102-.109.102-.132 0-.01.008-.012.019-.005.011.008.015.041.01.084-.005.039-.003.071.003.071.027 0 .087-.06.122-.12l.038-.066.048.07a.462.462 0 0 1 .06.121c.006.028.017.05.025.05.014 0 .05-.115.05-.16 0-.031.01-.03.065.007.07.047.14.12.14.147z"/><path d="M17.93 11.655l.063-.045.042.045c.055.06.12.058.172-.003.023-.027.044-.046.046-.042l.023.045c.013.025.04.038.089.042.059.005.074-.002.098-.04l.027-.046.061.045c.167.122.256-.006.182-.261-.038-.13-.017-.203.105-.368a.54.54 0 0 0 .094-.165c0-.034-.01-.038-.078-.037-.066.002-.085-.006-.12-.05-.056-.07-.053-.15.01-.24l.05-.072-.089-.069a1.564 1.564 0 0 1-.196-.199c-.133-.16-.263-.237-.435-.254l-.115-.011v.099c0 .127.053.25.197.458.163.237.175.274.181.583l.006.262-.047.05c-.043.047-.063.053-.2.062-.132.009-.16.016-.198.055a.25.25 0 0 0-.082.151c-.01.042-.006.05.02.05.018 0 .06-.02.094-.045zm-3.518-.685a.178.178 0 0 0 .027-.08c0-.034.013-.043.077-.053l.077-.012-.052-.047c-.06-.055-.066-.098-.013-.098.054 0 .145-.064.158-.11.007-.022.003-.051-.009-.066-.03-.039-.086-.033-.097.01-.01.046-.03.047-.072 0-.065-.069-.066-.212-.003-.295.03-.04.029-.042-.009-.083-.04-.044-.07-.13-.05-.15.006-.007.038-.002.07.011.048.018.067.019.086.001.059-.052-.005-.12-.1-.105-.037.006-.053 0-.058-.022-.004-.017-.037-.04-.075-.05-.066-.019-.067-.019-.067.034 0 .057-.029.068-.083.03-.044-.029-.088-.006-.088.048 0 .05.045.075.124.069.061-.005.063.047.006.121l-.042.053.033.054c.049.08.045.213-.009.278l-.042.052-.027-.041c-.038-.058-.09-.054-.105.007-.009.04-.001.059.043.102.03.028.073.052.097.052.057 0 .055.051-.005.103l-.047.041.073.013c.04.007.072.02.072.03 0 .035.05.144.067.144.009 0 .029-.019.043-.041z"/><path d="M15.359 10.509c.066-.03.208-.167.208-.201a.44.44 0 0 0-.087-.11 1.125 1.125 0 0 1-.24-.382c-.015-.054-.087-.145-.29-.369l-.27-.297-.077.022a.61.61 0 0 1-.116.023c-.036 0-.035.003.013.045l.05.045.072-.045c.069-.043.071-.044.08-.009.004.02-.006.056-.025.083-.019.025-.03.054-.024.063.006.01-.012.03-.04.046-.05.028-.085.12-.045.12.036 0 .115-.11.106-.148-.005-.02-.002-.04.005-.044.03-.02.029.067-.002.11-.019.025-.03.054-.024.063.006.01-.012.03-.04.046-.05.028-.085.121-.045.121.038 0 .116-.106.107-.146-.005-.02-.003-.042.004-.047.02-.014.032.055.015.089a.072.072 0 0 0 0 .062c.017.036 0 .104-.032.125-.014.01-.005.027.028.056.048.04.05.045.05.226 0 .152.005.191.03.218.027.03.029.03.029.001 0-.031.048-.069.087-.069a.88.88 0 0 1 .16.155.766.766 0 0 0 .181.163c.023.004.048.01.055.01a.276.276 0 0 0 .077-.025zm-.79-1.556c.01-.01.005-.027-.011-.04-.035-.032-.033-.079.005-.132.03-.04.033-.1.043-.706.017-1.045.085-1.83.175-2.018.036-.075.03-.075-.062-.004a.99.99 0 0 0-.29.385c-.152.324-.205.761-.205 1.694 0 .53.003.599.03.648.025.048.026.065.009.116-.012.032-.017.064-.012.07.034.036.281.026.318-.013zm3.362 2.702l.062-.045.042.045c.055.06.12.058.172-.003.023-.027.044-.046.046-.042l.023.045c.013.025.04.038.089.042.059.005.074-.002.098-.04l.027-.046.061.045c.167.122.256-.006.182-.261-.038-.13-.017-.203.105-.368a.54.54 0 0 0 .094-.165c0-.034-.01-.038-.078-.037-.066.002-.085-.006-.12-.05-.056-.07-.053-.15.01-.24l.05-.072-.089-.069a1.564 1.564 0 0 1-.196-.199c-.133-.16-.263-.237-.435-.254l-.115-.011v.099c0 .127.053.25.197.458.163.237.175.274.181.583l.006.262-.047.05c-.043.047-.063.053-.2.062-.132.009-.16.016-.198.055a.25.25 0 0 0-.082.151c-.01.042-.006.05.02.05.018 0 .06-.02.094-.045z"/><path d="M14.412 10.97a.178.178 0 0 0 .027-.08c0-.034.013-.043.077-.053l.077-.012-.052-.047c-.06-.055-.066-.098-.013-.098.054 0 .145-.064.158-.11.007-.022.003-.051-.009-.066-.03-.039-.086-.033-.097.01-.01.046-.03.047-.072 0-.065-.069-.066-.212-.003-.295.03-.04.029-.042-.009-.083-.04-.044-.07-.13-.05-.15.006-.007.038-.002.07.011.048.018.067.019.086.001.059-.052-.005-.12-.1-.105-.037.006-.053 0-.058-.022-.004-.017-.037-.04-.075-.05-.066-.019-.067-.019-.067.034 0 .057-.029.068-.083.03-.044-.029-.088-.006-.088.048 0 .05.045.075.124.069.061-.005.063.047.006.121l-.042.053.033.054c.049.08.045.213-.009.278l-.042.052-.027-.041c-.038-.058-.09-.054-.105.007-.009.04-.001.059.043.102.03.028.073.052.097.052.057 0 .055.051-.005.103l-.047.041.073.013c.04.007.072.02.072.03 0 .035.05.144.067.144.009 0 .029-.019.043-.041z"/><path d="M15.359 10.509c.066-.03.208-.167.208-.201a.44.44 0 0 0-.087-.11 1.125 1.125 0 0 1-.24-.382c-.015-.054-.087-.145-.29-.369l-.27-.297-.077.022a.61.61 0 0 1-.116.023c-.036 0-.035.003.013.045l.05.045.072-.045c.069-.043.071-.044.08-.009.004.02-.006.056-.025.083-.019.025-.03.054-.024.063.006.01-.012.03-.04.046-.05.028-.085.12-.045.12.036 0 .115-.11.106-.148-.005-.02-.002-.04.005-.044.03-.02.029.067-.002.11-.019.025-.03.054-.024.063.006.01-.012.03-.04.046-.05.028-.085.121-.045.121.038 0 .116-.106.107-.146-.005-.02-.003-.042.004-.047.02-.014.032.055.015.089a.072.072 0 0 0 0 .062c.017.036 0 .104-.032.125-.014.01-.005.027.028.056.048.04.05.045.05.226 0 .152.005.191.03.218.027.03.029.03.029.001 0-.031.048-.069.087-.069a.88.88 0 0 1 .16.155.766.766 0 0 0 .181.163c.023.004.048.01.055.01a.276.276 0 0 0 .077-.025zm-.79-1.556c.01-.01.005-.027-.011-.04-.035-.032-.033-.079.005-.132.03-.04.033-.1.043-.706.017-1.045.085-1.83.175-2.018.036-.075.03-.075-.062-.004a.99.99 0 0 0-.29.385c-.152.324-.205.761-.205 1.694 0 .53.003.599.03.648.025.048.026.065.009.116-.012.032-.017.064-.012.07.034.036.281.026.318-.013z"/></g><circle cx="19.5" cy="4.5" r="1" fill="#FFBE29"/><circle cx="14.5" cy="13.5" r="1" fill="#FFBE29"/><circle cx="19.5" cy="13.5" r="1" fill="#FFBE29"/></g></svg>