<svg width="24" height="18" viewBox="0 0 24 18" xmlns="http://www.w3.org/2000/svg"><g fill="none" fill-rule="evenodd"><path d="M1 0h22a1 1 0 0 1 1 1v16a1 1 0 0 1-1 1H1a1 1 0 0 1-1-1V1a1 1 0 0 1 1-1z" fill="#FFD200"/><path d="M16 0h7a1 1 0 0 1 1 1v16a1 1 0 0 1-1 1h-7V0z" fill="#CC092F"/><path fill="#965E2D" d="M11.333 7H10v3.6l2 2.4 2-2.4V7h-1.333L14 5h-4z"/><path d="M1 0h7v18H1a1 1 0 0 1-1-1V1a1 1 0 0 1 1-1z" fill="#0046AE"/><path d="M1 1v16h22V1H1zm0-1h22a1 1 0 0 1 1 1v16a1 1 0 0 1-1 1H1a1 1 0 0 1-1-1V1a1 1 0 0 1 1-1z" fill="#000" fill-rule="nonzero" opacity=".2"/></g></svg>