<svg xmlns="http://www.w3.org/2000/svg" width="24" height="18" viewBox="0 0 24 18"><g fill="none" fill-rule="evenodd"><path fill="#D20000" d="M1 0h22a1 1 0 0 1 1 1v16a1 1 0 0 1-1 1H1a1 1 0 0 1-1-1V1a1 1 0 0 1 1-1z"/><path fill="#FFE600" d="M10.5 0h3l-.75 5.25h-1.5L10.5 0zM0 1.516V1a1 1 0 0 1 1-1h2.08l6.698 5.804-.76 1.092L0 1.516zM3.313 18H1a1 1 0 0 1-1-1v-.314l9.018-5.38.76 1.092L3.313 18zM21.31 0H23a1 1 0 0 1 1 1v.748l-8.629 5.148-.76-1.092L21.31 0zM24 16.454V17a1 1 0 0 1-1 1h-1.923l-6.465-5.602.76-1.092L24 16.454zM13.5 18h-3l.75-5.25h1.5L13.5 18zM0 10.5v-3l8.25.75v1.5L0 10.5zm24-3v3l-8.25-.75v-1.5L24 7.5z"/><circle cx="12" cy="9" r="5" fill="#D20000"/><circle cx="12" cy="9" r="3" fill="#FFE600"/><path fill="#000" fill-rule="nonzero" d="M1 1v16h22V1H1zm0-1h22a1 1 0 0 1 1 1v16a1 1 0 0 1-1 1H1a1 1 0 0 1-1-1V1a1 1 0 0 1 1-1z" opacity=".2"/></g></svg>