<svg xmlns="http://www.w3.org/2000/svg" xmlns:xlink="http://www.w3.org/1999/xlink" width="24" height="18" viewBox="0 0 24 18"><defs><rect id="a" width="24" height="18" rx="1"/></defs><g fill="none" fill-rule="evenodd"><mask id="b" fill="#fff"><use xlink:href="#a"/></mask><use fill="#D8D8D8" xlink:href="#a"/><rect width="23" height="17" x=".5" y=".5" stroke="#979797" rx="1"/><g fill-rule="nonzero" mask="url(#b)"><path fill="#C52027" d="M0 0h8v18H0z"/><path fill="#005199" d="M8 0h8v18H8z"/><path fill="#C52027" d="M16 0h8v18h-8z"/></g><g fill-rule="nonzero" transform="translate(2 4)"><ellipse cx="2" cy="3.222" fill="#F9CF02" rx="1" ry="1.222"/><ellipse cx="2" cy="2.667" fill="#C4272F" rx="1.091" ry="1.333"/><ellipse cx="2" cy="2.889" fill="#F9CF02" rx="1" ry="1"/><path fill="#F9CF02" d="M1.545 1.222c0 .307.204.556.455.556s.455-.249.455-.556C2.455 1 2.34.972 2.34.89c0-.083.068-.195-.068-.333.068.138-.046.166-.046.305 0 .139.046.139.046.25 0 .061-.041.111-.091.111-.05 0-.091-.05-.091-.11 0-.112.09-.223.09-.39a.647.647 0 0 0-.09-.36C2.023.221 1.909.111 2 0c-.136.056-.068.278-.068.417 0 .139-.091.222-.091.389 0 .166.068.194.068.305 0 .061-.04.111-.09.111-.051 0-.092-.05-.092-.11 0-.112.046-.112.046-.25 0-.14-.114-.168-.046-.306-.136.138-.068.25-.068.333 0 .083-.114.111-.114.333zM0 4.667V10h.91V4.667H0zm3.09 0V10H4V4.667h-.91zm-2 .889V6h1.82v-.444H1.09zm0 3.11v.445h1.82v-.444H1.09zm0-4h1.82L2 5.334l-.91-.666zm0 4.667h1.82L2 10l-.91-.667z"/><ellipse cx="2" cy="7.333" fill="#F9CF02" rx="1" ry="1.178"/></g><path fill="#000" fill-rule="nonzero" d="M1 1v16h22V1H1zm0-1h22a1 1 0 0 1 1 1v16a1 1 0 0 1-1 1H1a1 1 0 0 1-1-1V1a1 1 0 0 1 1-1z" opacity=".2"/></g></svg>