<svg width="24" height="18" viewBox="0 0 24 18" xmlns="http://www.w3.org/2000/svg"><g fill="none" fill-rule="evenodd"><path d="M1 0h22a1 1 0 0 1 1 1v16a1 1 0 0 1-1 1H1a1 1 0 0 1-1-1V1a1 1 0 0 1 1-1z" fill="#FFF"/><path d="M0 2h24v2H0V2zm0 4h24v2H0V6zm0 4h24v2H0v-2zm0 4h24v2H0v-2z" fill="#CC0001"/><path d="M1 0h11v10H0V1a1 1 0 0 1 1-1z" fill="#010066"/><path d="M8 3.158a2.316 2.316 0 0 0-1.43-.491C5.285 2.667 4.5 3.71 4.5 5c0 1.289.784 2.333 2.07 2.333A2.32 2.32 0 0 0 8 6.843C7.489 7.546 6.69 8 5.794 8 4.251 8 3 6.657 3 5s1.251-3 2.794-3C6.691 2 7.49 2.453 8 3.158zM8 6a1 1 0 1 1 0-2 1 1 0 0 1 0 2z" fill="#FC0"/><path d="M1 1v16h22V1H1zm0-1h22a1 1 0 0 1 1 1v16a1 1 0 0 1-1 1H1a1 1 0 0 1-1-1V1a1 1 0 0 1 1-1z" fill="#000" fill-rule="nonzero" opacity=".2"/></g></svg>