<svg xmlns="http://www.w3.org/2000/svg" width="24" height="18" viewBox="0 0 24 18"><g fill="none" fill-rule="evenodd"><path fill="#DE0000" d="M1 0h22a1 1 0 0 1 1 1v16a1 1 0 0 1-1 1H1a1 1 0 0 1-1-1V1a1 1 0 0 1 1-1z"/><path fill="#F7F7F7" d="M1 0h22a1 1 0 0 1 1 1v5H0V1a1 1 0 0 1 1-1z"/><path fill="#008200" d="M0 12h24v5a1 1 0 0 1-1 1H1a1 1 0 0 1-1-1v-5z"/><path fill="#DE0000" d="M1 0h6v18H1a1 1 0 0 1-1-1V1a1 1 0 0 1 1-1z"/><path fill="#000" fill-rule="nonzero" d="M1 1v16h22V1H1zm0-1h22a1 1 0 0 1 1 1v16a1 1 0 0 1-1 1H1a1 1 0 0 1-1-1V1a1 1 0 0 1 1-1z" opacity=".2"/><path fill="#FFF" d="M4.757 3.586l.586.586a.828.828 0 1 1-1.171 1.171l-.586-.586L3 5.343a.828.828 0 1 1-1.172-1.171l.586-.586L1.828 3A.828.828 0 0 1 3 1.828l.586.586.586-.586A.828.828 0 0 1 5.343 3l-.586.586z"/></g></svg>