<svg xmlns="http://www.w3.org/2000/svg" width="24" height="18" viewBox="0 0 24 18"><g fill="none" fill-rule="evenodd"><path fill="#F7F7F7" d="M1 0h22a1 1 0 0 1 1 1v16a1 1 0 0 1-1 1H1a1 1 0 0 1-1-1V1a1 1 0 0 1 1-1z"/><path fill="#000" fill-rule="nonzero" d="M1 1v16h22V1H1zm0-1h22a1 1 0 0 1 1 1v16a1 1 0 0 1-1 1H1a1 1 0 0 1-1-1V1a1 1 0 0 1 1-1z" opacity=".2"/><path fill="#D3002D" d="M24 1v8H12V0h11a1 1 0 0 1 1 1z"/><path fill="#005295" d="M12 9v9H1a1 1 0 0 1-1-1V9h12z"/><circle cx="6" cy="5" r="1" fill="#005295"/><circle cx="18" cy="13" r="1" fill="#D3002D"/></g></svg>