<svg xmlns="http://www.w3.org/2000/svg" width="24" height="18" viewBox="0 0 24 18"><g fill="none" fill-rule="evenodd"><path fill="#F7F7F7" d="M1 0h22a1 1 0 0 1 1 1v16a1 1 0 0 1-1 1H1a1 1 0 0 1-1-1V1a1 1 0 0 1 1-1z"/><path fill="#D62717" d="M1 0h7v18H1a1 1 0 0 1-1-1V1a1 1 0 0 1 1-1zm22 0h-7v18h7a1 1 0 0 0 1-1V1a1 1 0 0 0-1-1z"/><path fill="#000" fill-rule="nonzero" d="M1 1v16h22V1H1zm0-1h22a1 1 0 0 1 1 1v16a1 1 0 0 1-1 1H1a1 1 0 0 1-1-1V1a1 1 0 0 1 1-1z" opacity=".2"/><circle cx="12" cy="9" r="2" fill="#FCD30F"/><path fill="#61AB10" fill-rule="nonzero" d="M12 11.5a2.5 2.5 0 1 1 0-5 2.5 2.5 0 0 1 0 5zm0-1a1.5 1.5 0 1 0 0-3 1.5 1.5 0 0 0 0 3z"/></g></svg>