<svg xmlns="http://www.w3.org/2000/svg" width="24" height="18" viewBox="0 0 24 18"><g fill="none" fill-rule="evenodd"><path fill="#0535A7" d="M1 0h22a1 1 0 0 1 1 1v8H0V1a1 1 0 0 1 1-1z"/><path fill="#CE182A" d="M0 9h24v8a1 1 0 0 1-1 1H1a1 1 0 0 1-1-1V9z"/><path fill="#F7F7F7" d="M.332 17.744A.997.997 0 0 1 0 17V1C0 .705.128.44.332.256L11.647 9 .332 17.744z"/><path fill="#000" fill-rule="nonzero" d="M1 1v16h22V1H1zm0-1h22a1 1 0 0 1 1 1v16a1 1 0 0 1-1 1H1a1 1 0 0 1-1-1V1a1 1 0 0 1 1-1z" opacity=".2"/><circle cx="4" cy="9" r="2" fill="#FCC40F"/><circle cx="8" cy="9" r="1" fill="#FCC40F"/><circle cx="3" cy="5" r="1" fill="#FCC40F"/><circle cx="3" cy="13" r="1" fill="#FCC40F"/></g></svg>