<svg xmlns="http://www.w3.org/2000/svg" width="24" height="18" viewBox="0 0 24 18"><g fill="none" fill-rule="evenodd"><path fill="#F7F7F7" d="M1 0h5v18H1a1 1 0 0 1-1-1V1a1 1 0 0 1 1-1z"/><path fill="#00642E" d="M6 0h17a1 1 0 0 1 1 1v16a1 1 0 0 1-1 1H6V0z"/><path fill="#000" fill-rule="nonzero" d="M1 1v16h22V1H1zm0-1h22a1 1 0 0 1 1 1v16a1 1 0 0 1-1 1H1a1 1 0 0 1-1-1V1a1 1 0 0 1 1-1z" opacity=".2"/><path fill="#F5FFFD" d="M15.534 4.57a4.64 4.64 0 1 0 2.85 4.936 4.03 4.03 0 0 1-1.677 1.846c-1.85 1.068-4.157.534-5.154-1.192-.997-1.727-.305-3.992 1.544-5.06a4.03 4.03 0 0 1 2.437-.53z"/><path fill="#FFF" d="M18.975 5.028l-1.455.84-1.254-1.113.336 1.644-1.455.84 1.696.195.336 1.644.7-1.528 1.673.158-1.255-1.114z"/></g></svg>