<svg width="24" height="18" viewBox="0 0 24 18" xmlns="http://www.w3.org/2000/svg" xmlns:xlink="http://www.w3.org/1999/xlink"><defs><rect id="a" width="24" height="18" rx="1"/><path d="M1 1v16h22V1H1zm0-1h22a1 1 0 0 1 1 1v16a1 1 0 0 1-1 1H1a1 1 0 0 1-1-1V1a1 1 0 0 1 1-1z" id="c"/></defs><g fill="none" fill-rule="evenodd"><mask id="b" fill="#fff"><use xlink:href="#a"/></mask><use fill="#F1F1F1" xlink:href="#a"/><path d="M12 3.75A5.256 5.256 0 0 0 6.75 9 5.256 5.256 0 0 0 12 14.25 5.256 5.256 0 0 0 17.25 9 5.256 5.256 0 0 0 12 3.75zm0 9.625a4.352 4.352 0 0 1-2.86-1.072c.003-.006.008-.01.011-.017.723-1.21.268-1.95-.067-2.284a3.113 3.113 0 0 0-.294-.248c-.272-.211-.452-.351-.452-.754 0-.19.106-.264.628-.443.36-.123.767-.262 1.03-.602.61-.789-.06-2.006-.201-2.242a3.966 3.966 0 0 0-.232-.344 4.35 4.35 0 0 1 2.286-.737c.136.232.361.427.583.617.189.163.489.231.643.424.089.11.046.323.049.462.006.276.173.676.737.676.025 0 .05 0 .077-.002.218-.016.898-.171 1.581-.397.536.726.856 1.62.856 2.588A4.38 4.38 0 0 1 12 13.375zM14.262 7.5c-.52 0-1.053.3-1.323.748-.182.3-.235.647-.15.977.171.66.188 1.048.081 1.483-.094.387-.104.948.436 1.216.102.05.214.076.331.076.402 0 .877-.301 1.304-.828.514-.632.816-1.406.809-2.073-.01-.896-.664-1.599-1.488-1.599z" fill="#B8B8B8" fill-rule="nonzero" mask="url(#b)"/><use fill="#000" fill-rule="nonzero" opacity=".2" xlink:href="#c"/></g></svg>