<svg width="24" height="18" viewBox="0 0 24 18" xmlns="http://www.w3.org/2000/svg"><g fill="none" fill-rule="evenodd"><path d="M1 0h22a1 1 0 0 1 1 1v16a1 1 0 0 1-1 1H1a1 1 0 0 1-1-1V1a1 1 0 0 1 1-1z" fill="#FF2936"/><path d="M1 0h7v18H1a1 1 0 0 1-1-1V1a1 1 0 0 1 1-1z" fill="#128415"/><path d="M8 13.75a4.75 4.75 0 1 1 0-9.5 4.75 4.75 0 0 1 0 9.5zm0-1.5a3.25 3.25 0 1 0 0-6.5 3.25 3.25 0 0 0 0 6.5z" fill="#FF0" fill-rule="nonzero"/><path fill="#F7F7F7" d="M8 6.172L10.828 9 8 11.828 5.172 9z"/><path d="M1 1v16h22V1H1zm0-1h22a1 1 0 0 1 1 1v16a1 1 0 0 1-1 1H1a1 1 0 0 1-1-1V1a1 1 0 0 1 1-1z" fill="#000" fill-rule="nonzero" opacity=".2"/></g></svg>