<svg xmlns="http://www.w3.org/2000/svg" width="24" height="18" viewBox="0 0 24 18"><g fill="none" fill-rule="evenodd"><path fill="#F7F7F7" d="M1 0h22a1 1 0 0 1 1 1v16a1 1 0 0 1-1 1H1a1 1 0 0 1-1-1V1a1 1 0 0 1 1-1z"/><path fill="#8E143A" d="M6 0h17a1 1 0 0 1 1 1v16a1 1 0 0 1-1 1H6V0z"/><path fill="#F7F7F7" d="M10 1.5L6 3V0zm0 3L6 6V3zm0 3L6 9V6zm0 3L6 12V9zm0 3L6 15v-3zm0 3L6 18v-3z"/><path fill="#000" fill-rule="nonzero" d="M1 1v16h22V1H1zm0-1h22a1 1 0 0 1 1 1v16a1 1 0 0 1-1 1H1a1 1 0 0 1-1-1V1a1 1 0 0 1 1-1z" opacity=".2"/></g></svg>