<svg xmlns="http://www.w3.org/2000/svg" width="24" height="18" viewBox="0 0 24 18"><g fill="none" fill-rule="evenodd"><path fill="#006D31" d="M1 0h22a1 1 0 0 1 1 1v16a1 1 0 0 1-1 1H1a1 1 0 0 1-1-1V1a1 1 0 0 1 1-1z"/><path fill="#FFF" d="M10.345 5.022c-.059.04-.175.16-.179.3-.003.08-.018.079.034.129.037.054.074.048.15.009a.159.159 0 0 0 .072-.105c.017-.09-.095.042-.109-.058-.025-.092.047-.13.115-.22.001-.042.002-.076-.026-.077a.138.138 0 0 0-.057.022zm1.07.078c-.026.068-.136.17-.056.382.065.134.091.352.062.595-.045.069-.056.092-.115.161-.083.09-.173.067-.242.033-.064-.043-.115-.065-.144-.203.005-.22.018-.58-.022-.657-.06-.119-.157-.076-.2-.04-.2.183-.3.493-.36.74-.055.18-.115.128-.156.055-.102-.095-.109-.838-.231-.716-.197.56.112 1.174.326 1.115.154.064.252-.23.315-.552.043-.09.077-.1.099-.054-.006.428.03.523.14.653.246.19.448.024.464.008l.191-.19c.043-.046.099-.048.159-.009.058.053.05.144.176.208.105.042.33.01.381-.08.07-.12.087-.162.12-.207.05-.067.135-.037.135-.016-.008.037-.058.073-.024.14.06.045.073.016.109.006.124-.06.218-.33.218-.33.005-.1-.052-.092-.089-.071-.048.029-.05.039-.098.068-.061.009-.179.05-.237-.041-.06-.109-.06-.26-.106-.37 0-.008-.08-.172-.006-.183.037.007.117.028.13-.039.039-.065-.084-.25-.168-.342-.073-.08-.173-.09-.27-.008-.068.062-.058.132-.071.199a.31.31 0 0 0 .063.27c.068.135.191.306.15.549 0 0-.071.115-.197.1-.053-.011-.139-.034-.184-.37-.035-.255.009-.611-.1-.778-.024-.063-.045-.125-.08-.12-.02.003-.047.03-.082.094zm-.363.048a1.86 1.86 0 0 0-.05.348c-.021.087.09.124.14.012.077-.205.077-.293.082-.38-.012-.066-.04-.098-.073-.095-.033.003-.07.041-.099.115zm1.308-.02a.763.763 0 0 0 .013.278c.015.064.11.173.156.236.221.298.434.597.64.907.033.23.056.454.072.678.033.492.043 1.103.013 1.62.092.004.24-.148.291-.371.034-.309-.012-.938-.015-1.12a10.302 10.302 0 0 0-.012-.26c.24.391.472.806.7 1.261.083-.04.065-.507.016-.573-.183-.393-.435-.781-.515-.93a7.149 7.149 0 0 0-.245-.378 5.714 5.714 0 0 0-.06-.52c-.038-.262.107.03.087-.123-.047-.26-.191-.438-.362-.677-.055-.078-.054-.094-.138.019a.5.5 0 0 0-.035.3 1.592 1.592 0 0 0-.09-.119l-.278-.236c-.039-.027-.112-.069-.168-.064-.033.003-.06.023-.07.072zm3.808.002a.228.228 0 0 0-.078.173c.01.138.034.28.043.417l.01.055a.537.537 0 0 0-.035-.04c-.269-.283.123-.047-.051-.265-.148-.162-.191-.214-.318-.311-.063-.041-.101-.12-.122.014a2.626 2.626 0 0 0-.01.351c0 .055.057.158.106.22.18.22.363.454.547.698.038.499.049.956.088 1.455-.006.214-.071.498-.134.525 0 0-.095.054-.158-.006-.046-.019-.231-.309-.231-.309-.095-.086-.158-.062-.225 0-.186.18-.27.515-.396.746-.032.052-.124.096-.226-.004-.258-.353-.107-.856-.14-.727-.23.26-.128.69-.076.783.076.152.138.249.285.324.135.1.24.037.298-.032.135-.14.137-.5.2-.57.045-.131.157-.109.212-.05a.519.519 0 0 0 .192.166c.127.111.278.132.426.03a.493.493 0 0 0 .227-.277c.064-.17.032-1.065.018-1.563.096.135.19.272.283.411.042.437.06.867.047 1.28-.01.081.286-.245.284-.4V7.85c.143.23.282.462.414.698.081-.043.053-.504.002-.567-.138-.231-.314-.48-.45-.673-.027-.244-.064-.53-.08-.619-.027-.137-.053-.343-.092-.506-.01-.064-.043-.267-.033-.286.016-.046.076.001.106-.051.045-.05-.155-.566-.256-.714-.036-.066-.102-.043-.184.065-.075.07-.048.232-.019.385.075.392.142.79.195 1.187a44.647 44.647 0 0 0-.335-.492l-.015-.077c0-.007-.017-.32-.03-.395-.003-.03-.01-.039.022-.035.033.029.038.03.059.04.034.006.064-.052.043-.105l-.315-.583c-.013-.012-.027-.025-.043-.028-.017-.002-.035.006-.055.035zm-9.83.08c-.015.038.114.167.137.238.02.05-.02.213.022.228.039.017.092-.113.112-.232.011-.066.003-.29-.15-.336a.125.125 0 0 0-.024-.003c-.058-.001-.122.035-.097.105zm11.192-.028c-.06.098-.08.272-.056.427.144.97.25 1.91.272 2.77-.012.082-.016.126-.054.229-.085.108-.178.244-.266.31-.088.066-.275.128-.337.177-.194.112-.195.241-.038.246.27-.032.591-.054.812-.387a1.29 1.29 0 0 0 .131-.501c.02-.908-.011-1.795-.147-2.452-.01-.063-.037-.21-.026-.23.017-.044.106.005.137-.047.046-.047-.229-.4-.325-.55-.02-.038-.031-.07-.048-.067-.014 0-.03.022-.055.075zm-2.842-.001c-.076.247-.102.449-.073.603.194 1.013.393 1.936.361 2.901.092 0 .199-.21.244-.42.025-.288-.016-.463-.024-.633-.007-.169-.191-1.543-.229-1.67-.045-.243.18-.033.155-.173-.078-.178-.27-.437-.331-.591-.023-.041-.026-.08-.045-.076-.01.002-.027.019-.058.059zm-6.908.016c-.005.021.01.057-.01.067-.01.011-.053.004-.05-.055 0-.019-.015-.038-.023-.05-.008-.006-.014-.007-.03-.007-.017 0-.017.005-.027.02-.005.017-.01.032-.01.05-.003.021-.011.028-.027.031-.017 0-.013.002-.027-.007-.008-.009-.018-.012-.018-.028a.165.165 0 0 0-.009-.052c-.007-.01-.019-.015-.032-.018-.072 0-.077.083-.073.114-.006.006-.008.153.09.194.132.063.38.036.37-.177 0-.019-.004-.082-.006-.1-.014-.03-.039-.042-.063-.038-.023.004-.046.024-.055.056zm1.709-.021c-.088.084-.108.218-.04.302.068.032.135.1.09.137-.19.203-.684.542-.709.603l-.001.004.002.004c.03.02.338.019.373.003.108-.04.612-.617.612-.617-.026-.023-.05-.04-.076-.061-.028-.025-.025-.049 0-.073.125-.072.085-.232.02-.305a.325.325 0 0 0-.15-.03.295.295 0 0 0-.121.033zm4.702.043a.846.846 0 0 0-.095.427c.129.894.168 1.676.253 2.57.007.086-.006.212-.064.262-.212.222-.519.496-.852.622-.036.04.089.212.25.212.271-.032.51-.184.73-.584.059-.093.163-.293.166-.448.02-.908-.046-1.613-.182-2.27a.375.375 0 0 1 .008-.158c.017-.021.077 0 .108-.051.047-.048-.123-.44-.22-.59-.019-.038-.03-.068-.048-.066-.013.001-.03.022-.054.074zm-7.217.028a2.65 2.65 0 0 0 .009.42c.065.231.086.435.117.672.01.318-.183.138-.174-.02.044-.205.032-.527-.007-.609-.032-.081-.068-.101-.144-.088-.06-.004-.216.166-.26.448 0 0-.036.144-.052.273-.022.146-.118.249-.185-.02-.058-.195-.094-.676-.19-.563-.029.375-.062 1.036.257 1.103.386.038.173-.652.313-.777.026-.062.075-.063.079.015v.586c-.004.19.122.247.219.286.101-.008.168-.005.208.093l.048 1.014s.234.067.245-.57c.011-.374-.074-.687-.024-.76.002-.072.093-.075.157-.04.1.07.145.158.302.123.238-.065.382-.181.386-.364a1.588 1.588 0 0 0-.11-.523c.01-.031-.046-.114-.035-.145.043.067.108.061.122 0-.04-.134-.103-.262-.205-.318-.085-.074-.208-.058-.254.097-.02.179.065.39.195.563a.55.55 0 0 1 .05.281c-.07.04-.138.024-.196-.038 0 0-.19-.142-.19-.173.05-.323.01-.36-.017-.45-.02-.123-.078-.162-.126-.246-.047-.05-.112-.05-.142 0-.084.145-.045.457.016.597.044.129.11.21.08.21-.027.072-.081.055-.12-.03a2.089 2.089 0 0 1-.068-.547c-.017-.145-.035-.453-.13-.532-.026-.034-.056-.046-.085-.043-.037.004-.072.035-.09.075zm1.379-.054c-.082.026-.159.097-.135.235.097.59.16 1.039.257 1.628.015.07-.043.16-.117.15-.127-.085-.158-.259-.375-.251-.156.002-.335.172-.357.336a.817.817 0 0 0 0 .386c.11.132.242.118.357.088.095-.039.174-.133.207-.11.022.037 0 .343-.447.58-.274.123-.492.153-.61-.071-.072-.14.006-.672-.173-.55-.53 1.365 1.24 1.556 1.438.057.013-.042.052-.085.08-.074.011.005.023.021.027.052-.042 1.357-1.37 1.45-1.595 1.023-.056-.1-.073-.325-.079-.459-.01-.081-.03-.128-.054-.146-.054-.04-.126.065-.142.248-.022.147-.016.187-.016.329.071 1.072 1.78.611 2.058-.274.138-.458-.003-.803.043-.846a.033.033 0 0 1 .012-.004c.17.183.408.023.46-.04.023-.032.079-.052.118-.011.132.095.364.05.413-.117.028-.165.051-.333.057-.509-.086.027-.156.047-.184.077a.048.048 0 0 0-.013.024l-.022.145c-.008.017-.014.023-.02.027-.03.016-.084.007-.086-.038-.041-.186-.21-.21-.313.079-.069.056-.195.067-.208-.017.017-.194-.061-.22-.218-.129l-.15-1.135c.065-.002.125.046.185-.029-.065-.2-.202-.61-.279-.648a.504.504 0 0 0-.013-.012l-.01-.007a.056.056 0 0 0-.03-.006c-.02.003-.041.013-.066.02zm5.233.11c-.017.046.146.203.172.289.047.132-.036.258.013.276.045.02.108-.136.132-.281.027-.117-.057-.357-.175-.407a.14.14 0 0 0-.028-.003c-.068-.002-.143.04-.114.126zm-3.915.084c.02.043.01.084-.022.091-.031.008-.073-.02-.092-.063-.02-.043-.01-.084.022-.092.037-.004.074.024.092.064zm7.444.27c-.015.05.132.22.156.313.022.066-.033.28.012.299.041.022.1-.148.12-.304.013-.086-.051-.388-.159-.441a.113.113 0 0 0-.026-.004c-.062-.003-.13.044-.103.136zm-4.102.043c.013.056.023.111.035.166a2.518 2.518 0 0 0-.106-.14c-.11-.132.002-.087.056-.102.005.025.011.05.015.076zm.902.46c-.005.02.01.055-.01.066-.01.01-.053.004-.051-.055 0-.018-.014-.039-.023-.05-.008-.006-.014-.008-.029-.008-.018 0-.018.006-.028.021-.004.016-.01.032-.01.05-.002.02-.01.028-.025.03-.017 0-.014.002-.028-.006-.008-.01-.018-.013-.018-.029a.165.165 0 0 0-.01-.052c-.007-.01-.018-.013-.031-.017-.073 0-.077.082-.073.114-.005.006-.009.154.09.194.132.063.38.036.37-.177 0-.02-.005-.082-.007-.1-.013-.031-.038-.043-.062-.039-.024.004-.047.025-.055.057zm-4.446.005c-.117.064-.162.251-.09.36.068.098.176.062.19.062.115.015.183-.215.183-.215s.003-.064-.133.058c-.057.01-.065-.01-.079-.043a.285.285 0 0 1 .018-.18c.013-.035 0-.058-.027-.06a.107.107 0 0 0-.062.018zm6.185.138c0 .052.024.081.02.129-.007.027-.035.045-.102.013.01-.01-.043-.086-.043-.086-.052-.031-.122.002-.167.031a.254.254 0 0 0-.015.202c.075.138.33.374.453.376.002-.125.014-.29.021-.393.003-.039.012-.081.05-.091.037-.01.101.037.102-.003-.007-.08-.023-.196-.067-.251a.126.126 0 0 0-.1-.055c-.065-.003-.134.04-.152.128zm-5.112.367c-.058.065-.068.11-.065.242.004.013.11.308.2.515.06.215.116.461.074.694a1.71 1.71 0 0 1-.7.733c-.14.045-.261.03-.294-.001a.183.183 0 0 1-.078-.168c.233-.163.498-.294.705-.73.061-.167.08-.267.019-.524a.499.499 0 0 0-.118-.243c.04-.02.142.055.158.008a.763.763 0 0 0-.202-.373c-.082-.075-.172-.083-.248-.015-.085.048-.103.218-.062.367.046.112.168.132.256.357.002.015.03.17-.014.232-.036.112-.496.475-.528.496-.012-.008-.01-.03-.01-.068-.003-.068.025-.222.023-.248-.154.095-.204.396-.232.485-.385.266-.822.464-1.074.733-.13.205.903-.235 1.024-.288.025.028.027.116.096.195a.547.547 0 0 0 .558.18c.373-.135.588-.39.807-.671.031-.046.08-.082.125-.046.15.336.584.575 1.144.6.13-.157.068-.235.015-.268-.016-.01-.278-.113-.319-.215-.026-.095.037-.179.162-.242.36-.043.713-.092 1.055-.202a.929.929 0 0 1 .117-.361c.031-.052.051-.057.06-.065a.027.027 0 0 0 .001-.015l-.058-.034-1.148-.005a.123.123 0 0 1-.031-.016l-.006-.008-.001-.008c.007-.012.02-.019.038-.025.274-.037.761-.117.793-.586-.005-.244-.104-.403-.403-.448-.22.017-.377.23-.352.464-.01.064.021.187-.043.201-.422.039-.883.303-.898.492a.11.11 0 0 1-.015.003c-.032-.008-.067-.053-.061-.117a2.264 2.264 0 0 0-.29-.982c-.06-.06-.085-.084-.102-.087-.03.015-.044.037-.078.062zm1.113.167c-.005.022.01.057-.009.068-.01.01-.054.004-.052-.055 0-.018-.014-.039-.022-.05-.008-.006-.013-.008-.028-.008-.019 0-.02.006-.03.021-.003.016-.01.032-.01.05-.002.02-.009.027-.024.03-.018 0-.014.002-.027-.007-.009-.009-.02-.012-.02-.028a.167.167 0 0 0-.008-.052c-.007-.01-.02-.014-.033-.017-.072 0-.076.082-.072.114-.005.005-.01.154.09.194.132.063.447.026.37-.177 0-.02-.005-.083-.007-.1-.014-.031-.039-.043-.062-.039-.024.004-.047.024-.056.056zm4.479.127s-.613.436-.628.45c-.06.055-.03.245 0 .223.044.017.66-.401.649-.45.027.001.04-.215-.01-.224h-.011zm-3.755.088c.046.026.074.066.07.095l-.003.009a.04.04 0 0 1-.008.011c-.022.02-.073.018-.12-.01-.046-.026-.074-.066-.07-.095a.043.043 0 0 1 .013-.023.057.057 0 0 1 .028-.012.157.157 0 0 1 .09.025zm-6.248.73c.335-.161.664-.316 1.004-.482-.055-.082-.003-.156-.21-.162-.317.006-.782.416-.794.644zm1.904-.442c.016.04 0 .081-.018.102-.014.02-.061.013-.094.013-.04-.002-.06-.008-.085-.04-.011-.037.024-.073.04-.1a.076.076 0 0 1 .007-.01.105.105 0 0 1 .069-.024c.03 0 .064.015.081.059zm7.905.212c-.015.05.077.226.1.319.022.066-.027.253.018.273.04.022.15-.111.145-.278.012-.086-.03-.402-.138-.456a.102.102 0 0 0-.04-.003c-.056.007-.11.06-.085.145zm-6.844.265c-.003.05.14.113.15.23.02.05-.031.205.011.22.04.016.094-.108.115-.223.011-.064-.05-.284-.153-.324a.177.177 0 0 0-.049-.004c-.05.004-.094.03-.074.1zm2.137.18c.13.034.318.038.482.055.133.008.2.112.074.156-.123.042-.241.075-.242.253.017.089.013.135 0 .156a.176.176 0 0 1-.007.007.044.044 0 0 1-.01.006c-.035.005-.078-.023-.11-.04-.075-.054-.288-.186-.319-.47-.004-.063.044-.118.121-.124h.011zm-5.068.268c-.189.301-.205.75-.101.884a.22.22 0 0 0 .214.072c.118-.052.17-.292.142-.38-.04-.062-.07-.072-.11-.02-.084.17-.118.054-.126-.04-.013-.18.005-.345.024-.476.01-.067.01-.09.002-.09s-.024.023-.045.05zm6.434.353a.802.802 0 0 0-.178.152c-.026.02-.023.037-.015.071.02.047.056.032.096.01.054-.007.08.028.076.093-.025.08.01.11.01.115 0 .005.053.05.113.014.129-.049.208-.096.388-.135.047-.001.044-.127-.03-.132-.097.005-.187.01-.284.086-.06.014-.07-.022-.084-.055-.015-.08.034-.138.024-.199.003.003-.03-.026-.072-.029a.087.087 0 0 0-.044.01zm4.078.152c-.04.008-.054.026-.06.073.002.073.046.069.092.098.026.033.043.063-.002.118-.043.04-.074.061-.117.1-.02.035-.033.088.03.105.114.032.379-.14.379-.144.043-.032.029-.093.025-.093-.025-.029-.082-.011-.12-.016-.018 0-.077-.009-.049-.061a.356.356 0 0 0 .049-.093c.017-.039.002-.066-.063-.087a.357.357 0 0 0-.08-.007c-.023 0-.048.004-.084.007zm-1.699 3.409c-2.012 0-5.099-.035-5.76-.035-.371 0-1.543-.044-1.566-.044.252.368.616.443 1.092.45.894 0 5.034-.01 6.212-.01-.084.148.007.387.073.431l.013.006c.081.018.116-.038.142-.08.126.012.839.022.904 0 .045.064.089.125.172.114.147-.031.263-.047.267-.345 0 0-.015-.508-.349-.476-.079.012-.3.034-.3.034-.256-.03-.444-.034-.732-.044.026-.034.073-.17.016-.22-.015-.013-.038-.02-.069-.017-.008-.003-.01-.006-.012-.007-.016-.024-.024-.076-.034-.089-.197.047-.191.245-.069.332zm1.064.408c.046.04.023.13-.007.147a.033.033 0 0 1-.005.002h-.009l-.246-.007c0-.005 0-.01-.002-.014-.022-.067-.186-.063-.225-.01l-.004.007a.058.058 0 0 0-.002.005v.007l-.002.008c-.128.016-.244-.004-.373-.009-.038-.047-.034-.132.01-.153.295.015.571.003.865.017z"/><path fill="#000" fill-rule="nonzero" d="M1 1v16h22V1H1zm0-1h22a1 1 0 0 1 1 1v16a1 1 0 0 1-1 1H1a1 1 0 0 1-1-1V1a1 1 0 0 1 1-1z" opacity=".2"/></g></svg>