<svg width="24" height="18" viewBox="0 0 24 18" xmlns="http://www.w3.org/2000/svg"><g fill="none" fill-rule="evenodd"><path d="M1 0h22a1 1 0 0 1 1 1v16a1 1 0 0 1-1 1H1a1 1 0 0 1-1-1V1a1 1 0 0 1 1-1z" fill="#F7F7F7"/><path d="M1 0h22a1 1 0 0 1 1 1v8H0V1a1 1 0 0 1 1-1z" fill="#D2143B"/><path d="M7 3.158a2.316 2.316 0 0 0-1.43-.491C4.285 2.667 3.5 3.71 3.5 5c0 1.289.784 2.333 2.07 2.333A2.32 2.32 0 0 0 7 6.843C6.489 7.546 5.69 8 4.794 8 3.251 8 2 6.657 2 5s1.251-3 2.794-3C5.691 2 6.49 2.453 7 3.158zM9 3h1v1H9V3zM7 4h1v1H7V4zm1 2h1v1H8V6zm2 0h1v1h-1V6zm1-2h1v1h-1V4z" fill="#F7F7F7"/><path d="M1 1v16h22V1H1zm0-1h22a1 1 0 0 1 1 1v16a1 1 0 0 1-1 1H1a1 1 0 0 1-1-1V1a1 1 0 0 1 1-1z" fill="#000" fill-rule="nonzero" opacity=".2"/></g></svg>