<svg width="24" height="18" viewBox="0 0 24 18" xmlns="http://www.w3.org/2000/svg"><g fill="none" fill-rule="evenodd"><path d="M1 0h22a1 1 0 0 1 1 1v16a1 1 0 0 1-1 1H1a1 1 0 0 1-1-1V1a1 1 0 0 1 1-1z" fill="#005DA4"/><path d="M0 12h24v5a1 1 0 0 1-1 1H1a1 1 0 0 1-1-1v-5z" fill="#ED1C24"/><path d="M1 0h22a1 1 0 0 1 1 1v5.75H0V1a1 1 0 0 1 1-1z" fill="#F7F7F7"/><path fill="#F7F7F7" fill-rule="nonzero" d="M3 2h8v5.828l-4 4-4-4z"/><path fill="#005DA4" d="M5 4v3l2 2 2-2V4z"/><path d="M1 1v16h22V1H1zm0-1h22a1 1 0 0 1 1 1v16a1 1 0 0 1-1 1H1a1 1 0 0 1-1-1V1a1 1 0 0 1 1-1z" fill="#000" fill-rule="nonzero" opacity=".2"/></g></svg>