<svg width="24" height="18" viewBox="0 0 24 18" xmlns="http://www.w3.org/2000/svg" xmlns:xlink="http://www.w3.org/1999/xlink"><defs><path d="M1 0h22a1 1 0 0 1 1 1v16a1 1 0 0 1-1 1H1a1 1 0 0 1-1-1V1a1 1 0 0 1 1-1z" id="a"/></defs><g fill="none" fill-rule="evenodd"><mask id="b" fill="#fff"><use xlink:href="#a"/></mask><use fill="#0B4EA2" xlink:href="#a"/><path fill="#EE1C25" mask="url(#b)" d="M0 12h24v6H0z"/><path fill="#F7F7F7" mask="url(#b)" d="M0 0h24v6H0z"/><g mask="url(#b)"><path fill="#F7F7F7" fill-rule="nonzero" d="M3 1h10v8.07l-5 3.334L3 9.07z"/><path fill="#0B4EA2" d="M5 3v5l3 2 3-2V3z"/><path fill="#EE1C25" d="M5 3h6v3H5z"/><path fill="#FFF" d="M7 4h2v4H7z"/></g><path d="M1 1v16h22V1H1zm0-1h22a1 1 0 0 1 1 1v16a1 1 0 0 1-1 1H1a1 1 0 0 1-1-1V1a1 1 0 0 1 1-1z" fill="#000" fill-rule="nonzero" opacity=".2" mask="url(#b)"/></g></svg>