<svg xmlns="http://www.w3.org/2000/svg" width="24" height="18" viewBox="0 0 24 18"><g fill="none" fill-rule="evenodd"><path fill="#B50229" d="M1 0h22a1 1 0 0 1 1 1v16a1 1 0 0 1-1 1H1a1 1 0 0 1-1-1V1a1 1 0 0 1 1-1z"/><path fill="#347F3D" d="M0 12h24v5a1 1 0 0 1-1 1H1a1 1 0 0 1-1-1v-5zM1 0h22a1 1 0 0 1 1 1v5H0V1a1 1 0 0 1 1-1z"/><path fill="#F7F7F7" d="M0 4h24v2H0zm0 8h24v2H0z"/><path fill="#000" fill-rule="nonzero" d="M1 1v16h22V1H1zm0-1h22a1 1 0 0 1 1 1v16a1 1 0 0 1-1 1H1a1 1 0 0 1-1-1V1a1 1 0 0 1 1-1z" opacity=".2"/><path fill="#FAE400" d="M12 11l-2.351 1.236.449-2.618-1.902-1.854 2.628-.382L12 5l1.176 2.382 2.628.382-1.902 1.854.449 2.618z"/></g></svg>