<svg xmlns="http://www.w3.org/2000/svg" width="24" height="18" viewBox="0 0 24 18"><g fill="none" fill-rule="evenodd"><path fill="#F7F7F8" d="M0 6h24v6H0z"/><path fill="#CF0820" d="M1 0h22a1 1 0 0 1 1 1v5H0V1a1 1 0 0 1 1-1z"/><path fill="#00742C" d="M16 10.154l-1.236.65L15 9.428l-1-.975 1.382-.201L16 7l.618 1.252L18 8.453l-1 .975.236 1.376z"/><path fill="#000" d="M0 12h24v5a1 1 0 0 1-1 1H1a1 1 0 0 1-1-1v-5z"/><path fill="#000" fill-rule="nonzero" d="M1 1v16h22V1H1zm0-1h22a1 1 0 0 1 1 1v16a1 1 0 0 1-1 1H1a1 1 0 0 1-1-1V1a1 1 0 0 1 1-1z" opacity=".2"/><path fill="#00742C" d="M8 10.154l-1.236.65L7 9.428l-1-.975 1.382-.201L8 7l.618 1.252L10 8.453l-1 .975.236 1.376z"/></g></svg>