<svg xmlns="http://www.w3.org/2000/svg" width="24" height="18" viewBox="0 0 24 18"><g fill="none" fill-rule="evenodd"><path fill="#F7F7F7" d="M1 0h22a1 1 0 0 1 1 1v16a1 1 0 0 1-1 1H1a1 1 0 0 1-1-1V1a1 1 0 0 1 1-1z"/><path fill="#006700" d="M0 12h24v5a1 1 0 0 1-1 1H1a1 1 0 0 1-1-1v-5z"/><path fill="#CD0100" d="M1 0h22a1 1 0 0 1 1 1v5H0V1a1 1 0 0 1 1-1z"/><path fill="#000" fill-rule="nonzero" d="M1 1v16h22V1H1zm0-1h22a1 1 0 0 1 1 1v16a1 1 0 0 1-1 1H1a1 1 0 0 1-1-1V1a1 1 0 0 1 1-1z" opacity=".2"/><path fill="#FFA209" fill-rule="nonzero" stroke="#FFA209" stroke-linecap="round" stroke-linejoin="round" stroke-width=".2" d="M12.001 10.435H12c-.27.9-1.191 1.111-1.61.376-.1.865-1.433 1.047-1.522.157a.965.965 0 0 0 1.459-.427.928.928 0 0 0 1.56-.593v-.734a.305.305 0 0 0-.57-.144.72.72 0 1 1 1.368 0 .305.305 0 0 0-.57.144v.734a.928.928 0 0 0 1.56.593.965.965 0 0 0 1.459.427c-.09.89-1.423.708-1.522-.157-.419.735-1.34.525-1.61-.376zm-1.006 1.092c-.186.402-.558.471-.884.147 0 0 .131-.093.271-.118a.439.439 0 0 1 .104-.35c.08.054.19.163.219.29.196-.025.29.031.29.031zm1.455-.045c-.249.366-.627.373-.895 0 0 0 .144-.07.286-.072a.439.439 0 0 1 .16-.328c.069.067.16.192.168.322.198.007.281.078.281.078zm1.444.192c-.305.32-.68.266-.884-.145 0 0 .154-.046.295-.025a.439.439 0 0 1 .21-.298.535.535 0 0 1 .114.345c.194.039.265.123.265.123zM12 6l.359 1.105-.94-.683h1.162l-.94.683L12 6zm-1.71.458l.36 1.105-.94-.683h1.161l-.94.683.36-1.105zM9.04 7.71l.359 1.104-.94-.682H9.62l-.94.682.359-1.104zm-.46 1.71l.359 1.104L8 9.84h1.161l-.94.683.36-1.105zm5.129-2.962l.359 1.105-.94-.683h1.161l-.94.683.36-1.105zM14.96 7.71l.36 1.104-.94-.682h1.16l-.939.682.36-1.104zm.458 1.71l.36 1.104-.94-.683H16l-.94.683.36-1.105z"/></g></svg>