<svg xmlns="http://www.w3.org/2000/svg" width="24" height="18" viewBox="0 0 24 18"><g fill="none" fill-rule="evenodd"><path fill="#21AF64" d="M1 0h22a1 1 0 0 1 1 1v16a1 1 0 0 1-1 1H1a1 1 0 0 1-1-1V1a1 1 0 0 1 1-1z"/><path fill="#CB3241" d="M4 0h4v18H4z"/><path fill="#FBAD00" d="M5 2h2v1H5z"/><path fill="#21AF64" d="M5 4h2v1H5z"/><path fill="#FBAD00" d="M5 7h2v1H5z"/><path fill="#21AF64" d="M5 9h2v1H5z"/><path fill="#FBAD00" d="M5 12h2v1H5z"/><path fill="#21AF64" d="M5 14h2v1H5z"/><path fill="#000" fill-rule="nonzero" d="M1 1v16h22V1H1zm0-1h22a1 1 0 0 1 1 1v16a1 1 0 0 1-1 1H1a1 1 0 0 1-1-1V1a1 1 0 0 1 1-1z" opacity=".2"/><path fill="#FFF" d="M11.883 4.523a.5.5 0 1 1-.707-.707.5.5 0 0 1 .707.707zm.707-1.414a.5.5 0 1 1-.707-.707.5.5 0 0 1 .707.707zm.707 1.414a.5.5 0 1 1-.707-.707.5.5 0 0 1 .707.707zm-1.414 1.414a.5.5 0 1 1-.707-.707.5.5 0 0 1 .707.707zm-1.415-.707a.5.5 0 1 1-.707-.707.5.5 0 0 1 .707.707z"/><path fill="#F5FFFD" d="M10.316 6.19a3.504 3.504 0 1 0 3.043-3.043 3.042 3.042 0 0 1 1.673.862c1.14 1.14 1.202 2.927.138 3.992-1.064 1.064-2.852 1.002-3.992-.138a3.042 3.042 0 0 1-.862-1.673z"/></g></svg>