<svg xmlns="http://www.w3.org/2000/svg" width="24" height="18" viewBox="0 0 24 18"><g fill="none" fill-rule="evenodd"><path fill="#DC092D" d="M1 0h22a1 1 0 0 1 1 1v16a1 1 0 0 1-1 1H1a1 1 0 0 1-1-1V1a1 1 0 0 1 1-1z"/><path fill="#000" fill-rule="nonzero" d="M1 1v16h22V1H1zm0-1h22a1 1 0 0 1 1 1v16a1 1 0 0 1-1 1H1a1 1 0 0 1-1-1V1a1 1 0 0 1 1-1z" opacity=".2"/><path fill="#FFF" d="M5.873 0L24 13.17V17a1 1 0 0 1-1 1h-4.262L0 4.386V1a1 1 0 0 1 1-1h4.873z"/><path fill="#000" d="M2.47 0L24 15.642V17a1 1 0 0 1-1 1h-.86L0 1.914V1a1 1 0 0 1 1-1h1.47z"/></g></svg>