<svg width="24" height="18" viewBox="0 0 24 18" xmlns="http://www.w3.org/2000/svg"><g fill="none" fill-rule="evenodd"><path d="M1 0h22a1 1 0 0 1 1 1v16a1 1 0 0 1-1 1H1a1 1 0 0 1-1-1V1a1 1 0 0 1 1-1z" fill="#ED2939"/><path d="M0 2h24v2H0V2zm0 4h24v2H0V6zm0 4h24v2H0v-2zm0 4h24v2H0v-2z" fill="#F7F7F7"/><path d="M1 0h14v10H0V1a1 1 0 0 1 1-1z" fill="#0066B3"/><path d="M3 4a1 1 0 1 1 0-2 1 1 0 0 1 0 2zm3 2a1 1 0 1 1 0-2 1 1 0 0 1 0 2zm6 0a1 1 0 1 1 0-2 1 1 0 0 1 0 2zM9 4a1 1 0 1 1 0-2 1 1 0 0 1 0 2zm0 4a1 1 0 1 1 0-2 1 1 0 0 1 0 2zM3 8a1 1 0 1 1 0-2 1 1 0 0 1 0 2z" fill="#F7F7F7"/><path d="M1 1v16h22V1H1zm0-1h22a1 1 0 0 1 1 1v16a1 1 0 0 1-1 1H1a1 1 0 0 1-1-1V1a1 1 0 0 1 1-1z" fill="#000" fill-rule="nonzero" opacity=".2"/></g></svg>