<svg xmlns="http://www.w3.org/2000/svg" width="24" height="18" viewBox="0 0 24 18"><g fill="none" fill-rule="evenodd"><path fill="#F7F7F7" d="M1 0h22a1 1 0 0 1 1 1v16a1 1 0 0 1-1 1H1a1 1 0 0 1-1-1V1a1 1 0 0 1 1-1z"/><path fill="#0035AA" d="M10 6h14v2H10V6zm0-4h14v2H10V2zM0 10h24v2H0v-2zm0 4h24v2H0v-2z"/><path fill="#000" fill-rule="nonzero" d="M1 1v16h22V1H1zm0-1h22a1 1 0 0 1 1 1v16a1 1 0 0 1-1 1H1a1 1 0 0 1-1-1V1a1 1 0 0 1 1-1z" opacity=".2"/><g transform="translate(2 2)"><circle cx="3.5" cy="3.5" r="2.8" fill="#FFCD02"/><path fill="#A87F12" fill-rule="nonzero" d="M3.5 7a3.5 3.5 0 1 1 0-7 3.5 3.5 0 0 1 0 7zm0-1.4a2.1 2.1 0 1 0 0-4.2 2.1 2.1 0 0 0 0 4.2z"/></g></g></svg>