<svg xmlns="http://www.w3.org/2000/svg" width="24" height="18" viewBox="0 0 24 18"><g fill="none" fill-rule="evenodd"><path fill="#F7F7F7" d="M1 0h22a1 1 0 0 1 1 1v16a1 1 0 0 1-1 1H1a1 1 0 0 1-1-1V1a1 1 0 0 1 1-1z"/><path fill="#17B737" d="M0 12h24v5a1 1 0 0 1-1 1H1a1 1 0 0 1-1-1v-5z"/><path fill="#AF213A" d="M0 12h24v1H0z"/><path fill="#009BB7" d="M1 0h22a1 1 0 0 1 1 1v5H0V1a1 1 0 0 1 1-1z"/><path fill="#AF213A" d="M0 6h24v1H0z"/><path fill="#000" fill-rule="nonzero" d="M1 1v16h22V1H1zm0-1h22a1 1 0 0 1 1 1v16a1 1 0 0 1-1 1H1a1 1 0 0 1-1-1V1a1 1 0 0 1 1-1z" opacity=".2"/><path fill="#F5FFFD" d="M6.27 1.921a2.386 2.386 0 1 0 0 2.93c-.337.246-.76.391-1.22.391-1.1 0-1.99-.83-1.99-1.856 0-1.025.89-1.856 1.99-1.856.46 0 .883.146 1.22.391z"/><path fill="#F7F7F7" d="M7.5 6a.5.5 0 1 1 0-1 .5.5 0 0 1 0 1zm2-2a.5.5 0 1 1 0-1 .5.5 0 0 1 0 1zm0 2a.5.5 0 1 1 0-1 .5.5 0 0 1 0 1zm2 0a.5.5 0 1 1 0-1 .5.5 0 0 1 0 1zm0-2a.5.5 0 1 1 0-1 .5.5 0 0 1 0 1zm0-2a.5.5 0 1 1 0-1 .5.5 0 0 1 0 1zm2 4a.5.5 0 1 1 0-1 .5.5 0 0 1 0 1zm0-2a.5.5 0 1 1 0-1 .5.5 0 0 1 0 1zm0-2a.5.5 0 1 1 0-1 .5.5 0 0 1 0 1zm2 4a.5.5 0 1 1 0-1 .5.5 0 0 1 0 1zm0-2a.5.5 0 1 1 0-1 .5.5 0 0 1 0 1zm0-2a.5.5 0 1 1 0-1 .5.5 0 0 1 0 1z"/></g></svg>