<svg xmlns="http://www.w3.org/2000/svg" width="24" height="18" viewBox="0 0 24 18"><g fill="none" fill-rule="evenodd"><path fill="#FCD30F" d="M1 0h22a1 1 0 0 1 1 1v16a1 1 0 0 1-1 1H1a1 1 0 0 1-1-1V1a1 1 0 0 1 1-1z"/><path fill="#CF0820" d="M0 12h24v5a1 1 0 0 1-1 1H1a1 1 0 0 1-1-1v-5z"/><path fill="#003594" d="M0 6h24v6H0z"/><path fill="#F7F7F7" d="M6 13a1 1 0 1 1 0-2 1 1 0 0 1 0 2zm1-3a1 1 0 1 1 0-2 1 1 0 0 1 0 2zm3-2a1 1 0 1 1 0-2 1 1 0 0 1 0 2zm4 0a1 1 0 1 1 0-2 1 1 0 0 1 0 2zm3 2a1 1 0 1 1 0-2 1 1 0 0 1 0 2zm1 3a1 1 0 1 1 0-2 1 1 0 0 1 0 2z"/><path fill="#000" fill-rule="nonzero" d="M1 1v16h22V1H1zm0-1h22a1 1 0 0 1 1 1v16a1 1 0 0 1-1 1H1a1 1 0 0 1-1-1V1a1 1 0 0 1 1-1z" opacity=".2"/></g></svg>