<svg width="24" height="18" viewBox="0 0 24 18" xmlns="http://www.w3.org/2000/svg"><g fill="none" fill-rule="evenodd"><path d="M1 0h22a1 1 0 0 1 1 1v16a1 1 0 0 1-1 1H1a1 1 0 0 1-1-1V1a1 1 0 0 1 1-1z" fill="#F7F7F7"/><path d="M1 0h22a1 1 0 0 1 1 1v4.25H0V1a1 1 0 0 1 1-1z" fill="#CE1126"/><path d="M0 12.75h24V17a1 1 0 0 1-1 1H1a1 1 0 0 1-1-1v-4.25z" fill="#002395"/><path d="M3.258 0l6.428 5H24v8H9.686l-6.428 5H1a1 1 0 0 1-1-1V1a1 1 0 0 1 1-1h2.258z" fill="#F7F7F7"/><path d="M.33 17.743A.997.997 0 0 1 0 17V1A1 1 0 0 1 .33.257L9 7h15v4H9L.33 17.743z" fill="#007A4D"/><path fill="#FFB612" d="M6 9l-6 5V4z"/><path fill="#000" d="M4 9l-4 3V6z"/><path d="M1 1v16h22V1H1zm0-1h22a1 1 0 0 1 1 1v16a1 1 0 0 1-1 1H1a1 1 0 0 1-1-1V1a1 1 0 0 1 1-1z" fill="#000" fill-rule="nonzero" opacity=".2"/></g></svg>