<svg xmlns="http://www.w3.org/2000/svg" width="16" height="16" viewBox="0 0 16 16"><path fill="#151922" d="M15 9h-2.101a4.961 4.961 0 0 1-.732 1.753l1.489 1.489-1.414 1.414-1.489-1.489A4.961 4.961 0 0 1 9 12.899V15H7v-2.101a4.961 4.961 0 0 1-1.753-.732l-1.489 1.489-1.414-1.414 1.489-1.489A4.961 4.961 0 0 1 3.101 9H1V7h2.101c.13-.637.384-1.229.732-1.753L2.344 3.758l1.414-1.414 1.489 1.489A4.961 4.961 0 0 1 7 3.101V1h2v2.101c.637.13 1.229.384 1.753.732l1.489-1.489 1.414 1.414-1.489 1.489c.348.524.602 1.116.732 1.753H15v2zm-7 1a2 2 0 1 0 0-4 2 2 0 0 0 0 4z"/></svg>