<svg width="21" height="21" viewBox="0 0 21 21" fill="none" xmlns="http://www.w3.org/2000/svg">
<g clip-path="url(#clip0_707_6265)">
<path d="M9.74257 6.69166C9.84063 6.79364 9.95826 6.87477 10.0884 6.93019C10.2186 6.98561 10.3586 7.01417 10.5001 7.01417C10.6415 7.01417 10.7816 6.98561 10.9117 6.93019C11.0419 6.87477 11.1595 6.79364 11.2576 6.69166L13.8742 3.96082C14.2065 3.6287 14.4255 3.20031 14.5004 2.73654C14.5752 2.27277 14.5019 1.79722 14.2909 1.37749C14.1323 1.06054 13.9006 0.785787 13.6151 0.575819C13.3295 0.36585 12.9982 0.226668 12.6484 0.169718C12.2985 0.112769 11.9402 0.139679 11.6028 0.248236C11.2654 0.356794 10.9586 0.543896 10.7076 0.794156C10.6523 0.849318 10.5774 0.880297 10.4992 0.880297C10.4211 0.880297 10.3462 0.849318 10.2909 0.794156C10.0399 0.543896 9.7331 0.356794 9.3957 0.248236C9.0583 0.139679 8.69994 0.112769 8.35011 0.169718C8.00028 0.226668 7.66896 0.36585 7.38341 0.575819C7.09786 0.785787 6.86623 1.06054 6.70757 1.37749C6.49754 1.7963 6.42475 2.27063 6.49955 2.73315C6.57434 3.19567 6.79291 3.62289 7.12424 3.95416L9.74257 6.69166Z" fill="white"/>
<path d="M3.8333 9.30405C4.23611 9.30405 4.62988 9.1846 4.96481 8.96081C5.29974 8.73702 5.56078 8.41893 5.71493 8.04678C5.86908 7.67463 5.90942 7.26512 5.83083 6.87005C5.75225 6.47497 5.55827 6.11207 5.27344 5.82724C4.98861 5.54241 4.62571 5.34843 4.23063 5.26985C3.83556 5.19126 3.42605 5.2316 3.0539 5.38575C2.68175 5.5399 2.36366 5.80094 2.13987 6.13587C1.91608 6.4708 1.79663 6.86457 1.79663 7.26738C1.79663 7.53484 1.84931 7.79968 1.95166 8.04678C2.05401 8.29388 2.20403 8.5184 2.39316 8.70752C2.58228 8.89664 2.8068 9.04666 3.0539 9.14902C3.301 9.25137 3.56584 9.30405 3.8333 9.30405V9.30405Z" fill="white"/>
<path d="M3.83333 9.7207C2.94928 9.7207 2.10143 10.0719 1.47631 10.697C0.85119 11.3221 0.5 12.17 0.5 13.054L0.5 14.8607C0.5 14.9712 0.543899 15.0772 0.622039 15.1553C0.700179 15.2335 0.80616 15.2774 0.916667 15.2774H1.62083C1.72449 15.2769 1.82461 15.315 1.90166 15.3843C1.9787 15.4537 2.02714 15.5492 2.0375 15.6524L2.44917 19.7632C2.45953 19.8663 2.50796 19.9619 2.58501 20.0312C2.66206 20.1006 2.76218 20.1387 2.86583 20.1382H4.80583C4.90949 20.1387 5.00961 20.1006 5.08666 20.0312C5.1637 19.9619 5.21214 19.8663 5.2225 19.7632L5.63417 15.6524C5.64453 15.5492 5.69296 15.4537 5.77001 15.3843C5.84706 15.315 5.94718 15.2769 6.05083 15.2774H6.75C6.86051 15.2774 6.96649 15.2335 7.04463 15.1553C7.12277 15.0772 7.16667 14.9712 7.16667 14.8607V13.054C7.16667 12.17 6.81548 11.3221 6.19036 10.697C5.56524 10.0719 4.71739 9.7207 3.83333 9.7207V9.7207Z" fill="white"/>
<path d="M17.1668 9.30405C17.5696 9.30405 17.9634 9.1846 18.2983 8.96081C18.6332 8.73702 18.8943 8.41893 19.0484 8.04678C19.2026 7.67463 19.2429 7.26512 19.1643 6.87005C19.0857 6.47497 18.8918 6.11207 18.6069 5.82724C18.3221 5.54241 17.9592 5.34843 17.5641 5.26985C17.1691 5.19126 16.7595 5.2316 16.3874 5.38575C16.0152 5.5399 15.6972 5.80094 15.4734 6.13587C15.2496 6.4708 15.1301 6.86457 15.1301 7.26738C15.1301 7.80754 15.3447 8.32557 15.7267 8.70752C16.1086 9.08947 16.6266 9.30405 17.1668 9.30405Z" fill="white"/>
<path d="M17.1666 9.7207C16.2825 9.7207 15.4347 10.0719 14.8096 10.697C14.1844 11.3221 13.8333 12.17 13.8333 13.054V14.8607C13.8333 14.9712 13.8772 15.0772 13.9553 15.1553C14.0334 15.2335 14.1394 15.2774 14.2499 15.2774H14.9541C15.0577 15.2769 15.1579 15.315 15.2349 15.3843C15.312 15.4537 15.3604 15.5492 15.3708 15.6524L15.7824 19.7632C15.7928 19.8663 15.8412 19.9619 15.9183 20.0312C15.9953 20.1006 16.0954 20.1387 16.1991 20.1382H18.1441C18.2477 20.1387 18.3479 20.1006 18.4249 20.0312C18.502 19.9619 18.5504 19.8663 18.5608 19.7632L18.9724 15.6524C18.9828 15.5492 19.0312 15.4537 19.1083 15.3843C19.1853 15.315 19.2854 15.2769 19.3891 15.2774H20.0833C20.1938 15.2774 20.2997 15.2335 20.3779 15.1553C20.456 15.0772 20.4999 14.9712 20.4999 14.8607V13.054C20.4999 12.17 20.1487 11.3221 19.5236 10.697C18.8985 10.0719 18.0506 9.7207 17.1666 9.7207V9.7207Z" fill="white"/>
<path d="M8.74341 9.6982C8.74341 10.0323 8.84248 10.3589 9.02808 10.6367C9.21369 10.9144 9.4775 11.1309 9.78616 11.2588C10.0948 11.3866 10.4344 11.4201 10.7621 11.3549C11.0898 11.2897 11.3908 11.1289 11.627 10.8926C11.8632 10.6564 12.0241 10.3554 12.0893 10.0277C12.1545 9.70007 12.121 9.36044 11.9932 9.05178C11.8653 8.74313 11.6488 8.47932 11.371 8.29371C11.0932 8.1081 10.7667 8.00903 10.4326 8.00903C9.98465 8.00925 9.55513 8.18729 9.2384 8.50402C8.92167 8.82076 8.74363 9.25027 8.74341 9.6982V9.6982Z" fill="white"/>
<path d="M10.4325 11.804C9.7916 11.804 9.17691 12.0586 8.72369 12.5118C8.27048 12.965 8.01587 13.5797 8.01587 14.2207V15.6865C8.01587 15.797 8.05977 15.903 8.13791 15.9811C8.21605 16.0593 8.32203 16.1032 8.43254 16.1032H8.8492C8.95286 16.1027 9.05298 16.1408 9.13003 16.2101C9.20707 16.2795 9.2555 16.375 9.26587 16.4782L9.5942 19.7598C9.60457 19.863 9.653 19.9585 9.73005 20.0279C9.80709 20.0972 9.90722 20.1354 10.0109 20.1348H10.87C10.9737 20.1354 11.0738 20.0972 11.1509 20.0279C11.2279 19.9585 11.2763 19.863 11.2867 19.7598L11.615 16.4782C11.6254 16.375 11.6738 16.2795 11.7509 16.2101C11.8279 16.1408 11.928 16.1027 12.0317 16.1032H12.4484C12.5589 16.1032 12.6649 16.0593 12.743 15.9811C12.8211 15.903 12.865 15.797 12.865 15.6865V14.2207C12.865 13.902 12.802 13.5864 12.6796 13.2922C12.5571 12.9979 12.3777 12.7308 12.1516 12.5062C11.9255 12.2816 11.6573 12.1039 11.3622 11.9834C11.0672 11.8629 10.7512 11.8019 10.4325 11.804V11.804Z" fill="white"/>
</g>
<defs>
<clipPath id="clip0_707_6265">
<rect width="20" height="20" fill="white" transform="translate(0.5 0.137451)"/>
</clipPath>
</defs>
</svg>
