<svg width="16" height="12" viewBox="0 0 16 12" xmlns="http://www.w3.org/2000/svg" xmlns:xlink="http://www.w3.org/1999/xlink"><defs><path d="M1 0h14a1 1 0 0 1 1 1v10a1 1 0 0 1-1 1H1a1 1 0 0 1-1-1V1a1 1 0 0 1 1-1z" id="a"/></defs><g fill="none" fill-rule="evenodd"><mask id="b" fill="#fff"><use xlink:href="#a"/></mask><use fill="#D32011" fill-rule="nonzero" xlink:href="#a"/><path d="M1 0h14a1 1 0 0 1 1 1v10a1 1 0 0 1-1 1H1a1 1 0 0 1-1-1V1a1 1 0 0 1 1-1z" fill="#D32011" fill-rule="nonzero" mask="url(#b)"/><path d="M8 4.999c.552 0 1 .052 1-.5a1 1 0 0 0-2 0c0 .552.448.5 1 .5z" fill="#FFF" mask="url(#b)"/><path d="M8 3.89c.246 0 .445.247.445 0 0-.163-.148-.46-.445-.89-.297.43-.445.727-.445.89 0 .247.199 0 .445 0z" fill="#FFF" mask="url(#b)"/><path fill="#000" fill-rule="nonzero" mask="url(#b)" d="M0 0h5v12H0z"/><path fill="#007A36" fill-rule="nonzero" mask="url(#b)" d="M11 0h5v12h-5z"/><path fill="#FFF" mask="url(#b)" d="M6.5 7h3l.5.5H6zm0-2h3l.5-.5H6zm1 1H8v1h-.5zm.5.5h.5V7H8z"/><path d="M6.5 4.5h3V7h-3V4.5zM8 5a1 1 0 0 0-1 1v1h2V6a1 1 0 0 0-1-1zm1-1.5l.5.5v.5H9zM6.5 4l.5-.5v1h-.5z" fill="#FFF" mask="url(#b)"/><path d="M6.022 2.023A3.982 3.982 0 0 1 8 1.5c.72 0 1.395.19 1.978.523l-.416.415A2.986 2.986 0 0 0 8 2c-.572 0-1.107.16-1.562.438l-.416-.415zM5 5.5a3 3 0 0 0 2.205 2.893.998.998 0 0 1 1.59 0 3.001 3.001 0 0 0 1.061-5.25l.428-.427a4 4 0 1 1-4.567 0l.427.427A2.995 2.995 0 0 0 5 5.5zM8 9c.276 0 .5.017.5-.167S8.276 8.5 8 8.5s-.5.15-.5.333c0 .184.224.167.5.167z" fill="#FFF" mask="url(#b)"/><path fill="#FFF" mask="url(#b)" d="M11.5 10h-2V9h.833zm-7 0h2V9h-.833zm1.997-3.995L5.988 5 5.5 6.5zm3.003 0L10.009 5l.488 1.5z"/><path d="M1 1v10h14V1H1zm0-1h14a1 1 0 0 1 1 1v10a1 1 0 0 1-1 1H1a1 1 0 0 1-1-1V1a1 1 0 0 1 1-1z" fill="#000" fill-rule="nonzero" opacity=".2" mask="url(#b)"/></g></svg>