<svg width="16" height="12" viewBox="0 0 16 12" xmlns="http://www.w3.org/2000/svg"><g fill="none" fill-rule="evenodd"><path d="M1 0h14a1 1 0 0 1 1 1v10a1 1 0 0 1-1 1H1a1 1 0 0 1-1-1V1a1 1 0 0 1 1-1z" fill="#E41E20"/><path fill="#262626" d="M5.618 6.559L5 4.5h1.5l.9.6L6 3l2 .5v.75-.75l2-.5-1.4 2.1.9-.6H11l-.618 2.059L8.5 7.5l1.188.594L8 9.5 6.312 8.094 7.5 7.5z"/><path d="M1 1v10h14V1H1zm0-1h14a1 1 0 0 1 1 1v10a1 1 0 0 1-1 1H1a1 1 0 0 1-1-1V1a1 1 0 0 1 1-1z" fill="#000" fill-rule="nonzero" opacity=".2"/></g></svg>