<svg width="16" height="12" viewBox="0 0 16 12" xmlns="http://www.w3.org/2000/svg" xmlns:xlink="http://www.w3.org/1999/xlink"><defs><circle id="a" cx="8" cy="6" r="2"/></defs><g fill="none" fill-rule="evenodd"><path d="M1 0h14a1 1 0 0 1 1 1v10a1 1 0 0 1-1 1H1a1 1 0 0 1-1-1V1a1 1 0 0 1 1-1z" fill="#F7F7F7"/><path d="M0 8h16v3a1 1 0 0 1-1 1H1a1 1 0 0 1-1-1V8z" fill="#75ADE0"/><use fill="#F6B506" xlink:href="#a"/><circle stroke="#A85904" stroke-width="2" cx="8" cy="6" r="1"/><path d="M1 0h14a1 1 0 0 1 1 1v3H0V1a1 1 0 0 1 1-1z" fill="#75ADE0"/><path d="M1 1v10h14V1H1zm0-1h14a1 1 0 0 1 1 1v10a1 1 0 0 1-1 1H1a1 1 0 0 1-1-1V1a1 1 0 0 1 1-1z" fill="#000" fill-rule="nonzero" opacity=".2"/></g></svg>