<svg width="16" height="12" viewBox="0 0 16 12" xmlns="http://www.w3.org/2000/svg"><g fill="none" fill-rule="evenodd"><path d="M1 0h14a1 1 0 0 1 1 1v10a1 1 0 0 1-1 1H1a1 1 0 0 1-1-1V1a1 1 0 0 1 1-1z" fill="#273C83"/><path fill="#F7F7F7" d="M5 2h3v3H5v1H2V5H0V2h2V0h3z"/><path fill="#DC1E35" d="M4 3h4v1H4v2H3V4H0V3h3V0h1z"/><path d="M11.75 3.5a.75.75 0 1 1 0-1.5.75.75 0 0 1 0 1.5zM10 6a1 1 0 1 1 0-2 1 1 0 0 1 0 2zm2 3a1 1 0 1 1 0-2 1 1 0 0 1 0 2zm1.5-4a.5.5 0 1 1 0-1 .5.5 0 0 1 0 1zM4 10a1 1 0 1 1 0-2 1 1 0 0 1 0 2z" fill="#F7F7F7"/><path d="M1 1v10h14V1H1zm0-1h14a1 1 0 0 1 1 1v10a1 1 0 0 1-1 1H1a1 1 0 0 1-1-1V1a1 1 0 0 1 1-1z" fill="#000" fill-rule="nonzero" opacity=".2"/></g></svg>