<svg xmlns="http://www.w3.org/2000/svg" width="16" height="12" viewBox="0 0 16 12"><g fill="none" fill-rule="evenodd"><path fill="#002397" d="M1 0h14a1 1 0 0 1 1 1v10a1 1 0 0 1-1 1H1a1 1 0 0 1-1-1V1a1 1 0 0 1 1-1z"/><path fill="#FFCA00" d="M6 0h7v12h-1z"/><path fill="#FFF" d="M8.5 10a.5.5 0 1 1 0-1 .5.5 0 0 1 0 1zm1 2a.5.5 0 1 1 0-1 .5.5 0 0 1 0 1zm-2-4a.5.5 0 1 1 0-1 .5.5 0 0 1 0 1zm-1-2a.5.5 0 1 1 0-1 .5.5 0 0 1 0 1zm-1-2a.5.5 0 1 1 0-1 .5.5 0 0 1 0 1zm-1-2a.5.5 0 1 1 0-1 .5.5 0 0 1 0 1z"/><path fill="#000" fill-rule="nonzero" d="M1 1v10h14V1H1zm0-1h14a1 1 0 0 1 1 1v10a1 1 0 0 1-1 1H1a1 1 0 0 1-1-1V1a1 1 0 0 1 1-1z" opacity=".2"/></g></svg>