<svg xmlns="http://www.w3.org/2000/svg" width="16" height="12" viewBox="0 0 16 12"><g fill="none" fill-rule="evenodd"><path fill="#F7F7F7" d="M1 0h14a1 1 0 0 1 1 1v10a1 1 0 0 1-1 1H1a1 1 0 0 1-1-1V1a1 1 0 0 1 1-1z"/><path fill="#CE1126" d="M4 0h11a1 1 0 0 1 1 1v10a1 1 0 0 1-1 1H4V0z"/><path fill="#F7F7F7" d="M7 1.5L4 3V0z"/><path fill="#F7F7F7" d="M7 3.75l-3 1.5v-3z"/><path fill="#F7F7F7" d="M7 6L4 7.5v-3z"/><path fill="#F7F7F7" d="M7 8.25l-3 1.5v-3z"/><path fill="#F7F7F7" d="M7 10.5L4 12V9z"/><path fill="#000" fill-rule="nonzero" d="M1 1v10h14V1H1zm0-1h14a1 1 0 0 1 1 1v10a1 1 0 0 1-1 1H1a1 1 0 0 1-1-1V1a1 1 0 0 1 1-1z" opacity=".2"/></g></svg>