<svg xmlns="http://www.w3.org/2000/svg" width="16" height="12" viewBox="0 0 16 12"><g fill="none" fill-rule="evenodd"><path fill="#F7E017" d="M1 0h14a1 1 0 0 1 1 1v10a1 1 0 0 1-1 1H1a1 1 0 0 1-1-1V1a1 1 0 0 1 1-1z"/><path fill="#000" fill-rule="nonzero" d="M16 7.444v2.101L0 5.101V3z"/><path fill="#FFF" fill-rule="nonzero" d="M16 5.444v2.101L0 3.101V1z"/><path fill="#000" fill-rule="nonzero" d="M1 1v10h14V1H1zm0-1h14a1 1 0 0 1 1 1v10a1 1 0 0 1-1 1H1a1 1 0 0 1-1-1V1a1 1 0 0 1 1-1z" opacity=".2"/><path fill="#CF1126" fill-rule="nonzero" d="M8.082 2.096v.007l.44.226-.28.091.204.274-.363-.177v.388h-.106v-.813c-.03-.009-.048-.024-.048-.042 0-.027.046-.05.107-.05.062 0 .107.023.107.05 0 .02-.024.038-.061.046zm-.133 1.686v-.374l.077.058.085-.068v.384a.077.077 0 0 0 .01-.018.36.36 0 0 1 .153-.136c.15-.076.412-.078.621-.005.089.03.186.086.28.158.093.072.285.168.398.2a1.07 1.07 0 0 0 .508 0c.038 0-.027.127-.103.201-.14.137-.32.136-.576-.002-.159-.085-.349-.132-.349-.085 0 .01.01.016.025.016.055 0 .162.037.31.108.162.076.252.108.306.108.039 0 .04.025.004.078-.039.057-.104.085-.196.085-.088 0-.137-.02-.216-.085-.132-.11-.46-.232-.448-.167.003.013.019.021.053.026a.912.912 0 0 1 .385.184c.042.032.086.063.098.07.018.011.019.014.004.042-.025.046-.087.082-.154.089a.309.309 0 0 1-.241-.083c-.166-.138-.322-.239-.372-.239-.04 0-.023.023.05.061.094.05.191.118.263.184a.68.68 0 0 0 .084.069c.03.016.03.04-.004.083-.033.043-.089.063-.161.055-.144-.015-.256-.084-.433-.268a1.177 1.177 0 0 0-.136-.13c-.024 0-.01.032.035.083.057.063.068.099.046.15-.019.045-.05.056-.114.038-.066-.017-.076-.001-.033.052a.169.169 0 0 1-.024.246.19.19 0 0 1-.057.038c-.007 0-.024-.018-.039-.04-.05-.077-.095-.076-.144.002a.893.893 0 0 1-.032.049l-.052-.037c-.056-.041-.074-.08-.074-.158a.14.14 0 0 1 .033-.097c.039-.053.032-.07-.023-.055-.087.026-.13.003-.132-.072-.001-.037.006-.052.055-.111.04-.047.054-.072.046-.08-.008-.008-.054.033-.15.13a2.066 2.066 0 0 1-.19.176c-.164.11-.32.127-.392.042-.036-.043-.034-.068.008-.094a.456.456 0 0 0 .073-.061 1.46 1.46 0 0 1 .268-.194c.06-.03.073-.05.035-.05-.05 0-.209.104-.33.215a.535.535 0 0 1-.113.08.423.423 0 0 1-.231.02c-.037-.012-.105-.076-.105-.099 0-.006.015-.02.034-.03a.501.501 0 0 0 .075-.053c.097-.085.28-.173.425-.203.046-.01.029-.033-.022-.03-.1.004-.298.096-.416.194-.14.114-.348.103-.415-.021-.012-.022-.019-.042-.016-.045a1.545 1.545 0 0 0 .34-.13.858.858 0 0 1 .301-.11c.047-.007.05-.03.004-.035-.059-.007-.149.023-.308.1-.204.101-.262.119-.37.112a.323.323 0 0 1-.233-.106c-.052-.05-.126-.175-.112-.19a1.084 1.084 0 0 0 .264.022.727.727 0 0 0 .248-.024c.124-.036.288-.12.4-.203.215-.16.39-.225.613-.226.206-.001.337.046.453.164a.594.594 0 0 0 .046.042zm-.353 5.224c-.323-.043-.618-.145-.824-.286a.461.461 0 0 0-.083-.05c-.006 0-.01.03-.01.068 0 .106-.043.16-.15.188-.103.026-.26-.028-.386-.133a1.138 1.138 0 0 0-.412-.226.665.665 0 0 0-.467.06.145.145 0 0 1-.046.022c-.018 0-.015-.114.003-.15a.294.294 0 0 1 .158-.122c.036-.013.065-.03.065-.037a.227.227 0 0 0-.027-.061c-.048-.085-.028-.167.056-.231.086-.066.232-.077.361-.028a.534.534 0 0 0 .068.022c.017 0 .006-.024-.04-.092a.27.27 0 0 1-.059-.211.245.245 0 0 1 .225-.225c.097-.007.157.025.3.162.427.407.892.631 1.434.692.136.016.412.007.573-.017a2.598 2.598 0 0 0 1.362-.68c.106-.1.158-.126.245-.127.075 0 .129.024.183.084.05.055.066.108.06.191a.24.24 0 0 1-.043.132c-.047.076-.04.083.054.047.125-.049.28-.026.364.053.073.07.08.14.023.234a.415.415 0 0 0-.038.072c0 .01.016.014.092.027.1.016.157.09.157.203 0 .034-.004.062-.01.062a.679.679 0 0 1-.083-.031.687.687 0 0 0-.318-.06.564.564 0 0 0-.212.03.958.958 0 0 0-.324.191c-.106.095-.173.124-.277.124-.095-.001-.161-.03-.196-.084-.018-.03-.02-.047-.016-.113a.24.24 0 0 0-.002-.079.705.705 0 0 0-.083.053c-.11.076-.18.113-.307.164a3.024 3.024 0 0 1-1.37.162zm.176-.742a2.272 2.272 0 0 1-1.63-.927c-.407-.554-.535-1.284-.41-1.953.065-.304.198-.608.425-.825-.18.383-.242.822-.146 1.237.15.829.85 1.53 1.688 1.652.332.096.675-.006.991-.108.699-.247 1.23-.91 1.296-1.65a2.037 2.037 0 0 0-.187-1.182c.103.055.233.268.31.412.266.516.278 1.135.121 1.686-.212.701-.749 1.315-1.457 1.539a2.758 2.758 0 0 1-1 .12v-.001zm-3.236-.92c.03.003.054.02.081.032a.905.905 0 0 0 .24.069.961.961 0 0 0 .338-.034c.05-.013.099-.036.15-.047.037-.007.073.029.053.065-.02.056-.085.072-.135.09a.826.826 0 0 1-.282.049h-.03a.904.904 0 0 1-.358-.06c-.047-.021-.1-.042-.13-.086-.016-.044.03-.085.073-.079zm.047-.173c.028.004.05.022.075.034a.703.703 0 0 0 .207.068.737.737 0 0 0 .344-.054c.03-.01.057-.03.09-.028.034.002.046.043.03.07-.018.052-.075.069-.121.087a.626.626 0 0 1-.239.047h-.026a.706.706 0 0 1-.283-.048.307.307 0 0 1-.139-.095c-.017-.039.02-.088.062-.081zm.057-.166c.028.005.048.027.072.04.067.035.14.067.218.065.09 0 .178-.023.258-.063.024-.01.05-.032.076-.017.025.012.02.044.014.066-.014.047-.063.068-.104.086a.466.466 0 0 1-.2.047h-.026a.5.5 0 0 1-.31-.089c-.022-.017-.048-.037-.053-.066-.006-.032.019-.074.055-.07zm-.612-2.446l.015.003c.108.08.13.234.107.358a.715.715 0 0 1 .182.366c.026.098.148.12.222.175a.409.409 0 0 1 .178.166c.065-.037-.01-.154-.016-.218-.023-.117-.116-.2-.152-.31-.061-.128.11-.101.153-.028a2.5 2.5 0 0 0 .236.268c.103.087.24.157.285.292.006.441.01.883.017 1.324-.017.079-.163.09-.242.11-.133.021-.258-.037-.374-.095a16.24 16.24 0 0 0 0-.768c-.01-.094.006-.197-.04-.283-.129-.178-.342-.286-.442-.487a2.668 2.668 0 0 1-.145-.648c.003-.071-.038-.171.016-.225zm.165.024c.03.002.05.03.062.055.044.093.046.2.043.301.057.038.092.1.126.158.03.06.063.124.068.192a.342.342 0 0 1 .169.108c.033.032.039.079.05.121.011.033 0 .016-.016 0-.072-.065-.163-.103-.244-.154-.035-.025-.088-.042-.089-.093a.734.734 0 0 0-.176-.36.453.453 0 0 0-.018-.224c-.022-.033-.024-.096.025-.104zm.138.04c.02.002.036.017.05.03.053.06.078.142.076.221a.244.244 0 0 0 .066.2.48.48 0 0 0 .061.144c.024.044.06.081.075.13a.4.4 0 0 0-.136-.085.56.56 0 0 0-.052-.148.558.558 0 0 0-.139-.193.908.908 0 0 0-.018-.22c-.01-.025-.017-.068.017-.078zm.157.023c.006 0 .012.002.017.006a.17.17 0 0 1 .046.073c.028.076.04.156.047.236.005.014-.009.01-.018.011a.064.064 0 0 0-.057.047.217.217 0 0 1-.034-.117.363.363 0 0 0-.024-.174c-.003-.016-.02-.031-.017-.046.01-.015.022-.032.04-.036zm6.976 2.697c.042-.006.089.035.073.079-.03.044-.083.065-.13.086a.904.904 0 0 1-.358.06h-.03a.826.826 0 0 1-.282-.05c-.05-.017-.114-.033-.135-.089-.02-.036.016-.072.053-.065.051.011.1.034.15.047.11.031.225.043.338.034a.905.905 0 0 0 .24-.069c.027-.012.052-.029.081-.033zm-.047-.172c.043-.007.08.042.062.081a.307.307 0 0 1-.14.095.706.706 0 0 1-.282.048h-.026a.626.626 0 0 1-.239-.047c-.046-.018-.103-.035-.122-.086-.015-.028-.003-.069.032-.071.032-.002.06.019.09.028a.737.737 0 0 0 .343.054.703.703 0 0 0 .207-.068c.025-.012.047-.03.075-.034zm-.057-.166c.036-.005.061.037.055.07-.005.028-.031.048-.053.065a.5.5 0 0 1-.31.09h-.026a.466.466 0 0 1-.2-.048c-.041-.018-.09-.039-.104-.086-.006-.022-.01-.054.014-.066.026-.015.052.008.076.017.08.04.168.063.258.063.078.002.15-.03.218-.066.024-.012.044-.034.072-.04zm.612-2.446c.054.054.013.154.016.225-.028.22-.063.441-.145.648-.1.201-.313.309-.442.487-.046.086-.03.19-.04.283a16.24 16.24 0 0 0 0 .768c-.116.058-.241.116-.374.094-.08-.019-.225-.03-.242-.109.007-.441.01-.883.017-1.324.044-.135.182-.205.285-.292a2.59 2.59 0 0 0 .236-.268c.044-.073.214-.1.153.028-.036.11-.129.193-.152.31-.005.064-.081.181-.016.218a.409.409 0 0 1 .178-.166c.074-.055.196-.077.222-.175a.715.715 0 0 1 .182-.366c-.024-.124 0-.279.107-.358l.015-.003zm-.165.024c.05.008.047.071.025.104a.453.453 0 0 0-.018.224.734.734 0 0 0-.176.36c0 .05-.054.068-.089.093-.08.051-.172.089-.244.153-.016.017-.027.034-.016.001.011-.042.017-.09.05-.121a.342.342 0 0 1 .169-.108c.005-.068.038-.131.068-.192.034-.058.069-.12.126-.158a.673.673 0 0 1 .043-.301c.013-.024.032-.053.062-.055zm-.138.04c.034.011.028.054.017.08a.908.908 0 0 0-.018.22.558.558 0 0 0-.139.192.56.56 0 0 0-.052.148.4.4 0 0 0-.136.084c.016-.048.05-.085.075-.129a.516.516 0 0 0 .061-.145.244.244 0 0 0 .066-.199.323.323 0 0 1 .077-.221c.013-.013.029-.028.049-.03zm-.157.023c.018.004.03.021.04.036.004.015-.014.03-.017.046a.363.363 0 0 0-.024.174.217.217 0 0 1-.034.117.064.064 0 0 0-.057-.047c-.01-.002-.023.003-.018-.011a.888.888 0 0 1 .047-.236.17.17 0 0 1 .046-.073.025.025 0 0 1 .017-.006zM7.928 7.445a.593.593 0 0 1-.497-.4c.004-.037.05.02.072.025.04.022.084.04.131.044.06.025.096.084.153.114.026.02.12.06.102-.004-.022-.034-.037-.077-.018-.116A.78.78 0 0 1 8 6.921c.035-.012.06.058.085.082.036.055.078.122.057.19-.02.024-.033.1.021.075.067-.03.122-.08.178-.126.048-.033.11-.036.161-.066.024-.006.073-.053.083-.027a.745.745 0 0 1-.124.204.536.536 0 0 1-.313.181.86.86 0 0 1-.22.01zm.264-.263a.221.221 0 0 0-.028-.132c-.036-.072-.086-.136-.134-.2-.046-.026-.072.062-.102.087-.048.071-.108.144-.11.234-.027.041-.077-.034-.099-.06a.314.314 0 0 1-.067-.199.846.846 0 0 1 .06-.343c.033-.093.085-.183.08-.284.003-.077-.012-.161-.074-.213-.059-.046.038-.056.069-.032.053.004.081.09.13.07.019-.046.023-.1.062-.136.039-.053.08.022.093.058.027.031-.002.108.043.11.053-.037.091-.1.16-.114.027-.015.075-.002.038.03a.304.304 0 0 0-.103.177.427.427 0 0 0 .045.258c.075.156.132.333.094.507a.326.326 0 0 1-.133.189c-.008.005-.021.004-.024-.007zm-.08-1.175a.35.35 0 0 0-.094-.117c-.04 0-.065.05-.091.076-.02.035-.042.094-.089.048-.074-.043-.087-.138-.086-.216-.005-.126.046-.244.091-.36a.38.38 0 0 0 .004-.226c-.022-.085-.09-.144-.142-.21.003-.026.07-.012.095-.007.056.014.09.064.131.099.03-.01.018-.07.032-.097 0-.04.054-.092.075-.035.033.036 0 .107.042.13.04-.015.06-.06.097-.079a.133.133 0 0 1 .13-.008c.014.037-.044.067-.061.1a.34.34 0 0 0-.062.301c.023.081.063.157.077.24a.668.668 0 0 1-.008.286c-.014.057-.063.094-.114.118-.012-.012-.019-.029-.027-.043zm-.53-3.088c.207.17.688.142.89-.008-.013.236.09.379.166.547l-.21-.15-.123.136-.141-.166-.137.137-.142-.131-.14.155-.128-.153-.185.172a1.47 1.47 0 0 0 .15-.54zm.367-.112v.118h.162v-.117c.07.001.146.002.213.016a.34.34 0 0 1 .137.054c-.182.199-.859.14-.865-.003a.335.335 0 0 1 .13-.051c.07-.014.149-.015.223-.017z"/></g></svg>