<svg width="16" height="12" viewBox="0 0 16 12" xmlns="http://www.w3.org/2000/svg"><g fill="none" fill-rule="evenodd"><path d="M1 0h14a1 1 0 0 1 1 1v10a1 1 0 0 1-1 1H1a1 1 0 0 1-1-1V1a1 1 0 0 1 1-1z" fill="#009B3A"/><path fill="#FEDF00" d="M1 6l7-5 7 5-7 5z"/><circle fill="#002776" cx="8" cy="6" r="3"/><path d="M6.204 3.597l4.775 2.757a2.98 2.98 0 0 1-.294.985L5.498 4.344c.19-.288.43-.54.706-.747z" fill="#FFF"/><path d="M1 1v10h14V1H1zm0-1h14a1 1 0 0 1 1 1v10a1 1 0 0 1-1 1H1a1 1 0 0 1-1-1V1a1 1 0 0 1 1-1z" fill="#000" fill-rule="nonzero" opacity=".2"/></g></svg>