<svg xmlns="http://www.w3.org/2000/svg" width="16" height="12" viewBox="0 0 16 12"><g fill="none" fill-rule="evenodd"><path fill="#FFD521" d="M1 0h14a1 1 0 0 1 1 1v10a1 1 0 0 1-1 1H1a1 1 0 0 1-1-1V1a1 1 0 0 1 1-1z"/><path fill="#FF4E11" d="M16 1v10a1 1 0 0 1-1 1H1C.448 12 16 .448 16 1z"/><path fill="#FFF" fill-rule="nonzero" d="M11.017 3.026c.1-.018.215.032.29.1.105-.054.178-.056.204 0a.293.293 0 0 1 .146-.035c.116-.168-.04-.245.18-.44.199-.176.038-.293.226-.43.06-.044.193-.133.204-.221.08.199-.248.226-.226.546.013.192-.108.187-.166.472.05-.036.093-.058.122-.102.116-.177.361.03.568-.127-.036.223-.314.143-.436.287a.533.533 0 0 1-.177.151c.089-.008.168.005.244-.04.336-.205.471.04.772-.056-.08.193-.524.028-.717.171-.112.083-.387.164-.53.167.032.039-.023.069-.088.042.116.05.06.108-.019.083.08.04.061.082.013.086.15.203-.067.359-.06.533a.38.38 0 0 0 .137-.012c.213-.06.117-.22.022-.248a.18.18 0 0 1 .251.21c.202-.078.114-.268.012-.254.11-.086.264.044.258.187.313.028.47.185.347.332.022-.293-.431-.232-.666-.166a.987.987 0 0 1-.56-.01c-.002.119.004.26-.11.344.06-.144.024-.287.005-.375a.855.855 0 0 1-.003-.015 1.202 1.202 0 0 0-.153-.074.555.555 0 0 0-.116.078c.07.019.126.074.154.134a.137.137 0 0 1-.017.17c.095.07.072.282-.044.308.038-.083-.05-.119-.083-.184-.042.063-.143.117-.08.203-.101-.035-.121-.129-.092-.214-.073.07-.164.115-.278.054.1-.004.127-.137.21-.176a.207.207 0 0 1-.06-.055.604.604 0 0 0-.413-.268c-.078.045-.176.054-.316.014a.34.34 0 0 0-.352.13.296.296 0 0 0 .07.03c.202.055.188.278.381.33-.206.056-.231-.17-.485-.264a.39.39 0 0 1-.065-.03c-.051.007-.11-.011-.176-.024.062.092.11.18.191.236a.323.323 0 0 0 .094.044c.171.05.353.11.447.21.07.074.313.13.484.142l.004-.001h.001a.518.518 0 0 0 .134-.003c.122-.028.381-.133.486-.06a.99.99 0 0 1 .154-.244.36.36 0 0 0 .008.14.384.384 0 0 1 .373-.467c.2 0 .364.153.38.348.198.013.157.232.23.247.088.105.08.262-.061.279-.047.148-.171.248-.303.228-.086.094-.194.122-.282.1-.06.008-.168-.02-.198-.053a.313.313 0 0 1-.246-.154.141.141 0 0 0-.05 0 .33.33 0 0 0-.115.05v-.002c-.057.033-.125.082-.216.145-.087.06-.213.075-.338.066.001.12.162.277.054.397.003-.077-.077-.201-.168-.24.05.091-.105.158-.036.298-.143-.036-.204-.218-.113-.419-.06.102-.171.146-.245.1.12-.037.14-.16.117-.25a.256.256 0 0 0-.186-.03.224.224 0 0 1-.003.004v-.004a.437.437 0 0 0-.177.081c.005.057.007.115.005.173v.009a1.452 1.452 0 0 1-.027.232 1.168 1.168 0 0 1-.207.477c-.094.124-.066.16-.187.287a.27.27 0 0 0-.085.194l.002.01h-.003c0 .025 0 .052.003.083.077-.028.188.044.21.104.055-.027.132-.016.16.017.093-.044.17-.022.253.066a.233.233 0 0 1 .221.077c.039-.077.116-.104.171-.088-.005-.1.094-.171.182-.132a.163.163 0 0 1 .21-.193c.1-.078.298-.083.397.033-.177-.05-.171.138-.32.121.039.11-.06.174-.16.21.063-.03.132-.067.155-.028.055-.048.165-.03.193-.005.073-.024.143-.006.176.082.1.061.166.216.094.331-.022-.121-.105-.115-.138-.165-.077.027-.154.027-.177-.022a.18.18 0 0 1-.068.037.472.472 0 1 1-.446.54.334.334 0 0 1-.02.123c.143.023.021.15.27.232-.122.039-.359 0-.392-.149-.121-.005-.204-.127-.199-.254-.093-.088-.107-.215.022-.303-.06.018-.105-.026-.16-.058a.04.04 0 0 1-.005-.003l-.002-.002a.165.165 0 0 0-.164-.009.244.244 0 0 1-.138.002c-.006 0-.012 0-.019-.002L9.57 7.58c-.068-.02-.128-.055-.126-.095-.034.055-.235.033-.263-.06-.066.035-.22-.026-.217-.117-.086.039-.202-.03-.196-.118a.104.104 0 0 1-.04-.013c-.02.081-.068.184-.159.187.069-.122-.03-.213.008-.224-.13-.047-.212.24-.372.088.15.013.109-.238.334-.253-.225-.022-.169-.112-.284-.116.031-.049.114-.042.176.007.061.047.115-.076.229-.003V6.86c-.047-.053-.03-.126.006-.195a.363.363 0 0 1-.16-.042c-.028.02-.07.027-.127.016a.211.211 0 0 1-.091-.041.216.216 0 0 1-.075.008c-.166-.007-.257-.044-.304-.092a.205.205 0 0 1-.088.012.44.44 0 0 1-.241-.075.378.378 0 0 1-.26-.085.244.244 0 0 1-.2-.058c-.172.038-.257-.003-.296-.065-.02.03-.056.05-.114.051a.209.209 0 0 1-.131-.036.128.128 0 0 1-.082.083.165.165 0 0 1-.146-.006.175.175 0 0 1-.058.116.094.094 0 0 1-.082.028.12.12 0 0 1-.014.063.12.12 0 0 1-.068.064c.015.023.02.06.014.109a.091.091 0 0 1-.036.066c.019.024.015.07-.007.145-.015.052-.044.11-.03.175l.014.029c.026.054.047.104.065.151a.558.558 0 0 1 .1.03c.017-.023.057-.064.1-.063-.028-.052-.003-.2.071-.245.017-.095.07-.183.196-.19.121-.009.24.024.312.118-.044-.01-.144.033-.21.022-.005.047-.058.11-.105.13.022.033.014.124-.041.154.05-.035.157-.09.196-.074.022-.033.146-.05.193-.025.116-.06.29.036.276.218a.117.117 0 0 0-.075-.039.37.37 0 1 1-.196.71c-.06.035-.267.04-.328-.023-.06-.063-.201-.06-.245-.176a.298.298 0 0 1-.207-.038v.003l-.032.139.001.003h-.002a1.108 1.108 0 0 0-.019.119l.002.003h-.002a.773.773 0 0 0 .016.248.19.19 0 0 1 .154.204c.062.003.106.06.084.171.053-.01.12.006.165.05.038-.072.165-.088.231-.006.144-.01.215.105.21.249a.385.385 0 0 1-.033.413c.008-.058 0-.14-.003-.19-.005-.091-.132-.11-.119-.185-.066.006-.13-.03-.151-.08a.146.146 0 0 1-.14.028c.074.033.131.165.11.254.038.066.03.187-.017.24a.158.158 0 0 1-.049.09v.027a.43.43 0 0 1-.857 0c-.011-.088-.123-.175-.11-.25-.065-.204.028-.394.299-.433-.02-.044.01-.089.03-.135-.056-.037-.039-.095.008-.11-.074.018-.11-.056-.05-.09L5.91 8.55c-.103.028-.131-.096-.081-.118l-.002-.003c-.145.001-.092.207-.191.196.033-.074-.05-.131-.039-.193-.058.076-.22.121-.276.052.138-.01.116-.17.182-.173.144-.006.058-.114-.008-.12-.066-.005-.085-.013-.03-.046.044-.027.145-.02.21.006 0-.001 0-.002.002-.003a.508.508 0 0 0 .03-.143v-.003a.644.644 0 0 0 0-.09c-.057.029-.135.017-.16-.008a.165.165 0 0 1-.122.005c-.167.134-.404.194-.479.368-.081.19-.254.15-.463.43-.138.186-.32.061-.552.249.045-.203.216-.093.4-.354a.4.4 0 0 1-.091.017c-.254.017-.345.323-.563.238.204-.039.204-.27.364-.342-.116-.042-.176.22-.325.22-.15 0-.22.238-.403.221-.182-.017-.201.289-.565.292-.28.003-.624.329-.748.188.27-.039.38-.188.54-.353.26-.265.552-.146.652-.38a.678.678 0 0 1-.392.115c-.17-.003-.356.27-.546.15.11-.015.182-.062.298-.183.118-.124.292-.044.43-.171.215-.199.4-.033.607-.281-.058-.028-.182-.009-.298.052-.116.06-.265-.041-.397.03.016-.162.325-.07.518-.182.218-.127.399-.09.571-.074-.24-.002-.333-.23-.664-.163-.145.029-.26-.199-.403-.083.004-.085.154-.154.309-.071.154.082.217-.073.524.121.127.08.345-.05.483.036-.018-.053-.097-.086-.19-.079.047-.095.3-.104.48-.042a.266.266 0 0 1-.045-.147c.087.033.203-.022.307-.012a.186.186 0 0 1-.083-.137c.092.031.14-.05.209-.093-.095-.017-.184-.056-.207-.11.128.04.179-.112.324-.133-.012-.068.057-.189.147-.232-.028-.028-.043-.076-.035-.138.015-.107.036-.167.084-.2a.376.376 0 0 1-.029-.004c-.09-.016-.335.143-.435-.017.23.066.376-.226.579-.272a.328.328 0 0 1-.022-.191c.018-.09.106-.16.181-.151-.05-.062-.034-.158.004-.175-.006-.045.009-.076.037-.095-.036-.02-.062-.04-.093-.029-.071.025-.149-.056-.237.011.004-.115.146-.05.293-.165.067-.054.18-.064.29.027a.147.147 0 0 1 .035-.14c.053-.059.174-.077.238-.01.002 0 .003 0 .005-.002-.032-.085.02-.19.094-.217.057-.022.148-.021.203.025-.01-.056.007-.115-.038-.144-.072-.047-.134-.1-.11-.182.037.095.151.095.248.113.078.015.15.088.172.165a.116.116 0 0 1 .106-.049c.06.004.103.031.12.071a.116.116 0 0 1 .123-.046c.053.01.091.04.105.077a.116.116 0 0 1 .121-.035.16.16 0 0 1 .084.05c.007-.053.015-.104-.009-.125-.05-.044-.072-.108-.036-.177.003.05.072.1.144.127.071.028.03.171.143.226.041.02.066.07.06.117.03-.031.085-.051.15-.023.098.043.118.122.088.163.018-.028.09-.06.199-.033.123.03.16.107.16.17l.002.001c.011-.031.063-.043.1-.03.034.01.083.04.087.076a.72.72 0 0 0 .008 0c.009-.03-.004-.072-.07-.093-.112-.036-.152-.108-.125-.174.035.083.182.105.26.086a.247.247 0 0 1 .11.003.272.272 0 0 1-.058-.13c0-.023.003-.05.014-.078a.299.299 0 0 1-.251-.027c-.043-.028-.134-.11-.224-.072.067-.143.263-.005.326-.113a.4.4 0 0 1 .032-.047.16.16 0 0 1-.095-.055c-.06-.078-.068-.18-.026-.24-.06.015-.125-.012-.168-.069a.205.205 0 0 1-.028-.194.417.417 0 0 1-.165.04c-.077.005-.173.085-.198.231-.119-.229.096-.278.116-.43a.354.354 0 0 1 .038-.12.614.614 0 0 0-.33.18c.113-.234.241-.33.368-.371a.274.274 0 0 1-.005-.048c-.001-.062.016-.103.046-.122-.02-.031-.02-.08-.003-.135.02-.062.05-.096.088-.102-.01-.033-.003-.078.02-.126a.314.314 0 0 1 .004-.007.343.343 0 0 0-.033.007c-.166.044-.574-.135-.817.083.032-.17.247-.216.563-.203.115-.124.288-.173.46-.18-.053-.035-.077-.093-.047-.19.07.213.369.089.548.183a.846.846 0 0 1 .057-.018c-.441-.218-.89-.294-.98-.183-.093.116.086.177.138.155-.05.13-.336.016-.259-.188.07-.185.403-.248.866-.06a.362.362 0 0 1 .028-.194.461.461 0 0 0-.248 0c.052-.067.16-.073.282-.05a.204.204 0 0 1 .086-.055c-.138-.057-.32-.148-.515-.053.04-.118.212-.133.367-.09.097-.138.394-.088.668.113a.427.427 0 0 1 .035-.127.393.393 0 0 0-.25-.107c.07-.041.174-.017.29.046a.2.2 0 0 1 .029-.027.721.721 0 0 0-.463-.135c.19-.13.651.044.833.232.112.115.349.064.493.267a.396.396 0 0 1 .478.063.113.113 0 0 1 .067-.052c.128-.035.231.072.268.213a.183.183 0 0 1 .004.005zm.278.794a.31.31 0 0 1-.039-.014c-.065.048-.157.048-.214.048.061-.034.074-.094.053-.142a.79.79 0 0 0-.116-.05.518.518 0 0 1-.146.15c.02-.048.005-.128-.017-.178-.119.004-.22.067-.287.209a5.608 5.608 0 0 1-.003.007c.144.019.404.114.57.187a.511.511 0 0 1 .03-.012c.144-.056.115-.148.17-.205zm.508-.565a.86.86 0 0 1-.007.1.857.857 0 0 1 .1-.1.518.518 0 0 1-.093 0zm-2.57.605a.781.781 0 0 0-.019.031c.04.02.074.054.107.094.075-.008.144-.018.193-.065a.771.771 0 0 1-.28-.06zm.175.24c.038.055.078.11.124.156.163-.015.122-.17.23-.193a.97.97 0 0 1-.354.038zm-.007.183c-.052-.065-.09-.138-.14-.199a.57.57 0 0 0-.097.003.58.58 0 0 0 .001.082c.065.05.113.105.153.16.04-.016.057-.032.083-.046zm-.189-.259a1.728 1.728 0 0 0-.032-.021l-.006.031.038-.01zm.676-1.218c-.067-.038-.13-.081-.192-.11-.093-.046-.178-.125-.275-.202a.153.153 0 0 0-.025.02c.118.082.24.196.34.317a.707.707 0 0 0 .152-.025zm-.305.02c-.04-.039-.054-.107-.14-.161a.71.71 0 0 1-.09-.068.453.453 0 0 0 .02.212c.068-.002.136.01.21.017zm-.45.077a.555.555 0 0 0-.25-.176.318.318 0 0 0-.105.047c.123.04.247.096.34.142a.622.622 0 0 1 .016-.013zm-.11.084a1.122 1.122 0 0 0-.282-.16c-.012.068.081.148.175.212a.167.167 0 0 1 .107-.052zm2.276 1.053a.373.373 0 0 1-.1.061.97.97 0 0 1 .084.039.238.238 0 0 1 .016-.1zm.074.13c.046.017.094.03.14.037a.46.46 0 0 1-.004-.31.659.659 0 0 1-.108.194.164.164 0 0 0-.028.08zm-.462.02a.402.402 0 0 1 .091-.097 5.495 5.495 0 0 0-.412-.12c.04.044.075.088.119.09.074.005.12.09.202.127zM8.597 2.544c.036.012.07.026.1.044.146.08.27.056.441.188-.218-.22-.405-.297-.54-.232zm1.78 5.444a.477.477 0 0 1 .134-.382.188.188 0 0 1-.086.021c.027.078-.05.21-.11.276.038.02.056.051.062.085zm.207-.443a.47.47 0 0 1 .144-.064.138.138 0 0 1-.094-.036.26.26 0 0 1-.05.1zm1.111-2.401a.34.34 0 0 1-.1-.035.355.355 0 0 1 .06.1.282.282 0 0 1 .04-.065zm-.203-.1a.4.4 0 0 1-.1-.102c.01.023.013.063.013.084a.351.351 0 0 1 .087.019zm.594-.181a.383.383 0 0 1-.129.185.138.138 0 0 1 .003.113c.022-.107.114-.138.186-.138-.056-.038-.055-.1-.06-.16z"/><path fill="#000" fill-rule="nonzero" d="M1 1v10h14V1H1zm0-1h14a1 1 0 0 1 1 1v10a1 1 0 0 1-1 1H1a1 1 0 0 1-1-1V1a1 1 0 0 1 1-1z" opacity=".2"/></g></svg>