<svg width="16" height="12" viewBox="0 0 16 12" xmlns="http://www.w3.org/2000/svg"><g fill="none" fill-rule="evenodd"><path d="M1 0h14a1 1 0 0 1 1 1v10a1 1 0 0 1-1 1H1a1 1 0 0 1-1-1V1a1 1 0 0 1 1-1z" fill="#F7F7F7"/><path d="M11 0h4a1 1 0 0 1 1 1v10a1 1 0 0 1-1 1h-4V0zM1 0h4v12H1a1 1 0 0 1-1-1V1a1 1 0 0 1 1-1zm7 4l1.902 1.382-.726 2.236H6.824l-.726-2.236z" fill="#ED2939"/><path d="M1 1v10h14V1H1zm0-1h14a1 1 0 0 1 1 1v10a1 1 0 0 1-1 1H1a1 1 0 0 1-1-1V1a1 1 0 0 1 1-1z" fill="#000" fill-rule="nonzero" opacity=".2"/></g></svg>