<svg width="16" height="12" viewBox="0 0 16 12" xmlns="http://www.w3.org/2000/svg" xmlns:xlink="http://www.w3.org/1999/xlink"><defs><rect id="a" width="16" height="12" rx="1"/></defs><g fill="none" fill-rule="evenodd"><mask id="b" fill="#fff"><use xlink:href="#a"/></mask><use fill="#D8D8D8" xlink:href="#a"/><rect stroke="#979797" x=".5" y=".5" width="15" height="11" rx="1"/><g mask="url(#b)" fill-rule="nonzero"><path fill="#007A5E" d="M0 0h5v12H0z"/><path fill="#CE1126" d="M5 0h6v12H5z"/><path fill="#FCD116" d="M11 0h5v12h-5z"/></g><path fill="#FFF" mask="url(#b)" d="M10 5.45H8.48L8 4.01l-.48 1.44H6l1.24.92-.48 1.44L8 6.93l1.24.88-.48-1.44z"/><path d="M1 1v10h14V1H1zm0-1h14a1 1 0 0 1 1 1v10a1 1 0 0 1-1 1H1a1 1 0 0 1-1-1V1a1 1 0 0 1 1-1z" fill="#000" fill-rule="nonzero" opacity=".2"/></g></svg>