<svg width="16" height="12" viewBox="0 0 16 12" xmlns="http://www.w3.org/2000/svg"><g fill="none" fill-rule="evenodd"><path d="M1 0h14a1 1 0 0 1 1 1v10a1 1 0 0 1-1 1H1a1 1 0 0 1-1-1V1a1 1 0 0 1 1-1z" fill="#F7F7F7"/><path d="M12.331 2c.37 0 .538.261.374.59l-.41.82c-.163.326-.584.667-.94.762l-.21.056c-.356.095-.427.381-.165.633l.29.278c.265.255.19.461-.189.461h.088H9.83h.088a.671.671 0 0 0-.669.67v-.14c0 .37-.307.67-.657.67H7.407c-.363 0-.875.209-1.137.46l-.29.28a.615.615 0 0 1-.904-.049L3.424 5.51c-.234-.281-.137-.578.233-.667l1.186-.284A.898.898 0 0 0 5.5 3.73v.14c0-.37.307-.67.657-.67h5.012-.088c.37 0 .669-.303.669-.67v.14c0-.37.29-.67.669-.67h-.088z" fill="#E7832C"/><circle fill="#225218" cx="8" cy="9" r="1"/><path d="M2.646 8.354C3.417 9.124 4.544 9.5 6 9.5a.5.5 0 0 0 0-1c-1.21 0-2.084-.291-2.646-.854a.5.5 0 1 0-.708.708zm10.708 0C12.583 9.124 11.456 9.5 10 9.5a.5.5 0 0 1 0-1c1.21 0 2.084-.291 2.646-.854a.5.5 0 0 1 .708.708z" fill="#225218" fill-rule="nonzero"/><path d="M1 1v10h14V1H1zm0-1h14a1 1 0 0 1 1 1v10a1 1 0 0 1-1 1H1a1 1 0 0 1-1-1V1a1 1 0 0 1 1-1z" fill="#000" fill-rule="nonzero" opacity=".2"/></g></svg>