<svg xmlns="http://www.w3.org/2000/svg" width="16" height="12" viewBox="0 0 16 12"><g fill="none" fill-rule="evenodd"><path fill="#F7F7F7" d="M1 0h14a1 1 0 0 1 1 1v10a1 1 0 0 1-1 1H1a1 1 0 0 1-1-1V1a1 1 0 0 1 1-1z"/><path fill="#002A93" d="M1 0h6v5H0V1a1 1 0 0 1 1-1z"/><path fill="#D00007" d="M1 12a1 1 0 0 1-1-1V7h7v5H1z"/><path fill="#000" fill-rule="nonzero" d="M1 1v10h14V1H1zm0-1h14a1 1 0 0 1 1 1v10a1 1 0 0 1-1 1H1a1 1 0 0 1-1-1V1a1 1 0 0 1 1-1z" opacity=".2"/><path fill="#D00007" d="M15 0a1 1 0 0 1 1 1v4H9V0h6z"/><path fill="#002A93" d="M15 12H9V7h7v4a1 1 0 0 1-1 1z"/><circle cx="8" cy="6" r="1" fill="#4F4F2F"/></g></svg>