<svg xmlns="http://www.w3.org/2000/svg" width="16" height="12" viewBox="0 0 16 12"><g fill="none" fill-rule="evenodd"><path fill="#FCD30F" d="M1 0h14a1 1 0 0 1 1 1v10a1 1 0 0 1-1 1H1a1 1 0 0 1-1-1V1a1 1 0 0 1 1-1z"/><path fill="#A50619" d="M0 9h16v2a1 1 0 0 1-1 1H1a1 1 0 0 1-1-1V9z"/><path fill="#003594" d="M0 6h16v3H0z"/><path fill="#000" fill-rule="nonzero" d="M1 1v10h14V1H1zm0-1h14a1 1 0 0 1 1 1v10a1 1 0 0 1-1 1H1a1 1 0 0 1-1-1V1a1 1 0 0 1 1-1z" opacity=".2"/><path fill="#FCD30F" d="M5 6h6v1a2 2 0 0 1-2 2H7a2 2 0 0 1-2-2V6z"/><rect width="4" height="6" x="6" y="4" fill="#12A9D3" rx="2"/><path fill="#019E4A" d="M6 7h4v1a2 2 0 1 1-4 0V7z"/><path fill="#533820" d="M8 6L5 3h6z"/></g></svg>