<svg width="16" height="12" viewBox="0 0 16 12" xmlns="http://www.w3.org/2000/svg"><g fill="none" fill-rule="evenodd"><path d="M1 0h14a1 1 0 0 1 1 1v10a1 1 0 0 1-1 1H1a1 1 0 0 1-1-1V1a1 1 0 0 1 1-1z" fill="#FFC400"/><path d="M0 8h16v3a1 1 0 0 1-1 1H1a1 1 0 0 1-1-1V8zm1-8h14a1 1 0 0 1 1 1v3H0V1a1 1 0 0 1 1-1z" fill="#C60B1E"/><path fill="#91443A" d="M3 5h3v2H3z"/><path d="M1 1v10h14V1H1zm0-1h14a1 1 0 0 1 1 1v10a1 1 0 0 1-1 1H1a1 1 0 0 1-1-1V1a1 1 0 0 1 1-1z" fill="#000" fill-rule="nonzero" opacity=".2"/></g></svg>