<svg width="16" height="12" viewBox="0 0 16 12" xmlns="http://www.w3.org/2000/svg"><g fill="none" fill-rule="evenodd"><path d="M1 0h14a1 1 0 0 1 1 1v10a1 1 0 0 1-1 1H1a1 1 0 0 1-1-1V1a1 1 0 0 1 1-1z" fill="#273C83"/><path d="M1.151 0H1a1 1 0 0 0-1 1v1.233l5.955 3.868L0 9.968V11a1 1 0 0 0 1 1h.46l6.79-4.409 6.788 4.408A1 1 0 0 0 16 11V9.643l-5.455-3.542L16 2.558V1a1 1 0 0 0-.715-.959L8.25 4.611 1.151 0z" fill="#F7F7F7"/><path d="M15.944.67A.998.998 0 0 1 16 1v.826L9.168 6.263 16 10.7v.3c0 .275-.11.523-.29.704L8.25 6.859.521 11.88a1 1 0 0 1-.52-.855l7.331-4.761L0 1.502V1C0 .787.067.589.18.426l8.07 5.24L15.944.67z" fill="#DC1E35"/><path fill="#F7F7F7" d="M10 4h6v4h-6v4H6V8H0V4h6V0h4z"/><path fill="#DC1E35" d="M9 5V0H7v5H0v2h7v5h2V7h7V5z"/><path d="M1 1v10h14V1H1zm0-1h14a1 1 0 0 1 1 1v10a1 1 0 0 1-1 1H1a1 1 0 0 1-1-1V1a1 1 0 0 1 1-1z" fill="#000" fill-rule="nonzero" opacity=".2"/></g></svg>