<svg width="16" height="12" viewBox="0 0 16 12" xmlns="http://www.w3.org/2000/svg"><g fill="none" fill-rule="evenodd"><path d="M1 0h14a1 1 0 0 1 1 1v10a1 1 0 0 1-1 1H1a1 1 0 0 1-1-1V1a1 1 0 0 1 1-1z" fill="#0D5EAF"/><path fill="#F7F7F7" d="M1 3h5v1H1z"/><path fill="#F7F7F7" d="M4 1v5H3V1zm3 4h9v1H7zM0 7h16v1H0zm7-6h9v1H7zm0 2h9v1H7zM0 9h16v1H0zm0 2h16v1H0z"/><path d="M1 1v10h14V1H1zm0-1h14a1 1 0 0 1 1 1v10a1 1 0 0 1-1 1H1a1 1 0 0 1-1-1V1a1 1 0 0 1 1-1z" fill="#000" fill-rule="nonzero" opacity=".2"/></g></svg>