<svg xmlns="http://www.w3.org/2000/svg" width="16" height="12" viewBox="0 0 16 12"><g fill="none" fill-rule="evenodd"><path fill="#019E4A" d="M1 0h14a1 1 0 0 1 1 1v10a1 1 0 0 1-1 1H1a1 1 0 0 1-1-1V1a1 1 0 0 1 1-1z"/><path fill="#FFF" d="M.357 11.857C.11 11.706 0 11.427 0 11V1C0 .572.111.294.357.143L15 6 .357 11.857z"/><path fill="#FDD000" d="M12 6L0 11V1z"/><path fill="#000" d="M8 6l-8 5V1z"/><path fill="#CF001B" d="M6 6l-6 4V2z"/><path fill="#000" fill-rule="nonzero" d="M1 1v10h14V1H1zm0-1h14a1 1 0 0 1 1 1v10a1 1 0 0 1-1 1H1a1 1 0 0 1-1-1V1a1 1 0 0 1 1-1z" opacity=".2"/></g></svg>