<svg width="16" height="12" viewBox="0 0 16 12" xmlns="http://www.w3.org/2000/svg"><g fill="none" fill-rule="evenodd"><path d="M1 0h14a1 1 0 0 1 1 1v10a1 1 0 0 1-1 1H1a1 1 0 0 1-1-1V1a1 1 0 0 1 1-1z" fill="#DE2910"/><path d="M9.228 5.594c-.737-.45-.923.368-.923 0 0-.746.827-1.35 1.847-1.35S12 4.847 12 5.593c-.877 0-.964.45-1.386.45-.517 0-.648 0-1.386-.45zM8.721 7.17c.2-.84-.635-.765-.285-.88.71-.23 1.54.37 1.856 1.34.315.971-.005 1.945-.714 2.175-.271-.833-.727-.777-.857-1.178-.16-.492-.2-.617 0-1.457zM7 7.189c.861-.068.531-.84.747-.542.439.603.125 1.579-.7 2.179-.826.6-1.85.596-2.29-.007.71-.516.516-.931.857-1.18.419-.303.525-.38 1.386-.45zm-.557-1.56c.332.797.964.245.748.543-.439.603-1.464.606-2.29.007-.825-.6-1.139-1.576-.7-2.18.71.516 1.045.203 1.386.45.418.305.525.382.856 1.18zm1.378-.986c-.657.561.064.992-.286.878-.71-.23-1.03-1.204-.714-2.175.315-.97 1.146-1.57 1.856-1.34-.27.834.13 1.057 0 1.458-.16.492-.2.617-.856 1.179z" fill="#FFF"/><path d="M1 1v10h14V1H1zm0-1h14a1 1 0 0 1 1 1v10a1 1 0 0 1-1 1H1a1 1 0 0 1-1-1V1a1 1 0 0 1 1-1z" fill="#000" fill-rule="nonzero" opacity=".2"/></g></svg>