<svg xmlns="http://www.w3.org/2000/svg" width="16" height="12" viewBox="0 0 16 12"><g fill="none" fill-rule="evenodd"><path fill="#F7F7F7" d="M1 0h14a1 1 0 0 1 1 1v10a1 1 0 0 1-1 1H1a1 1 0 0 1-1-1V1a1 1 0 0 1 1-1z"/><path fill="#0074D2" d="M0 8h16v3a1 1 0 0 1-1 1H1a1 1 0 0 1-1-1V8zm1-8h14a1 1 0 0 1 1 1v3H0V1a1 1 0 0 1 1-1z"/><path fill="#000" fill-rule="nonzero" d="M1 1v10h14V1H1zm0-1h14a1 1 0 0 1 1 1v10a1 1 0 0 1-1 1H1a1 1 0 0 1-1-1V1a1 1 0 0 1 1-1z" opacity=".2"/><circle cx="8" cy="6" r="1" fill="#0074D2"/><circle cx="11" cy="4" r="1" fill="#0074D2"/><circle cx="5" cy="4" r="1" fill="#0074D2"/><circle cx="11" cy="8" r="1" fill="#0074D2"/><circle cx="5" cy="8" r="1" fill="#0074D2"/></g></svg>