<svg width="16" height="12" viewBox="0 0 16 12" xmlns="http://www.w3.org/2000/svg"><g fill="none" fill-rule="evenodd"><path d="M1 0h14a1 1 0 0 1 1 1v10a1 1 0 0 1-1 1H1a1 1 0 0 1-1-1V1a1 1 0 0 1 1-1z" fill="#F7F7F7"/><path d="M0 8h16v3a1 1 0 0 1-1 1H1a1 1 0 0 1-1-1V8z" fill="#171796"/><path d="M1 0h14a1 1 0 0 1 1 1v3H0V1a1 1 0 0 1 1-1z" fill="red"/><path fill="#FFF" fill-rule="nonzero" d="M5 3h6v5l-3 2-3-2z"/><path fill="#EE1C25" d="M6 4h1v1H6zm0 2h1v1H6zm2-2h1v1H8zm0 2h1v1H8zM7 5h1v1H7zm0 2h1v1H7zm2-2h1v1H9zm0 2h1v1H9z"/><path fill="#121278" d="M8 1l3 2H5z"/><path d="M1 1v10h14V1H1zm0-1h14a1 1 0 0 1 1 1v10a1 1 0 0 1-1 1H1a1 1 0 0 1-1-1V1a1 1 0 0 1 1-1z" fill="#000" fill-rule="nonzero" opacity=".2"/></g></svg>