<svg xmlns="http://www.w3.org/2000/svg" width="16" height="12" viewBox="0 0 16 12"><g fill="none" fill-rule="evenodd"><path fill="#F7F7F7" d="M1 0h14a1 1 0 0 1 1 1v10a1 1 0 0 1-1 1H1a1 1 0 0 1-1-1V1a1 1 0 0 1 1-1z"/><path fill="#CE1126" d="M1 0h14a1 1 0 0 1 1 1v3H0V1a1 1 0 0 1 1-1z"/><path fill="#000" d="M0 8h16v3a1 1 0 0 1-1 1H1a1 1 0 0 1-1-1V8z"/><path fill="#000" fill-rule="nonzero" d="M1 1v10h14V1H1zm0-1h14a1 1 0 0 1 1 1v10a1 1 0 0 1-1 1H1a1 1 0 0 1-1-1V1a1 1 0 0 1 1-1z" opacity=".2"/><path d="M6.92 5.145c-.008.064.114.221.169.25-.038.017-.084.01-.118.028-.192.191-.891.873-1.019 1.036.379.007.798-.005 1.152-.021 0-.257.244-.27.407-.364.084.132.294.122.32.32l.001.856h-3.23a.47.47 0 0 1-.6.364c.098-.102.263-.137.322-.278.05-.309-.1-.5-.196-.674.16-.058.184-.073.346-.182-.114.346.295.308.598.3.01-.117.005-.256-.085-.273.116-.042.135-.056.32-.214v.465c.723 0 1.501-.005 2.238-.005 0-.146.038-.38-.077-.38-.11 0-.005.3-.09.3H5.65l-.002-.296c.074-.073.065-.067.565-.567.05-.05.4-.367.708-.665zm4.319-.012c.12.065.216.154.364.192-.017.061-.072.086-.086.15V6.78c.165.036.2-.057.278-.107.021.209.155.413.15.577h-.706V5.133zm-.941.698s.257-.216.257-.225v1.139h.184c0-.434-.005-.874-.005-1.277.075-.075.222-.184.259-.26v2.04H9.37c-.024-.424-.028-.862.466-.768v-.172c-.016-.03-.043.007-.049-.032.078-.078.105-.098.317-.283 0 .223.004.751.004.751h.187l.002-.913zm-.609.902c.035.053.153.052.148-.036-.02-.073-.176-.045-.148.036zM8.051 5.135c.12.065.216.154.364.192-.018.061-.072.086-.086.15v1.305c.165.036.2-.057.278-.107.021.209.154.413.15.577H8.05V5.135z" fill="#007A3D" fill-rule="nonzero"/></g></svg>