<svg xmlns="http://www.w3.org/2000/svg" width="16" height="12" viewBox="0 0 16 12"><g fill="none" fill-rule="evenodd"><path fill="#F7F7F7" d="M1 0h14a1 1 0 0 1 1 1v10a1 1 0 0 1-1 1H1a1 1 0 0 1-1-1V1a1 1 0 0 1 1-1z"/><path fill="#169B62" d="M1 0h14a1 1 0 0 1 1 1v3H0V1a1 1 0 0 1 1-1z"/><path fill="#CE1126" d="M0 8h16v3a1 1 0 0 1-1 1H1a1 1 0 0 1-1-1V8z"/><path fill="#000" fill-rule="nonzero" d="M1 1v10h14V1H1zm0-1h14a1 1 0 0 1 1 1v10a1 1 0 0 1-1 1H1a1 1 0 0 1-1-1V1a1 1 0 0 1 1-1z" opacity=".2"/><path fill="#CE1126" fill-rule="nonzero" d="M7.842 7.659c-.304.063-.626.05-.938-.05.27.012.536-.03.782-.12a1.824 1.824 0 0 1-.343-2.998 2 2 0 0 0 .481 2.737l-.06-1.493V4.559A.62.62 0 0 0 8 4.361a.62.62 0 0 0 .236.198v1.176l-.06 1.493a1.998 1.998 0 0 0 .481-2.737 1.824 1.824 0 0 1-.343 2.998c.246.09.511.132.782.12a1.819 1.819 0 0 1-.938.05l-.002.062L8 7.935l-.156-.214-.002-.062zm1.395-.4a2 2 0 0 0-.394-2.806 1.528 1.528 0 0 1 .394 2.805zM7.96 4.234L8 4.086A.273.273 0 0 0 8.504 4 .289.289 0 0 1 8 4.273l-.04-.038zM6.763 7.258a1.528 1.528 0 0 1 .394-2.805 2 2 0 0 0-.394 2.805zM8.04 4.235L8 4.273A.289.289 0 0 1 7.496 4 .273.273 0 0 0 8 4.086l.04.15z"/></g></svg>