<svg xmlns="http://www.w3.org/2000/svg" width="16" height="12" viewBox="0 0 16 12"><g fill="none" fill-rule="evenodd"><path fill="#009C36" d="M1 0h14a1 1 0 0 1 1 1v10a1 1 0 0 1-1 1H1a1 1 0 0 1-1-1V1a1 1 0 0 1 1-1z"/><path fill="#2E2E2E" d="M.35 11.76A.998.998 0 0 1 0 11V1l8 5.5-7.65 5.26zM16 1v10a.998.998 0 0 1-.35.76L8 6.5 16 1z"/><path fill="#FFD000" d="M1.5 0L8 4.875 14.5 0h.5a1 1 0 0 1 1 1v.125L9.5 6l6.5 4.875V11a1 1 0 0 1-1 1h-.5L8 7.125 1.5 12H1a1 1 0 0 1-1-1v-.125L6.5 6 0 1.125V1a1 1 0 0 1 1-1h.5z"/><path fill="#000" fill-rule="nonzero" d="M1 1v10h14V1H1zm0-1h14a1 1 0 0 1 1 1v10a1 1 0 0 1-1 1H1a1 1 0 0 1-1-1V1a1 1 0 0 1 1-1z" opacity=".2"/></g></svg>