<svg xmlns="http://www.w3.org/2000/svg" width="16" height="12" viewBox="0 0 16 12"><g fill="none" fill-rule="evenodd"><path fill="#F02532" d="M1 0h14a1 1 0 0 1 1 1v10a1 1 0 0 1-1 1H1a1 1 0 0 1-1-1V1a1 1 0 0 1 1-1z"/><path fill="#002AA2" d="M0 9h16v2a1 1 0 0 1-1 1H1a1 1 0 0 1-1-1V9zm0-6h16V1a1 1 0 0 0-1-1H1a1 1 0 0 0-1 1v2z"/><path fill="#000" fill-rule="nonzero" d="M1 1v10h14V1H1zm0-1h14a1 1 0 0 1 1 1v10a1 1 0 0 1-1 1H1a1 1 0 0 1-1-1V1a1 1 0 0 1 1-1z" opacity=".2"/><path fill="#EAECF0" fill-rule="nonzero" d="M8.01 3.38V8H4v-.375h.202v-.376l.201-.002v-.319l.2.002v-.243l.12-.002V6.5h.174a.283.283 0 0 0 .123-.152l-.026-1.486c.024-.017.05-.015.079-.001v.471-.317h.132l-.132-.001v-.095h.132v-.27c.039 0 .045.128.133.128.046 0 .04-.052.015-.095-.023-.039-.051-.091-.013-.189.027.075.097.099.084.052-.022-.08-.087-.094-.038-.22.016.105.086.1.07.04-.02-.069-.06-.097-.01-.193.027.11.063.103.063.035 0-.1-.004-.209.131-.25 0 0 .008-.091.057-.091.048 0 .056.092.056.092.135.04.131.149.131.249 0 .068.037.074.064-.035.049.096.01.124-.01.193-.017.06.053.065.07-.04.048.126-.016.14-.039.22-.013.047.058.023.084-.052.039.098.01.15-.012.189-.026.043-.031.095.015.095.088 0 .094-.127.132-.127v.474h.154v-.031c.017-.011.044-.01.064-.001v.032h.764v-.429a.142.142 0 0 1 .086.086v.343l.002-.265h.092s.046-.001.046-.075-.028-.124-.085-.121v-.15s.14.017.15.168v-.124c.058 0 .058.059.058.203h.044v-.166c-.003-.083-.086-.089-.089-.15 0 0-.01-.09.014-.132.034.122.095.1.095.05 0-.044-.034-.085-.106-.19-.023-.034-.009-.14.023-.178.013.092.027.136.068.136.025 0 .046-.016.046-.062 0-.059-.042-.088-.062-.142a.147.147 0 0 1 .032-.161c.017.09.012.127.054.127.084-.026 0-.144-.018-.173-.02-.035.028-.104.028-.104.027.08.035.087.064.08.037-.01.032-.062-.012-.104-.029-.027-.026-.067.005-.099.03.058.069.054.073.02l-.025-.132h.257zm.072-.255h-.13s-.009-.11.13-.125v.125zm-.072.285h-.222l-.013-.125h.235v.125zm0-.079h-.19l-.01-.125h.2v.125zm.102-.08h-.224l-.007-.125h.238l-.007.125zm-.122.13h.257l-.025.131c.004.034.043.038.073-.02.03.032.034.072.005.099-.044.042-.049.094-.012.104.029.007.037 0 .064-.08 0 0 .049.069.028.104-.018.03-.102.147-.018.173.042 0 .037-.036.054-.127.04.035.056.099.032.161-.02.054-.062.083-.062.142 0 .046.02.062.046.062.04 0 .055-.044.068-.136.032.038.046.144.023.177-.072.106-.106.147-.106.19 0 .05.061.073.095-.049.025.042.014.133.014.133-.003.06-.086.066-.089.15v.165h.044c0-.144 0-.203.058-.203v.124a.178.178 0 0 1 .15-.169v.15c-.057-.002-.085.048-.085.122s.046.075.046.075h.092l.002.265v-.343s.017-.06.086-.086v.43h.764v-.033c.02-.009.047-.01.064.001v.031h.154V4.65c.038 0 .044.127.132.127.046 0 .041-.052.015-.095-.022-.039-.05-.091-.012-.189.026.075.097.099.084.052-.023-.08-.087-.094-.039-.22.017.105.087.1.07.04-.02-.069-.059-.097-.01-.193.027.11.064.103.064.035 0-.1-.004-.209.13-.25 0 0 .009-.091.057-.091.049 0 .057.092.057.092.135.04.13.148.13.249 0 .068.037.074.065-.035.048.096.009.124-.01.193-.017.06.053.065.07-.04.048.126-.017.14-.04.22-.012.047.058.023.085-.052.038.098.01.15-.013.189-.026.043-.03.095.015.095.088 0 .094-.127.133-.127v.27h.132v.094h-.132.132v-.153c.029-.014.055-.016.079.001l-.026 1.486a.283.283 0 0 0 .123.152h.174v.185l.12.002v.243l.2-.002v.319l.201.002v.376H12V8H7.99V3.38zm0-.256V3c.139.014.13.125.13.125h-.13zm0 .285v-.125h.235l-.013.125H7.99zm0-.079v-.125h.2l-.01.125h-.19z"/></g></svg>