<svg xmlns="http://www.w3.org/2000/svg" width="16" height="12" viewBox="0 0 16 12"><g fill="none" fill-rule="evenodd"><path fill="#EC232E" d="M1 0h14a1 1 0 0 1 1 1v10a1 1 0 0 1-1 1H1a1 1 0 0 1-1-1V1a1 1 0 0 1 1-1z"/><path fill="#064EA1" d="M0 8h16v3a1 1 0 0 1-1 1H1a1 1 0 0 1-1-1V8zm1-8h14a1 1 0 0 1 1 1v3H0V1a1 1 0 0 1 1-1z"/><path fill="#FFF" d="M0 3h16v1H0zm0 5h16v1H0z"/><circle cx="5" cy="6" r="2" fill="#FFF"/><path fill="#EC232E" d="M5 6.8l-1.176.818.415-1.371-1.141-.865 1.432-.029L5 4l.47 1.353 1.432.029-1.141.865.415 1.371z"/><path fill="#000" fill-rule="nonzero" d="M1 1v10h14V1H1zm0-1h14a1 1 0 0 1 1 1v10a1 1 0 0 1-1 1H1a1 1 0 0 1-1-1V1a1 1 0 0 1 1-1z" opacity=".2"/></g></svg>