<svg width="16" height="12" viewBox="0 0 16 12" xmlns="http://www.w3.org/2000/svg"><g fill="none" fill-rule="evenodd"><path d="M1 0h14a1 1 0 0 1 1 1v10a1 1 0 0 1-1 1H1a1 1 0 0 1-1-1V1a1 1 0 0 1 1-1z" fill="#F7F7F7"/><path d="M5.5 6a2.5 2.5 0 0 0 5 0h-5z" fill="#0066B3"/><path d="M5.5 6a2.5 2.5 0 0 1 5 0h-5z" fill="#ED1C24"/><path d="M10.5 3.209l.709-.709 1.772 1.773-.708.708L10.5 3.21zm-5.019 0L3.71 4.98 3 4.273 4.773 2.5l.708.709zM10.5 8.773L12.273 7l.708.709L11.21 9.48l-.709-.708zm-5.019 0l-.708.708L3 7.71 3.709 7 5.48 8.773zM11.5 2.209l.709-.709 1.772 1.773-.708.708L11.5 2.21zm-7.019 0L2.71 3.98 2 3.273 3.773 1.5l.708.709zM11.5 9.773L13.273 8l.708.709-1.772 1.772-.709-.708zm-7.019 0l-.708.708L2 8.71 2.709 8 4.48 9.773z" fill="#333"/><path d="M1 1v10h14V1H1zm0-1h14a1 1 0 0 1 1 1v10a1 1 0 0 1-1 1H1a1 1 0 0 1-1-1V1a1 1 0 0 1 1-1z" fill="#000" fill-rule="nonzero" opacity=".2"/></g></svg>