<svg xmlns="http://www.w3.org/2000/svg" width="16" height="12" viewBox="0 0 16 12"><g fill="none" fill-rule="evenodd"><path fill="#00B1CB" d="M1 0h14a1 1 0 0 1 1 1v10a1 1 0 0 1-1 1H1a1 1 0 0 1-1-1V1a1 1 0 0 1 1-1z"/><path fill="#000" fill-rule="nonzero" d="M1 1v10h14V1H1zm0-1h14a1 1 0 0 1 1 1v10a1 1 0 0 1-1 1H1a1 1 0 0 1-1-1V1a1 1 0 0 1 1-1z" opacity=".2"/><path fill="#FEC50C" d="M2 2h1v8H2z"/><circle cx="9" cy="5" r="2" fill="#FEC50C"/><path fill="#FEC50C" fill-rule="nonzero" d="M5 5h1a3 3 0 1 0 6 0h1a4 4 0 1 1-8 0z"/></g></svg>