<svg xmlns="http://www.w3.org/2000/svg" width="16" height="12" viewBox="0 0 16 12"><g fill="none" fill-rule="evenodd"><path fill="#F7F7F7" d="M1 0h14a1 1 0 0 1 1 1v10a1 1 0 0 1-1 1H1a1 1 0 0 1-1-1V1a1 1 0 0 1 1-1z"/><path fill="#EE161E" d="M1 0h14a1 1 0 0 1 1 1v3H0V1a1 1 0 0 1 1-1zm0 12c-.552 0-1-.597-1-1.333V8h16v2.667c0 .736-.448 1.333-1 1.333H1z"/><path fill="#000" fill-rule="nonzero" d="M1 1v10h14V1H1zm0-1h14a1 1 0 0 1 1 1v10a1 1 0 0 1-1 1H1a1 1 0 0 1-1-1V1a1 1 0 0 1 1-1z" opacity=".2"/><path fill="#09A957" d="M8 4l2 4H6z"/></g></svg>