<svg xmlns="http://www.w3.org/2000/svg" xmlns:xlink="http://www.w3.org/1999/xlink" width="16" height="12" viewBox="0 0 16 12"><defs><rect id="a" width="16" height="12" rx="1"/></defs><g fill="none" fill-rule="evenodd"><use fill="#D8D8D8" xlink:href="#a"/><rect width="15" height="11" x=".5" y=".5" stroke="#979797" rx="1"/><path fill="#FFBE29" fill-rule="nonzero" d="M1 0h14a1 1 0 0 1 1 1v10a1 1 0 0 1-1 1H1a1 1 0 0 1-1-1V1a1 1 0 0 1 1-1z"/><path fill="#000" fill-rule="nonzero" d="M1 1v10h14V1H1zm0-1h14a1 1 0 0 1 1 1v10a1 1 0 0 1-1 1H1a1 1 0 0 1-1-1V1a1 1 0 0 1 1-1z" opacity=".2"/><path fill="#00534E" d="M2 2h2v8H2z"/><path fill="#EB7400" d="M4 2h2v8H4z"/><path fill="#8D153A" d="M7 2h7v8H7z"/><path fill="#FFBE29" fill-rule="nonzero" d="M9.201 6.429a.772.772 0 0 1-.073.076c-.053.05-.12.123-.148.163l-.052.075-.054-.042c-.067-.053-.127-.055-.18-.009-.032.03-.038.045-.037.1.001.057-.002.065-.028.065a.394.394 0 0 1-.123-.078c-.124-.102-.178-.12-.276-.088-.19.062-.286-.012-.195-.15l.033-.051-.034-.023c-.028-.02-.033-.033-.03-.082.003-.04.013-.062.032-.073l.033-.02c.003-.001-.01-.019-.03-.038-.047-.044-.048-.098-.004-.143l.034-.035-.034-.052a.204.204 0 0 1-.033-.078c0-.022.006-.025.037-.018a.183.183 0 0 1 .113.069c.03.032.035.055.042.164.007.115.01.131.045.167l.039.039.196-.005c.231-.005.259-.015.436-.15.153-.118.244-.163.338-.164a.927.927 0 0 1 .4-.466c.127-.08.17-.133.151-.184-.019-.05-.052-.06-.096-.028-.022.016-.042.042-.044.058-.007.047-.046.019-.082-.062-.039-.083-.059-.093-.065-.03-.007.062-.035.064-.07.006-.028-.047-.031-.048-.068-.03a.417.417 0 0 1-.082.028l-.046.01.028-.052c.014-.028.025-.054.022-.056a.122.122 0 0 0-.046.008.741.741 0 0 1-.114.02l-.072.007.02-.064.036-.118c.02-.065.035-.072.102-.045.069.028.248.064.32.064.062 0 .067.006.036.047-.03.039-.027.045.022.038a.498.498 0 0 1 .129.011c.06.013.09.014.1.003.027-.025-.025-.137-.11-.237a1.044 1.044 0 0 1-.105-.147l-.027-.053-.015.04a.218.218 0 0 0-.015.06c0 .018-.005.017-.04-.004a.253.253 0 0 1-.057-.05c-.028-.039-.04-.03-.034.025l.007.05-.046-.026a.187.187 0 0 1-.06-.053 1.206 1.206 0 0 0-.113-.126.485.485 0 0 1-.105-.138.957.957 0 0 0-.021-.082c-.04-.12.007-.212.107-.212.077 0 .126.053.116.126-.006.047-.004.054.016.046a.605.605 0 0 1 .102-.017.436.436 0 0 0 .116-.026.315.315 0 0 1 .111-.019c.087 0 .143-.025.186-.084.027-.036.03-.05.017-.082l-.015-.038.083-.01c.107-.011.154 0 .21.05.075.065.116.047.116-.052 0-.065.004-.067.09-.044a.296.296 0 0 1 .116.077l.062.062.03-.056a.26.26 0 0 0 .029-.078c0-.017.008-.02.032-.013.064.02.132.06.17.101.032.035.05.043.097.043.048 0 .068-.009.109-.048l.05-.05-.01.058a.338.338 0 0 1-.096.185l-.044.05.028.037c.055.072.064.128.056.362-.004.122-.01.224-.012.226A.424.424 0 0 1 10.875 5c-.073-.066-.081-.08-.098-.16a.232.232 0 0 0-.059-.131c-.04-.042-.041-.042-.033-.008a.525.525 0 0 1 .017.186c-.007.018-.02.014-.073-.029-.035-.028-.068-.048-.073-.043-.004.004.018.025.05.047a.215.215 0 0 1 .07.073l.014.034.017-.041a.35.35 0 0 0 .012-.121c-.004-.065-.001-.075.013-.057.01.013.021.052.026.087a.23.23 0 0 0 .104.178c.048.037.059.054.059.092 0 .025.007.064.015.085.033.08.04.116.023.105-.115-.066-.25-.179-.268-.225-.014-.034-.015-.034-.045.024l-.03.057-.045-.037a.34.34 0 0 1-.061-.064c-.015-.024-.016-.022-.008.016a.128.128 0 0 1-.01.08l-.02.035-.047-.049c-.025-.026-.053-.048-.061-.048s.004.017.026.038c.022.02.05.053.062.07l.022.033.028-.056c.015-.032.032-.057.036-.057a.15.15 0 0 1 .042.034.147.147 0 0 0 .042.035c.005 0 .017-.022.027-.049l.018-.048.035.04c.02.023.066.063.104.09.062.045.069.055.075.116.004.039.02.086.038.11l.032.044H10.9a.313.313 0 0 1-.203-.086c-.026-.024-.046-.037-.046-.03 0 .041.15.128.234.135.032.003.06.014.067.028.007.012.039.04.07.062l.056.04-.063.01a.369.369 0 0 1-.104 0l-.04-.009-.002.077a.294.294 0 0 1-.01.084.51.51 0 0 1-.192-.059c-.03-.019-.037-.02-.043-.003a.325.325 0 0 1-.064.072c-.051.046-.06.05-.068.027l-.053-.133a.407.407 0 0 1-.037-.12c.004-.006.001-.015-.006-.02-.02-.011-.052.045-.072.128a.226.226 0 0 1-.03.08c-.013.007-.084-.088-.084-.115 0-.036-.024-.015-.04.036a.326.326 0 0 1-.047.092l-.031.038-.02-.06a1.364 1.364 0 0 1-.023-.078c-.007-.031-.023-.036-.023-.006 0 .06-.044.137-.09.159l-.045.021-.018-.065a.525.525 0 0 1-.018-.094v-.029l-.066.033a.242.242 0 0 1-.071.028c-.003-.003.004-.023.016-.045a.179.179 0 0 0 .022-.061.12.12 0 0 1 .023-.054c.018-.025.019-.03.004-.026-.011.004-.031.04-.045.081a.262.262 0 0 1-.054.098c-.043.035-.015.04.07.012.052-.017.077-.02.08-.01l.021.068a.165.165 0 0 1 .007.079c-.01.032.01.037.036.007.01-.011.026-.02.036-.02.023 0 .092-.079.092-.105 0-.01.006-.02.014-.02s.014.028.014.062.006.062.013.062c.02 0 .1-.098.11-.134.004-.017.011-.03.015-.03.013 0 .047.044.067.088l.02.04.03-.047a.33.33 0 0 0 .038-.096.301.301 0 0 1 .02-.069c.01-.017.013-.015.021.007l.044.11a.558.558 0 0 1 .045.159.543.543 0 0 0 .146-.11c.013-.026.018-.026.055-.008a.54.54 0 0 0 .104.034.906.906 0 0 1 .089.024c.021.008.024.005.016-.016a.22.22 0 0 1 0-.085l.008-.06h.069a.381.381 0 0 0 .108-.015c.038-.014.039-.016.013-.03a.583.583 0 0 1-.064-.048l-.037-.031.334.008c.289.008.35.006.448-.015.09-.02.17-.024.392-.022.26.003.286 0 .4-.031.15-.042.195-.064.242-.118.107-.123.073-.285-.073-.348-.079-.034-.26-.036-.413-.004-.312.064-.606.06-.785-.014-.17-.069-.194-.075-.23-.062-.042.015-.066.054-.07.111-.002.023-.007.041-.012.041a.2.2 0 0 1-.046-.052.2.2 0 0 1-.009-.22l.029-.046-.042-.05c-.147-.179-.145-.375.006-.522a.808.808 0 0 1 .374-.185 1.42 1.42 0 0 1 .5.028c.187.056.446.21.66.393.14.12.219.172.259.172.03 0 .033-.004.026-.039-.007-.027 0-.049.02-.075.048-.058.128-.049.164.019.062.116-.018.238-.156.238-.107 0-.181-.035-.298-.143-.124-.114-.233-.2-.242-.19-.016.015.036.171.064.193.042.033.009.031-.071-.004a.348.348 0 0 1-.167-.143l-.022-.042-.02.055a.29.29 0 0 1-.044.08.262.262 0 0 1-.138.065c-.02 0-.02-.006.005-.039a.364.364 0 0 0 .045-.103c.015-.057.014-.07-.014-.125a.255.255 0 0 0-.146-.128c-.045-.02-.048-.01-.018.046a.256.256 0 0 1-.008.22.268.268 0 0 1-.166.108l-.046.01.036-.06c.044-.076.047-.178.007-.243-.035-.055-.149-.127-.202-.127-.038 0-.04.002-.032.059.01.085-.05.18-.069.107-.012-.047-.073-.064-.142-.041-.129.044-.162.186-.066.283a.27.27 0 0 0 .055.047c.005 0 .019-.019.032-.04.046-.079.173-.111.247-.064l.037.023-.062.03c-.079.039-.106.09-.084.16a.284.284 0 0 0 .039.077c.019.022.024.024.03.007.013-.035.101-.113.12-.107.01.003.02.017.023.032.01.07.02.085.076.116.054.029.078.032.217.032.088 0 .216-.012.292-.025.074-.014.205-.026.291-.026.143-.001.164.002.246.038.267.12.312.427.09.615l-.072.062.056.077c.031.043.074.12.095.172.034.085.038.112.038.267 0 .191-.012.244-.112.53-.099.282-.112.452-.046.603.032.074.083.12.134.12.081 0 .048.101-.06.18-.088.065-.11.103-.11.183.001.057.023.107.091.212.016.025.026.055.02.067-.012.032-.13.015-.176-.026-.024-.022-.036-.026-.04-.013-.024.064-.108.076-.17.025l-.041-.033-.04.033c-.052.043-.115.043-.145 0l-.022-.034-.051.033c-.07.046-.095.045-.083-.004.023-.091.11-.157.247-.188.16-.036.167-.048.153-.265-.013-.215-.025-.231-.31-.414a1.323 1.323 0 0 1-.283-.225c-.143-.154-.23-.194-.432-.203-.243-.01-.371.023-.745.197-.137.063-.267.12-.29.125l-.04.01.043-.082c.104-.2.173-.48.135-.548-.01-.016-.014.01-.014.084 0 .168-.105.432-.277.703-.106.166-.079.256.084.274.041.005.075.013.075.019a.43.43 0 0 1-.117.14c-.018.01-.068.03-.11.046-.079.028-.079.028-.076.083.002.03.007.08.012.111.008.047.003.067-.029.116-.038.058-.039.058-.103.05a.214.214 0 0 1-.09-.031c-.024-.02-.029-.02-.064.007-.05.038-.129.038-.171 0l-.032-.03-.038.03c-.05.038-.126.038-.153 0l-.02-.028-.048.028c-.056.033-.084.037-.084.01 0-.047.05-.15.088-.18.04-.033.053-.036.176-.034.113.001.14-.003.183-.028.13-.079.144-.198.05-.476-.102-.308-.119-.439-.079-.604.01-.044.013-.074.006-.067-.05.05-.052.338-.003.49.012.036-.17-.058-.286-.146a.81.81 0 0 1-.32-.499zm1.268-.88c0 .03.024.02.034-.013a.501.501 0 0 0 .008-.098v-.067l.051.038c.028.02.053.035.055.032.015-.017.035-.1.027-.112-.005-.008-.016.008-.025.035l-.015.05-.076-.05a.318.318 0 0 1-.091-.081c-.02-.042-.034-.04-.046.006l-.01.037-.014-.034a.438.438 0 0 0-.126-.138c-.006 0-.014.017-.018.038-.017.073-.032.083-.075.045a.441.441 0 0 1-.064-.076c-.02-.03-.027-.034-.027-.016 0 .022.11.147.13.147.004 0 .02-.022.034-.048.015-.027.031-.048.037-.048.02 0 .097.098.097.124 0 .035.024.035.043 0 .015-.028.017-.028.058.01.035.032.041.048.041.108a.241.241 0 0 1-.007.077c-.004.004-.029-.012-.055-.035a.637.637 0 0 0-.151-.101l-.01.065a.342.342 0 0 1-.012.066c-.002.003-.017-.019-.032-.048a.334.334 0 0 0-.06-.08c-.03-.027-.032-.027-.047-.002a.609.609 0 0 1-.053.068l-.037.042-.01-.071c-.005-.039-.016-.074-.023-.079-.008-.005-.014 0-.014.01s-.015.042-.034.072l-.033.053-.03-.088c-.018-.048-.028-.066-.023-.04l.016.1c.005.028.013.052.02.052.014 0 .084-.081.084-.099 0-.007.007-.009.016-.004.01.006.013.031.008.063-.004.03-.003.053.003.053.022 0 .072-.044.101-.09l.031-.049.04.053a.35.35 0 0 1 .05.09c.005.02.015.038.022.038.011 0 .041-.087.041-.12 0-.023.008-.023.054.005.059.035.117.09.117.11zm.998 2.416a.204.204 0 0 1-.078.033c-.022 0-.025-.006-.017-.037a.183.183 0 0 1 .068-.113c.032-.03.055-.035.164-.042.115-.007.131-.01.167-.045l.04-.039-.005-.196c-.006-.231-.015-.259-.152-.436-.12-.156-.163-.248-.163-.343v-.075l.096.01a.52.52 0 0 1 .361.19c.05.053.123.12.164.148l.074.052-.042.054c-.052.067-.055.127-.008.18.029.032.045.038.1.037.056-.001.064.002.064.028a.394.394 0 0 1-.078.123c-.102.124-.119.178-.087.276.062.19-.012.286-.151.195l-.051-.033-.023.034c-.02.028-.033.033-.081.03-.04-.003-.063-.013-.074-.032a2.509 2.509 0 0 0-.02-.033c-.001-.003-.018.01-.038.03-.044.047-.097.048-.143.004l-.035-.034-.052.034z"/></g></svg>