<svg xmlns="http://www.w3.org/2000/svg" width="16" height="12" viewBox="0 0 16 12"><g fill="none" fill-rule="evenodd"><path fill="#D20000" d="M1 0h14a1 1 0 0 1 1 1v10a1 1 0 0 1-1 1H1a1 1 0 0 1-1-1V1a1 1 0 0 1 1-1z"/><path fill="#FFE600" d="M8 7.022L.9 11.995A1 1 0 0 1 0 11v-.81L8.49 6 0 7V5l8.49 1L0 1.81V1A1 1 0 0 1 .9.005L8 4.978 7 0h2L8 4.978 15.1.005A1 1 0 0 1 16 1v.81L7.51 6 16 5v2L7.51 6 16 10.19V11a1 1 0 0 1-.9.995L8 7.022 9 12H7l1-4.978z"/><circle cx="8" cy="6" r="3" fill="#D20000"/><circle cx="8" cy="6" r="2" fill="#FFE600"/><path fill="#000" fill-rule="nonzero" d="M1 1v10h14V1H1zm0-1h14a1 1 0 0 1 1 1v10a1 1 0 0 1-1 1H1a1 1 0 0 1-1-1V1a1 1 0 0 1 1-1z" opacity=".2"/></g></svg>