<svg xmlns="http://www.w3.org/2000/svg" xmlns:xlink="http://www.w3.org/1999/xlink" width="16" height="12" viewBox="0 0 16 12"><defs><rect id="a" width="16" height="12" rx="1"/></defs><g fill="none" fill-rule="evenodd"><use fill="#D8D8D8" xlink:href="#a"/><rect width="15" height="11" x=".5" y=".5" stroke="#979797" rx="1"/><path fill="#F7F7F7" fill-rule="nonzero" d="M1 0h4v12H1a1 1 0 0 1-1-1V1a1 1 0 0 1 1-1z"/><path fill="#00642E" fill-rule="nonzero" d="M5 0h10a1 1 0 0 1 1 1v10a1 1 0 0 1-1 1H5V0z"/><g fill="#FFF"><path d="M9.51 4.114a1.933 1.933 0 0 0 0 2.829c.82.78 2.15.78 2.97 0a2.02 2.02 0 0 0 .324-.398 2.598 2.598 0 0 1-.82 1.812c-1.093 1.041-2.865 1.041-3.959 0a2.578 2.578 0 0 1 0-3.771 2.86 2.86 0 0 1 1.902-.78 2.09 2.09 0 0 0-.417.308z"/><path d="M12.975 5.529a1.45 1.45 0 0 1-1.98 0 1.289 1.289 0 0 1 0-1.886 1.45 1.45 0 0 1 1.98 0c.547.52.547 1.365 0 1.886z"/></g><path fill="#000" fill-rule="nonzero" d="M1 1v10h14V1H1zm0-1h14a1 1 0 0 1 1 1v10a1 1 0 0 1-1 1H1a1 1 0 0 1-1-1V1a1 1 0 0 1 1-1z" opacity=".2"/></g></svg>