<svg width="16" height="12" viewBox="0 0 16 12" xmlns="http://www.w3.org/2000/svg"><g fill="none" fill-rule="evenodd"><path d="M1 0h14a1 1 0 0 1 1 1v10a1 1 0 0 1-1 1H1a1 1 0 0 1-1-1V1a1 1 0 0 1 1-1z" fill="#FFF"/><path d="M9 0h6a1 1 0 0 1 1 1H9V0zM0 2h16v1H0V2zm0 2h16v1H0V4zm0 2h16v1H0V6zm0 2h16v1H0V8zm0 2h16v1H0v-1z" fill="#CC0001"/><path fill="#F7F7F7" d="M0 11h16v1H0z"/><path d="M1 0h8v7H0V1a1 1 0 0 1 1-1z" fill="#010066"/><circle fill="#FFC400" cx="4.5" cy="3.5" r="1.5"/><path d="M1 1v10h14V1H1zm0-1h14a1 1 0 0 1 1 1v10a1 1 0 0 1-1 1H1a1 1 0 0 1-1-1V1a1 1 0 0 1 1-1z" fill="#000" fill-rule="nonzero" opacity=".2"/></g></svg>