<svg xmlns="http://www.w3.org/2000/svg" width="16" height="12" viewBox="0 0 16 12"><g fill="none" fill-rule="evenodd"><path fill="#F7F7F7" d="M1 0h14a1 1 0 0 1 1 1v10a1 1 0 0 1-1 1H1a1 1 0 0 1-1-1V1a1 1 0 0 1 1-1z"/><path fill="#0068C9" d="M0 8h16v3a1 1 0 0 1-1 1H1a1 1 0 0 1-1-1V8zm1-8h14a1 1 0 0 1 1 1v3H0V1a1 1 0 0 1 1-1z"/><path fill="#000" fill-rule="nonzero" d="M1 1v10h14V1H1zm0-1h14a1 1 0 0 1 1 1v10a1 1 0 0 1-1 1H1a1 1 0 0 1-1-1V1a1 1 0 0 1 1-1z" opacity=".2"/><path fill="#82D7ED" d="M8 4l2 3H6z"/><path fill="#85B446" d="M9.333 6L10 7H6l.667-1h2.666z"/></g></svg>