<svg xmlns="http://www.w3.org/2000/svg" width="16" height="12" viewBox="0 0 16 12"><g fill="none" fill-rule="evenodd" transform="translate(4 2)"><path fill="#DC143C" fill-rule="nonzero" stroke="#003893" stroke-width="2" d="M0 4.5h6L0 0v9h6L0 2.7z"/><path fill="#DC143C" fill-rule="nonzero" d="M0 4.5h6L0 0v9h6L0 2.7z"/><circle cx="2" cy="7" r="1" fill="#FFF"/><path fill="#FFF" d="M1.073 2.062c.24.338.566.546.925.546.36 0 .686-.208.926-.546.047.169.072.353.072.546 0 .803-.447 1.454-.998 1.454-.551 0-.998-.65-.998-1.454 0-.193.026-.377.073-.546z"/></g></svg>