<svg width="16" height="12" viewBox="0 0 16 12" xmlns="http://www.w3.org/2000/svg"><g fill="none" fill-rule="evenodd"><path d="M1 0h14a1 1 0 0 1 1 1v10a1 1 0 0 1-1 1H1a1 1 0 0 1-1-1V1a1 1 0 0 1 1-1z" fill="#273C83"/><path fill="#F7F7F7" d="M5 2h3v3H5v1H2V5H0V2h2V0h3z"/><path fill="#DC1E35" d="M4 3h4v1H4v2H3V4H0V3h3V0h1z"/><circle fill="#FF4565" cx="11.75" cy="2.75" r="1"/><circle fill="#FF4565" cx="10" cy="5" r="1"/><circle fill="#FF4565" cx="12" cy="8" r="1"/><circle fill="#FF4565" cx="13.5" cy="4.5" r="1"/><path d="M1 1v10h14V1H1zm0-1h14a1 1 0 0 1 1 1v10a1 1 0 0 1-1 1H1a1 1 0 0 1-1-1V1a1 1 0 0 1 1-1z" fill="#000" fill-rule="nonzero" opacity=".2"/></g></svg>