<svg xmlns="http://www.w3.org/2000/svg" width="16" height="12" viewBox="0 0 16 12"><g fill="none" fill-rule="evenodd"><path fill="#DE0000" d="M1 0h14a1 1 0 0 1 1 1v10a1 1 0 0 1-1 1H1a1 1 0 0 1-1-1V1a1 1 0 0 1 1-1z"/><path fill="#F7F7F7" d="M1 0h14a1 1 0 0 1 1 1v3H0V1a1 1 0 0 1 1-1z"/><path fill="#008200" d="M1 12c-.552 0-1-.597-1-1.333V8h16v2.667c0 .736-.448 1.333-1 1.333H1z"/><path fill="#DE0000" d="M1 0h4v12H1a1 1 0 0 1-1-1V1a1 1 0 0 1 1-1z"/><path fill="#000" fill-rule="nonzero" d="M1 1v10h14V1H1zm0-1h14a1 1 0 0 1 1 1v10a1 1 0 0 1-1 1H1a1 1 0 0 1-1-1V1a1 1 0 0 1 1-1z" opacity=".2"/><rect width="2" height="3" x="1.5" y=".5" fill="#FFF" rx="1" transform="rotate(90 2.5 2)"/></g></svg>