<svg xmlns="http://www.w3.org/2000/svg" width="16" height="12" viewBox="0 0 16 12"><g fill="none" fill-rule="evenodd"><path fill="#F7F7F7" d="M1 0h14a1 1 0 0 1 1 1v10a1 1 0 0 1-1 1H1a1 1 0 0 1-1-1V1a1 1 0 0 1 1-1z"/><circle cx="4" cy="3" r="1" fill="#005295"/><circle cx="12" cy="9" r="1" fill="#D3002D"/><path fill="#D3002D" d="M8 0h7a1 1 0 0 1 1 1v5H8V0z"/><path fill="#005295" d="M8 12H1a1 1 0 0 1-1-1V6h8v6z"/><path fill="#000" fill-rule="nonzero" d="M1 1v10h14V1H1zm0-1h14a1 1 0 0 1 1 1v10a1 1 0 0 1-1 1H1a1 1 0 0 1-1-1V1a1 1 0 0 1 1-1z" opacity=".2"/></g></svg>