<svg xmlns="http://www.w3.org/2000/svg" width="16" height="12" viewBox="0 0 16 12"><g fill="none" fill-rule="evenodd"><path fill="#F7F7F7" d="M1 0h14a1 1 0 0 1 1 1v10a1 1 0 0 1-1 1H1a1 1 0 0 1-1-1V1a1 1 0 0 1 1-1z"/><path fill="#D62717" d="M1 0h4v12H1a1 1 0 0 1-1-1V1a1 1 0 0 1 1-1zm10 0h4a1 1 0 0 1 1 1v10a1 1 0 0 1-1 1h-4V0z"/><path fill="#000" fill-rule="nonzero" d="M1 1v10h14V1H1zm0-1h14a1 1 0 0 1 1 1v10a1 1 0 0 1-1 1H1a1 1 0 0 1-1-1V1a1 1 0 0 1 1-1z" opacity=".2"/><circle cx="8" cy="6" r="2" fill="#FCD30F"/><path fill="#61AB10" fill-rule="nonzero" d="M8 8.5a2.5 2.5 0 1 1 0-5 2.5 2.5 0 0 1 0 5zm0-1a1.5 1.5 0 1 0 0-3 1.5 1.5 0 0 0 0 3z"/></g></svg>