<svg xmlns="http://www.w3.org/2000/svg" width="16" height="12" viewBox="0 0 16 12"><g fill="none" fill-rule="evenodd"><path fill="#0535A7" d="M1 0h14a1 1 0 0 1 1 1v10a1 1 0 0 1-1 1H1a1 1 0 0 1-1-1V1a1 1 0 0 1 1-1z"/><path fill="#CE182A" d="M0 6h16v5a1 1 0 0 1-1 1H1a1 1 0 0 1-1-1V6z"/><path fill="#F7F7F7" d="M.336 11.748A.998.998 0 0 1 0 11V1C0 .702.13.435.336.252L8 6 .336 11.748z"/><path fill="#000" fill-rule="nonzero" d="M1 1v10h14V1H1zm0-1h14a1 1 0 0 1 1 1v10a1 1 0 0 1-1 1H1a1 1 0 0 1-1-1V1a1 1 0 0 1 1-1z" opacity=".2"/><circle cx="3" cy="6" r="2" fill="#FCC40F"/><circle cx="2" cy="3" r="1" fill="#FCC40F"/><circle cx="2" cy="9" r="1" fill="#FCC40F"/><circle cx="6" cy="6" r="1" fill="#FCC40F"/></g></svg>