<svg xmlns="http://www.w3.org/2000/svg" width="16" height="12" viewBox="0 0 16 12"><g fill="none" fill-rule="evenodd"><path fill="#F7F7F7" d="M1 0h14a1 1 0 0 1 1 1v10a1 1 0 0 1-1 1H1a1 1 0 0 1-1-1V1a1 1 0 0 1 1-1z"/><path fill="#EF0000" d="M1 0h14a1 1 0 0 1 1 1v2H0V1a1 1 0 0 1 1-1zm0 12a1 1 0 0 1-1-1V9h16v2a1 1 0 0 1-1 1H1zM0 5h16v2H0z"/><path fill="#0050F4" d="M.336 11.748A.998.998 0 0 1 0 11V1C0 .702.13.435.336.252L8 6 .336 11.748z"/><path fill="#F7F7F7" fill-rule="nonzero" d="M3 7.375a1.375 1.375 0 1 1 0-2.75 1.375 1.375 0 0 1 0 2.75z"/><path fill="#000" fill-rule="nonzero" d="M1 1v10h14V1H1zm0-1h14a1 1 0 0 1 1 1v10a1 1 0 0 1-1 1H1a1 1 0 0 1-1-1V1a1 1 0 0 1 1-1z" opacity=".2"/></g></svg>