<svg width="16" height="12" viewBox="0 0 16 12" xmlns="http://www.w3.org/2000/svg"><g fill="none" fill-rule="evenodd"><path d="M1 0h14a1 1 0 0 1 1 1v10a1 1 0 0 1-1 1H1a1 1 0 0 1-1-1V1a1 1 0 0 1 1-1z" fill="#FF2936"/><path d="M1 0h4.5v12H1a1 1 0 0 1-1-1V1a1 1 0 0 1 1-1z" fill="#128415"/><path d="M5 8a2 2 0 1 0 0-4 2 2 0 0 0 0 4zm0 1a3 3 0 1 1 0-6 3 3 0 0 1 0 6z" fill="#FF0" fill-rule="nonzero"/><path fill="#F7F7F7" d="M4 5h2v2H4z"/><path d="M1 1v10h14V1H1zm0-1h14a1 1 0 0 1 1 1v10a1 1 0 0 1-1 1H1a1 1 0 0 1-1-1V1a1 1 0 0 1 1-1z" fill="#000" fill-rule="nonzero" opacity=".2"/></g></svg>