<svg width="16" height="12" viewBox="0 0 16 12" xmlns="http://www.w3.org/2000/svg"><g fill="none" fill-rule="evenodd"><path d="M1 0h14a1 1 0 0 1 1 1v10a1 1 0 0 1-1 1H1a1 1 0 0 1-1-1V1a1 1 0 0 1 1-1z" fill="#0C4076"/><path fill="#F7F7F7" d="M0 8h16v4H0z"/><path d="M1 0h14a1 1 0 0 1 1 1v3H0V1a1 1 0 0 1 1-1z" fill="#C6363C"/><path fill="#C6363C" fill-rule="nonzero" d="M2 3h6v3.414l-3 3-3-3z"/><path fill="#F7F7F7" d="M3 4v2l2 2 2-2V4z"/><path fill="#F7F7F7" d="M5 5l2-3H3z"/><path d="M1 1v10h14V1H1zm0-1h14a1 1 0 0 1 1 1v10a1 1 0 0 1-1 1H1a1 1 0 0 1-1-1V1a1 1 0 0 1 1-1z" fill="#000" fill-rule="nonzero" opacity=".2"/></g></svg>