<svg width="16" height="12" viewBox="0 0 16 12" xmlns="http://www.w3.org/2000/svg"><g fill="none" fill-rule="evenodd"><path d="M1 0h14a1 1 0 0 1 1 1v10a1 1 0 0 1-1 1H1a1 1 0 0 1-1-1V1a1 1 0 0 1 1-1z" fill="#005DA4"/><path d="M0 8h16v3a1 1 0 0 1-1 1H1a1 1 0 0 1-1-1V8z" fill="#ED1C24"/><path fill="#F7F7F7" d="M0 0h16v4H0z"/><path fill="#F7F7F7" fill-rule="nonzero" d="M2 1h5v4.535L4.5 7.202 2 5.535z"/><path fill="#005DA4" d="M3 2v3l1.5 1L6 5V2z"/><path d="M1 1v10h14V1H1zm0-1h14a1 1 0 0 1 1 1v10a1 1 0 0 1-1 1H1a1 1 0 0 1-1-1V1a1 1 0 0 1 1-1z" fill="#000" fill-rule="nonzero" opacity=".2"/></g></svg>