<svg xmlns="http://www.w3.org/2000/svg" width="16" height="12" viewBox="0 0 16 12"><g fill="none" fill-rule="evenodd"><path fill="#F7F7F7" d="M1 0h14a1 1 0 0 1 1 1v10a1 1 0 0 1-1 1H1a1 1 0 0 1-1-1V1a1 1 0 0 1 1-1z"/><path fill="#FFA209" fill-rule="nonzero" stroke="#FFA209" stroke-linecap="round" stroke-linejoin="round" stroke-width=".2" d="M8.001 7.326h-.002c-.202.676-.893.834-1.207.282-.075.649-1.075.785-1.142.118a.724.724 0 0 0 1.094-.32.696.696 0 0 0 1.17-.445v-.55a.229.229 0 0 0-.427-.108.54.54 0 1 1 1.026 0 .229.229 0 0 0-.427.108v.55a.696.696 0 0 0 1.17.445.724.724 0 0 0 1.094.32c-.067.667-1.067.531-1.142-.118-.314.552-1.005.394-1.207-.282zm-.755.82c-.14.3-.418.352-.662.11 0 0 .098-.07.203-.09a.33.33 0 0 1 .077-.261c.06.04.143.122.164.217.147-.019.218.023.218.023zm1.092-.035c-.187.275-.47.28-.672 0 0 0 .108-.052.215-.053a.33.33 0 0 1 .12-.247c.052.05.12.145.126.242.148.005.21.058.21.058zm1.082.144c-.228.24-.51.2-.662-.108 0 0 .115-.034.22-.019a.33.33 0 0 1 .158-.223.401.401 0 0 1 .086.258c.145.03.198.092.198.092zM8 4l.27.828-.706-.512h.872l-.705.512L8 4zm-1.282.344l.269.828-.705-.512h.871l-.704.512.269-.828zm-.939.938l.27.829-.705-.512h.87l-.704.512.27-.829zm-.343 1.282l.269.829L5 6.88h.871l-.705.512.27-.829zm3.846-2.22l.27.828-.705-.512h.87l-.704.512.27-.828zm.939.938l.27.829-.706-.512h.871l-.704.512.269-.829zm.343 1.282l.27.829-.705-.512H11l-.705.512.27-.829z"/><path fill="#006700" d="M0 8h16v3a1 1 0 0 1-1 1H1a1 1 0 0 1-1-1V8z"/><path fill="#CD0100" d="M1 0h14a1 1 0 0 1 1 1v3H0V1a1 1 0 0 1 1-1z"/><path fill="#000" fill-rule="nonzero" d="M1 1v10h14V1H1zm0-1h14a1 1 0 0 1 1 1v10a1 1 0 0 1-1 1H1a1 1 0 0 1-1-1V1a1 1 0 0 1 1-1z" opacity=".2"/></g></svg>