<svg xmlns="http://www.w3.org/2000/svg" width="16" height="12" viewBox="0 0 16 12"><g fill="none" fill-rule="evenodd"><path fill="#21AF64" d="M1 0h14a1 1 0 0 1 1 1v10a1 1 0 0 1-1 1H1a1 1 0 0 1-1-1V1a1 1 0 0 1 1-1z"/><path fill="#F5FFFD" d="M6.555 4.172a2.945 2.945 0 1 0 2.557-2.557c.508.08 1.005.322 1.407.723.958.959 1.01 2.461.116 3.356-.895.894-2.397.842-3.356-.116a2.557 2.557 0 0 1-.724-1.406z"/><circle cx="6.5" cy="1.5" r="1" fill="#F5FFFD"/><circle cx="7.5" cy="2.5" r="1" fill="#F5FFFD"/><circle cx="8.5" cy="3.5" r="1" fill="#F5FFFD"/><circle cx="8.5" cy="1.5" r="1" fill="#F5FFFD"/><circle cx="6.5" cy="3.5" r="1" fill="#F5FFFD"/><path fill="#CB3241" d="M3 0h2v12H3z"/><path fill="#000" fill-rule="nonzero" d="M1 1v10h14V1H1zm0-1h14a1 1 0 0 1 1 1v10a1 1 0 0 1-1 1H1a1 1 0 0 1-1-1V1a1 1 0 0 1 1-1z" opacity=".2"/></g></svg>