<svg width="16" height="12" viewBox="0 0 16 12" xmlns="http://www.w3.org/2000/svg"><g fill="none" fill-rule="evenodd"><path d="M1 0h14a1 1 0 0 1 1 1v10a1 1 0 0 1-1 1H1a1 1 0 0 1-1-1V1a1 1 0 0 1 1-1z" fill="#E30A17"/><path d="M8.18 3.94a3 3 0 1 0 0 4.122 3.03 3.03 0 0 1-1.055.188C5.675 8.25 4.5 7.243 4.5 6s1.175-2.25 2.625-2.25c.375 0 .732.068 1.055.19z" fill="#F7F7F7"/><circle fill="#FFF" cx="9" cy="6" r="1"/><path d="M1 1v10h14V1H1zm0-1h14a1 1 0 0 1 1 1v10a1 1 0 0 1-1 1H1a1 1 0 0 1-1-1V1a1 1 0 0 1 1-1z" fill="#000" fill-rule="nonzero" opacity=".2"/></g></svg>