<svg xmlns="http://www.w3.org/2000/svg" width="16" height="12" viewBox="0 0 16 12"><g fill="none" fill-rule="evenodd"><path fill="#DC092D" d="M1 0h14a1 1 0 0 1 1 1v10a1 1 0 0 1-1 1H1a1 1 0 0 1-1-1V1a1 1 0 0 1 1-1z"/><path fill="#FFF" d="M1 0h2.915L16 8.78V11a1 1 0 0 1-1 1h-2.508L0 2.924V1a1 1 0 0 1 1-1z"/><path fill="#000" d="M1 0h.647L16 10.428V11a1 1 0 0 1-1 1h-.24L0 1.276V1a1 1 0 0 1 1-1z"/><path fill="#000" fill-rule="nonzero" d="M1 1v10h14V1H1zm0-1h14a1 1 0 0 1 1 1v10a1 1 0 0 1-1 1H1a1 1 0 0 1-1-1V1a1 1 0 0 1 1-1z" opacity=".2"/></g></svg>