<svg xmlns="http://www.w3.org/2000/svg" width="16" height="12" viewBox="0 0 16 12"><g fill="none" fill-rule="evenodd"><path fill="#F7F7F7" d="M1 0h14a1 1 0 0 1 1 1v10a1 1 0 0 1-1 1H1a1 1 0 0 1-1-1V1a1 1 0 0 1 1-1z"/><path fill="#0035AA" d="M7 5h9v1H7zM0 7h16v1H0zm7-6h9v1H7zm0 2h9v1H7zM0 9h16v1H0zm0 2h16a1 1 0 0 1-1 1H1a1 1 0 0 1-1-1z"/><path fill="#000" fill-rule="nonzero" d="M1 1v10h14V1H1zm0-1h14a1 1 0 0 1 1 1v10a1 1 0 0 1-1 1H1a1 1 0 0 1-1-1V1a1 1 0 0 1 1-1z" opacity=".2"/><g transform="translate(1 1)"><circle cx="3" cy="3" r="2.4" fill="#FFCD02"/><path fill="#A87F12" fill-rule="nonzero" d="M3 6a3 3 0 1 1 0-6 3 3 0 0 1 0 6zm0-1.2a1.8 1.8 0 1 0 0-3.6 1.8 1.8 0 0 0 0 3.6z"/></g></g></svg>