<svg xmlns="http://www.w3.org/2000/svg" width="16" height="12" viewBox="0 0 16 12"><g fill="none" fill-rule="evenodd"><path fill="#F7F7F7" d="M1 0h14a1 1 0 0 1 1 1v10a1 1 0 0 1-1 1H1a1 1 0 0 1-1-1V1a1 1 0 0 1 1-1z"/><path fill="#17B737" d="M0 8h16v3a1 1 0 0 1-1 1H1a1 1 0 0 1-1-1V8z"/><path fill="#009BB7" d="M1 0h14a1 1 0 0 1 1 1v3H0V1a1 1 0 0 1 1-1z"/><path fill="#DE8686" d="M0 4h16v1H0zm0 3h16v1H0z"/><path fill="#000" fill-rule="nonzero" d="M1 1v10h14V1H1zm0-1h14a1 1 0 0 1 1 1v10a1 1 0 0 1-1 1H1a1 1 0 0 1-1-1V1a1 1 0 0 1 1-1z" opacity=".2"/><path fill="#F7F7F7" d="M4.738 1.652a1 1 0 1 0 0 1.696 1.5 1.5 0 1 1 0-1.696z"/><circle cx="7.5" cy="1.5" r="1" fill="#F5FFFD"/><circle cx="8.5" cy="2.5" r="1" fill="#F5FFFD"/><circle cx="6.5" cy="2.5" r="1" fill="#F5FFFD"/><circle cx="9.5" cy="3.5" r="1" fill="#F5FFFD"/><circle cx="9.5" cy="1.5" r="1" fill="#F5FFFD"/><circle cx="7.5" cy="3.5" r="1" fill="#F5FFFD"/><circle cx="5.5" cy="3.5" r="1" fill="#F5FFFD"/></g></svg>