<svg width="16" height="12" viewBox="0 0 16 12" xmlns="http://www.w3.org/2000/svg"><g fill="none" fill-rule="evenodd"><path d="M1 0h14a1 1 0 0 1 1 1v10a1 1 0 0 1-1 1H1a1 1 0 0 1-1-1V1a1 1 0 0 1 1-1z" fill="#F7F7F7"/><path d="M1 0h14a1 1 0 0 1 1 1v3H0V1a1 1 0 0 1 1-1z" fill="#CE1126"/><path d="M0 8h16v3a1 1 0 0 1-1 1H1a1 1 0 0 1-1-1V8z" fill="#002395"/><path d="M.502 11.867L6.302 8H16V4H6.303L.502.133A1 1 0 0 0 0 1v10a1 1 0 0 0 .502.867z" fill="#FFF" fill-rule="nonzero"/><path fill="#007A4D" d="M6 7l-6 4V1l6 4h10v2z"/><path d="M0 8.25L3 6 0 3.75v4.5zM0 9.5v-7L4.667 6 0 9.5z" fill="#FFCE00" fill-rule="nonzero"/><path fill="#000" d="M0 8.25L3 6 0 3.75z"/><path d="M1 1v10h14V1H1zm0-1h14a1 1 0 0 1 1 1v10a1 1 0 0 1-1 1H1a1 1 0 0 1-1-1V1a1 1 0 0 1 1-1z" fill="#000" fill-rule="nonzero" opacity=".2"/></g></svg>